<svg id="Färgen" xmlns="http://www.w3.org/2000/svg" viewBox="0 0 342.27 394.23"><defs><style>.cls-1{fill:none;}.cls-2{fill:#002139;}.cls-3{fill:#013238;}.cls-4{fill:#003269;}.cls-5{fill:#00021e;}.cls-6{fill:#001f42;}.cls-7{fill:#00254a;}.cls-8{fill:#003360;}.cls-9{fill:#003b99;}.cls-10{fill:#00377e;}.cls-11{fill:#002d65;}.cls-12{fill:#003754;}.cls-13{fill:#00286a;}.cls-14{fill:#082621;}.cls-15{fill:#00212f;}.cls-16{fill:#011d28;}.cls-17{fill:#01071d;}.cls-18{fill:#484340;}.cls-19{fill:#e29465;}.cls-20{fill:#000a33;}.cls-21{fill:#002f6e;}.cls-22{fill:#00256d;}.cls-23{fill:#ebeff4;}.cls-24{fill:#004986;}.cls-25{fill:#002c5b;}.cls-26{fill:#004090;}.cls-27{fill:#002ea8;}.cls-28{fill:#0039a4;}.cls-29{fill:#00348f;}.cls-30{fill:#003cba;}.cls-31{fill:#00123e;}.cls-32{fill:#0037c5;}</style></defs><title>hexagon</title><path class="cls-1" d="M203.21,253.53l0-.1-0.12.09h0.11Z"/><path class="cls-1" d="M8.76,291l-0.07.1,0.07,0V291Z"/><path class="cls-1" d="M333.43,123l-0.16.14h0.18S333.44,123,333.43,123Z"/><path class="cls-2" d="M331.51,228.89h0c-6.84.1-12.19,5.07-18.84,5.75l-4.83,5.82a13.41,13.41,0,0,0,12.72-1c6.53-4.69,14.4-3.81,21.29-6.31V227.6c-2.11.91-4.21,1.87-6.31,2.83C333.92,231.18,332.5,230.32,331.51,228.89Z"/><path class="cls-2" d="M313.41,251.08c1.86,5.09,6.41,1.72,9.43.12,6-3.16,12.52-3.85,19-4.77v-7.77c-7.54,1.3-14.49,4.48-21.68,7C317,246.7,311.75,246.5,313.41,251.08Z"/><path class="cls-2" d="M291.79,150.91c0.32,2.36.58,5.33-2.91,6-2.81.55-4.84-.74-6.26-3.16-1.3-2.22-2.83-4.8-5.78-3.41-3.28,1.54-2.58,5.36-1.67,7.54,3,7.29-.32,9.88-6.65,12.23-3.92,1.46-10.05,4.06-7.11,9.82,2.81,5.49,8.91,9.09,15,5.44,6.5-3.88,13.09-2.93,18.93-1.17,9.5,2.86,17.59,2.91,27.69.42,6.09-1.5,12.42-2.5,18.78-3.48V131.45c-13.59,5-28.59,3.89-42,9.57C295.45,142.88,290.94,144.57,291.79,150.91Z"/><path class="cls-3" d="M183.6,7.2L162.73,4.85,157,8.14c13,1.8,26,3.59,38.9,6.17Z"/><path class="cls-3" d="M64.09,74C72.69,77.83,75.84,87.69,84,92.18c1,0.56,1.87,3.81,1.65,3.94-10.41,6.44,2.67,14.45-1.49,21.22-1.8,2.94-8.92,2.41-5.75,8.53A13.72,13.72,0,0,0,87.8,133c2,0.5,3.7,2.26,5.52,3.47a4,4,0,0,1,1.39,5.74c-1.38,2.2-3.34.52-5-.17-4.41-1.86-8.79-3.48-13.18,0,3.18-.17,6.65-0.31,9.12,1.67,13.08,10.46,28.2,8.36,42.89,6.53,8.33-1,15.76,4.05,23.94,2a2.74,2.74,0,0,1,2.31,1.33c5.07,15.28,17.9,7.52,27.48,9.26a32.43,32.43,0,0,0,5.66.06h1.91c11.53-4.45,23.59-6.84,35.6-9.52,12.63-2.82,26-1.92,38.06-7.46-3.68-9.39-12.3-8.27-18.95-7-26.53,5.23-51.9-.29-77.28-6.58-3.56-.88-7.45-2.34-7.58-7.17-0.14-5,1.18-9.89,6.26-11.57,12.72-4.22,19.06-13.33,21.66-25.86,1.5-7.25,7.94-8,13.48-9.86h0a16.41,16.41,0,0,1,8.14-1.94c21.7,0.41,42.9-3.68,64.13-7.34,6.79-1.17,13,1.9,19.67,1.8l-88.7-51.21c-20.29,4-40,4.31-59.38-4.09L140,18c5.58,4,11.13,8,18.94,7.23A4.85,4.85,0,0,1,163.84,29c0.74,3.21-3.23,2.43-4,3.67-5.5,8.56-14.16,4.13-21.08,4.79-7.43.71-14-5.36-21.73-6.18L55.45,66.79A22.71,22.71,0,0,0,64.09,74ZM82,56.63c7.05-13,20-17.94,35.34-11.91,16.15,6.36,33.53,7.34,49.78,12.54,17.15,5.48,33.78,2.83,50.67.31,2.09-.31,2.11-0.19,8.46,4.49-16.75,2.94-31.75,5.82-46.83,8.1a46,46,0,0,0-14.91,5c-16.71,8.78-34.59,13.19-52.61,5.63C101.17,76.31,90.44,70.5,83,60.68,82,59.43,81,58.48,82,56.63Z"/><path class="cls-4" d="M171.14,0l-5.2,3c4.46,0.77,9,1.31,13.49,1.78Z"/><path class="cls-4" d="M179.43,4.79c-4.52-.47-9-1-13.49-1.78l-3.2,1.85L183.6,7.2Z"/><path class="cls-5" d="M8.69,291.13l-0.12.17h0.2c0-.07,0-0.13,0-0.2Z"/><path class="cls-5" d="M28.86,285.65h0c-5.51.58-5.16-9.26-10.63-6.78-4.59,2.08-.67,8.84-4.05,12.44h0A19.06,19.06,0,0,1,.43,294.94v0.73l19.34,11.16c1.34-2,2.66-4.07,3.78-6.2C25.66,295.76,31,292,28.86,285.65Z"/><path class="cls-6" d="M224.58,248.16c-7.13.91-15.07,0.27-21.35,5.27l0,0.1c28,1.63,54.75-5.55,80.74-14.08,12.51-4.1,25-8.79,37.63-13,3.17-1.06,7-3.3,9.19.67,0.32,0,.62-0.05.94,0,3.64,0.34,6.92-1,10.12-2.37v-7.18c-12.9,1.63-24.86,6.2-36.84,10.23C278.66,236.63,252.28,244.63,224.58,248.16Z"/><path class="cls-6" d="M320.24,127h0c-12.2,3.09-24.07,8-37.16,5.73-8.5-1.5-16.71,2.52-25.21,1.82H246.6c-9.17,5.32-18.73,5-28.46,1.89h-0.91l-0.91,0c-11,.62-21.66-1.65-32.19-4.22-8.9-2.17-12.76-9.67-7.35-16.09,9-10.62,13.36-23.92,21.58-34.84-5.47,2.09-9,6.21-10.41,12.93-1.91,9.22-7.5,15.53-16.27,19.28-4.31,1.84-8.92,4.37-8.46,10.07,0.49,6,6,6.39,10.37,7.86,18.35,6.15,37.64,5.46,56.52,7.76,4,0.49,8-1.31,11.93-2.31A28,28,0,0,1,258.67,138c3.78,1.34,6.86,3.38,5.56,8.26a11.58,11.58,0,0,1-1.34,1.7c-2.47,6.18-9.15,6.87-14,6.87-17.36,0-33.89,4.05-50.57,7.79a14.59,14.59,0,0,1-2.77.29l-1.25.29a22.79,22.79,0,0,0-3.57,1.15,16.53,16.53,0,0,1-3,.72c-5.72.47-11.45,0.24-17.18,0.29-3.57,1.77-5.64,5.53-7.44,8.89-3.48,6.52,4.86,4.23,7.39,7.6-5.76,3-11.27,4.31-17.62,3.07-6.7-1.3-13.3-.09-19.63,2.48,17.53,2,35.37-2,52.85,3.4,5.34,1.65,11.76,1,17.68-.69a25.37,25.37,0,0,1,9.29-.63c3.45,0.32,7.15,1.45,8.39,5.09,1.56,4.59-3,5.53-5.53,7.5-8.2,6.27-18.18,8.49-27.74,11.14-5.68,1.57-10.93,3.73-14.9,7.44-6.92,6.47-15.52,8-24,9.85-6.76,1.49-13-.15-17.56-6.24-1.83-2.45-4.16-5.24-6.86-6.18-8.3-2.9-11.31-6.8-4.69-14.33a2.81,2.81,0,0,0-.46-4.21c-4.85-3.64-2.18-6.9.3-10.23-7.21.24-12,6.48-18.95,7.5h0c-4.43,1.82-8.26,5-13.2,5.69-2.09,3.85-1.06,6.67,3.39,5.51,11.55-3,17.71,5.75,24.91,11.33,3.39,2.62,6,5.66,10.47,6.74,2.42,0.58,5.62,3.12,3.5,6.37-5.28,8.1,2,8.29,6.1,9.38,3.81,1,8.08.31,12.14,0.36,19.56-3,39.19-5.34,58.68-9,21.06-3.93,40.43-13,61.06-18.15,8.91-2.21,17.78.34,26.68-2.58-0.19,4.66-2.89,4.7-5.32,5.23-2.84.62-4.73,2.47-3.6,5.34,1,2.49,3.46,1.92,5.74,1.3,12-3.26,24.23-6,36.13-9.71a89.62,89.62,0,0,1,14.09-3V184.15q-8,1.48-16.08,2.91c-11.88,2.1-22.57,2.83-33.89-.65a19.6,19.6,0,0,0-13.84,1.2c-4.72,2.09-9.27,1.26-13.5-1.41-7.28-4.58-8-11-.79-15.74,6.4-4.18,9.82-8.47,9.32-16.53-0.32-5.24,4.16-7.37,8.5-4.23,5.66,4.1,7.25,1.8,8.82-3.58,1.37-4.72,6-6.08,10.06-7.78,13.24-5.51,27.76-5.13,41.35-9.09h0v-4.1A94.54,94.54,0,0,1,320.24,127Zm-77.64,54.4c4.74-2,7.73-4.24,12.49-2.65C252.32,183.54,249.08,184.72,242.6,181.41Z"/><path class="cls-6" d="M300.45,138.34c-4.09,1.7-8.69,3.06-10.06,7.78-1.57,5.38-3.16,7.68-8.82,3.58-4.34-3.14-8.83-1-8.5,4.23,0.5,8.06-2.92,12.35-9.32,16.53-7.24,4.73-6.49,11.16.79,15.74,4.23,2.66,8.78,3.5,13.5,1.41a19.6,19.6,0,0,1,13.84-1.2c11.31,3.47,22,2.75,33.89.65q8-1.43,16.08-2.91v-3c-6.36,1-12.69,2-18.78,3.48-10.1,2.49-18.2,2.45-27.69-.42-5.85-1.76-12.43-2.72-18.93,1.17-6.11,3.65-12.21.05-15-5.44-2.94-5.76,3.19-8.36,7.11-9.82,6.33-2.35,9.68-4.94,6.65-12.23-0.91-2.18-1.61-6,1.67-7.54,3-1.39,4.49,1.19,5.78,3.41,1.41,2.42,3.44,3.71,6.26,3.16,3.49-.68,3.23-3.66,2.91-6-0.86-6.34,3.66-8,8-9.89,13.42-5.68,28.42-4.53,42-9.57v-2.22h0C328.21,133.21,313.69,132.83,300.45,138.34Z"/><path class="cls-6" d="M331.72,227.07c-0.32,0-.63,0-0.94,0a9.28,9.28,0,0,1,.73,1.77c1,1.43,2.4,2.29,4,1.55,2.1-1,4.2-1.92,6.31-2.83v-2.9C338.64,226,335.36,227.41,331.72,227.07Z"/><path class="cls-6" d="M188,162.87c-3.09,3.26-7.25,2.28-10.63,1.7a10.84,10.84,0,0,0-6.83.82c5.73-.05,11.46.18,17.18-0.29a16.53,16.53,0,0,0,3-.72,22.79,22.79,0,0,1,3.57-1.15l1.25-.29c-1.87.05-3.78-.1-5.65-0.07H188Z"/><path class="cls-6" d="M201.13,77.87c-5.54,1.86-12,2.61-13.48,9.86-2.59,12.53-8.93,21.64-21.66,25.86-5.08,1.68-6.4,6.54-6.26,11.57,0.13,4.83,4,6.29,7.58,7.17,25.38,6.29,50.75,11.81,77.28,6.58,6.64-1.31,15.27-2.43,18.95,7a12.19,12.19,0,0,1-.64,2.1,11.58,11.58,0,0,0,1.34-1.7c1.3-4.88-1.78-6.92-5.56-8.26A28,28,0,0,0,242,136.88c-3.93,1-7.9,2.8-11.93,2.31-18.88-2.3-38.17-1.62-56.52-7.76-4.37-1.46-9.89-1.83-10.37-7.86-0.46-5.7,4.15-8.23,8.46-10.07,8.77-3.74,14.36-10.05,16.27-19.28,1.39-6.72,4.93-10.84,10.41-12.93,0.88-1.17,1.79-2.32,2.76-3.42h0Z"/><path class="cls-7" d="M329.33,280.38c3-.42,7.86-1.63,8,2.05,0.17,5-5.21,3.07-8.15,3A185.43,185.43,0,0,0,290,288.91c-4.25.87-7.37,3.27-10.94,5.08-1.44.73-3,1-2.42,4,1.73,8.63-2.47,11.11-12,11.23-12.57.16-25.57-1.27-37.48,4.92-4.56,2.37-8.59,5.09-11.14,9.72-1.56,2.83-3.74,5.06-7.29,5.27h0c-12.44,9.78-25.36,19-36.43,29.63,0.31,2.81,2,2.62,2.91,2.28,19.74-7.47,39.2-15.8,59.24-22.29,10.9-3.53,21-9.59,31.17-12.61,12.28-3.63,25.07-8.52,38.48-8.71l37.7-21.77V266c-7.06,4.39-14.91,7.36-23,10.82C322.05,280.74,325.47,280.93,329.33,280.38Zm-85.06,43.35c-3,0-6.75.63-7.16-3.67-0.37-3.92,1.85-6.39,6.07-6.4,3.17,0,6.24.25,6.89,4.06C249.79,321.59,248.06,323.72,244.27,323.74Z"/><path class="cls-6" d="M307.31,240.55a3.63,3.63,0,0,1,1.16-4.54c-9.26,3-18.5,6.12-27.81,9-20.87,6.36-40.6,16-62.18,20.51-7.23,1.51-14.15,6.21-20.8,10-13.68,7.71-28.07,13.38-42.86,18.31-2.15.72-4,1.35-6.32,0.5-6.18-2.3-12.37-.16-17,3-9.05,6.15-18.31,11.88-27.68,17.49-2.78,1.67-7.27,4.06,0,7.21,5.72,2.48,2.8,6.89.31,10.81-4.31,6.8-12.07,7.74-18.25,11.36h0l-0.72.48,16.5,9.53c8.7-7.71,18.46-14.12,28.73-20.15,22.35-13.13,46.22-22.35,69.82-32.66,24.1-10.53,50.46-14,73.66-26,21.56-11.14,45-15,68-21v-5.65c-5.44,1-10.79,2.64-16.17,4.1-1.8.49-3.44,1.61-5.29,2-3.48.7-7.36,1.37-8.6-3.13-1.15-4.17,1.84-6.46,5.35-7.63,8.19-2.74,16-6.65,24.71-7.78V236c-9.06.3-16.79,5.16-25.39,7C313.16,243.6,309,244.71,307.31,240.55Z"/><path class="cls-6" d="M78.39,306.4l-7.54,1.81c-3.46,2.1-7.05,4-10.35,6.34-3.84,2.7-8.31,5.44-2.4,10.64,1.37,1.2,1.53,2.9,1.49,4.63l3.27,1.89C64.2,321.21,67.63,312,78.39,306.4Z"/><path class="cls-6" d="M307.83,240.46l4.83-5.82-4.2,1.37a3.63,3.63,0,0,0-1.16,4.54c1.72,4.16,5.84,3,9.14,2.36,8.6-1.8,16.33-6.66,25.39-7v-2.76c-6.89,2.5-14.75,1.62-21.29,6.31A13.41,13.41,0,0,1,307.83,240.46Z"/><path class="cls-6" d="M311.78,251.59c1.24,4.5,5.12,3.83,8.6,3.13,1.85-.37,3.49-1.49,5.29-2,5.37-1.46,10.72-3.09,16.17-4.1v-2.21c-6.48.92-13,1.61-19,4.77-3,1.59-7.57,5-9.43-.12-1.67-4.58,3.6-4.38,6.75-5.46,7.19-2.48,14.14-5.66,21.68-7v-2.48c-8.72,1.13-16.52,5-24.71,7.78C313.62,245.13,310.63,247.43,311.78,251.59Z"/><path class="cls-8" d="M311.94,233.37c5.37-2.33,10.55-5.23,16.4-6.05a5.82,5.82,0,0,0-3,.33c-5.26,2-10.56,3.81-15.88,5.62a8.1,8.1,0,0,1,1.82.62C311.53,233.71,311.74,233.54,311.94,233.37Z"/><path class="cls-8" d="M72.45,326.29c4.11-1,4.43,4.31,6.16,7,1.89,2.93,6.37,4.13,7.3,7.69,3.93-2.78,9.34-2.72,12.79-6.5s6.79-6.83,1.49-11.76c-4-3.71-1.33-7.64,2-9.34,16.08-8.25,28.5-23.64,49.63-22.3,10.72,0.68,21.37-5.45,30.89-10.75,36-20,76.07-28.88,114.3-42.75a16.42,16.42,0,0,0,1.76-.77q-5.8,1.87-11.58,3.67c-22.22,6.89-44.13,16.81-68.41,14.3-5.2-.54-10.58,2.81-15.61-0.8,0-.16.05-0.3,0.08-0.46h-0.11c-15.49,6-32.19,7.57-47.65,14.07-21,8.82-43.43,14.07-62.33,27.57-1.44,1-3.5,1.21-5.26,1.79l-2,1.91h0a18.38,18.38,0,0,1-7.29,7.38l0.07,0A4.73,4.73,0,0,1,76.29,312c-8.56,3.84-9.74,11.21-10.23,19.3,0,0.73-.14,1.45-0.24,2.17l0.27,0.16C67.18,330.22,69.14,327.11,72.45,326.29Z"/><path class="cls-8" d="M311.94,233.37c-0.2.18-.41,0.34-0.63,0.51a10.14,10.14,0,0,1,1.35.76c6.66-.68,12-5.66,18.84-5.75h0a6.14,6.14,0,0,0-3.17-1.57C322.49,228.14,317.31,231,311.94,233.37Z"/><path class="cls-8" d="M218.75,254.79c24.28,2.51,46.19-7.41,68.41-14.3q5.78-1.79,11.58-3.67c3.41-1.71,6.78-4.38,10.75-3.56,5.32-1.8,10.63-3.66,15.88-5.62a5.82,5.82,0,0,1,3-.33,22.7,22.7,0,0,1,2.44-.2c-2.17-4-6-1.73-9.19-.67-12.59,4.22-25.12,8.91-37.63,13-26,8.52-52.74,15.71-80.74,14.08,0,0.15-.06.29-0.08,0.46C208.16,257.59,213.55,254.25,218.75,254.79Z"/><path class="cls-8" d="M331.51,228.89a9.28,9.28,0,0,0-.73-1.77,22.7,22.7,0,0,0-2.44.2A6.14,6.14,0,0,1,331.51,228.89Z"/><path class="cls-8" d="M76.29,312a4.73,4.73,0,0,0,2.39-5.66l-0.07,0-0.22.15h0C67.63,312,64.2,321.21,62.86,331.71l3,1.71c0.1-.72.19-1.44,0.24-2.17C66.55,323.16,67.73,315.8,76.29,312Z"/><path class="cls-8" d="M309.49,233.26q-5.37,1.82-10.75,3.56a16.42,16.42,0,0,1-1.76.77c-38.23,13.87-78.32,22.7-114.3,42.75-9.52,5.3-20.18,11.43-30.89,10.75-21.12-1.34-33.55,14-49.63,22.3-3.3,1.69-6,5.62-2,9.34,5.3,4.92,1.85,8.12-1.49,11.76s-8.87,3.72-12.79,6.5a6.3,6.3,0,0,1,0,3.11c6.18-3.62,13.94-4.55,18.25-11.36,2.49-3.92,5.4-8.33-.31-10.81-7.24-3.14-2.75-5.54,0-7.21,9.37-5.62,18.63-11.34,27.68-17.49,4.6-3.13,10.79-5.27,17-3,2.28,0.85,4.17.22,6.32-.5,14.79-4.93,29.18-10.6,42.86-18.31,6.66-3.75,13.58-8.44,20.8-10,21.58-4.52,41.31-14.15,62.18-20.51,9.32-2.84,18.55-5.93,27.81-9,0.85-.77,1.92-1.43,2.84-2.13A8.1,8.1,0,0,0,309.49,233.26Z"/><path class="cls-8" d="M308.47,236l4.2-1.37a10.14,10.14,0,0,0-1.35-.76C310.39,234.59,309.32,235.25,308.47,236Z"/><path class="cls-8" d="M298.74,236.82q5.38-1.74,10.75-3.56C305.53,232.44,302.15,235.11,298.74,236.82Z"/><path class="cls-9" d="M213.7,316.59a155.34,155.34,0,0,0,16.23-13.44c1.26-1.22,3.27-2.51,1.62-4.64-1.09-1.4-2.75-.57-4.3-0.55-8.43.16-15.45,4.67-23.15,7.05-31.81,9.84-57.89,29.38-84,49a68.07,68.07,0,0,1-8.88,5.6L132.66,372c4.8-4,10.49-7.19,15.72-10.76C170.16,346.37,192.45,332.19,213.7,316.59Z"/><path class="cls-10" d="M264.4,281.61c-13.43,6.11-28.42,8-42.06,13.55-4.32,1.76-8.66,3.47-13,5.16q6.7-2.08,13.49-3.84c3.44-.89,8.08-2.36,10.12,2.09s-1.91,7-4.81,9.17c-19.77,14.79-39.53,29.43-60.62,42.56-11,6.82-23.39,13.11-32.75,22.93l4.31,2.49a18.77,18.77,0,0,1,3.12-3.6,231,231,0,0,1,48.11-33.43c5.18-2.72,9-8.18,14.93-9.36,1-.63,1.94-1.28,2.93-1.88,3.41-1.86,5.6-5,8.12-7.77,5.88-6.58,13.35-11.05,22-11.45,9.09-.42,18-2.71,27.23-1.84,4.22,0.4,9.22-.35,8.95-5.81-0.49-9.77,7-11.28,13.19-13.23,9.27-2.94,19.06-3.8,28.84-4.14,4.69-.16,9.39.91,14.64-0.31-2.8-.18-5.06.13-7.25-0.53-2.49-.75-5.09-1.74-5.51-4.54-0.46-3,2.24-4.42,4.48-5.33A141.31,141.31,0,0,0,341.84,263v-7.66c-5.93,3.3-12.67,4.71-19,6.12C302.52,266,283.28,273,264.4,281.61Z"/><path class="cls-10" d="M179.2,312.23C164,318.47,149.15,325.33,135,334c-10.84,6.65-21.35,13.47-30.92,21.49l3.86,2.23c23.42-14.34,44.83-31.9,69.23-44.51C177.84,312.88,178.52,312.56,179.2,312.23Z"/><path class="cls-10" d="M318.42,277.83c0.42,2.79,3,3.78,5.51,4.54,2.19,0.66,4.45.35,7.25,0.53-5.24,1.21-9.95.14-14.64,0.31-9.78.34-19.57,1.2-28.84,4.14-6.16,2-13.67,3.47-13.19,13.23,0.27,5.46-4.73,6.21-8.95,5.81-9.2-.88-18.14,1.42-27.23,1.84-8.7.4-16.17,4.88-22,11.45-2.52,2.82-4.71,5.91-8.12,7.77-1,.61-2,1.25-2.93,1.88a12.22,12.22,0,0,1,3.54-.19h0c3.55-.21,5.73-2.44,7.29-5.27,2.55-4.64,6.58-7.36,11.14-9.72,11.91-6.19,24.91-4.76,37.48-4.92,9.5-.12,13.69-2.6,12-11.23-0.59-3,1-3.26,2.42-4,3.57-1.82,6.7-4.22,10.94-5.08a185.43,185.43,0,0,1,39.15-3.43c2.95,0,8.32,1.95,8.15-3-0.12-3.68-5-2.47-8-2.05-3.86.55-7.28,0.35-10.46-3.58,8.07-3.46,15.92-6.42,23-10.82v-3a141.31,141.31,0,0,1-18.94,9.49C320.66,273.4,318,274.79,318.42,277.83Z"/><path class="cls-10" d="M200.2,301.29c-23.6,10.31-47.47,19.54-69.82,32.66-10.28,6-20,12.45-28.73,20.15l2.42,1.4c9.56-8,20.08-14.84,30.92-21.49,14.15-8.68,29.06-15.54,44.21-21.79a201.32,201.32,0,0,1,30.13-11.9c4.35-1.7,8.69-3.41,13-5.16,13.64-5.54,28.63-7.44,42.06-13.55,18.88-8.59,38.12-15.61,58.44-20.14,6.33-1.41,13.08-2.82,19-6.12v-1.05c-22.94,6-46.42,9.83-68,21C250.66,287.24,224.31,290.76,200.2,301.29Z"/><path class="cls-10" d="M228.13,307.74c2.9-2.17,6.79-4.85,4.81-9.17s-6.68-3-10.12-2.09q-6.78,1.75-13.49,3.84c-10.06,3.93-20.15,7.79-30.13,11.9-0.68.34-1.36,0.66-2,1-24.4,12.61-45.81,30.16-69.23,44.51l3.31,1.91a68.07,68.07,0,0,0,8.88-5.6c26.08-19.64,52.17-39.19,84-49,7.7-2.38,14.72-6.89,23.15-7.05,1.54,0,3.21-.86,4.3.55,1.65,2.12-.36,3.42-1.62,4.64a155.34,155.34,0,0,1-16.23,13.44c-21.25,15.6-43.54,29.78-65.32,44.66-5.23,3.57-10.93,6.8-15.72,10.76l2.11,1.22c9.36-9.82,21.8-16.1,32.75-22.93C188.61,337.16,208.36,322.52,228.13,307.74Z"/><path class="cls-10" d="M179.2,312.23c10-4.12,20.07-8,30.13-11.9A201.32,201.32,0,0,0,179.2,312.23Z"/><path class="cls-11" d="M279,325.62c-9-.21-16.68,2.32-22.79,9.19a9.87,9.87,0,0,1-6.6,3.35C234,339.45,220,345.84,206.2,352.69c-9,4.47-19.4,5.2-28.51,9.67-2,1-4.63.88-6.07-1.1-2-2.67.2-5,1.92-6.53,4.42-3.89,8.84-7.79,13.35-11.58-14.07,8.2-27.81,16.85-39.89,28a29.2,29.2,0,0,0-5.25,6.12l28.19,16.27q5.84-2.45,11.51-5.25L299.7,320a30.59,30.59,0,0,0-7.06,2.12C288.36,324,283.79,325.73,279,325.62Z"/><path class="cls-11" d="M171.14,394.23l10.3-5.95q-5.68,2.78-11.51,5.25Z"/><path class="cls-11" d="M234.49,338.75c-20,6.5-39.5,14.83-59.24,22.29-0.91.34-2.59,0.53-2.91-2.28,11.07-10.66,24-19.86,36.43-29.63-8,1.3-12.18,8.39-18.61,12.1l-3.28,1.91c-4.51,3.79-8.92,7.69-13.35,11.58-1.72,1.51-3.87,3.86-1.92,6.53,1.45,2,4.11,2.07,6.07,1.1,9.1-4.47,19.48-5.2,28.51-9.67,13.84-6.85,27.76-13.24,43.43-14.53a9.87,9.87,0,0,0,6.6-3.35c6.11-6.87,13.8-9.4,22.79-9.19,4.78,0.11,9.35-1.59,13.63-3.5A30.59,30.59,0,0,1,299.7,320l4.44-2.56c-13.41.18-26.2,5.08-38.48,8.71C255.44,329.17,245.38,335.22,234.49,338.75Z"/><path class="cls-11" d="M147,371.13c12.08-11.14,25.83-19.79,39.89-28a188.06,188.06,0,0,1,18.35-13.83c-6,1.18-9.75,6.64-14.93,9.36a231,231,0,0,0-48.11,33.43,18.77,18.77,0,0,0-3.12,3.6l2.67,1.54A29.2,29.2,0,0,1,147,371.13Z"/><path class="cls-11" d="M190.16,341.23c6.43-3.71,10.63-10.8,18.61-12.1h0a12.22,12.22,0,0,0-3.54.19,188.06,188.06,0,0,0-18.35,13.83Z"/><path class="cls-2" d="M83.78,170c12.65-1.33,24.37.83,36.95,2.24-6.15,1.93-8.63,5.16-8.59,11.53,0,5.61-6.27,6.85-9.53,10.51,5.77-2.14,10.43-8.24,17.72-5,0,0,0,.05,0,0.08,4.41,0.43,8.57-.85,12.77-1.9,3.85-7.34,11.23-4.23,17-5.3,3.88-.71,8.06,1.1,13.2-0.35-4-4.44-2.8-8.52.37-12.79a12.64,12.64,0,0,1,4-3.6c-5.56.13-10.39-.88-13.17-6.54-1.39-2.83-4.26-3.36-7.13-3.85-9.29-1.58-18.59-3.47-28-1.31-15.76,3.61-28.48-4.68-41.89-10.33a5.17,5.17,0,0,1-1.09-1.32c-5.06.25-10.3-1-15,1.87h0c-6.67.72-13.79,3.7-18.81-3.78-3.25-.14-6.19.35-7.6,3.84,3.34,2.93,11.94.59,9.41,9.4-14.8,6.21-24.25,1.25-26.29-14.53C17.06,131,10.23,128.76,6,130a24.82,24.82,0,0,1-5.57,1V167.1c4.45,0.24,8.91.37,13.39,0.33C37.21,167.23,60.53,172.41,83.78,170Z"/><path class="cls-2" d="M188,162.87a32.43,32.43,0,0,1-5.66-.06c-9.58-1.74-22.41,6-27.48-9.26a2.74,2.74,0,0,0-2.31-1.33c-8.18,2.1-15.61-3-23.94-2-14.7,1.84-29.81,3.94-42.89-6.53-2.47-2-5.94-1.83-9.12-1.67H76.43a5.17,5.17,0,0,0,1.09,1.32c13.41,5.65,26.13,13.94,41.89,10.33,9.41-2.16,18.71-.27,28,1.31,2.87,0.49,5.74,1,7.13,3.85,2.78,5.66,7.62,6.66,13.17,6.54a16.18,16.18,0,0,1,8.29-1.69C180,163.77,184.12,164.9,188,162.87Z"/><path class="cls-2" d="M120.32,189.28c-7.28-3.27-12,2.83-17.72,5a7.3,7.3,0,0,0-1.54,2.59c6.9-1,11.73-7.26,18.95-7.5l0.31,0S120.32,189.31,120.32,189.28Z"/><path class="cls-2" d="M167.71,165.42a12.64,12.64,0,0,0-4,3.6c-3.18,4.27-4.33,8.35-.37,12.79-5.14,1.45-9.32-.35-13.2.35-5.82,1.06-13.2-2-17,5.3l0.11,0h0c6.32-2.58,12.93-3.78,19.63-2.48,6.35,1.23,11.86-.12,17.62-3.07-2.53-3.37-10.87-1.07-7.39-7.6,1.79-3.37,3.87-7.13,7.44-8.89-0.85,0-1.71,0-2.56,0h-0.23Z"/><path class="cls-2" d="M177.34,164.57c3.39,0.58,7.54,1.56,10.63-1.7-3.85,2-8,.9-12,0.86a16.18,16.18,0,0,0-8.29,1.69h0.23c0.85,0,1.71,0,2.56,0A10.84,10.84,0,0,1,177.34,164.57Z"/><path class="cls-12" d="M159.61,28.52c-8.86-.8-15.52-4.81-21.94-9.19L120.12,29.46c3.71,1,7.38,2.41,11.08,3.44C140.57,35.49,150.43,38.28,159.61,28.52Z"/><path class="cls-12" d="M6.81,128.06c6.87-1.05,12,3.56,13.57,11.45C22.8,151.43,29.62,155.3,41,152.24c-3.09-1.24-5.63-3-6-7a3.22,3.22,0,0,1-.66-2.24c1.11-3.83,3.84-4.75,7.43-4.18,0.64,0.33,1.28.64,1.93,0.94,5.34-1.61,9.93.53,14.51,2.71a19.19,19.19,0,0,0,4.25-1.23c4.74-1.65,9.46-2.81,13.89.66-0.71-1.59,1-2.48,2.64-3.17,3.71-1.53,7.42.12,12.12,0.43-2.48-3.89-6.4-4.44-9.23-6.42-6.69-4.66-7.29-8.54-2.28-15.17C82.51,113.75,81,93.15,77.42,90A315.73,315.73,0,0,1,54.6,67.28l-7.08,4.08A80.92,80.92,0,0,0,63.73,85.13c4.78,3,6.89,8.1,7.95,13.41,1.59,7.94-5.51,12.94-15.9,11.42h0c-8.13,1.7-16.15,4.13-24.58,3.88h0c-10.13,4.32-20.25,7.14-30.76,5.5v9A30.57,30.57,0,0,0,6.81,128.06Z"/><path class="cls-12" d="M138.74,37.43c6.92-.66,15.57,3.77,21.08-4.79,0.8-1.25,4.77-.46,4-3.67a4.85,4.85,0,0,0-4.93-3.75C151.1,26,145.55,22,140,18l-2.3,1.33c6.42,4.38,13.08,8.39,21.94,9.19-9.18,9.76-19,7-28.42,4.37-3.69-1-7.37-2.45-11.08-3.44L117,31.25C124.75,32.07,131.3,38.14,138.74,37.43Z"/><path class="cls-12" d="M77.42,90c3.61,3.19,5.09,23.79,2.19,27.63-5,6.63-4.41,10.51,2.28,15.17,2.83,2,6.75,2.52,9.23,6.42-4.7-.31-8.41-2-12.12-0.43-1.69.7-3.35,1.58-2.64,3.17l0.21,0.16c4.39-3.51,8.77-1.9,13.18,0,1.62,0.69,3.58,2.37,5,.17a4,4,0,0,0-1.39-5.74c-1.82-1.21-3.51-3-5.52-3.47a13.72,13.72,0,0,1-9.42-7.13c-3.16-6.12,3.95-5.59,5.75-8.53,4.15-6.77-8.93-14.78,1.49-21.22C85.84,96,85,92.74,84,92.18,75.84,87.69,72.69,77.83,64.09,74a22.71,22.71,0,0,1-8.64-7.16l-0.85.49A315.73,315.73,0,0,0,77.42,90Z"/><path class="cls-12" d="M62.46,141.26a19.19,19.19,0,0,1-4.25,1.23c1.05,0.5,2.1,1,3.16,1.46h0c4.74-2.83,10-1.62,15-1.87,0-.06,0-0.11-0.07-0.16C71.92,138.44,67.21,139.61,62.46,141.26Z"/><path class="cls-12" d="M41.78,138.84c-3.58-.57-6.32.35-7.43,4.18a3.22,3.22,0,0,0,.66,2.24A11.1,11.1,0,0,1,35,144h0c1.42-3.49,4.35-4,7.6-3.84,0.39-.15.76-0.28,1.14-0.39C43.06,139.48,42.42,139.17,41.78,138.84Z"/><path class="cls-12" d="M18.08,138.88c2,15.77,11.49,20.74,26.29,14.53-1.14-.37-2.28-0.74-3.36-1.17-11.39,3.06-18.21-.81-20.64-12.73-1.61-7.89-6.69-12.5-13.57-11.45a30.57,30.57,0,0,1-6.37.32V131A24.82,24.82,0,0,0,6,130C10.23,128.76,17.06,131,18.08,138.88Z"/><path class="cls-12" d="M76.36,141.92c0,0.05,0,.11.07,0.16h0.14Z"/><path class="cls-13" d="M229.45,78.21c-8.73,1.31-17.66-.79-26.27,1.79a25.83,25.83,0,0,0-3.14.7c-3.48,8.81-8.15,17-13.08,25.09-1.79,2.93-4.18,5.48-6.07,8.35-5.49,8.34-3.82,13.41,5.73,16a119.07,119.07,0,0,0,27.75,4.12c-4.63-3.74-11.51-1.43-16.66-4.75-6.93-4.48-9.57-8.75-3.91-14.52,6.11-6.24,8.28-13,7.38-21.22-0.94-8.6,3.4-12.06,11.45-12.08h0c19.18,0.18,37.64-5.7,56.68-6.63,9.95-.49,19.88-1,29.82-1.15l-1.66-1-0.88-.09C273.81,69.9,251.71,74.88,229.45,78.21Z"/><path class="cls-13" d="M273.4,68.6c-21.23,3.66-42.43,7.74-64.13,7.34a16.41,16.41,0,0,0-8.14,1.94h0c-0.34,1-.71,1.89-1.08,2.83a25.83,25.83,0,0,1,3.14-.7c8.61-2.58,17.54-.49,26.27-1.79,22.25-3.33,44.35-8.31,67.15-5.36l0.88,0.09-4.41-2.55C286.41,70.5,280.19,67.43,273.4,68.6Z"/><path class="cls-13" d="M214.38,134.27a119.07,119.07,0,0,1-27.75-4.12c-9.55-2.6-11.22-7.67-5.73-16,1.89-2.87,4.29-5.42,6.07-8.35,4.92-8.07,9.6-16.28,13.08-25.09-0.59.17-1.13,0.38-1.68,0.59-8.21,10.92-12.62,24.22-21.58,34.84-5.41,6.42-1.55,13.92,7.35,16.09,10.53,2.56,21.2,4.83,32.19,4.22A9.32,9.32,0,0,0,214.38,134.27Z"/><path class="cls-13" d="M201.13,77.87c-1,1.11-1.88,2.25-2.76,3.42,0.55-.21,1.09-0.42,1.68-0.59C200.42,79.77,200.79,78.83,201.13,77.87Z"/><path class="cls-14" d="M111.89,80.81c18,7.55,35.9,3.15,52.61-5.63a46,46,0,0,1,14.91-5c15.09-2.29,30.08-5.16,46.83-8.1-6.35-4.68-6.37-4.8-8.46-4.49-16.9,2.53-33.52,5.18-50.67-.31-16.26-5.2-33.64-6.18-49.78-12.54C102,38.69,89,43.64,82,56.63c-1,1.85,0,2.8,1,4.05C90.44,70.5,101.17,76.31,111.89,80.81Z"/><path class="cls-15" d="M199,17.36c-15.19-1.91-30.2-4.93-45.31-7.31l-6.19,3.58C164.28,19.81,181.52,20.25,199,17.36Z"/><path class="cls-15" d="M204.37,19.19l-8.43-4.87C183.05,11.74,170,9.95,157,8.14l-3.31,1.91c15.11,2.38,30.12,5.4,45.31,7.31-17.52,2.89-34.76,2.44-51.51-3.73L145,15.1C164.34,23.5,184.08,23.14,204.37,19.19Z"/><path class="cls-2" d="M263.54,145.88c-12.08,5.54-25.43,4.65-38.06,7.46-12,2.68-24.07,5.07-35.6,9.52,20.12-4.16,40-9.7,60.68-10.71C255.51,151.9,260.6,150.83,263.54,145.88Z"/><path class="cls-2" d="M195.53,162.93a14.59,14.59,0,0,0,2.77-.29c16.68-3.74,33.21-7.78,50.57-7.79,4.87,0,11.55-.69,14-6.87-2.83,3-6.74,3.8-10.85,4.13C232.81,153.66,214.23,158.62,195.53,162.93Z"/><path class="cls-2" d="M250.56,152.15c-20.7,1-40.56,6.56-60.68,10.71,1.87,0,3.78.13,5.65,0.07,18.7-4.32,37.28-9.28,56.52-10.83,4.11-.33,8-1.11,10.85-4.13a12.19,12.19,0,0,0,.64-2.1C260.6,150.83,255.51,151.9,250.56,152.15Z"/><path class="cls-16" d="M16.16,206.46c23,3.08,45.51,1.35,67.94-3.83a9.08,9.08,0,0,1,2.38-.12c0.06-.1.1-0.18,0.16-0.28,4.16-3.39,9.16-5.21,14-7.4l0.17,0a2.22,2.22,0,0,1,.7-1.49c6.06-5.33,8.73-12.73,11.57-19.84-10.67-2.84-22.06-1-33.49-.64-22.93.76-45.72-3.19-68.62-3.09-3.51,0-7-.09-10.49-0.24v28.05C2.47,203.43,6.85,205.21,16.16,206.46Zm86.7-29.18c-4.16,3.78-7.79,2.56-12.77,1.64C94.54,175.13,98.12,175.82,102.86,177.28Z"/><path class="cls-16" d="M8.76,291v0.07A15,15,0,0,0,12,288.92c4.91-15.42,6.15-16.1,16.9-4.88-0.58-1.95-2.38-4.39,2.3-4.19h0c0.13-2-10.41-3.7-.06-6.14,3.38-.79,3.17-6,6.72-7.45,2.09-.85,4.1-2,6.13-0.35,2.86,2.38.06,3.81-1.24,5.26-1.91,2.12-4.73,4.38-1.62,7,3.73,3.14,4.38-1.44,5.95-3.27,3-3.48,7.44-3,11.21-4.06,28.06-7.83,56.22-15.34,84.34-23h0c-5.62.06-11.26-.65-16.54,2.44-3.71,2.17-6.51-.7-9.19-2.81-3-2.33-2.19-4.73,0-7.24a4,4,0,0,0,.23-5.25Q110,225.67,102.7,216.5c-2.34-2.92-5.12-2.66-8.43-1.17-18.86,8.48-39.1,7.32-59,7.86A185.47,185.47,0,0,1,.43,220.68v32.06L0.91,253c3.41,1.61.9,5.38,0,8.38-0.16.56-.34,1.11-0.52,1.67v11.24c1.27,1.2,3.33,2.19,6.59,2.89C15.07,278.89,12.66,285.76,8.76,291Z"/><path class="cls-16" d="M28.92,284c-10.75-11.22-12-10.55-16.9,4.88a15,15,0,0,1-3.26,2.18c0,0.07,0,.13,0,0.2h5.41c3.38-3.6-.54-10.36,4.05-12.44,5.47-2.48,5.12,7.36,10.63,6.78h0A1.8,1.8,0,0,0,28.92,284Z"/><path class="cls-16" d="M100.77,194.78l-0.17,0c-4.8,2.19-9.8,4-14,7.4-0.06.1-.1,0.18-0.16,0.28,0.46,0,.93,0,1.38,0,4.94-.64,8.77-3.87,13.2-5.69h0A4.68,4.68,0,0,1,100.77,194.78Z"/><path class="cls-16" d="M79.54,172.81c11.43-.38,22.82-2.2,33.49.64-2.84,7.11-5.51,14.51-11.57,19.84a2.22,2.22,0,0,0-.7,1.49,11.7,11.7,0,0,0,1.84-.53c3.26-3.66,9.57-4.91,9.53-10.51,0-6.37,2.44-9.59,8.59-11.53-12.58-1.41-24.29-3.58-36.95-2.24-23.25,2.44-46.57-2.74-70-2.53-4.48,0-8.94-.09-13.39-0.33v2.38c3.49,0.16,7,.26,10.49.24C33.82,169.63,56.61,173.57,79.54,172.81Z"/><path class="cls-16" d="M100.77,194.78a4.68,4.68,0,0,0,.3,2.06h0a7.3,7.3,0,0,1,1.54-2.59A11.7,11.7,0,0,1,100.77,194.78Z"/><path class="cls-6" d="M8.69,291.13l0.07-.1c-0.15-6,.46-12.1-8.32-13.89h0v14.19l7.85,0Z"/><path class="cls-6" d="M8.69,291.13l-0.4.17H8.56Z"/><path class="cls-6" d="M8.76,291c3.91-5.28,6.31-12.15-1.74-13.87-3.26-.7-5.32-1.69-6.59-2.89v2.86h0C9.21,278.94,8.61,285,8.76,291Z"/><path class="cls-6" d="M0.91,253l-0.48-.25V263c0.18-.56.36-1.11,0.52-1.67C1.81,258.36,4.33,254.59.91,253Z"/><path class="cls-17" d="M54.67,317.44c4-5.48,9.78-8.58,15.91-11.14a33,33,0,0,1,3.93-1,58,58,0,0,1,7.3-4.45A39,39,0,0,0,85.12,297a12.14,12.14,0,0,1,3.4-2.37l0.13-.08,1.09-3.3a9.52,9.52,0,0,0-6.93,2.23C70.26,304.44,54,309.31,40.64,318.88L56.38,328C55.15,324.54,51.77,321.43,54.67,317.44Z"/><path class="cls-17" d="M55.65,299.84c4.74-3.26,6.82-6.39-.73-8.57-1.57-.45-3.34-0.85-3.54-2.56s1.51-2.35,3-3c31.7-13.84,63.3-27.94,97.68-34.08,0.07-2.77,0-5.47-3.76-5.67h0l-5.63,1.92c1.12,2-1.05,2.84-2.68,3.49a57,57,0,0,1-10.79,3.12c-24.32,4.46-47.5,13.12-71.41,19.08-3,.76-6.05,1.46-8.64,3.42s-4.88,5.82-8.77,2.83-1.26-6.74.4-11.32c-5,3.26-8.76,5.95-9.19,11.42H31.28a0.87,0.87,0,0,0,1.27.28h0c8.91,3.38,9.87,6.93,4,14.71l-3.38,4.15a51.37,51.37,0,0,1-6,12.07l6.48,3.74c0.35-.26.7-0.52,1.06-0.76C41.75,309.4,48.7,304.62,55.65,299.84Z"/><path class="cls-17" d="M58.1,325.19c-5.91-5.2-1.44-7.94,2.4-10.64,3.3-2.33,6.89-4.24,10.35-6.34a45.25,45.25,0,0,1,3.65-2.91,33,33,0,0,0-3.93,1c-6.12,2.56-11.92,5.66-15.91,11.14-2.9,4,.49,7.1,1.72,10.53l3.21,1.85C59.63,328.09,59.47,326.4,58.1,325.19Z"/><path class="cls-17" d="M88.52,294.66a12.14,12.14,0,0,0-3.4,2.37,39,39,0,0,1-3.32,3.83q2-1,4.11-2h0l2-1.91,0.78-2.38Z"/><path class="cls-17" d="M142.66,247.89c-28.12,7.61-56.27,15.13-84.34,23-3.77,1.05-8.24.57-11.21,4.06-1.57,1.84-2.21,6.41-5.95,3.27-3.11-2.62-.29-4.88,1.62-7,1.3-1.45,4.1-2.88,1.24-5.26-2-1.68-4-.51-6.13.35-3.55,1.45-3.35,6.65-6.72,7.45-10.35,2.44.19,4.14,0.06,6.14h0l0.05,0.06h0.32c0.43-5.47,4.18-8.16,9.19-11.42-1.67,4.58-4.4,8.26-.4,11.32s6.19-.88,8.77-2.83,5.6-2.66,8.64-3.42c23.91-6,47.09-14.62,71.41-19.08A57,57,0,0,0,140,251.37c1.62-.65,3.8-1.48,2.68-3.49h0Z"/><path class="cls-18" d="M24.65,302.53a56.59,56.59,0,0,1-2.64,5.6l3.2,1.85c1.54-2.63,3-5.35,4.34-8.1C28.22,303.9,26.84,305.68,24.65,302.53Z"/><path class="cls-18" d="M23.54,300.63c-1.12,2.13-2.44,4.17-3.78,6.2L22,308.13a56.59,56.59,0,0,0,2.64-5.6A16.15,16.15,0,0,1,23.54,300.63Z"/><path class="cls-18" d="M29.55,301.88c-1.37,2.75-2.8,5.47-4.34,8.1l2,1.15a51.37,51.37,0,0,0,6-12.07C31.7,298.45,30.64,300.24,29.55,301.88Z"/><path class="cls-19" d="M29.69,284.85L30,285.16c2.45,6.39-1.29,10.92-4.44,15.63,1.94-.39,3.65-2.12,5.64-2.22l0.06-.11a17.4,17.4,0,0,1,3.93-5,9.87,9.87,0,0,0,2.33-3.64,11.74,11.74,0,0,0-.27-3.78,11.7,11.7,0,0,0-4.38-4.26,5.34,5.34,0,0,1-1.57-1.83C27.34,279.94,30.18,283.19,29.69,284.85Z"/><path class="cls-19" d="M25.55,300.79c3.15-4.71,6.89-9.24,4.44-15.63l-0.29-.31a1.16,1.16,0,0,1-.84.8h0c2.13,6.38-3.2,10.11-5.31,15h0A3.48,3.48,0,0,0,25.55,300.79Z"/><path class="cls-19" d="M31.27,279.92l0-.06h0c-4.69-.2-2.89,2.24-2.3,4.19l0.78,0.81C30.18,283.19,27.34,279.94,31.27,279.92Z"/><path class="cls-19" d="M29.69,284.85L28.92,284a1.8,1.8,0,0,1-.06,1.61A1.16,1.16,0,0,0,29.69,284.85Z"/><path class="cls-19" d="M32.84,281.75A11.7,11.7,0,0,1,37.22,286a9.31,9.31,0,0,0-4.66-5.8h0a0.87,0.87,0,0,1-1.27-.28h0A5.29,5.29,0,0,0,32.84,281.75Z"/><path class="cls-19" d="M35.17,293.43a17.4,17.4,0,0,0-3.93,5l-0.06.11a3.57,3.57,0,0,1,2,.49l3.38-4.15a28.84,28.84,0,0,0,1-5.12A9.87,9.87,0,0,1,35.17,293.43Z"/><path class="cls-19" d="M31.27,279.92h0l-0.05-.06Z"/><path class="cls-19" d="M25.55,300.79l-0.46.69c-0.13.36-.29,0.7-0.44,1,2.19,3.15,3.56,1.37,4.9-.65q0.82-1.65,1.63-3.31C29.2,298.67,27.48,300.4,25.55,300.79Z"/><path class="cls-19" d="M25.55,300.79a3.48,3.48,0,0,1-2-.16h0a16.15,16.15,0,0,0,1.11,1.89c0.14-.35.3-0.69,0.44-1Z"/><path class="cls-19" d="M29.55,301.88c1.09-1.64,2.15-3.42,3.6-2.82a3.57,3.57,0,0,0-2-.49Q30.37,300.23,29.55,301.88Z"/><path class="cls-17" d="M14.18,291.31h0c-1.67,1.3-3.54.93-5.39,0.62,0-.21,0-0.42,0-0.63H8.56a17.44,17.44,0,0,1-8.13,1.81v1.83A19.06,19.06,0,0,0,14.18,291.31Z"/><path class="cls-17" d="M8.78,291.94c1.85,0.31,3.72.68,5.39-.62H8.77C8.77,291.51,8.78,291.72,8.78,291.94Z"/><path class="cls-17" d="M8.28,291.3l-7.85,0v1A15,15,0,0,0,8.28,291.3Z"/><path class="cls-17" d="M8.28,291.3a15,15,0,0,1-7.85,1.05v0.75a17.44,17.44,0,0,0,8.13-1.81H8.28Z"/><path class="cls-20" d="M292.19,226.56c-2.93.38-5.85,0.29-7.5-2.62-1.74-3.08,0-5.35,2.79-7.75-18.69-.35-35.3,6.3-52.07,11.91-15.81,5.29-31.63,10.58-48.45,11-12.42.29-23.92,6.15-36.38,5.76,2.51,1,3.28,3.12,2.51,6.16-0.26.28-.55,0.51-0.83,0.76,6.55,3.75.38,6.38-1.64,6.77-14.75,2.82-26.48,12.13-39.79,18C103.1,279.92,95.59,284.21,90,291l0,0a4.19,4.19,0,0,1,.64,2.37c29-17.59,60.94-27.78,93.27-36.93,6.14-1.74,12.4-4.53,19.17-2.9l0.12-.09c1-6,6.39-5.33,10.44-6.06,20.41-3.69,41-6.09,61-12.42,18.84-6,37.56-12.35,56.41-18.27a51.6,51.6,0,0,1,10.8-1.75v-0.79c-14.08,2.75-28.25,6.49-42.32,10.65A48,48,0,0,1,292.19,226.56Z"/><path class="cls-20" d="M291.62,224.4c-2.28.62-4.75,1.19-5.74-1.3-1.13-2.87.76-4.72,3.6-5.34,2.43-.53,5.13-0.57,5.32-5.23-8.9,2.92-17.77.37-26.68,2.58-20.64,5.12-40,14.21-61.06,18.15-19.49,3.64-39.11,6-58.68,9l0,2.11H149a8.22,8.22,0,0,1,1.59.48c12.46,0.4,24-5.47,36.38-5.76,16.82-.39,32.64-5.68,48.45-11,16.77-5.61,33.37-12.26,52.07-11.91-2.81,2.41-4.54,4.68-2.79,7.75,1.64,2.9,4.57,3,7.5,2.62a48,48,0,0,0,7.33-1.78c14.07-4.16,28.24-7.9,42.32-10.65v-2.49a89.62,89.62,0,0,0-14.09,3C315.86,218.4,303.66,221.14,291.62,224.4Z"/><path class="cls-20" d="M274.62,234.95c-19.92,6.34-40.54,8.73-61,12.42-4.05.73-9.46,0.08-10.44,6.06,6.28-5,14.22-4.37,21.35-5.27,27.7-3.53,54.08-11.53,80.42-20.41,12-4,23.94-8.6,36.84-10.23v-2.6a51.6,51.6,0,0,0-10.8,1.75C312.18,222.6,293.46,229,274.62,234.95Z"/><path class="cls-20" d="M87.86,297c1.77-.58,3.82-0.76,5.26-1.79,18.9-13.5,41.38-18.76,62.33-27.57,15.46-6.51,32.16-8.11,47.65-14.07-6.77-1.63-13,1.16-19.17,2.9-32.33,9.15-64.29,19.35-93.27,36.93C90.58,294.87,89.39,296,87.86,297Z"/><path class="cls-20" d="M88.65,294.58c0.67-.42,1.35-0.81,2-1.22A4.19,4.19,0,0,0,90,291l0,0-0.27.3Z"/><path class="cls-20" d="M148.33,244.75q0,0.61,0,1.21c3.81,0.2,3.83,2.9,3.76,5.67l0.21,0.13c0.27-.26.56-0.48,0.83-0.76,0.77-3,0-5.14-2.51-6.16-0.57,0-1.15,0-1.73-.08h-0.53Z"/><path class="cls-20" d="M148.86,244.75c0.58,0,1.15.06,1.73,0.08a8.22,8.22,0,0,0-1.59-.48h-0.66v0.4h0.53Z"/><path class="cls-20" d="M87.86,297c1.53-1,2.71-2.09,2.81-3.6-0.67.41-1.35,0.8-2,1.22Z"/><path class="cls-2" d="M75.41,218.28a52.29,52.29,0,0,0,16.34-4.37c3.21-1.48,7-2.87,9.89-.45,8.36,7.1,16.71,14.78,17.57,26.52,0.5,6.74,2.92,8.38,8.81,6.82,4.61-1.22,9.2-2.22,13.8,0a5.47,5.47,0,0,1,.84,1.09,4.94,4.94,0,0,1,3.09-3.14,50.37,50.37,0,0,1-10-.59c-3.8-.75-8.84-2.43-8.54-6.11,0.89-11-9.18-12.24-14.31-17.63-5.51-5.79-11.75-10.92-21.08-10.12-4.38.37-8.67-1.42-5.83-6.95-18.67,8-38.48,7.29-58.19,6.81a119.45,119.45,0,0,1-14-1.7C6.92,207.45,3,206,.43,202.71v15.34C25.33,221.86,50.36,221,75.41,218.28Z"/><path class="cls-2" d="M91.83,210.28c9.33-.79,15.57,4.33,21.08,10.12,5.13,5.39,15.21,6.66,14.31,17.63-0.3,3.68,4.75,5.36,8.54,6.11a50.37,50.37,0,0,0,10,.59,7,7,0,0,1,1.76-.35,2.57,2.57,0,0,1,.86-2.14c-4.06-.05-8.33.65-12.14-0.36-4.11-1.09-11.38-1.29-6.1-9.38,2.12-3.25-1.08-5.79-3.5-6.37-4.52-1.08-7.08-4.12-10.47-6.74C109,213.8,102.81,205,91.26,208c-4.45,1.16-5.48-1.66-3.39-5.51-0.62.29-1.24,0.54-1.86,0.8C83.16,208.86,87.45,210.66,91.83,210.28Z"/><path class="cls-2" d="M35.24,223.2c19.93-.54,40.17.62,59-7.86,3.31-1.49,6.09-1.75,8.43,1.17Q110,225.66,117.11,235a4,4,0,0,1-.23,5.25c-2.15,2.51-2.93,4.91,0,7.24,2.69,2.11,5.48,5,9.19,2.81,5.28-3.09,10.92-2.39,16.54-2.44v0a5.47,5.47,0,0,0-.84-1.09c-4.6-2.21-9.19-1.22-13.8,0-5.89,1.56-8.32-.08-8.81-6.82-0.87-11.73-9.22-19.41-17.57-26.52-2.85-2.42-6.68-1-9.89.45a52.29,52.29,0,0,1-16.34,4.37c-25,2.74-50.08,3.59-75-.22v2.63A185.47,185.47,0,0,0,35.24,223.2Z"/><path class="cls-2" d="M13.78,208.45a119.45,119.45,0,0,0,14,1.7c19.72,0.48,39.53,1.21,58.19-6.81,0.14-.27.31-0.55,0.48-0.83a9.08,9.08,0,0,0-2.38.12c-22.43,5.18-45,6.91-67.94,3.83-9.31-1.25-13.69-3-15.73-8.92v5.17C3,206,6.92,207.45,13.78,208.45Z"/><path class="cls-2" d="M86,203.34c0.62-.27,1.24-0.52,1.86-0.8-0.46,0-.92,0-1.38,0C86.31,202.79,86.14,203.07,86,203.34Z"/><path class="cls-2" d="M145.75,244.73a4.94,4.94,0,0,0-3.09,3.14h0L148.3,246h0a3.35,3.35,0,0,1-.71-1.22h-1.84Z"/><path class="cls-2" d="M147.52,244.38a7,7,0,0,0-1.76.35h1.84A2.22,2.22,0,0,1,147.52,244.38Z"/><path class="cls-2" d="M142.66,247.89h0v0Z"/><path class="cls-2" d="M147.52,244.38c0.27,0,.54,0,0.82,0l0-2.11A2.57,2.57,0,0,0,147.52,244.38Z"/><path class="cls-2" d="M147.59,244.74a3.35,3.35,0,0,0,.71,1.22q0-.61,0-1.21h-0.74Z"/><path class="cls-2" d="M147.59,244.74h0.74v-0.4c-0.28,0-.55,0-0.82,0A2.22,2.22,0,0,0,147.59,244.74Z"/><path class="cls-21" d="M120.33,189.53c-0.14,6.61,4,13.18.11,19.86-0.61,1,.13,2.33.94,3.42,11.3,15.26,29.82,19.62,45.43,9,10.11-6.88,20.91-11.15,32.32-14.62a49.5,49.5,0,0,0,15.27-7.14c1.52-1.12,3.22-2.41,2.7-4.53s-2.39-2.75-4.29-3.19a14.17,14.17,0,0,0-5.61-.24c-22.55,3.88-44.71-4.15-67.2-2.26a8.67,8.67,0,0,1-7-2.18C129.29,191.83,125.1,192.72,120.33,189.53ZM138.69,195c1.25-.08,2.51,0,3.76,0l0.06-.81c9.58,1.05,19.16,2,28.72,3.23,1.75,0.22,4,.93,4.41,3,0.64,2.88-2.1,3.36-3.83,4.57-10,6.95-21.71,6.58-33,6.61-4.08,0-11.17,6.61-13-2.93C124.47,201.23,130.3,195.47,138.69,195Z"/><path class="cls-21" d="M133,187.66a8.67,8.67,0,0,0,7,2.18c22.5-1.89,44.65,6.13,67.2,2.26a14.17,14.17,0,0,1,5.61.24c1.9,0.44,3.8,1.18,4.29,3.19s-1.18,3.41-2.7,4.53a49.5,49.5,0,0,1-15.27,7.14c-11.41,3.47-22.21,7.74-32.32,14.62-15.6,10.62-34.13,6.26-45.43-9-0.8-1.09-1.54-2.37-.94-3.42,3.87-6.69-.25-13.26-0.11-19.86-0.11-.07-0.21-0.11-0.31-0.19-2.49,3.33-5.16,6.59-.3,10.23a2.81,2.81,0,0,1,.46,4.21c-6.61,7.53-3.61,11.43,4.69,14.33,2.7,0.94,5,3.74,6.86,6.18,4.56,6.09,10.8,7.73,17.56,6.24,8.46-1.86,17.05-3.38,24-9.85,4-3.71,9.22-5.87,14.9-7.44,9.56-2.64,19.54-4.87,27.74-11.14,2.58-2,7.09-2.91,5.53-7.5-1.24-3.64-4.94-4.77-8.39-5.09a25.37,25.37,0,0,0-9.29.63c-5.91,1.74-12.34,2.34-17.68.69-17.48-5.39-35.31-1.43-52.85-3.4h0Z"/><path class="cls-21" d="M133,187.66h0l0.11-.18c-4.2,1-8.36,2.33-12.77,1.9,0,0.06,0,.11,0,0.17C125.1,192.72,129.29,191.83,133,187.66Z"/><path class="cls-21" d="M133.1,187.46l-0.11.18h0l0.21-.22h0Z"/><path class="cls-21" d="M120.32,189.36l-0.31,0c0.11,0.07.21,0.12,0.31,0.19S120.32,189.42,120.32,189.36Z"/><path class="cls-22" d="M203.63,95.14a26.79,26.79,0,0,1-6,19.2c-5.75,7.31-4.58,10.44,4,13.91,2.93,1.19,6,1.58,9.07,2.35,2.4,0.61,5.11,1.14,5.62,3.73a17.77,17.77,0,0,1,2.84.55,59.44,59.44,0,0,0,6.67.89c5.37-.66,10.73-1.49,16.15-1.46a45.19,45.19,0,0,0,4.87-1.58c3.56-.87,7.2-0.72,10.82-0.79,4.09-.46,8.2-0.73,12.32-0.93,8-1,16.34-.21,24.29-1.91a103.16,103.16,0,0,1,17.62-1.69c2.16-.48,4.31-1,6.45-1.68a14.67,14.67,0,0,1,1.87-.55v-0.09c-26.6.47-53,3.46-79.29,7-8.29,1.12-17,2-25.19-.86s-9-6.48-3-12.89c3-3.22,6.42-6.07,9.23-9.44,5.43-6.49,3.74-11.18-4.56-12-4.38-.43-8.23-1-10-5.44-1.28-3.21,0-5.17,1.77-6.83C204.81,85.79,203.25,89.5,203.63,95.14Z"/><path class="cls-22" d="M257.68,131.94c-3.62.07-7.25-.08-10.82,0.79a45.19,45.19,0,0,1-4.87,1.58,42.35,42.35,0,0,1,4.61.25h11.26A34.8,34.8,0,0,1,270,131C265.88,131.21,261.77,131.48,257.68,131.94Z"/><path class="cls-22" d="M318.35,125.72c-2.14.66-4.29,1.2-6.45,1.68,2.79-.11,5.57-0.21,8.34-0.41h0q0-.92,0-1.84A14.67,14.67,0,0,0,318.35,125.72Z"/><path class="cls-22" d="M219.16,134.87a17.77,17.77,0,0,0-2.84-.55,5.53,5.53,0,0,1,0,2.11l0.91,0h0.91c2.57-.1,5.13-0.37,7.69-0.68A59.44,59.44,0,0,1,219.16,134.87Z"/><polygon class="cls-22" points="320.24 127.01 320.24 127.01 320.24 127.01 320.24 127.01"/><path class="cls-22" d="M216.32,134.33c-0.51-2.59-3.22-3.12-5.62-3.73-3-.77-6.15-1.15-9.07-2.35-8.53-3.47-9.71-6.59-4-13.91a26.79,26.79,0,0,0,6-19.2c-0.38-5.65,1.18-9.36,5.5-10.5,1.11-1,2.43-1.93,3.51-3-8,0-12.39,3.49-11.45,12.08,0.9,8.22-1.27,15-7.38,21.22-5.66,5.78-3,10,3.91,14.52,5.14,3.32,12,1,16.66,4.75l1.92,0.06h0Z"/><path class="cls-22" d="M216.32,134.33h0l-1.92-.06a9.32,9.32,0,0,1,2,2.17A5.53,5.53,0,0,0,216.32,134.33Z"/><path class="cls-13" d="M275.07,131.73c-5.85-.25-11.45,2-17.21,2.81,8.51,0.7,16.72-3.32,25.21-1.82,13.09,2.31,25-2.63,37.16-5.73C305.27,129.43,290.38,132.4,275.07,131.73Z"/><path class="cls-13" d="M270,131c14-.69,28.13-0.53,41.91-3.61a103.16,103.16,0,0,0-17.62,1.69C286.33,130.79,278,130,270,131Z"/><path class="cls-13" d="M311.9,127.4C298.12,130.48,284,130.32,270,131a34.8,34.8,0,0,0-12.13,3.53c5.76-.81,11.36-3.07,17.21-2.81,15.31,0.67,30.2-2.3,45.16-4.74h0C317.47,127.19,314.69,127.3,311.9,127.4Z"/><path class="cls-22" d="M337.42,119.86c-1.24-.1-2.65,2-4,3.13,0,0,0,.09,0,0.14l4.86,0q1.77-.29,3.53-0.64V119.9A33.1,33.1,0,0,1,337.42,119.86Z"/><path class="cls-22" d="M341.84,123.17v-0.66q-1.76.35-3.53,0.64Z"/><path class="cls-13" d="M218.14,136.45c9.73,3.07,19.28,3.43,28.46-1.89C237.21,136.66,227.76,137.78,218.14,136.45Z"/><path class="cls-13" d="M242,134.31c-5.42,0-10.78.8-16.15,1.46A47.59,47.59,0,0,0,242,134.31Z"/><path class="cls-13" d="M242,134.31a47.59,47.59,0,0,1-16.15,1.46c-2.56.31-5.12,0.58-7.69,0.68,9.62,1.33,19.07.21,28.46-1.89h0A42.35,42.35,0,0,0,242,134.31Z"/><path class="cls-13" d="M320.44,125.12l0.26-.06h-0.28Z"/><path class="cls-13" d="M334.63,123.7l-1.1-.17c0-.15,0-0.27-0.07-0.41h-0.18a10.37,10.37,0,0,1-2,1Q333,123.92,334.63,123.7Z"/><path class="cls-13" d="M331.32,124.1c-3.39,1.31-7.06.81-10.62,1l-0.26.06a1.92,1.92,0,0,1-.2,1.89,94.54,94.54,0,0,0,21.6-1.87v-0.89a42.64,42.64,0,0,1-7.21-.54Q333,123.92,331.32,124.1Z"/><path class="cls-13" d="M320.21,125.08v0.09l0.22,0,0,0h-0.21Z"/><path class="cls-13" d="M320.24,127h0a1.92,1.92,0,0,0,.2-1.89l-0.22,0Q320.23,126.09,320.24,127Z"/><path class="cls-13" d="M334.63,123.7q1.85-.25,3.69-0.55l-4.86,0c0,0.14,0,.26.07,0.41Z"/><path class="cls-13" d="M334.63,123.7a42.64,42.64,0,0,0,7.21.54v-1.07l-3.53,0Q336.48,123.45,334.63,123.7Z"/><path class="cls-2" d="M242.6,181.41c6.48,3.32,9.72,2.13,12.49-2.65C250.33,177.17,247.34,179.43,242.6,181.41Z"/><path class="cls-23" d="M243.19,313.66c-4.21,0-6.44,2.49-6.07,6.4,0.4,4.29,4.13,3.68,7.16,3.67,3.78,0,5.51-2.15,5.8-6C249.43,313.91,246.35,313.65,243.19,313.66Z"/><path class="cls-24" d="M77,334.45c-4.34-5-6.41-5-8.45.53L83,343.35l1.22-1C81.78,339.75,79.33,337.15,77,334.45Z"/><path class="cls-24" d="M85.87,344.1h0l-1.64-1.74-1.22,1,2.13,1.23,0.72-.48h0Z"/><path class="cls-24" d="M77,334.45c2.35,2.7,4.8,5.3,7.25,7.9l0.47-.39a10.08,10.08,0,0,1,1.2-1c-0.93-3.56-5.41-4.76-7.3-7.69-1.73-2.69-2.05-8-6.16-7-3.31.81-5.27,3.93-6.35,7.29L68.53,335C70.57,329.4,72.64,329.47,77,334.45Z"/><path class="cls-24" d="M85.91,341a10.08,10.08,0,0,0-1.2,1l-0.47.39,1.64,1.74h0A6.29,6.29,0,0,0,85.91,341Z"/><path class="cls-16" d="M78.48,306.17a9.78,9.78,0,0,1,1.08-2.46q-1.44.86-2.93,1.64A5.27,5.27,0,0,1,78.48,306.17Z"/><path class="cls-16" d="M78.48,306.17a5.27,5.27,0,0,0-1.85-.82c-1.9,1-3.84,1.92-5.77,2.87l7.54-1.81h0C78.42,306.32,78.45,306.25,78.48,306.17Z"/><path class="cls-16" d="M78.48,306.17l0.14,0.09a18.38,18.38,0,0,0,7.29-7.38h0a31.77,31.77,0,0,1-6.35,4.84A9.78,9.78,0,0,0,78.48,306.17Z"/><path class="cls-16" d="M78.4,306.4h0l0.22-.15-0.14-.09C78.45,306.25,78.42,306.32,78.4,306.4Z"/><path class="cls-16" d="M76.63,305.35q1.49-.78,2.93-1.64a19,19,0,0,1,2.25-2.85,58,58,0,0,0-7.3,4.45A6.15,6.15,0,0,1,76.63,305.35Z"/><path class="cls-16" d="M74.5,305.3a45.25,45.25,0,0,0-3.65,2.91c1.93-.95,3.87-1.87,5.77-2.87A6.15,6.15,0,0,0,74.5,305.3Z"/><path class="cls-16" d="M79.56,303.7a31.77,31.77,0,0,0,6.35-4.84q-2.09.94-4.11,2A19,19,0,0,0,79.56,303.7Z"/><path class="cls-25" d="M25.94,113.76l-4.24-.07h0c-7.15-.44-14.23-1.37-21.28-2.47v5.3A63.24,63.24,0,0,0,25.94,113.76Z"/><path class="cls-25" d="M31.2,113.85h0l-5.25-.09A63.24,63.24,0,0,1,.43,116.51v2.84C10.95,121,21.07,118.17,31.2,113.85Z"/><path class="cls-25" d="M53.59,142.67c-1.88-.36-3.76-0.75-5.63-1.18A24.2,24.2,0,0,0,53.59,142.67Z"/><path class="cls-25" d="M53.59,142.67A24.2,24.2,0,0,1,48,141.49c-1.8-.41-3.6-0.85-5.39-1.32,5,7.48,12.15,4.5,18.81,3.78h0C58.77,143.6,56.17,143.16,53.59,142.67Z"/><path class="cls-25" d="M53.59,142.67a18.78,18.78,0,0,0,4.63-.18c-4.58-2.18-9.17-4.32-14.51-2.71A38.9,38.9,0,0,0,48,141.49C49.83,141.92,51.71,142.31,53.59,142.67Z"/><path class="cls-25" d="M43.71,139.78c-0.38.11-.76,0.24-1.14,0.39,1.79,0.47,3.59.91,5.39,1.32A38.9,38.9,0,0,1,43.71,139.78Z"/><path class="cls-25" d="M53.59,142.67c2.58,0.49,5.18.93,7.79,1.28-1.06-.46-2.11-1-3.16-1.46A18.78,18.78,0,0,1,53.59,142.67Z"/><path class="cls-25" d="M36.82,146.67a40.31,40.31,0,0,0,4.4,3.33C40.54,148.27,38.51,147.6,36.82,146.67Z"/><path class="cls-25" d="M36.82,146.67c1.69,0.93,3.73,1.6,4.4,3.33a10,10,0,0,1,3.16,3.41c2.53-8.81-6.07-6.46-9.41-9.4h0A7.86,7.86,0,0,0,36.82,146.67Z"/><path class="cls-25" d="M41.22,150a40.31,40.31,0,0,1-4.4-3.33,5.68,5.68,0,0,1-1.8-1.41c0.37,4,2.91,5.74,6,7l0.37-.09A3.89,3.89,0,0,0,41.22,150Z"/><path class="cls-25" d="M41.22,150a3.89,3.89,0,0,1,.16,2.15l-0.37.09c1.08,0.43,2.22.8,3.36,1.17A10,10,0,0,0,41.22,150Z"/><path class="cls-25" d="M35,144a11.1,11.1,0,0,0,0,1.26,5.68,5.68,0,0,0,1.8,1.41A7.86,7.86,0,0,1,35,144Z"/><path class="cls-25" d="M66.78,97.76c0,6-3.79,8-7.9,10.26,0.34,0,.68,0,1,0,7.1,0,10.68-4.95,8.55-11.78-0.85-2.73-1.85-5.79-4.26-7.19-0.46-.27-0.89-0.56-1.34-0.84C65.59,90.44,66.78,93.42,66.78,97.76Z"/><path class="cls-25" d="M48.11,79.74c3.78,2.19,7.41,4.7,11.38,6.49,0.51,0.23,1,.48,1.42.73-5.82-4.07-10.56-9.25-15.14-14.59l-4.06,2.34c0.83,0.41,1.62.85,2.47,1.24C45.75,76.66,46.82,78.46,48.11,79.74Z"/><path class="cls-25" d="M60.91,87a14,14,0,0,1,1.95,1.28c0.45,0.28.88,0.58,1.34,0.84,2.41,1.4,3.4,4.46,4.26,7.19,2.13,6.83-1.45,11.79-8.55,11.78-0.34,0-.68,0-1,0l0,0c-1.06.58-2,1.28-3.07,1.93h0c10.4,1.52,17.49-3.47,15.9-11.42-1.06-5.31-3.17-10.46-7.95-13.41A80.92,80.92,0,0,1,47.53,71.37l-1.75,1C50.35,77.71,55.09,82.89,60.91,87Z"/><path class="cls-26" d="M14.19,110a3.17,3.17,0,0,0,.4.56c2.51,0.2,5,.37,7.55.49s5.29,0.09,7.51,1.49l1.5-.52c7.76-1,15.41-2.75,23.12-4.09a12.14,12.14,0,0,1,1.69-.07c0.79-1.93,3.41-2.32,4.8-3.71,4.93-4.92,4.75-11-1-15-4.33-3-9-5.5-13.3-8.64-0.86-.38-1.68-0.79-2.51-1.19a36.72,36.72,0,0,1-7-1.87l-6.38,3.68,0.31,0.17c4.39,2.76,5.36,6.46,3.28,10.28-2.23,4.09-7.31,6.08-11.23,4.29-6.32-2.89,3.45-4.43.94-8.22-1.17-4.08-6.46,4.74-8.62,2.32l-3,1.7c0.71,2.54,3.07,4.78,4.51,7.38C18.84,102.7,26.61,109.29,14.19,110Z"/><path class="cls-26" d="M56,107.87a12.14,12.14,0,0,0-1.69.07C46.56,109.28,38.91,111,31.15,112l-1.5.52a7,7,0,0,1,1.55,1.3h0c8.44,0.25,16.46-2.18,24.58-3.88h0A3.67,3.67,0,0,1,56,107.87Z"/><path class="cls-26" d="M22.13,111.06c-2.52-.12-5-0.29-7.55-0.49,1.85,2.12,5.6.34,7.12,3.11l4.24,0.07c1.23-.37,2.47-0.78,3.7-1.2C27.42,111.15,24.75,111.2,22.13,111.06Z"/><path class="cls-26" d="M25.94,113.76l5.25,0.09a7,7,0,0,0-1.55-1.3C28.41,113,27.18,113.38,25.94,113.76Z"/><path class="cls-26" d="M66.78,97.76c0-4.34-1.19-7.32-3.92-9.52-0.66-.42-1.31-0.84-1.95-1.28-0.45-.25-0.91-0.5-1.42-0.73-4-1.79-7.6-4.3-11.38-6.49a33.44,33.44,0,0,1-4.2-.41c0.83,0.4,1.65.82,2.51,1.19,4.27,3.14,9,5.63,13.3,8.64,5.78,4,6,10.08,1,15-1.39,1.39-4,1.78-4.8,3.71,1,0,1.95.1,2.92,0.15C63,105.75,66.77,103.72,66.78,97.76Z"/><path class="cls-26" d="M60.91,87c0.63,0.44,1.29.86,1.95,1.28A14,14,0,0,0,60.91,87Z"/><path class="cls-26" d="M58.88,108c-1,0-1.95-.13-2.92-0.15a3.67,3.67,0,0,0-.17,2.09c1-.65,2-1.35,3.07-1.93Z"/><path class="cls-27" d="M321.79,87a14,14,0,0,1-.12,4.79c-0.7,4,3.85,8.45,7.79,11.1,6.53,4.38,3.39,6.86-1.5,8.85-10.24,4.18-21.15,6-32,6.43-14.07.56-27.43,6.21-40.81,5-4.28,0-7.75,0-11.2,0-3.11,0-6.68.5-8.08-3.23-1.27-3.37.87-6.18,2.87-8.51,3.06-3.58,6.52-6.81,9.88-10.12,2.76-2.72,5.65-5.91,5.24-9.68-1.25-11.58,7.32-12,14.74-13.75L269,77.8c-12.84,1.12-25.61,2.88-38.36,5.07a95.92,95.92,0,0,1-16.86,1.45,18,18,0,0,0-2,0c-1.36,5.44.19,9,7.66,10.82,7.95,1.91,9.27,7.6,4.78,14.45-2.24,3.43-5.5,6-8.11,9.1-4.89,5.83-3.64,9.45,4,10.83a59.57,59.57,0,0,0,18.73.1c21.69-3,43.48-5,65.29-6.8,5.24-.44,10.65-1.21,15.65,1.53a2.62,2.62,0,0,1,.53.65c3.93-3.06,8.31-3.15,12.9-1.84l0.16-.14c-0.62-3.35,1.81-5,4.37-5.32,1.35-.15,2.7-0.34,4-0.54V98.56Z"/><path class="cls-27" d="M280.17,77a82.65,82.65,0,0,1,14.17,2.44,63.36,63.36,0,0,0,15.69,2l2.18,0-8.52-4.92C295.81,76.38,288,76.58,280.17,77Z"/><path class="cls-27" d="M212.64,81.69h0a26.73,26.73,0,0,0-.8,2.59,18,18,0,0,1,2,0,95.92,95.92,0,0,0,16.86-1.45c12.75-2.19,25.52-3.95,38.36-5.07A38.38,38.38,0,0,1,280.17,77c7.81-.44,15.64-0.63,23.52-0.49l-4.54-2.62c-9.94.11-19.87,0.67-29.82,1.15C250.28,76,231.81,81.87,212.64,81.69Z"/><path class="cls-27" d="M207.35,91.48c1.78,4.44,5.63,5,10,5.44,8.29,0.82,10,5.51,4.56,12-2.82,3.36-6.23,6.22-9.23,9.44-6,6.4-5.29,10,3,12.89s16.9,2,25.19.86c26.33-3.56,52.69-6.55,79.29-7l0.17-.12a2.62,2.62,0,0,0-.53-0.65c-5-2.74-10.41-2-15.65-1.53-21.81,1.83-43.6,3.78-65.29,6.8a59.57,59.57,0,0,1-18.73-.1c-7.65-1.37-8.9-5-4-10.83,2.61-3.11,5.87-5.67,8.11-9.1,4.48-6.85,3.16-12.54-4.78-14.45-7.47-1.8-9-5.38-7.66-10.82a12,12,0,0,0-2.71.36C207.31,86.31,206.07,88.27,207.35,91.48Z"/><path class="cls-27" d="M212.64,81.69c-1.08,1-2.4,1.93-3.51,3a12,12,0,0,1,2.71-.36,26.61,26.61,0,0,1,.8-2.59h0Z"/><path class="cls-27" d="M333.43,123c1.34-1.18,2.75-3.23,4-3.13a33.1,33.1,0,0,0,4.42,0v-2.78c-1.34.2-2.69,0.39-4,.54C335.24,118,332.81,119.63,333.43,123Z"/><path class="cls-27" d="M320.7,125.06l0.58-.12c3.36-.21,6.71-0.47,10-0.84a10.37,10.37,0,0,0,2-1c-4.59-1.32-9-1.23-12.9,1.84,0,0,0,.07,0,0.11h0.28Z"/><path class="cls-27" d="M320.7,125.06c3.57-.15,7.23.35,10.62-1-3.34.37-6.69,0.63-10,.84Z"/><path class="cls-27" d="M320.42,125.07s0-.07,0-0.11l-0.17.12h0.21Z"/><path class="cls-2" d="M102.86,177.28c-4.75-1.45-8.32-2.14-12.77,1.64C95.07,179.84,98.7,181.06,102.86,177.28Z"/><path class="cls-16" d="M89.68,290.8c-0.65-4.09,2.69-5.63,5.34-7.32,15.81-10.13,32.22-19.09,50-25.44,3.1-1.11,6.52-2,7-6-4.73,4.26-11,5.5-16.78,6.45-28,4.61-52.35,18.84-79.21,29.13,2.43,2.89,5.95,4.61,5,8.6-0.79,3.5-3.51,5-6.1,6.77-6.25,4.21-12.79,8.05-17.89,13.86l0.17,0.1C51,308.83,66.08,303.12,79,293.6,82.17,291.29,85.32,288.36,89.68,290.8Z"/><path class="cls-16" d="M55,303c2.59-1.74,5.31-3.27,6.1-6.77,0.9-4-2.62-5.71-5-8.6,26.86-10.29,51.17-24.52,79.21-29.13,5.78-.95,12-2.19,16.78-6.45,0-.13.06-0.24,0.07-0.38-34.38,6.14-66,20.24-97.68,34.08-1.49.65-3.21,1.22-3,3s2,2.1,3.54,2.56c7.55,2.19,5.47,5.31.73,8.57-7,4.78-13.9,9.56-20.9,14.26-0.36.24-.72,0.5-1.06,0.76l3.38,2C42.17,311,48.7,307.17,55,303Z"/><path class="cls-16" d="M89.74,291.28h0c0-.17,0-0.32-0.06-0.48-4.36-2.45-7.51.49-10.65,2.8-13,9.52-28,15.23-41.8,23.31l3.41,2C54,309.31,70.26,304.44,82.8,293.52A9.52,9.52,0,0,1,89.74,291.28Z"/><path class="cls-16" d="M145,258c-17.74,6.35-34.16,15.32-50,25.44-2.65,1.7-6,3.24-5.34,7.32L90,291c5.59-6.77,13.1-11.06,20.84-14.47,13.3-5.86,25-15.16,39.79-18,2-.39,8.19-3,1.64-6.77L152,252C151.51,256.06,148.09,256.92,145,258Z"/><path class="cls-16" d="M89.74,291.28h0L90,291l-0.32-.18C89.71,291,89.7,291.11,89.74,291.28Z"/><path class="cls-16" d="M152,252l0.27-.25-0.21-.13C152.06,251.77,152,251.88,152,252Z"/><path class="cls-16" d="M36.53,294.91c5.89-7.77,4.93-11.32-4-14.71h0C39.52,283.58,39.8,288.77,36.53,294.91Z"/><path class="cls-16" d="M37.49,289.79a4.86,4.86,0,0,0-.27-3.78A11.74,11.74,0,0,1,37.49,289.79Z"/><path class="cls-16" d="M37.22,286a4.86,4.86,0,0,1,.27,3.78,28.84,28.84,0,0,1-1,5.12c3.27-6.14,3-11.33-4-14.7A9.31,9.31,0,0,1,37.22,286Z"/><path class="cls-28" d="M138.85,211.53c11.26,0,22.95.34,33-6.61,1.73-1.2,4.47-1.69,3.83-4.57-0.46-2.06-2.66-2.77-4.41-3-9.56-1.2-19.14-2.17-28.72-3.23l-0.06.81c-1.25,0-2.51-.07-3.76,0-8.39.51-14.22,6.27-12.83,13.64C127.67,218.14,134.77,211.54,138.85,211.53Z"/><path class="cls-29" d="M13.74,110.35c0.13-.12.24-0.24,0.37-0.35C9.56,109.16,5,108.49.43,107.7V109q6.65,0.91,13.35,1.47C13.77,110.44,13.75,110.4,13.74,110.35Z"/><path class="cls-29" d="M21.71,113.68c-2-2.48-6.69,1.25-7.92-3.18Q7.08,109.94.43,109v2.18c7,1.1,14.12,2,21.28,2.47h0Z"/><path class="cls-29" d="M44.19,76c-0.85-.38-1.65-0.83-2.47-1.24l-2.5,1.44c2.94,1.25,5.91,2.42,8.9,3.58C46.82,78.46,45.75,76.66,44.19,76Z"/><path class="cls-29" d="M14.19,110H14.1c-0.12.12-.23,0.24-0.37,0.35s0,0.1,0,.15l0.8,0.07A3.17,3.17,0,0,1,14.19,110Z"/><path class="cls-29" d="M38.59,76.52L37,77.46a36.72,36.72,0,0,0,7,1.87C42.09,78.45,40.3,77.52,38.59,76.52Z"/><path class="cls-29" d="M14.58,110.57l-0.8-.07c1.23,4.44,5.87.71,7.92,3.18C20.18,110.92,16.43,112.69,14.58,110.57Z"/><path class="cls-29" d="M48.11,79.74c-3-1.16-6-2.33-8.9-3.58l-0.62.36c1.71,1,3.5,1.92,5.32,2.81A33.44,33.44,0,0,0,48.11,79.74Z"/><path class="cls-30" d="M13.58,98.21a27.62,27.62,0,0,1-3.15-5.43l-10,5.78V105c4.82,0.76,9.54,1.88,13.7,4.94C18.25,106,16.36,102.38,13.58,98.21Z"/><path class="cls-30" d="M14.13,110l0.06,0c12.43-.72,4.65-7.3,2.64-10.93-1.44-2.6-3.8-4.84-4.51-7.38l-1.88,1.09a27.62,27.62,0,0,0,3.15,5.43C16.36,102.38,18.25,106,14.13,110Z"/><path class="cls-30" d="M14.13,110C10,106.91,5.25,105.79.43,105v2.67C5,108.49,9.56,109.16,14.1,110Z"/><path class="cls-30" d="M14.13,110l0,0h0.08Z"/><path class="cls-31" d="M25.88,93.26c4.43-.89,6.88-2.74,5.63-6.6A5,5,0,0,0,27.36,83l-5.14,3C25.74,86,27.28,88.21,25.88,93.26Z"/><path class="cls-31" d="M23.89,87.67c2.5,3.78-7.26,5.33-.94,8.22,3.92,1.8,9-.2,11.23-4.29,2.08-3.82,1.11-7.52-3.28-10.28l-0.31-.17L27.36,83a5,5,0,0,1,4.15,3.65c1.25,3.86-1.2,5.71-5.63,6.6,1.4-5.06-.14-7.3-3.66-7.29l-7,4C17.43,92.41,22.72,83.59,23.89,87.67Z"/><path class="cls-32" d="M294.34,79.46A82.65,82.65,0,0,0,280.17,77c-3.72.21-7.44,0.47-11.15,0.79l-0.43.08c-7.42,1.8-16,2.17-14.74,13.75,0.41,3.76-2.48,7-5.24,9.68-3.36,3.31-6.82,6.55-9.88,10.12-2,2.33-4.13,5.14-2.87,8.51,1.4,3.74,5,3.2,8.08,3.23,3.46,0,6.92,0,11.2,0,13.38,1.16,26.74-4.48,40.81-5,10.86-.43,21.78-2.24,32-6.43,4.89-2,8-4.47,1.5-8.85-3.94-2.65-8.49-7.11-7.79-11.1a14,14,0,0,0,.12-4.79l-9.59-5.53-2.18,0A63.36,63.36,0,0,1,294.34,79.46Z"/><path class="cls-32" d="M269,77.8c3.71-.32,7.43-0.58,11.15-0.79A38.38,38.38,0,0,0,269,77.8Z"/></svg>