<svg id="Färgen" xmlns="http://www.w3.org/2000/svg" viewBox="0 0 342.27 394.23"><defs><style>.cls-1{fill:none;}.cls-2{fill:#002656;}.cls-3{fill:#02365a;}.cls-4{fill:#002f6b;}.cls-5{fill:#00347f;}.cls-6{fill:#023a4c;}.cls-7{fill:#00245b;}.cls-8{fill:#003370;}.cls-9{fill:#004879;}.cls-10{fill:#004668;}.cls-11{fill:#002860;}.cls-12{fill:#00448e;}.cls-13{fill:#fefefe;}.cls-14{fill:#00233d;}.cls-15{fill:#035d7b;}.cls-16{fill:#2e4253;}.cls-17{fill:#0d4a4c;}.cls-18{fill:#002c5f;}.cls-19{fill:#012825;}.cls-20{fill:#378199;}.cls-21{fill:#076973;}.cls-22{fill:#003d82;}.cls-23{fill:#0c2a59;}.cls-24{fill:#00819e;}.cls-25{fill:#016fa2;}.cls-26{fill:#fdfcfd;}.cls-27{fill:#fdfbfd;}.cls-28{fill:#032754;}.cls-29{fill:#0f4d55;}.cls-30{fill:#043032;}.cls-31{fill:#0e788e;}.cls-32{fill:#005c86;}.cls-33{fill:#0c4f56;}.cls-34{fill:#004590;}.cls-35{fill:#226cae;}.cls-36{fill:#38423f;}.cls-37{fill:#f7f1f5;}.cls-38{fill:#6292a9;}.cls-39{fill:#d8e9f0;}.cls-40{fill:#05394c;}.cls-41{fill:#106388;}.cls-42{fill:#fcf8fb;}.cls-43{fill:#4999b8;}.cls-44{fill:#4ca5ce;}.cls-45{fill:#22cdda;}.cls-46{fill:#25c2d3;}.cls-47{fill:#72a2ac;}.cls-48{fill:#497b94;}.cls-49{fill:#e6f4f9;}.cls-50{fill:#fcfdfd;}.cls-51{fill:#8fc4e0;}.cls-52{fill:#fefdfe;}.cls-53{fill:#c7e4ed;}.cls-54{fill:#517f76;}.cls-55{fill:#007e7d;}.cls-56{fill:#dbfafc;}</style></defs><title>hexagon</title><path class="cls-1" d="M244.57,339.59c0,0.17.11,0.35,0.14,0.51a6.26,6.26,0,0,0,.21-0.66h0Z"/><path class="cls-1" d="M224.36,261.4c0-.13,0-0.26,0-0.4l-0.7.17Z"/><path class="cls-1" d="M0.29,193.38v0.36c0.21-.2.43-0.41,0.63-0.61Z"/><path class="cls-1" d="M5.15,210.9l0.11-.06-0.11-.07v0.12Z"/><path class="cls-1" d="M212.88,163.93h0c-0.3,0-.58,0-0.86,0l0.13,0.46c0.24-.14.48-0.29,0.73-0.45h0Z"/><path class="cls-1" d="M231.49,54l0,0h0v0Z"/><path class="cls-1" d="M232.78,94.3a11.52,11.52,0,0,1,.79-1.36A1.28,1.28,0,0,0,232.78,94.3Z"/><path class="cls-1" d="M65.45,162.21a10.11,10.11,0,0,1-4,1A3.9,3.9,0,0,0,65.45,162.21Z"/><path class="cls-1" d="M222.13,267.17c0,0.08,0,.15,0,0.23h0.14Z"/><polygon class="cls-1" points="283.67 193.25 283.67 193.26 283.67 193.26 283.67 193.25"/><path class="cls-1" d="M100.51,134.29a2.41,2.41,0,0,0-1.65-.65C99.41,133.85,100,134.06,100.51,134.29Z"/><path class="cls-2" d="M333.69,225.94h0a44.65,44.65,0,0,1,8,3.15v-4.84a25.35,25.35,0,0,1-2.59-1.29C335.72,221,333.16,220.68,333.69,225.94Z"/><path class="cls-2" d="M330,259.95h0c-2.7,6.72,5.57,15.42-3.79,20.94h0c1.52,3.17,5.17,5.75,7.42,4.75a15.9,15.9,0,0,1,8.12-1.35V257.71c-1.58-.84-3.16-1.67-4.77-2.44C332.4,253.1,329.67,254.5,330,259.95Z"/><path class="cls-3" d="M336.41,287.52c-5.05.2-9.45-.38-10.87-6.29,0.07-.15.13-0.3,0.2-0.45L318.41,279c-2,2.61-4.89,1.42-7.42,1.72,6.19,6.09,13.83,7.69,22.21,7.6a24.5,24.5,0,0,1,8.5,1.59v-2.35A51.85,51.85,0,0,0,336.41,287.52Z"/><path class="cls-3" d="M333.58,285.64c-2.25,1-5.9-1.59-7.42-4.75h0l-0.42-.1c-0.07.15-.13,0.3-0.2,0.45,1.42,5.91,5.82,6.49,10.87,6.29a51.85,51.85,0,0,1,5.29.06v-3.3A15.9,15.9,0,0,0,333.58,285.64Z"/><path class="cls-4" d="M0.29,98.56v0.12l0.07-.16Z"/><path class="cls-4" d="M4.91,193.9l5.7-.06h0c2.46-4.52,7.55-5.09,11.38-7.56,5.07-6.78,4.29-11.5-4.69-13.33-2.77-.56-4.61-2-4.45-5.07,0.2-3.79,13.86-16.51,17.52-16.1,2.33,0.26,5,.7,5.32-2.06,0.37-3-2.76-2.47-4.7-3.21-5-1.92-10.47-3.87-7.11-11.22-3.05-5.06-.18-7.85,4.16-9.18s8-4.49,8-8.33c0.1-12.25,11.06-17.16,16.15-25.93-0.94-.78-2.22-1.38-2.74-2.37-2.08-3.93.27-11.07-5-12-1.83-.32-3.67-0.78-5.53-1.24l-9.35,5.4c1.5,0.93,2.76,2,2.43,3.78-0.6,3.21-3.64,2.68-7.09,1.42-3.76,0-5.74,1.49-2.78,6.1,2.38,3.71,2.85,6.51-2.15,8.92-4.15,2-2.14,5.6-.9,9,1.61,4.42,1.53,8-4.86,4.67-3.69-1.91-7.41-.28-10.77.91A9.9,9.9,0,0,1,.29,117v10.82a31.26,31.26,0,0,1,9.81.13c4.87,0.84,11.31,13.3,8.3,17C13,151.68,13.49,161.25,6.6,167.12c-2.73,2.33-1.47,5.67-.21,8.76,5,12.28,5.18,12.89-5.46,17.24-0.2.21-.42,0.41-0.63,0.61v0.07l4.62,0.1h0ZM33.58,86.67c4.6,4.85,6.67,7.48,3.84,11a2.57,2.57,0,0,1-4.05.33C29.86,94.54,34.25,92.05,33.58,86.67Z"/><path class="cls-5" d="M52.74,90.36a5.08,5.08,0,0,1,.17,1.55c7,0.52,12.71,5.34,20.58,4.95,11.74-.59,18.39-7.75,25.92-14.48h0c0.67-3.65,1.42-7.29,2-11,0.36-2.39-.33-5.28,3.22-5.78A5.37,5.37,0,0,1,111,69.9c2,8.45,6.52,9.24,14.47,7.18,9.53-2.47,19.62-3.56,29.58-1.65,6.53,1.26,5.44-2.87,3.73-5.76-2.18-3.68-5.58-6.63-8.46-9.9-5,1.42-9.05.75-11.52-4.42a5.56,5.56,0,0,0-5.25-3.15h0c-7.61-3.38-14.17-7.61-18.68-15.25a16.82,16.82,0,0,0-2.44-3.12L41.88,74.55C46.82,77.32,50.45,82.57,52.74,90.36Z"/><path class="cls-5" d="M49.48,89.49c0.53,1,1.81,1.59,2.74,2.37l0.7,0.05a5.08,5.08,0,0,0-.17-1.55c-2.29-7.79-5.92-13-10.87-15.81l-3,1.71c1.86,0.47,3.7.93,5.53,1.24C49.74,78.42,47.4,85.56,49.48,89.49Z"/><path class="cls-6" d="M69.28,323.13c-0.23-8.46,6.77-13.54,12.47-14.7,8.63-1.76,18.12-4.53,27.16-.48,2.49,1.12,5.24,1.85,7.14.18,7.88-6.89,15.86-3.1,23.64-.41,5.17,1.79,9.11,1.74,12.29-4.14-3-1.5-6.93,1.4-9.15-1.86h0c-12.72-2-25.39-4.46-38.17-5.82-6.23-.66-10-4.42-14.34-7.73-2.71.34-5.25,0.23-7.94,1.88-8.63,5.29-10.81,4.33-15.31-4.88-0.77-1.59-2.35-2.78-3.55-4.16h0c-14.77,2-23.1-3.26-28.24-19.2a9.27,9.27,0,0,1-.95,2.6c-2.09,2.73-8.53-2.08-8,3.39,0.51,5.71-1.3,12.5,4.5,17.08,2.47,2,4.44,4.33,4.55,7.88,0.07,2.37,1.18,4.41,4.17,3.64,4.75-1.22,7.39,1.44,8.53,5.28,1.35,4.53.17,9.64-3.79,11.8a41.2,41.2,0,0,0-6,4l27.05,15.62C68.08,330.91,69.4,327.75,69.28,323.13Zm-28.78-32c-1.87.81-3-.17-3.09-2a3.71,3.71,0,0,1,3.07-4c1.83-.39,2.69,1,3.47,2.19C44.12,290,42.11,290.46,40.5,291.15Z"/><path class="cls-7" d="M307.31,78.7a3.83,3.83,0,0,1-1.76,3.85c-3,1.74-3.07-2.14-4.67-3-4.49-2.44-7.19-6.5-10-10.35l-13.85-8a29.15,29.15,0,0,0-6.8.88c-9.11,2.16-5.85,10.38-6.42,16.56h0c1.63,3.36,3.11,7.12,6.41,8.94,4.64,2.57,4.31,5.94,2.85,9.93l1.76,2h0c10.35-9.85,21.78-7.29,25.77,5.77,2.5-.08,5-0.28,7.49-0.22,3.6,0.08,8.17,2.53,10.37-1.43,2.46-4.41-3.36-5.65-5.1-8.56-1-1.61-2.58-3-1.07-4.9s3.66-.93,5,0.12c7.83,6.17,15.82,12.2,22.33,19.82,3.47,4.06.69,6.51-3,7.5-7.83,2.08-8.07,6.7-4.88,12.73,1,1.93,2.8,4,.63,5.82-2.33,2-6,2-7.94.4-10-8.32-7.11.83-7.61,5.37-0.17,1.55-.05,3.12-0.07,4.69l3.94,9.49h0c2.53,10.72,5.39,21.41-2.68,31.29-3.59,4.39-7.38,6.45-12.59,2.77-3.59-.43-3.61-9.3-9.6-4.06h0c-1.8,6.08,8.58,9.34,3.71,16.92-0.9,1.41,5.37,2.67,8.39.36,5.55-4.26,10.95-8.73,18.21-14.55-2.29,10-9.65,12.77-13.93,18-2.9,3.53-7.57,5.93-6.81,11.59h0l1.88,1.87c5.78,0,11.89,1.63,11.81-8.27-0.05-6.12,6.44-7,11.56-6.73,6.43,0.37,8.1-1.88,7-8.2-1.82-10.72,3-20.88,3.7-31.44a5.18,5.18,0,0,1,.39-1.74V98.56Zm-23.88,9.43c-8.91,0-15.83-6.46-16.1-14.31-0.21-6,2.77-8.49,8.52-8.48,8,0,14.54,6.94,14.23,15.35C289.92,85.25,288.5,88.82,283.43,88.13Z"/><path class="cls-7" d="M336.27,215.82c-4.88,2.05-5.66,4.69-3.86,8.11-0.25-3.56,1.87-5.23,5.92-3.39a22.05,22.05,0,0,0,3.37,1.22V211A12.45,12.45,0,0,1,336.27,215.82Z"/><path class="cls-7" d="M332.41,223.92a16.21,16.21,0,0,0,1.28,2h0c-0.53-5.26,2-4.91,5.42-3a25.35,25.35,0,0,0,2.59,1.29v-2.5a22.05,22.05,0,0,1-3.37-1.22C334.28,218.69,332.16,220.36,332.41,223.92Z"/><path class="cls-8" d="M340.08,196.63c0.69,6.39-1.39,10.48-8.29,10.89-6,.35-9.81,2.77-11.32,9.1s-6.31,6.35-11.21,5.65c3.63,3.33,7.65,6.28,10,10.8,1.94,3.77,5.33,7.76-1.92,10.17-4.09,1.36-1.16,4.27-.17,6.07,2.53,4.56,7,6.94,11.22,9.61,0.19-7,4.58-7.19,9.62-5.29,1.27,0.48,2.5,1,3.72,1.63V231.6a28.34,28.34,0,0,0-8.87-5.36c0-.08,0-0.15-0.05-0.22-1.88-.06-2.38-1.75-2.63-3.34-0.66-4.34,5.58-12,11.55-15.78V178.39C340.44,184.39,339.41,190.41,340.08,196.63Z"/><path class="cls-8" d="M333.69,225.94a4.08,4.08,0,0,1-.91.08c0,0.07,0,.14.05,0.22a28.34,28.34,0,0,1,8.87,5.36v-2.51a44.65,44.65,0,0,0-8-3.15h0Z"/><path class="cls-8" d="M328.36,258.91c0.53,0.34,1.07.68,1.59,1h0c-0.28-5.44,2.44-6.84,7-4.68,1.61,0.77,3.2,1.59,4.77,2.44v-2.45c-1.22-.59-2.45-1.15-3.72-1.63C332.94,251.72,328.56,251.9,328.36,258.91Z"/><path class="cls-8" d="M330.15,222.69c0.24,1.59.74,3.28,2.63,3.34a11.19,11.19,0,0,1-.37-2.1c-1.8-3.41-1-6.05,3.86-8.11A12.45,12.45,0,0,0,341.7,211v-4.1C335.73,210.68,329.49,218.35,330.15,222.69Z"/><path class="cls-8" d="M337.61,197.09c1.07,6.33-.59,8.58-7,8.2C325.47,205,319,205.9,319,212c0.08,9.91-6,8.23-11.81,8.27,0.65,0.68,1.34,1.33,2,2,4.89,0.7,9.69.74,11.21-5.65s5.33-8.74,11.32-9.1c6.9-.41,9-4.49,8.29-10.89-0.67-6.22.35-12.24,1.62-18.24V163.91a5.18,5.18,0,0,0-.39,1.74C340.61,176.21,335.8,186.37,337.61,197.09Z"/><path class="cls-8" d="M332.41,223.92a11.19,11.19,0,0,0,.37,2.1,4.08,4.08,0,0,0,.91-0.08A16.21,16.21,0,0,1,332.41,223.92Z"/><path class="cls-9" d="M283.67,193.26h0c-3.94,8.89-7.28,5-10.53,1.44-2.06-2.29-4.64-2.94-7.55-2.85h0c-6,1.93-2.78,3.9,0,5.87h0c3.59,5,7.13,10.07,10.78,15,1.75,2.38,4.06,4.15,7.18,3.72,10.57-1.45,11.28,5,10.34,12.75-0.21,1.71-1.63,3.57.46,4.86,1.8,0.29,2.53-.71,3-1.9,1-2.5,1.15-6.46,5-5.31,3.56,1.06,4.21,5.25,5.56,8.33,1.8,4.12-1.83,3.63-4,4.19-4,1-4.22,4.14-4.28,7.39-0.29,3.35,1.56,5.63,3.39,8.26,5.17,7.43,9.88,15.19,14.73,22.84l0.82-.12c2.77,0.11,5.43.49,7.33,2.75,2.93-6.61,1-13.84,2.34-20.65-6.48-.6-10-5.45-13.28-10.54-1.19-1.86-2-4.52-.29-6.15,7.09-6.77,1.32-10.77-2.8-15.41-1.65-1.85-4.32-3.2-4.65-5.93a5.82,5.82,0,0,1-2.82-2.36,10.18,10.18,0,0,1-.53-1.88c-2.2-1.18-4.4-2.39-6.52-3.61C290,209.86,283.19,204.85,283.67,193.26Z"/><path class="cls-9" d="M299.58,246.8c-0.23-.33-0.47-0.72-0.7-1.13A1.94,1.94,0,0,0,299.58,246.8Z"/><path class="cls-9" d="M325.86,280.53c0.1,0.12.21,0.22,0.31,0.36h0c9.35-5.52,1.09-14.22,3.79-20.94h0a14.74,14.74,0,0,1-1.75-.07C326.84,266.69,328.79,273.92,325.86,280.53Z"/><path class="cls-9" d="M318.53,277.77l-0.82.12,0.71,1.13h0l7.33,1.75,0.11-.26C324,278.27,321.3,277.88,318.53,277.77Z"/><path class="cls-9" d="M325.74,280.78l0.42,0.1c-0.1-.13-0.21-0.24-0.31-0.36Z"/><path class="cls-9" d="M303.83,217.61a10.18,10.18,0,0,0,.53,1.88,5.82,5.82,0,0,0,2.82,2.36,5.07,5.07,0,0,1,0-1.56l-1.88-1.87h0Z"/><path class="cls-9" d="M307.18,221.85c0.33,2.74,3,4.08,4.65,5.93,4.12,4.64,9.89,8.64,2.8,15.41-1.7,1.62-.9,4.29.29,6.15,3.27,5.08,6.79,9.94,13.28,10.54,0-.24.09-0.49,0.15-0.73,0-.08,0-0.15,0-0.23-4.21-2.67-8.69-5.05-11.22-9.61-1-1.8-3.92-4.7.17-6.07,7.25-2.41,3.85-6.4,1.92-10.17-2.32-4.52-6.34-7.47-10-10.8l-1.75-.27Z"/><path class="cls-9" d="M328.2,259.88a14.74,14.74,0,0,0,1.75.07c-0.52-.35-1.06-0.7-1.59-1,0,0.08,0,.15,0,0.23C328.29,259.39,328.25,259.63,328.2,259.88Z"/><path class="cls-9" d="M307.18,221.85l0.33,0.15,1.75,0.27c-0.7-.64-1.38-1.29-2-2A5.07,5.07,0,0,0,307.18,221.85Z"/><path class="cls-9" d="M169.22,369.68a11.87,11.87,0,0,0-9.9,2.1A34.46,34.46,0,0,1,143,378.06l17.79,10.27c6.95-.06,13.89-0.07,20.84-0.24l36-20.77C201.43,367.56,185.46,374.11,169.22,369.68Z"/><path class="cls-10" d="M168.93,393q2.22-.05,4.44-0.17l3.78-2.18c-4.08,0-8.15,0-12.23,0Z"/><path class="cls-10" d="M179.86,352.74c-3-.63-6.44.1-6.87-4.5-0.23-2.48-1.83-1.12-3.34-1-18.88,1.28-37.94,4.39-56.62,2.9a150.43,150.43,0,0,0-19.3-.51l44.47,25.67c6.44-.44,12.71-1.21,18.45-4.71a20.58,20.58,0,0,1,15.4-2.88c8.52,1.81,16.86,1.08,25.22-1.1,7.78-2,15.68-1.87,23.56-1.15l23.6-13.62a47.17,47.17,0,0,0-9-1.22C217.07,354.83,198.59,356.69,179.86,352.74Z"/><path class="cls-10" d="M325.67,304.92l4.16-2.4a16.45,16.45,0,0,0-3.7-1A33.73,33.73,0,0,1,325.67,304.92Z"/><path class="cls-10" d="M293.1,307.59c-11.24-1.38-21.68-3.93-31.26-9.91h0l-2,3.66c7.21,2.74,2.66,8.9,3.89,13.38,11.89-1.34,22.25,2.42,32,7.51l22.56-13c-0.76-.16-1.58-0.38-2.5-0.68C309,306.38,300.84,308.54,293.1,307.59Z"/><path class="cls-10" d="M171,394.23l2.37-1.37q-2.22.12-4.44,0.17Z"/><path class="cls-10" d="M197.27,366.61c-8.36,2.19-16.7,2.91-25.22,1.1a20.58,20.58,0,0,0-15.4,2.88c-5.74,3.49-12,4.26-18.45,4.71l4.8,2.77a34.46,34.46,0,0,0,16.31-6.28,11.87,11.87,0,0,1,9.9-2.1c16.24,4.44,32.21-2.12,48.38-2.36l3.23-1.86C212.95,364.74,205.06,364.57,197.27,366.61Z"/><path class="cls-10" d="M164.92,390.72c4.07,0,8.15,0,12.23,0l4.48-2.59c-6.95.17-13.89,0.18-20.84,0.24Z"/><path class="cls-8" d="M310.81,280.75l-3.58,0c6.15,6.84,9,16.72,18.43,20.55a6.79,6.79,0,0,1,6.69-.26l9.36-5.4v-3.5a24.15,24.15,0,0,0-10.15-1.82C323.71,290.59,314.49,290.75,310.81,280.75Z"/><path class="cls-8" d="M311,280.75h-0.18c3.69,10,12.9,9.84,20.74,9.6a24.15,24.15,0,0,1,10.15,1.82v-2.23a24.5,24.5,0,0,0-8.5-1.59C324.82,288.45,317.18,286.84,311,280.75Z"/><path class="cls-8" d="M325.65,301.33l0.47,0.2h0a16.45,16.45,0,0,1,3.7,1l2.52-1.45A6.79,6.79,0,0,0,325.65,301.33Z"/><path class="cls-2" d="M297.82,243.88a2,2,0,0,0-1.26-1.11c-2.83.06-2.52,2.87-2.48,4.85,0.12,5.51-1.48,9.6-7.64,10.45-1.42.68-3.19,1.68-2.58,3.25,1.08,2.8,4,2.26,6.37,2.42,2.53-1.55,3-6,7.05-5.27,2.36,0.44,2.36,2.61,2.36,4.5,0,4.34-2.31,6.92-6.36,8.17-1.9.59-4.5-.81-5.86,2.24,4.62,4,11.37,1.85,16,5.49h0a3.93,3.93,0,0,0,3.59,1.89c0-.07,0-0.13,0-0.2a3.14,3.14,0,0,1,3.76,0l0-.06a9.83,9.83,0,0,1,5.39-2.39c-7-9.84-15-19.13-18.63-31A12.08,12.08,0,0,1,297.82,243.88Z"/><path class="cls-2" d="M316.62,278.87l-0.51-.71a9.83,9.83,0,0,0-5.39,2.39l0,0.06c0.08,0.06.16,0.08,0.25,0.15,2.54-.3,5.42.89,7.42-1.72h0C317.77,279.15,316.91,279.28,316.62,278.87Z"/><path class="cls-2" d="M299.58,246.8a1.94,1.94,0,0,1-.7-1.13c-0.35-.62-0.71-1.26-1.06-1.79a12.08,12.08,0,0,0-.34,3.24c3.62,11.9,11.58,21.2,18.63,31l1.6-.26c-4.85-7.65-9.56-15.41-14.73-22.84C301.14,252.43,299.29,250.15,299.58,246.8Z"/><path class="cls-2" d="M317.7,277.9l-1.6.26,0.51,0.71c0.29,0.41,1.15.28,1.79,0.16h0Z"/><path class="cls-2" d="M307,280.57c0,0.07,0,.13,0,0.2h0.21l3.58,0-0.06-.15A3.14,3.14,0,0,0,307,280.57Z"/><path class="cls-2" d="M310.81,280.75H311c-0.08-.07-0.16-0.09-0.25-0.15Z"/><path class="cls-8" d="M48.86,164c3.53-3.63,5.8-5.29,10-2.17a8.84,8.84,0,0,0,2.61,1.43,10.11,10.11,0,0,0,4-1l0.13-.1c2.55-2.41.52-4.7-.55-6.78-1.51-3-1.52-6-1.46-9.16,0-2.28.23-4.55,3.09-5,2.52-.39,6.12-0.67,6.77,1.81,2.79,10.7,13.1,15.63,18.09,24.64,2.64,4.76,3.37,8-2.19,10.51-5.85,2.63-10.35,12.46-18.59,3-1.52-1.74-5,1.57-7.66,2.45a16.87,16.87,0,0,1-11-.2c-3.92-1.32-7.84-1.57-8.92,3.53-1.17,5.58,3.45,4.58,6.65,5.19a24.7,24.7,0,0,1,4.36,1.68c0.54-2.33-3.08-4.94-.11-6.83,2.76-1.75,5.49-.17,7.5,2.09,2.86,3.21,6.07,5.27,10.65,4.88,3.63-.31,6,1.47,6.42,5.32,0.43,4.22,2.69,6.39,6.94,5.64,4.61-.81,5.32-4.84,4.32-8.06-3-9.58,2.66-12.14,10-14.73,5.64-2,13.69.55,16.36-8.17,0.52-1.7,19.56,2.25,21.09,4.17,2,2.48,2.36,5.15.64,7.84-1.56,2.43-3.58,1.34-5.81.7-12.89-3.69-27.72,6.58-26.84,19.38,0.76,11-3.31,17.4-13.75,19.93-2.56.62-3.85,2.05-4.17,4.39a3,3,0,0,0,1.31,2.27,4.11,4.11,0,0,0,5.89-1.07c6.21-9.12,21.11-9.62,22.92-23.14,0.07-.54,2.41-1.47,3.14-1.11,5.44,2.7,12.47,1.87,16.6,7.42,8.12-2.42,14,4,20.94,5.91,14.22,4,30.62,33.19,22.3,48.63h0a15.23,15.23,0,0,0,2.13,1.41c7.62-8.38,18.62-3,27.39-6.72,4.66-2,7.74,3.27,12.07,3.44,0-.08,0-0.16,0-0.23-4.43-9.14-9.63-11.36-23.72-8.21-7.05,1.58-9.82.21-10.44-7.12-0.51-5.94-4-11.12-6.26-16.62-1.87-4.57-1.92-7.33,5.28-6.43,12.6,1.57,25.23,4.09,38.08,2.89a9.3,9.3,0,0,1,4.64.35c10.15,4.89,20.43,9.38,31.29,12.51,2,0.59,4.61,1.88,3.66,4.55a4.52,4.52,0,0,1-5.49,2.62c-8.68-2.59-14.83-2.17-14.76,9.43,0,3.37-3.37,1.57-5.16.68-4.26-2.13-8.59-2.37-14.89-.8,0,0.14,0,.27,0,0.4,10.83,3.68,20,7.2,26.09,15.55h0c2.76,10.94,14.09,8.52,20.78,13.32h0c3.17,3.54,7.1,4.53,7.85-1,1.37-10.13,6.79-11.94,14.08-11.06a26,26,0,0,1-2.52-.73c-2-.73-4.44-1.25-4.78-3.81-0.36-2.75,1.93-3.56,4-4.36,2.78-1.08,6.12-1.58,6-5.76-2.49-.78-3.87,1.56-5.91,1.79-1.74,7.84-8.4,4.49-12.24,2.73-3.48-1.59-5.83-5.9-10-7.66-1.94-.81-1.76-3.71.86-3.88a77.89,77.89,0,0,0,17.36-3c2.17-.64,1.9.64,1.35,2.11,3.07-2,4.2-5.36,4.79-9.15,0.39-2.53,1.46-5.31,4.37-5.37a1.9,1.9,0,0,1,2,1,10.5,10.5,0,0,1,4-4.43c1.82-1.17,2.52-2.84,1.32-4.79-1.44-2.34-3-1.36-4.55,0-6.84,6-8,1.44-7.68-4.42,0.35-6.13-1.67-9.53-8.17-9.88-7.32-.4-10-6.86-14.13-11.36a37.54,37.54,0,0,1-3.69-5.19c-0.29,3.79,4.33,8.2.21,10.73-5.13,3.14-10,7.25-16.75,7.6-14.18.75-30.08-8.27-36.3-21.09-0.8-1.64-2.15-3.31-.66-5.17s3.31-.41,5.05,0c5.14,1.15,9,5.79,14.67,5.37-0.18-2.1-4.61-2.77-1.94-5.82-7.28-5.94-7.83-10.27-2.52-17.22,1.43-1.87,6-3.65,2.31-6.47-2.81-2.15-6.51.08-7.86,3-4,8.71-6.3,9.63-7.34-1a1.85,1.85,0,0,0-2.63-1.76c-2.12.83-4.58,2.62-4,4.68,2.83,9.39-2.28,7.36-7.64,5.84-6.52-1.84-7.32,6.07-12.06,7.4h0c-12.9,2.29-15.81,0-15.11-11.57,0.37-6.11,3.23-9.12,9.36-9.22,2,0,4.33.82,6.19-1.11-1.67-3.93-5.43-2.07-8.15-2.92-20.38-6.41-42.07-9-60.51-21.15-1.87-1.23-4.8-.84-7.23-1.2-4.21,2.51-7.6,2.45-9.91-2.65-0.58-1.29-1.21-3.05-2.28-4-0.55-.23-1.1-0.44-1.65-0.65a3.2,3.2,0,0,0-1.2.26c-8,3.3-14.63,0-21.43-3.46-3.13-1.59-5.81-.39-8.64,1.65-6.2,4.49-12.44,6.95-20.8,3.95-6.57-2.35-14.08,1.65-21.21-.2-0.12,4.94,3.11,7.25,7.32,8.93,2.37,0.95,4.87,2.34,4.27,5.36C36.59,153,34,154,31.33,153.83c-8.52-.39-10.1,7.47-14,12.18-2.69,3.23,1.67,4.32,3.84,5.84,6.12,4.31,7.06,7.15,3.53,13.06C34.3,179.8,41.44,171.58,48.86,164Z"/><path class="cls-8" d="M21.15,171.85c-2.17-1.53-6.53-2.61-3.84-5.84,3.92-4.7,5.51-12.57,14-12.18,2.68,0.12,5.26-.86,5.83-3.69,0.61-3-1.9-4.42-4.27-5.36-4.21-1.68-7.44-4-7.32-8.93a13.47,13.47,0,0,1-1.69-.55c-3.37,7.35,2.06,9.3,7.11,11.22,1.94,0.74,5.08.25,4.7,3.21-0.35,2.76-3,2.32-5.32,2.06-3.66-.41-17.32,12.31-17.52,16.1-0.16,3.07,1.68,4.51,4.45,5.07,9,1.83,9.76,6.55,4.69,13.33,0.93-.42,1.81-0.9,2.69-1.37C28.21,179,27.27,176.16,21.15,171.85Z"/><path class="cls-8" d="M265.63,201.46a4.07,4.07,0,0,0-.08.59,37.54,37.54,0,0,0,3.69,5.19c4.15,4.5,6.81,11,14.13,11.36,6.5,0.35,8.52,3.75,8.17,9.88-0.33,5.86.84,10.47,7.68,4.42,1.59-1.4,3.1-2.38,4.55,0,1.2,1.95.5,3.62-1.32,4.79a10.5,10.5,0,0,0-4,4.43c0.43,1,.14,2.47.43,3.6,0.23,0.41.47,0.8,0.7,1.13,0.06-3.26.32-6.39,4.28-7.39,2.22-.56,5.85-0.07,4-4.19-1.35-3.08-2-7.27-5.56-8.33-3.89-1.16-4,2.8-5,5.31-0.47,1.18-1.19,2.19-3,1.9-2.09-1.29-.66-3.14-0.46-4.86,0.94-7.79.23-14.2-10.34-12.75-3.12.43-5.43-1.34-7.18-3.72-3.65-5-7.19-10-10.78-15A15.24,15.24,0,0,1,265.63,201.46Z"/><path class="cls-8" d="M296.4,241.07c-2.91.05-4,2.84-4.37,5.37-0.59,3.78-1.72,7.11-4.79,9.15a12.1,12.1,0,0,0-.81,2.49c6.16-.85,7.76-4.94,7.64-10.45,0-2-.35-4.79,2.48-4.85a2,2,0,0,1,1.26,1.11,9.8,9.8,0,0,1,.63-1.81A1.9,1.9,0,0,0,296.4,241.07Z"/><path class="cls-8" d="M295.87,263.52c0.1,4.18-3.24,4.68-6,5.76-2.06.8-4.35,1.62-4,4.36,0.34,2.56,2.73,3.08,4.78,3.81a26,26,0,0,0,2.52.73q1.79,0.22,3.72.62c2.1,0.43,4.36.07,6.54,0.08-4.65-3.64-11.39-1.53-16-5.49,1.37-3,4-1.65,5.86-2.24,4.05-1.25,6.35-3.83,6.36-8.17,0-1.89,0-4.07-2.36-4.5-4.08-.76-4.53,3.72-7.05,5.27-0.07.57-.16,1.08-0.27,1.56C292,265.08,293.38,262.74,295.87,263.52Z"/><path class="cls-8" d="M297.82,243.88c0.35,0.53.71,1.18,1.06,1.79-0.29-1.14,0-2.63-.43-3.6A9.8,9.8,0,0,0,297.82,243.88Z"/><path class="cls-11" d="M3.36,171c-0.94-2.23,1-4.87,2.63-6.81,4.6-5.45,6.29-12.32,8.76-18.69,3.64-9.36-2.66-16.85-12.34-14.46-0.72.18-1.42,0.38-2.11,0.59v61.76l0.63-.26C7.16,186.66,6.84,179.22,3.36,171Z"/><path class="cls-11" d="M14.75,145.48c-2.48,6.37-4.16,13.24-8.76,18.69-1.64,1.94-3.57,4.57-2.63,6.81,3.48,8.24,3.8,15.68-2.44,22.14,10.64-4.35,10.49-5,5.46-17.24-1.26-3.08-2.52-6.43.21-8.76C13.49,161.25,13,151.68,18.4,145c3-3.71-3.43-16.17-8.3-17a31.26,31.26,0,0,0-9.81-.13v3.75c0.7-.21,1.4-0.41,2.11-0.59C12.09,128.63,18.39,136.12,14.75,145.48Z"/><path class="cls-11" d="M47.83,133.91A22.32,22.32,0,0,0,64.94,131c1.61-1,3.37-2.87,5-2.51,9.56,2.13,19.74,1.79,28.95,5.17a2.41,2.41,0,0,1,1.65.65,32.52,32.52,0,0,1,3.84,1.93c2.41,1.43,4.46,2.79,7.05,2.8-7.12-11.18-4.63-21.3,4.28-31.31,3-3.35,3.91-8.48,6.17-12.58,1.26-2.28,2.9-4.39,1.51-6.93-1.74-3.19-5-2-7.66-1.81s-5.48,1.32-8.25,1.6c-3.61.37-6.73-.29-7.73-3.87-14.83,16.89-31.41,19.8-46.84,8.2a8,8,0,0,1-1.36,3.33c-5.34,8.26-13.11,15-14.75,25.57-0.46,3-3.76,4.9-6.54,6.44s-4.66,3.86-4.65,7.24C32.95,133.28,40.46,132.36,47.83,133.91Z"/><path class="cls-11" d="M30.23,127.67c2.79-1.54,6.08-3.45,6.54-6.44,1.64-10.55,9.41-17.31,14.75-25.57a8,8,0,0,0,1.36-3.33c-0.22-.17-0.44-0.3-0.66-0.47-5.08,8.77-16,13.68-16.15,25.93,0,3.84-3.56,7-8,8.33s-7.21,4.11-4.16,9.18l1.7-.38C25.57,131.54,27.33,129.28,30.23,127.67Z"/><path class="cls-11" d="M99.72,84.13a9.1,9.1,0,0,1-.3-1.75h0C91.88,89.11,85.24,96.27,73.5,96.85c-7.87.39-13.55-4.43-20.58-4.95,0,0.14,0,.28,0,0.42C68.31,103.93,84.89,101,99.72,84.13Z"/><path class="cls-11" d="M52.92,91.91l-0.7-.05c0.22,0.17.44,0.31,0.66,0.47C52.9,92.19,52.91,92.05,52.92,91.91Z"/><path class="cls-11" d="M46.78,136c8.36,3,14.6.54,20.8-3.95,2.82-2,5.51-3.25,8.64-1.65,6.8,3.46,13.39,6.76,21.43,3.46a3.2,3.2,0,0,1,1.2-.26c-9.21-3.39-19.39-3-28.95-5.17-1.59-.35-3.35,1.53-5,2.51a22.32,22.32,0,0,1-17.11,2.93c-7.37-1.55-14.88-.63-22.25,1,0,0.1,0,.19,0,0.29s0,0.42,0,.63C32.7,137.69,40.21,133.68,46.78,136Z"/><path class="cls-11" d="M104.34,136.22a32.52,32.52,0,0,0-3.84-1.93c1.07,0.94,1.7,2.71,2.28,4,2.31,5.1,5.7,5.16,9.91,2.65-0.47-.65-0.89-1.29-1.3-1.93C108.8,139,106.76,137.64,104.34,136.22Z"/><path class="cls-11" d="M25.57,135.2c0-.1,0-0.19,0-0.29l-1.7.38a13.47,13.47,0,0,0,1.69.55C25.58,135.62,25.55,135.43,25.57,135.2Z"/><path class="cls-12" d="M16.24,201.77c7.53-2.42,11.71,2.1,14.41,8.11,1.55,3.46,2.68,6.9,6.45,8.53,2.85-1.19,5.62-2.6,8.56-3.5,2.53-.77,6.06.32,6.41-3.85,0.37-4.47-4.22-3.61-7.51-6,5.26-2.56,14.8-1.59,9.73-11-1.75.88-3.6,0.61-5.42,0.35-4.37-.63-8.33-2-7.5-7.52,0.76-5,4.76-7.29,9-6,9.24,2.9,18.12-4.33,27.71.17,3.65,1.72,8.6-3.3,11.15-7.25,2.28-3.53-1-6.47-2.9-9.21-4.32-6.14-10.82-10.55-14-17.67-0.62-1.41-1.93-2.71-3.72-2.28-2.36.56-2.29,2.64-2.33,4.53a13.33,13.33,0,0,0,.21,1.87c0.83,6.83,1.16,9.71-1.1,11a3.9,3.9,0,0,1-4,1c-1.56.16-3.49,0.25-5.9,0.36-2.9.13-4.3,2.2-6.18,3.83-6.17,5.34-11.73,11.38-18.36,16.18-2.32,1.68-4.42,4.48-7.64,3.39l-0.18.27c-4,3.1-8.44,5.44-12.8,8l-0.31.1C8.24,200.18,6.59,204.87,16.24,201.77Z"/><path class="cls-12" d="M10.08,195.29l0.31-.1c4.36-2.51,8.82-4.85,12.8-8l0.18-.27a6.49,6.49,0,0,1-1.39-.67c-3.82,2.47-8.91,3-11.38,7.56h0C10.44,194.32,10.26,194.81,10.08,195.29Z"/><path class="cls-12" d="M31,183.57c6.63-4.8,12.2-10.84,18.36-16.18,1.88-1.63,3.27-3.7,6.18-3.83,2.41-.11,4.35-0.2,5.9-0.36a8.84,8.84,0,0,1-2.61-1.43c-4.18-3.12-6.45-1.46-10,2.17-7.42,7.63-14.56,15.85-24.18,21-0.38.64-.82,1.32-1.31,2C26.59,188,28.69,185.25,31,183.57Z"/><path class="cls-12" d="M54.13,193.81a24.7,24.7,0,0,0-4.36-1.68c-3.2-.6-7.82.4-6.65-5.19,1.07-5.09,5-4.84,8.92-3.53a16.87,16.87,0,0,0,11,.2c2.63-.88,6.14-4.19,7.66-2.45,8.24,9.43,12.74-.4,18.59-3,5.56-2.49,4.83-5.76,2.19-10.51-5-9-15.31-13.93-18.09-24.64-0.64-2.47-4.25-2.19-6.77-1.81-2.86.44-3,2.71-3.09,5-0.07,3.14-.05,6.21,1.46,9.16,1.06,2.08,3.1,4.37.55,6.78l-0.13.1c2.27-1.33,1.93-4.21,1.1-11a13.33,13.33,0,0,1-.21-1.87c0-1.89,0-4,2.33-4.53,1.79-.42,3.1.87,3.72,2.28,3.13,7.12,9.63,11.53,14,17.67,1.94,2.75,5.18,5.68,2.9,9.21-2.55,3.95-7.5,9-11.15,7.25-9.59-4.51-18.47,2.73-27.71-.17-4.24-1.33-8.24.93-9,6-0.84,5.55,3.12,6.89,7.5,7.52,1.82,0.26,3.67.53,5.42-.35-0.06-.11-0.1-0.21-0.17-0.33h0Z"/><path class="cls-12" d="M24.68,184.92c-0.89.47-1.76,1-2.69,1.37a6.49,6.49,0,0,0,1.39.67C23.86,186.24,24.3,185.56,24.68,184.92Z"/><path class="cls-11" d="M14.2,115.53c6.39,3.32,6.48-.25,4.86-4.67-1.23-3.38-3.24-7,.9-9,5-2.41,4.52-5.21,2.15-8.92-3-4.62-1-6.06,2.78-6.1,3.45,1.26,6.49,1.79,7.09-1.42,0.33-1.75-.93-2.85-2.43-3.78L0.36,98.52l-0.07.16V117a9.9,9.9,0,0,0,3.14-.61C6.79,115.25,10.51,113.62,14.2,115.53Z"/><path class="cls-6" d="M3.07,233.29a12.76,12.76,0,0,0-2.77-6.23v7.66c0.91-.48,1.85-1,2.77-1.42h0Z"/><path class="cls-8" d="M12.6,207.24c12.36-1.06,12.74-.74,13.12,11.28q0.12,3.72.24,7.44h0c3.58-2,8.23-2.35,10.51-6.24-4.14-1.21-6.25-4.48-7.86-8.12C26,205.8,22.1,203,15.51,204.49c-3.09.72-6.39,0.79-7.89-2.87a5.41,5.41,0,0,1,.67-5.84,16.64,16.64,0,0,1-3.34.33q0.1,7.34.2,14.67l0.11,0.07C7.77,209.77,7.4,202.85,12.6,207.24Z"/><path class="cls-8" d="M8.28,195.78a8.34,8.34,0,0,1,2.33-1.94l-5.7.06,0,2.2A16.64,16.64,0,0,0,8.28,195.78Z"/><path class="cls-8" d="M30.65,209.88c-2.7-6-6.88-10.54-14.41-8.11-9.65,3.11-8-1.58-6.16-6.48a13.29,13.29,0,0,1-1.79.49,5.41,5.41,0,0,0-.67,5.84c1.51,3.65,4.81,3.58,7.89,2.87C22.1,203,26,205.8,28.61,211.6c1.61,3.64,3.72,6.92,7.86,8.12a8.36,8.36,0,0,0,.64-1.32C33.33,216.78,32.2,213.33,30.65,209.88Z"/><path class="cls-8" d="M8.28,195.78a13.29,13.29,0,0,0,1.79-.49c0.18-.48.36-1,0.54-1.44h0A8.34,8.34,0,0,0,8.28,195.78Z"/><path class="cls-11" d="M8.94,222.27c1.57-1.33,3.42-3.57,2-5.67-2.22-3.32-.59-5.64.89-8.05-2.19.4-4.41,3.18-6.58,2.3l-0.11.06c-2,1.92-3.53,2.07-4.85,1.31v6.12a8.16,8.16,0,0,1,4.1,2.15C5.71,221.56,6.9,224,8.94,222.27Z"/><path class="cls-11" d="M5.26,210.85c2.18,0.89,4.4-1.9,6.58-2.3,0.26-.43.52-0.86,0.75-1.31C7.4,202.85,7.77,209.77,5.26,210.85Z"/><path class="cls-12" d="M5.15,210.78a4.38,4.38,0,0,1-1.81-1.86c-1.07-4.43-1.68-8.8.31-12.9a8.88,8.88,0,0,1-3.35-1v14.48a31.07,31.07,0,0,0,4.85,1.37v-0.12Z"/><path class="cls-12" d="M4.91,193.9h0l-4.62-.1v1.25a8.88,8.88,0,0,0,3.35,1A13.06,13.06,0,0,1,4.91,193.9Z"/><path class="cls-12" d="M4.77,196.11c-0.38,0-.76,0-1.13-0.08-2,4.1-1.38,8.47-.31,12.9a4.38,4.38,0,0,0,1.81,1.86q-0.1-7.34-.2-14.67H4.77Z"/><path class="cls-12" d="M4.94,196.11l0-2.2h0A13.06,13.06,0,0,0,3.64,196c0.37,0,.75.07,1.13,0.08H4.94Z"/><path class="cls-12" d="M5.15,210.9a31.07,31.07,0,0,1-4.85-1.37v2.68C1.62,213,3.16,212.82,5.15,210.9Z"/><path class="cls-11" d="M37.42,97.69c2.83-3.54.76-6.17-3.84-11,0.67,5.38-3.72,7.87-.21,11.35A2.57,2.57,0,0,0,37.42,97.69Z"/><path class="cls-13" d="M130.69,32.3c-12.24,10-3.88,11.66,1,14.6l4.79-.42h0c1.69-1.89,3.68-3.9,6.18-3.83,7.93,0.2,9.52-3,6-9.73-0.59-1.12-1.67-2.34.91-3.37,4.62-1.86,3-4.22-.23-6.24-2.09-1.3-4.8-2.54-3.49-5.66a2.94,2.94,0,0,1,4.14-1c2.26,1.76,8.14.21,6.87,4.3-1.71,5.47,2.59,9.9.39,15.52-2.49,6.35,4.32,7.39,8.39,8.4s8,1,11.32,3.77c4.14,1.41,6.93-.55,9.23-3.72,3-7.72,11.93-9.38,16.21-16.14,1.79-2.82,4.25,1,4.55,3.26,2,14.94,12.31,18.28,25,18.53l3.4-2a2.38,2.38,0,0,0,.3-0.88,28.07,28.07,0,0,1,.79-9.92L171,0,117.93,30.64A17,17,0,0,0,130.69,32.3Z"/><path class="cls-14" d="M115.76,84.27c9.28-1.1,12.33,3.48,8.1,11.85-3.53,7-6.3,14.45-11.1,20.7-3.91,5.09-4.8,9.82-1,15.4,1.3,1.91,2.55,4.18,2,6.58,6.08-.48,10.48,3.64,15.57,6,14.49,6.6,30.31,9.12,45.23,14.43,3.21,1.14,6.74,1.34,10,2.28,2.46,0.7,5.26,1.63,5.33,4.52,0.08,3.36-3.22,3.32-5.53,3.72-3.41.6-6.84,0.66-8.26,4.82-2.33,6.8-.1,10.91,5.82,11.3a3,3,0,0,1-1.31-1.09h0c-4.91-2.28-4.32-6.63-3.29-10.48s4.88-2.9,7.93-3.2c4.55-.45,5.09,2.39,5.19,5.78,6.43,0.51,10.39-1.8,11.3-8.78,0.37-2.84,1-6,3.4-8.21h0c-3.31-8.44-3.25-18.38-11.63-24.6-2.36-1.76-1.86-4.37,1.49-5.67,6.55-2.54,4.22-5.7,1.2-10-4.67-6.62-12.39-10.57-15.55-18.38h0c-1.47-2.27-2.52-5-4.47-6.72-5.67-4.94-2.25-6.82,2.45-8.53-3.78-13.47-14.73-24.28-25.82-26a24.23,24.23,0,0,1,3.58,3.1c3.07,3.22,6.51,6.62,4.69,11.5-2,5.37-6.9,3-10.69,2.91-6-.12-11.93-0.19-17.82,1.06-10.39,2.21-20.94,4.92-25.66-10-4.35,5.14-3.07,10.6-6.08,14.27L100.7,83C105.48,85.35,110.48,84.9,115.76,84.27ZM130.14,123c0.7-5.66,6.82-6.28,9.81-8.33,5.33,0.22,7,2.47,6.67,6.18-0.45,5.49-3,10.15-8.79,10.08C133.83,130.83,129.61,127.25,130.14,123Z"/><path class="cls-14" d="M100.83,82.88c3-3.68,1.73-9.14,6.08-14.27,4.72,14.89,15.27,12.18,25.66,10,5.89-1.25,11.84-1.18,17.82-1.06,3.79,0.07,8.69,2.47,10.69-2.91,1.81-4.88-1.62-8.28-4.69-11.5a24.23,24.23,0,0,0-3.58-3.1,20,20,0,0,0-2.51-.24h0c2.88,3.27,6.28,6.22,8.46,9.9,1.72,2.89,2.8,7-3.73,5.76-10-1.92-20.05-.82-29.58,1.65C117.5,79.14,113,78.36,111,69.9a5.37,5.37,0,0,0-6.38-4.27c-3.55.5-2.86,3.39-3.22,5.78-0.54,3.67-1.3,7.31-2,11,0.42,0.25.85,0.45,1.28,0.65Z"/><path class="cls-14" d="M181.92,185.83c-5.91-.39-8.14-4.5-5.82-11.3,1.42-4.16,4.86-4.22,8.26-4.82,2.31-.41,5.61-0.36,5.53-3.72-0.07-2.89-2.87-3.83-5.33-4.52-3.31-.94-6.84-1.14-10-2.28-14.92-5.31-30.74-7.82-45.23-14.43-5.09-2.32-9.5-6.44-15.57-6a5.84,5.84,0,0,1-1,2.14c2.44,0.36,5.36,0,7.23,1.2,18.44,12.1,40.12,14.74,60.51,21.15,2.72,0.86,6.48-1,8.15,2.92-1.86,1.93-4.15,1.08-6.19,1.11-6.14.1-9,3.12-9.36,9.22-0.7,11.54,2.21,13.86,15.11,11.57h0C186.81,185.72,183.94,186.73,181.92,185.83Z"/><path class="cls-14" d="M107.45,88c2.78-.28,5.48-1.41,8.25-1.6s5.91-1.38,7.66,1.81c1.39,2.54-.25,4.65-1.51,6.93-2.26,4.1-3.19,9.22-6.17,12.58-8.91,10-11.4,20.12-4.28,31.31a7.66,7.66,0,0,0,1.46-.12c0.29,0,.57-0.06.85-0.08,0.58-2.4-.67-4.67-2-6.58-3.79-5.58-2.89-10.31,1-15.4,4.8-6.25,7.57-13.71,11.1-20.7,4.23-8.37,1.18-13-8.1-11.85-5.28.62-10.28,1.08-15.07-1.24-0.32.38-.65,0.73-1,1.1C100.72,87.7,103.84,88.37,107.45,88Z"/><path class="cls-14" d="M100.7,83c-0.43-.21-0.86-0.4-1.28-0.65a9.1,9.1,0,0,0,.3,1.75C100,83.76,100.37,83.42,100.7,83Z"/><path class="cls-14" d="M112.86,138.89a7.66,7.66,0,0,1-1.46.12c0.41,0.64.83,1.28,1.3,1.93a5.84,5.84,0,0,0,1-2.14C113.43,138.82,113.15,138.84,112.86,138.89Z"/><path class="cls-15" d="M206,44.62c-1.39-1.51-3-4.2-5.32-2.54-1.94,1.37-1.35,4.16-.19,6.08,3.32,5.47,3.6,11.57,2.56,17.36-1.71,9.46,4.6,17.34,4.13,26.46-0.22,4.27-.3,8.55-4.8,10.31-4.12,1.61-8.72,2-12.64-.71-4.38-3-2.33-7.59-2.75-11.83-1.1-11.2,6.09-19,9.65-28.3a11.93,11.93,0,0,0-8.27-16.18c-0.32.37-.67,0.71-1,1.09a10.37,10.37,0,0,1-10,4,15.54,15.54,0,0,1-2.32-.63c-5.09,2.05-9.92-2.45-14.16-3.26-7.37-1.41-14.17-.45-21.09-0.08a8.38,8.38,0,0,0-2.67,1.5,10.22,10.22,0,0,1-5,.43l0.22,0.62c0.61,0.3,1.21.61,1.81,0.93,5.87,2.53,9.72,8.79,16.55,9.55a6.48,6.48,0,0,1,8.13-.89c9.56,6.73,19.92,13.07,21.05,26.56a12.88,12.88,0,0,0-.94,1.14c6,3.56,7.18,8.42,3.42,13.17a11.94,11.94,0,0,1,.68,1.23c3,6.12,8.77,9.8,12.9,14.9,2.33,2.88,6.79,6.9,4.61,9.63-7,8.84,1.14,14.8,2.87,21.87,1.11,4.52,3.91,8.64,3,13.63q-0.36,1.38-.72,2.76c0.95,2.59,3,3,6.42,1l-0.13-.46c-5.33-.24-6-4.93-4.63-8,2.33-5.36,7.54-6,12.86-3.48-3.63-8.08,2.6-14.65,3.49-22.06,1-8.33,4.56-16,8.13-23.55h0c-2.26-2.7-5.5-5.19-2-9.15-11.08-5.82-8.72-17.31-11.29-26.73h0c-4.13-6.48-2.83-9.8,5.32-9.15,4.46-.72,5.58-4.69,7.61-7.79v0C221.59,54.68,212.92,52.15,206,44.62Z"/><path class="cls-15" d="M150.29,59.77c0.14-.14.29-0.25,0.43-0.38-6.84-.76-10.69-7-16.55-9.55-0.59-.32-1.2-0.63-1.81-0.93l1.16,3.3h0a5.57,5.57,0,0,1,5.25,3.15c2.47,5.17,6.57,5.84,11.52,4.42h0Z"/><path class="cls-15" d="M137.17,47.85a8.38,8.38,0,0,1,2.67-1.5c-1.12.06-2.25,0.11-3.38,0.12h0l-4.79.42,0.48,1.38A10.22,10.22,0,0,0,137.17,47.85Z"/><path class="cls-15" d="M177.41,50.34a10.37,10.37,0,0,0,10-4c0.31-.38.65-0.72,1-1.09a12,12,0,0,0-2.25-.3c-2.3,3.17-5.08,5.13-9.23,3.72a8.32,8.32,0,0,1-1.83,1A15.54,15.54,0,0,0,177.41,50.34Z"/><path class="cls-15" d="M178.63,86L179,86.19a12.88,12.88,0,0,1,.94-1.14c-1.14-13.49-11.49-19.83-21.05-26.56a6.48,6.48,0,0,0-8.13.89,12.54,12.54,0,0,0,1.35.08c0.26,0.16.48,0.37,0.73,0.54C163.89,61.7,174.84,72.52,178.63,86Z"/><path class="cls-15" d="M180.65,101.24c3.16,7.81,10.88,11.76,15.55,18.38,3,4.27,5.35,7.43-1.2,10-3.35,1.3-3.85,3.91-1.49,5.67,8.37,6.22,8.31,16.16,11.63,24.6h0a11.92,11.92,0,0,0,.58,3.56q0.37-1.38.72-2.76c0.91-5-1.9-9.11-3-13.63-1.73-7.07-9.91-13-2.87-21.87,2.18-2.74-2.28-6.75-4.61-9.63-4.13-5.11-9.92-8.78-12.9-14.9a11.94,11.94,0,0,0-.68-1.23A16.47,16.47,0,0,1,180.65,101.24Z"/><path class="cls-15" d="M150.72,59.39c-0.14.13-.29,0.24-0.43,0.38h0a20,20,0,0,1,2.51.24c-0.25-.18-0.47-0.38-0.73-0.54A12.54,12.54,0,0,1,150.72,59.39Z"/><path class="cls-16" d="M131.36,48.42a3.5,3.5,0,0,1,0-.35c-4.83-1.85-7.55-4.47-9.33-10.47-0.76-2.58-3.28-4.27-6.29-5.71l-1.6.93a39.68,39.68,0,0,1,6.17,7.63C122.9,44.62,127.2,46.44,131.36,48.42Z"/><path class="cls-16" d="M133.52,52.21h0c-1.09-1.13-2.15-2.28-2.16-3.78-4.16-2-8.45-3.8-11-8a39.68,39.68,0,0,0-6.17-7.63l-1.76,1A16.82,16.82,0,0,1,114.85,37C119.35,44.59,125.91,48.82,133.52,52.21Z"/><path class="cls-16" d="M122.06,37.6c1.77,6,4.5,8.62,9.33,10.47a4,4,0,0,1,.28-1.16c-4.85-2.94-13.22-4.62-1-14.6a17,17,0,0,1-12.76-1.66l-2.16,1.25C118.78,33.33,121.29,35,122.06,37.6Z"/><path class="cls-16" d="M132.15,48.29l-0.33,0-0.43-.18a3.5,3.5,0,0,0,0,.35l1,0.49Z"/><path class="cls-16" d="M131.36,48.42c0,1.51,1.07,2.65,2.16,3.78l-1.16-3.3Z"/><path class="cls-16" d="M132.15,48.29l-0.48-1.38a4,4,0,0,0-.28,1.16l0.43,0.18Z"/><path class="cls-17" d="M93.21,346.22c25.45,3.73,50.73-.65,76.07-1.36,1.58,0,3.08-.22,4.5.78a36.65,36.65,0,0,0,13.2,5.88c-5.84-2.35-9.43-8-12.12-18.41s-1.14-21.64-8-31.3c-1.85-2.61-.18-9.07,2.47-13.21-4,6.17-8.07,11.36-17.12,8.75-1.21-.35-3.13,1.9-5.52,3.31h0.05c2.49,0.45,6.41-1,6.19,3.56-0.17,3.53-3,5.3-6.15,6.28a1.6,1.6,0,0,1-.91.17c-12.14-3.76-24.28-1.33-36.54-.91-7.3.25-15-.39-22.35,0.23-7.76.65-13.77,5.18-15,13.32A18.78,18.78,0,0,1,67,334.16l20.75,12A22.6,22.6,0,0,1,93.21,346.22Z"/><path class="cls-17" d="M207.58,351.11a76,76,0,0,1-9.25,1.55c6.77-.07,13.65-1.19,20.49-2.17,5-.71,10-0.69,14.89-2,0.92-.1,1.82-0.14,2.72-0.16,2.17-3.26,6.91-4.35,8.29-8.27,0-.16-0.1-0.34-0.14-0.51C232.73,345,220.16,348.3,207.58,351.11Z"/><path class="cls-17" d="M87,310c7.38-.62,15,0,22.35-0.23,12.27-.42,24.4-2.85,36.54.91a1.6,1.6,0,0,0,.91-0.17c3.2-1,6-2.74,6.15-6.28,0.22-4.54-3.7-3.11-6.19-3.56h-0.05a6.42,6.42,0,0,1-3.88,1.06h0c2.22,3.26,6.17.36,9.15,1.86-3.18,5.87-7.12,5.93-12.29,4.14-7.78-2.69-15.76-6.48-23.64.41-1.91,1.67-4.66.94-7.14-.18-9-4.06-18.53-1.28-27.16.48-5.7,1.16-12.69,6.23-12.47,14.7,0.12,4.62-1.2,7.78-4,10l1.69,1A18.78,18.78,0,0,0,72,323.34C73.23,315.2,79.25,310.67,87,310Z"/><path class="cls-17" d="M113,350.13c18.68,1.49,37.74-1.61,56.62-2.9,1.5-.1,3.1-1.47,3.34,1,0.43,4.6,3.87,3.87,6.87,4.5,18.74,3.95,37.21,2.08,55.61-2.14a6.3,6.3,0,0,1,1-2.24c-0.9,0-1.8.06-2.72,0.16-4.87,1.27-9.93,1.25-14.89,2-6.83,1-13.71,2.1-20.49,2.17-4.55.43-8.27,0.12-11.35-1.12a36.65,36.65,0,0,1-13.2-5.88c-1.41-1-2.92-.82-4.5-0.78-25.35.71-50.63,5.09-76.07,1.36a22.6,22.6,0,0,0-5.5-.09l6,3.48A150.43,150.43,0,0,1,113,350.13Z"/><path class="cls-18" d="M93.39,270.58c1.95-1.91,2.21-4.27,2.24-6.75h0c4.84-21.62,7.15-36.52,34-45.36h0a13.3,13.3,0,0,0,7.58-2c0-.28,0-0.56,0-0.85l-0.26,0a54.26,54.26,0,0,1-6.14-2.41c-6-2.85-10.55-3.13-14.9,3.71-4.76,7.48-13.91,10.55-20.47,16.44-2.81,2.52-6.76,2.66-8.93-1.19-1.95-3.45.15-6.56,3.31-7.58,11-3.55,13.5-11.33,13.19-22-0.29-9.84,12.61-19.19,25.07-19.44,2.15,0,4.3,1.06,6.49.07-2-5.21-11.21-9.12-16.36-5.44-5.71,4.07-12,5.13-18.22,7.09-5.38,1.7-8.72,4.35-7.88,10.82,0.58,4.48-.28,9.13-5.55,10.73s-7.67-2-10.47-5.82c-4.44-6.09-12.64-6-18.63-9.72-1-.63-1.94,1.93-3,3.09a4.37,4.37,0,0,1,2.62,3.07,5.26,5.26,0,0,1-1.15,5.2c-4.94,5-.72,17-12.87,16.53-2-.07-4,1.35-6.19,1.06-1.15,6.21-5.74,7.1-11.52,6.2l-0.15-.2-1.75-.3-1.7,1.86c-8.23,5.33,2.07,7.76,1.85,11.84h0c4.53,3.52,8.61,2.93,12.29-1.35a17.86,17.86,0,0,1,1.28-1.38c3.4-3.21,6.54-7.06,12-6.24,1.54,0.23,3.34,1.56,2.88,3.18-1.35,4.74-4.72,7.9-9.2,9.88-3,4.93-2.63,9.87,0,14.8,2.14,4.29,5.23,6.27,10.38,5.69a42,42,0,0,1,13.1.68c3.63,0.76,7.52,2.69,8.2,6.9,0.76,4.64-3.2,6.36-6.59,8a25.46,25.46,0,0,1-3.6,1.31c6.32,10.31,16,8.09,25.59,6.35C87.59,281,88.47,275.41,93.39,270.58ZM59.06,254.24c-3,.13-6.06-0.4-6.25-4-0.23-4.3,3.5-3.51,6.09-3.57s5.82-.57,6.51,3.42C64.7,253.7,61.91,254.12,59.06,254.24Z"/><path class="cls-18" d="M64.34,280.77l-0.81.27h0c1.2,1.38,2.78,2.57,3.55,4.16,4.5,9.2,6.68,10.17,15.31,4.88,2.69-1.65,5.24-1.55,7.94-1.88-0.16-.36-0.26-0.71-0.4-1.07C80.35,288.86,70.66,291.08,64.34,280.77Z"/><path class="cls-18" d="M120.68,207.3c-0.73-.36-3.07.57-3.14,1.11-1.81,13.52-16.71,14-22.92,23.14a4.11,4.11,0,0,1-5.89,1.07,3,3,0,0,1-1.31-2.27C87.73,228,89,226.57,91.58,226,102,223.43,106.09,217,105.34,206c-0.88-12.8,14-23.07,26.84-19.38,2.23,0.64,4.25,1.72,5.81-.7,1.73-2.68,1.34-5.36-.64-7.84-1.54-1.92-20.57-5.87-21.09-4.17-2.67,8.72-10.72,6.19-16.36,8.17-7.37,2.59-13,5.15-10,14.73,1,3.22.29,7.25-4.32,8.06-4.25.75-6.51-1.42-6.94-5.64-0.4-3.86-2.79-5.63-6.42-5.32-4.59.39-7.79-1.67-10.65-4.88-2-2.26-4.75-3.84-7.5-2.09-3,1.89.65,4.5,0.11,6.83,0.13,0,.24.12,0.36,0.17,1-1.16,2-3.72,3-3.09,6,3.76,14.2,3.63,18.63,9.72,2.79,3.84,5.19,7.41,10.47,5.82s6.13-6.25,5.55-10.73c-0.84-6.47,2.5-9.11,7.88-10.82,6.2-2,12.52-3,18.22-7.09,5.15-3.67,14.34.23,16.36,5.44-2.18,1-4.33-.11-6.49-0.07-12.46.25-25.36,9.6-25.07,19.44,0.32,10.65-2.16,18.43-13.19,22-3.16,1-5.25,4.13-3.31,7.58,2.17,3.85,6.12,3.71,8.93,1.19,6.56-5.89,15.71-9,20.47-16.44,4.35-6.84,8.86-6.55,14.9-3.71a54.26,54.26,0,0,0,6.14,2.41l0.26,0c0-.32,0-0.63.05-0.95C133.15,209.17,126.12,210,120.68,207.3Z"/><path class="cls-18" d="M54.29,194.13c5.07,9.36-4.47,8.39-9.73,11,3.29,2.37,7.88,1.51,7.51,6-0.35,4.17-3.88,3.08-6.41,3.85-2.93.9-5.71,2.31-8.56,3.5,0,0.51-.11,1-0.2,1.43,2.2,0.29,4.23-1.13,6.19-1.06C55.24,219.24,51,207.23,56,202.25a5.26,5.26,0,0,0,1.15-5.2A4.37,4.37,0,0,0,54.49,194l-0.09.1Z"/><path class="cls-18" d="M54.13,193.81c0.07,0.12.1,0.21,0.17,0.33l0.11,0,0.09-.1c-0.12-.05-0.23-0.13-0.36-0.17h0Z"/><path class="cls-18" d="M25.23,225.84l0.15,0.2c5.77,0.9,10.37,0,11.52-6.2H36.79l-0.32-.11C34.19,223.61,29.54,224,26,226h0Z"/><path class="cls-18" d="M36.91,219.84c0.08-.45.15-0.92,0.2-1.43a8.36,8.36,0,0,1-.64,1.32l0.32,0.11h0.12Z"/><path class="cls-19" d="M38.81,298.46c-6.41-3.29-17.15-20.92-14.66-30.44,1.56-6,7-5.05,11.06-6.62-0.07-.4-0.15-0.8-0.2-1.2h0c-5-4.46-10.29-2-15.74-1-5.64,1.09-10.47,1.25-11.1,9.32-0.38,4.87-4.33,2.32-6.61-.21a12.11,12.11,0,0,1-1.27-1.73v14.51a8.27,8.27,0,0,1,5.09-4c3.6-1,6.06-3.07,7.1-6.78,0.59-2.12,1.44-4.68,4.32-3.6,2.06,0.77,1.26,3.25,1.73,7.25,0.27,1.81-2.37,4.11-4.88,6.55-3.07,3-7.1,5.12-8.07,10-0.45,2.25-2.27,4-4.94,3-0.13,0-.24-0.11-0.36-0.17v2.35L36.2,316.4c1.49-1.28,3-2.51,4.65-3.69C48.09,307.44,46.94,302.63,38.81,298.46Z"/><path class="cls-19" d="M48.05,301.72c-1.14-3.84-3.79-6.5-8.53-5.28-3,.77-4.1-1.27-4.17-3.64-0.11-3.55-2.08-5.93-4.55-7.88-5.8-4.58-4-11.38-4.5-17.08-0.49-5.48,5.95-.66,8-3.39a9.27,9.27,0,0,0,.95-2.6c0-.15,0-0.3-0.07-0.44-4.06,1.57-9.5.65-11.06,6.62-2.49,9.52,8.25,27.15,14.66,30.44,8.13,4.17,9.28,9,2,14.25-1.62,1.18-3.16,2.41-4.65,3.69l2,1.16a41.2,41.2,0,0,1,6-4C48.22,311.35,49.4,306.25,48.05,301.72Z"/><path class="cls-20" d="M171.41,281h0c-1.17-1,.5-7.48-3-2.83-4,5.37-10.22,7.79-13.86,13.62-2.84,4.54-10.11,3.56-14.85,3.4-11.42-.38-23-1.57-34-5.15-8.2-2.67-9.37-9.41-7.76-16.74,0.74-3.37,2.28-6.86,1.25-10.07a2.05,2.05,0,0,0-.89-1.45c-0.11.69-.23,1.37-0.34,2.07-1.54,8.06-7.43,14.75-7.66,23.23l0.84-.15c10.92,7.74,24.09,7.47,36.42,10,4.84,1,9.9,1,14.65,2.62,0.78,0.21,1.55.45,2.32,0.68,4-3.62,8.22-6.71,14.42-5.29,2.76,0.63,3.72-1.44,4.64-3.51,1.18-2.66,2.5-5.21,6.07-3C172.14,286.37,171,283.47,171.41,281Z"/><path class="cls-20" d="M142.25,299.47c-4.75-1.65-9.81-1.64-14.65-2.62-12.34-2.48-25.5-2.21-36.42-10l-0.84.15c0,0.38,0,.76,0,1.14,4.37,3.31,8.11,7.07,14.34,7.73,12.78,1.36,25.45,3.82,38.17,5.82h0l1.73-1.59C143.8,299.92,143,299.68,142.25,299.47Z"/><path class="cls-20" d="M169.7,288.33c-3.57-2.2-4.9.36-6.07,3-0.92,2.07-1.87,4.14-4.64,3.51-6.2-1.42-10.41,1.67-14.42,5.29a21.34,21.34,0,0,0,2.15.53c2.39-1.41,4.31-3.66,5.52-3.31,9,2.62,13.12-2.57,17.12-8.75h0A4.3,4.3,0,0,0,169.7,288.33Z"/><path class="cls-20" d="M142.84,301.74a6.42,6.42,0,0,0,3.88-1.06,21.34,21.34,0,0,1-2.15-.53Z"/><path class="cls-20" d="M98.33,261.75c-0.86-.26-1.69,2.33-2.7,2.08h0c0,2.49-.29,4.84-2.24,6.75-4.92,4.83-5.8,10.41-3.46,16.54l0.41-.07c0.22-8.48,6.11-15.17,7.66-23.23C98.1,263.12,98.22,262.44,98.33,261.75Z"/><path class="cls-20" d="M89.93,287.12c0.14,0.36.24,0.71,0.4,1.07,0-.39,0-0.76,0-1.14Z"/><path class="cls-21" d="M70.13,271c-2.59-5.73-8.94-4.81-14.15-4.78-6.57,0-12.6-.49-15.34-7.8,0-.11-0.09-0.21-0.13-0.32-1.78-.07-3.52,0-4.91,1.4a2.58,2.58,0,0,1,0,1.79c0.94,0.13,2,.48,2.26,1.29,4,12.73,13.25,17.24,25.76,16.91,0.12,0.22.24,0.4,0.36,0.61C65.91,276.81,72.37,276,70.13,271Z"/><path class="cls-21" d="M63.58,279.5c-12.5.33-21.8-4.18-25.76-16.91-0.25-.81-1.32-1.16-2.26-1.29a2.87,2.87,0,0,1-.27.54c5.14,15.94,13.47,21.22,28.24,19.2h0a3.88,3.88,0,0,1,.42-0.93C63.82,279.9,63.7,279.72,63.58,279.5Z"/><path class="cls-21" d="M74.52,271.4c-0.69-4.21-4.58-6.14-8.2-6.9a42,42,0,0,0-13.1-.68c-5.15.58-8.23-1.39-10.38-5.69a20.69,20.69,0,0,1-2.34,0c0,0.11.08,0.21,0.13,0.32,2.74,7.31,8.77,7.84,15.34,7.8,5.21,0,11.56-1,14.15,4.78,2.24,5-4.22,5.79-6.19,9.09,0.13,0.23.26,0.44,0.39,0.66a25.46,25.46,0,0,0,3.6-1.31C71.32,277.76,75.28,276,74.52,271.4Z"/><path class="cls-21" d="M63.94,280.11a3.88,3.88,0,0,0-.42.93l0.81-.27C64.2,280.55,64.07,280.34,63.94,280.11Z"/><path class="cls-21" d="M35.56,261.3a2.58,2.58,0,0,0,0-1.79,5,5,0,0,0-.58.67h0c0.05,0.4.13,0.8,0.2,1.2l0.28-.11h0.07Z"/><path class="cls-21" d="M35.49,261.29l-0.28.11c0,0.15,0,.3.07,0.44a2.87,2.87,0,0,0,.27-0.54H35.49Z"/><path class="cls-17" d="M40.47,285.17a3.71,3.71,0,0,0-3.07,4c0.06,1.82,1.22,2.8,3.09,2,1.62-.7,3.62-1.17,3.45-3.79C43.17,286.19,42.31,284.78,40.47,285.17Z"/><path class="cls-22" d="M303.22,77.54c0-.41,0-0.78.05-1.17l-6.17-3.56A20.89,20.89,0,0,0,303.22,77.54Z"/><path class="cls-22" d="M259.66,56.68c3.82,5.52.14,7.65-4.11,6-4.86-1.83-9.26,2.36-13.74-.38-1.16-.71-2.5.26-3,1.47-0.68,1.51.79,3,1.61,2.77,10.24-2.35,14.75,6.25,21.35,10.8-0.62-6.93-1-13.83,7.12-17.15a17.29,17.29,0,0,1,4.48-1.16L260.54,51.7a8.14,8.14,0,0,0-.64.63C259.33,53.74,258.53,55,259.66,56.68Z"/><path class="cls-22" d="M300.87,79.53c1.61,0.87,1.68,4.75,4.67,3a3.83,3.83,0,0,0,1.76-3.85l-4-2.33c0,0.39-.06.76-0.05,1.17a20.89,20.89,0,0,1-6.12-4.73l-6.28-3.63C293.69,73,296.39,77.1,300.87,79.53Z"/><path class="cls-22" d="M261.73,77.39a17.65,17.65,0,0,0,2,1.23c0.58-6.18-2.69-14.4,6.42-16.56a29.15,29.15,0,0,1,6.8-.88l-3.64-2.1a17.29,17.29,0,0,0-4.48,1.16C260.78,63.56,261.11,70.46,261.73,77.39Z"/><path class="cls-23" d="M237.11,48.61A10.61,10.61,0,0,1,236,49.74l0.6,1.06c3-5.53,8-5.28,12.85-5.51l-10-5.75a24,24,0,0,0-.2,4C239.37,45.37,238.31,47.1,237.11,48.61Z"/><path class="cls-23" d="M235.65,47.71a2.38,2.38,0,0,1-.3.88h0L236,49.74a10.61,10.61,0,0,0,1.11-1.13c1.19-1.51,2.25-3.25,2.19-5.11a24,24,0,0,1,.2-4l-3.06-1.76A28.07,28.07,0,0,0,235.65,47.71Z"/><path class="cls-24" d="M313.71,114.37c2-4.29-2.2-5.62-5-6.3-4.41-1.1-2,3-3,4.53-2.49,3.71-2.35,7.61-2.25,11.58,0.15,5.64,2.53,14.16-7.3,5-7.28,6.52-12.89-4.07-17.65-2.56-8.86,2.83-15.21,2.15-22.11-3.83-2.25-1.95-6.4-1.52-8.13,3.2-1.89,5.18-4.75,10-7.19,15-2.14,1.75-3.19,4.23-2.09,6.58,0.85,1.82,3.42,1.21,5.1.75,22.58-6.26,33.68,7.35,31.1,28.56,2.85,3.17,5.55,6.5,8.6,9.47,3.4,3.32,7,4.11,10.43,1.31a6.64,6.64,0,0,1,.57-2.13c5.13-5.69,8,0,11.52,2.26a11.27,11.27,0,0,0,10-2.46,18.6,18.6,0,0,0,1.91-5.3,126.84,126.84,0,0,0,2.24-13,27.33,27.33,0,0,0-2-10.1c-1.63-3.21-3.51-6.33-3.95-10a11.94,11.94,0,0,1-.17-1.87,64,64,0,0,1,.3-8C312.58,129.7,310.07,122.37,313.71,114.37Z"/><path class="cls-24" d="M314.4,145a11.94,11.94,0,0,0,.17,1.87c0.44,3.68,2.32,6.79,3.95,10a27.33,27.33,0,0,1,2,10.1,51.1,51.1,0,0,0,.11-10.86h0l-3.94-9.49a48,48,0,0,0-2-9.56A64,64,0,0,0,314.4,145Z"/><path class="cls-24" d="M316.38,185.27a11.27,11.27,0,0,1-10,2.46c-3.54-2.3-6.4-7.95-11.52-2.26a6.64,6.64,0,0,0-.57,2.13,12.6,12.6,0,0,0,1.52-1.47h0c6-5.24,6,3.63,9.6,4.06a16.28,16.28,0,0,0,1.81.14A9.53,9.53,0,0,0,316.38,185.27Z"/><path class="cls-15" d="M315.58,115.36c-1.34,6.33-.87,12.6-0.15,18.86,1.45-3.13,4.86-2.55,12.84-.29,2.57-2.31.06-4.59-.17-6.84-0.41-4,.08-7.94,4-9.75,7.78-3.65,4.45-7.13.46-11.12-4.68-4.67-10.06-8.44-15.29-12.78-1.33,2.29,1,3,1.62,4.23,3.07,5.76,1.18,9.72-5.51,10l-1.26,0C314.83,109.1,316.43,111.36,315.58,115.36Z"/><path class="cls-15" d="M233.6,97.43h0c5.48,2.15,4.17,5.61,1.8,9.28,1,3.6,4.31,6.77,2,11h0c5.23-.13,6.16,3.5,5.25,7.22-1.26,5.15-5.75,2.8-9.1,2.9-1.27,5.25,4.56,6.42,6.78,9.66,1.81-3.49,2.79-7.38,4.82-10.78,4.08-6.86,8.21-8.74,14.47-4.55,5.45,3.64,10.38,5,16.48,2.33,2.31-1,5.51-.87,7.11,1.06,4.69,5.67,10.65-.17,15.82,2.19,2.3,1,2-2.45,2-4.09a34.36,34.36,0,0,1,1.9-11.05c0.58-1.72.83-3.81,1.84-5.09a16.91,16.91,0,0,1-4.26-1.22c0.29,12.73-4.52,18-15.09,16.16-8.69-1.51-7.12-10.31-10.43-15.62-1-1.68-.35-4.46-0.29-6.83a3.12,3.12,0,0,1-2.4-1.6c-2.79,4-3.93,9.36-10.77,9.89-5.71.45-7.71-3.07-6.64-6.31,2-6.05,5.19-8-5-10.69-6.93-1.86-10.54,1.82-15.69,1.57a1.82,1.82,0,0,0-.68.09,11.52,11.52,0,0,0-.79,1.36,8.67,8.67,0,0,0,.82,3.13h0Zm35.05,15.14c4,0.21,6.61,1.21,6.43,5.83-0.15,3.74-1.73,5.53-5.7,5.66-4.52.15-6.38-1.65-5.73-5.82C263,114,264.41,112.34,268.65,112.56Z"/><path class="cls-15" d="M274.76,100c0-.15,0-0.31,0-0.46h0l-1.76-2c-0.23.28-.45,0.58-0.66,0.88A3.12,3.12,0,0,0,274.76,100Z"/><path class="cls-15" d="M304.81,107.48c0.81-1,2.11-1.52,4.49-.85a15.56,15.56,0,0,1,2.79,1.07l1.26,0c6.69-.26,8.58-4.22,5.51-10-0.66-1.23-3-1.94-1.62-4.23,5.23,4.34,10.61,8.11,15.29,12.78,4,4,7.32,7.47-.46,11.12-3.88,1.82-4.37,5.72-4,9.75,0.23,2.25,2.73,4.53.17,6.84-8-2.26-11.39-2.84-12.84.29,0.47,4.13,1,8.26,1.27,12.39,0-1.56-.1-3.14.07-4.69,0.5-4.53-2.36-13.69,7.61-5.37,1.9,1.59,5.61,1.6,7.94-.4,2.17-1.86.39-3.89-.63-5.82-3.19-6-2.95-10.65,4.88-12.73,3.7-1,6.48-3.44,3-7.5-6.52-7.62-14.5-13.66-22.33-19.82-1.33-1-3.4-2.16-5-.12s0.1,3.29,1.07,4.9c1.74,2.91,7.55,4.15,5.1,8.56-2.2,4-6.77,1.5-10.37,1.43-2.5-.05-5,0.14-7.49.22,0,0.34,0,.65,0,1A16.91,16.91,0,0,0,304.81,107.48Z"/><path class="cls-15" d="M301.08,123.62c0,1.65.25,5.14-2,4.09-5.17-2.36-11.13,3.48-15.82-2.19-1.59-1.93-4.8-2.07-7.11-1.06-6.1,2.67-11,1.32-16.48-2.33-6.26-4.19-10.39-2.31-14.47,4.55-2,3.41-3,7.29-4.82,10.78a4.59,4.59,0,0,1,.78,3.46c2.44-5,5.3-9.8,7.19-15,1.72-4.72,5.88-5.15,8.13-3.2,6.9,6,13.25,6.66,22.11,3.83,4.75-1.52,10.37,9.08,17.65,2.56,9.83,9.19,7.45.68,7.3-5-0.1-4-.24-7.86,2.25-11.58,1-1.5-1.38-5.63,3-4.53,2.76,0.69,6.91,2,5,6.3-3.64,8-1.13,15.33,1,22.69a9.91,9.91,0,0,1,.73-2.83c-0.71-6.26-1.18-12.53.15-18.86,0.85-4-.75-6.26-3.5-7.66a38.81,38.81,0,0,1-7.27-.22c-1,1.28-1.26,3.38-1.84,5.09A34.36,34.36,0,0,0,301.08,123.62Z"/><path class="cls-15" d="M314.7,137.06a48,48,0,0,1,2,9.56c-0.23-4.14-.8-8.26-1.27-12.39A9.91,9.91,0,0,0,314.7,137.06Z"/><path class="cls-15" d="M312.09,107.7a15.56,15.56,0,0,0-2.79-1.07c-2.37-.68-3.68-0.18-4.49.85A38.81,38.81,0,0,0,312.09,107.7Z"/><path class="cls-25" d="M234.82,50.64a10.9,10.9,0,0,1-2.44,1.2l-0.6.05-0.26,2.05h0l0,0c1.36,5.06-2,7.4-5.95,9.38-0.31,0-.56.08-0.84,0.12,1.66,4.2-.68,6.07-4.5,7.07,0.09,0.31.15,0.61,0.27,0.94,2.66,8.5,2.73,18,10,24.64,0.08,0.49.18,1,.28,1.46l1.26-.08-0.16-.23a9.29,9.29,0,0,1,.91-3,1.28,1.28,0,0,1,.79-1.36c2.52-3.76,7.37-6.49,11.78-5.67a49.63,49.63,0,0,1,11.48,3.82c4.77,2.2,1.76,6.5,1.39,10-0.18,1.66.17,3.17,2,3.75s3.64-.13,5.34-1c2.72-1.44,3-5.75,6.49-6.26-0.24-4.44-2.5-7.77-5.69-10.81a15.87,15.87,0,0,1-4.24-7.6,4.66,4.66,0,0,1-4.34-1.77c-4.08-5.27-9.06-8.21-15.85-8.44-2.55-.09-5-1.85-4.64-4.85s3-3.68,5.71-3.73c2.19,0,4.46-.57,6.54-0.21,6.65,1.16,8.36-2.45,8.56-7.77-3.9,0-6.84-.79-5.57-5.3l-0.61-.35c-4.67,1.78-10.06,1.17-14.29,5.13C236.26,53.16,234.87,52.31,234.82,50.64Z"/><path class="cls-25" d="M262.12,79.15a15.87,15.87,0,0,0,4.24,7.6c3.18,3,5.44,6.36,5.69,10.81a4.94,4.94,0,0,1,1-.05c1.46-4,1.79-7.37-2.85-9.93-3.3-1.82-4.78-5.59-6.41-8.94h0A5,5,0,0,1,262.12,79.15Z"/><path class="cls-25" d="M232.38,51.84a10.9,10.9,0,0,0,2.44-1.2,4.13,4.13,0,0,1,.53-2.05h0l-3.4,2-0.16,1.27Z"/><path class="cls-25" d="M223.88,61.78a13.54,13.54,0,0,1,.82,1.71c0.28,0,.53-0.1.84-0.12,4-2,7.31-4.32,5.95-9.38C229.47,57.09,228.34,61.07,223.88,61.78Z"/><path class="cls-25" d="M229.85,97.66h0l0.91-.06c-0.09-.49-0.2-1-0.28-1.46-7.3-6.61-7.37-16.14-10-24.64-0.12-.33-0.18-0.63-0.27-0.94-0.52.14-1.06,0.26-1.63,0.37C221.13,80.35,218.78,91.84,229.85,97.66Z"/><path class="cls-25" d="M261.73,77.39c-6.6-4.55-11.11-13.15-21.35-10.8-0.82.19-2.29-1.26-1.61-2.77,0.54-1.21,1.88-2.18,3-1.47,4.48,2.74,8.87-1.45,13.74.38,4.25,1.6,7.93-.53,4.11-6-1.13-1.63-.32-2.93.25-4.35-0.61,0-1.21.05-1.78,0.05-0.2,5.32-1.91,8.92-8.56,7.77-2.08-.36-4.35.16-6.54,0.21-2.68.06-5.33,0.76-5.71,3.73s2.09,4.76,4.64,4.85c6.78,0.23,11.76,3.17,15.85,8.44a4.66,4.66,0,0,0,4.34,1.77c-0.12-.46-0.26-0.91-0.36-1.37Z"/><path class="cls-25" d="M261.76,77.77c0.09,0.47.24,0.92,0.36,1.37a5,5,0,0,0,1.63-.53h0a17.65,17.65,0,0,1-2-1.23Z"/><path class="cls-25" d="M236.61,50.81L236,49.74a10.3,10.3,0,0,1-1.18.9c0.05,1.66,1.44,2.51,2.83,1.21,4.23-4,9.62-3.35,14.29-5.13l-2.48-1.43C244.61,45.53,239.58,45.28,236.61,50.81Z"/><path class="cls-25" d="M234.82,50.64a10.3,10.3,0,0,0,1.18-.9l-0.66-1.16h0A4.13,4.13,0,0,0,234.82,50.64Z"/><path class="cls-25" d="M249.95,91.28c10.19,2.73,7,4.63,5,10.69-1.07,3.23.93,6.75,6.64,6.31,6.84-.54,8-5.89,10.77-9.89a4.85,4.85,0,0,1-.28-0.46c0-.13,0-0.24,0-0.37-3.49.51-3.77,4.81-6.49,6.26-1.7.9-3.4,1.65-5.34,1s-2.17-2.08-2-3.75c0.37-3.5,3.39-7.8-1.39-10a49.63,49.63,0,0,0-11.48-3.82c-4.42-.82-9.26,1.91-11.78,5.67a1.82,1.82,0,0,1,.68-0.09C239.41,93.09,243,89.42,249.95,91.28Z"/><path class="cls-25" d="M233.6,97.43a8.67,8.67,0,0,1-.82-3.13,9.29,9.29,0,0,0-.91,3L232,97.53l1.57-.1h0Z"/><path class="cls-25" d="M272.08,97.92a4.85,4.85,0,0,0,.28.46c0.21-.3.43-0.59,0.66-0.88a4.94,4.94,0,0,0-1,.05C272.06,97.67,272.08,97.79,272.08,97.92Z"/><path class="cls-8" d="M319.68,196.12c-0.12-.31-0.39-0.34,0,0h0Z"/><path class="cls-8" d="M283.13,188.48a29.65,29.65,0,0,1-8.7-10.56c-2.45,3.83-2.82,9-6.25,12.2,5,1,9.35,6.3,15.15,3.21a0.68,0.68,0,0,1,.34-0.07h0a2.22,2.22,0,0,1,1.75,1.62c1.31,11.23,11.29,14.87,18.27,21.14,0.06-3.9,3-6.68,5.7-9.57,3.19-3.45,6.91-6.33,9.67-9a1.93,1.93,0,0,0,.59-0.8,2.76,2.76,0,0,1-.32.33c-2.1,1.87-4.22,3.71-6.49,5.38-10.06,7.4-12.64,6.45-15.57-5.43-0.69-2.81-2.79-5.31-3-8.21C291.26,192.62,287.31,191.52,283.13,188.48Z"/><path class="cls-8" d="M297.28,196.95c2.93,11.88,5.51,12.83,15.57,5.43,2.27-1.67,4.39-3.52,6.49-5.38a2.76,2.76,0,0,0,.32-0.33,0.76,0.76,0,0,0,0-.55c-0.39-.34-0.12-0.31,0,0l0.09,0.08c0.11,0.09.07,0.25-.1,0.47a1.93,1.93,0,0,1-.59.8c-2.76,2.66-6.49,5.54-9.67,9-2.67,2.89-5.64,5.67-5.7,9.57l0.09,0.07a24.21,24.21,0,0,1,1.56,2.33c-0.76-5.66,3.91-8.06,6.81-11.59,4.28-5.22,11.63-8,13.93-18-7.26,5.83-12.65,10.29-18.21,14.55-3,2.31-9.29,1-8.39-.36,4.87-7.58-5.52-10.84-3.71-16.92h0a12.9,12.9,0,0,1-1.53,2.61C294.49,191.64,296.59,194.13,297.28,196.95Z"/><path class="cls-8" d="M319.76,196.2l-0.09-.08a0.76,0.76,0,0,1,0,.55C319.84,196.44,319.88,196.28,319.76,196.2Z"/><path class="cls-8" d="M273.14,194.69c3.25,3.61,6.59,7.45,10.53-1.44a0.68,0.68,0,0,0-.34.07c-5.8,3.09-10.12-2.19-15.15-3.21a9.42,9.42,0,0,1-2.59,1.73C268.5,191.75,271.08,192.41,273.14,194.69Z"/><path class="cls-8" d="M285.43,194.88a2.22,2.22,0,0,0-1.75-1.62c-0.49,11.59,6.36,16.6,13.63,20.74,2.12,1.21,4.32,2.42,6.52,3.61a8.2,8.2,0,0,1-.13-1.59C296.72,209.75,286.73,206.11,285.43,194.88Z"/><path class="cls-8" d="M303.7,216a8.2,8.2,0,0,0,.13,1.59l1.51,0.82h0a24.21,24.21,0,0,0-1.56-2.33Z"/><path class="cls-8" d="M283.81,186.29c-3-3-5.75-6.3-8.6-9.47a11.13,11.13,0,0,0-.78,1.09,29.65,29.65,0,0,0,8.7,10.56c4.18,3,8.13,4.14,11.11.26a6.4,6.4,0,0,1,0-1.14C290.79,190.4,287.22,189.61,283.81,186.29Z"/><path class="cls-8" d="M294.25,187.6a6.4,6.4,0,0,0,0,1.14,12.9,12.9,0,0,0,1.53-2.61A12.6,12.6,0,0,1,294.25,187.6Z"/><path class="cls-26" d="M289.38,119.54c5.29-.41,7.36-4,8.78-8.36,0.56-1.74.43-3.77,1.68-5.24l-0.3-.13c-7.9-11.1-10.58-11.75-24.29-5.83,3.32,3.34,2.47,8.36,4.61,12.27S283.9,120,289.38,119.54Z"/><path class="cls-26" d="M299.55,105.81l0.3,0.13a4,4,0,0,1,.69-0.65c-4-13.06-15.42-15.62-25.77-5.77h0c0.17,0.15.33,0.31,0.48,0.46C289,94.05,291.65,94.71,299.55,105.81Z"/><path class="cls-26" d="M275,106.8c3.31,5.3,1.74,14.11,10.43,15.62,10.56,1.83,15.38-3.43,15.09-16.16-0.24-.1-0.48-0.2-0.71-0.32-1.25,1.47-1.12,3.5-1.68,5.24-1.42,4.4-3.49,7.95-8.78,8.36-5.49.43-7.32-3.27-9.52-7.29s-1.28-8.92-4.61-12.27l-0.12.05a3.47,3.47,0,0,1-.37-0.06C274.7,102.35,274,105.12,275,106.8Z"/><path class="cls-26" d="M300.56,106.26c0-.33,0-0.64,0-1a4,4,0,0,0-.69.65C300.08,106.06,300.32,106.16,300.56,106.26Z"/><path class="cls-26" d="M275.13,100l0.12-.05c-0.16-.16-0.31-0.31-0.48-0.46,0,0.15,0,.3,0,0.46A3.47,3.47,0,0,0,275.13,100Z"/><path class="cls-27" d="M275.85,65.33c-5.75,0-8.73,2.44-8.52,8.48,0.27,7.85,7.19,14.35,16.1,14.31,5.07,0.69,6.49-2.88,6.66-7.44C290.39,72.27,283.83,65.34,275.85,65.33Z"/><path class="cls-8" d="M320.27,179.22c-1.93,8.4-5.71,11.44-13.09,11.09a16.28,16.28,0,0,1-1.81-.14c5.21,3.68,9,1.62,12.59-2.77,8.07-9.88,5.22-20.57,2.68-31.29A58.39,58.39,0,0,1,320.27,179.22Z"/><path class="cls-8" d="M316.38,185.27a12.63,12.63,0,0,0,4.29-10.18c-0.09-2.67,0-5.39-.14-8.11a126.84,126.84,0,0,1-2.24,13A18.6,18.6,0,0,1,316.38,185.27Z"/><path class="cls-8" d="M320.53,167c0.11,2.72.05,5.45,0.14,8.11a12.63,12.63,0,0,1-4.29,10.18,9.53,9.53,0,0,1-9.2,5.05c7.37,0.34,11.15-2.7,13.09-11.09a58.39,58.39,0,0,0,.37-23.1h0A51.1,51.1,0,0,1,320.53,167Z"/><path class="cls-28" d="M205.06,165.83c-0.44,1.54-.92,3.06-1.46,4.56-2.13,5.83-5.71,9.49-12.56,7.77a5.69,5.69,0,0,1-.59-0.34c0,4.11-2,5.88-4.76,6.56a5.39,5.39,0,0,1,1.43.79c5-2.51,8.59-8.13,15.66-6.55,3.47,0.78,2.43-3.58,3.66-5.46,2.57-3.92,5.6-7.88,9.63-1.77,2.26,3.43,3,1.39,4.56-.19,3.06-3.2,7-5.41,10.63-2,3.41,3.15,0,6.39-2.1,8.89-4.36,5.29-2.12,9.78,1.11,14.32a2.3,2.3,0,0,0-.18,1.26c7.2-.21,13.34,4.41,20.49,4.58a2.72,2.72,0,0,1,2.86,3c-0.4,2.63-2.75,2.18-4.43,1.87-5.76-1.07-11.48-2.39-17.21-3.61a3.47,3.47,0,0,1-.49.75c-6.06,2.78-10.12-3.79-15.76-3.51,7,15.69,20.75,23.78,35.13,20.83,9-1.84,12.32-5.82,13.07-15.64a7.67,7.67,0,0,1,.38-1.86c-0.3-.4-0.59-0.8-0.92-1.17-2.5-3.47-4-6.77,1.63-8.7a7,7,0,0,1,1.65-.2c1.94-4.6,2.74-9.93,7.66-12.62-0.18-.36-0.37-0.72-0.55-1.09a28.21,28.21,0,0,1-1-7.44c-1-14.65-9.14-21.17-23.85-19.19-0.93.12-1.82,0.52-2.75,0.62-8.78,1-10.25-1.05-7.31-10.06,0.23-.31.43-0.64,0.64-1-3.64-3-8.57-5.24-5.81-11.55-2-4.47-2.08-8.2,3.39-9.83a75,75,0,0,1-2.73-10.5c0-.2,0-0.39.07-0.59l-1.71,0c0,0.33.11,0.66,0.14,1-3.9,14.61-9.18,28.85-11.48,43.88a3,3,0,0,1-1,1c-0.44,5-1.44,9.7-7.34,11.23h0c-0.25.17-.49,0.31-0.73,0.45l0.4,1.36C208.9,167.21,206.16,167.55,205.06,165.83Zm29.75,49.48c-2.28-1.28-1.75-4.42.69-6.33,5.69-2.42,10.36-2.68,11.18,5.26C243,218.12,238.55,217.42,234.8,215.31ZM235.89,158c0.18-1.46-.61-4,1.24-3.69,7.42,1.14,13.22-5,20.55-4,9.23,1.28,12.8,7,12,19.77-1.12,19.21-13.22,26.55-31.11,19.07-2.2-.92-4.89-0.6-7.32-1-4.09-.74-4.85-4.53-2.17-5.9C240.54,176.42,234.87,166.38,235.89,158Z"/><path class="cls-28" d="M266.48,190a7,7,0,0,0-1.65.2c-5.67,1.93-4.13,5.23-1.63,8.7,0.34,0.37.62,0.78,0.92,1.17a5.56,5.56,0,0,1,1.44-2.33h0c-2.75-2-6-3.94,0-5.87h0A20.59,20.59,0,0,0,266.48,190Z"/><path class="cls-28" d="M230.26,192.38c-3.22-4.54-5.46-9-1.11-14.32,2.06-2.5,5.51-5.75,2.1-8.89-3.66-3.38-7.57-1.17-10.63,2-1.51,1.58-2.3,3.62-4.56.19-4-6.11-7.07-2.16-9.63,1.77-1.23,1.88-.19,6.24-3.66,5.46-7.07-1.59-10.64,4-15.66,6.55a3.1,3.1,0,0,1,1,3h0c4.73-1.33,5.53-9.24,12.06-7.4,5.36,1.51,10.47,3.55,7.64-5.84-0.62-2.06,1.84-3.85,4-4.68a1.85,1.85,0,0,1,2.63,1.76c1,10.66,3.35,9.75,7.34,1,1.35-3,5-5.19,7.86-3,3.7,2.83-.88,4.61-2.31,6.47-5.31,6.95-4.77,11.28,2.52,17.22h0.25A2.3,2.3,0,0,1,230.26,192.38Z"/><path class="cls-28" d="M263.74,201.9c-0.75,9.82-4.07,13.8-13.07,15.64-14.39,2.95-28.11-5.14-35.13-20.83,5.63-.28,9.69,6.29,15.76,3.51a3.47,3.47,0,0,0,.49-0.75h0c-5.69.42-9.53-4.22-14.67-5.37-1.75-.39-3.45-2-5.05,0s-0.14,3.53.66,5.17c6.22,12.82,22.12,21.83,36.3,21.09,6.7-.35,11.62-4.46,16.75-7.6,4.13-2.53-.5-6.94-0.21-10.73-0.45-.69-0.93-1.36-1.43-2A7.67,7.67,0,0,0,263.74,201.9Z"/><path class="cls-28" d="M264.12,200c0.5,0.65,1,1.32,1.43,2a4.07,4.07,0,0,1,.08-0.59,15.24,15.24,0,0,0-.07-3.74h0A5.56,5.56,0,0,0,264.12,200Z"/><path class="cls-28" d="M191,178.15c6.84,1.72,10.43-1.94,12.56-7.77,0.55-1.5,1-3,1.46-4.56-0.7-1.09-.74-3,0.08-6-2.39,2.21-3,5.38-3.4,8.21-0.91,7-4.88,9.28-11.3,8.78,0,0.35,0,.66,0,1A5.69,5.69,0,0,0,191,178.15Z"/><path class="cls-28" d="M187.12,185.16a5.39,5.39,0,0,0-1.43-.79,19.28,19.28,0,0,1-5.08.36h0a3,3,0,0,0,1.31,1.09,18.64,18.64,0,0,0,4.33-.27C186.54,185.44,186.83,185.31,187.12,185.16Z"/><path class="cls-28" d="M186.24,185.56a18.64,18.64,0,0,1-4.33.27c2,0.9,4.89-.11,6.23,2.29a3.1,3.1,0,0,0-1-3C186.83,185.31,186.54,185.44,186.24,185.56Z"/><path class="cls-28" d="M221.17,151.66c2.3-15,7.58-29.27,11.48-43.88,0-.34-0.09-0.66-0.14-1l-0.65,0c-3.56,7.56-7.13,15.22-8.13,23.55-0.89,7.42-7.12,14-3.49,22.06l0,0.29A3,3,0,0,0,221.17,151.66Z"/><path class="cls-28" d="M212.54,165.75l-0.4-1.36c-3.38,2-5.48,1.6-6.42-1q-0.32,1.22-.67,2.43C206.16,167.55,208.9,167.21,212.54,165.75Z"/><path class="cls-28" d="M205.14,159.85c-0.82,3-.78,4.89-0.08,6q0.35-1.21.67-2.43a11.92,11.92,0,0,1-.58-3.56h0Z"/><path class="cls-28" d="M239.31,139.22c-0.21.32-.41,0.65-0.64,1-2.94,9-1.47,11,7.31,10.06,0.94-.1,1.82-0.5,2.75-0.62,14.7-2,22.81,4.54,23.85,19.19a28.21,28.21,0,0,0,1,7.44c0.17,0.37.36,0.73,0.55,1.09a11.36,11.36,0,0,1,1.07-.52c2.58-21.21-8.53-34.82-31.1-28.56-1.68.46-4.25,1.08-5.1-.75-1.1-2.36,0-4.83,2.09-6.58A13.46,13.46,0,0,0,239.31,139.22Z"/><path class="cls-28" d="M234.15,107.33a75,75,0,0,0,2.73,10.5l0.52-.15h0c2.31-4.2-1-7.37-2-11l-1.18,0C234.19,106.94,234.18,107.13,234.15,107.33Z"/><path class="cls-28" d="M239.31,139.22q0.56-.86,1-1.76c-2.22-3.24-8-4.41-6.78-9.66l-0.06-.14C230.74,134,235.67,136.27,239.31,139.22Z"/><path class="cls-28" d="M241.11,140.93a4.59,4.59,0,0,0-.78-3.46q-0.47.9-1,1.76A13.46,13.46,0,0,1,241.11,140.93Z"/><path class="cls-28" d="M266.48,190a7.88,7.88,0,0,1,1.7.15c3.43-3.2,3.8-8.37,6.25-12.2l-0.29-.57C269.23,180,268.42,185.36,266.48,190Z"/><path class="cls-28" d="M265.59,191.85h0a9.42,9.42,0,0,0,2.59-1.73,7.88,7.88,0,0,0-1.7-.15A20.59,20.59,0,0,1,265.59,191.85Z"/><path class="cls-28" d="M274.43,177.92a11.13,11.13,0,0,1,.78-1.09,11.36,11.36,0,0,0-1.07.52Z"/><path class="cls-29" d="M263.54,315.15a50.05,50.05,0,0,1-18.62,24.28h0a6.26,6.26,0,0,1-.21.66c1.1,5-2.48,6.58-5.84,8.32a39.45,39.45,0,0,1,8.76,1.57l45.28-26.14c-2.38-1.19-4.79-2.34-7.31-3.35C278.39,317.56,270.19,319.55,263.54,315.15Z"/><path class="cls-29" d="M235.47,350.61a47.17,47.17,0,0,1,9,1.22l3.2-1.85a39.45,39.45,0,0,0-8.76-1.57A15.2,15.2,0,0,0,235.47,350.61Z"/><path class="cls-29" d="M263.71,314.72c-0.05.14-.12,0.28-0.17,0.42,6.65,4.41,14.85,2.41,22.06,5.34,2.52,1,4.93,2.16,7.31,3.35l2.77-1.6C286,317.14,275.6,313.39,263.71,314.72Z"/><path class="cls-29" d="M236.43,348.37c0.82,0,1.64,0,2.45,0,3.36-1.74,6.94-3.33,5.84-8.32C243.33,344,238.6,345.11,236.43,348.37Z"/><path class="cls-29" d="M235.47,350.61a15.2,15.2,0,0,1,3.4-2.19c-0.81,0-1.62-.07-2.45,0A6.3,6.3,0,0,0,235.47,350.61Z"/><path class="cls-9" d="M320,300.74c-5.43-5.84-12.07-11-13-19.81-1.59,1.34-3.22.63-4.84,0-0.28-.15-0.58-0.28-0.86-0.41a2.25,2.25,0,0,1-1.06.21c-9.55-.73-17.2.9-20.85,11.67-1.4,4.11-5.72,2.81-9,.57-1.69,2.55-5.61,2.26-7.88,4.07,11.49,3.25,22.52,7.93,34.79,8.83,7.19,0.53,14.29-1.08,21.42.34,3.14,0.62,4.42-2.18,6.09-4.16A4.93,4.93,0,0,1,320,300.74Z"/><path class="cls-9" d="M324.86,302c-1.67,2-3,4.78-6.09,4.16-7.13-1.42-14.23.19-21.42-.34-12.26-.9-23.3-5.59-34.79-8.83a4.22,4.22,0,0,0-.71.69c9.58,6,20,8.53,31.26,9.91,7.74,0.95,15.94-1.21,22.64.94,0.92,0.3,1.74.51,2.5,0.68l7.43-4.29a33.73,33.73,0,0,0,.46-3.39A5.56,5.56,0,0,1,324.86,302Z"/><path class="cls-9" d="M307,280.93c0.93,8.79,7.57,14,13,19.81a4.93,4.93,0,0,0,4.82,1.28c0.13-.15.26-0.31,0.39-0.45l0.4-.23c-9.46-3.83-12.28-13.71-18.43-20.55h0C307.16,280.84,307.1,280.88,307,280.93Z"/><path class="cls-9" d="M324.86,302a5.56,5.56,0,0,0,1.27-.48h0l-0.47-.2-0.4.23C325.11,301.7,325,301.86,324.86,302Z"/><path class="cls-9" d="M303.42,278.87a7.64,7.64,0,0,1-2.1,1.6c0.29,0.13.58,0.26,0.86,0.41,1.63,0.68,3.25,1.39,4.84,0,0-.06,0-0.11,0-0.16A3.93,3.93,0,0,1,303.42,278.87Z"/><path class="cls-9" d="M307,280.77c0,0.06,0,.11,0,0.16s0.13-.09.19-0.15H307Z"/><path class="cls-9" d="M279.08,289.24c-0.75,5.56-4.68,4.58-7.85,1a5.23,5.23,0,0,1-.79,2.66c3.25,2.24,7.57,3.54,9-.57,3.65-10.77,11.3-12.4,20.85-11.67a2.25,2.25,0,0,0,1.06-.21c-2.59-1.19-5.42-1.61-8.17-2.29C285.87,277.3,280.45,279.1,279.08,289.24Z"/><path class="cls-9" d="M303.42,278.87c-2.18,0-4.44.35-6.54-.08q-1.93-.4-3.72-0.62c2.75,0.68,5.57,1.1,8.17,2.29a7.64,7.64,0,0,0,2.1-1.6h0Z"/><path class="cls-30" d="M263,314.82c-2.39-4-1.31-9-3.72-13-1.39,1.53-1,3.63-1.4,5.47h0c-0.54,20.3-20.11,33.59-40.53,35.8a61.2,61.2,0,0,0-11,2.09c-14.34,4.32-25.74-3.79-25.55-18.92,0.1-8-.33-15.64-3.82-22.91-3.57-4.43-2-9.12-.87-13.89,0.81-3.33,2.42-7.22-2.58-8.68,0,0.14,0,.26.05,0.4-0.35,3,.18,6.43-3.79,7.33-0.3,16.35,5.47,31.63,8.81,47.28,2.81,13.17,12.32,17.41,27.11,13.13,11.06-3.2,22.74-4.44,33.11-10a6.32,6.32,0,0,1,5.46-.37c0.13,0.36.21,0.69,0.3,1l0.35-.15h0c6-8.27,11.68-16.74,18.49-24.37Z"/><path class="cls-30" d="M263,314.82l0.39,0.25,0.3-.34c-1.23-4.48,3.32-10.64-3.89-13.38a3.79,3.79,0,0,0-.51.49C261.72,305.82,260.63,310.83,263,314.82Z"/><path class="cls-30" d="M244.57,339.59c-0.09-.33-0.17-0.66-0.3-1a6.32,6.32,0,0,0-5.46.37c-10.36,5.56-22,6.8-33.11,10-14.8,4.28-24.3,0-27.11-13.13-3.34-15.65-9.12-30.93-8.81-47.28l-0.43.09h0c-2.65,4.14-4.32,10.6-2.47,13.21,6.84,9.66,5.3,20.95,8,31.3s6.28,16.06,12.12,18.41a48.5,48.5,0,0,0,11.35,1.12,76,76,0,0,0,9.25-1.55C220.16,348.3,232.73,345,244.57,339.59Z"/><path class="cls-30" d="M198.32,352.66A48.5,48.5,0,0,1,187,351.53C190.06,352.77,193.77,353.09,198.32,352.66Z"/><path class="cls-30" d="M171.41,281h0c-0.39,2.5.73,5.41-1.71,7.36l0.09,0s0,0.1,0,.15c4-.9,3.44-4.37,3.79-7.33,0-.14,0-0.26-0.05-0.4l-0.47-.14Q172.23,280.78,171.41,281Z"/><path class="cls-30" d="M169.79,288.52s0-.1,0-0.15l-0.09,0a4.3,4.3,0,0,1-.34.29h0Z"/><path class="cls-30" d="M244.92,339.43a50.05,50.05,0,0,0,18.62-24.28l-0.13-.08C256.6,322.69,250.89,331.16,244.92,339.43Z"/><path class="cls-30" d="M263.54,315.15c0.05-.14.12-0.28,0.17-0.42l-0.3.34Z"/><path class="cls-31" d="M249,278.8a15.22,15.22,0,0,0-.46,3.78c2.54,8,6.61,15.63,5.63,24.44h0l1.47,0.11c0-.11,0-0.21,0-0.32,0.57-2.21.72-4.75,3.43-5.33l-0.06-.1c-0.33-2.15.33-3.79,2.42-4.69l0.54,0.16c0.87-3.38,4-3.93,6.64-5a19.41,19.41,0,0,0-7.29-2.78C254.9,288.25,251.69,283.85,249,278.8Z"/><path class="cls-31" d="M262,296.84l-0.54-.16c-2.1.89-2.75,2.54-2.42,4.69l0.06,0.1a4.77,4.77,0,0,1,.71-0.13l2-3.66h0A7,7,0,0,1,262,296.84Z"/><path class="cls-31" d="M271.23,290.27h0c-6.69-4.8-18-2.38-20.78-13.32A3.68,3.68,0,0,0,249,278.8c2.7,5.05,5.91,9.45,12.37,10.22a19.41,19.41,0,0,1,7.29,2.78,8.15,8.15,0,0,0,2.58-1.54h0Z"/><path class="cls-31" d="M270.44,292.93l-0.55-.39-1.24-.72c-2.67,1.1-5.77,1.65-6.64,5l0.54,0.16C264.83,295.19,268.75,295.47,270.44,292.93Z"/><path class="cls-31" d="M261.85,297.68h0a4.22,4.22,0,0,1,.71-0.69l-0.54-.16A7,7,0,0,0,261.85,297.68Z"/><path class="cls-31" d="M271.23,290.27a8.15,8.15,0,0,1-2.58,1.54l1.24,0.72,0.55,0.39a5.23,5.23,0,0,0,.79-2.66h0Z"/><path class="cls-31" d="M255.68,306.81c0,0.11,0,.21,0,0.32l2.27,0.17c0.4-1.85,0-3.95,1.4-5.47-0.07-.12-0.12-0.24-0.2-0.36C256.41,302.06,256.25,304.59,255.68,306.81Z"/><path class="cls-31" d="M259.31,301.83a3.79,3.79,0,0,1,.51-0.49,4.77,4.77,0,0,0-.71.13C259.19,301.59,259.24,301.71,259.31,301.83Z"/><path class="cls-9" d="M271.66,258.32c8.54,9.07,10.37,10.2,16.45,6.7-6.25-1.24-6.63-2.43-3.39-7.65C280.45,256.21,276.41,259.43,271.66,258.32Z"/><path class="cls-9" d="M284.72,257.37c-3.24,5.22-2.85,6.4,3.39,7.65,0.65-.38,1.34-0.79,2.11-1.27-2.39-.16-5.29.38-6.37-2.42-0.61-1.58,1.17-2.58,2.58-3.25h0A7.28,7.28,0,0,0,284.72,257.37Z"/><path class="cls-9" d="M288.11,265c-6.09,3.5-7.92,2.37-16.45-6.7,4.75,1.11,8.8-2.1,13.06-.95l0.43-.69a10.22,10.22,0,0,0,2.1-1.1c0.55-1.47.82-2.75-1.35-2.11a77.89,77.89,0,0,1-17.36,3c-2.62.17-2.8,3.08-.86,3.88,4.21,1.75,6.56,6.07,10,7.66,3.84,1.75,10.5,5.11,12.24-2.73l-0.13,0Z"/><path class="cls-9" d="M289.82,265.34l0.13,0c0.11-.48.2-1,0.27-1.56-0.77.48-1.46,0.89-2.11,1.27Z"/><path class="cls-9" d="M285.15,256.68l-0.43.69a7.28,7.28,0,0,1,1.72.71h0a12.1,12.1,0,0,1,.81-2.49A10.22,10.22,0,0,1,285.15,256.68Z"/><path class="cls-32" d="M150.16,220.54c-4.47-.71-8-4.05-12.51-4.8a2.5,2.5,0,0,1-.11,1.21c4.09,5.24,10.71,4.89,16.2,7,8.35,3.17,13.51,8.74,14.75,17.89-7.67-10.76-17.33-16.92-30.93-16.29-3.08.14-5.19-2-6.71-4.57l-0.74.19c-20.49,5.46-28.2,20.54-31.51,38.93,1.5,0,2.07,1.55,2.48,2.88,1.18,3.77.06,7.47-.5,11.18-1.12,7.38,1.73,11.95,9.06,14.12,10.05,3,20.39,3.53,30.71,4.23,11.21,0.76,17.3-7.66,24.31-14.19,4.27-4,7.16-4.59,8.42.16,0.53-4.12,3.78-6.46,7-8.85-0.28-9.6.35-19.15-4.94-28.19C169.17,231.27,162.7,222.54,150.16,220.54Z"/><path class="cls-32" d="M137.64,215.74c4.5,0.75,8,4.08,12.51,4.8,12.54,2,19,10.73,25,20.89,5.29,9,4.66,18.6,4.94,28.19l0.48-.36h0c8.32-15.45-8.08-44.66-22.3-48.63-6.94-1.94-12.81-8.33-20.94-5.91h0A2.93,2.93,0,0,1,137.64,215.74Z"/><path class="cls-32" d="M137.64,215.74l-0.41-.08c0,0.28,0,.56,0,0.85s0.23,0.29.35,0.44A2.5,2.5,0,0,0,137.64,215.74Z"/><path class="cls-32" d="M98,260.13a2.54,2.54,0,0,1,.58-0.05c3.31-18.39,11-33.47,31.51-38.93l0.74-.19a23.69,23.69,0,0,1-1.25-2.49h0c-26.83,8.84-29.13,23.75-34,45.36h0C96.8,262.81,96.33,260.5,98,260.13Z"/><path class="cls-32" d="M137.29,214.72h0c0,0.32,0,.63-0.05.95l0.41,0.08A2.93,2.93,0,0,0,137.29,214.72Z"/><path class="cls-32" d="M173.09,278.47c-1.26-4.75-4.15-4.13-8.42-.16-7,6.53-13.1,14.95-24.31,14.19-10.32-.7-20.66-1.24-30.71-4.23-7.33-2.18-10.18-6.74-9.06-14.12,0.56-3.71,1.68-7.41.5-11.18-0.42-1.33-1-2.87-2.48-2.88-0.1.55-.18,1.11-0.27,1.67a2.05,2.05,0,0,1,.89,1.45c1,3.21-.51,6.69-1.25,10.07-1.61,7.34-.44,14.08,7.76,16.74,11,3.58,22.6,4.76,34,5.15,4.74,0.16,12,1.14,14.85-3.4,3.64-5.82,9.87-8.25,13.86-13.62,3.46-4.65,1.79,1.86,3,2.83h0a3.94,3.94,0,0,1,1.61-1.12A9.45,9.45,0,0,1,173.09,278.47Z"/><path class="cls-32" d="M98,260.13c-1.7.37-1.23,2.68-2.4,3.7,1,0.25,1.84-2.34,2.7-2.08,0.09-.56.17-1.12,0.27-1.67A2.54,2.54,0,0,0,98,260.13Z"/><path class="cls-32" d="M171.41,281q0.81-.19,1.64-0.31c0-.28,0-0.55,0-0.81A3.93,3.93,0,0,0,171.41,281Z"/><path class="cls-33" d="M188.25,333.44c-0.84,4.25,6.84,8.36,12.38,7.21,15-3.12,31-2.81,43.28-15.29,5.4-5.49,7.09-11.86,10.1-18l-0.29-.2c-2.86-8-5-16.28-7.28-24.52,0.12-.69.2-1.4,0.31-2.09-6.52-7.22-14.27-12.32-24.5-13.12h-0.14c0,0.24,0,.47,0,0.73-13.22-1.3-26.31-1.48-38.85,4-1.19.52-2.32-.5-3.15-1.48,0-.1,0-0.19,0-0.29a36.71,36.71,0,0,1-6.1,9.24H174c6.22,1.28,5,6,4.44,10.14-0.28,2-.63,3.94-0.74,5.88,5.6,6.89,6.2,15.34,8.31,23.14C187.28,323.29,189.4,327.61,188.25,333.44Zm1.75-53c0.74-5.76,3.47-10.5,8.72-10.62,13-.29,26.32-0.27,36.11,11.17,5.37,6.28,5.2,13.4,3.87,20.43a8.31,8.31,0,0,1-8.75,7c-4-.09-8.07.56-12.69,0.92-3.94-4.78-8.87,4.16-14.33-1.46C195.23,300,188.45,292.59,190,280.47Z"/><path class="cls-33" d="M180.08,270.65c0.83,1,2,2,3.15,1.48,12.54-5.48,25.62-5.3,38.85-4,0-.25,0-0.48,0-0.73-4.33-.17-7.41-5.43-12.07-3.44-8.77,3.74-19.76-1.66-27.39,6.72a15.23,15.23,0,0,1-2.13-1.41h0c-0.14.37-.3,0.73-0.45,1.1C180.07,270.46,180.07,270.55,180.08,270.65Z"/><path class="cls-33" d="M177.74,295.61c0.11-1.95.47-3.9,0.74-5.88,0.58-4.09,1.78-8.86-4.44-10.14H174l-0.52.61c0,0.19.05,0.38,0.08,0.58,5,1.46,3.39,5.34,2.58,8.68-1.16,4.78-2.7,9.46.87,13.89l0.38-8.24C177.49,295.28,177.61,295.44,177.74,295.61Z"/><path class="cls-33" d="M173.05,280.66l0.47,0.14c0-.2-0.05-0.4-0.08-0.58Z"/><path class="cls-33" d="M246.44,282.63c2.23,8.24,4.41,16.48,7.28,24.52l0.29,0.2,0.15-.33h0c1-8.8-3.09-16.44-5.63-24.44-0.58-.7-1.18-1.38-1.78-2C246.64,281.23,246.56,281.95,246.44,282.63Z"/><path class="cls-33" d="M180,269.62c-3.18,2.39-6.42,4.72-7,8.85,0.1,0.38.19,0.8,0.27,1.25a4.32,4.32,0,0,1,.6-0.12,36.71,36.71,0,0,0,6.1-9.24C180.06,270.11,180.05,269.87,180,269.62Z"/><path class="cls-33" d="M180.07,270.36c0.16-.36.31-0.72,0.45-1.1l-0.48.36C180.05,269.87,180.06,270.11,180.07,270.36Z"/><path class="cls-33" d="M173.36,279.72c-0.08-.46-0.17-0.87-0.27-1.25a9.45,9.45,0,0,0-.07,1.38Z"/><path class="cls-33" d="M173.44,280.21l0.52-.61a4.32,4.32,0,0,0-.6.12C173.39,279.88,173.42,280,173.44,280.21Z"/><path class="cls-33" d="M173,279.84c0,0.27,0,.53,0,0.81l0.39-.45c0-.16,0-0.33-0.08-0.49Z"/><path class="cls-34" d="M222.25,267.41c9-2.66,19.54,2.7,24.76,12a3.34,3.34,0,0,1,1.16-1.78A42,42,0,0,0,229.89,266c-2.51-.79-5.62-1.57-5.53-4.61l-0.69-.24,0.7-.17c0-.08,0-0.14,0-0.22,0.49-3,3.93-3.29,6.22-2.88,6.61,1.19,11.43.81,14.84-6.63,2.21-4.83,9-2.35,13.88-3.89C243.8,243,230.64,231.45,213.18,234c-7.92,1.16-15.48-2.37-23.37-2.51-5-.09-6.28,1.76-4.28,6.23a3.19,3.19,0,0,1,.39.86c6.18,17.14,6.18,17.14,25,17.94,8.54,0.37,11.59,3.2,11.26,10.64l0.12,0.24h0Z"/><path class="cls-34" d="M210.87,256.52c-18.77-.8-18.77-0.8-25-17.94a3.19,3.19,0,0,0-.39-0.86c-2-4.47-.76-6.32,4.28-6.23,7.89,0.14,15.45,3.67,23.37,2.51,17.46-2.56,30.62,9,46.13,13.38-4.86,1.55-11.67-.94-13.88,3.89-3.4,7.43-8.22,7.81-14.84,6.63-2.29-.41-5.73-0.12-6.22,2.88,0,0.08,0,.14,0,0.22,6.3-1.57,10.63-1.32,14.89.8,1.79,0.89,5.18,2.69,5.16-.68-0.07-11.61,6.07-12,14.76-9.43a4.52,4.52,0,0,0,5.49-2.62c0.95-2.67-1.62-4-3.66-4.55-10.86-3.13-21.14-7.62-31.29-12.51a9.3,9.3,0,0,0-4.64-.35c-12.85,1.2-25.48-1.32-38.08-2.89-7.2-.9-7.16,1.87-5.28,6.43,2.26,5.5,5.75,10.68,6.26,16.62,0.63,7.33,3.39,8.7,10.44,7.12,14.09-3.15,19.28-.93,23.72,8.21C222.46,259.72,219.41,256.89,210.87,256.52Z"/><path class="cls-34" d="M224.36,261.4c-0.1,3,3,3.82,5.53,4.61a42,42,0,0,1,18.29,11.64,3.94,3.94,0,0,1,2.27-.7h0C244.39,268.61,235.19,265.08,224.36,261.4Z"/><path class="cls-34" d="M248.17,277.65a3.34,3.34,0,0,0-1.16,1.78,25.54,25.54,0,0,1,1.52,3.15,15.22,15.22,0,0,1,.46-3.78c-0.12-.23-0.26-0.46-0.38-0.7Z"/><path class="cls-34" d="M248.17,277.65l0.44,0.45c0.12,0.24.25,0.46,0.38,0.7a3.68,3.68,0,0,1,1.46-1.85h0A3.94,3.94,0,0,0,248.17,277.65Z"/><path class="cls-34" d="M222.25,267.41h0c10.23,0.81,18,5.9,24.5,13.13a8.67,8.67,0,0,1,.26-1.1C241.79,270.11,231.23,264.76,222.25,267.41Z"/><path class="cls-34" d="M246.75,280.54c0.6,0.67,1.2,1.34,1.78,2a25.54,25.54,0,0,0-1.52-3.15A8.67,8.67,0,0,0,246.75,280.54Z"/><path class="cls-35" d="M246.88,200.17c-5.51-2.28-12-2.1-16.76-6.29,0.41,1.87,2.69,3.5,1.68,5.57C237,196.62,241.84,200.13,246.88,200.17Z"/><path class="cls-35" d="M231.8,199.46c1-2.07-1.27-3.7-1.68-5.57l-0.28-.24c-2.67,3,1.77,3.72,1.94,5.82h0Z"/><path class="cls-35" d="M246.88,200.17c-5,0-9.9-3.55-15.08-.71h0c5.73,1.22,11.45,2.54,17.21,3.61,1.67,0.31,4,.76,4.43-1.87a2.72,2.72,0,0,0-2.86-3c-7.15-.17-13.29-4.78-20.49-4.58,0,0.08,0,.16,0,0.24C234.9,198.07,241.36,197.89,246.88,200.17Z"/><path class="cls-35" d="M230.08,193.64h-0.25l0.28,0.24C230.1,193.8,230.09,193.72,230.08,193.64Z"/><path class="cls-35" d="M231.79,199.47h0Z"/><path class="cls-36" d="M4.5,266.21c8.76-10.73,21.57-13.65,30.81-7.08,1-2.93,2.69-3.07,4.62-2.37-1.71-4.36-2-8.69.65-12.93-3.45.79-6.88,1.63-10.54,1.18a11,11,0,0,0-6.25,1.23c-2.85,1.4,4.59,6.61-2.05,5.39-5.29-1-.71-5.76-2.3-8.75s0.49-3.29,2.53-3.46c-2.7-3.39-8.49-6.22-3.91-11C11.68,231,8,237,3.65,242c-1.69,1.91-.86,4.21,2.16,4.66a13.15,13.15,0,0,1,7.6,3.73C8.25,252.73,4,253.45.29,251.51V262C1.46,263.78,2.62,265.54,4.5,266.21Z"/><path class="cls-36" d="M23.63,239.25c0.22-4.08-10.09-6.51-1.85-11.84a16.84,16.84,0,0,0-3.73,1c-4.58,4.76,1.21,7.59,3.91,11,0.59,0,1.18-.09,1.67-0.18h0Z"/><path class="cls-36" d="M42.83,243.33c-0.76.15-1.51,0.32-2.26,0.49-2.61,4.25-2.35,8.57-.65,12.93a26.8,26.8,0,0,1,2.92,1.37C40.2,253.2,39.82,248.27,42.83,243.33Z"/><path class="cls-36" d="M8.17,268.53c0.63-8.07,5.46-8.23,11.1-9.32,5.45-1.05,10.73-3.49,15.74,1,0.09-.39.19-0.74,0.3-1.06-9.24-6.58-22.05-3.66-30.81,7.08-1.88-.66-3-2.42-4.21-4.19v4.57a12.11,12.11,0,0,0,1.27,1.73C3.84,270.85,7.8,273.4,8.17,268.53Z"/><path class="cls-36" d="M35.59,259.52c1.39-1.42,3.13-1.46,4.91-1.4-0.21-.46-0.4-0.91-0.58-1.36-1.93-.7-3.64-0.56-4.62,2.37l0.22,0.14C35.56,259.35,35.57,259.43,35.59,259.52Z"/><path class="cls-36" d="M42.84,258.13a26.8,26.8,0,0,0-2.92-1.37c0.18,0.45.37,0.91,0.58,1.36A20.69,20.69,0,0,0,42.84,258.13Z"/><path class="cls-36" d="M35.59,259.52c0-.08,0-0.16-0.07-0.24l-0.22-.14c-0.11.32-.21,0.67-0.3,1.06h0A5,5,0,0,1,35.59,259.52Z"/><path class="cls-37" d="M5.56,249.4c-4.45-3.08-4.68-6.75-1.63-10.62C8.2,233.34,11.27,226,19.68,227l0.47-.36a7,7,0,0,1,3-1.6c-2.37-3.63.79-8.15-1.31-12-7.35,2.73-8.05,12.77-16.74,13.68-2.42.25,1.5,4.41-.88,6.11,0,0,0,.08,0,0.12A31.3,31.3,0,0,1,.29,237.5V248C1.8,249,3.37,250,5.56,249.4Z"/><path class="cls-37" d="M4.19,232.79a3.24,3.24,0,0,1-1.12.5c-0.93.47-1.87,0.94-2.77,1.42v2.78a31.3,31.3,0,0,0,3.89-4.59S4.18,232.83,4.19,232.79Z"/><path class="cls-37" d="M23.48,225.55a5.58,5.58,0,0,1-.35-0.5,7,7,0,0,0-3,1.6l-0.47.36a15.74,15.74,0,0,1,2.1.4Z"/><path class="cls-37" d="M13.41,250.37a13.15,13.15,0,0,0-7.6-3.73c-3-.45-3.85-2.75-2.16-4.66,4.39-5,8-11,14.4-13.54A14.76,14.76,0,0,1,19.68,227c-8.41-1-11.48,6.33-15.75,11.77-3,3.87-2.82,7.55,1.63,10.62C3.37,250,1.8,249,.29,248v3.49C4,253.45,8.25,252.73,13.41,250.37Z"/><path class="cls-37" d="M19.68,227A14.76,14.76,0,0,0,18,228.44a16.84,16.84,0,0,1,3.73-1A15.74,15.74,0,0,0,19.68,227Z"/><path class="cls-38" d="M23.92,223.57a7,7,0,0,1-.24,1.36,3.63,3.63,0,0,1,1.06.25A8.12,8.12,0,0,1,23.92,223.57Z"/><path class="cls-38" d="M21.9,212.65a4.09,4.09,0,0,1,.9.43c-1.38-2.9-4.55-4-8.93-4a2.54,2.54,0,0,0-.85-0.42c0.14,1.36-.4,2.71-0.42,4.07-0.06,4.46-.28,7.5-1,9.36,1.09-1.67,1.84-4.38,3.23-5.93C16.7,214,18.71,211.58,21.9,212.65Z"/><path class="cls-38" d="M3.53,228.15A4.86,4.86,0,0,1,6.93,224a33,33,0,0,1-6.14-2.77,2.08,2.08,0,0,1-.5,2v1.22A9.92,9.92,0,0,1,3.53,228.15Z"/><path class="cls-38" d="M3.07,233.29h0c0.23-1.71.17-3.53,0.46-5.14a9.92,9.92,0,0,0-3.24-3.72v2.63a12.76,12.76,0,0,1,2.77,6.23h0Z"/><path class="cls-38" d="M22.8,213.08c2.07,1.3,1.23,3.87,1.09,6-0.1,1.49.15,3,0,4.49a8.12,8.12,0,0,0,.82,1.61A3.6,3.6,0,0,1,26,226q-0.12-3.72-.24-7.44c-0.38-12-.76-12.35-13.12-11.28h0a3.6,3.6,0,0,1,.42,1.37,2.54,2.54,0,0,1,.85.42C18.25,209.06,21.41,210.18,22.8,213.08Z"/><path class="cls-38" d="M6.93,224a10.21,10.21,0,0,1,2.72-.51,2.66,2.66,0,0,0,2-1.45c0.69-1.86.91-4.9,1-9.36,0-1.36.56-2.71,0.42-4.07a2.48,2.48,0,0,0-1.17-.07c-1.48,2.42-3.11,4.73-.89,8.05,1.41,2.1-.44,4.35-2,5.67-2,1.73-3.23-.72-4.55-1.78a8.16,8.16,0,0,0-4.1-2.15v1.51a5.64,5.64,0,0,1,.5,1.39A33,33,0,0,0,6.93,224Z"/><path class="cls-38" d="M12.6,207.24c-0.23.44-.49,0.88-0.75,1.31a2.48,2.48,0,0,1,1.17.07,3.6,3.6,0,0,0-.42-1.37h0Z"/><path class="cls-38" d="M24.74,225.18a3.63,3.63,0,0,0-1.06-.25,5.7,5.7,0,0,1-.2.62l1.75,0.3A8.12,8.12,0,0,1,24.74,225.18Z"/><path class="cls-38" d="M26,226h0a3.6,3.6,0,0,0-1.22-.79,8.12,8.12,0,0,0,.5.67Z"/><path class="cls-38" d="M23.68,224.93a7,7,0,0,0,.24-1.36,9.56,9.56,0,0,1-.48-4.53,10.67,10.67,0,0,0-.64-6,4.09,4.09,0,0,0-.9-0.43c-3.19-1.07-5.2,1.39-7.05,3.46-1.39,1.55-2.14,4.26-3.23,5.93-0.78,2.1-2.19,2.67-4.69,2a4.86,4.86,0,0,0-3.4,4.14,8.43,8.43,0,0,1,.66,4.64c2.38-1.7-1.53-5.86.88-6.11,8.69-.91,9.39-11,16.74-13.68,2.1,3.9-1.06,8.42,1.31,12,0.17,0,.33-0.09.51-0.12h0Z"/><path class="cls-38" d="M3.53,228.15c-0.3,1.61-.24,3.43-0.46,5.14h0a3.24,3.24,0,0,0,1.12-.5A8.43,8.43,0,0,0,3.53,228.15Z"/><path class="cls-38" d="M23.89,219.08c0.14-2.12,1-4.69-1.09-6a10.67,10.67,0,0,1,.64,6,9.56,9.56,0,0,0,.48,4.53C24,222.08,23.79,220.57,23.89,219.08Z"/><path class="cls-38" d="M11.62,222a2.66,2.66,0,0,1-2,1.45,10.21,10.21,0,0,0-2.72.51C9.43,224.72,10.84,224.15,11.62,222Z"/><path class="cls-38" d="M23.68,224.93h0c-0.18,0-.34.08-0.51,0.12a5.58,5.58,0,0,0,.35.5A5.7,5.7,0,0,0,23.68,224.93Z"/><path class="cls-39" d="M0.79,221.23L0.29,221v2.24A2.08,2.08,0,0,0,.79,221.23Z"/><path class="cls-39" d="M0.29,219.84V221l0.5,0.27A5.64,5.64,0,0,0,.29,219.84Z"/><path class="cls-40" d="M199.46,58.81c-0.62,4.36-1.71,9.15-4.29,12.33-5.06,6.22-4.34,13.51-5.73,20.43-1,5.2.54,8.63,6.49,8.92s9.89-2.53,8.34-8.27c-3.69-13.72-2.19-28-5.39-41.69-0.79-3.39-2.39-7.16.91-9.58,3.62-2.65,6.57.34,8.74,3a19.16,19.16,0,0,0,6.05,4.89c-3.33-2.32-6-6-8.38-11.26s-4.28-4.71-7.94-1.54a113.43,113.43,0,0,0-9.18,8.46C195.87,44.24,200.67,50.33,199.46,58.81Zm1.82,32.14c1.57,8.53-.07,9.76-9.32,6.94v0c-3.46-3.65-1.23-6.36,1.79-8.4C196.44,87.66,199.54,86.57,201.28,90.95Z"/><path class="cls-40" d="M230.9,52a43.33,43.33,0,0,1-5.78.12c2,0.39,4,.76,6,1.22A2,2,0,0,1,230.9,52Z"/><path class="cls-40" d="M231.44,53.83l0,0.12h0Z"/><path class="cls-40" d="M198.28,36c3.66-3.17,5.5-3.84,7.94,1.54s5.05,8.94,8.38,11.26a38.53,38.53,0,0,0,10.52,3.26A43.33,43.33,0,0,0,230.9,52a2.29,2.29,0,0,1,1-1.35c-12.72-.25-23.08-3.59-25-18.53-0.3-2.3-2.77-6.09-4.55-3.26-4.28,6.76-13.24,8.42-16.21,16.14a12.18,12.18,0,0,1,2.95-.48A113.43,113.43,0,0,1,198.28,36Z"/><path class="cls-40" d="M196.67,61.45c-3.56,9.27-10.75,17.1-9.65,28.3,0.42,4.25-1.63,8.79,2.75,11.83,3.92,2.72,8.52,2.32,12.64.71,4.5-1.76,4.59-6,4.8-10.31,0.46-9.12-5.85-17-4.13-26.46,1-5.78.76-11.89-2.56-17.36-1.16-1.92-1.75-4.71.19-6.08,2.35-1.66,3.93,1,5.32,2.54,6.9,7.54,15.56,10.06,25.45,9.33l0-.12a4,4,0,0,1-.32-0.52c-2-.46-4-0.82-6-1.22a19.59,19.59,0,0,1-10.52-3.26,19.16,19.16,0,0,1-6.05-4.89c-2.17-2.64-5.11-5.63-8.74-3-3.31,2.42-1.7,6.18-.91,9.58,3.2,13.69,1.7,28,5.39,41.69,1.54,5.74-2.44,8.55-8.34,8.27s-7.54-3.72-6.49-8.92c1.39-6.92.68-14.21,5.73-20.43,2.58-3.18,3.67-8,4.29-12.33,1.21-8.48-3.59-14.57-10.37-14.32l-0.7.78A11.93,11.93,0,0,1,196.67,61.45Z"/><path class="cls-40" d="M189.1,44.49a12.18,12.18,0,0,0-2.95.48,12,12,0,0,1,2.25.3Z"/><path class="cls-40" d="M214.6,48.83a19.59,19.59,0,0,0,10.52,3.26A38.53,38.53,0,0,1,214.6,48.83Z"/><path class="cls-40" d="M231.12,53.31l0.18,0c0.06,0.17.09,0.32,0.14,0.48l0.08,0.11h0l0.26-2.05L230.9,52A2,2,0,0,0,231.12,53.31Z"/><path class="cls-40" d="M230.9,52l0.88-.07,0.16-1.27A2.29,2.29,0,0,0,230.9,52Z"/><path class="cls-40" d="M231.3,53.35l-0.18,0a4,4,0,0,0,.32.52C231.39,53.67,231.36,53.51,231.3,53.35Z"/><path class="cls-16" d="M159.69,44.2c-4.63-3.64-6.8-9.32-5.31-18.14,0.34-2,0-4.47-4.25-6.62,6.31,6.89,1.34,12.76,1.36,18.69,0,2.69-1,4.26-2.43,5.28A43,43,0,0,1,159.69,44.2Z"/><path class="cls-16" d="M151.49,38.13c0-5.93,4.95-11.8-1.36-18.69,4.23,2.15,4.59,4.61,4.25,6.62-1.49,8.82.68,14.5,5.31,18.14A77,77,0,0,1,172.4,48c1.46,0.55,2.9,1.18,4.52.73-3.29-2.79-7.4-2.8-11.32-3.77s-10.88-2-8.39-8.4c2.21-5.62-2.09-10.05-.39-15.52,1.28-4.09-4.61-2.54-6.87-4.3a2.94,2.94,0,0,0-4.14,1c-1.31,3.11,1.4,4.36,3.49,5.66,3.26,2,4.85,4.39.23,6.24-2.58,1-1.5,2.25-.91,3.37,3.53,6.71,1.94,9.93-6,9.73-2.5-.06-4.49,1.94-6.18,3.83a35.2,35.2,0,0,1,12.59-3.07C150.52,42.39,151.49,40.82,151.49,38.13Z"/><path class="cls-16" d="M160.93,46.44c4.25,0.81,9.07,5.32,14.16,3.26a8.89,8.89,0,0,0-1.3-.32c-5.76-.87-10.62-2.45-14.1-5.19a43,43,0,0,0-10.64-.79c-2.42,1.67-6.19,1.83-9.21,2.95C146.76,46,153.56,45,160.93,46.44Z"/><path class="cls-16" d="M139.84,46.36c3-1.12,6.79-1.28,9.21-2.95a35.2,35.2,0,0,0-12.59,3.07h0C137.59,46.46,138.72,46.42,139.84,46.36Z"/><path class="cls-16" d="M172.4,48a77,77,0,0,0-12.71-3.77c3.48,2.74,8.35,4.32,14.1,5.19a8.89,8.89,0,0,1,1.3.32,8.32,8.32,0,0,0,1.83-1C175.31,49.14,173.86,48.52,172.4,48Z"/><path class="cls-41" d="M137.83,130.88c5.83,0.07,8.34-4.59,8.79-10.08,0.3-3.71-1.34-6-6.67-6.18-3,2-9.11,2.68-9.81,8.33C129.61,127.25,133.83,130.83,137.83,130.88Z"/><path class="cls-42" d="M181.79,174.89c-3.34,2.35-1.95,5.2.37,7.64a2.92,2.92,0,0,0,.48.46c2.38-1.9,4.95-3.56,7.18-5.63C187.45,175.5,185.43,172.32,181.79,174.89Z"/><path class="cls-42" d="M182.16,182.53c-2.32-2.44-3.71-5.29-.37-7.64,3.64-2.57,5.66.61,8,2.48,0.2-.18.41-0.34,0.61-0.53-0.1-3.38-.64-6.22-5.19-5.78-3,.3-6.88-0.7-7.93,3.2s-1.62,8.2,3.29,10.48c0.65-.62,1.34-1.19,2-1.74A2.92,2.92,0,0,1,182.16,182.53Z"/><path class="cls-42" d="M182.64,183a12.07,12.07,0,0,0,3,1.38c2.8-.68,4.72-2.45,4.76-6.56-0.21-.14-0.42-0.29-0.62-0.45C187.59,179.44,185,181.1,182.64,183Z"/><path class="cls-42" d="M185.69,184.38a12.07,12.07,0,0,1-3-1.38c-0.7.56-1.39,1.12-2,1.74h0A19.26,19.26,0,0,0,185.69,184.38Z"/><path class="cls-42" d="M190.45,177.82c0-.32,0-0.64,0-1-0.19.19-.41,0.35-0.61,0.53C190,177.53,190.24,177.68,190.45,177.82Z"/><path class="cls-43" d="M181.74,98.38c1-4.27-.65-8.18-2.9-12C175.41,91.25,179.17,94.7,181.74,98.38Z"/><path class="cls-43" d="M178.85,86.36L178.63,86c-4.7,1.72-8.12,3.59-2.45,8.53,2,1.71,3,4.45,4.47,6.72a12.33,12.33,0,0,0,1.09-2.86C179.17,94.7,175.41,91.25,178.85,86.36Z"/><path class="cls-43" d="M181.74,98.38q0.34,0.49.65,1c3.76-4.75,2.55-9.61-3.42-13.17l-0.12.17C181.09,90.2,182.79,94.11,181.74,98.38Z"/><path class="cls-43" d="M178.85,86.36l0.12-.17L178.63,86Z"/><path class="cls-43" d="M180.65,101.24h0a16.47,16.47,0,0,0,1.74-1.88q-0.3-.49-0.65-1A12.33,12.33,0,0,1,180.65,101.24Z"/><path class="cls-44" d="M212.88,163.93c2.39-3.68,4.44-7.58,7.08-11.11l-0.12.06c-9.48,2.85-10.11,3-7.82,11,0.28,0,.56,0,0.86,0h0Z"/><path class="cls-44" d="M219.84,152.88l0.12-.06c0.1-.13.19-0.27,0.29-0.41-5.32-2.55-10.53-1.88-12.86,3.48-1.35,3.09-.7,7.79,4.63,8C209.72,155.93,210.35,155.73,219.84,152.88Z"/><path class="cls-44" d="M212.88,163.93c5.9-1.53,6.91-6.2,7.34-11.23a1.65,1.65,0,0,1-.26.12C217.32,156.35,215.27,160.25,212.88,163.93Z"/><path class="cls-44" d="M220.22,152.71l0-.29c-0.1.13-.19,0.27-0.29,0.41A1.65,1.65,0,0,0,220.22,152.71Z"/><path class="cls-45" d="M219.91,69.28a23.44,23.44,0,0,0,3.23-5.47C220.46,64.63,219.47,66.51,219.91,69.28Z"/><path class="cls-45" d="M219.91,69.28c-0.44-2.78.55-4.66,3.23-5.47a19.22,19.22,0,0,0,.74-2c-8.14-.65-9.44,2.67-5.32,9.15h0C219,70.4,219.48,69.84,219.91,69.28Z"/><path class="cls-45" d="M219.91,69.28a11.36,11.36,0,0,0,.29,1.28c3.82-1,6.16-2.88,4.5-7.07a9.81,9.81,0,0,0-1.55.32A23.44,23.44,0,0,1,219.91,69.28Z"/><path class="cls-45" d="M223.14,63.81a9.81,9.81,0,0,1,1.55-.32,13.54,13.54,0,0,0-.82-1.71A19.22,19.22,0,0,1,223.14,63.81Z"/><path class="cls-45" d="M218.56,70.93h0c0.57-.11,1.11-0.23,1.63-0.37a11.36,11.36,0,0,1-.29-1.28C219.48,69.84,219,70.4,218.56,70.93Z"/><path class="cls-46" d="M234.29,106.15a12.07,12.07,0,0,0-1.83-8,2.31,2.31,0,0,1-1.58.06c0.55,2.73,1.21,5.43,1.58,8.2A2.26,2.26,0,0,1,234.29,106.15Z"/><path class="cls-46" d="M232.46,106.41c-0.37-2.76-1-5.47-1.58-8.2a3.39,3.39,0,0,1-1-.55h0c-3.49,4-.26,6.45,2,9.15h0A3.41,3.41,0,0,1,232.46,106.41Z"/><path class="cls-46" d="M234.29,106.15a3.22,3.22,0,0,1,1.11.56c2.37-3.67,3.69-7.13-1.8-9.28h0a3.68,3.68,0,0,1-1.14.73A12.07,12.07,0,0,1,234.29,106.15Z"/><path class="cls-46" d="M232.47,98.15c-0.14-.21-0.28-0.42-0.44-0.63l-1.26.08c0,0.2.07,0.41,0.12,0.61A2.31,2.31,0,0,0,232.47,98.15Z"/><path class="cls-46" d="M229.85,97.66h0a3.39,3.39,0,0,0,1,.55c0-.2-0.08-0.41-0.12-0.61l-0.91.06h0Z"/><path class="cls-46" d="M233.6,97.43l-1.57.1c0.15,0.21.3,0.42,0.44,0.63A3.68,3.68,0,0,0,233.6,97.43Z"/><path class="cls-46" d="M232.46,106.41c0,0.13,0,.25.05,0.38l1.71,0c0-.2.06-0.4,0.07-0.59A2.26,2.26,0,0,0,232.46,106.41Z"/><path class="cls-46" d="M232.46,106.41a3.43,3.43,0,0,0-.6.4h0l0.65,0C232.5,106.66,232.48,106.54,232.46,106.41Z"/><path class="cls-46" d="M234.22,106.74l1.18,0a3.22,3.22,0,0,0-1.11-.56C234.28,106.35,234.25,106.55,234.22,106.74Z"/><path class="cls-47" d="M47.31,233.87c-4.89-.76-7.16,3.15-10.15,5.5a20.42,20.42,0,0,1-4.8,3,29,29,0,0,1,8.77.63C43.33,240.2,47.45,238.8,47.31,233.87Z"/><path class="cls-47" d="M22.78,240.67c-0.89,2-.65,4.3-1.29,5.58a21.68,21.68,0,0,1,6.79-3.2,9.7,9.7,0,0,1-5.49-2.37h0Z"/><path class="cls-47" d="M52,233.45c0.46-1.62-1.33-2.95-2.88-3.18-5.42-.82-8.55,3-12,6.24a17.86,17.86,0,0,0-1.28,1.38c-3.68,4.29-7.76,4.87-12.29,1.35h0a5.66,5.66,0,0,0-.86,1.42h0a9.7,9.7,0,0,0,5.49,2.37,23,23,0,0,1,4.09-.73,20.42,20.42,0,0,0,4.8-3c3-2.35,5.25-6.26,10.15-5.5,0.14,4.94-4,6.33-6.18,9.08,0.57,0.12,1.13.23,1.7,0.38C47.31,241.34,50.68,238.19,52,233.45Z"/><path class="cls-47" d="M41.13,242.95a29,29,0,0,0-8.77-.63,9.13,9.13,0,0,1-4.09.73,21.68,21.68,0,0,0-6.79,3.2c0.63-1.28.4-3.55,1.29-5.58a7.06,7.06,0,0,0-.81-1.25c-2,.17-4.13.46-2.53,3.46s-3,7.78,2.3,8.75c6.65,1.21-.8-4,2.05-5.39A11,11,0,0,1,30,245c3.67,0.45,7.09-.4,10.54-1.18,0.15-.25.27-0.5,0.44-0.75Z"/><path class="cls-47" d="M23.63,239.25c-0.49.09-1.08,0.13-1.67,0.18a7.06,7.06,0,0,1,.81,1.25A5.66,5.66,0,0,1,23.63,239.25Z"/><path class="cls-47" d="M41.13,242.95l-0.11.13c-0.17.25-.29,0.5-0.44,0.75,0.75-.17,1.5-0.34,2.26-0.49C42.26,243.18,41.7,243.07,41.13,242.95Z"/><path class="cls-47" d="M32.36,242.32a23,23,0,0,0-4.09.73A9.13,9.13,0,0,0,32.36,242.32Z"/><path class="cls-8" d="M164.62,234.66c-5-6.16-11.48-9.53-19.28-11.07-3.41-.68-7.83-1.2-8.15-6a8.77,8.77,0,0,1-4.45,2.83,27,27,0,0,0,11.62,3.52C152.61,224.45,159.15,228.69,164.62,234.66Z"/><path class="cls-8" d="M137.2,217.58a9.07,9.07,0,0,1,0-1.07,13.3,13.3,0,0,1-7.58,2h0q1.55,1.06,3.14,1.95A8.77,8.77,0,0,0,137.2,217.58Z"/><path class="cls-8" d="M137.56,225.53c13.6-.63,23.26,5.54,30.93,16.29-1.24-9.15-6.4-14.72-14.75-17.89-5.49-2.09-12.12-1.74-16.2-7a3,3,0,0,1-.14.39c-0.06.09-.14,0.16-0.2,0.24,0.32,4.8,4.74,5.33,8.15,6,7.8,1.55,14.27,4.91,19.28,11.07-5.48-6-12-10.21-20.25-10.73a27,27,0,0,1-11.62-3.52c-0.62.2-1.26,0.38-1.89,0.54C132.37,223.57,134.48,225.67,137.56,225.53Z"/><path class="cls-8" d="M132.75,220.41q-1.6-.89-3.14-1.95a23.69,23.69,0,0,0,1.25,2.49C131.49,220.79,132.13,220.61,132.75,220.41Z"/><path class="cls-8" d="M137.4,217.34a3,3,0,0,0,.14-0.39c-0.12-.15-0.24-0.28-0.35-0.44a9.07,9.07,0,0,0,0,1.07C137.26,217.5,137.33,217.43,137.4,217.34Z"/><path class="cls-48" d="M58.9,246.71c-2.59.06-6.32-.73-6.09,3.57,0.19,3.56,3.29,4.09,6.25,4s5.64-.55,6.35-4.11C64.72,246.15,61.56,246.65,58.9,246.71Z"/><path class="cls-36" d="M5.59,290.52c1-4.86,5-7,8.07-10,2.51-2.44,5.15-4.74,4.88-6.55-0.47-4,.33-6.47-1.73-7.25-2.88-1.08-3.73,1.48-4.32,3.6-1,3.71-3.5,5.74-7.1,6.78a8.27,8.27,0,0,0-5.09,4v12.22c0.12,0.05.23,0.12,0.36,0.17C3.32,294.5,5.14,292.77,5.59,290.52Z"/><path class="cls-49" d="M258.83,50.71l-1.57-.91,1.38,1.28C258.71,51,258.77,50.83,258.83,50.71Z"/><path class="cls-49" d="M259.9,52.32a8.14,8.14,0,0,1,.64-0.63l-1.71-1c-0.06.12-.12,0.24-0.19,0.37C259.07,51.48,259.5,51.89,259.9,52.32Z"/><path class="cls-49" d="M258.12,52.38c0-.17,0-0.33,0-0.5a8.68,8.68,0,0,0,.5-0.8l-1.38-1.28-4.71-2.72C251.28,51.59,254.22,52.4,258.12,52.38Z"/><path class="cls-49" d="M258.64,51.08a8.68,8.68,0,0,1-.5.8c0,0.17,0,.33,0,0.5,0.58,0,1.18,0,1.78-.05C259.5,51.89,259.07,51.48,258.64,51.08Z"/><path class="cls-50" d="M269.39,124c4-.13,5.55-1.92,5.7-5.66,0.18-4.61-2.41-5.61-6.43-5.83-4.24-.22-5.67,1.46-5,5.67C263,122.4,264.86,124.19,269.39,124Z"/><path class="cls-51" d="M237.35,119.12c-0.09-.22-0.16-0.45-0.25-0.67-1.12,2.81-2.13,5.66-3.22,8.49C236.87,125.16,242.74,124.7,237.35,119.12Z"/><path class="cls-51" d="M237.35,119.12c5.39,5.57-.48,6-3.47,7.81-0.11.29-.21,0.58-0.33,0.87,3.34-.1,7.83,2.25,9.1-2.9,0.91-3.73,0-7.36-5.25-7.22-0.1.25-.19,0.51-0.29,0.77C237.19,118.67,237.26,118.9,237.35,119.12Z"/><path class="cls-51" d="M233.88,126.94c1.09-2.82,2.1-5.68,3.22-8.49-0.08-.2-0.15-0.41-0.22-0.61-5.47,1.63-5.42,5.36-3.39,9.83,0.1-.23.18-0.44,0.3-0.68Z"/><path class="cls-51" d="M236.88,117.84c0.08,0.2.14,0.41,0.22,0.61,0.1-.25.19-0.51,0.29-0.77h0Z"/><path class="cls-51" d="M233.79,127c-0.12.24-.2,0.45-0.3,0.68l0.06,0.14c0.11-.29.22-0.58,0.33-0.87Z"/><path class="cls-52" d="M229.13,182.25c-2.69,1.37-1.92,5.16,2.17,5.9,2.43,0.44,5.12.12,7.32,1,17.89,7.49,30,.14,31.11-19.07,0.75-12.81-2.82-18.49-12-19.77-7.33-1-13.13,5.13-20.55,4-1.86-.29-1.07,2.23-1.24,3.69C234.87,166.38,240.54,176.42,229.13,182.25Z"/><path class="cls-53" d="M235.49,209c-0.58,10.9,6.79,4.91,11.17,5.26h0C245.86,206.29,241.18,206.56,235.49,209Z"/><path class="cls-8" d="M235.49,209c-2.44,1.91-3,5.05-.69,6.33,3.75,2.11,8.24,2.81,11.87-1.07h0C235.88,216.83,235.27,216.54,235.49,209Z"/><path class="cls-8" d="M246.67,214.23c-4.39-.35-11.76,5.64-11.17-5.26C235.27,216.54,235.88,216.83,246.67,214.23Z"/><path class="cls-54" d="M178.75,301.93c0,0.11.07,0.21,0.13,0.32a33.93,33.93,0,0,1,2.49,6.44c-0.47-1.72-.94-3.45-1.4-5.17C179.61,302.17,179.19,301.83,178.75,301.93Z"/><path class="cls-54" d="M185.79,329a137.88,137.88,0,0,0-4-18.67,66.29,66.29,0,0,1,1.43,13.81c0.27,13.64,6.71,20.14,18.25,19C192.91,343.82,186.93,338.2,185.79,329Z"/><path class="cls-54" d="M229.39,337.42c-3.73,1-7.5,1.83-11.28,2.62,6.45-1,12.91-2,18.93-5.63,10.51-6.31,17-14.51,18.49-26.44a3.6,3.6,0,0,1-1.38-.53C254.19,319.79,242.76,333.89,229.39,337.42Z"/><path class="cls-54" d="M255.53,308c-1.53,11.93-8,20.12-18.49,26.44-6,3.62-12.48,4.66-18.93,5.63-4.78,1-9.58,1.91-14.36,2.84a19.53,19.53,0,0,1-2.24.29c-11.54,1.16-18-5.34-18.25-19a66.29,66.29,0,0,0-1.43-13.81l-0.45-1.69a33.93,33.93,0,0,0-2.49-6.44c-0.05-.11-0.08-0.21-0.13-0.32-0.57.13-1.19,1-1.78,1.44,3.49,7.27,3.91,14.94,3.82,22.91-0.18,15.14,11.22,23.25,25.55,18.92a61.2,61.2,0,0,1,11-2.09c20.43-2.21,40-15.51,40.53-35.8h0A3.15,3.15,0,0,1,255.53,308Z"/><path class="cls-54" d="M255.53,308c0-.28.08-0.56,0.11-0.84l-1.47-.11h0c0,0.14,0,.28,0,0.43A3.6,3.6,0,0,0,255.53,308Z"/><path class="cls-54" d="M255.53,308a3.15,3.15,0,0,0,2.38-.67h0l-2.27-.17C255.61,307.42,255.57,307.69,255.53,308Z"/><path class="cls-54" d="M254.15,307.45l-0.14-.1c-3,6.15-4.69,12.53-10.1,18-12.29,12.48-28.28,12.16-43.28,15.29-5.54,1.15-13.22-3-12.38-7.21,1.15-5.83-1-10.15-2.2-14.7-2.12-7.8-2.72-16.25-8.31-23.14a13.23,13.23,0,0,0,1,6.32c0.44-.1.86,0.24,1.22,1.58,0.46,1.72.93,3.45,1.4,5.17l0.45,1.69a137.88,137.88,0,0,1,4,18.67c1.14,9.16,7.12,14.78,15.71,14.12a35.39,35.39,0,0,0,5.71-1.07,96.81,96.81,0,0,1,10.9-2.05c3.78-.79,7.55-1.64,11.28-2.62C242.76,333.89,254.19,319.79,254.15,307.45Z"/><path class="cls-54" d="M201.5,343.16a19.53,19.53,0,0,0,2.24-.29c4.79-.92,9.59-1.84,14.36-2.84a96.81,96.81,0,0,0-10.9,2.05A35.39,35.39,0,0,1,201.5,343.16Z"/><path class="cls-54" d="M177.74,295.61c-0.13-.16-0.25-0.33-0.39-0.48L177,303.36c0.59-.42,1.2-1.31,1.78-1.44A13.23,13.23,0,0,1,177.74,295.61Z"/><path class="cls-54" d="M254.15,307.45c0-.14,0-0.28,0-0.42l-0.15.33Z"/><path class="cls-55" d="M217.25,309.35c4.62-.37,8.66-1,12.69-0.92a8.31,8.31,0,0,0,8.75-7c1.33-7,1.5-14.16-3.87-20.43-9.78-11.44-23.06-11.46-36.11-11.17-5.25.12-8,4.85-8.72,10.62-1.55,12.12,5.23,19.51,12.92,27.42C208.38,313.51,213.31,304.57,217.25,309.35Z"/><path class="cls-56" d="M192,97.83v0.06c9.25,2.81,10.89,1.59,9.32-6.94C195.62,89.8,192.41,92,192,97.83Z"/><path class="cls-15" d="M193.75,89.48c-3,2-5.25,4.75-1.79,8.4V97.83c0.73-8,2.38-9.18,9.31-6.89C199.54,86.57,196.44,87.66,193.75,89.48Z"/><path class="cls-15" d="M192,97.83c0.44-5.88,3.65-8,9.31-6.89C194.35,88.66,192.7,89.87,192,97.83Z"/></svg>