<svg id="Färgen" xmlns="http://www.w3.org/2000/svg" viewBox="0 0 342.27 394.23"><defs><style>.cls-1{fill:none;}.cls-2{fill:#002656;}.cls-3{fill:#003066;}.cls-4{fill:#00021d;}.cls-5{fill:#20292a;}.cls-6{fill:#001f44;}.cls-7{fill:#003b84;}.cls-8{fill:#004eb0;}.cls-9{fill:#007690;}.cls-10{fill:#003069;}.cls-11{fill:#0095a5;}.cls-12{fill:#003a79;}.cls-13{fill:#00346e;}.cls-14{fill:#000a37;}.cls-15{fill:#00497a;}.cls-16{fill:#0258a8;}.cls-17{fill:#fdfbfc;}.cls-18{fill:#006698;}.cls-19{fill:#06569d;}.cls-20{fill:#017c9c;}.cls-21{fill:#0085a7;}.cls-22{fill:#1bc2e0;}.cls-23{fill:#0d5b95;}.cls-24{fill:#0d95b5;}.cls-25{fill:#4c95d7;}.cls-26{fill:#7e79a4;}.cls-27{fill:#0077b2;}.cls-28{fill:#023759;}.cls-29{fill:#434436;}.cls-30{fill:#0386a5;}.cls-31{fill:#1a7fbf;}.cls-32{fill:#037486;}.cls-33{fill:#efbfbb;}.cls-34{fill:#9ef0ee;}.cls-35{fill:#dae2ee;}.cls-36{fill:#0f1e42;}.cls-37{fill:#3e311a;}</style></defs><title>hexagon</title><path class="cls-1" d="M73.92,67l0.06-.1h-0.1Z"/><path class="cls-1" d="M46.42,231.62a4.71,4.71,0,0,1,.47-1.45L45,230.9A8.42,8.42,0,0,0,46.42,231.62Z"/><path class="cls-1" d="M170.14,248.18h0Z"/><path class="cls-1" d="M170,248.14l0,0.06,0,0H170Z"/><path class="cls-1" d="M201.79,121.35H201.4a8.74,8.74,0,0,0-.67,2.06A19.76,19.76,0,0,0,201.79,121.35Z"/><path class="cls-1" d="M73.88,66.92h0c0-.08-0.08-0.15-0.12-0.23-0.06.21-.11,0.43-0.16,0.64l0.28-.41h0Z"/><path class="cls-2" d="M339.75,137.28c-0.91-3.1-3.23-2.55-4.92-.5-1.88,2.26-1.8,5.2-2.33,8-0.94,4.86-1.68,10.34-7,12.54-5.56,2.29-8.51,7-12.39,11-3.72,3.88-3.51,11.19-10.82,12-11.27,1.23-22.37,1.39-32.78-3.9-4.6-2.34-6.94-16.69-3.78-21.57,6.76-10.45,6.55-17.47-.75-27.23a32,32,0,0,1-2.19-4L259,119.82c-11.82-6.07-23.56-12.15-33.75-21C221.67,95.71,216.62,95,211.2,96c-7.59,1.45-4.25,3.84-1.31,6.71h0c10.12,7,16.29,16.58,18.93,28.53,3.37,1.68.55,8.84,4.86,7.76,4.83-1.21,1.56-7.19,2.75-10.81,1.36-4.11-7.07-7.53-1.54-10.39,3.33-1.73,5.92,4.51,9.21,6.69s7.14,4.23,9.86,7.15c5.21,5.58,9.93,11.67,4.69,20-0.79,1.25-1.55,3.06-1.26,4.37,4,17.9-7.89,27.9-19.07,38-5.95,5.36-17.49,4.73-24.71.9-8.46-4.48-11.58-14-19.4-19a2.82,2.82,0,0,1-.6-4.22c4.32-4.48-1.52-4.38-2.68-6.36h0c-6.53-4-10.45-11.33-18.41-13.83-4.13-1.29-1.81-5.9-1.95-9.11h0c-1.73-6.26-8.74-1.59-11.57-5.59-7.87-7.52-15.6-15.2-23.65-22.52-5.58-5.07-12.62-6.48-20.15-7.09,5.07-2.8,10.34-3.28,15.55-.41,8.23,4.53,16.38,9.46,21.83,17.3,3.41,4.89,7.62,6.32,12.83,5.22,7.21-1.51,14.81,1.83,21.78-1.93h0c0.11-8.27-6.38-6.11-10.08-5.23-6.62,1.58-10.93-.42-14.26-5.73-1.22-1.94-2.45-3.61-4.89-4-6.67-1-9.89-5.59-12.57-11.23-3.91-8.24-7.49-9-14.61-3.64-5.07,3.79-27.26,1.83-32.58-3.64C92.11,87.59,86.48,88.5,83,95.24c-3.07,6-9.08,4.52-13,7.65-0.67,2.84,1.8,7.21-2,8.26-3.2.88-5-3.11-6.9-5.54-1.71-2.24-3-4.78-4.54-7.16-4.12-6.48-9.43-9.06-16.72-5.06-4.73,4.41-9.46,6.72-16.5,4.17-4.72-1.71-7.48-3.81-8-7L0.87,99v50c6.61,1.64,13.45.85,20.17,1,5.74,0.1,10.82-.41,6.38-9.08-3-5.8,1.16-13.72-4.35-19.46,8.23-4.62,11,2.12,15.08,5.88-0.2-5.91-2.87-9.42-9.14-9.65-2.07-.07-6.07-0.89-4.57-2.73,3-3.64-1.49-8.69,2.86-11.11,2.66-1.48,4.1.87,4.61,3.09,0.77,3.34,3.14,5.39,5.42,7.51,4.76,4.41,9.33,6,11.81-2,0.93-3,2.33-4.35,5.33-3.7,3.19,0.7,4.32,3.38,5.35,6.06,1.2,3.16-.37,4.65-3.23,5.49a9.17,9.17,0,0,0-3.39,1.61c-2.59,2.23-8.57.12-8.49,4,0.11,4.68,5.92,4.62,9.56,6.09,7.77,3.14,16.45,5,19.37,14.58h0l6.23,5.22h0c4.15,0.49,7.58,1,5.82-5.56-1.53-5.72-1.49-11.88,1.61-17.44,1.31-2.35,3.56-4.43,6-3.48s0.88,3.7.47,5.74c-1.45,7.11-5.23,13.87.07,21.47,2.07,3-5.68,4.56-5,9,2.84,4,7.54,5.21,11.53,7.48h0c3.34,0,6.76-.37,10,0.19,4.9,0.84,6.18-1.95,6.94-5.73h0c-2-6-6.75-8.52-12.35-10.27-2.13-.66-3.93-2.46-3.2-5,1-3.54,3.26-1.26,5.15-.82a30,30,0,0,0,6.39,1c1.29,0,3.37.35,3.46-2a3.45,3.45,0,0,0-2.15-3.72c-3.63-1.54-6.73-3.1-8.85-7.25-5.3-10.39-5.27-12.65,3.81-20.28,5.48-4.61,14.46-4.25,20.38,1.33,7,6.59,15,12.75,13.69,24.19-0.22,1.83-.12,4.15,2.75,3.5,4.61-1.05,8-.7,8.76,5,0.8,6.3-4.3,5.7-7.81,7,8,12.14,9.74,28.43,25.3,35.65,5.1,2.37,8.71,8.05,12.8,12.41,2.4,2.55,2.13,5.81,1.13,8.9a3,3,0,0,1-3.59,2.32c-1-.27-2.57-1.65-2.5-2.41,1.11-12.63-10.72-15.08-16.94-22-7.07-7.82-11.15-4.53-14.85.34-0.4.62-.86,1.21-1.33,1.8-0.56.78-1.12,1.58-1.68,2.34-5.63,10.57-3.42,14.51,8.79,15.65,5.88,0.55,9.25,7.57,7.44,14.56-0.89,3.41-5.94,8.09,2.37,9.84,2.73,0.57,1.32,3.05-.32,4.17-2.57,1.75-5.17,3.88-8.07,4.63-7,1.82-8.84,5.17-4.68,11.32,4.94,2.34,9.87,4.51,13.87,8.6,2.64,2.69,6.62,3.27,10.51,2.82,1.6-.18,3.15-0.43,3.62-2.26a3.78,3.78,0,0,0-1.6-4.08c-2-1.49-4-3.65-6.21-4-10.2-1.64-5-5.13-1.33-8.58l0-.06c-2.18-.37-4.94,1.25-6.72-2.35,3.44-2.15,7.12-.82,10.65-1.36-0.13,2.78-3.25,1.86-3.83,3.73h0c1.88-.06,3.89.28,5.6-0.29a11.85,11.85,0,0,0,7.23-7,2.61,2.61,0,0,0-1.91-3.65c-3.68-1.06-5.78,1.47-8.21,3.47-1.12.92-2.66,1.33-5,2.45,0.08-4.59,2.37-8.4-.33-12.16-1.91-2.66.83-4.58,2.79-6.11a4.23,4.23,0,0,1,6,.36,85.85,85.85,0,0,1,8.89,9.67c2.79,3.83,5.76,7.75,10.61,4.75,5.32-3.29,2.14-7.43-.38-11.26-0.91-1.38-2.61-2.89-1-6.39,4.25,7.28,13.32,9.75,13.92,19.12,1.88-2.33,1.44-7.39,6.66-5.81,3.43,1,4,4.63,3.47,6.8-1.1,4.63-5.56,2.17-8.6,2.74,3.14,2.76,9,0,10.87,5.85,1.08,3.42,2.81,6.15-.69,9.22-1.55,1.36-5.25,3-2.35,5.85,2.43,2.37,5.86,1.67,8.86.29,3.71-1.7,5.12-10.65,11.55-3.66,3.43,3.73,4,8.28,3.94,13.16-0.11,7,3.1,12.88,8,17.28s11.12,6.56,13.82,13.42c1.61,4.1,5.56.54,8.42,0.41,3.5-.16,3.91-3.15,5.13-5.77,6.17-13.2-.81-22.7-8.34-32.32-3.57-4.56,3.91-16.27,12.14-18.28a21.45,21.45,0,0,0,12.44-7.79c1-1.27,1.59-2.92.29-4.27-1.52-1.59-2.72,0-4,.74-10.35,6-12.79,5.5-20-4.49-3.43-4.72-5.85-.62-8.51.89-1.39.78-2.62,1.7-5.08,0.63l6.83-9.33c7.81-10.66,9.18-10.91,17.41-1.17,4.55,5.39,8.51,6.2,14.13,1.48,5.78-4.85,10.54-4.26,13.7,3.68,1.86,4.66,7.09,7.12,6.78,13.91-0.14,3.17,7.74,1.91,11.8,1.18,3.51-.64,6.52-3.63,5.07-7.65-2.13-5.89.48-7.77,4.76-11.82,3-2.83,4.57-6.69,5.47-10.88V144C338.25,143.92,340.46,139.7,339.75,137.28Z"/><path class="cls-2" d="M24.84,210.46c-0.51-.78-1-1.59-1.53-2.33-2.49-3.31-4.6-7.12-3.27-11.08,0.95-2.81,4.18-1.51,6.57-.8,4.58,1.36,10.55,1.16,9.33,8.71l3.79,3.77c2.06-.28,4.43.32,5.81-2-5.22-1-8.15-3.24-5-9,2.12-3.94-.73-6.28-3.58-7.31A111.83,111.83,0,0,1,4.35,172.51a26.6,26.6,0,0,1-3.48-3.44v33.48L1.42,203C8.08,208.62,15.53,212.73,24.84,210.46Z"/><path class="cls-3" d="M53.8,74.22c-1.17.6-.27,2.91,1.24,3.87,2.48,1.57,5.41,3.1,7.66.42,6.48-7.71,8.7-4.11,10.32,3.3a24.52,24.52,0,0,0,3.73,8.55c1.17,1.69,2.61,3.18,2.42,4.83a38.63,38.63,0,0,0,5.44-4.81c4-4.35,9.19-3.13,13.57.46,10.91,8.95,22.32,8.08,33.87,1.61,6.46-3.61,11.22.16,13.25,4.77,4.76,10.81,16.45,13.13,23.46,21,2.64,3,7.19,1.13,10.9,1.23s7.49,0.37,8.72,3.58c2.42-5.54,7.48-5.75,13.91-3.2a8.62,8.62,0,0,0-.88,1.5h0.39a8.63,8.63,0,0,0,.5-1.5h1.91c-1.52-1.05-2.95-2.81-4.57-3-5.79-.76-9.43-2.85-8.69-9.56s2.39-12.92,9-16.43c1.93-1,3.74-1,4.94.92,1.07,1.68-.16,2.4-1.53,3.55-8.65,7.25-8.29,10.63,1.23,16.64a56.66,56.66,0,0,1,5.13,4.09c1.06-4-6.27-8.2-1.48-12.21-4.23-6.64-3.56-8.63,3.27-10.05,4.85-1,9.82-.48,13.54,2.4,10.68,8.24,22.46,14.64,33.91,21.6,0-2.46-.13-4.93,0-7.37,0.33-4.77-.81-7.22-6.43-7.93-6.34-.79-11-5-14.5-10.81-4-6.66-9.23-12.5-18.33-7-3.4,2-5.86-1.49-8.86-1.56-10.44-.25-20.82.71-31.36-0.18-5.5-.46-8.14-1.35-9.43-6.11-1.66-6.19-5.45-8.76-11.8-8-6.55.82-8.29-2.81-7.41-8.52,0.29-1.85,1.68-4.95,1.15-5.3-11.92-7.81-3.07-19.17-5-28.61-0.43-2.1-1.38-4.58-2.9-4-4.29,1.61-6.56.57-8.12-1.43l-13.7,7.91a5.85,5.85,0,0,1,2.26-.29c7.37,0.33,3.51,8.6,3.87,13.31,0.53,6.9-.67,13.45,8.48,16.56,6,2,9.49,15.44,6.43,19.22-2.93,3.62-6.05,5.81-9.69.73-0.73-1-1.27-2.43-2.26-3-4.51-2.41-3.57-11.34-7.6-10.48-6.26,1.33.69,7.42-1.1,11.31-1.95,4.23-4.54,4.67-8.16,2-9.22-6.69-21.81-8.42-28.19-19.4-1.21-2.08-3.39.17-5.13,0.37h0c-1.51.82-1.76,2.24-1.8,3.77-0.81,2.74-2.81,3.77-5.45,3.9l-0.06.1q2.14,5.12,4.28,10.23C71.84,75,70.44,72,73.6,67.33c0-.22.1-0.43,0.16-0.64-1.2-2.35-3.14-3.73-5.81-3.49a14,14,0,0,1-4.66-.27l-7.13,4.12C58.12,69.19,59.32,71.42,53.8,74.22Zm33.78,3.09c5.05-3.28,10.14-4.44,15.88.59-1.71,1.09-2.41,1.83-3.24,2-4.37,1-8.75,4.15-13.22.52C85.87,79.54,86.45,78,87.58,77.32Z"/><path class="cls-3" d="M102.45,40.47l2.94,4.47c2.22-.93,2.19-3,2.87-4.72,0.6-1.5,1.55-2.9,3.4-2.55,2.07,0.39,1.53,2.36,1.9,3.8,0.53,2.06-1.32,5.89,2.91,5.41,2.45-.28,2.6-3.14,2.73-5.41,0.22-4-.74-9.71,2-12L102.44,40.32v0.14h0Z"/><path class="cls-3" d="M73.74,98.84a7.93,7.93,0,0,1-3.66-3.23,8,8,0,0,0-2.28-1.47c-2.24,3.52-1.36,6,1.12,7.94l0.12-.3C70.6,100.78,72.17,99.82,73.74,98.84Z"/><path class="cls-3" d="M179.66,119.47c-3.71-.11-8.26,1.73-10.9-1.23-7-7.89-18.7-10.2-23.46-21-2-4.6-6.79-8.38-13.25-4.77-11.55,6.47-23,7.33-33.87-1.61-4.38-3.59-9.55-4.81-13.57-.46a38.63,38.63,0,0,1-5.44,4.81,3.81,3.81,0,0,1-1.41,2.33c-1.52,1.38-2.84,1.67-4,1.32-1.56,1-3.14,1.94-4.7,2.94l-0.12.3a13.71,13.71,0,0,0,1.14.81h0C74,99.76,80,101.26,83,95.24c3.44-6.74,9.07-7.64,15.16-1.36,5.31,5.47,27.51,7.43,32.58,3.64,7.12-5.32,10.69-4.6,14.61,3.64,2.68,5.65,5.9,10.26,12.57,11.23,2.44,0.36,3.67,2,4.89,4,3.33,5.32,7.64,7.31,14.26,5.73,3.71-.88,10.19-3,10.08,5.23a17.32,17.32,0,0,1,1.18-4.27C187.15,119.84,183.43,119.58,179.66,119.47Z"/><path class="cls-3" d="M225.07,96.16c-3.73-2.88-8.7-3.41-13.54-2.4-6.84,1.42-7.5,3.41-3.27,10.05a10,10,0,0,1,1.64-1.12h0c-2.94-2.88-6.28-5.26,1.31-6.71,5.42-1,10.47-.28,14.06,2.84,10.19,8.84,21.93,14.92,33.75,21,0-.68,0-1.37,0-2.05C247.52,110.81,235.74,104.4,225.07,96.16Z"/><path class="cls-4" d="M330.94,298.06c-8.29,7.27-16.91,5.84-20.6-4.25-3-8.29-5.11-17.2-1.56-26.14,0.7-1.76,1.88-4-.14-5-1.3-.66-3.81,0-5.22.86-4.66,3-9.16,6.28-13.55,9.68-5.52,4.29-9.6,8.43-3.34,16,3.84,4.63,2.57,11.9,5.62,17.55,1.25,2.31-1.73,5-4.3,6.52-5.68,3.43-11.31,6.94-17.08,10.48,1.81,2,3.24,1.83,4.73,1,2.3-1.22,5.09-4.78,7.12-1.28,2.27,3.9-1.7,6.42-4.75,7.71a66.63,66.63,0,0,1-13.43,3.87c-5.45,1-4.95,3.75-2.65,7.26l0.09,0.13,80.38-46.41v-8.79l-5.79,4.46A62.26,62.26,0,0,1,330.94,298.06Z"/><path class="cls-5" d="M159.22,384.71c-16.13-10.13-34.31-16.16-50.23-26.8-10.78-7.2-18.64-16.17-25.86-26.49-5.9-8.43-11.54-18.09-24.37-16.86,11.15,5,15.89,15.23,20.52,25.39a11.25,11.25,0,0,1,.59,1.75l91.7,52.94,7.23-4.17a4.08,4.08,0,0,1-1,0C171.14,389.68,164.35,387.93,159.22,384.71Z"/><path class="cls-5" d="M182.15,388.53l4.07-2.35C184.57,385.91,183.44,387.26,182.15,388.53Z"/><path class="cls-6" d="M288.12,303c-0.18-.47-0.33-0.95-0.48-1.43a45.92,45.92,0,0,0,1.15,5.51A8.55,8.55,0,0,0,288.12,303Z"/><path class="cls-6" d="M339.61,227.32c-4.31,3-5.79,6.63-5.59,12,0.23,6.05-4.33,8.79-9.92,9.19-5.36.38-11.19,1-12.17-6.77-0.47-3.69-3.44-5.91-5.06-8.9-3.09-5.7-7-6.59-12.31-2.94s-9.75,3-14.34-1.48c-8.39-8.17-8.51-8-15.87,1a27,27,0,0,1-3.51,3.57c5.5-2.95,8.86-2.49,11.16,1.29,4.22,6.94,9.79,6.82,16.2,3.4,2.45-1.31,5.33-3.1,7.37.4,1.68,2.89,0,5.45-1.83,7.7-2.92,3.53-7,5.09-11.1,6.82-11.73,5-13.86,11.17-6.59,21.54,6.5,9.28,8,18.26,3,28.74-3.68,7.63-12.66,9.61-18.12,3-2.21-2.66-4-5.61-7.1-7.43-9.15-5.42-13.24-13.75-14.32-24.09s-2.7-11.14-11.76-6.64c-3.62,1.8-7.29,2.34-10.63-.33s-1.16-5.63.31-8.36c2.4-4.46,1.47-7.83-3.18-10-1.93-.91-4.34-1.26-4.77-4a2.69,2.69,0,0,1,.26-0.47l-1.37-3.32h0a2,2,0,0,1-.43-0.12c-3.06-3.92-6.29-7.7-9.38-11.31,2.31,4.19,3,8.71-2,11.54s-9,.58-11.85-4a26.75,26.75,0,0,0-4.45-4.8c-2.17-2.11-4.2-5.8-7.57-4.46-4.56,1.82-.73,6.1-1.83,8.7,0.75,1.08,1.28,1.24,1.9.91,3.64-1.95,7.42-4.17,11.08-.4,1.67,1.72,1.25,4.26,0,6.15-3.14,4.59-6.74,8.46-13.11,5.51a2.19,2.19,0,0,1-.55-0.72h0v0l0,0a2.84,2.84,0,0,1,.52.77c-1.26,5.11,3.11,6.17,5.95,8.37s5.61,4.77,3.78,8.67-5.73,3.64-9.11,3c-8.28-1.61-13.86-8.23-21.08-11.88l-0.72-1.23c-17.93,1.6-30.82-8.8-43.52-19.41-2.22-1.85-3.72-4.66-6.94-2.63-2.35,1.48-4.68,3.35-3.47,6.87,0.68,2,2.06,4.54-1.16,5.38-2.85.74-3-2.66-4.54-3.87-7.77-6-7-9.23,2.75-11.44,7.39-1.67,3.38-8.14,3.83-12.65h0c-2.5-2.66-5.1-5.72-7.19.27-3.37,9.68-11.36,9.58-19.36,9.08-3.51-.22-6.47-1.81-3.89-6.07,1.6-2.65-.18-2.56-1.76-3.73-5.5-4.09-10.22-8.13-9.2,3.78,0.42,5-3.54,6.89-8.07,8.72a4.71,4.71,0,0,0-.47,1.45c4.67,2,9.58-.79,12.4,3.35h0l5.79,7.56c6.05,1.57,7.78,6.63,9.34,11.73,1,3.19,3.33,5,4.92,1.55,5.31-11.37,8.29-1.35,11.86,1.06,2.61,1.75,1.77,5.2,2.69,7.82,0.62,1.76.59,4.94,1.54,5.22,8.15,2.48,11.49,8.36,13.32,16.11,0.52,2.22,3.4,1.19,4.31-.69s0.86-4.33,1.77-6.27c1.69-3.62,3.31-8.75,8.23-7.48,5.27,1.36,2.9,6.23,1.72,9.52-1.45,4,.19,5.21,3.49,7.08,5.35,3,11.74,4,16.21,9,3.31,3.72,4.47-.24,5.48-2.88,2-5.3,5.1-6.13,11-5.12,10.75,1.85,18.07,9.48,27.28,13.76,1.55,0.72,3.19,2.53,1.36,4.61-7.9,9,4.94,15.58,2.85,24.18-0.44,1.8,3.53,1.18,5.38-.15,2.74-2,4.76-.57,6.46,1.46s1.68,4-.44,5.77c-4.71,3.85-1.61,7.71.62,10.71,6.33,8.52,4.93,14.92-4.18,20-2,1.1-3.57,2.64-2.66,5.26,2.88,3.31,10-8,12-1.88l51.16-29.54c-3.82-6.95-1.87-8.73,8.19-11.64,3.31-1,6.79-1.49,9.53-4-0.54-2.62-2.22-.65-3.26-0.68-2.31-.07-4.63-0.07-5.1-2.93-0.35-2.16,1.25-3.5,2.89-4.46,4.07-2.38,8.35-4.37,12.24-7.11a9.6,9.6,0,0,0,3.49-3.82c-8.64-3.46-7-7.66-3.39-12.95a8.78,8.78,0,0,1,2,3.2c-0.8-3.58-1.3-7.28-3.31-10.32-4.31-6.53-2-11.2,3.07-15.56,4.78-4.09,10.12-7.46,15.22-11.12,2.27-1.63,5.36-2.65,7.93-.55,2.25,1.83,1.74,4.61.9,7-2.29,6.59-.74,13.2.31,19.61,1.95,11.93,10.15,14.57,19.69,6.8a40.71,40.71,0,0,0,3.29-3.17c-4.51-.88-6.63-6-10.85-7.41h0a14.63,14.63,0,0,1-6-6.76c-1.54-3.35-2.21-6.36.55-9.36,1.78-1.94,3.9-3.33,6.51-2.44,4.13,1.41,2.16,5.19,2.61,8,0.3,1.83.21,3.71,2,4.85,4.4,1.59,8.58,4,13.37,4.15V258a6.7,6.7,0,0,1,0-3.75V222.09C341.95,224.12,341.31,226.15,339.61,227.32Zm-98,88.1c-3.46,1.46-9.1-1.08-9.25-4.34-0.64-13.53-9.81-22.58-18.56-34.43,10.67,1.61,17.76,2,19.44,12.68,1,6.06,5.77,11.46,8.53,17.31C243.12,309.49,246.12,313.53,241.62,315.42Z"/><path class="cls-6" d="M332.06,238.19c1.45,4-1.56,7-5.07,7.65-4.06.74-11.95,2-11.8-1.18,0.31-6.8-4.92-9.25-6.78-13.91-3.16-7.93-7.92-8.53-13.7-3.68-5.62,4.71-9.58,3.91-14.13-1.48-8.23-9.74-9.6-9.49-17.41,1.17l-6.83,9.33c2.45,1.06,3.69.15,5.08-.63,2.66-1.5,5.08-5.6,8.51-.89,7.26,10,9.7,10.51,20,4.49,1.3-.76,2.5-2.33,4-0.74,1.3,1.35.7,3-.29,4.27a21.45,21.45,0,0,1-12.44,7.79c-8.22,2-15.7,13.71-12.14,18.28,7.52,9.62,14.5,19.12,8.34,32.32-1.23,2.62-1.63,5.61-5.13,5.77-2.86.13-6.81,3.69-8.42-.41-2.69-6.87-9-9.14-13.82-13.42s-8.15-10.31-8-17.28c0.08-4.88-.5-9.43-3.94-13.16-6.43-7-7.84,2-11.55,3.66-3,1.38-6.43,2.07-8.86-.29-2.9-2.82.8-4.48,2.35-5.85,3.49-3.08,1.76-5.8.69-9.22-1.85-5.88-7.73-3.09-10.87-5.85l-0.17-.4a2.69,2.69,0,0,0-.26.47c0.43,2.72,2.85,3.06,4.77,4,4.66,2.21,5.58,5.58,3.18,10-1.47,2.73-3.76,5.6-.31,8.36s7,2.13,10.63.33c9.05-4.49,10.67-3.72,11.76,6.64s5.17,18.67,14.32,24.09c3.07,1.82,4.9,4.77,7.1,7.43,5.46,6.59,14.44,4.6,18.12-3,5.06-10.47,3.52-19.45-3-28.74-7.27-10.38-5.14-16.57,6.59-21.54,4.09-1.74,8.18-3.29,11.1-6.82,1.86-2.25,3.51-4.82,1.83-7.7-2-3.51-4.92-1.71-7.37-.4-6.41,3.42-12,3.54-16.2-3.4-2.3-3.79-5.66-4.24-11.16-1.29a27,27,0,0,0,3.51-3.57c7.36-9,7.49-9.12,15.87-1,4.59,4.47,9.2,5,14.34,1.48s9.22-2.76,12.31,2.94c1.62,3,4.59,5.21,5.06,8.9,1,7.73,6.81,7.15,12.17,6.77,5.59-.39,10.15-3.13,9.92-9.19-0.2-5.35,1.27-9,5.59-12,1.7-1.17,2.34-3.2,2.67-5.22v-6.6c-0.9,4.19-2.48,8-5.47,10.88C332.54,230.41,329.93,232.29,332.06,238.19Z"/><path class="cls-6" d="M183.79,243.39c1.29-1.89,1.71-4.43,0-6.15-3.66-3.77-7.44-1.54-11.08.4-0.62.33-1.16,0.17-1.9-.91,1.1-2.6-2.73-6.88,1.83-8.7,3.37-1.34,5.4,2.34,7.57,4.46a26.75,26.75,0,0,1,4.45,4.8c2.85,4.58,6.88,6.81,11.85,4s4.3-7.34,2-11.54c3.09,3.61,6.31,7.39,9.38,11.31a1.93,1.93,0,0,0,.43.12h0c-0.61-9.37-9.67-11.84-13.92-19.12-1.63,3.5.07,5,1,6.39,2.52,3.82,5.7,8,.38,11.26-4.85,3-7.83-.92-10.61-4.75a85.85,85.85,0,0,0-8.89-9.67,4.23,4.23,0,0,0-6-.36c-2,1.53-4.7,3.45-2.79,6.11,2.7,3.76.41,7.57,0.33,12.16,2.37-1.12,3.91-1.52,5-2.45,2.43-2,4.53-4.53,8.21-3.47a2.61,2.61,0,0,1,1.91,3.65,11.85,11.85,0,0,1-7.23,7c-1.71.57-3.72,0.22-5.6,0.29a2.19,2.19,0,0,0,.55.72C177.05,251.84,180.65,248,183.79,243.39Z"/><path class="cls-6" d="M150.14,257.11c7.21,3.65,12.79,10.27,21.08,11.88,3.38,0.66,7.32.85,9.11-3s-0.95-6.48-3.78-8.67-7.2-3.26-5.95-8.37a2.84,2.84,0,0,0-.52-0.77c-3.69,3.45-8.87,6.94,1.33,8.58,2.23,0.36,4.23,2.52,6.21,4a3.78,3.78,0,0,1,1.6,4.08c-0.47,1.83-2,2.08-3.62,2.26-3.9.45-7.88-.13-10.51-2.82-4-4.08-8.93-6.26-13.87-8.6-0.61.08-1.19,0.11-1.79,0.16Z"/><path class="cls-6" d="M264.46,335.09a66.63,66.63,0,0,0,13.43-3.87c3-1.28,7-3.81,4.75-7.71-2-3.5-4.82.06-7.12,1.28-1.49.79-2.92,1-4.73-1,5.76-3.54,11.4-7.05,17.08-10.48,2.56-1.55,5.54-4.21,4.3-6.52-3.05-5.66-1.78-12.92-5.62-17.55-6.26-7.54-2.18-11.69,3.34-16,4.38-3.4,8.89-6.68,13.55-9.68,1.41-.91,3.92-1.52,5.22-0.86,2,1,.84,3.22.14,5-3.55,8.93-1.47,17.84,1.56,26.14,3.69,10.09,12.31,11.52,20.6,4.25a62.26,62.26,0,0,0,5.55-6.31,7.36,7.36,0,0,1-2.43-.07,40.71,40.71,0,0,1-3.29,3.17c-9.54,7.76-17.74,5.12-19.69-6.8-1-6.41-2.6-13-.31-19.61,0.84-2.43,1.35-5.2-.9-7-2.57-2.09-5.66-1.08-7.93.55-5.1,3.66-10.43,7-15.22,11.12-5.09,4.36-7.38,9-3.07,15.56,2,3,2.5,6.74,3.31,10.32a16,16,0,0,1,.68,2.59c0.15,0.48.3,1,.48,1.43a8.55,8.55,0,0,1,.67,4.08,17.18,17.18,0,0,0,.81,2.13c-0.45-.16-0.85-0.32-1.25-0.48a9.6,9.6,0,0,1-3.49,3.82c-3.88,2.74-8.17,4.73-12.24,7.11-1.64,1-3.24,2.31-2.89,4.46,0.47,2.86,2.78,2.86,5.1,2.93,1,0,2.72-1.93,3.26.68-2.73,2.54-6.22,3.07-9.53,4-10.06,2.91-12,4.69-8.19,11.64l1.53-.88-0.09-.13C259.51,338.84,259,336.12,264.46,335.09Z"/><path class="cls-6" d="M342.28,258v-3.75A6.7,6.7,0,0,0,342.28,258Z"/><path class="cls-7" d="M322,87.24C317.77,93,311.64,96.91,303.54,94c-11.26-4.07-21-10.5-30-18.31-5.59-4.81-13.17-5.44-19.92-3.53-3.5,1-5.09.55-7.08-1.65-11-12.17-23.05-23.44-27.79-40.14-0.35-1.22-.65-2.29-0.91-3.26l-14.57-8.41a8.58,8.58,0,0,1-5.6-3.23L171.58,0.41,139,19.24a3.41,3.41,0,0,0,1.27.38c10.31,0.87,9.93,8.56,9,15.31-0.81,6.16,1.41,11.08,2.54,16.62,2,10,5.25,16.14,15.71,17.29a2.11,2.11,0,0,1,1.36,1.26c6.17,14.18,18.77,11.33,29.9,10.56,9.4-.65,18.57,2.12,28.13.23,5.38-1.07,9.56,4.12,12.64,8.63s6.76,8.14,12,10.13c10.16,3.83,12.07,8.1,8.08,18.53l0.06,0c1.68,1.62,3.25,3.34,4.76,5.12l0.09,0.11c8.39-1,9.25-3.1,5.12-11-2.85-5.44-3-11.47-4.54-17.18-1.1-4,2.56-6.28,5.28-8.16,3.3-2.29,5.61.91,6.81,3,3.75,6.68,7.67,13.48,2.47,21.47-3.13,4.81.83,10.58,8.72,11.68,6.37,0.88,12.39-.06,19.19-2a332.62,332.62,0,0,1,34.67-8.16V99Z"/><path class="cls-7" d="M262.76,123.62l1.81-.19-0.09-.11c-1.51-1.78-3.08-3.5-4.76-5.12l-0.06,0c-0.21.54-.41,1.07-0.65,1.64Z"/><path class="cls-7" d="M203.24,18.69l-5.6-3.23A8.58,8.58,0,0,0,203.24,18.69Z"/><path class="cls-7" d="M144.16,22.36c1.53-.57,2.48,1.91,2.9,4,1.93,9.44-6.92,20.8,5,28.61,0.54,0.35-.86,3.45-1.15,5.3-0.88,5.71.86,9.34,7.41,8.52,6.34-.79,10.13,1.77,11.8,8,1.28,4.77,3.93,5.65,9.43,6.11,10.54,0.89,20.92-.07,31.36.18,3,0.07,5.46,3.6,8.86,1.56,9.09-5.46,14.28.39,18.33,7,3.52,5.79,8.15,10,14.5,10.81,5.62,0.7,6.76,3.16,6.43,7.93-0.17,2.45-.09,4.91,0,7.37l0.68,0.41c4-10.43,2.08-14.7-8.08-18.53-5.28-2-8.94-5.59-12-10.13s-7.27-9.7-12.64-8.63c-9.55,1.89-18.72-.87-28.13-0.23-11.13.77-23.73,3.62-29.9-10.56a2.11,2.11,0,0,0-1.36-1.26c-10.45-1.15-13.66-7.28-15.71-17.29-1.13-5.54-3.34-10.46-2.54-16.62,0.88-6.76,1.26-14.45-9-15.31a3.41,3.41,0,0,1-1.27-.38L136,20.93C137.6,22.92,139.87,24,144.16,22.36Z"/><path class="cls-7" d="M259,119.82c0.24-.57.44-1.11,0.65-1.64l-0.68-.41C259,118.45,259,119.13,259,119.82Z"/><path class="cls-8" d="M244.95,65.44c2.61,3.14,5.86,4,10,3.78,8.54-.36,16.32,1,23.38,7.45A69.84,69.84,0,0,0,301.63,90.8c7.43,2.65,13.43.86,17.81-5L221.09,29c0.22,0.81.47,1.66,0.72,2.53C225.85,45.48,236.17,54.88,244.95,65.44Z"/><path class="cls-8" d="M246.51,70.5c2,2.2,3.58,2.65,7.08,1.65,6.75-1.91,14.33-1.29,19.92,3.53,9.06,7.8,18.77,14.24,30,18.31,8.1,2.93,14.22-1,18.43-6.75l-2.52-1.46c-4.38,5.87-10.38,7.66-17.81,5a69.84,69.84,0,0,1-23.26-14.12c-7.07-6.42-14.84-7.8-23.38-7.45-4.18.17-7.44-.65-10-3.78-8.77-10.56-19.09-20-23.13-33.91-0.25-.87-0.5-1.72-0.72-2.53l-3.28-1.89c0.26,1,.57,2,0.91,3.26C223.46,47.06,235.52,58.33,246.51,70.5Z"/><path class="cls-9" d="M98.9,47.33c2.26-.43,2.92-1.94,3.2-3.66-0.38-.8-0.72-1.69-1.08-2.52L94.29,45C95.47,46.46,96.87,47.72,98.9,47.33Z"/><path class="cls-9" d="M102.45,40.46h0V40.32l-1.43.82c0.36,0.84.7,1.72,1.08,2.52C102.27,42.62,102.3,41.49,102.45,40.46Z"/><path class="cls-10" d="M292.19,126.53c-13.29-3.09-16-6.12-13.32-19.43,0.84-4.2-.15-8.15-1.95-11.89-1.09-2.26-2.55-4.79-5.64-3.78s-2.86,3.82-2.7,6.37c0.37,5.75,2.6,11,4.64,16.25,1.19,3.09,1.18,6.31-1.25,8.85-1.85,1.94-3.91,2.76-6.06,2.29,7.16,9.64,10.38,19.51,2.85,31.51-5.13,8.17-.65,16.6,8.59,19.88,7.73,2.75,15.44,2,23.24.9,1.26-.17,2.93-0.41,3.4-1.39,6.5-13.52,23.72-18.55,26.92-34.94,1.6-8.2,5.44-9.26,11.37-3.88V116.22c-9.51,1.61-19,3.4-28.35,5.9C306.88,124,300.55,128.47,292.19,126.53Z"/><path class="cls-10" d="M330.91,141.17c-3.2,16.39-20.42,21.42-26.92,34.94-0.47,1-2.15,1.21-3.4,1.39-7.8,1.08-15.5,1.85-23.24-.9-9.24-3.29-13.71-11.72-8.59-19.88,7.53-12,4.31-21.87-2.85-31.51a7.62,7.62,0,0,1-3.16-1.57,32,32,0,0,0,2.19,4c7.3,9.76,7.51,16.78.75,27.23-3.15,4.87-.82,19.23,3.78,21.57,10.41,5.29,21.51,5.13,32.78,3.9,7.31-.8,7.09-8.1,10.82-12,3.88-4,6.82-8.73,12.39-11,5.35-2.2,6.09-7.68,7-12.54,0.54-2.78.46-5.71,2.33-8,1.7-2,4-2.6,4.92.5,0.71,2.42-1.5,6.65,2.53,6.69v-6.68C336.35,131.91,332.51,133,330.91,141.17Z"/><path class="cls-10" d="M288.42,123.3c-7.89-1.09-11.84-6.87-8.72-11.68,5.2-8,1.28-14.79-2.47-21.47-1.2-2.13-3.5-5.33-6.81-3-2.72,1.88-6.38,4.14-5.28,8.16,1.56,5.71,1.69,11.74,4.54,17.18,4.13,7.9,3.27,10-5.12,11,0.46,0.59.92,1.17,1.35,1.76,2.15,0.46,4.21-.35,6.06-2.29,2.43-2.54,2.44-5.77,1.25-8.85-2-5.29-4.27-10.5-4.64-16.25-0.16-2.55-.27-5.39,2.7-6.37s4.56,1.51,5.64,3.78c1.8,3.73,2.78,7.69,1.95,11.89-2.66,13.31,0,16.35,13.32,19.43,8.36,1.94,14.69-2.52,21.73-4.4,9.36-2.5,18.84-4.29,28.35-5.9v-3a332.62,332.62,0,0,0-34.67,8.16C300.81,123.24,294.79,124.18,288.42,123.3Z"/><path class="cls-10" d="M265.92,125.2c-0.44-.59-0.89-1.17-1.35-1.76l-1.81.19A7.62,7.62,0,0,0,265.92,125.2Z"/><path class="cls-7" d="M89.42,59c6.08,7.81,15.19,10.76,23.49,15.09,4.24,2.21,7.28,3.12,6.74-3.48-0.27-3.3,0-6.81,3.83-7.53,3.34-.62,4.54,2.68,5.94,5.1a8.6,8.6,0,0,0,.93,1.63c2.75,3,4.52,9.66,9.54,6.36,5.25-3.45,1.45-10.13-1.7-12.08C126.37,56.83,125.68,45.76,125.75,34c0-.65-0.63-1.05-1.79-1.34-3.51,2.8-1.8,7.35-3,10.95-1.92,5.73-4.69,6.43-9,2-1-1-.93-3.38-3.15-1.43-3,2.66-4.66,2.38-5.79,1a4.67,4.67,0,0,1-2.92,3.24C97,49.89,94.6,48.09,92.58,46l-10.75,6.2c-0.12,1.7-.37,3.44-0.5,5.12C84.45,55.69,87.29,56.3,89.42,59Z"/><path class="cls-7" d="M74.23,65.25a13,13,0,0,0-.47,1.44c0,0.08.09,0.15,0.12,0.23H74c0.9-1.37,1.91-2.67,2.79-4.06-2.44-.47-3.92-1.92-1.7-4.93a14.63,14.63,0,0,0,1.62-2.73L67,60.81q0.76,0.18,1.57.29C71.07,61.47,73.3,62.55,74.23,65.25Z"/><path class="cls-7" d="M24.89,95a11.85,11.85,0,0,1-1.35,0,10.81,10.81,0,0,0,9.19.35c2.16-.81,3.83-2.46,5.81-3.6A18.66,18.66,0,0,1,34.76,79.4l-9.58,5.53c2.14,2.45,2.61,5.58,2.68,8.68C27.88,94.07,26,94.95,24.89,95Z"/><path class="cls-7" d="M23.37,97.56c7,2.55,11.77.24,16.5-4.17-0.49-.55-0.93-1.1-1.34-1.65-2,1.14-3.66,2.79-5.81,3.6A10.81,10.81,0,0,1,23.53,95c-2.81-.19-5.08-1.47-5.89-4.62-0.08-.32-0.13-0.64-0.2-1l-2.07,1.2C15.89,93.75,18.65,95.85,23.37,97.56Z"/><path class="cls-7" d="M74,66.91c2.64-.13,4.65-1.16,5.45-3.9a11.69,11.69,0,0,1-2.66-.16C75.89,64.24,74.88,65.54,74,66.91Z"/><path class="cls-7" d="M119.2,41.47c-0.13,2.27-.28,5.13-2.73,5.41-4.23.48-2.38-3.34-2.91-5.41-0.37-1.44.17-3.41-1.9-3.8-1.84-.35-2.79,1-3.4,2.55-0.68,1.7-.65,3.79-2.87,4.72l-2.94-4.47a8.51,8.51,0,0,1,.6,4.77c1.12,1.36,2.75,1.64,5.79-1,2.22-1.95,2.2.45,3.15,1.43,4.27,4.38,7,3.68,9-2,1.21-3.6-.51-8.15,3-10.95,1.16,0.29,1.79.69,1.79,1.34-0.07,11.77.63,22.84,12.45,30.15,3.15,1.95,6.95,8.63,1.7,12.08-5,3.3-6.79-3.41-9.54-6.36a8.6,8.6,0,0,1-.93-1.63c-1.4-2.42-2.6-5.72-5.94-5.1-3.86.72-4.09,4.22-3.83,7.53,0.53,6.6-2.5,5.69-6.74,3.48-8.3-4.32-17.4-7.27-23.49-15.09-2.13-2.74-5-3.35-8.1-1.69-0.05.64-.08,1.27-0.09,1.89,1.74-.2,3.93-2.45,5.13-0.37,6.38,11,19,12.71,28.19,19.4,3.63,2.63,6.22,2.18,8.16-2,1.79-3.89-5.16-10,1.1-11.31,4-.85,3.09,8.08,7.6,10.48,1,0.53,1.53,1.94,2.26,3,3.63,5.08,6.76,2.88,9.69-.73,3.06-3.78-.45-17.19-6.43-19.22-9.15-3.11-8-9.66-8.48-16.56-0.36-4.71,3.51-13-3.87-13.31a5.85,5.85,0,0,0-2.26.29l-1.15.67C118.46,31.76,119.43,37.51,119.2,41.47Z"/><path class="cls-7" d="M67.95,63.2c2.67-.25,4.61,1.13,5.81,3.49a13,13,0,0,1,.47-1.44c-0.93-2.7-3.15-3.79-5.69-4.15Q67.73,61,67,60.81l-3.68,2.13A14,14,0,0,0,67.95,63.2Z"/><path class="cls-7" d="M100.13,48.48a4.67,4.67,0,0,0,2.92-3.24,7.49,7.49,0,0,1-1-1.57c-0.28,1.73-.94,3.23-3.2,3.66-2,.39-3.43-0.87-4.61-2.3l-1.72,1C94.6,48.09,97,49.89,100.13,48.48Z"/><path class="cls-7" d="M102.45,40.47h0c-0.15,1-.18,2.16-0.35,3.21a7.49,7.49,0,0,0,1,1.57A8.51,8.51,0,0,0,102.45,40.47Z"/><path class="cls-11" d="M147.24,181.36c-3.38,4.35-5.38,11.34-12.35,10.07A47.77,47.77,0,0,1,111,179.91c-0.49-.44.31-2.29,0.51-3.49h0c-11.06-.88-20.26-6.57-29.74-11.52,2.4,3.76,3.68,6-3.06,6.36-5.19.27-11.8-1-15.49,4.28-1.91,2.74-6.56,6-3.26,9.76C65,191.07,67,200.57,77,201.07c2.4,0.12,5.87-.78,6.57,2.13,0.9,3.74-3.09,2.71-5.07,3.61-3.35,1.54-2.21,3.76,0,4.73,3.83,1.72,4.73,5,5.8,9.48,0.47-.5.94-1,1.42-1.64,2.72-5,4.83-9.72,10.46-11.79,2,2.65.65,5.4,0.21,8.05a16.91,16.91,0,0,1,1.4,2.12c1.83,6.67,1.55,12.49-5.88,15.79-4.7,2.08-3.21,4.46.55,7.27C93.88,237,95.26,233,99.67,232c5-1.13,6.82,3.58,10.18,5.48,11.26,6.36,20.85,16.56,35.27,16.1a9.33,9.33,0,0,1,3.28.45c-3.17-5.94-2-7.44,5.45-11.11,4.61-2.25,4.39-4.5,5-9.69,1.37-12.2.06-18.8-13.25-21.87-6.11-1.41-5.92-8.73-1.31-16.8,0.29-.37.3-0.48,0.27-0.5s-0.09,0-.07,0,0,0,.07,0l0.35-.17a5,5,0,0,0,1.64-1.45c0.39-.8.86-1.59,1.3-2.39,0.45-1.1.82-2.26,1.29-3.3C149.38,185.14,149,183.39,147.24,181.36Zm-29,28.89c-2,0-3.72-.9-3.58-3.13a3,3,0,0,1,1.82-2.63c4.17,0.08,6.24.49,6.3,2.73C122.91,210.12,120.5,210.3,118.29,210.25Z"/><path class="cls-11" d="M144.87,193.9l-0.35.17s0,0.14-.27.5c-4.61,8.07-4.8,15.39,1.31,16.8,13.3,3.07,14.62,9.67,13.25,21.87-0.58,5.19-.36,7.44-5,9.69-7.5,3.67-8.62,5.16-5.45,11.11a7.62,7.62,0,0,1,2.82,1.67c-4.16-6.14-2.31-9.5,4.68-11.32,2.9-.75,5.5-2.88,8.07-4.63,1.64-1.11,3-3.59.32-4.17-8.31-1.75-3.26-6.43-2.37-9.84,1.81-7-1.56-14-7.44-14.56-12.21-1.14-14.42-5.09-8.79-15.65a6.86,6.86,0,0,1,.84-3.1A5,5,0,0,1,144.87,193.9Z"/><path class="cls-11" d="M149.11,186.76c-0.47,1-.85,2.2-1.29,3.3A10.64,10.64,0,0,0,149.11,186.76Z"/><path class="cls-11" d="M145.11,253.59c-14.41.46-24-9.74-35.27-16.1-3.36-1.9-5.2-6.6-10.18-5.48-4.4,1-5.79,5-7.23,8.81-3.75-2.81-5.25-5.19-.55-7.27,7.44-3.29,7.71-9.12,5.88-15.79a16.91,16.91,0,0,0-1.4-2.12,6.4,6.4,0,0,0,0,2.48h0c-0.45,4.51,3.57,11-3.83,12.65-9.8,2.21-10.52,5.41-2.75,11.44,1.56,1.21,1.68,4.62,4.54,3.87,3.23-.84,1.85-3.39,1.16-5.38-1.21-3.52,1.12-5.39,3.47-6.87,3.22-2,4.72.78,6.94,2.63,12.7,10.61,25.59,21,43.52,19.41-0.38-.65-0.72-1.27-1-1.83A9.33,9.33,0,0,0,145.11,253.59Z"/><path class="cls-11" d="M85.7,219.38c-0.48.59-1,1.15-1.42,1.64l0.14,0.59C84.87,220.87,85.29,220.12,85.7,219.38Z"/><path class="cls-11" d="M149.41,255.88c0.6-.05,1.18-0.08,1.79-0.16a7.62,7.62,0,0,0-2.82-1.67C148.69,254.61,149,255.22,149.41,255.88Z"/><path class="cls-12" d="M232.3,156.94c-3.45,1.34-4.33-1.94-5.62-4.53-2.69-5.39-3.48-12-9.26-15.54h0c-9.72-1.32-16.35.93-17.47,12.47-0.43,4.49-4.54,0-6.9.59,0.89,3.19,1.56,6.46,2.72,9.54,1.23,3.27.48,4.73-1.26,5.36,1.25,0.74,2.35,1.56,2.29,2.81-0.49,11.16,8.33,16.33,14.8,22.43,8.37,7.89,19.46,7.07,28.05-.49,10-8.78,13.9-19.34,16.7-32.91C260,139,251.3,132,240.22,124a4.34,4.34,0,0,0-2.9-1.38,29,29,0,0,1,1,11.82c-0.39,2.91-1.22,5.89-4.55,6.34-3,.41-4.22-2.14-5.07-4.6l-0.13-.41c0.24,5,2.11,9.55,4.65,14C234.56,152.14,235.82,155.57,232.3,156.94Z"/><path class="cls-12" d="M228.58,135.75l0.13,0.41c0.85,2.46,2.07,5,5.07,4.6,3.33-.46,4.16-3.43,4.55-6.34a29,29,0,0,0-1-11.82,4.34,4.34,0,0,1,2.9,1.38c11.09,8,19.82,15,16.15,32.7-2.81,13.56-6.73,24.13-16.7,32.91-8.59,7.56-19.68,8.38-28.05.49-6.47-6.1-15.3-11.27-14.8-22.43,0.06-1.26-1-2.07-2.29-2.81a10.9,10.9,0,0,1-3.59.44h0c1.17,2,7,1.88,2.68,6.36a2.82,2.82,0,0,0,.6,4.22c7.82,4.94,10.94,14.51,19.4,19,7.22,3.83,18.76,4.46,24.71-.9,11.18-10.07,23.08-20.08,19.07-38-0.29-1.31.47-3.12,1.26-4.37,5.24-8.29.52-14.38-4.69-20-2.72-2.91-6.47-4.9-9.86-7.15s-5.87-8.41-9.21-6.69c-5.53,2.86,2.89,6.28,1.54,10.39-1.19,3.61,2.08,9.6-2.75,10.81-4.31,1.08-1.49-6.09-4.86-7.76A22.13,22.13,0,0,0,228.58,135.75Z"/><path class="cls-13" d="M13.71,220c1.73-.27,4.17-0.42,4.5,2.11,0.22,1.64-1.37,2.68-2.83,3.4-0.56.28-1.14,0.55-1.67,0.87-11.86,7.27-11.88,8.16-.4,15.39,1.32,0.83,2.58,1.77,3.87,2.66h0c0.3-6.15-1.77-13.47,7.57-15.08,3.43-.73,8.36,2.2,9.58-3.93,0-2-.37-4.15,1.79-5.45h0a5.1,5.1,0,0,0,0-5.72h0a13.49,13.49,0,0,1-7.87-3.69h0l-2.52-.09a5.11,5.11,0,0,1-.16.85c-8.2,5.92-16.19.88-21.15-3.59-1.15-1-2.33-2-3.52-2.89v9.23C4.48,217.58,7.91,220.94,13.71,220Z"/><path class="cls-13" d="M25.54,211.34a5.11,5.11,0,0,0,.16-0.85l-0.85,0h0c-9.31,2.27-16.76-1.84-23.42-7.44l-0.55-.48v2.31c1.19,0.91,2.37,1.86,3.52,2.89C9.35,212.22,17.33,217.26,25.54,211.34Z"/><path class="cls-14" d="M42.54,197.15c-1.35,4.33,1.6,6.58,3.18,9.52,2.46-1.41,5.3-1.3,7.9-2,5.83-1.58,6.91-7,2.79-11.58-3.77-4.19-7.42-8.5-11.13-12.76h0c-3.83-.19-8.91,1.73-10.25-3.64-1-4.16,2-6.13,6.21-5.75,1.45-8.16.24-16.37,0.42-24.56h0v-0.05h0c-3.71-5.34-.61-11.41-1.82-17l-1.54-1.83c-4.28,1.35-5.61-4.9-10.8-3.69,2,5.66,1,11.59,2.62,17.39,2,7.45.12,10.35-7.88,10.9-7.13.49-14.33,0.66-21.38-.84v14.61C11,176,23.37,183.22,37.06,188.57,40.88,190.06,43.88,192.85,42.54,197.15Z"/><path class="cls-14" d="M22.25,152.06c8-.55,9.91-3.44,7.88-10.9-1.58-5.79-.6-11.73-2.62-17.39,5.2-1.22,6.53,5,10.8,3.69l-0.16-.19h0c-4.06-3.76-6.85-10.5-15.08-5.88,5.51,5.74,1.38,13.66,4.35,19.46,4.44,8.67-.64,9.18-6.38,9.08-6.72-.11-13.56.67-20.17-1v2.24C7.93,152.72,15.12,152.55,22.25,152.06Z"/><path class="cls-14" d="M4.35,172.51a111.83,111.83,0,0,0,32.58,17.93c2.85,1,5.7,3.38,3.58,7.31-3.11,5.77-.18,8,5,9h0l0.18-.09c-1.59-2.94-4.53-5.19-3.18-9.52s-1.66-7.09-5.48-8.58C23.37,183.22,11,176,.87,165.83v3.25A26.6,26.6,0,0,0,4.35,172.51Z"/><path class="cls-15" d="M52.38,220.12c0.76-3.18-.1-7.84,4.33-8.35,4.6-.53,8.53,2.6,11,6.11,5.46,7.73,10.38,9.16,15.92,3.77-1.29-.83-2.6-2.93-4-5.21-2.4-4-8.42-7.12-1.12-12.71-9.38-1.17-13.73-7.41-18-13.58-5.36-7.7-2.46-16.29,6.55-19.23,3.84-1.25,7.9-2.47,11.94-2.15s1.27-3,2.5-4l-1.89-1.49c-12.4,3.12-15.76,1.42-20.82-10.35-1-2.27-2.54-4.28-3.46-6.56-1.49-3.69-1.87-8.85-6.82-9-5.16-.12-1.53,6-4.23,8a3.43,3.43,0,0,1-.93.46,20.22,20.22,0,0,1,.5,2.24c-0.22,7.67,2.4,15.37-.18,23a4.65,4.65,0,0,1-1.82,1.32c1.6,2.17,5.73,3.24,4.06,6.81a3.88,3.88,0,0,1,.5.26,40.75,40.75,0,0,1,9.31,9c2.94,3.65,8.23,6.62,4.84,12.6s-8.49,7.39-14.76,5.73c0.07,0.14.15,0.28,0.21,0.42-0.85,2.87-3,3.12-5.41,3,1.36,2.94-.23,3.94-3.21,4,1.4,1.75,1.32,3.71.56,5.76,4,0.35,7.77,2.23,6.66,6.07-2.73,9.48,2.23,9.13,7.4,9-4.09-1-5.79-1.77-5.59-3.48A8.42,8.42,0,0,1,45,230.9l1.85-.74a48.59,48.59,0,0,1,3.73-5.75A12.06,12.06,0,0,0,52.38,220.12Z"/><path class="cls-15" d="M94.23,212.35c-2.21-.65-4.1,1-5.09,2.88,2.16-2.1,4.24-2.67,6.45-.48C95.48,213.63,95.27,212.65,94.23,212.35Z"/><path class="cls-15" d="M46,207.24c-0.07-.14-0.14-0.28-0.21-0.42l-0.25-.06c-1.38,2.29-3.75,1.69-5.81,2a12.36,12.36,0,0,1,.86,1.53C43,210.36,45.17,210.11,46,207.24Z"/><path class="cls-15" d="M52,235.1c0.71,0,1.42,0,2.12,0,1.56,0,3.13-.06,4.69-0.09h0c-2.83-4.15-7.73-1.4-12.4-3.35C46.23,233.33,47.92,234.07,52,235.1Z"/><path class="cls-15" d="M89.14,215.23a7.21,7.21,0,0,0-.48,1.11c-1.73,5.38-3.36,6.39-5,5.32-5.54,5.38-10.46,4-15.92-3.77-2.48-3.51-6.41-6.64-11-6.11-4.44.51-3.58,5.17-4.33,8.35a12.06,12.06,0,0,1-1.76,4.29,48.59,48.59,0,0,0-3.73,5.75c4.54-1.82,8.5-3.73,8.07-8.72-1-11.91,3.71-7.87,9.2-3.78,1.57,1.17,3.36,1.09,1.76,3.73-2.58,4.27.38,5.86,3.89,6.07,8,0.5,16,.6,19.36-9.08,2.08-6,4.68-2.93,7.19-.27a6.77,6.77,0,0,1-.77-3.36C93.38,212.56,91.3,213.13,89.14,215.23Z"/><path class="cls-15" d="M96.16,207.59c-5.63,2.07-7.74,6.84-10.46,11.79,0.33-.41.67-0.83,1-1.29a23.07,23.07,0,0,1,2.43-2.86c1-1.9,2.88-3.53,5.09-2.88,1,0.3,1.25,1.28,1.36,2.4a9.61,9.61,0,0,1,.78.89C96.81,213,98.19,210.24,96.16,207.59Z"/><path class="cls-15" d="M78.48,211.54c-2.17-1-3.31-3.2,0-4.73,2-.91,6,0.12,5.07-3.61-0.7-2.91-4.17-2-6.57-2.13-10.06-.49-12-10-17.12-15.78-3.29-3.71,1.36-7,3.26-9.76,3.69-5.31,10.29-4,15.49-4.28,6.74-.35,5.46-2.61,3.06-6.36h0l-0.21-.16c-1.22,1,1.59,4.37-2.5,4s-8.1.9-11.94,2.15c-9,2.94-11.91,11.53-6.55,19.23,4.29,6.17,8.64,12.41,18,13.58-7.3,5.58-1.28,8.75,1.12,12.71,1.39,2.28,2.7,4.38,4,5.21,0.21-.21.43-0.41,0.64-0.64C83.21,216.54,82.31,213.26,78.48,211.54Z"/><path class="cls-15" d="M96.37,215.64a9.61,9.61,0,0,0-.78-0.89,6.77,6.77,0,0,0,.77,3.36h0A6.4,6.4,0,0,1,96.37,215.64Z"/><path class="cls-15" d="M85.7,219.38c-0.41.74-.83,1.49-1.28,2.23L84.28,221c-0.22.23-.43,0.43-0.64,0.64,1.66,1.08,3.3.06,5-5.32a7.21,7.21,0,0,1,.48-1.11,23.07,23.07,0,0,0-2.43,2.86C86.37,218.55,86,219,85.7,219.38Z"/><path class="cls-15" d="M37.39,214.29c-0.41,0-.84,0-1.3,0h0a5.1,5.1,0,0,1,0,5.72,15.7,15.7,0,0,1,1.83.06C38.71,218,38.79,216,37.39,214.29Z"/><path class="cls-15" d="M60.56,201.09c3.38-6-1.91-9-4.84-12.6a40.75,40.75,0,0,0-9.31-9,3.88,3.88,0,0,0-.5-0.26,7.11,7.11,0,0,1-.62,1.07h0c3.7,4.26,7.35,8.56,11.13,12.76,4.12,4.58,3,10-2.79,11.58-2.6.71-5.45,0.59-7.9,2l0.07,0.15C52.07,208.47,57.24,207,60.56,201.09Z"/><path class="cls-15" d="M43.67,171.12c2.57-7.65,0-15.35.18-23a20.22,20.22,0,0,0-.5-2.24c-0.54.19-1.13,0.32-1.67,0.52h0c-0.18,8.19,1,16.4-.42,24.56a2.83,2.83,0,0,0,.6,1.5A4.65,4.65,0,0,0,43.67,171.12Z"/><path class="cls-15" d="M45.73,206.67l-0.18.09h0l0.25,0.06Z"/><path class="cls-16" d="M111.73,176c4.3,6.38,11.1,8.95,17.92,11.56,5,1.9,9,1.22,12.49-3.07,1.55-1.92,2.68-6,6.28-3.59a4.77,4.77,0,0,1,2.26,3.53,4.48,4.48,0,0,1,3.45-1c5,0.32,8.52,5,12.69,7.7,9.73,6.32,14.66,12.17,17.23,18.8-1.75-9.1-9.18-13.86-16.08-18.3-12.58-8.09-15.25-22.37-22.51-33.75-0.3-.47,0-1.17.54-1.84-1.35-.1-2.66-0.27-2.89-2.3a2.1,2.1,0,0,0-.86.27c-1.34,9-7.08,7.87-13.25,5.83l4.09,3.54c-4.87-1.09-9.67,5.36-14.43,1.49-0.33,4.45-3.16,6.12-7.21,6.43C113.41,172,113.41,173.61,111.73,176Z"/><path class="cls-16" d="M147.36,193.2a18.83,18.83,0,0,0-1.68,2.34C146.25,194.78,146.8,194,147.36,193.2Z"/><path class="cls-16" d="M108.85,170.73a9,9,0,0,1,2.63.53c4-.31,6.87-2,7.21-6.43a8.66,8.66,0,0,1-1.37-1.39c-0.76,3.78-2,6.57-6.94,5.73-3.25-.56-6.67-0.16-10-0.19h0C102.75,171.71,106,170.51,108.85,170.73Z"/><path class="cls-16" d="M145.48,157.85c7.26,11.38,9.93,25.66,22.51,33.75,6.9,4.44,14.34,9.2,16.08,18.3-2.57-6.63-7.5-12.48-17.23-18.8-4.18-2.71-7.66-7.39-12.69-7.7a4.48,4.48,0,0,0-3.45,1,11.73,11.73,0,0,1-1.32,5.74,8.44,8.44,0,0,1-.68,1.22c3.71-4.87,7.78-8.16,14.85-.34,6.21,6.88,18,9.33,16.94,22-0.07.76,1.48,2.14,2.5,2.41a3,3,0,0,0,3.59-2.32c1-3.1,1.27-6.35-1.13-8.9-4.09-4.36-7.7-10-12.8-12.41-15.56-7.22-17.32-23.51-25.3-35.65A11.06,11.06,0,0,0,146,156C145.51,156.68,145.17,157.37,145.48,157.85Z"/><path class="cls-16" d="M147.81,190.06c-0.44.8-.91,1.59-1.3,2.39A10.4,10.4,0,0,0,147.81,190.06Z"/><path class="cls-16" d="M148.43,180.91c-3.6-2.4-4.73,1.67-6.28,3.59-3.47,4.3-7.52,5-12.49,3.07C122.83,185,116,182.39,111.73,176c-0.1.14-.16,0.26-0.27,0.41h0c-0.2,1.2-1,3-.51,3.49a47.77,47.77,0,0,0,23.94,11.53c7,1.27,9-5.72,12.35-10.07,1.78,2,2.14,3.78,1.87,5.4a6.73,6.73,0,0,1,1.59-2.32A4.77,4.77,0,0,0,148.43,180.91Z"/><path class="cls-16" d="M150.69,184.44a6.73,6.73,0,0,0-1.59,2.32,10.64,10.64,0,0,1-1.29,3.3,10.4,10.4,0,0,1-1.3,2.39,6.86,6.86,0,0,0-.84,3.1,18.83,18.83,0,0,1,1.68-2.34c0.47-.59.93-1.19,1.33-1.8a8.44,8.44,0,0,0,.68-1.22A11.73,11.73,0,0,0,150.69,184.44Z"/><path class="cls-17" d="M126.45,162.8c4,0.33,1.94-2,1.92-3.24-3.56-1.54-3.29-5-3.61-8.19-0.3-3,.67-6.51-2.11-8.76-2.29-1.84-5.06-3.11-1.76-6.37,4-4,8.41-3.9,12.57-.56,2.19,1.76,7.43,3.14,2.42,7.52-1.53,1.33-2.49,3.17-.66,4.77,1.42,1.24,3.31,1.28,5.27.43,1.61-.7,2.43-4.75,5-1.64s-0.59,4.28-2,6.11a5.42,5.42,0,0,1,3.22,2.19l0.36-.38c3.89-3.36,8.47-6.82-.78-9-3.4-.79-4.6-3.25-4.68-6.18-0.29-10.37-7.39-16.27-14.55-21.82-6.5-5-13.88-3.66-19.13,2.64-4.27,5.13-3.21,11.55,2.86,17.32a14.57,14.57,0,0,0,3.06,2.15c2.54,1.4,5.13,2.93,4.39,6.38s-3.75,3.75-6.62,4c-1.21.12-2.52-.28-4,0.88,5,2.81,10.15,5.52,10.93,11.8C121.26,162.15,124.08,162.6,126.45,162.8Z"/><path class="cls-17" d="M107.74,151.12c1.46-1.16,2.77-.76,4-0.88,2.87-.29,5.88-0.59,6.62-4s-1.85-5-4.39-6.38a14.57,14.57,0,0,1-3.06-2.15c-6.07-5.77-7.13-12.19-2.86-17.32,5.24-6.3,12.62-7.68,19.13-2.64,7.16,5.55,14.26,11.45,14.55,21.82,0.08,2.93,1.28,5.39,4.68,6.18,9.25,2.15,4.67,5.61.78,9l-0.36.38a4.57,4.57,0,0,1,.53,1.09c3.51-1.32,8.61-.72,7.81-7-0.73-5.74-4.15-6.09-8.76-5-2.86.65-3-1.66-2.75-3.5C145,129.15,137,123,130,116.4c-5.92-5.58-14.9-5.93-20.38-1.33-9.07,7.63-9.11,9.9-3.81,20.28,2.12,4.15,5.22,5.71,8.85,7.25a3.45,3.45,0,0,1,2.15,3.72c-0.1,2.33-2.17,2-3.46,2a30,30,0,0,1-6.39-1c-1.9-.44-4.14-2.72-5.15.82-0.74,2.57,1.07,4.36,3.2,5,5.6,1.75,10.38,4.25,12.35,10.27h0a8.17,8.17,0,0,1,1.35-.52C117.89,156.64,112.76,153.92,107.74,151.12Z"/><path class="cls-17" d="M133.12,163.34L129,159.8c-0.24-.08-0.45-0.16-0.66-0.25,0,1.21,2,3.57-1.92,3.24-2.37-.2-5.19-0.65-7.78.12,0,0.32.08,0.65,0.09,1s0,0.61-.07.91C123.44,168.7,128.24,162.25,133.12,163.34Z"/><path class="cls-17" d="M143.6,152.87a3.17,3.17,0,0,0-.46.84c0.22,2,1.53,2.21,2.89,2.3a12.27,12.27,0,0,1,.79-0.95A5.42,5.42,0,0,0,143.6,152.87Z"/><path class="cls-17" d="M118.69,164.83c0-.3.07-0.58,0.07-0.91s-0.05-.67-0.09-1a8.13,8.13,0,0,0-1.35.52A8.66,8.66,0,0,0,118.69,164.83Z"/><path class="cls-17" d="M146,156a11.06,11.06,0,0,1,1.32.14,4.57,4.57,0,0,0-.53-1.09A12.27,12.27,0,0,0,146,156Z"/><path class="cls-18" d="M40.17,90.92c7.5-3.26,13.29-.56,18,6,1.61,2.27,3.13,4.6,4.76,6.85,3.73,5.13,4.68,1.86,5.74-1.06-4.2-.69-4.61-4.1-3.39-7.55,2.1-5.92,6.33.16,9.52-1,0.53-3.43-1.87-5.88-2.8-8.77-1.56-4.86-3-8.34-9.73-4.72-6.14,3.28-11.11-1.34-9.33-8.2a8.49,8.49,0,0,0,.19-3.67L37.69,77.71A42,42,0,0,0,39.41,88,23.46,23.46,0,0,1,40.17,90.92Z"/><path class="cls-18" d="M68.66,102.75c-1.06,2.92-2,6.19-5.74,1.06-1.64-2.25-3.15-4.59-4.76-6.85-4.7-6.6-10.49-9.31-18-6a4.47,4.47,0,0,1-.29,2.47c7.29-4,12.61-1.42,16.72,5.06,1.52,2.39,2.83,4.93,4.54,7.16C63,108,64.84,112,68,111.15c3.81-1,1.34-5.42,2-8.26h0A9.73,9.73,0,0,1,68.66,102.75Z"/><path class="cls-18" d="M52.93,72.48c-1.77,6.86,3.2,11.47,9.33,8.2C69,77.06,70.43,80.54,72,85.4c0.93,2.89,3.33,5.33,2.8,8.77-3.18,1.2-7.42-4.88-9.52,1-1.22,3.45-.81,6.86,3.39,7.55l0.26-.68c-2.48-2-3.36-4.41-1.12-7.94a8,8,0,0,1,2.28,1.47,7.93,7.93,0,0,0,3.66,3.23c1.85-1.16,3.68-2.34,5.44-3.65,0.2-1.65-1.25-3.14-2.42-4.83A24.52,24.52,0,0,1,73,81.81c-1.62-7.41-3.84-11-10.32-3.3-2.26,2.69-5.19,1.15-7.66-.42-1.51-1-2.41-3.27-1.24-3.87,5.52-2.81,4.32-5,2.35-7.17l-3,1.75A8.49,8.49,0,0,1,52.93,72.48Z"/><path class="cls-18" d="M77.76,97.52a3.81,3.81,0,0,0,1.41-2.33c-1.76,1.3-3.59,2.49-5.44,3.65C74.92,99.19,76.24,98.9,77.76,97.52Z"/><path class="cls-18" d="M68.92,102.08l-0.26.68a9.73,9.73,0,0,0,1.39.13h0A13.71,13.71,0,0,1,68.92,102.08Z"/><path class="cls-18" d="M38.53,91.74c0.14-.08.27-0.18,0.42-0.26,0.41-.21.81-0.39,1.21-0.56A23.46,23.46,0,0,0,39.41,88a42,42,0,0,1-1.72-10.26L34.76,79.4A18.66,18.66,0,0,0,38.53,91.74Z"/><path class="cls-18" d="M40.17,90.92c-0.4.17-.8,0.35-1.21,0.56-0.15.08-.28,0.17-0.42,0.26,0.41,0.55.85,1.1,1.34,1.65A4.47,4.47,0,0,0,40.17,90.92Z"/><path class="cls-19" d="M121.61,105.9c10.78,2.86,18.21,9.36,25.17,16.15-0.42-.46-0.83-0.94-1.24-1.44A41.93,41.93,0,0,0,121.61,105.9Z"/><path class="cls-19" d="M188.72,127.07c-1.2,3.76-4.34,4.14-7.57,4.21-2.51.06-5.06-.29-7.53,0.14-9.27,1.6-16.86-.37-23.42-6a115.1,115.1,0,0,0,9.8,8.91c2.14-3.23,6.2-1.7,8.63-.58,3.63,1.67,7.38,4.61,8.34,9.2,0.14,0.68-1.31,2.24-2.26,2.48a2,2,0,0,1-2.27-.83,10.17,10.17,0,0,0,6.32,7.56c5.4,2.39,8.66,7.74,13.37,11.2l0.19,0.13c2.23-4.32-2.16-9.3.14-13.62l0.59-.33c-0.12-4-1.37-8.42,3.63-10.8,1.1-1.8,3.58-4.54,3.09-5.25-2.79-4.06-.74-7,1-10.06a8.74,8.74,0,0,1,.67-2.06c-5.84.09-6.62,0.34-12.62,4.78C188.77,126.44,188.76,126.74,188.72,127.07Z"/><path class="cls-19" d="M150.2,125.42a36.54,36.54,0,0,1-3.42-3.36c-7-6.8-14.39-13.29-25.17-16.15a41.93,41.93,0,0,1,23.93,14.72c0.41,0.5.82,1,1.24,1.44l3.42,3.36c6.56,5.63,14.15,7.61,23.42,6,2.47-.43,5-0.08,7.53-0.14,3.24-.08,6.37-0.45,7.57-4.21,0-.33,0-0.63.06-0.93l-1.59,1.18h0c-7,3.76-14.57.41-21.78,1.93-5.21,1.09-9.42-.33-12.83-5.22-5.46-7.84-13.6-12.77-21.83-17.3-5.22-2.87-10.49-2.39-15.55.41,7.52,0.61,14.57,2,20.15,7.09,8.06,7.32,15.79,15,23.65,22.52a7.48,7.48,0,0,1,1-2.42A115.1,115.1,0,0,1,150.2,125.42Z"/><path class="cls-19" d="M192.12,163.34c-4.7-3.46-8-8.81-13.37-11.2a10.17,10.17,0,0,1-6.32-7.56,10.37,10.37,0,0,0-1.86-2.26c0.13,3.21-2.18,7.81,1.95,9.11,8,2.5,11.88,9.8,18.41,13.83a6.63,6.63,0,0,0,1.38-1.79Z"/><path class="cls-19" d="M150.2,125.42l-3.42-3.36A36.54,36.54,0,0,0,150.2,125.42Z"/><path class="cls-19" d="M201.4,121.35a8.62,8.62,0,0,1,.88-1.5c-6.43-2.55-11.49-2.34-13.91,3.2a7.74,7.74,0,0,1,.41,3.08C194.79,121.69,195.56,121.44,201.4,121.35Z"/><path class="cls-19" d="M188.37,123.05a17.32,17.32,0,0,0-1.18,4.27l1.59-1.18A7.74,7.74,0,0,0,188.37,123.05Z"/><path class="cls-19" d="M195.77,159.47c-1.16-3.09-1.83-6.36-2.72-9.54h0c0-.13,0-0.27,0-0.41l-0.59.33c-2.3,4.32,2.09,9.3-.14,13.62,0.65,0.48,1.45.91,2.21,1.35C196.26,164.2,197,162.73,195.77,159.47Z"/><path class="cls-19" d="M192.31,163.48a6.63,6.63,0,0,1-1.38,1.79,10.9,10.9,0,0,0,3.59-.44C193.76,164.38,193,164,192.31,163.48Z"/><path class="cls-20" d="M41.43,129.58c0.14,0.41.22,0.83,0.31,1.25,2.46,2.62,1.53,5.59.56,8.57a24.07,24.07,0,0,0,.37,3.93c0.75-3.59.94-7.62,6.09-7.65,5.76,0,6.92,5.61,9,9.72a28.53,28.53,0,0,1,2,4.25c3,9.34,9,13.81,18.93,12.28-2.52-4-5.08-7.93-7.48-12-1-1.61-.59-2.5.38-3-3.46-6-8.66-9.63-15.3-11.69a41.33,41.33,0,0,1-9.53-4.06c-2.18-1.35-4.26-2.94-3.95-5.89,0.28-2.68,2.63-3.28,4.67-4,2.64-1,5.46-1.67,7.67-3.52a2.82,2.82,0,0,0,.49-4.16c-0.89-1.15-2.37-1.4-3.25-.31-3.25,4-6.37,8.14-12.48,5.58-4.88-2-7.3-6.72-10.79-10.62-2.59,4.71-.67,6.69,3.64,8.37,4.62,1.8,8.15,4.87,5.56,10.67C40,127.22,40.81,128.27,41.43,129.58Z"/><path class="cls-20" d="M38.42,127.27c2.59-5.8-.94-8.86-5.56-10.67-4.31-1.68-6.23-3.65-3.64-8.37,3.49,3.9,5.91,8.58,10.79,10.62,6.11,2.56,9.23-1.56,12.48-5.58,0.88-1.08,2.36-.84,3.25.31a2.82,2.82,0,0,1-.49,4.16c-2.22,1.85-5,2.52-7.67,3.52-2,.77-4.4,1.37-4.67,4-0.31,3,1.77,4.55,3.95,5.89a41.33,41.33,0,0,0,9.53,4.06C63,137.34,68.22,141,71.68,147a5.66,5.66,0,0,1,2-.48C70.72,136.94,62,135,54.27,131.91c-3.64-1.47-9.45-1.41-9.56-6.09-0.09-3.88,5.9-1.77,8.49-4a9.17,9.17,0,0,1,3.39-1.61c2.86-.84,4.44-2.33,3.23-5.49-1-2.68-2.15-5.36-5.35-6.06-3-.66-4.4.69-5.33,3.7-2.48,8-7.05,6.44-11.81,2-2.28-2.12-4.65-4.17-5.42-7.51-0.51-2.22-2-4.57-4.61-3.09-4.35,2.42.13,7.46-2.86,11.11-1.51,1.83,2.5,2.65,4.57,2.73,6.28,0.23,8.94,3.74,9.14,9.65h0.26Z"/><path class="cls-20" d="M42.3,139.41c-0.77,2.36-1.54,4.73-.63,6.91h0v0.05a10.81,10.81,0,0,0,1-3A24.07,24.07,0,0,1,42.3,139.41Z"/><path class="cls-20" d="M41.43,129.58c-0.62-1.32-1.43-2.36-3-2.31l-0.08.19h0l1.54,1.83a9.09,9.09,0,0,1,1.89,1.54C41.65,130.41,41.57,130,41.43,129.58Z"/><path class="cls-20" d="M38.31,127.46h0l0.08-.19H38.16Z"/><path class="cls-20" d="M59.85,149.66a28.53,28.53,0,0,0-2-4.25c-2.12-4.1-3.28-9.76-9-9.72-5.16,0-5.34,4.07-6.09,7.65a14.36,14.36,0,0,0,.5,1.91c0.07,0.2.11,0.4,0.17,0.6a3.43,3.43,0,0,0,.93-0.46c2.7-2-.93-8.14,4.23-8,5,0.11,5.34,5.27,6.82,9,0.92,2.28,2.49,4.3,3.46,6.56,5.06,11.77,8.42,13.48,20.82,10.35l-0.83-1.31C68.89,163.47,62.85,159,59.85,149.66Z"/><path class="cls-20" d="M43.34,145.85c-0.06-.2-0.1-0.4-0.17-0.6a14.36,14.36,0,0,1-.5-1.91,10.81,10.81,0,0,1-1,3h0C42.21,146.17,42.8,146,43.34,145.85Z"/><path class="cls-21" d="M209.73,116c4.67,5.56,4.21,13,6.95,19.3,0.55,0.17,1.1.34,1.7,0.53,7.12,3.07,7.15,11.26,12.52,17.31-0.79-7.41-6.65-13.53-3.21-20.13-0.15-.44-0.29-0.89-0.46-1.32a55.19,55.19,0,0,0-17.77-26.8C209.4,108.61,212.38,112.43,209.73,116Z"/><path class="cls-21" d="M227.21,131.71c0.17,0.44.31,0.88,0.46,1.32a11.47,11.47,0,0,1,1.14-1.8c-2.63-11.95-8.81-21.55-18.93-28.53h0a5.46,5.46,0,0,0-.45,2.21A55.19,55.19,0,0,1,227.21,131.71Z"/><path class="cls-21" d="M209.44,104.91c-0.38-.32-0.73-0.65-1.11-1l-0.08-.13c-4.79,4,2.54,8.16,1.48,12.21h0C212.38,112.43,209.4,108.61,209.44,104.91Z"/><path class="cls-21" d="M208.33,103.95c0.39,0.31.74,0.64,1.11,1a5.46,5.46,0,0,1,.45-2.21,10,10,0,0,0-1.64,1.12Z"/><path class="cls-21" d="M230.88,153.17c-5.36-6-5.39-14.24-12.52-17.31-0.59-.2-1.15-0.37-1.7-0.53,0.23,0.52.47,1,.74,1.54h0c5.78,3.56,6.57,10.15,9.26,15.54,1.29,2.6,2.17,5.87,5.62,4.53s2.26-4.8.93-7.15c-2.54-4.49-4.41-9.06-4.65-14-0.3-.91-0.6-1.81-0.91-2.72C224.23,139.64,230.1,145.76,230.88,153.17Z"/><path class="cls-21" d="M228.58,135.75a22.13,22.13,0,0,1,.23-4.52,11.47,11.47,0,0,0-1.14,1.8C228,133.94,228.28,134.85,228.58,135.75Z"/><path class="cls-22" d="M100.37,170.88l-2.18-.74,2.32,1A1.71,1.71,0,0,1,100.37,170.88Z"/><path class="cls-22" d="M104.37,172.64c-0.27-.06-0.55-0.11-0.84-0.16,2.37,1,4.77,2,7.23,2.77C109.21,173.29,106.68,173.2,104.37,172.64Z"/><path class="cls-22" d="M81.66,164.62l0,0a53.64,53.64,0,0,1,11.34,3.35,11.63,11.63,0,0,1-5.41-6.23c0.15-.36.26-0.73,0.38-1.1l-6.43-7c-0.51,0-1-.09-1.58-0.2a15.53,15.53,0,0,1-6.24-3.79c1.1,4.49,5.8,7.69,5.89,12.53A3,3,0,0,1,81.66,164.62Z"/><path class="cls-22" d="M73.78,149.61A15.53,15.53,0,0,0,80,153.4c0.57,0.11,1.08.15,1.58,0.2l-1.72-1.88h0l-6.23-5.22h0A7.63,7.63,0,0,0,73.78,149.61Z"/><path class="cls-22" d="M87.64,161.71a11.63,11.63,0,0,0,5.41,6.23c1.73,0.69,3.43,1.44,5.14,2.19l2.18,0.74a3.5,3.5,0,0,1,0-1.9h0c-4-2.27-8.69-3.44-11.53-7.48L88,160.61C87.9,161,87.79,161.35,87.64,161.71Z"/><path class="cls-22" d="M81.66,164.62c0,0.1.05,0.17,0.05,0.27h0c9.48,5,18.68,10.64,29.75,11.53a5.27,5.27,0,0,0-.7-1.17c-2.45-.8-4.85-1.75-7.23-2.77-1.21-.19-2.49-0.36-3-1.32l-2.32-1a29.52,29.52,0,0,1-5.14-2.19,53.64,53.64,0,0,0-11.34-3.35Z"/><path class="cls-22" d="M93.05,167.94a29.52,29.52,0,0,0,5.14,2.19C96.49,169.38,94.78,168.64,93.05,167.94Z"/><path class="cls-22" d="M79.66,162.14a7.66,7.66,0,0,1-.05,1.11l1.89,1.49,0.15-.11A3,3,0,0,0,79.66,162.14Z"/><path class="cls-22" d="M81.71,164.9h0c0-.1,0-0.17-0.05-0.27l-0.15.11,0.21,0.16h0Z"/><path class="cls-22" d="M103.53,172.48c0.29,0,.57.1,0.84,0.16,2.31,0.55,4.84.64,6.39,2.61l0.57,0.2c0.13,0.2.28,0.37,0.41,0.56,1.68-2.41,1.68-4-.25-4.76-0.32,0-.62.06-1,0.07a48.22,48.22,0,0,1-10-.38l-0.2-.07a1.71,1.71,0,0,0,.14.29Z"/><path class="cls-22" d="M100.37,170.88l0.2,0.07a48.22,48.22,0,0,0,10,.38c0.33,0,.64,0,1-0.07a9,9,0,0,0-2.63-.53c-2.87-.22-6.11,1-8.48-1.75A3.5,3.5,0,0,0,100.37,170.88Z"/><path class="cls-22" d="M111.73,176c-0.13-.19-0.28-0.36-0.41-0.56l-0.57-.2a5.27,5.27,0,0,1,.7,1.17h0C111.57,176.28,111.64,176.15,111.73,176Z"/><path class="cls-22" d="M103.53,172.48l-3-1.32C101,172.13,102.31,172.29,103.53,172.48Z"/><path class="cls-22" d="M71.3,150c2.4,4,5,8,7.48,12l0.3,0c0.21,0.07.39,0.16,0.58,0.24-0.09-4.84-4.79-8-5.89-12.53a18,18,0,0,1-1.61-1.81c-0.15-.29-0.33-0.55-0.49-0.82C70.71,147.46,70.34,148.35,71.3,150Z"/><path class="cls-22" d="M72.17,147.8a18,18,0,0,0,1.61,1.81,7.63,7.63,0,0,1-.13-3.11h0a5.65,5.65,0,0,0-2,.48C71.84,147.25,72,147.51,72.17,147.8Z"/><path class="cls-22" d="M79.09,161.9l-0.3,0,0.83,1.31a7.66,7.66,0,0,0,.05-1.11C79.47,162.06,79.29,162,79.09,161.9Z"/><path class="cls-23" d="M88.28,159.86c3-10-1.82-20.81,3.15-30.57-4.59,4.86-4,10.78-3.34,16.55,0.54,4.94-.93,7.43-4.45,7.78A13.43,13.43,0,0,1,88.28,159.86Z"/><path class="cls-23" d="M88.1,145.84c-0.63-5.77-1.25-11.69,3.34-16.55-5,9.77-.19,20.61-3.15,30.57,0.2,0.53.39,1.07,0.56,1.64-0.64-4.48,7.11-6.08,5-9-5.3-7.61-1.51-14.36-.07-21.47,0.42-2,2.11-4.76-.47-5.74s-4.72,1.13-6,3.48c-3.1,5.56-3.14,11.72-1.61,17.44,1.76,6.58-1.67,6.05-5.82,5.56a13.12,13.12,0,0,1,3.77,1.9C87.17,153.26,88.64,150.78,88.1,145.84Z"/><path class="cls-23" d="M88.28,159.86a13.43,13.43,0,0,0-4.63-6.24,10.81,10.81,0,0,1-2.05,0l6.43,7C88.11,160.36,88.21,160.11,88.28,159.86Z"/><path class="cls-23" d="M81.6,153.6a10.81,10.81,0,0,0,2.05,0,13.12,13.12,0,0,0-3.77-1.9h0Z"/><path class="cls-23" d="M88,160.61l0.81,0.89c-0.16-.56-0.35-1.11-0.56-1.64C88.21,160.11,88.11,160.36,88,160.61Z"/><path class="cls-24" d="M34.71,205.92a11.22,11.22,0,0,0-.83-2.53c-2.86-2.69-5.95-6.29-9.46-3.18A5,5,0,0,0,23,202a14.8,14.8,0,0,0,1.4,3.76c1.18,1.15,2.66,2.28,3.37,3.61,0.2,0,.4,0,0.6,0a30,30,0,0,1,8.2,4.07c0.78-1.22,1.59-2.42,2.39-3.63A8.07,8.07,0,0,1,34.71,205.92Z"/><path class="cls-24" d="M33.88,203.39a11.22,11.22,0,0,1,.83,2.53A8.07,8.07,0,0,0,39,209.85c0.25-.37.51-0.73,0.74-1.11L35.95,205a5.85,5.85,0,0,1-.8-0.46C34.73,204.17,34.31,203.79,33.88,203.39Z"/><path class="cls-24" d="M24.45,205.75A14.8,14.8,0,0,1,23,202C22.45,203.42,23.28,204.6,24.45,205.75Z"/><path class="cls-24" d="M28.42,209.41c-0.2,0-.4,0-0.6,0a3.27,3.27,0,0,1,.4,1.23h0a13.49,13.49,0,0,0,7.87,3.69c0.16-.28.36-0.54,0.53-0.81A30,30,0,0,0,28.42,209.41Z"/><path class="cls-24" d="M39,209.85c-0.8,1.21-1.61,2.4-2.39,3.63h0a6.72,6.72,0,0,1,.78.82c3-.08,4.57-1.08,3.21-4H40.21A7.78,7.78,0,0,1,39,209.85Z"/><path class="cls-24" d="M40.21,210.25H40.6a12.36,12.36,0,0,0-.86-1.53c-0.23.38-.49,0.74-0.74,1.11A7.78,7.78,0,0,0,40.21,210.25Z"/><path class="cls-24" d="M36.61,213.48h0c-0.17.27-.36,0.53-0.53,0.81,0.46,0,.89,0,1.3,0A6.72,6.72,0,0,0,36.61,213.48Z"/><path class="cls-25" d="M171.9,138.69c-2.71-3.08-5.85-3.47-9.13-2.9,3.52,1.06,7.84.71,9.22,5.52,0,0.2,0,.39.05,0.59C173.26,141.27,173.22,140.18,171.9,138.69Z"/><path class="cls-25" d="M172,141.89c0-.2,0-0.39-0.05-0.59-1.38-4.8-5.7-4.46-9.22-5.52a29.74,29.74,0,0,0-3.77,1c2.83,4,9.84-.67,11.57,5.59h0A5,5,0,0,0,172,141.89Z"/><path class="cls-25" d="M174.7,145.42c0.95-.24,2.4-1.8,2.26-2.48-1-4.59-4.71-7.53-8.34-9.2-2.43-1.12-6.49-2.65-8.63.58l0.67,0.54a8.13,8.13,0,0,0,2.09.92c3.28-.57,6.41-0.18,9.13,2.9,1.32,1.5,1.36,2.58.15,3.2a19.19,19.19,0,0,0,.39,2.7A2,2,0,0,0,174.7,145.42Z"/><path class="cls-25" d="M172.43,144.59a19.19,19.19,0,0,1-.39-2.7,5,5,0,0,1-1.48.44h0A10.37,10.37,0,0,1,172.43,144.59Z"/><path class="cls-25" d="M160.67,134.86l-0.67-.54a7.48,7.48,0,0,0-1,2.42,29.74,29.74,0,0,1,3.77-1A8.13,8.13,0,0,1,160.67,134.86Z"/><path class="cls-15" d="M25.71,209.77a3.28,3.28,0,0,1,1.13-.37q-0.71-.6-1.41-1.21A6.51,6.51,0,0,1,25.71,209.77Z"/><path class="cls-15" d="M25.71,209.77a6.51,6.51,0,0,0-.27-1.57c-2.1-1.85-3.87-3.9-3.45-7.28,0.26-2.12,1.87-3,4-3,5,0,8.13,2.55,9.94,7,1.22-7.55-4.75-7.35-9.33-8.71-2.39-.71-5.63-2-6.57.8-1.33,4,.77,7.77,3.27,11.08,0.56,0.74,1,1.55,1.53,2.33h0A3.31,3.31,0,0,1,25.71,209.77Z"/><path class="cls-15" d="M25.71,209.77a5.25,5.25,0,0,1,0,.73l2.52,0.09c-0.44-.4-0.9-0.8-1.37-1.19A3.28,3.28,0,0,0,25.71,209.77Z"/><path class="cls-15" d="M24.84,210.46h0l0.85,0a5.25,5.25,0,0,0,0-.73A3.31,3.31,0,0,0,24.84,210.46Z"/><path class="cls-15" d="M24.45,205.75a17.08,17.08,0,0,1,1,2.44q0.69,0.61,1.41,1.21a4.62,4.62,0,0,1,1,0C27.11,208,25.62,206.91,24.45,205.75Z"/><path class="cls-15" d="M24.42,200.21c3.51-3.11,6.6.49,9.46,3.18-1.9-4-5.84-4.81-10.43-4.74A5.74,5.74,0,0,0,23,202,5,5,0,0,1,24.42,200.21Z"/><path class="cls-15" d="M26,197.94c-2.15,0-3.75.85-4,3-0.42,3.38,1.35,5.44,3.45,7.28a17.08,17.08,0,0,0-1-2.44c-1.17-1.15-2-2.33-1.4-3.76a5.74,5.74,0,0,1,.4-3.34c4.59-.06,8.54.71,10.43,4.74,0.43,0.4.85,0.78,1.27,1.12a5.85,5.85,0,0,0,.8.46C34.15,200.49,31,198,26,197.94Z"/><path class="cls-15" d="M27.82,209.36a4.62,4.62,0,0,0-1,0c0.47,0.39.93,0.78,1.37,1.19h0A3.27,3.27,0,0,0,27.82,209.36Z"/><path class="cls-26" d="M209.86,244.23c1.26-1.67,4.08-1.63,5-4.34-2.57-2-4.38,1.64-6.55,1.29h0A3.63,3.63,0,0,1,209.86,244.23Z"/><path class="cls-26" d="M214.89,239.9c-0.95,2.71-3.76,2.67-5,4.34a6.58,6.58,0,0,1,0,.68c3-.57,7.5,1.9,8.6-2.74,0.51-2.16,0-5.77-3.47-6.8-5.22-1.57-4.78,3.48-6.66,5.81h0C210.51,241.54,212.32,237.85,214.89,239.9Z"/><path class="cls-26" d="M208.34,241.19h0l1.37,3.32a3,3,0,0,1,.15-0.28A3.63,3.63,0,0,0,208.34,241.19Z"/><polygon class="cls-26" points="208.34 241.19 208.34 241.19 208.34 241.19 208.34 241.19"/><path class="cls-26" d="M209.71,244.51l0.17,0.4a6.58,6.58,0,0,0,0-.68A3,3,0,0,0,209.71,244.51Z"/><path class="cls-11" d="M170.13,248.18h0a3.24,3.24,0,0,1,.1-2.31,0.62,0.62,0,0,0-.71.26c-0.48.9,0,1.46,0.5,2h0.09v0Z"/><path class="cls-11" d="M169.52,246.12a0.62,0.62,0,0,1,.71-0.26,3.24,3.24,0,0,0-.1,2.31c0.57-1.87,3.7-.94,3.83-3.73-3.53.53-7.21-.79-10.65,1.36,1.78,3.6,4.53,2,6.72,2.35C169.54,247.58,169,247,169.52,246.12Z"/><polygon class="cls-11" points="170.13 248.18 170.13 248.18 170.13 248.18 170.13 248.18"/><path class="cls-2" d="M200.54,136.55a16.72,16.72,0,0,1-2.18,3c-2.74,2.64-2.77,6.68-4.82,9.68a13.22,13.22,0,0,0,5.58-5.28c4.84-8.83,7.18-11.44,16.08-9-4.87-5.17-4.58-12.24-5.46-18.88a6.38,6.38,0,0,1-.43.55c-2,.12-3.53-1-5.18-1.87-11.19-5.69-11.89-8.8-4.46-20-8.84,9.09-8.33,14.28,2,20.83,1.59,1,3.15,2.09,2.83,4.36-0.09.09-.19,0.16-0.28,0.24C205.37,126.55,205.61,132.61,200.54,136.55Z"/><path class="cls-2" d="M204.53,119.9c0.32-2.27-1.24-3.35-2.83-4.36-10.37-6.55-10.88-11.74-2-20.83-7.43,11.19-6.73,14.31,4.46,20,1.66,0.84,3.18,2,5.18,1.87a6.38,6.38,0,0,0,.43-0.55h0a56.66,56.66,0,0,0-5.13-4.09c-9.53-6-9.88-9.39-1.23-16.64,1.37-1.14,2.6-1.87,1.53-3.55-1.2-1.87-3-1.94-4.94-.92-6.63,3.5-8.27,9.63-9,16.43s2.9,8.79,8.69,9.56c1.63,0.21,3.06,2,4.57,3l0.05,0.3C204.34,120.06,204.44,120,204.53,119.9Z"/><path class="cls-2" d="M199.11,144a13.22,13.22,0,0,1-5.58,5.28,8,8,0,0,1-.49.69h0c2.36-.57,6.46,3.89,6.9-0.59,1.12-11.54,7.75-13.79,17.47-12.47a15.82,15.82,0,0,1-2.23-2C206.29,132.52,203.95,135.13,199.11,144Z"/><path class="cls-2" d="M198.36,139.55a16.72,16.72,0,0,0,2.18-3,15.74,15.74,0,0,1-3.87,2.17c-5,2.38-3.74,6.77-3.63,10.8l0.5-.28C195.58,146.23,195.62,142.19,198.36,139.55Z"/><path class="cls-2" d="M193,149.92h0a8,8,0,0,0,.49-0.69l-0.5.28c0,0.14,0,.27,0,0.41h0Z"/><path class="cls-2" d="M216.67,135.33c-2.73-6.28-2.28-13.73-6.95-19.3h0c0.88,6.64.59,13.71,5.46,18.88C215.67,135,216.15,135.17,216.67,135.33Z"/><polygon class="cls-2" points="209.72 116.03 209.72 116.03 209.72 116.03 209.72 116.03"/><path class="cls-2" d="M217.41,136.86h0c-0.28-.5-0.52-1-0.74-1.54-0.52-.16-1-0.29-1.48-0.42A15.82,15.82,0,0,0,217.41,136.86Z"/><path class="cls-27" d="M77.73,61.17a9.22,9.22,0,0,1,3.33-3.69l0.06,0a23.49,23.49,0,0,0-.86-4.31l-1,.61a18.75,18.75,0,0,1-1.46,7.17A0.43,0.43,0,0,0,77.73,61.17Z"/><path class="cls-27" d="M81.11,57.45l-0.06,0a9.22,9.22,0,0,0-3.33,3.69A6,6,0,0,0,79.43,63c0-1.52.3-2.94,1.8-3.77h0C81.23,58.64,81.17,58,81.11,57.45Z"/><path class="cls-27" d="M81.32,57.35c0.13-1.68.38-3.43,0.5-5.12l-1.58.91a23.49,23.49,0,0,1,.86,4.31Z"/><path class="cls-27" d="M76.77,62.85a16.45,16.45,0,0,0,.87-1.54l0.08-.14a0.43,0.43,0,0,1,0-.26,18.75,18.75,0,0,0,1.46-7.17l-2.51,1.45a14.63,14.63,0,0,1-1.62,2.73C72.85,60.93,74.33,62.38,76.77,62.85Z"/><path class="cls-27" d="M81.11,57.45c0.06,0.59.11,1.18,0.12,1.79h0c0-.62,0-1.25.09-1.89Z"/><path class="cls-27" d="M77.73,61.17l-0.08.14a16.45,16.45,0,0,1-.87,1.54,11.69,11.69,0,0,0,2.66.16A6,6,0,0,1,77.73,61.17Z"/><path class="cls-2" d="M100.21,79.92c0.83-.2,1.54-0.93,3.24-2-5.74-5-10.82-3.87-15.88-.59-1.13.73-1.71,2.22-.59,3.13C91.46,84.07,95.84,81,100.21,79.92Z"/><path class="cls-12" d="M201.09,134.16c2-4.2,1.12-9.51,2.89-13.79a5.43,5.43,0,0,1-1.58,1h-0.61a19.76,19.76,0,0,1-1.05,2.06C200.06,126.93,201.37,130.62,201.09,134.16Z"/><path class="cls-12" d="M204,120.37c0.07-.18.14-0.36,0.22-0.53h-1.91a8.63,8.63,0,0,1-.5,1.5h0.61A5.43,5.43,0,0,0,204,120.37Z"/><path class="cls-12" d="M201.09,134.16c0.28-3.54-1-7.23-.35-10.75-1.72,3-3.77,6-1,10.06,0.49,0.71-2,3.45-3.09,5.25A9.63,9.63,0,0,0,201.09,134.16Z"/><path class="cls-12" d="M200.54,136.55c5.07-3.94,4.84-10,3.71-16.41l-0.27.23c-1.77,4.27-.92,9.59-2.89,13.79a10.12,10.12,0,0,1-.22,1.51A4.4,4.4,0,0,1,200.54,136.55Z"/><path class="cls-12" d="M204.25,120.14l-0.05-.3c-0.08.17-.14,0.36-0.22,0.53Z"/><path class="cls-12" d="M200.87,135.68a10.12,10.12,0,0,0,.22-1.51,9.63,9.63,0,0,1-4.43,4.56,15.74,15.74,0,0,0,3.87-2.17A4.4,4.4,0,0,0,200.87,135.68Z"/><path class="cls-2" d="M73.88,66.92l-0.28.41c0,0.07,0,.14,0,0.21,0.11-.18.23-0.35,0.35-0.53l0-.09h0Z"/><polygon class="cls-2" points="73.88 66.92 73.88 66.92 73.88 66.92 73.88 66.92"/><polygon class="cls-2" points="73.88 66.92 73.88 66.92 73.88 66.92 73.88 66.92"/><polygon class="cls-2" points="73.88 66.92 73.88 66.92 73.88 66.92 73.88 66.92"/><path class="cls-2" d="M73.42,69.44a9.9,9.9,0,0,0,1.19,4.28C74.5,72.06,73.69,70.74,73.42,69.44Z"/><path class="cls-2" d="M73.42,69.44c0.26,1.3,1.08,2.62,1.19,4.28a9.9,9.9,0,0,1-1.19-4.28,3.07,3.07,0,0,1,.14-1.89h0c0-.07,0-0.14,0-0.21C70.44,72,71.84,75,78.2,77.24Q76,72.13,73.92,67c-0.11.18-.24,0.35-0.35,0.53A9,9,0,0,0,73.42,69.44Z"/><path class="cls-2" d="M73.42,69.44a9,9,0,0,1,.14-1.9h0A3.07,3.07,0,0,0,73.42,69.44Z"/><path class="cls-2" d="M328.63,280.36a4.79,4.79,0,0,1-2.59,3.1,68.76,68.76,0,0,1,9.16,7.09c2.18-2,4.19-4.23,7.07-5.13v-1.32C337.18,285.1,332.87,282.86,328.63,280.36Z"/><path class="cls-2" d="M336.49,291.75l5.79-4.46v-1.86c-2.88.9-4.89,3.15-7.07,5.13C335.63,291,336.08,291.33,336.49,291.75Z"/><path class="cls-2" d="M335.21,290.55a68.76,68.76,0,0,0-9.16-7.09,8.84,8.84,0,0,1-2.83.81h0c4.22,1.4,6.34,6.52,10.85,7.41,0.26-.26.51-0.53,0.77-0.78Z"/><path class="cls-2" d="M328.63,280.36c4.24,2.5,8.55,4.74,13.65,3.75v-1.42c-4.78-.11-9-2.57-13.37-4.15A7.15,7.15,0,0,1,328.63,280.36Z"/><path class="cls-2" d="M336.49,291.75c-0.41-.42-0.86-0.8-1.28-1.2l-0.38.34c-0.26.25-.51,0.52-0.77,0.78A7.36,7.36,0,0,0,336.49,291.75Z"/><path class="cls-28" d="M195.87,375.12a4.75,4.75,0,0,1,1.55-6c9.23-6.18,8.78-13.45,3-21.65-0.88-1.25-1.58-3.08-1-4.49,2.38-6.12,2.49-10.23-6.1-8.59a3.18,3.18,0,0,1-3.47-2.67c-0.6-7.75-7.14-14.24-4.75-22.56,0.55-1.92.9-3.75-1-5.1-7.39-5.34-14.72-10.75-24.07-12.37-4.53-.79-7,1.42-9.2,4.89-2.48,3.93-5.7,4.68-9.42,1.48a26.46,26.46,0,0,0-8.13-4.69c-8.06-3-14.08-7.29-10.63-18-5.29.9-5.75,4.6-7,7.58-1.09,2.7-2.23,5.53-5.53,5.74-3.5.22-5-2.66-5.58-5.41-1-4.77-3.53-7.51-8.22-9.22-4.86-1.78-4-7.36-5.88-11.18-2.16-4.48-3.11-11.59-10.9-5.1-3.62,3-6.42.54-7.92-3.24-1.38-3.48-3-6.73-6-9,0.18,1.37-.46,2.45-3.2,2.79,1.58,1,4.55,2,4.52,2.88-0.65,16,16,16.29,22.8,25.64-1.78,2.58-5.38,2.27-6.52,1.09-6.3-6.59-15.31-6.43-22.81-9.9C50.1,263.27,48,252.63,43,243.9l2.3-1.21-5.64-3.8h0c-5.94-.76-14.49,2.61-15-6.67-6.28,1.44-4,8.76-7.11,12.38l-0.19.06,14.95,13.09h0c11.42,8.36,25.55,12.45,35.83,22.62,3.83,4.14,7.63,8.31,11.5,12.41,1.54,1.64,3.62,3.52,5.74,2.26,6.31-3.73,11.73.23,15.55,3.24,10.26,8.09,23.44,11.18,32.76,21.22,4.43,4.77,13.56,5.17,20.07,1.73,4.5-2.37,6.89-2.46,10.41,1,2.64,2.58,6.31,4.07,9.34,6.3,2.8,2.06,5.91,4.74,4.54,8.44-1.16,3.14-4.11,5.29-8,5.77-35.86,4.48-66-5.4-88.66-34.72a73.11,73.11,0,0,0-10-10.05c-11.26-9.84-21.31-9.6-30.87,1.91-4.71,5.67-7.85,4.48-12,.44-3.57-3.5-7.22-6.92-10.6-10.6-4.18-4.54-9.19-8.92-15.08-8.87-0.72,0-1.41,0-2.09-.08v15.33l2.18,1.26c0.78,0.09,1.57.16,2.36,0.26,4.15,0.53,6.78,1.58,8,5.71l31,17.9a19.58,19.58,0,0,0,3.34-3.68c2.93-4.26,7.08-2.86,11-3l-0.25-.33c3.27-3.63,6.72-2.33,10.22-.41a41.64,41.64,0,0,1,15.48,14.88c7.55,12.28,17.1,22.22,29.79,29.45a545.77,545.77,0,0,0,55.47,27.73c4.31,1.84,8.93,3.46,13.4-.08,1-.79,2.45-1.42,3.54-1,0.46,0.19.9,0.34,1.35,0.49l16.82-9.71a7.5,7.5,0,0,0-3,.73C199.56,377.22,197.11,378,195.87,375.12Zm-92.13-78.95c-1.86-1.3-5.84.11-5.87-4a2.06,2.06,0,0,1,2.68-1.79c2.44,0.8,5.67,1,6.06,4.36C106.76,296.13,105.28,296.58,103.74,296.18Zm16.8,7.93c-1.39.91-3.75,0.24-3.68-1.48,0.17-4.74,4.6-5.39,7.89-6.72,1.94-.78,4.43-0.88,5.58,2.48C128.55,302.46,123.72,302,120.53,304.11Z"/><path class="cls-28" d="M182.81,385.8c-4.47,3.54-9.08,1.92-13.4.08a545.77,545.77,0,0,1-55.47-27.73C101.25,350.92,91.7,341,84.15,328.69a41.64,41.64,0,0,0-15.48-14.88c-3.49-1.93-7-3.22-10.22.41l0.25,0.33h0.07c12.83-1.22,18.47,8.44,24.37,16.86,7.22,10.32,15.08,19.29,25.86,26.49,15.92,10.64,34.1,16.67,50.23,26.8,5.13,3.22,11.92,5,18.62,5.76a4.08,4.08,0,0,0,1,0l3.35-1.93c1.29-1.27,2.42-2.62,4.07-2.35l1.48-.85c-0.45-.15-0.89-0.29-1.35-0.49C185.25,384.38,183.8,385,182.81,385.8Z"/><path class="cls-28" d="M197.18,374.79c-0.91-2.63.68-4.16,2.66-5.26,9.11-5.1,10.52-11.5,4.18-20-2.23-3-5.33-6.86-.62-10.71,2.12-1.74,2.07-3.82.44-5.77s-3.72-3.43-6.46-1.46c-1.86,1.33-5.82,2-5.38.15,2.09-8.59-10.74-15.21-2.85-24.18,1.83-2.08.18-3.89-1.36-4.61-9.21-4.29-16.52-11.92-27.28-13.76-5.9-1-9-.19-11,5.12-1,2.64-2.17,6.6-5.48,2.88-4.48-5-10.86-6-16.21-9-3.3-1.87-4.94-3.06-3.49-7.08,1.18-3.29,3.55-8.16-1.72-9.52-4.92-1.27-6.55,3.85-8.23,7.48-0.9,1.95-.84,4.35-1.77,6.27s-3.79,2.92-4.31.69c-1.83-7.75-5.17-13.63-13.32-16.11-0.95-.29-0.92-3.46-1.54-5.22-0.92-2.62-.09-6.06-2.69-7.82-3.57-2.4-6.55-12.43-11.86-1.06-1.59,3.41-3.95,1.64-4.92-1.55-1.56-5.1-3.29-10.17-9.34-11.73a11.91,11.91,0,0,1,1.13,3.09c3,2.23,4.58,5.48,6,9,1.5,3.78,4.31,6.25,7.92,3.24,7.79-6.49,8.74.62,10.9,5.1,1.85,3.83,1,9.41,5.88,11.18,4.68,1.71,7.17,4.45,8.22,9.22,0.6,2.75,2.09,5.63,5.58,5.41,3.3-.21,4.44-3,5.53-5.74,1.2-3,1.66-6.68,7-7.58-3.44,10.71,2.57,15,10.63,18a26.46,26.46,0,0,1,8.13,4.69c3.72,3.21,6.94,2.46,9.42-1.48,2.19-3.47,4.67-5.68,9.2-4.89,9.35,1.62,16.68,7,24.07,12.37,1.87,1.35,1.52,3.18,1,5.1-2.39,8.32,4.15,14.81,4.75,22.56a3.18,3.18,0,0,0,3.47,2.67c8.59-1.65,8.48,2.46,6.1,8.59-0.55,1.41.15,3.24,1,4.49,5.76,8.2,6.21,15.47-3,21.65a4.75,4.75,0,0,0-1.55,6c1.24,2.9,3.69,2.1,5.62,1.22a7.5,7.5,0,0,1,3-.73l4.69-2.71C207.19,366.78,200.06,378.11,197.18,374.79Z"/><path class="cls-28" d="M24.75,229.38h0c-9.34,1.61-7.27,8.94-7.57,15.08h0l0.23,0.2,0.19-.06c3.11-3.62.83-10.94,7.11-12.38A19.22,19.22,0,0,1,24.75,229.38Z"/><path class="cls-29" d="M58.71,314.58c-4.61,1.81-8.44,4.94-12.53,7.66l17.46,10.08c1.91-1.38,3.22.55,4.26,2.46l8.63,5q-0.58-1.37-1.06-2.84C72.54,327.82,64.28,322.08,58.71,314.58Z"/><path class="cls-29" d="M58.77,314.55h0l-0.05,0c5.57,7.5,13.82,13.24,16.77,22.35q0.48,1.48,1.06,2.84l3.34,1.93a11.25,11.25,0,0,0-.59-1.75C74.66,329.78,69.92,319.52,58.77,314.55Z"/><path class="cls-29" d="M5.41,297.6c-0.79-.1-1.57-0.18-2.36-0.26l10.34,6C12.19,299.19,9.57,298.13,5.41,297.6Z"/><path class="cls-29" d="M58.69,314.55c-3.88.12-8-1.28-11,3a19.58,19.58,0,0,1-3.34,3.68l1.79,1c4.09-2.72,7.91-5.85,12.53-7.66Z"/><path class="cls-29" d="M58.77,314.55H58.69l0,0Z"/><path class="cls-30" d="M41.47,227.57c-0.74-2.57-2.59-4.09-4.11-5.87-0.55,1.69-.9,3.44-1.4,5.15,2.29,2.11,3,3.9-2.78,4.56a11.17,11.17,0,0,1-2-.06,18.9,18.9,0,0,1-2.87.46,2.44,2.44,0,0,0-.59,2.15c3.11,2.62,7.56,2.73,11.76,3.32,2.53,0.92,5.26,1.55,6.52,4.36,0.12,0.49.25,1,.38,1.46,5.22,1.9,10.12,4.79,15.81,5.29a12,12,0,0,1,1.32-4.18c-2.86-1.94-4.06-5.39-6.78-7.45a8.69,8.69,0,0,0-.81-0.54C47.31,239.56,44.34,237.59,41.47,227.57Z"/><path class="cls-30" d="M56.75,236.72c2.72,2.06,3.93,5.51,6.78,7.45a11.53,11.53,0,0,1,1.09-1.65L58.82,235h0c-1,.47-2,0.86-2.89,1.22A8.69,8.69,0,0,1,56.75,236.72Z"/><path class="cls-30" d="M28.33,231.79a18.9,18.9,0,0,0,2.87-.46A4,4,0,0,0,28.33,231.79Z"/><path class="cls-30" d="M37.36,221.69A11.7,11.7,0,0,1,36.12,220h0c-2.16,1.3-1.78,3.44-1.79,5.45,0.59,0.47,1.14.94,1.63,1.39C36.46,225.13,36.81,223.38,37.36,221.69Z"/><path class="cls-30" d="M37.36,221.69c1.52,1.78,3.37,3.3,4.11,5.87,2.88,10,5.84,12,14.47,8.62a3.16,3.16,0,0,0-.83-0.34L52,235.1c-5.17.16-10.13,0.51-7.4-9,1.11-3.85-2.7-5.72-6.66-6.07-0.1.26-.2,0.52-0.31,0.79S37.45,221.41,37.36,221.69Z"/><path class="cls-30" d="M52,235.1l3.1,0.75a3.16,3.16,0,0,1,.83.34c0.9-.35,1.85-0.75,2.89-1.22-1.56,0-3.13.12-4.69,0.09C53.44,235.05,52.72,235.07,52,235.1Z"/><path class="cls-30" d="M37.36,221.69c0.09-.28.17-0.57,0.28-0.85s0.22-.53.31-0.79a15.7,15.7,0,0,0-1.83-.06h0A11.7,11.7,0,0,0,37.36,221.69Z"/><path class="cls-30" d="M63.53,244.17a12,12,0,0,0-1.32,4.18l0.33,0h0c2.75-.34,3.39-1.42,3.2-2.79a12.56,12.56,0,0,0-1.89-1.21C63.74,244.34,63.64,244.25,63.53,244.17Z"/><path class="cls-30" d="M46.4,243.07c-0.13-.48-0.26-1-0.38-1.46-1.26-2.81-4-3.44-6.52-4.36-4.2-.59-8.65-0.7-11.76-3.32,0,0.07,0,.13,0,0.2,0.33,3,3.61,2.78,6.1,2.86,2.13,0.07,4.43-.35,5.86,1.89h0l5.64,3.8h0C45.71,242.81,46.05,242.94,46.4,243.07Z"/><path class="cls-30" d="M63.85,244.41a12.56,12.56,0,0,1,1.89,1.21,11.91,11.91,0,0,0-1.13-3.09,11.53,11.53,0,0,0-1.09,1.65C63.64,244.25,63.74,244.34,63.85,244.41Z"/><path class="cls-31" d="M233.25,289.33c-1.68-10.71-8.78-11.07-19.44-12.68,8.75,11.86,17.92,20.91,18.56,34.43,0.15,3.26,5.79,5.8,9.25,4.34,4.5-1.89,1.5-5.93.16-8.78C239,300.79,234.21,295.39,233.25,289.33Z"/><path class="cls-32" d="M327.56,279.58c-2.13-1.86-2.47-4.59-3-7.28-0.28-1.48-.67-3.31-2.7-3.08s-3,2-3,4c-0.08,4.14,2.6,6.71,5.47,9.11l0.12,0.08A18.83,18.83,0,0,1,327.56,279.58Z"/><path class="cls-32" d="M324.31,282.31c-2.88-2.4-5.56-5-5.47-9.11,0-2,.9-3.73,3-4s2.42,1.6,2.7,3.08c0.5,2.69.84,5.42,3,7.28,0.46-.35.91-0.69,1.36-1.05-1.83-1.14-1.75-3-2-4.85-0.45-2.78,1.53-6.56-2.61-8-2.61-.89-4.73.49-6.51,2.44-2.75,3-2.08,6-.55,9.36a14.63,14.63,0,0,0,6,6.76h0a8.5,8.5,0,0,1,1.22-1.88Z"/><path class="cls-32" d="M327.56,279.58a18.83,18.83,0,0,0-3.13,2.8l1.62,1.07a4.79,4.79,0,0,0,2.59-3.1l-0.15-.09A6.79,6.79,0,0,1,327.56,279.58Z"/><path class="cls-32" d="M328.48,280.27l0.15,0.09a7.15,7.15,0,0,0,.28-1.82c-0.45.36-.9,0.7-1.36,1.05A6.79,6.79,0,0,0,328.48,280.27Z"/><path class="cls-32" d="M324.43,282.39a8.5,8.5,0,0,0-1.22,1.88,8.84,8.84,0,0,0,2.83-.81Z"/><path class="cls-2" d="M287.64,301.54c-0.26-.85-0.48-1.72-0.68-2.59a8.78,8.78,0,0,0-2-3.2c-3.59,5.29-5.25,9.49,3.39,12.95a5.68,5.68,0,0,0,.44-1.65A45.92,45.92,0,0,1,287.64,301.54Z"/><path class="cls-2" d="M288.78,307a5.68,5.68,0,0,1-.44,1.65c0.4,0.16.8,0.32,1.25,0.48A17.18,17.18,0,0,1,288.78,307Z"/><path class="cls-2" d="M287,298.94c0.2,0.88.42,1.74,0.68,2.59A16,16,0,0,0,287,298.94Z"/><path class="cls-33" d="M24,91.55A4.72,4.72,0,0,0,21.57,87l-1.65,1C20.76,89.59,21.76,91.12,24,91.55Z"/><path class="cls-33" d="M23.53,95a11.85,11.85,0,0,0,1.35,0c1.06-.05,3-0.93,3-1.39-0.07-3.09-.54-6.22-2.68-8.68L21.57,87A4.72,4.72,0,0,1,24,91.55c-2.25-.43-3.25-2-4.09-3.58l-1,.56A9.45,9.45,0,0,0,23.53,95Z"/><path class="cls-33" d="M23.53,95A9.45,9.45,0,0,1,19,88.53l-1.51.87c0.06,0.32.11,0.65,0.2,1C18.46,93.52,20.73,94.8,23.53,95Z"/><path class="cls-34" d="M116.53,204.49a3,3,0,0,0-1.82,2.63c-0.15,2.23,1.54,3.08,3.58,3.13,2.22,0.05,4.63-.13,4.55-3C122.77,205,120.7,204.57,116.53,204.49Z"/><path class="cls-15" d="M26.21,295c5.26,5.17,9.35,6.7,15.61.46,9.35-9.33,19.46-8.73,30.37.13,9.53,7.74,16.41,18.07,26,25.87,15.46,12.56,32.07,20.73,52.55,19,5.32-.46,10.69.09,16-0.25,3.18-.21,6.68-0.58,7.7-4.21,0.94-3.34-2-5-4.24-6.66-5.8-4.31-10.9-7.78-19.58-5-7.32,2.36-15.07-.92-22.55-6-13.38-9.15-25.87-20.75-43.88-21.62-8.39-.41-12.45-8.81-17.67-14.55a23.81,23.81,0,0,0-2.12-2.6c-6.76-1.38-13.75-2.32-19.6-5.41-4.84-2.55-8-7.82-10.75-13.07-0.84-.58-1.7-1.13-2.54-1.72-4.5-5.14-12.95-6.47-14.32-14.62-2.93,1-5.14-.93-7.42-2.21-8.68-4.88-9-9-1.24-15.56,1.18-1,2.66-1.65,4.36-3.68a26.26,26.26,0,0,1-12.06-6v61.09a49.19,49.19,0,0,0,8.21,2.34C16.69,282.16,20.87,289.79,26.21,295Z"/><path class="cls-15" d="M8.57,226.94c-7.73,6.61-7.43,10.68,1.24,15.56,2.28,1.28,4.49,3.18,7.42,2.21,0-.09,0-0.16-0.05-0.25h0c-1.29-.89-2.54-1.83-3.87-2.66-11.48-7.23-11.46-8.12.4-15.39,0.54-.33,1.11-0.59,1.67-0.87,1.46-.73,3-1.76,2.83-3.4-0.34-2.53-2.77-2.38-4.5-2.11-5.8.91-9.23-2.44-12.84-5.93v3.2a26.26,26.26,0,0,0,12.06,6C11.23,225.29,9.75,225.93,8.57,226.94Z"/><path class="cls-15" d="M18,289.7c3.38,3.67,7,7.1,10.6,10.6,4.12,4,7.26,5.23,12-.44,9.56-11.51,19.6-11.75,30.87-1.91a73.11,73.11,0,0,1,10,10.05c22.65,29.32,52.8,39.2,88.66,34.72,3.89-.49,6.83-2.64,8-5.77,1.37-3.7-1.74-6.38-4.54-8.44-3-2.23-6.7-3.72-9.34-6.3-3.52-3.44-5.92-3.35-10.41-1-6.51,3.43-15.64,3-20.07-1.73-9.32-10-22.5-13.14-32.76-21.22-3.82-3-9.24-7-15.55-3.24-2.12,1.25-4.19-.62-5.74-2.26-3.87-4.11-7.67-8.27-11.5-12.41-1.24-.31-2.49-0.58-3.75-0.83a23.81,23.81,0,0,1,2.12,2.6c5.22,5.75,9.28,14.15,17.67,14.55,18,0.88,30.5,12.47,43.88,21.62,7.49,5.12,15.23,8.4,22.55,6,8.68-2.8,13.78.67,19.58,5,2.24,1.66,5.18,3.32,4.24,6.66-1,3.64-4.52,4-7.7,4.21-5.34.35-10.71-.21-16,0.25-20.48,1.77-37.09-6.41-52.55-19-9.61-7.8-16.49-18.13-26-25.87-10.91-8.86-21-9.45-30.37-.13-6.26,6.24-10.34,4.71-15.61-.46s-9.52-12.88-17.13-14.31a49.19,49.19,0,0,1-8.21-2.34v2.36c0.68,0.06,1.37.09,2.09,0.08C8.85,280.78,13.87,285.16,18,289.7Z"/><path class="cls-15" d="M31.55,259.33c0.84,0.59,1.69,1.14,2.54,1.72-0.59-1.11-1.16-2.22-1.73-3.31L17.41,244.66l-0.18.05C18.61,252.86,27.05,254.2,31.55,259.33Z"/><path class="cls-15" d="M17.23,244.71l0.18-.05-0.23-.2C17.19,244.55,17.22,244.62,17.23,244.71Z"/><path class="cls-15" d="M26,232l0.1,0.14L26.2,232Z"/><path class="cls-15" d="M35.08,228.75a6,6,0,0,1-1,1.11A1.64,1.64,0,0,0,35.08,228.75Z"/><path class="cls-15" d="M26,232l0.16,0c0.56-1.32,2.12-1.54,3.69-1.63s3.17,0,4.22-.51a6,6,0,0,0,1-1.11,5.13,5.13,0,0,0-.75-3.3c-1.22,6.12-6.15,3.2-9.58,3.93h0A11.43,11.43,0,0,0,26,232Z"/><path class="cls-15" d="M29.88,237.7c-2.34-.61-3.9-2.09-3.92-4.5a3.07,3.07,0,0,1,.17-1L26,232a9.72,9.72,0,0,0-1.33.2c0.52,9.28,9.07,5.91,15,6.67C36.66,236.66,33.11,238.54,29.88,237.7Z"/><path class="cls-15" d="M24.75,229.38a19.22,19.22,0,0,0,0,2.84A9.72,9.72,0,0,1,26,232,11.43,11.43,0,0,1,24.75,229.38Z"/><path class="cls-15" d="M33.18,231.39c5.78-.66,5.07-2.44,2.78-4.56-0.05.19-.1,0.37-0.16,0.56a7.54,7.54,0,0,1-.73,1.35,1.64,1.64,0,0,1-1,1.11,6.82,6.82,0,0,1-2.91,1.47A11.17,11.17,0,0,0,33.18,231.39Z"/><path class="cls-15" d="M28.33,231.79c-0.69.07-1.39,0.13-2.08,0.2H26.2l-0.06.16a9,9,0,0,0,1.6,1.78A2.44,2.44,0,0,1,28.33,231.79Z"/><path class="cls-15" d="M28.33,231.79a4,4,0,0,1,2.87-.46,6.82,6.82,0,0,0,2.91-1.47c-1.06.49-2.75,0.42-4.22,0.51s-3.12.31-3.69,1.63h0.05C26.94,231.91,27.64,231.85,28.33,231.79Z"/><path class="cls-15" d="M35.08,228.75a7.54,7.54,0,0,0,.73-1.35c0.06-.18.1-0.37,0.16-0.56-0.49-.45-1-0.92-1.63-1.39A5.13,5.13,0,0,1,35.08,228.75Z"/><path class="cls-15" d="M33.85,237c-2.49-.08-5.77.16-6.1-2.86,0-.07,0-0.13,0-0.2a9,9,0,0,1-1.6-1.78,3.07,3.07,0,0,0-.17,1c0,2.41,1.58,3.89,3.92,4.5,3.22,0.84,6.77-1,9.83,1.19h0C38.28,236.65,36,237.06,33.85,237Z"/><path class="cls-35" d="M39,176.09c0.73,2.25,3.26,2.11,5.44,2.62-1.33-1.88-3.5-3.4-3.57-5.82C39.56,173.54,38.43,174.28,39,176.09Z"/><path class="cls-35" d="M39,176.09c-0.59-1.81.54-2.55,1.87-3.2a4.92,4.92,0,0,1,.36-2C37,170.55,34,172.53,35,176.68c1.34,5.37,6.42,3.45,10.25,3.64a5.68,5.68,0,0,0-.83-1.6C42.28,178.21,39.75,178.34,39,176.09Z"/><path class="cls-35" d="M44.47,178.71a6.22,6.22,0,0,1,1.45.53c1.67-3.57-2.46-4.65-4.06-6.81l-1,.46C41,175.31,43.14,176.83,44.47,178.71Z"/><path class="cls-35" d="M41.85,172.43a2.83,2.83,0,0,1-.6-1.5,4.92,4.92,0,0,0-.36,2Z"/><path class="cls-35" d="M45.91,179.25a6.22,6.22,0,0,0-1.45-.53,5.68,5.68,0,0,1,.83,1.6h0A7.11,7.11,0,0,0,45.91,179.25Z"/><path class="cls-15" d="M39.85,129.29c1.21,5.61-1.89,11.68,1.82,17C38.59,140.9,44.15,134.57,39.85,129.29Z"/><path class="cls-15" d="M41.74,130.83a43.24,43.24,0,0,1,.56,8.57C43.28,136.42,44.2,133.45,41.74,130.83Z"/><path class="cls-15" d="M42.3,139.41a43.24,43.24,0,0,0-.56-8.57,9.09,9.09,0,0,0-1.89-1.54c4.3,5.28-1.26,11.61,1.82,17h0C40.76,144.13,41.53,141.77,42.3,139.41Z"/><path class="cls-36" d="M139.51,150.51c-4.65-.07-6.91-2.47-5.77-7.37,0.79-3.39-1-5.4-3.93-6.53-1.82-.69-3.85-1-5.22.72-2.08,2.58.36,4.63,1.14,6.88,1.66,4.78,1.66,9.91,3.06,14.74l0.06,0c6,1,9.39-4.08,14.15-6C142.62,151.32,141.68,150.54,139.51,150.51Z"/><path class="cls-36" d="M128.85,158.92l-0.06,0c0.08,0.29.15,0.57,0.25,0.86,6.16,2,11.91,3.13,13.25-5.83a2.1,2.1,0,0,1,.86-0.27,7.21,7.21,0,0,0-.13-0.76C138.24,154.83,134.84,160,128.85,158.92Z"/><path class="cls-36" d="M128.79,158.95c-1.4-4.83-1.4-10-3.06-14.74-0.78-2.25-3.22-4.3-1.14-6.88,1.37-1.7,3.41-1.41,5.22-.72,3,1.13,4.72,3.14,3.93,6.53-1.14,4.9,1.12,7.3,5.77,7.37,2.17,0,3.11.81,3.49,2.43l0.38-.15,0.22,0.08c1.37-1.83,4.45-3.14,2-6.11s-3.43.95-5,1.64c-2,.85-3.85.81-5.27-0.43-1.83-1.6-.87-3.43.66-4.77,5-4.38-.23-5.76-2.42-7.52-4.16-3.34-8.52-3.44-12.57.56-3.31,3.27-.53,4.53,1.76,6.37,2.79,2.24,1.81,5.74,2.11,8.76,0.32,3.2,0,6.65,3.61,8.19A0.57,0.57,0,0,1,128.79,158.95Z"/><path class="cls-36" d="M143.38,152.79l-0.38.15a7.21,7.21,0,0,1,.13.76,3.17,3.17,0,0,1,.46-0.84Z"/><path class="cls-36" d="M128.37,159.55c0.21,0.09.42,0.18,0.66,0.25-0.09-.28-0.16-0.57-0.25-0.86A0.57,0.57,0,0,0,128.37,159.55Z"/><path class="cls-37" d="M63.65,332.32l4.26,2.46C66.87,332.88,65.55,330.94,63.65,332.32Z"/><path class="cls-6" d="M46.66,244.07c3.35,12,9.14,22,23.14,24.58a31.38,31.38,0,0,1,10.07,4.08c-8.56-5.63-15-13-17.8-23.27,0-.32.08-0.62,0.12-0.94C55.72,250.93,50.91,248.34,46.66,244.07Z"/><path class="cls-6" d="M62.19,248.53c0,0.31-.1.62-0.12,0.94,2.84,10.28,9.24,17.65,17.8,23.27q1.79,1.17,3.69,2.25-1.91-1.08-3.69-2.25a31.38,31.38,0,0,0-10.07-4.08C55.81,266,50,256.1,46.66,244.07c-0.44-.44-0.88-0.9-1.31-1.38h0L43,243.9c4.91,8.73,7.05,19.38,17.49,24.21,7.5,3.47,16.5,3.31,22.81,9.9,1.14,1.19,4.75,1.49,6.52-1.09-6.76-9.35-23.45-9.65-22.8-25.64,0-.9-2.94-1.91-4.52-2.88h0Z"/><path class="cls-6" d="M46.66,244.07c4.25,4.28,9.06,6.86,15.53,4.46l0-.17c-5.69-.5-10.59-3.39-15.81-5.29C46.49,243.4,46.57,243.74,46.66,244.07Z"/><path class="cls-6" d="M62.21,248.36l0,0.17,0.36-.12h0Z"/><path class="cls-6" d="M45.35,242.69c0.43,0.48.87,0.93,1.31,1.38-0.09-.33-0.17-0.66-0.26-1C46.05,242.94,45.71,242.81,45.35,242.69Z"/><path class="cls-13" d="M61.18,277.06a225,225,0,0,1-25.35-14.82c7.33,8.13,17.29,12.08,27.24,16.05A10.82,10.82,0,0,0,61.18,277.06Z"/><path class="cls-13" d="M61.18,277.06a10.82,10.82,0,0,1,1.9,1.23c1.71,0.68,3.42,1.37,5.11,2.07-10.28-10.18-24.41-14.26-35.83-22.62a37.49,37.49,0,0,0,3.48,4.5A225,225,0,0,0,61.18,277.06Z"/><path class="cls-13" d="M35.83,262.24l-1.75-1.19c2.77,5.25,5.91,10.52,10.75,13.07,5.85,3.09,12.84,4,19.6,5.41a13.11,13.11,0,0,0-1.36-1.24C53.13,274.32,43.16,270.37,35.83,262.24Z"/><path class="cls-13" d="M35.83,262.24a37.49,37.49,0,0,1-3.48-4.5h0c0.57,1.09,1.14,2.2,1.73,3.31Z"/><path class="cls-13" d="M64.44,279.54c1.26,0.26,2.52.53,3.75,0.83-1.69-.71-3.4-1.39-5.11-2.07A13.11,13.11,0,0,1,64.44,279.54Z"/><path class="cls-6" d="M124.74,295.91c-3.3,1.33-7.72,2-7.89,6.72-0.06,1.72,2.29,2.39,3.68,1.48,3.18-2.08,8-1.65,9.79-5.72C129.17,295,126.68,295.13,124.74,295.91Z"/><path class="cls-6" d="M100.55,290.42a2.06,2.06,0,0,0-2.68,1.79c0,4.08,4,2.67,5.87,4,1.55,0.41,3,0,2.87-1.39C106.21,291.39,103,291.22,100.55,290.42Z"/></svg>