<svg id="Färgen" xmlns="http://www.w3.org/2000/svg" viewBox="0 0 342.27 394.23"><defs><style>.cls-1{fill:none;}.cls-2{fill:#0061c3;}.cls-3{fill:#febb00;}.cls-4{fill:#233e3d;}.cls-5{fill:#024170;}.cls-6{fill:#80460f;}.cls-7{fill:#00429a;}.cls-8{fill:#0054ac;}.cls-9{fill:#a74c00;}.cls-10{fill:#854501;}.cls-11{fill:#927f19;}.cls-12{fill:#363005;}.cls-13{fill:#42633b;}.cls-14{fill:#5b4825;}.cls-15{fill:#1d5440;}.cls-16{fill:#e6eff1;}.cls-17{fill:#004ac4;}.cls-18{fill:#008eda;}.cls-19{fill:#0a5959;}.cls-20{fill:#005ca7;}.cls-21{fill:#fbf7fc;}.cls-22{fill:#86571e;}.cls-23{fill:#005ce6;}.cls-24{fill:#013ba4;}.cls-25{fill:#ecb5b5;}.cls-26{fill:#0081cb;}.cls-27{fill:#93c7e8;}.cls-28{fill:#e98802;}.cls-29{fill:#3b6942;}.cls-30{fill:#788850;}.cls-31{fill:#927e24;}.cls-32{fill:#0e736e;}.cls-33{fill:#fcf7f5;}.cls-34{fill:#0078e4;}.cls-35{fill:#0090ef;}.cls-36{fill:#008ccf;}.cls-37{fill:#0088fd;}.cls-38{fill:#0060b4;}.cls-39{fill:#00517b;}.cls-40{fill:#017daa;}.cls-41{fill:#015c8f;}</style></defs><title>hexagon</title><path class="cls-1" d="M297.26,164.05v0l0,0Z"/><path class="cls-2" d="M258,62.85c-6,4-9.75,9.54-14.63,14.26-3.77,3.65-5.85,8.79-13.23,8.79-6,0-7.45,10.12-2.72,14.75,7.19,7,7.69,12.23,1.79,20.19-2.48,3.35-5.18,6.72-3.12,11.09,1.34,2.82,4.48,2.28,6.72,1.54,4.18-1.39,7.83-2.11,10-8,6.21-16.73,9-35.42,28.7-44.77,5.77-2.74,11.64-6.76,15.7-13.29l-22.69-13.1C263.83,58,260.51,61.23,258,62.85Z"/><path class="cls-2" d="M161.09,20.32c1.33,1.71,1.74,4.21,3.22,5.71,15.68,15.85,12.86,18.59,35,12.82,13.35-3.47,25.31,1,37.66,4.12,3.44,0.88,6.65,2.75,10.49,1.44l-76.15-44L152.08,11.57C156.18,13,158.46,16.93,161.09,20.32Z"/><path class="cls-3" d="M7.57,129.9c0.16-.61.31-1.22,0.48-1.82,4.06-14.18,3.78-17.59-7.41-16.84v32.58a49.38,49.38,0,0,1,3.58-6.75Z"/><path class="cls-4" d="M126.79,52.88C132.07,61.81,138.73,67.73,147,73c10.27,6.47,9.7,7.5,4,17.76-6,10.81-15.62,17.77-23.89,26.21,0.49,19.07-16,10.5-24.41,15-2.3,1.36-1.94,3.65-2,5.78,7.44,1.89,11.78,8.91,18.84,11.42h0l17-.16h0c9.56-.81,13.75-6.76,16.46-15.42,5.68-18.13,16.46-33.2,30.73-45.6,4.15-3.6,7-7.14,5.76-12.7-2-9.25,1.13-20.38-10.19-26.25-5.08-2.64-10.67-3.14-15.92-5.14-12.13-4.62-22.2-11.71-31.22-20.79l-22,12.71A54.58,54.58,0,0,1,126.79,52.88Zm-3.39,93.85c-4.69.63-6.52-3.46-7.17-6.85-0.93-4.87,3.58-3.7,6.18-4.32,3,0.3,6.73-.92,6.77,4.11C129.21,143.71,127,146.24,123.4,146.73Z"/><path class="cls-5" d="M174.19,44.7c7.5,2,14.55,5.74,15.6,14.43,1.32,11,6.41,22.13-5.67,31.94-13.76,11.17-23.26,26.29-28.85,43.3-3,9.21-7.89,15.58-18,16.85-0.88.16-1.77,0.27-2.65,0.36-2.59,3.58-4.4,7.27-.08,11.84,5.34,5.65,9.52,12.93,19.12,12.11,8.18-.7,16.37-0.32,23.58,4.24,3.6,2.28,7.26,5.23,1,8.91h0c-7,9-16.79,15-24.93,22.76-2.92,2.79-6.81,4.66-7.13,9.36,8.44,1.35,12.59-5.15,16.44-10.31,7.5-10.06,16.21-17.61,28.8-20,0.52-3.15,2.53-6,1.82-9.41-12.49-8.25-15.79-21.48-18.43-34.83-2.21-11.18-.23-13.08,11-12.53,8.65,0.42,12.92-4.54,9.73-11.31h0c-1.74,7.85-7.46,8.07-13,5.62-6.52-2.87-4.76-8.41-2.47-13.51,0.22-2.15-.73-5.48,1.27-6.17,16.91-5.85,20.66-24.66,34-34.14,5-3.56,6.42-11.17,14-12.94,3-.7.18-3.78-1.28-5.06C218.52,47.81,206.14,43,194.62,44,174.91,45.66,164,36.3,156.26,20.85a24.31,24.31,0,0,0-4.75-6.36,11,11,0,0,0-3.18-.75l-14,8.06A73.16,73.16,0,0,0,142.3,29C152.08,36.13,162.45,41.58,174.19,44.7Z"/><path class="cls-5" d="M149.85,12.86l-1.51.87a11,11,0,0,1,3.18.75C151,13.94,150.41,13.4,149.85,12.86Z"/><path class="cls-5" d="M179.36,49c11.32,5.87,8.19,17,10.19,26.25,1.2,5.56-1.61,9.1-5.76,12.7-14.27,12.4-25,27.46-30.73,45.6-2.71,8.65-6.9,14.61-16.46,15.42h0c-0.65.88-1.34,1.75-2,2.63,0.88-.09,1.77-0.2,2.65-0.36,10.09-1.26,15-7.64,18-16.85,5.59-17,15.09-32.13,28.85-43.3,12.08-9.81,7-20.93,5.67-31.94-1-8.68-8.09-12.43-15.6-14.43C162.45,41.58,152.08,36.13,142.3,29a73.16,73.16,0,0,1-7.93-7.22L132.22,23c9,9.08,19.09,16.17,31.22,20.79C168.68,45.83,174.28,46.34,179.36,49Z"/><path class="cls-6" d="M83.89,66.84c0.39,7.94,1.31,15.86,1.79,23.8,0.55,9.19-5.23,13.44-12.7,17.13s-17.28,3.48-21.26,12.84A81.2,81.2,0,0,1,78,114.66c14.67-.93,25-9.83,32.23-22.35,5.73-13.65.49-22.22-10.49-31.52-5.53-4.68-10.34-8.13-16.44-9.5l-10.22,5.9c1.26,0.31,2.54.58,3.86,0.79C81,58.62,83.65,62,83.89,66.84Z"/><path class="cls-7" d="M321.83,239.6c-3.33-.25-5,2.86-7.73,3.83h0c-3.86,12.22-.89,15.23,15,15.24h0c4.26-.64,8.76.64,12.91-1.12V235.81C335,235.38,328.14,235.94,321.83,239.6Zm2.48,15.19c-3.09,0-6-.76-5.66-4.44,0.41-4.43,2.85-7.42,7.84-7.53,2.82-.07,5,0.4,4.85,4.13C330.66,250.84,329.82,254.81,324.31,254.78Z"/><path class="cls-8" d="M222.78,41.7a51.15,51.15,0,0,0-22.38-.55c-1.43.3-2.78,0.56-4.09,0.79,11-.38,20.61,4.7,29.85,9.75,7.77,4.24,6.42,7.95.39,14.13-9.77,10-20.64,19.28-27.52,31.82-2.4,4.38-6.07,7.14-10.25,9.41-3,1.61-5.89,3.12-6.42,6.81,9.6-2.8,11-1.59,13.09,8.13,0.25-.14.5-0.26,0.75-0.37,6.94,3.07,2.69,7,.38,10.12-2.59,3.46-6.84,4.61-11,4.08-7.93-1-9.39,3.25-8.15,9.58,2.24,11.37,4.46,22.8,14.27,30.7a7.66,7.66,0,0,1,1.61,1.85c0.52-3.58,2.73-6.15,6.39-8.13,6.6-3.58,9.77-2.12,10.67,5.29,0.28,2.33-1.24,5.82,1.64,6.69,3.7,1.11,4.2-3,5.37-5.24,4.52-8.7,13.49-8.25,20.49-7.86,5.29,0.29,8.49-1,12.57-4.81,2.42,6.91,1.18,13.1,1.49,19.11h0c-0.18,4.94,1.83,7.55,7.13,7.58,9.81,0,19.21-2.51,28.18-5.71,9.27-3.3,11.33-11.61,10-20.8l0,0c-6.62,5.09-14,8.72-22.43,7.39-5.18-.82-11.46-0.82-13.81-7.6-2.48-7.18-.71-13.46,3.74-19.11,7.7-9.8,19.54-8.24,30-10.44,1.91-.4,4.34,1.5,3.67,3.24-2.88,7.57,4.1,13.67,2.64,20.88,3-.11,7.45,1,8.34-2.41,2.22-8.42,10.88-11.31,14.42-18.37h0c4.79-13.55,8.94-27.37,15.59-40.15L289.62,68.74c-3.71,6.81-11.35,11.09-18.06,15.12-9.93,6-17,13.26-19.79,25-1.63,6.92-6,13-8.09,20-1.68,5.66-12.47,9.21-16.84,6-5.77-4.27-3.38-9.55-.25-14.09,4.53-6.57,4.88-12.28-.73-18.65-6.07-6.89-4.37-14.63,4.06-18.21,12.8-5.44,19-17.79,28.69-26.46a7.24,7.24,0,0,0,2.64-5l-10-5.75C241.21,47.45,232.18,43.88,222.78,41.7Zm-6.34,115.76c-3.83.13-6.66-1.8-7.17-5.81-0.42-3.26,1.82-4.32,4.68-4.23,3.75,0.13,6.64,1.49,7.42,5.66C221.34,156.31,219,157.37,216.45,157.46Z"/><path class="cls-8" d="M229.94,83.84c-8.43,3.58-10.13,11.32-4.06,18.21,5.61,6.37,5.27,12.07.73,18.65-3.13,4.53-5.52,9.82.25,14.09,4.37,3.23,15.15-.33,16.84-6,2.08-7,6.46-13.06,8.09-20,2.74-11.69,9.85-19,19.79-25,6.71-4,14.35-8.31,18.06-15.12l-2.33-1.34c-4.06,6.52-9.93,10.54-15.7,13.29-19.66,9.35-22.49,28-28.7,44.77-2.19,5.9-5.85,6.62-10,8-2.24.75-5.39,1.29-6.72-1.54-2.07-4.36.64-7.74,3.12-11.09,5.9-8,5.4-13.17-1.79-20.19-4.73-4.62-3.26-14.75,2.72-14.75,7.38,0,9.45-5.13,13.23-8.79C248.29,72.39,252,66.81,258,62.85c2.47-1.62,5.78-4.81,6.56-8.56l-3.35-1.93a7.24,7.24,0,0,1-2.64,5C248.94,66.05,242.73,78.41,229.94,83.84Z"/><path class="cls-8" d="M157.76,19.28c1.92,4,5.06,7.18,7.38,10.92,6.34,10.2,15.71,13.82,27.35,12.07a33.27,33.27,0,0,1,3.83-.33c1.3-.23,2.66-0.49,4.09-0.79a51.15,51.15,0,0,1,22.38.55c9.4,2.18,18.42,5.76,28.51,4.91l-3.8-2.19c-3.83,1.3-7.05-.57-10.49-1.44-12.35-3.16-24.3-7.59-37.66-4.12-22.18,5.77-19.36,3-35-12.82-1.48-1.5-1.89-4-3.22-5.71-2.63-3.39-4.92-7.37-9-8.75l-1.24.72A14.91,14.91,0,0,1,157.76,19.28Z"/><path class="cls-8" d="M193.28,177.94a7.66,7.66,0,0,0-1.61-1.85c-9.81-7.9-12-19.33-14.27-30.7-1.25-6.33.21-10.59,8.15-9.58,4.2,0.54,8.45-.61,11-4.08,2.31-3.08,6.56-7-.38-10.12-0.25.11-.5,0.24-0.75,0.37l0.1,0.44h0c3.19,6.76-1.08,11.73-9.73,11.31-11.26-.55-13.24,1.34-11,12.53,2.64,13.35,5.94,26.59,18.43,34.83A12.55,12.55,0,0,1,193.28,177.94Z"/><path class="cls-8" d="M188.79,107c4.17-2.27,7.84-5,10.25-9.41,6.88-12.54,17.74-21.8,27.52-31.82,6-6.18,7.38-9.89-.39-14.13-9.23-5-18.84-10.13-29.85-9.75-18.3,3.24-24.63-.31-35.78-17.63-2.51-3.9-4.76-8.1-9-9.82a24.31,24.31,0,0,1,4.75,6.36C164,36.3,174.91,45.66,194.62,44c11.52-1,23.9,3.82,33.44,12.25,1.45,1.28,4.24,4.36,1.28,5.06-7.58,1.78-9,9.38-14,12.94-13.34,9.48-17.08,28.29-34,34.14-2,.69-1,4-1.27,6.17l2.3-.69C182.9,110.16,185.83,108.66,188.79,107Z"/><path class="cls-8" d="M160.53,24.31C171.69,41.62,178,45.18,196.32,41.94a33.27,33.27,0,0,0-3.83.33c-11.64,1.75-21-1.87-27.35-12.07-2.33-3.74-5.46-6.91-7.38-10.92a14.91,14.91,0,0,0-6.93-7l-1,.57c0.56,0.54,1.12,1.08,1.67,1.63C155.77,16.22,158,20.42,160.53,24.31Z"/><path class="cls-9" d="M12.5,116.73c2.37-5.66,5.89-11.07,4.58-17.73-0.74-3.76,2.93-6.55,6.3-8.62A46,46,0,0,0,37.12,77.95l-35,20.18a20.55,20.55,0,0,1-1.52,6.32v4.18C8.77,109.68,12.26,111.55,12.5,116.73Z"/><path class="cls-9" d="M10.37,128.09a2,2,0,0,0,.3-1C10.58,127.4,10.47,127.75,10.37,128.09Z"/><path class="cls-9" d="M8,128.08c-0.17.6-.32,1.21-0.48,1.82a4.36,4.36,0,0,0,2.8-1.81c0.1-.34.21-0.69,0.3-1a1.72,1.72,0,0,0,0-.24c-0.49-3.64.49-6.91,1.82-10.11-0.24-5.17-3.73-7-11.86-8.1v2.61C11.83,110.49,12.11,113.9,8,128.08Z"/><path class="cls-9" d="M0.64,99v5.44a20.55,20.55,0,0,0,1.52-6.32Z"/><path class="cls-10" d="M22.43,142.82c5.65-11.61,16.34-18.75,29.08-22.16-2.15-4.73,1.65-6.42,4.72-8.26,5.11-3.06,10.8-4.92,16.25-7.27C80.26,101.78,84,96,83.17,87.32c-0.33-3.42-1-6.79-1.16-10.25-0.6-13.77-.68-14.81-12.21-18L40.73,75.86c-3.43,6-7.66,11.36-14.17,15.22-5,2.94-6.39,7.4-7.18,13.26-1.06,7.84-5.35,15.08-6.87,23.06-0.27,1.4-1.28,3-3,3-1.21,2.67-2.5,5.29-3.73,7.95a50.77,50.77,0,0,0-2.48,4.83,26.73,26.73,0,0,1-2.69,7.41v28c3.23-5,7.18-9.67,10.25-14.5A209.23,209.23,0,0,0,22.43,142.82Z"/><path class="cls-10" d="M4.22,137.07a47.8,47.8,0,0,1-.88,6.15,50.77,50.77,0,0,1,2.48-4.83c1.23-2.66,2.52-5.28,3.73-7.95a3.77,3.77,0,0,1-2-.54Z"/><path class="cls-10" d="M82,77.08c0.15,3.45.82,6.82,1.16,10.25C84,96,80.26,101.78,72.47,105.14c-5.45,2.35-11.14,4.21-16.25,7.27-3.07,1.84-6.87,3.53-4.72,8.26l0.21-.06h0c4-9.35,13.87-9.19,21.26-12.84s13.26-7.94,12.7-17.13c-0.48-7.94-1.39-15.86-1.79-23.8C83.65,62,81,58.62,76.94,58c-1.32-.21-2.6-0.48-3.86-0.79l-3.28,1.9C81.33,62.27,81.41,63.31,82,77.08Z"/><path class="cls-10" d="M23.37,90.38c-3.37,2.07-7,4.86-6.3,8.62,1.31,6.66-2.21,12.07-4.58,17.73,0.12,2.55-.54,5.89-1.83,10.35a2,2,0,0,1-.3,1c-0.16.55-.32,1.07-0.5,1.65-0.1.23-.22,0.46-0.32,0.69,1.68-.07,2.7-1.64,3-3,1.51-8,5.81-15.22,6.87-23.06C20.17,98.48,21.6,94,26.56,91.08c6.51-3.86,10.74-9.27,14.17-15.22l-3.61,2.08A46,46,0,0,1,23.37,90.38Z"/><path class="cls-10" d="M10.37,128.09a4.36,4.36,0,0,1-2.8,1.81,3.77,3.77,0,0,0,2,.54c0.11-.23.22-0.46,0.32-0.69C10.05,129.16,10.2,128.64,10.37,128.09Z"/><path class="cls-10" d="M10.68,126.84a1.72,1.72,0,0,1,0,.24c1.29-4.46,1.95-7.81,1.83-10.35C11.16,119.92,10.19,123.2,10.68,126.84Z"/><path class="cls-11" d="M2.84,288.79c5.52,0.73,10.87-3.8,16.52-.49a2.07,2.07,0,0,0,3.07-1.14,6.25,6.25,0,0,0-3-6.47c-3.39-2.09-7.74-2.77-9.38-7.16h0c-1.24-.15-2.92.18-3.64-0.51a15.72,15.72,0,0,0-5.82-3.73v19.27a15.71,15.71,0,0,1,2.2.23h0Z"/><path class="cls-12" d="M13.27,274.34c14.94,3.9,15,5.07,15.75,23.93h0c7.53,1.53,1.45-6.83,5.62-7.73h0l1.69-12.78c-4.82-11.11-15.72-10.28-24.77-11.39C3.89,265.43.42,261.84,0.7,255.3c0.07-1.57,0-3.14-.05-4.69V267.2c3.59,1.28,7,4.08,10.58,5.57A17.46,17.46,0,0,0,13.27,274.34Z"/><path class="cls-12" d="M10.11,273.53h0l3.15,0.81a17.46,17.46,0,0,1-2-1.57c-3.57-1.49-7-4.29-10.58-5.57v2.08A15.72,15.72,0,0,1,6.47,273C7.19,273.7,8.87,273.38,10.11,273.53Z"/><path class="cls-9" d="M0.64,143.82v3.61c1.28-3.42,2.3-6.94,3.58-10.36A49.38,49.38,0,0,0,.64,143.82Z"/><path class="cls-9" d="M0.64,150.06v0.57a26.73,26.73,0,0,0,2.69-7.41C2.33,145.45,1.45,147.74.64,150.06Z"/><path class="cls-9" d="M4.22,137.07c-1.27,3.42-2.3,6.94-3.58,10.36v2.63c0.81-2.32,1.68-4.61,2.69-6.84A47.8,47.8,0,0,0,4.22,137.07Z"/><path class="cls-13" d="M32.9,303.57c3.68-2.34,3-5.25,2.29-8.18-0.19.69-.4,1.37-0.66,2-1.26,3.23-3.19,3.59-5.54,1.73a8.28,8.28,0,0,1-1.56,5.35,19.35,19.35,0,0,0-3.17,5.25l3,1.75C27.23,308.37,30.52,306.08,32.9,303.57Z"/><path class="cls-13" d="M74.49,319.19c-1.15-5.48-1.51-11.12-5-15.9-2.29-3.17-2.86-6.75-2.56-10.72,0.53-7.25.07-14.31-6.28-19.53-1.35-1.11-3-3.3-2.74-4.73,2.25-14.88-5.56-29.9,2.84-45.13C66,213.72,71.37,202.51,67,190.41h0c-1.23-6.46,1.42-8.9,7.65-7,16.64,5,16.56,4.9,26.49-10.3,2.52-3.86,5.6-8.75,10.82-7.43,5.37,1.36,8.85,5.48,7.89,12-0.39,2.66-.18,6.59,3.74,6.08,3-.39,4-4.09,3.44-6.84-0.8-3.93-1.63-8.38-4-11.35a17.13,17.13,0,0,1-3.74-14.64c-7.38-2.68-13.3-7.5-18.82-12.9-3.48,3.12-3.92,7.36-3.33,11.54,2.17,15.28-8.68,27.38-28.46,29.6h0c-4.72,0-8.14,1-6.85,7.05C65,201,58.27,213.49,51.88,226c-1.12,2.19-2.17,4.53-5.67,3.16a12.27,12.27,0,0,0-15.72,7.61c-0.91,3,.76,3.87,2.71,5,5.15,3.11,9.07,7.5,13.05,12,7.47,8.38,6.8,21.37-2.07,29.52,0.27,7.32.39,14.6-5.66,20.14h0c4.36,1.12,7.25,3.57,6.89,8.42-0.21,2.93-1.58,5.55-4.58,6.35q-0.69.19-1.39,0.34l22,12.7a18.22,18.22,0,0,1,8.27-4.3C74.93,325.6,75.42,323.61,74.49,319.19Z"/><path class="cls-13" d="M119.63,149.1c-7.07-2.51-11.4-9.53-18.84-11.42-0.13.11-.23,0.23-0.35,0.34,5.52,5.41,11.44,10.22,18.82,12.9,0.11-.6.22-1.2,0.38-1.82h0Z"/><path class="cls-13" d="M34.64,290.54h0c-4.17.91,1.9,9.26-5.62,7.73,0,0.29,0,.58,0,0.87,2.35,1.87,4.29,1.5,5.54-1.73,0.26-.66.46-1.34,0.66-2A11.55,11.55,0,0,1,34.64,290.54Z"/><path class="cls-14" d="M112.12,69.8c3.68,3.26,4.54,8.13,2.54,13-1.31,3.2-1.94,6.6-3,9.87-0.63,1.39-1.31,2.69-2,4-1.68,10.8-4.77,20.83-15.84,26.75-3.72,2-5.79,6-7.23,9.56-3.32,8.27-5.7,16.92-8.47,25.41h0a23.45,23.45,0,0,1,2.79,3.72c0.83,1.69,5.16,1.41,2.93,4.59-1.9,2.71-4.46,4.69-7.72,1.46h0l-5.36,3.52h0a10.46,10.46,0,0,1-.78,5c17.27-3.12,23.29-10.13,24.78-28.24,0.34-4.17-.42-9.37,5.49-10.57l-0.48-.46c-0.74-2.57-.34-4.79,1.93-6.46,1.3-.65,2.66-1.31,4-1.85,5.65-4.53,13.32-5.77,19.12-10,0.19-.77.35-1.57,0.48-2.42,3.29-6.79,10.65-9.55,15.09-15.22,1.35-1.72,2.81-3.36,4.09-5.14,10.84-15,10.77-15.63-5.17-25.5C135,68,130.85,65,128.74,60.33c-4.75-10.58-14-16.1-22.87-22.08L87,49.12C97.52,52.71,104,62.6,112.12,69.8Z"/><path class="cls-14" d="M128.74,60.33C130.85,65,135,68,139.31,70.7c15.94,9.88,16,10.49,5.17,25.5-1.29,1.78-2.74,3.42-4.09,5.14-4.44,5.67-11.8,8.43-15.09,15.22-0.13.85-.29,1.66-0.48,2.42a19.54,19.54,0,0,0,2.39-2h0c8.27-8.44,17.94-15.4,23.89-26.21,5.65-10.26,6.22-11.29-4-17.76-8.32-5.24-15-11.16-20.26-20.09A54.58,54.58,0,0,0,110.2,35.76l-4.33,2.5C114.72,44.23,124,49.76,128.74,60.33Z"/><path class="cls-14" d="M102.79,131.9a18.41,18.41,0,0,1,2.9-2.87c-1.38.54-2.74,1.19-4,1.85-2.26,1.67-2.66,3.89-1.93,6.46l0.48,0.46c0.19,0,.37-0.09.58-0.12C100.86,135.55,100.49,133.26,102.79,131.9Z"/><path class="cls-14" d="M110.23,92.3c-0.19,1.46-.39,2.91-0.61,4.35,0.71-1.27,1.39-2.57,2-4,1.09-3.27,1.72-6.68,3-9.87,2-4.9,1.14-9.77-2.54-13C104,62.6,97.52,52.71,87,49.12L83.3,51.28c6.09,1.37,10.91,4.82,16.44,9.5C110.71,70.08,116,78.65,110.23,92.3Z"/><path class="cls-14" d="M94.72,148.37c-1.49,18.11-7.5,25.12-24.78,28.24a14.28,14.28,0,0,1-1.3,2.54c19.79-2.22,30.64-14.32,28.46-29.6-0.59-4.18-.15-8.42,3.33-11.54l-0.23-.22C94.3,139,95.06,144.21,94.72,148.37Z"/><path class="cls-14" d="M100.21,137.8l0.23,0.22c0.12-.11.22-0.23,0.35-0.34C100.58,137.71,100.4,137.76,100.21,137.8Z"/><path class="cls-15" d="M172.19,180.08a28.3,28.3,0,0,0-15.58-2.22c-11.05,1.63-17.61-5.07-23.31-12.55-4.85-6.37-5-9.6-.43-13.59a79.14,79.14,0,0,1-12.63-.51,96.42,96.42,0,0,0,7.24,18.64,13.46,13.46,0,0,1,1.39,9.16c-0.69,3.13-1.74,6.44-5.65,6.46-3.34,0-4.64-2.75-5.38-5.63-0.39-1.52-.49-3.1-0.84-4.63-0.66-2.91-2-5.4-5.08-6.19-3.23-.83-5.26,1.36-7.17,3.49a45.81,45.81,0,0,0-3.67,5.45c-7.19,10.84-12,12.64-24.53,9.26-3.45-.93-7.33-2.69-7.34,2.73,13.19-2.43,25.36,1.9,37.58,6.3,6.77,2.44,9.09,6.6,7.32,13.64-0.74,3-4.25,7.22.2,9.14,3.52,1.52,7.78-.42,11.48-2.42,15.37-8.29,30.81-16.46,46.24-24.65l4.84-4.28C178.64,183.1,175.46,181.52,172.19,180.08Z"/><path class="cls-15" d="M132.86,151.72a38.68,38.68,0,0,1,3.73-2.78l-17,.16h0c0.19,0.71.41,1.4,0.61,2.11A79.14,79.14,0,0,0,132.86,151.72Z"/><path class="cls-15" d="M133.3,165.32c5.7,7.48,12.25,14.18,23.31,12.55a28.3,28.3,0,0,1,15.58,2.22c3.27,1.44,6.45,3,4.66,7.61L172,192l6.21-3.3h0c6.28-3.69,2.62-6.63-1-8.91-7.21-4.56-15.4-4.94-23.58-4.24-9.6.82-13.77-6.46-19.12-12.11-4.32-4.57-2.51-8.26.08-11.84-0.59.06-1.17,0.12-1.76,0.15C128.25,155.72,128.45,158.94,133.3,165.32Z"/><path class="cls-15" d="M134.62,151.57c0.64-.88,1.32-1.75,2-2.63h0a38.63,38.63,0,0,0-3.73,2.78C133.45,151.69,134,151.63,134.62,151.57Z"/><path class="cls-15" d="M76.54,187.22c12.53,3.39,17.34,1.58,24.53-9.26a45.81,45.81,0,0,1,3.67-5.45c1.91-2.14,3.94-4.32,7.17-3.49,3.08,0.79,4.42,3.28,5.08,6.19,0.35,1.53.45,3.11,0.84,4.63,0.74,2.89,2,5.65,5.38,5.63,3.91,0,5-3.33,5.65-6.46a13.46,13.46,0,0,0-1.39-9.16,96.42,96.42,0,0,1-7.24-18.64l-0.34,0c-0.22-.08-0.43-0.17-0.65-0.25A17.13,17.13,0,0,0,123,165.57c2.38,3,3.21,7.42,4,11.35,0.56,2.76-.44,6.46-3.44,6.84-3.92.51-4.13-3.42-3.74-6.08,1-6.56-2.52-10.69-7.89-12-5.21-1.32-8.3,3.57-10.82,7.43-9.93,15.2-9.84,15.25-26.49,10.3-6.23-1.86-8.89.59-7.65,7h0c0.74-.18,1.47-0.32,2.2-0.46C69.21,184.53,73.08,186.29,76.54,187.22Z"/><path class="cls-15" d="M120.24,151.21c-0.2-.7-0.42-1.4-0.61-2.11-0.15.62-.27,1.22-0.38,1.82,0.22,0.08.43,0.18,0.65,0.25Z"/><path class="cls-13" d="M124.18,121.06c-3.48,3.47-8.1,5.07-12.68,6.75,0.2,0,.41,0,0.61,0C118.84,128.37,122.39,125.8,124.18,121.06Z"/><path class="cls-13" d="M124.18,121.06c-1.78,4.74-5.34,7.31-12.07,6.76-0.2,0-.41,0-0.61,0a38.59,38.59,0,0,0-8.71,4.09c8.46-4.46,24.9,4.11,24.41-15h0A16.55,16.55,0,0,1,124.18,121.06Z"/><path class="cls-13" d="M124.18,121.06a18.54,18.54,0,0,0,.64-2.07c-5.81,4.27-13.47,5.52-19.12,10a15.47,15.47,0,0,1,5.81-1.23C116.07,126.13,120.7,124.53,124.18,121.06Z"/><path class="cls-13" d="M102.79,131.9a38.59,38.59,0,0,1,8.71-4.09,15.47,15.47,0,0,0-5.81,1.23A18.41,18.41,0,0,0,102.79,131.9Z"/><path class="cls-13" d="M127.21,116.94h0a19.54,19.54,0,0,1-2.39,2,18.54,18.54,0,0,1-.64,2.07A16.55,16.55,0,0,0,127.21,116.94Z"/><path class="cls-16" d="M122.41,135.56c-2.6.62-7.12-.55-6.18,4.32,0.65,3.39,2.48,7.48,7.17,6.85,3.62-.49,5.81-3,5.78-7.06C129.14,134.64,125.42,135.86,122.41,135.56Z"/><path class="cls-17" d="M341.85,98.89c-4.7,10-9.4,20-13.53,30.21a59,59,0,0,0-2.18,6.73,18,18,0,0,0,3.51-6.16,154.29,154.29,0,0,1,12.41-24.55V99Z"/><path class="cls-17" d="M327.75,198.47c-6.78,5.15-10.53,10.64-7,19.52,1.49,3.74,2.13,7.17,7.25,6.6,1.78-.2,4.14-0.23,4.58,2.19,0.61,3.35-2.53,2.6-4.23,3.62-4.8,2.86-9.36,6.13-14,9.24h0c-1.51.79-1.88,2.18-2,3.71h0a16.57,16.57,0,0,1,9-6.17,46.06,46.06,0,0,1,4.94-2,11.66,11.66,0,0,1,6.76-1.58,27.07,27.07,0,0,1,9,.34V183.83C338.53,189.71,333.22,194.32,327.75,198.47Z"/><path class="cls-17" d="M333.06,233.55a33.12,33.12,0,0,1,9,2.1v-1.76A27.07,27.07,0,0,0,333.06,233.55Z"/><path class="cls-17" d="M312.34,243.45q0.88,0,1.76,0h0c2.73-1,4.4-4.08,7.73-3.83a14.34,14.34,0,0,1,4.47-4.47,46.06,46.06,0,0,0-4.94,2,16.57,16.57,0,0,0-9,6.17h0s0,0.07,0,.11h0Z"/><path class="cls-17" d="M326.14,135.83a59,59,0,0,1,2.18-6.73c4.12-10.24,8.82-20.23,13.53-30.21l-2.49-1.44c-6.65,12.78-10.8,26.6-15.59,40.15A9.49,9.49,0,0,0,326.14,135.83Z"/><path class="cls-18" d="M181.69,362.46c-0.86.57-2.89,0.79-3.41,0.24-10.3-10.85-22.14-3.8-33.2-2.53-6.22.72-7.88-3.09-9.58-6.79-1.35-3-2-6.72,3.23-8,8.69-2.17,8.87-7.74,4.82-14.27-1.85-3-4.53-5.89-2.24-9.35,2.66-4,5.47.19,8.22,0.64,3.11,0.51,5.55-1,7.72-2.74,3.19-2.58-.12-4.2-1.2-6.18-4.42-8.18,2-8.4,7.1-9.61,1.93-8,1.73-14.78-2.73-22.85-3.22-5.83.22-15,2.72-22.41,1.09-3.22,2.52-6.33,3.79-9.49h0c1.58-8.39,7.62-14.67,11.86-21.39,6.33-10,16.17-17.78,24-26.95,6.14-7.19,17.28-5.54,22.66-13.63,7.49,5,17.7-2.59,24.56,5.31,0.32-2-.24-4.14,0-6.13a13.86,13.86,0,0,1-.39-1.6c-0.51-15.42-.51-15.38-16.16-13.45-6.42.79-11.73,2.8-15.66,8.7-3.8,5.7-7.17,5.21-9.32-.22-1.16-2.93.22-7.73-4.65-8-4.23-.25-6.51,3.12-8.32,6.55a9.42,9.42,0,0,1-1.2,1.82c0.1,0.25.2,0.49,0.29,0.74,1,3.62.09,6.87-1.9,9.91a10.15,10.15,0,0,1-1.83,1.79c-2.88,9.72-13.3,13.85-17.7,22.45a2,2,0,0,1-1.54.83c-10.5-7.09-9.73,3.63-12.5,8.11-4.22,6.82-8.07,13.89-9.09,22.07-1,7.7-9.22,8.48-13.34,13.4-2.5,3-6,5.86-8.73,9.15-1.47,1.78-2.17,5.61-5.25,3.78-2.16-1.29-1.9-5.17-.39-6.9,7.72-8.85,9.75-21,17.46-29.73q0.93-1.06,1.89-2.09c1.54-1.66,3.32-3.53.86-5.51-2-1.62-3.25.67-4.64,1.75-1.71,1.33-3.44,2.62-5.16,3.93L82.13,281.31h0c-0.19,4.36.27,8.89-.74,13S80,301.35,85,303c2.67,0.88,2.64,3.92,2.76,6.43,13.05,0.7,12.91.72,13.2,13.79,0.23,10-2.11,20.44,3.66,29.81,6.94,6,14.19,11.69,23.35,13.46,6.93,1.34,14,.13,18.94,7.87,2.4,3.72,7-.61,8.33-4.22,3.65-9.93,6.55-5.41,9.66.18h0c0.31-2.76,0-6,4.28-5.84,3.68,0.17,3.37,3,3.49,5.5,1.7-.64,2.29-3.89,5.29-1.54a29.64,29.64,0,0,0,12.37,6.11c2.84,0.59,5.35,3.09,3.94,6.93l9.74-5.63c-4.15-3.49-8.55-7-12.64-10.87C188.43,362.25,186,359.64,181.69,362.46Z"/><path class="cls-18" d="M206.31,374.49l6.72-3.88a4.54,4.54,0,0,0-3.8-1.65C205.7,369.15,206.8,372.1,206.31,374.49Z"/><path class="cls-18" d="M193.22,181.11c0.71,3.39-1.3,6.26-1.82,9.41h0a17.83,17.83,0,0,1-.47,2,10.15,10.15,0,0,0,1.83-1.79c2-3,2.9-6.29,1.9-9.91-0.09-.25-0.19-0.49-0.29-0.74A5,5,0,0,1,193.22,181.11Z"/><path class="cls-18" d="M250.42,163.87c-4.08,3.77-7.28,5.1-12.57,4.81-7-.39-16-0.83-20.49,7.86-1.16,2.24-1.67,6.36-5.37,5.24-2.89-.87-1.36-4.36-1.64-6.69-0.9-7.41-4.07-8.87-10.67-5.29-3.65,2-5.86,4.55-6.39,8.13a12.39,12.39,0,0,1,1.09,2.15,9.42,9.42,0,0,0,1.2-1.82c1.8-3.43,4.08-6.8,8.32-6.55,4.88,0.29,3.49,5.09,4.65,8,2.15,5.44,5.52,5.93,9.32.22,3.93-5.9,9.24-7.91,15.66-8.7,15.65-1.93,15.65-2,16.16,13.45a13.86,13.86,0,0,0,.39,1.6,5.14,5.14,0,0,1,1.83-3.34C251.6,177,252.84,170.79,250.42,163.87Z"/><path class="cls-18" d="M193.22,181.11a5,5,0,0,0,1.15-1,12.39,12.39,0,0,0-1.09-2.15A12.55,12.55,0,0,0,193.22,181.11Z"/><path class="cls-19" d="M78.51,329.86c4.28-2.7,6,2.85,8.69,4.91,1.67,1.27,2.76,3.29,4.11,5h0c11.57-6.6-.35-14,0.49-21.11,0.29-2.42-1.81-5.13-3.36-7.77a7.84,7.84,0,0,1-1.69-1.16c-0.29-.22-0.55-0.45-0.82-0.67a25.45,25.45,0,0,1-6.2-1.9c-2.85-1.5-6.26-2.88-3.11-7.71,2.36-3.62,1.88-8.26,2.79-12.49,0.25-1.53.55-3.08,0.87-4.63A12.28,12.28,0,0,1,84,277c16.51-14.35,31.17-30.67,47.72-45a10.79,10.79,0,0,0,3.11-2.29c2.67-4.09,6.72-6.77,11.3-8.88-2.69-5.23,2-7.58,5.06-10.35q7.68-6.92,15.44-13.73c-13.91,8.92-28.82,16.1-43.62,23.39-8.69,4.28-13.69.23-11.63-9.3,1.7-7.86-1.67-11.5-8.16-13.22-10.18-2.7-20-8-31.12-5.38a4.74,4.74,0,0,1-2.54-.12c3.68,11.52-2.75,21.41-5.92,31.66-3,9.61-5.26,18.26-3.54,29.07,1.53,9.64,4.79,18.1,7.19,27.14,3.33,12.55,6.54,25.29,9.52,38,1.25,5.35-.53,9.28-6,11.12a17.05,17.05,0,0,0-6.39,3.82l10.32,6C74.3,335.36,75.71,331.62,78.51,329.86ZM75.95,199.39c9.91-1.57,25.23,8.26,24.65,14.21-0.65,6.63-4.4,10.19-11.64,9.23-7.13-1.29-15.42-2.33-18.13-9.84C69.38,209,69.62,200.4,75.95,199.39Zm-6.32,68.4c-4.06-.53-5.48-3.64-4.5-6.75,1.86-5.94,1.35-12.52,5.62-17.91,2.73-3.45,4.12-5.65,8.54-1.83,3.32,2.88,7.7,6,10.92-1.52,1.23-2.86,6.09-5.34,9.49-2.66,2.88,2.27,1.06,6.8-1.08,8.35-9.45,6.83-16.56,16.53-27.14,21.9A7.93,7.93,0,0,1,69.63,267.79Z"/><path class="cls-19" d="M153.29,211.43c8.14-7.78,17.9-13.78,24.93-22.76h0c-3.77,2.87-7.66,5.53-11.61,8.07q-7.74,6.83-15.44,13.73c-3.07,2.76-7.75,5.12-5.06,10.35l0,0C146.48,216.09,150.38,214.22,153.29,211.43Z"/><path class="cls-19" d="M76.79,318c-3-12.72-6.18-25.45-9.52-38-2.4-9-5.66-17.51-7.19-27.14-1.72-10.82.57-19.47,3.54-29.07,3.18-10.25,9.61-20.15,5.92-31.66A5.59,5.59,0,0,1,67,190.41h0c4.38,12.1-1,23.31-6.21,32.77-8.4,15.23-.59,30.25-2.84,45.13-0.22,1.43,1.39,3.62,2.74,4.73,6.35,5.22,6.81,12.28,6.28,19.53-0.29,4,.27,7.56,2.56,10.72,3.46,4.78,3.81,10.42,5,15.9,0.93,4.42.44,6.41-4.78,7.73a18.22,18.22,0,0,0-8.27,4.3l3,1.72a17.05,17.05,0,0,1,6.39-3.82C76.26,327.28,78,323.35,76.79,318Z"/><path class="cls-19" d="M125.77,216.62c-3.7,2-8,3.94-11.48,2.42-4.45-1.92-.94-6.18-0.2-9.14,1.77-7-.55-11.21-7.32-13.64-12.22-4.4-24.39-8.73-37.58-6.3,0,0.37,0,.77.05,1.2s0.2,0.64.3,1a4.74,4.74,0,0,0,2.54.12c11.16-2.65,20.93,2.68,31.12,5.38,6.49,1.72,9.86,5.37,8.16,13.22-2.06,9.53,2.94,13.58,11.63,9.3,14.8-7.3,29.71-14.47,43.62-23.39L172,192C156.59,200.16,141.15,208.33,125.77,216.62Z"/><path class="cls-19" d="M172,192l-5.4,4.77c4-2.54,7.85-5.2,11.61-8.07Z"/><polygon class="cls-19" points="178.23 188.67 178.23 188.67 178.23 188.68 178.23 188.67"/><polygon class="cls-19" points="178.23 188.68 178.23 188.67 178.23 188.68 178.23 188.68"/><path class="cls-19" d="M69.2,190c-0.73.13-1.47,0.28-2.2,0.46a5.59,5.59,0,0,0,2.56,1.71c-0.1-.32-0.18-0.64-0.3-1S69.2,190.32,69.2,190Z"/><path class="cls-19" d="M131.7,232C115.15,246.3,100.5,262.62,84,277a12.28,12.28,0,0,0-3.7,5.34c-0.32,1.55-.62,3.1-0.87,4.63a11.68,11.68,0,0,1,2.71-5.63h0l50.66-47.54a18.79,18.79,0,0,1,2-4.06A10.79,10.79,0,0,1,131.7,232Z"/><path class="cls-19" d="M85.93,309c0.27,0.22.53,0.45,0.82,0.67a7.84,7.84,0,0,0,1.69,1.16c-0.27-.47-0.53-0.93-0.76-1.39C87.11,309.31,86.52,309.17,85.93,309Z"/><path class="cls-20" d="M146.61,221.69c-0.19-.29-0.34-0.57-0.48-0.85a27.44,27.44,0,0,1-5.57,5.2,4.42,4.42,0,0,1,2.84,1.35c5.27,4.85-1.2,9-3.77,12.69-5.89,8.49-8.67,18.56-14.54,27.15a87.56,87.56,0,0,1,11.49-10.75c6.89-5.07,12.08-10.9,13.87-20.19,1.33-6.87,6.24-12.82,9.43-19.36C156.22,220.46,152.59,224.21,146.61,221.69Z"/><path class="cls-20" d="M164.33,212.26c12.33-.48,17.15-10.27,23.61-18-3.27,1.39-7,1.94-10,4.06C172.47,202.15,168.6,207.4,164.33,212.26Z"/><path class="cls-20" d="M146.13,220.84c0.14,0.28.29,0.56,0.48,0.85,6,2.52,9.62-1.23,13.27-4.76,0.27-.55.54-1.09,0.78-1.65,0.61-1.43,2-3,3.45-3l0.22,0c4.27-4.86,8.14-10.11,13.61-14,3-2.12,6.73-2.67,10-4.06a39.21,39.21,0,0,1,3.46-3.72c-12.59,2.36-21.3,9.91-28.8,20-3.85,5.16-8,11.66-16.44,10.31h0Z"/><path class="cls-20" d="M164.33,212.26c-1.26,1.43-2.55,2.84-3.93,4.16l-0.52.5c-3.18,6.54-8.1,12.49-9.43,19.36-1.79,9.29-7,15.12-13.87,20.19a87.56,87.56,0,0,0-11.49,10.75c5.88-8.58,8.66-18.66,14.54-27.15,2.57-3.71,9-7.84,3.77-12.69a4.42,4.42,0,0,0-2.84-1.35c-2.93,2.23-5.93,4.38-7.77,7.73,1.72-1.31,3.45-2.61,5.16-3.93,1.39-1.08,2.62-3.37,4.64-1.75,2.46,2,.68,3.85-0.86,5.51q-1,1-1.89,2.09c-7.7,8.78-9.74,20.89-17.46,29.73-1.51,1.73-1.78,5.61.39,6.9,3.08,1.83,3.78-2,5.25-3.78,2.71-3.29,6.24-6.17,8.73-9.15,4.12-4.92,12.38-5.7,13.34-13.4,1-8.18,4.87-15.26,9.09-22.07,2.77-4.48,2-15.2,12.5-8.11a2,2,0,0,0,1.54-.83c4.4-8.6,14.82-12.73,17.7-22.45a13.59,13.59,0,0,1-3,1.7C181.48,202,176.66,211.78,164.33,212.26Z"/><path class="cls-20" d="M160.66,215.28c-0.24.56-.52,1.1-0.78,1.65l0.52-.5c1.38-1.32,2.67-2.73,3.93-4.16l-0.22,0C162.66,212.32,161.27,213.85,160.66,215.28Z"/><path class="cls-20" d="M191.4,190.52a39.21,39.21,0,0,0-3.46,3.72,13.59,13.59,0,0,0,3-1.7,17.83,17.83,0,0,0,.47-2h0Z"/><path class="cls-20" d="M146.13,220.84v0c-4.59,2.11-8.63,4.79-11.3,8.88,1.85-1.76,3.65-3.74,5.75-3.66A27.44,27.44,0,0,0,146.13,220.84Z"/><path class="cls-20" d="M146.16,220.8h0l0,0v0Z"/><path class="cls-20" d="M140.56,226c-2.1-.08-3.9,1.9-5.75,3.66a18.79,18.79,0,0,0-2,4.06C134.63,230.42,137.63,228.27,140.56,226Z"/><path class="cls-21" d="M182.17,115c-0.74,3.61-3,7.5,1.58,10.26,4.92,3,8-1.16,11.59-3.19C192.43,116.8,187.25,116,182.17,115Z"/><path class="cls-21" d="M183.75,125.25c-4.55-2.75-2.33-6.65-1.58-10.26-0.71-.14-1.41-0.28-2.1-0.44-2.28,5.1-4,10.64,2.47,13.51,5.56,2.45,11.27,2.23,13-5.62h0c-0.07-.13-0.15-0.25-0.22-0.37C191.73,124.09,188.67,128.22,183.75,125.25Z"/><path class="cls-21" d="M182.17,115c5.08,1,10.26,1.81,13.17,7.07l0.12-.07c-2.09-9.72-3.49-10.93-13.09-8.13,0,0.17-.07.32-0.09,0.5S182.21,114.78,182.17,115Z"/><path class="cls-21" d="M195.34,122.06c0.07,0.13.15,0.24,0.22,0.37l-0.1-.44Z"/><path class="cls-21" d="M182.28,114.37c0-.18.06-0.33,0.09-0.5l-2.3.69c0.69,0.16,1.4.3,2.1,0.44C182.21,114.78,182.25,114.57,182.28,114.37Z"/><path class="cls-22" d="M78.52,149.28c-1.46,2.41-2.93,4.67-1.89,7.08,0.91-2.77,1.74-5.57,2.57-8.36A12.46,12.46,0,0,1,78.52,149.28Z"/><path class="cls-22" d="M13.26,175c4.08-.1,4.06-4.09,5.31-6.8,5.77-12.48,13.23-23.27,27.51-27.12h0c9.67-3.43,19.65-1.59,29.41-1.09,3.65,0.19,4.88,2.52,4.5,5.28,3.26-10.63,7.21-20.85,17.85-28.22,5.3-3.68,7.55-10.38,9.7-17.07-7.9,11.69-19.77,17.23-34.79,17.41-7.33.09-13.65,5-21.12,3.59l-0.08-.19c-2.36,3.48-6.18,4.91-9.68,6.74C31.41,133,23.56,140.35,22.81,153c-0.09,1.58,0,3.67-1.32,4.34-8.17,4.15-10.17,13-15.36,19.3a41.16,41.16,0,0,0-5.49,8.93v1.72c1.27-1.65,2.4-3.42,3.59-5.16C6.46,178.92,8.23,175.13,13.26,175Z"/><path class="cls-22" d="M78,114.66a81.2,81.2,0,0,0-26.29,5.95h0c0,0.07-.1.13-0.15,0.2L51.65,121c7.47,1.46,13.79-3.51,21.12-3.59,15-.18,26.9-5.72,34.79-17.41,0.84-2.63,1.67-5.25,2.66-7.68C103,104.83,92.67,113.73,78,114.66Z"/><path class="cls-22" d="M21.5,157.39c1.32-.67,1.22-2.76,1.32-4.34,0.74-12.69,8.6-20,19.07-25.5,3.5-1.82,7.33-3.26,9.68-6.74l-0.06-.14c-12.74,3.41-23.43,10.54-29.08,22.16a209.23,209.23,0,0,1-11.53,21.29c-3.07,4.83-7,9.46-10.25,14.5v7a41.16,41.16,0,0,1,5.49-8.93C11.33,170.36,13.33,161.54,21.5,157.39Z"/><path class="cls-22" d="M51.5,120.67l0.06,0.14c0-.07.1-0.13,0.15-0.2Z"/><path class="cls-22" d="M76.62,156.36a6.28,6.28,0,0,0,1.45,2h0c2.76-8.49,5.14-17.14,8.47-25.41,1.44-3.58,3.51-7.57,7.23-9.56,11.07-5.93,14.16-15.95,15.84-26.75q-1,1.74-2,3.33c-2.15,6.69-4.4,13.39-9.7,17.07-10.64,7.37-14.59,17.6-17.85,28.22a9.8,9.8,0,0,1-.82,2.71C78.36,150.78,77.53,153.58,76.62,156.36Z"/><path class="cls-22" d="M110.23,92.3c-1,2.44-1.82,5.06-2.66,7.68q1.07-1.59,2-3.33C109.84,95.22,110,93.76,110.23,92.3Z"/><path class="cls-23" d="M332.82,260.86l-4.86.23a28.62,28.62,0,0,1-9.19-1c-7.87-2.51-9.76-7.36-6.51-16.54l0,0c-5.42,4-10.93,7.91-16.22,12.08-2.92,2.3-2.37,4.08,1.39,4.84a12,12,0,0,1,4.25,1.7c10.4,7.05,10.35,8.55-.52,22.89h0c-6.75,6.17-7.47,12.38-.24,18.76,2.9,2.56,2.94,6.16.22,8.12-4.6,3.32-6.49,7.59-7.53,12.18L324.94,306a69.29,69.29,0,0,1,8.63-8.47,26.51,26.51,0,0,0,8.49-11.66V272.12A23.71,23.71,0,0,0,332.82,260.86Z"/><path class="cls-23" d="M312.27,243.58c-3.24,9.18-1.36,14,6.51,16.54a28.62,28.62,0,0,0,9.19,1l4.86-.23a32.72,32.72,0,0,0-3.67-2.19h0c-15.94,0-18.91-3-15-15.24h0A1.41,1.41,0,0,1,312.27,243.58Z"/><path class="cls-23" d="M312.22,243.54l0,0,0-.1Z"/><path class="cls-23" d="M314.1,243.43q-0.88,0-1.76,0l0,0,0,0.1A1.41,1.41,0,0,0,314.1,243.43Z"/><path class="cls-24" d="M339.47,294.33a76.28,76.28,0,0,0-9.16,8.57l11.74-6.78V290.5c-0.29.52-.57,1.05-0.91,1.57A8.87,8.87,0,0,1,339.47,294.33Z"/><path class="cls-24" d="M342.05,268v-8.12a62.57,62.57,0,0,1-7.88.89A21.75,21.75,0,0,1,342.05,268Z"/><path class="cls-24" d="M329.15,258.66h0a26.42,26.42,0,0,1,5,2.12,62.57,62.57,0,0,0,7.88-.89v-2.34C337.91,259.3,333.41,258,329.15,258.66Z"/><path class="cls-24" d="M334.17,260.78l-1.35.07a23.71,23.71,0,0,1,9.23,11.27V268A21.75,21.75,0,0,0,334.17,260.78Z"/><path class="cls-24" d="M333.57,297.53a69.29,69.29,0,0,0-8.63,8.47l5.37-3.1a76.28,76.28,0,0,1,9.16-8.57,8.87,8.87,0,0,0,1.68-2.26c0.34-.52.61-1,0.91-1.57v-4.63A26.51,26.51,0,0,1,333.57,297.53Z"/><path class="cls-24" d="M334.17,260.78a26.42,26.42,0,0,0-5-2.12,32.72,32.72,0,0,1,3.67,2.19Z"/><path class="cls-25" d="M326.5,242.81c-5,.11-7.43,3.1-7.84,7.53-0.34,3.68,2.57,4.42,5.66,4.44,5.5,0,6.35-3.94,7-7.84C331.48,243.22,329.32,242.75,326.5,242.81Z"/><path class="cls-24" d="M321.83,239.6c6.31-3.66,13.17-4.22,20.22-3.78v-0.1C334.76,234,327.75,233.75,321.83,239.6Z"/><path class="cls-24" d="M326.3,235.12a33.2,33.2,0,0,1,6.76-1.58A11.66,11.66,0,0,0,326.3,235.12Z"/><path class="cls-24" d="M326.3,235.12a14.34,14.34,0,0,0-4.47,4.47c5.92-5.84,12.93-5.65,20.22-3.89v-0.06a33.12,33.12,0,0,0-9-2.1A33.2,33.2,0,0,0,326.3,235.12Z"/><path class="cls-23" d="M325.68,137.6l-0.12.46c-3.29,7.91-11.23,12.18-15.25,19.66-1.68,3.12-5.76,3.25-9.23,1.48-0.11-.16-0.19-0.32-0.3-0.48L297.26,164h0v0a5.59,5.59,0,0,1,1.29,1.14c2.13,11.11-1.38,18.67-11.53,22.46A82.5,82.5,0,0,1,262.33,193c-4.56.23-8.69-.49-11-3.94a4.65,4.65,0,0,1-.58,3.2c-0.23.1-.47,0.18-0.7,0.26,1.65,5.22,5.63,5.86,10.41,5.61,10.6-.54,20.31.34,25.65,12,2.23,4.88,8.56,5.63,13.34,5.71C309.82,216,312,221.4,310.5,230.19c3.39,1.45,3.77,4.12,3.8,6.92,4-3.26,8.45-6,12.65-9.16-10.14-6.09-14-19.22-5.82-25.64,9-7.08,15.22-16,20.92-25.24V110.13a144.75,144.75,0,0,0-10.18,20.13C330.57,133.47,329.53,137.11,325.68,137.6Z"/><path class="cls-23" d="M323.77,137.61h0c-3.54,7.06-12.19,10-14.42,18.37-0.89,3.37-5.3,2.3-8.34,2.41l-0.23.34c0.1,0.16.19,0.32,0.3,0.48,3.46,1.77,7.55,1.64,9.23-1.48,4-7.48,12-11.76,15.25-19.66l0.12-.46A8,8,0,0,1,323.77,137.61Z"/><path class="cls-23" d="M287.22,184.85c-9,3.2-18.37,5.75-28.18,5.71-5.3,0-7.32-2.64-7.13-7.58h0c-1.6,1.85-.8,4-0.58,6.08,2.31,3.44,6.44,4.17,11,3.94A82.5,82.5,0,0,0,287,187.65c10.15-3.79,13.66-11.36,11.53-22.46a5.59,5.59,0,0,0-1.29-1.14C298.54,173.24,296.48,181.55,287.22,184.85Z"/><path class="cls-23" d="M321.13,202.3c-8.18,6.42-4.32,19.55,5.82,25.64-4.2,3.13-8.61,5.91-12.65,9.16,0,0.84,0,1.69,0,2.53h0c4.66-3.11,9.22-6.38,14-9.24,1.7-1,4.85-.27,4.23-3.62-0.44-2.42-2.8-2.39-4.58-2.19-5.12.57-5.76-2.86-7.25-6.6-3.53-8.89.22-14.38,7-19.52,5.47-4.15,10.77-8.76,14.3-14.64v-6.77C336.35,186.31,330.15,195.23,321.13,202.3Z"/><path class="cls-23" d="M326.14,135.83c-0.16.59-.31,1.18-0.46,1.77,3.85-.49,4.89-4.14,6.19-7.34a144.75,144.75,0,0,1,10.18-20.13v-5a154.29,154.29,0,0,0-12.41,24.55A18,18,0,0,1,326.14,135.83Z"/><path class="cls-23" d="M325.68,137.6c0.15-.59.3-1.18,0.46-1.77a9.49,9.49,0,0,1-2.37,1.77A8,8,0,0,0,325.68,137.6Z"/><path class="cls-23" d="M250,192.45h0l0,0.07c0.23-.08.47-0.16,0.7-0.26a4.65,4.65,0,0,0,.58-3.2,10.15,10.15,0,0,1-1.25-2.74C249.79,188.31,250.35,190.47,250,192.45Z"/><path class="cls-23" d="M251.91,183a5.14,5.14,0,0,0-1.83,3.34,10.15,10.15,0,0,0,1.25,2.74C251.11,187,250.31,184.83,251.91,183Z"/><path class="cls-26" d="M300.59,158.42c-3.1-4.87-4.18-10.46-4.93-16-0.56-4.14-2.31-5.18-6.23-4.75-10.19,1.13-20.4,2.2-25.21,13.23-4.35,10-.34,16.63,10.44,18,5.52,0.69,10.52-1,15.52-3.06,2.23-.92,4.53-3.29,7.05-1.75l0,0h0C296.58,161,296.94,158.59,300.59,158.42Z"/><path class="cls-26" d="M290.18,165.78c-5,2.07-10,3.75-15.52,3.06-10.78-1.34-14.79-8-10.44-18,4.82-11,15-12.1,25.21-13.23,3.92-.43,5.67.61,6.23,4.75,0.75,5.57,1.83,11.16,4.93,16,0.15,0,.26,0,0.42,0,1.46-7.21-5.52-13.32-2.64-20.88,0.66-1.74-1.77-3.64-3.67-3.24-10.42,2.2-22.26.64-30,10.44-4.44,5.65-6.22,11.94-3.74,19.11,2.34,6.79,8.63,6.79,13.81,7.6,8.45,1.33,15.81-2.3,22.43-7.39C294.71,162.49,292.4,164.86,290.18,165.78Z"/><path class="cls-26" d="M297.26,164h0l3.53-5.28-0.19-.31C296.94,158.59,296.58,161,297.26,164Z"/><path class="cls-26" d="M300.59,158.42l0.19,0.31,0.23-.34C300.85,158.39,300.74,158.42,300.59,158.42Z"/><path class="cls-27" d="M214,147.42c-2.86-.1-5.09,1-4.68,4.23,0.51,4,3.33,5.94,7.17,5.81,2.53-.09,4.89-1.15,4.92-4.38C220.6,148.92,217.7,147.55,214,147.42Z"/><path class="cls-28" d="M1.14,230.67c12.64,2,22.92-3.68,32-11.75a21.65,21.65,0,0,1,12.27-5.7c6-.8,11.49-4.62,13-9.36s-2.85-9.63-8.44-11.66c-5-1.81-2.33-5.54-2.06-8.72,0.36-4.17,2.45-6.1,6.68-6.13,5.52,0,11.28.22,14.41-5.84h0c-0.48-3.72-1.16-7.51,3.69-9.05-2.45-3.44-1.15-8.85-5.86-11.19a2.54,2.54,0,0,1-.26-2.39c3.38-3.72,4.31-5.73,3.93-6.77-0.59,0-1.22,0-1.88,0-7.11.24-14.28-.8-21.33,0.84-11.55,3.51-19.28,11.4-24.34,21.94-2.88,6-5.35,11.85-12.41,14.32-2.93,1-4.07,4.61-6.05,7A44,44,0,0,1,.64,190.8v37.92q0.25,0.92.49,1.84v0.11Z"/><path class="cls-28" d="M1.13,230.56q-0.24-.92-0.49-1.84v1.85l0.5,0.1v-0.11Z"/><path class="cls-28" d="M10.46,179.18c7.06-2.48,9.52-8.32,12.41-14.32,5.06-10.54,12.79-18.44,24.34-21.94,7.05-1.64,14.22-.6,21.33-0.84,0.67,0,1.29,0,1.88,0-0.8-2.2-7.49,0-9.43-.42-4.81-1-9.92-.46-14.9-0.58h0c-14.28,3.85-21.74,14.64-27.51,27.12-1.25,2.72-1.23,6.7-5.31,6.8-5,.12-6.8,3.9-9,7.16C3,183.91,1.91,185.68.64,187.33v3.47a44,44,0,0,0,3.77-4.61C6.4,183.8,7.53,180.21,10.46,179.18Z"/><path class="cls-29" d="M2.93,291.37a9.84,9.84,0,0,0-2.29.3v4.45L15,304.41c-2.28-4.79-6.29-9-10-13.2C4.3,291.28,3.62,291.34,2.93,291.37Z"/><path class="cls-29" d="M5,291.21c-0.73-.81-1.44-1.62-2.13-2.42h0a15.71,15.71,0,0,0-2.2-.23v3.11a9.84,9.84,0,0,1,2.29-.3C3.62,291.34,4.3,291.28,5,291.21Z"/><path class="cls-30" d="M28.41,298.67c-0.37-1.19-.43.42-0.44-0.8a26.13,26.13,0,0,0-3.88-14.22,5.5,5.5,0,0,1-.08,4c-1.15,2.82-3.9,2.8-6.36,2.52-3.66-.42-7.21.27-10.77,0.76a27.86,27.86,0,0,1,11,15.1l4.34,2.5c1-2.66,3.08-5.68,6.36-9.77Z"/><path class="cls-30" d="M10.11,273.53h0c1.63,4.38,6,5.06,9.37,7.16a6.25,6.25,0,0,1,3,6.47,2.07,2.07,0,0,1-3.07,1.14c-5.66-3.31-11,1.22-16.52.49h0a26.43,26.43,0,0,1,4,2.19c3.56-.49,7.11-1.18,10.77-0.76,2.46,0.28,5.21.3,6.36-2.52a5.5,5.5,0,0,0,.08-4C21.1,279.05,16.42,275.7,10.11,273.53Z"/><path class="cls-30" d="M29,298.27c-0.76-18.86-.81-20-15.75-23.93,2.87,1.93,6.15,3.25,8.53,5.81a10.43,10.43,0,0,1,2.29,3.5A26.13,26.13,0,0,1,28,297.87c0,1.22.07-.39,0.44,0.8l0.17,0.14,0.43-.54h0Z"/><path class="cls-30" d="M13.27,274.34l-3.15-.81c6.31,2.17,11,5.53,14,10.13a10.43,10.43,0,0,0-2.29-3.5C19.41,277.59,16.13,276.27,13.27,274.34Z"/><path class="cls-30" d="M29,299.15l-0.41-.33c-3.28,4.08-5.4,7.1-6.36,9.77l2,1.17a19.35,19.35,0,0,1,3.17-5.25A8.28,8.28,0,0,0,29,299.15Z"/><path class="cls-30" d="M28.59,298.82L29,299.15c0-.29,0-0.58,0-0.87Z"/><path class="cls-30" d="M6.87,291c-0.63.09-1.27,0.16-1.9,0.23,3.74,4.16,7.75,8.41,10,13.2l2.89,1.67A27.86,27.86,0,0,0,6.87,291Z"/><path class="cls-30" d="M2.84,288.79h0c0.69,0.81,1.41,1.61,2.13,2.42,0.63-.07,1.27-0.14,1.9-0.23a26.42,26.42,0,0,0-4-2.19h0Z"/><path class="cls-31" d="M43.71,282.09c3.08-4.61,3.82-10,5.1-15.33,1-4.14.24-7.28-2.85-10.18-3.66-3.43-6.75-7.41-10.73-10.56-3.28-2.6-8.44-4.6-6.17-10.22,2.48-6.14,7.33-11.58,13.84-11.08,5.89,0.45,7.06-2.11,9.72-5.9a37.52,37.52,0,0,0,4.72-9.15,21.89,21.89,0,0,1-7.17,4c-11.16,4.07-20.3,10.55-29.83,17.14-5.66,3.91-12.65,3.61-19.11.63,0.6,6.57,2.5,13,2.08,19.68-0.5,8,3.08,12.11,11.19,13.14,9.18,1.16,19,1.85,23.27,12.32C40.45,274.49,41,275.3,43.71,282.09Z"/><path class="cls-31" d="M67,177c0.33-.06.69-0.08,1-0.12a6.12,6.12,0,0,1,0-.76A5.46,5.46,0,0,1,67,177Z"/><path class="cls-31" d="M50.39,184.59c-0.91,3.86,2.09,5.45,4.28,7.67A23.06,23.06,0,0,1,59.54,199a69.18,69.18,0,0,0,0-11.22c-0.36-4.61.94-7.76,3.86-9.49a34.13,34.13,0,0,0-5,1.09C55.2,180.56,51.41,180.26,50.39,184.59Z"/><path class="cls-31" d="M0.7,255.3c-0.28,6.53,3.19,10.12,10.86,11.06,9,1.11,19.94.28,24.77,11.39,0.54-.46,1-0.85,1.43-1.18-4.31-10.46-14.09-11.15-23.27-12.32-8.12-1-11.69-5.11-11.19-13.14,0.42-6.67-1.48-13.11-2.08-19.68l-0.58-.28v19.44C0.72,252.17.77,253.73,0.7,255.3Z"/><path class="cls-31" d="M68.07,176.89c-0.35,0-.72.06-1,0.12a10.66,10.66,0,0,1-3.66,1.29c-2.93,1.72-4.22,4.88-3.86,9.49a69.18,69.18,0,0,1,0,11.22c1.77,4.05,1.09,7.7-2.21,10.67a37.52,37.52,0,0,1-4.72,9.15c-2.66,3.79-3.83,6.35-9.72,5.9-6.5-.5-11.36,4.94-13.84,11.08-2.27,5.62,2.89,7.62,6.17,10.22,4,3.15,7.07,7.13,10.73,10.56,3.09,2.9,3.85,6,2.85,10.18-1.28,5.29-2,10.72-5.1,15.33l0.48,1.18h0c8.87-8.15,9.54-21.14,2.07-29.52-4-4.47-7.9-8.87-13.05-12-2-1.18-3.62-2-2.71-5a12.27,12.27,0,0,1,15.72-7.61c3.49,1.37,4.54-1,5.67-3.16C58.27,213.49,65,201,61.79,186.21c-1.29-6,2.13-7.07,6.85-7.05h0A5.54,5.54,0,0,1,68.07,176.89Z"/><path class="cls-31" d="M69.84,171.58l-0.12.32a6.68,6.68,0,0,1-1.64,4.23,6.12,6.12,0,0,0,0,.76c0.37,0,.7-0.11,1.09-0.13l0.78-.15a10.46,10.46,0,0,0,.78-5h0C70.42,171.64,70.13,171.6,69.84,171.58Z"/><path class="cls-31" d="M69.16,176.77c-0.39,0-.73.09-1.09,0.13a5.54,5.54,0,0,0,.57,2.27h0a14.28,14.28,0,0,0,1.3-2.54Z"/><path class="cls-31" d="M20.33,230.81c9.53-6.59,18.67-13.08,29.83-17.14a21.89,21.89,0,0,0,7.17-4A42.9,42.9,0,0,0,59.54,199a23.06,23.06,0,0,0-4.87-6.75c-2.19-2.21-5.19-3.81-4.28-7.67,1-4.32,4.81-4,8-5.2a34.13,34.13,0,0,1,5-1.09A10.68,10.68,0,0,1,67,177a5.46,5.46,0,0,0,1.05-.88,16.7,16.7,0,0,1,1.43-4.58l-0.59-.05c-3.13,6.06-8.89,5.8-14.41,5.84-4.23,0-6.31,2-6.68,6.13-0.28,3.18-2.92,6.91,2.06,8.72,5.59,2,9.92,6.88,8.44,11.66s-6.93,8.55-13,9.36a21.65,21.65,0,0,0-12.27,5.7c-9,8.07-19.33,13.79-32,11.75,0,0.26.05,0.52,0.08,0.78C7.68,234.43,14.67,234.73,20.33,230.81Z"/><path class="cls-31" d="M1.14,230.67l-0.5-.1v0.6l0.58,0.28C1.2,231.19,1.16,230.93,1.14,230.67Z"/><path class="cls-31" d="M59.54,199a42.9,42.9,0,0,1-2.21,10.67C60.63,206.7,61.31,203.05,59.54,199Z"/><path class="cls-31" d="M67,177a10.68,10.68,0,0,0-3.66,1.29A10.66,10.66,0,0,0,67,177Z"/><path class="cls-31" d="M69.84,171.58l-0.34,0a16.7,16.7,0,0,0-1.43,4.58,6.68,6.68,0,0,0,1.64-4.23Z"/><path class="cls-30" d="M38.18,278c1,4.35-.36,8.46-1.58,12.6-0.24.63-.44,1.26-0.62,1.91,2.25,3.63,2.9,7.29,0,11l2-.06c0-.08-0.07-0.16-0.09-0.24a90.22,90.22,0,0,0,5-19.81c0.13-.17.23-0.34,0.36-0.51C41.16,281.71,40.38,278.83,38.18,278Z"/><path class="cls-30" d="M36.6,290.57c1.22-4.13,2.62-8.25,1.58-12.6a3.83,3.83,0,0,0-1.86-.22l-1.69,12.78q0.74,1,1.34,1.94C36.16,291.84,36.36,291.2,36.6,290.57Z"/><path class="cls-30" d="M36,292.48c-0.27,1-.52,1.94-0.79,2.91,0.73,2.93,1.39,5.84-2.29,8.18l3-.09C38.88,299.77,38.23,296.11,36,292.48Z"/><path class="cls-30" d="M44.18,283.27a3.46,3.46,0,0,1-1-.4c-0.13.17-.23,0.34-0.36,0.51a90.22,90.22,0,0,1-5,19.81c0,0.09.07,0.16,0.09,0.24l0.61,0h0c6-5.54,5.93-12.82,5.66-20.14h0Z"/><path class="cls-30" d="M34.64,290.54a11.55,11.55,0,0,0,.55,4.85c0.27-1,.51-1.94.79-2.91Q35.38,291.51,34.64,290.54Z"/><path class="cls-30" d="M38.18,278c2.2,0.85,3,3.74,5,4.89,0.19-.26.37-0.52,0.55-0.78-2.74-6.78-3.26-7.6-5.95-5.51,0,0.12.11,0.23,0.16,0.35C38,277.28,38.1,277.63,38.18,278Z"/><path class="cls-30" d="M37.92,276.93c0-.12-0.11-0.23-0.16-0.35-0.42.33-.89,0.72-1.43,1.18a3.83,3.83,0,0,1,1.86.22C38.1,277.63,38,277.28,37.92,276.93Z"/><path class="cls-30" d="M44.18,283.27h0l-0.48-1.18c-0.18.26-.36,0.52-0.55,0.78A3.46,3.46,0,0,0,44.18,283.27Z"/><path class="cls-32" d="M85.49,336.17c-1.61-1.32-2.92-3.87-5.4-2.8-2.72,1.17-2.34,4.06-2.48,6.52a1.9,1.9,0,0,0,0,.7l10.51,6.07A16.83,16.83,0,0,1,91,340.18C88.77,339.51,87.27,337.63,85.49,336.17Z"/><path class="cls-32" d="M77.61,339.89c0.13-2.45-.25-5.35,2.48-6.52,2.48-1.07,3.8,1.49,5.4,2.8,1.78,1.46,3.28,3.34,5.52,4,0.11-.15.18-0.3,0.3-0.44h0c-1.35-1.68-2.44-3.71-4.11-5-2.7-2.06-4.4-7.61-8.69-4.91-2.8,1.77-4.22,5.5-3.76,9l2.91,1.68A1.9,1.9,0,0,1,77.61,339.89Z"/><path class="cls-33" d="M40.6,314.91A4.64,4.64,0,0,0,42,309.12c-0.86-2.08-3.05-3.22-4-5.27a3.11,3.11,0,0,1-3.3.93c-1.46,1.49-3.07,2.91-3.77,5a4.6,4.6,0,0,0,.25,4l4.44,2.56A6.22,6.22,0,0,0,40.6,314.91Z"/><path class="cls-33" d="M31,309.75c0.7-2.06,2.31-3.48,3.77-5a5.15,5.15,0,0,1-1.88-1.21c-2.38,2.51-5.67,4.8-5.61,7.94l4,2.29A4.6,4.6,0,0,1,31,309.75Z"/><path class="cls-33" d="M45.42,311.83c0.36-4.85-2.53-7.31-6.89-8.42h0c-0.15.17-.3,0.3-0.45,0.45,0.92,2,3.11,3.19,4,5.27a4.64,4.64,0,0,1-1.44,5.79,6.22,6.22,0,0,1-4.9,1.45l3.74,2.16q0.7-.15,1.39-0.34C43.83,317.38,45.2,314.76,45.42,311.83Z"/><path class="cls-33" d="M35.94,303.48a13.45,13.45,0,0,1-1.06,1.2l-0.1.1a3.11,3.11,0,0,0,3.3-.93c-0.06-.14-0.11-0.28-0.16-0.43Z"/><path class="cls-33" d="M38.08,303.85c0.15-.14.3-0.28,0.45-0.45l-0.61,0C38,303.57,38,303.71,38.08,303.85Z"/><path class="cls-33" d="M35.94,303.48l-3,.09a5.15,5.15,0,0,0,1.88,1.21l0.1-.1A13.45,13.45,0,0,0,35.94,303.48Z"/><path class="cls-31" d="M75.77,166.93c2-.68,6.92.94,3.23-4.12a12.47,12.47,0,0,1-2.51-5c-3.05-1.6-2-4.81-1.15-7.39,1.82-5.5,0-7.7-3.92-8.21a2.69,2.69,0,0,1,.09,1.9c-1.62,6.19,2.16,11.42,2,17.22-0.14.61-.33,1.19-0.51,1.79L75.4,167Z"/><path class="cls-31" d="M76.48,157.79a12.47,12.47,0,0,0,2.51,5c3.7,5.06-1.25,3.44-3.23,4.12L75.4,167l0.69,1.12h0c3.27,3.23,5.83,1.25,7.72-1.46,2.23-3.18-2.11-2.9-2.93-4.59a23.45,23.45,0,0,0-2.79-3.72h0A7.22,7.22,0,0,1,76.48,157.79Z"/><path class="cls-31" d="M66.38,140.51c2-.08,4.32.21,5,1.68,3.92,0.51,5.74,2.7,3.92,8.21-0.86,2.58-1.91,5.79,1.15,7.39,0-.2-0.1-0.39-0.13-0.59s0.18-.56.27-0.84c-1-2.41.43-4.66,1.89-7.08a12.46,12.46,0,0,0,.67-1.29q0.41-1.36.82-2.71c0.37-2.77-.85-5.1-4.5-5.28-9.75-.5-19.74-2.34-29.41,1.09C52.83,139.83,59.62,140.8,66.38,140.51Z"/><path class="cls-31" d="M76.62,156.36c-0.09.28-.18,0.56-0.27,0.84s0.09,0.39.13,0.59a7.22,7.22,0,0,0,1.6.59A6.28,6.28,0,0,1,76.62,156.36Z"/><path class="cls-31" d="M80,145.28q-0.42,1.35-.82,2.71A9.8,9.8,0,0,0,80,145.28Z"/><path class="cls-31" d="M73.51,161.3c0.15-5.8-3.63-11-2-17.22a2.69,2.69,0,0,0-.09-1.9c-0.32,0-.65-0.07-1-0.09,0.38,1-.55,3-3.93,6.77a2.54,2.54,0,0,0,.26,2.39c4.71,2.34,3.41,7.74,5.86,11.19L73,163.09C73.18,162.5,73.37,161.91,73.51,161.3Z"/><path class="cls-31" d="M66.38,140.51c-6.76.29-13.55-.68-20.28,0.58h0c5,0.12,10.09-.4,14.9.58,1.95,0.39,8.63-1.77,9.43.42,0.34,0,.68,0,1,0.09C70.71,140.72,68.37,140.42,66.38,140.51Z"/><path class="cls-22" d="M74.7,167.19a4.9,4.9,0,0,1-2.22-2.46c-0.68,1.91-1.47,3.78-2.2,5.68A8.7,8.7,0,0,1,74.7,167.19Z"/><path class="cls-22" d="M70.28,170.4l-0.3.8a1.34,1.34,0,0,1,.74.45l5.36-3.52c-0.44-.33-0.92-0.64-1.38-1A8.7,8.7,0,0,0,70.28,170.4Z"/><path class="cls-22" d="M69.73,171.18q0.26-.41.55-0.78c0.73-1.9,1.51-3.77,2.2-5.68a3.6,3.6,0,0,1,.13-2.27c-4.86,1.54-4.17,5.34-3.69,9.05h0A1.45,1.45,0,0,1,69.73,171.18Z"/><path class="cls-22" d="M70.28,170.4q-0.29.38-.55,0.78a1,1,0,0,1,.25,0Z"/><path class="cls-22" d="M69.84,171.58c0.29,0,.59.06,0.88,0.08h0A1.34,1.34,0,0,0,70,171.2Z"/><path class="cls-22" d="M69.52,171.49l0.21-.31a1.45,1.45,0,0,0-.81.31h0l0.59,0.05Z"/><path class="cls-22" d="M70,171.2a1,1,0,0,0-.25,0l-0.21.31,0,0.06,0.34,0Z"/><path class="cls-22" d="M74.7,167.19c0.22-.07.46-0.12,0.7-0.17L73,163.09c-0.17.55-.33,1.09-0.52,1.63A4.9,4.9,0,0,0,74.7,167.19Z"/><path class="cls-22" d="M75.4,167c-0.24.05-.48,0.1-0.7,0.17,0.47,0.31.95,0.62,1.38,1h0Z"/><path class="cls-22" d="M72.48,164.72c0.19-.54.36-1.08,0.52-1.63l-0.39-.64A3.6,3.6,0,0,0,72.48,164.72Z"/><path class="cls-34" d="M293.5,249.35c-5.1-7.84-9.65-1.72-13.1.84-8.3,6.16-18.94,8-26.62,15-2.36,2.16-4.34,3.39-6.88,0a16.2,16.2,0,0,0-26.05-.22c-4.43,5.59-10.52,7.33-15.49,6.23-6.85-1.5-13.56-.47-20.1-0.62-10-.23-13.31-5-14.5-13.25a15,15,0,0,0-2-6.14c-1.73,6-4.74,11.61-5.38,18.1-0.59,6-.88,11.49,2.31,17.12s1.63,11.52-1.26,17c-0.43.41-.88,0.79-1.32,1.17,0,3.44.94,6.27,5.19,6.74,4.68,0.52,7.19,3,8.11,7.7,0.63,3.21-1.43,10.54-3.91,12.61-1.11.92-2.7,2.81-2.39,3.59,0.61,1.56,2.6,3.94,3.66,3.77,10.54-1.73,21.91,8.36,31.88-2.16a4.89,4.89,0,0,1,4.45-.76c9.92,4.63,16.17-3.78,23.93-6.62,2.6-1,4.89-3.24,4.29-6.58-0.66-3.7-3.48-2.25-5.9-2.39-4.52-.28-9-3.34-13.49.2-1.17.92-2.58,0.93-2.71-.81-0.5-6.61-5.07-10.55-9.28-14.77-1.76-1.76-2.45-3.61-.51-5.73s4.42-4.22,7.31-2.09c11,8.13,19.25-.3,26.3-5.78a94.47,94.47,0,0,1,46-19.62c10.85-1.49,13.65.57,14.77,10,0.52-.68,1-1.37,1.5-2.08,5.59-8.3,5-11-3.68-16.33-7.93-4.89-8.24-6.79-.13-12.08,4.36-2.84,6.84-9.3,13.6-8a2.34,2.34,0,0,1-.36-0.41c-0.7-2,0-3.5,1.32-4.87a37,37,0,0,1-3.36-6.92c-4,5.28-9.9,9.16-11.93,16C297.33,248.79,294.65,251.12,293.5,249.35Z"/><path class="cls-34" d="M311.76,243a2.34,2.34,0,0,0,.36.41l0.19,0,0-.1c0.09-1.53.46-2.91,2-3.71h0a11.55,11.55,0,0,1-1.24-1.5C311.8,239.51,311.06,241,311.76,243Z"/><path class="cls-34" d="M312.34,243.45h0s0-.07,0-0.11l0,0.1h0Z"/><path class="cls-34" d="M164.49,303.45c2.89-5.5,4.42-11.45,1.26-17s-2.91-11.07-2.31-17.12c0.64-6.49,3.65-12.06,5.38-18.1a8.79,8.79,0,0,0-1.87-2.1c-1.27,3.16-2.7,6.27-3.79,9.49-2.5,7.38-5.94,16.59-2.72,22.41,4.46,8.06,4.66,14.89,2.73,22.85,0,0.26,0,.5,0,0.76C163.61,304.24,164.05,303.86,164.49,303.45Z"/><path class="cls-34" d="M298.52,251.45c-8.11,5.29-7.8,7.19.13,12.08,8.67,5.35,9.27,8,3.68,16.33-0.48.71-1,1.4-1.5,2.08,0.11,1,.22,2,0.3,3.1h0c10.87-14.33,10.92-15.84.52-22.89a12,12,0,0,0-4.25-1.7c-3.76-.76-4.31-2.54-1.39-4.84,5.29-4.17,10.8-8.07,16.22-12.08,0,0-.07-0.08-0.1-0.11C305.36,242.15,302.88,248.61,298.52,251.45Z"/><path class="cls-34" d="M312.31,243.45l-0.19,0s0.07,0.09.1,0.11l0.08-.06v0Z"/><path class="cls-34" d="M312.34,243.45h0v0Z"/><path class="cls-34" d="M313.08,238.14l0.2-.22c0.33-.28.69-0.54,1-0.81,0-2.8-.41-5.47-3.8-6.92-0.25.36-.53,0.69-0.79,1A37,37,0,0,0,313.08,238.14Z"/><path class="cls-34" d="M313.08,238.14a11.55,11.55,0,0,0,1.24,1.5c0-.84,0-1.69,0-2.53-0.34.27-.7,0.53-1,0.81Z"/><path class="cls-35" d="M296.86,302.48c-5.43-6.7-3.45-12.65,2.1-18.14l1-1.26c-6.23-10.13-8.91-10.39-22.2-7.1-14,3.47-26.1,9.91-37.51,18.71-7.25,5.59-15.76,10.71-26.05,6.22-2.08-.91-4.71-1.06-4.15,2.68,0.69,4.55,10.78,12.58,15.39,13.52,5.07,1,12.75-1.83,14.23,5.84,1.37,7.09-5.84,8.63-10.35,11.7-5.09,3.45-10.31,6-16.71,4.23-1.2-.33-2.81-0.47-3.68.24-9.35,7.57-19.79,3.41-29.87,2.94-4.23-.2-8.45-1-10.07-5.49-1.53-4.24,2.3-5.78,4.83-8.07,3.7-3.34,1.2-10.43-5-14.3-3.66-2.27-8.5-3.69-6.24-9.05-2.83,2.4-5.23,4.71-3,10.38,2.49,6.29-3.93,8.92-9.13,8.51-6.28-.5-7.63.78-4.65,6.37,3.69,6.9,2.92,12.72-4.51,16.68-2.5,1.33-3.95,3.21-2.73,6.14s3.66,4.37,6.85,3.3c8.26-2.77,17.18-1.59,25.12-1,8.71,0.7,18.73,3,25.82,10.54,2.66,2.85,5.52,7.48,11.27,1.87,2.07-2,5.39-1.12,6.69,1.9l76.33-44.07A21.61,21.61,0,0,1,296.07,314C299.5,310.24,300.26,306.68,296.86,302.48Z"/><path class="cls-35" d="M207.57,368c-5.75,5.61-8.61,1-11.27-1.87-7.09-7.58-17.11-9.84-25.82-10.54-7.94-.64-16.86-1.82-25.12,1-3.19,1.07-5.57-.24-6.85-3.3s0.22-4.81,2.73-6.14c7.43-4,8.2-9.79,4.51-16.68-3-5.59-1.63-6.87,4.65-6.37,5.2,0.41,11.62-2.22,9.13-8.51-2.24-5.67.16-8,3-10.38a12.24,12.24,0,0,1,.63-1.29c-5.07,1.21-11.52,1.43-7.1,9.61,1.07,2,4.38,3.6,1.2,6.18-2.17,1.76-4.61,3.26-7.72,2.74-2.75-.45-5.56-4.67-8.22-0.64-2.29,3.46.39,6.37,2.24,9.35,4,6.53,3.87,12.1-4.82,14.27-5.18,1.29-4.58,5.06-3.23,8,1.7,3.7,3.35,7.5,9.58,6.79,11.06-1.27,22.9-8.31,33.2,2.53,0.52,0.54,2.55.32,3.41-.24,4.28-2.82,6.75-.21,9.64,2.52,4.09,3.86,8.49,7.37,12.64,10.87l2.34-1.35c0.49-2.39-.61-5.34,2.92-5.53a4.54,4.54,0,0,1,3.8,1.65l1.23-.71C213,366.87,209.65,366,207.57,368Z"/><path class="cls-35" d="M301.11,311.93c2.73-2,2.69-5.56-.22-8.12-7.23-6.38-6.51-12.59.24-18.76h0c-0.41-.69-0.8-1.34-1.18-2l-1,1.26c-5.55,5.49-7.53,11.44-2.1,18.14,3.4,4.19,2.65,7.76-.78,11.56a21.61,21.61,0,0,0-5.48,11.78l3-1.72C294.62,319.52,296.51,315.25,301.11,311.93Z"/><path class="cls-35" d="M286.05,271.92a94.47,94.47,0,0,0-46,19.62c-7.05,5.48-15.31,13.91-26.3,5.78-2.89-2.13-5.28-.14-7.31,2.09s-1.25,4,.51,5.73c4.21,4.22,8.77,8.16,9.28,14.77,0.13,1.74,1.54,1.73,2.71.81,4.49-3.54,9-.48,13.49-0.2,2.43,0.15,5.24-1.3,5.9,2.39,0.6,3.34-1.69,5.63-4.29,6.58-7.76,2.83-14,11.24-23.93,6.62a4.89,4.89,0,0,0-4.45.76c-10,10.53-21.34.43-31.88,2.16-1.06.17-3-2.21-3.66-3.77-0.31-.79,1.27-2.67,2.39-3.59,2.49-2.06,4.55-9.4,3.91-12.61-0.92-4.68-3.43-7.18-8.11-7.7-4.25-.47-5.18-3.3-5.19-6.74l-0.63.54c-2.26,5.36,2.58,6.78,6.24,9.05,6.23,3.87,8.74,11,5,14.3-2.53,2.29-6.37,3.83-4.83,8.07,1.62,4.49,5.84,5.29,10.07,5.49,10.09,0.47,20.52,4.63,29.87-2.94,0.87-.71,2.48-0.57,3.68-0.24,6.39,1.75,11.62-.78,16.71-4.23,4.52-3.06,11.72-4.61,10.35-11.7-1.48-7.67-9.16-4.81-14.23-5.84-4.62-.94-14.71-9-15.39-13.52-0.56-3.74,2.07-3.59,4.15-2.68,10.29,4.49,18.81-.63,26.05-6.22,11.41-8.8,23.52-15.24,37.51-18.71,13.29-3.29,16-3,22.2,7.1l0.88-1.14C299.71,272.49,296.9,270.44,286.05,271.92Z"/><path class="cls-35" d="M163.16,303.86a12.24,12.24,0,0,0-.63,1.29l0.63-.54C163.16,304.37,163.15,304.12,163.16,303.86Z"/><path class="cls-35" d="M299.95,283.08c0.38,0.62.77,1.27,1.18,2-0.09-1.12-.19-2.14-0.3-3.1Z"/><path class="cls-36" d="M172.45,370.35l-0.18-.2-3.69,2c-2.71,3.25-5.28,6.28-7.07,10.49a9.74,9.74,0,0,1-3.61,4.32l13.44,7.76,20.54-11.86C189.18,373.6,180,373.07,172.45,370.35Z"/><path class="cls-36" d="M190.28,374.54a29.64,29.64,0,0,1-12.37-6.11c-3-2.35-3.59.91-5.29,1.54l-0.34.18,0.18,0.2c7.56,2.73,16.73,3.25,19.44,12.47l2.34-1.35C195.62,377.63,193.12,375.13,190.28,374.54Z"/><path class="cls-37" d="M233.95,191c-10.34-.89-18.63,3.77-24.8,8.63-16.93,13.35-31,29.76-39.74,50,2.85,1.29,3,4.7,3.53,7.47,1.51,7.78,6,11.15,13.82,11.23,6.25,0.07,12.49-.38,18.79.45,4.72,0.62,9-1.51,12.9-4.73,11.36-9.5,17.3-9.93,30.08-2.25,2.87,1.73,4.58.39,6.78-.91,8.29-4.89,17.26-8.53,25.35-13.82,3.41-2.22,7.06-4.29,11.46-2.21,3.24,1.53,4.26-1.12,5.83-3.11,3.34-4.23,5.75-9.54,11.45-11.24-0.16-.34-0.32-0.68-0.49-1-0.34-7-4-10.43-11-11.32a22.5,22.5,0,0,1-16.21-10c-4.83-7-12.44-7.36-20.12-7.67-5.22-.21-12.14,1-11.51-8C244.56,194.43,239.1,191.41,233.95,191ZM218.62,204.9a2.89,2.89,0,0,1-3.73-2.85c-0.11-1.91,1.7-2.32,3.09-2.76,1.91-.6,2.65.78,3.19,2.24A3.22,3.22,0,0,1,218.62,204.9Zm29-3.51c1.26,2.32-13.79,13.51-17.87,13.58-3.23,0-7.08-2.29-5.56-4.45,3.37-4.76,1.14-11.9,6.14-16.18C236.35,198.45,244.13,195,247.6,201.39Z"/><path class="cls-37" d="M209.15,199.6c6.16-4.86,14.46-9.52,24.8-8.63,5.16,0.44,10.62,3.46,16.08,1.56,0,0,0-.05,0-0.08h0c-6.86-7.9-17.07-.31-24.56-5.31-5.38,8.1-16.52,6.44-22.66,13.63-7.83,9.16-17.66,16.92-24,26.95-4.24,6.73-10.29,13-11.86,21.39h0a6.48,6.48,0,0,1,2.46.52C178.1,229.36,192.22,213,209.15,199.6Z"/><path class="cls-37" d="M261.54,200.5c7.69,0.31,15.29.72,20.12,7.67a22.5,22.5,0,0,0,16.21,10c7,0.89,10.7,4.28,11,11.32,0.17,0.33.33,0.67,0.49,1a11.47,11.47,0,0,1,1.11-.33c1.53-8.79-.69-14.15-11.05-14.33-4.78-.08-11.11-0.83-13.34-5.71-5.34-11.69-15.06-12.58-25.65-12-4.78.25-8.76-.39-10.41-5.61h0C249.4,201.51,256.32,200.29,261.54,200.5Z"/><path class="cls-37" d="M250,192.45h0s0,0.05,0,.08h0l0-.07h0Z"/><path class="cls-37" d="M298,241.76c-1.57,2-2.59,4.63-5.83,3.11-4.4-2.08-8.06,0-11.46,2.21-8.1,5.28-17.06,8.93-25.35,13.82-2.2,1.3-3.91,2.63-6.78.91-12.77-7.68-18.72-7.25-30.08,2.25-3.85,3.22-8.17,5.36-12.9,4.73-6.3-.83-12.54-0.38-18.79-0.45-7.82-.08-12.31-3.45-13.82-11.23-0.54-2.77-.69-6.18-3.53-7.47-0.13.3-.27,0.59-0.39,0.89s-0.14.45-.2,0.68a15,15,0,0,1,2,6.14c1.18,8.28,4.49,13,14.5,13.25,6.54,0.15,13.25-.89,20.1.62,5,1.09,11.06-.64,15.49-6.23a16.2,16.2,0,0,1,26.05.22c2.54,3.4,4.52,2.17,6.88,0,7.68-7,18.32-8.84,26.62-15,3.45-2.56,8-8.68,13.1-.84,1.15,1.77,3.83-.56,4.28-2.11,2-6.87,7.9-10.75,11.93-16l-0.32-.7C303.7,232.22,301.29,237.53,298,241.76Z"/><path class="cls-37" d="M168.81,251.21c0.07-.23.14-0.45,0.2-0.68s0.26-.59.39-0.89a6.48,6.48,0,0,0-2.46-.52A8.79,8.79,0,0,1,168.81,251.21Z"/><path class="cls-37" d="M309.72,231.22c0.26-.34.54-0.68,0.79-1a11.47,11.47,0,0,0-1.11.33Z"/><path class="cls-38" d="M162.21,376.11a20,20,0,0,1,4.73-4.8l-2.07-1-0.2.15c-2.93-.89-5.57-2.31-8,1.46-4.59,7-10,6.49-15.36.63a9.24,9.24,0,0,0-6.66-2.88,45.29,45.29,0,0,1-9.18-1.52l28.69,16.56C156.83,383.11,159.37,380.26,162.21,376.11Z"/><path class="cls-38" d="M105.7,356.78l1.36,0.78q-0.79-.76-1.55-1.55C105.57,356.26,105.65,356.52,105.7,356.78Z"/><path class="cls-38" d="M141.26,372.55c5.38,5.86,10.77,6.36,15.36-.63,2.48-3.77,5.12-2.35,8-1.46l0.2-.15h0c-3.1-5.59-6-10.11-9.66-.18-1.32,3.61-5.93,7.94-8.33,4.22-5-7.74-12-6.53-18.94-7.87-9.16-1.77-16.4-7.5-23.35-13.46a23.08,23.08,0,0,1,.93,3q0.77,0.8,1.55,1.55l18.36,10.6a45.29,45.29,0,0,0,9.18,1.52A9.24,9.24,0,0,1,141.26,372.55Z"/><path class="cls-38" d="M161.52,382.59c1.79-4.21,4.36-7.24,7.07-10.49l-1.66-.8a20,20,0,0,0-4.73,4.8c-2.83,4.16-5.38,7-8.1,8.62l3.8,2.2A9.74,9.74,0,0,0,161.52,382.59Z"/><path class="cls-39" d="M102.53,352.63C98.7,347.41,97.94,341.73,98,336c-0.54,2.19-2.9,3.81-5.52,4.49a5.91,5.91,0,0,1-1.13-.16,35.8,35.8,0,0,1-.6,7.84l13.08,7.55c0.09-.39.19-0.79,0.31-1.18Q103.3,353.58,102.53,352.63Z"/><path class="cls-39" d="M98.38,322.65c-0.13-6.47-1.91-10.5-8.4-11.3,6.26,6.06,6.25,14.85,8,22.72C98.11,330.26,98.45,326.41,98.38,322.65Z"/><path class="cls-39" d="M90,311.35c6.48,0.79,8.26,4.83,8.4,11.3,0.08,3.76-.27,7.61-0.38,11.43v0A4,4,0,0,1,98,336c0,5.77.73,11.45,4.56,16.67q0.78,1,1.58,1.86c0.14-.49.29-1,0.47-1.47-5.77-9.37-3.44-19.77-3.66-29.81-0.29-13.07-.15-13.1-13.2-13.79v0A18.61,18.61,0,0,1,90,311.35Z"/><path class="cls-39" d="M90,311.35l-0.72-.08a7.18,7.18,0,0,1-.83-0.41c1.55,2.64,3.65,5.35,3.36,7.77-0.84,7.08,11.08,14.51-.49,21.11h0c0,0.18,0,.36,0,0.55a5.91,5.91,0,0,0,1.13.16c2.62-.68,5-2.29,5.52-4.49q0-.94,0-1.88C96.23,326.2,96.24,317.42,90,311.35Z"/><path class="cls-39" d="M90,311.35a18.61,18.61,0,0,0-2.27-1.89h0c0.22,0.46.48,0.93,0.76,1.39a7.18,7.18,0,0,0,.83.41Z"/><path class="cls-39" d="M98,334.1v0Q98,335,98,336A4,4,0,0,0,98,334.1Z"/><path class="cls-39" d="M91.32,340.28l-0.31-.1a16.83,16.83,0,0,0-2.84,6.47l2.55,1.47A35.8,35.8,0,0,0,91.32,340.28Z"/><path class="cls-39" d="M91,340.18l0.31,0.1c0-.18,0-0.36,0-0.55C91.2,339.88,91.12,340,91,340.18Z"/><path class="cls-39" d="M104.11,354.49c-0.12.39-.21,0.79-0.31,1.18l1.91,1.1c-0.05-.26-0.13-0.51-0.2-0.77C105,355.51,104.57,355,104.11,354.49Z"/><path class="cls-39" d="M105.51,356a23.08,23.08,0,0,0-.93-3c-0.18.49-.32,1-0.47,1.47C104.57,355,105,355.51,105.51,356Z"/><path class="cls-39" d="M81.84,305.06c0.14,0,.25.11,0.39,0.15a17.51,17.51,0,0,1-3.05-7.31c-0.13.51-.24,1-0.41,1.54C77.77,302.48,78.86,304.23,81.84,305.06Z"/><path class="cls-39" d="M82.22,305.21a10.74,10.74,0,0,1,5.44,4.21h0c-0.12-2.51-.09-5.55-2.76-6.43-5-1.64-4.61-4.4-3.57-8.63s0.56-8.68.74-13c-2.21,5.3-1.62,11.13-3,16.59A17.51,17.51,0,0,0,82.22,305.21Z"/><path class="cls-39" d="M82.22,305.21c-0.13,0-.25-0.11-0.39-0.15-3-.82-4.06-2.58-3.07-5.62,0.16-.51.28-1,0.41-1.54a32.73,32.73,0,0,1,.24-11c-0.91,4.23-.43,8.87-2.79,12.49-3.15,4.83.26,6.21,3.11,7.71a25.45,25.45,0,0,0,6.2,1.9A20.3,20.3,0,0,1,82.22,305.21Z"/><path class="cls-39" d="M87.65,309.42h0a10.74,10.74,0,0,0-5.44-4.21A20.3,20.3,0,0,0,85.93,309c0.59,0.13,1.17.27,1.75,0.43Z"/><polygon class="cls-39" points="87.66 309.42 87.66 309.42 87.66 309.42 87.66 309.42"/><path class="cls-39" d="M79.41,286.94a32.73,32.73,0,0,0-.24,11c1.34-5.46.74-11.29,3-16.59h0A11.67,11.67,0,0,0,79.41,286.94Z"/><path class="cls-39" d="M87.69,309.44l0,0v0h0Z"/><path class="cls-39" d="M87.65,309.42l0,0h0l-0.06-.06h0Z"/><path class="cls-39" d="M87.69,309.44l0,0h0Z"/><path class="cls-39" d="M87.66,309.42l0.06,0.06,0,0,0,0h0Z"/><path class="cls-39" d="M87.71,309.46l0,0,0,0h0Z"/><path class="cls-35" d="M167.53,370.86h0c1.35-.76,2.7-1.61,4.25-1.2-2.34-2.25-4.64-1.12-6.93.66A3.46,3.46,0,0,1,167.53,370.86Z"/><path class="cls-35" d="M171.8,369.65a3.62,3.62,0,0,1,.81.32c-0.12-2.5.19-5.33-3.49-5.5-4.28-.2-4,3.08-4.28,5.84h0C167.17,368.53,169.46,367.4,171.8,369.65Z"/><path class="cls-35" d="M167.55,370.84h0a3.32,3.32,0,0,1,1.06,1.25l3.69-2c-0.16-.18-0.32-0.35-0.47-0.5C170.25,369.23,168.9,370.08,167.55,370.84Z"/><path class="cls-35" d="M172.28,370.15l0.34-.18a3.62,3.62,0,0,0-.81-0.32C172,369.8,172.12,370,172.28,370.15Z"/><path class="cls-35" d="M164.87,370.31h0l2.07,1c0.2-.15.39-0.31,0.6-0.45A3.46,3.46,0,0,0,164.87,370.31Z"/><path class="cls-35" d="M164.87,370.31h0Z"/><path class="cls-35" d="M167.53,370.86c-0.21.14-.4,0.3-0.6,0.45l1.66,0.8A3.32,3.32,0,0,0,167.53,370.86Z"/><path class="cls-40" d="M99.69,237.12c-3.4-2.68-8.26-.21-9.49,2.66-3.22,7.49-7.59,4.4-10.92,1.52-4.41-3.82-5.81-1.62-8.54,1.83-4.27,5.39-3.76,12-5.62,17.91-1,3.11.45,6.23,4.5,6.75a7.93,7.93,0,0,0,1.85-.42c10.57-5.37,17.69-15.07,27.14-21.9C100.75,243.92,102.57,239.39,99.69,237.12Z"/><path class="cls-41" d="M89,222.83c7.24,1,11-2.6,11.64-9.23,0.58-6-14.74-15.78-24.65-14.21-6.33,1-6.57,9.6-5.12,13.6C73.54,220.49,81.83,221.54,89,222.83Z"/><path class="cls-18" d="M224.18,210.52c-1.52,2.15,2.33,4.49,5.56,4.45,4.07-.06,19.12-11.26,17.87-13.58-3.48-6.41-11.25-2.94-17.29-7C225.32,198.62,227.54,205.77,224.18,210.52Z"/><path class="cls-18" d="M218,199.3c-1.38.43-3.19,0.84-3.09,2.76a2.89,2.89,0,0,0,3.73,2.85,3.22,3.22,0,0,0,2.55-3.36C220.62,200.09,219.89,198.7,218,199.3Z"/></svg>