<svg id="Färgen" xmlns="http://www.w3.org/2000/svg" viewBox="0 0 342.27 394.23"><defs><style>.cls-1{fill:none;}.cls-2{fill:#00336f;}.cls-3{fill:#002e97;}.cls-4{fill:#003998;}.cls-5{fill:#002a7f;}.cls-6{fill:#002279;}.cls-7{fill:#002261;}.cls-8{fill:#003bb1;}.cls-9{fill:#007b9d;}.cls-10{fill:#027fc5;}.cls-11{fill:#00799a;}.cls-12{fill:#00776f;}.cls-13{fill:#003bbd;}.cls-14{fill:#006ebd;}.cls-15{fill:#0063b8;}.cls-16{fill:#007692;}.cls-17{fill:#0037b5;}.cls-18{fill:#0282ca;}.cls-19{fill:#0047bb;}.cls-20{fill:#78f2f5;}.cls-21{fill:#0071d7;}.cls-22{fill:#016e52;}.cls-23{fill:#022437;}.cls-24{fill:#000731;}.cls-25{fill:#076fa6;}.cls-26{fill:#a9ecf6;}.cls-27{fill:#d6f9f9;}.cls-28{fill:#027056;}.cls-29{fill:#217646;}.cls-30{fill:#001314;}.cls-31{fill:#0039c6;}.cls-32{fill:#00817d;}.cls-33{fill:#017377;}.cls-34{fill:#077b69;}.cls-35{fill:#2d6f43;}.cls-36{fill:#006da1;}.cls-37{fill:#327a63;}.cls-38{fill:#003476;}.cls-39{fill:#537a3f;}.cls-40{fill:#02120e;}.cls-41{fill:#fcf2f0;}.cls-42{fill:#fef7f8;}.cls-43{fill:#397d47;}.cls-44{fill:#437634;}.cls-45{fill:#05433e;}.cls-46{fill:#69a79b;}.cls-47{fill:#0e6f65;}.cls-48{fill:#0065b3;}.cls-49{fill:#007f8e;}.cls-50{fill:#007bc7;}.cls-51{fill:#fefdfd;}</style></defs><title>hexagon</title><path class="cls-1" d="M238.33,303.73l0.15,0-0.2-.24Z"/><path class="cls-1" d="M274.14,303.82c0-.13.05-0.25,0.07-0.38l-0.26.15Z"/><path class="cls-1" d="M160.56,165.71H161q0-.21,0-0.42h0Z"/><path class="cls-1" d="M261.13,180.73V181l0.26-.09-0.27-.13h0Z"/><path class="cls-1" d="M220,56.67c0.23,0.18.47,0.35,0.69,0.5a2.12,2.12,0,0,0-.58-0.64Z"/><path class="cls-1" d="M121.2,341l0,0h0v0Z"/><path class="cls-1" d="M74.05,93.65l0,0h0Z"/><path class="cls-1" d="M111.67,68c-1.56,1.07-1.66,2-1.21,2.94,0.9-2,1.82-3.11,3.33-3.44A3,3,0,0,0,111.67,68Z"/><path class="cls-1" d="M172.29,392.19h0c-0.25-.07-0.48-0.09-0.72-0.13,0.09,0.18.16,0.36,0.23,0.53Z"/><path class="cls-2" d="M2.29,148.51H0.86v8.61a17,17,0,0,1,1.06-1.48C3.14,154.15,2.23,150.94,2.29,148.51Z"/><path class="cls-2" d="M0.86,164.07v5.64c1.54-1.21,3-2.49,5.28-2.32A19.07,19.07,0,0,1,.86,164.07Z"/><path class="cls-3" d="M106.43,346.69c0-7.22,6.25-10.19,10.82-12.23,5.22-2.33,3.67,3.53,3.94,6.52h0c6.89-13.28,5-18.17-8.21-20.6-1.82-.33-4,0-4.44-2.45s1.52-3.26,3.22-4a27.77,27.77,0,0,1,4.49-1.16c2.84-.67,6-1.81,5.43-5.13-0.54-3-4-2.25-6.4-2.37-1.86-.09-3.8.15-5.05-1.71h0c-4.84.44-8.14-2.77-11.59-5.26-3.09-2.23-6.15-3.25-9.48-1.29-8.62,5.05-10.09-.76-11.19-7.18-0.48-2.84,1-6.65-3.83-7.14,1.72,2.79,1.83,5.86,1.9,9,0.12,5.89-2.92,10-8.1,11.19-5.35,1.26-10-1.79-12.13-6.77-1.25-2.92-1.58-5.73-5.28-6.78-2.37-.67-3.68-3.51-2.31-5.35,7.91-10.63,3.29-22.24,3.14-33.51h0c-6.68,2-8-3.1-9.3-7.51-0.87-3-1.65-5.77-5.22-5.36-4.12.47-4.44,3.92-4.29,7.19a58.56,58.56,0,0,0,.92,9.31c2.67,12.78-.41,18-13.2,21.46-6.41,1.75-10,5.23-7.72,12.29,0.82,2.53.44,4.44-2.05,5.39-2.77,1.06-4.12-.42-4.4-3.11-0.47-4.51-2.45-7.12-5.25-8.76v14.21L100,352.91C102.24,350.74,103.42,347.78,106.43,346.69ZM45.12,287.13c-0.72,2.3-1.56,4.89-5,4.61-2.67-1-5.14-2.71-5.19-5.74-0.08-4.42,3.69-3.19,6.23-3.3C44,282.59,46.18,283.72,45.12,287.13Z"/><path class="cls-4" d="M21.13,148c3,9.69,8.1,11.17,16,4.2,5.26-4.63,10.62-4.82,16.4-2.11,1.83,0.86,4.1,2.86,2.54,5.28-2.09,3.24-3.37.39-4.85-1.13-3.68-3.78-6.93-1.87-9.48,1.33-3,3.78.32,6.13,3,7.31,6.18,2.76,7,9.43,11,13.66,5.1,5.38,9.86,11,17,14.25,3.6,1.62,8.6,3.12,8.82,8.72,10.15,2.87,20.77,3.26,31.09,5,13.28,2.26,25-4.92,34.31-14.81a1.81,1.81,0,0,0,.59-0.69c-3.86-12.18,7.68-13.89,13.31-19.6h0q0-1.87,0-3.74h-0.39c-2.21,2.44-4.47,5-8.26,2.72s-2.58-5.33-.91-8.2c2.82-4.86.85-8.4-3-11.3-2-1.51-4.68-2.55-3.91-5.66,0.71-2.88,3.45-2.12,5.51-2.36,2.37-.29,5.15-1.35,4.74-3.63-2.32-13.11,8.19-16.58,16.09-21.88,2.93-2,2.67-3.8,2.49-7-1-17.29-7.1-34.22-3.12-52,1-4.53,2.23-13.33-8.39-7.37-3.33,1.87-6.43-1.45-8.68-4-2.82-3.26.32-5.06,2.2-7s3.75-3.32,5.63-5h0c-1.8-10.63,8.35-9.2,13.23-13.09h0l-1.8-3.77h0c-6.25.12-12.23,0.22-17.86-3.88a6.49,6.49,0,0,0-2.85-.89L124.71,27.05c0.34,0.25.69,0.49,1.05,0.71,9.14,5.57,12.07,16.39,20.33,23,4,3.21,3,10.45-1.7,15.17-6.15,6.25-16.83,7.84-25.79,3.8-1.55-.7-3.17-2-4.82-2.23-1.51.33-2.43,1.39-3.33,3.44C111,72,112.18,73,112.74,74.07c1.08,2.08-.71,3.53-2.07,4.74-6.66,5.91-5,9.12,3.24,10.26,2.46,0.34,4.94.62,7.4,0.93h0a4.26,4.26,0,0,1,1.8,0c3.08,1.55,7-6.58,8.59-.18,1,4.13-4.11,6-8.47,5.89-1,2.65-9.14,1.63-3.86,7.51h0c5.95-1.28,12.31-3.41,15.78-7.83,6.73-8.58,14-4.13,21.14-2.59,3.41,0.73,2.95,4.33,2.48,7.21,1,5.41.6,9.68-6.74,8.42,0.49,10.71-3.21,12.72-14.23,7.76-10.44-4.71-11.83-3.81-15,7.6-1.49,5.3-3.84,9.3.27,15.45,2.37,3.55-5.13,4.92-9.23,5.55h0c-0.16,8.13,5.41,14.48,6.93,22.28a97.7,97.7,0,0,1,2.12,13.44c0.35,6.68-1.41,11.64-9.72,8.37-4.73-1.86-10.79,1.6-14.66-4.17-1.5-2.23-3.11.53-4.47,1.48-4.33,3-8.83,3.07-13.06.16-4.72-3.26-6.45-8.4-6.64-13.82-0.14-4,3-4.8,6.44-5.2,3-.34,7.93.23,4.62-5.59-6.88,1.25-9.59-2.67-10.71-8.61-1.58-8.34,6.87-4.91,10.69-9-6.07-1.21-11.29-2.29-16.53-3.28-4.32-.81-5.6-3.3-4.24-7.34h0c-5-6.37-10.18-3.77-15.48-.51S38.61,137.63,36,129.61h0c-5.75-5.19-5.5-12.94-8.51-19.92-4.26,1.66-4.54,5.24-4.42,8.87,0.19,5.94-3.17,7.9-8.33,7.22-4.65-.61-9.28-1.33-13.9-2.1v12.37c6,3.28,10.72,7,16.7,8C19.36,144.35,20.49,146,21.13,148ZM127.87,145c3.52-3.65,4.1-8.16,5.64-12.51,1-3,3.59-5.23,7.37-4.07,1.63,0.5,2.44,1.8,2.54,3.79-2.27,3.1-4.38,6.6-7.09,9.53-3.5,3.78-5.44,6.87.4,10.25,2.09,1.21,4.23,3.29,2.16,6.13-1.72,2.36-4.3,2.11-6.83,1.41C123.38,157.05,121.6,151.46,127.87,145Z"/><path class="cls-5" d="M82.05,51.68a8.07,8.07,0,0,0,2.41-1.39Z"/><path class="cls-5" d="M21.12,115.4c0.46-3.07,1.54-6.62,5.19-7.05,4.35-.51,4.15,3.77,5.43,6.42C33.82,119.05,34.3,124,37,128a9.2,9.2,0,0,0,.92-6h0a4.88,4.88,0,0,1-.73-6.83c2.6-3.4,5.67-6.35.29-9.75-5-3.14-11.27-4.69-15.46-1.12-6.53,5.57-14.08,3-21.18,3.56v13.37c2.93,0.57,5.89.91,8.81,1.5C15.93,124,20.07,122.43,21.12,115.4Z"/><path class="cls-5" d="M23.1,118.56c-0.12-3.63.16-7.21,4.42-8.87,3,7,2.76,14.73,8.51,19.92h0A12.43,12.43,0,0,0,37,128c-2.74-4-3.22-8.92-5.29-13.2-1.28-2.64-1.08-6.93-5.43-6.42-3.65.43-4.73,4-5.19,7.05-1.06,7-5.19,8.57-11.45,7.32-2.92-.59-5.89-0.93-8.81-1.5v2.46c4.63,0.77,9.26,1.49,13.9,2.1C19.93,126.46,23.3,124.5,23.1,118.56Z"/><path class="cls-6" d="M16.41,189.9C35.24,190.57,51,195,55.12,216.61c0.41-11.71,5.59-16.88,17.15-17.07,2.75,0,5.51,0,8.26,0-4.19-4.24-9.59-6.8-14.56-10-10.9-7-15.61-19.58-25.28-27.73-2.41-2-2.13-5.17,0-7.69,2.95-3.57,6.6-4.39,10.8-2.72-4.28-1.75-7.92-.92-11.82,1.92-11,8-14.71,7.1-21.44-4.44-2.39-4.09-7.28-3.47-10.32-6.06s-5.11-1.76-7,.07V147a6,6,0,0,1,2.24,1.55l0,0.06c8.52,1.08,9.54,10.58,15.48,14.71,1.83,1.27-.51,3.9-3.13,4-3,.13-6,0-9,0l0,0A11.09,11.09,0,0,1,.86,171.8v12.92C4.16,189.24,10.49,189.69,16.41,189.9Z"/><path class="cls-6" d="M6.47,167.43l0,0H6.15c-2.23-.17-3.74,1.11-5.28,2.32v2.09A11.09,11.09,0,0,0,6.47,167.43Z"/><path class="cls-6" d="M3.13,148.62l0-.06A6,6,0,0,0,.86,147v1.51H2.29C2.59,148.53,2.85,148.58,3.13,148.62Z"/><path class="cls-6" d="M7.86,142.82c3,2.59,7.93,2,10.32,6.06,6.74,11.55,10.47,12.4,21.44,4.44,3.9-2.83,7.55-3.66,11.82-1.92-4.2-1.67-7.85-.86-10.8,2.72-2.09,2.53-2.36,5.67,0,7.69C50.36,170,55.06,182.6,66,189.55c5,3.17,10.38,5.74,14.56,10h1.1c-0.22-5.6-5.22-7.1-8.82-8.72-7.16-3.22-11.93-8.86-17-14.25-4-4.23-4.87-10.91-11-13.66-2.64-1.18-6-3.53-3-7.31,2.55-3.21,5.8-5.11,9.48-1.33,1.48,1.51,2.76,4.36,4.85,1.13,1.56-2.42-.71-4.42-2.54-5.28-5.78-2.71-11.14-2.52-16.4,2.11-7.93,7-13,5.5-16-4.2-0.64-2-1.77-3.67-3.56-4-6-1-10.66-4.72-16.7-8v6.84C2.75,141.06,4.69,140.12,7.86,142.82Z"/><path class="cls-4" d="M3.58,149.77c1.78,5.67-2.6,12.43,2.71,17.47,2-2.61,6-1.08,8.23-3.88A60.39,60.39,0,0,0,3.58,149.77Z"/><path class="cls-4" d="M6.15,167.39h0c0-.06.1-0.09,0.14-0.15-5.31-5-.93-11.81-2.71-17.47-0.43-.42-0.85-0.85-1.29-1.25-0.07,2.43.84,5.64-.37,7.15a17,17,0,0,0-1.06,1.48v6.93a19.07,19.07,0,0,0,5.28,3.32h0Z"/><path class="cls-4" d="M14.52,163.36c-2.27,2.79-6.23,1.27-8.23,3.88l0.15,0.15c3,0,6,.08,9,0,2.62-.11,5-2.74,3.13-4-5.94-4.14-7-13.63-15.48-14.71a8.12,8.12,0,0,1,.46,1.15A60.39,60.39,0,0,1,14.52,163.36Z"/><path class="cls-4" d="M6.15,167.39H6.44l-0.15-.15C6.25,167.3,6.19,167.33,6.15,167.39Z"/><path class="cls-4" d="M3.58,149.77a8.12,8.12,0,0,0-.46-1.15c-0.28,0-.54-0.09-0.83-0.1C2.74,148.92,3.15,149.35,3.58,149.77Z"/><path class="cls-7" d="M128.78,339.42c11.33-6.17,10.61-17.24,12.05-27.72,1.12-8.16-.42-16.87,4.92-24.29,4.66-6.48,2.63-17.42,13.28-19.95h0c2.08-9.9,0-18.5-8.28-24.84-4.07-3.12-1.46-8-3.29-11.09-4.41-7.46-4.32-12.78,2.77-18.92,5.52-4.77,9.69-10.48,18.1-9.42,4.83,0.61,6.68-5.67,11.46-5.63h0c-4.14-4.11-6.63-.47-9.38,2h0c-2.08,1.92-5.67,2.59-4.69-.81,1.93-6.7-.59-12-2.52-17.74-1.37-4.09,1.9-7.68,1.53-11.71l-2.36.09c0,0.16,0,.31,0,0.47-5.64,6.85-11,13.47-15.19,21.78-6.48,12.84-27.48,18.69-41.48,14-7.8-2.6-16.51.27-23.73-4.61-0.28-.34-0.59-0.64-0.88-1a5.82,5.82,0,0,1-4.31,1.61c-11-.5-18.09,4.45-21.3,15-0.12,0-.22,0-0.33,0l-3.69,33.38,0.63,0.44c2.55,7.74,5.33,15.87,2.25,23.68-3.19,8.08-1.2,14.06,3.71,20.3,2.68,3.42,5.26,6.59,9.92,5.12s5.45-5.53,5.44-9.85c0-2.43-.74-4.91.43-7.26-6.31-4.25-1.29-7.39,1.84-9.65,4.54-3.28,4.27-5.54.92-9.72-7.82-9.75-8.24-24.61-1.8-35.17s17.8-15.6,30.69-13.5c13.41,2.18,28.58,19.34,28.83,34.15,0.21,12.18-1,24.4-1.92,36.58a10.13,10.13,0,0,1-5.26,8.43c-5,2.81-9.86,5.79-14.76,8.73,3.93,1.13,9.62-.16,10.66,5.06,1.21,6.1-5.37,6.62-9.86,9.47,5.25,2.61,12.43,2.65,12.91,9.42,0.38,5.25,2.1,11.49-3.95,15.35l-0.91-.64,0,0c-4,3.23-8,6.24-13.41,5.8l-0.67,1c-1.29,2.17-2.44,4.87-4.62,5.88l-0.56.27,12.3,7.1a125.77,125.77,0,0,1,10.82-8.67C121.16,346.64,123.34,342.38,128.78,339.42Zm11.3-112.69c6.46,1,5.53,6.45,5.81,11.18-0.51,2,.93,6.52-2.34,5.69-5.6-1.43-5.3-7.84-6.85-12.38C135.95,229,137.57,226.33,140.08,226.72Z"/><path class="cls-7" d="M51.37,250.56h0c0.15,11.26,4.76,22.88-3.14,33.51-1.37,1.84-.06,4.67,2.31,5.35,3.7,1.05,4,3.86,5.28,6.78,2.14,5,6.78,8,12.13,6.77,5.18-1.22,8.22-5.3,8.1-11.19-0.07-3.18-.17-6.26-1.9-9l-0.34-.24c-1.17,2.36-.44,4.84-0.43,7.26,0,4.32-.84,8.41-5.44,9.85s-7.24-1.7-9.92-5.12c-4.91-6.24-6.9-12.23-3.71-20.3,3.09-7.81.3-15.94-2.25-23.68l-0.63-.44-0.06.5h0Z"/><path class="cls-7" d="M107.11,347.87l0.67-1a12.85,12.85,0,0,1-1.35-.14h0c-3,1.09-4.19,4.05-6.42,6.22l1.92,1.11,0.56-.27C104.67,352.75,105.82,350,107.11,347.87Z"/><path class="cls-7" d="M110.24,303.61c1.25,1.86,3.19,1.61,5.05,1.71,2.42,0.12,5.86-.66,6.4,2.37,0.59,3.32-2.59,4.45-5.43,5.13a27.77,27.77,0,0,0-4.49,1.16c-1.7.72-3.64,1.65-3.22,4s2.63,2.11,4.44,2.45c13.17,2.42,15.1,7.31,8.21,20.6l0.91,0.64c6-3.86,4.33-10.09,3.95-15.35-0.48-6.77-7.67-6.81-12.91-9.42,4.49-2.86,11.07-3.38,9.86-9.47-1-5.23-6.72-3.94-10.66-5.06l-2.11,1.27h0Z"/><path class="cls-7" d="M160.94,169.45c-5.63,5.71-17.17,7.42-13.31,19.6a1.81,1.81,0,0,1-.59.69c-9.34,9.88-21,17.07-34.31,14.81-10.32-1.75-20.94-2.14-31.09-5a5.7,5.7,0,0,1-.58.56c0.29,0.32.6,0.62,0.88,1,7.23,4.88,15.93,2,23.73,4.61,14,4.67,35-1.18,41.48-14,4.19-8.31,9.56-14.93,15.19-21.78,0-.16,0-0.31,0-0.47l-1.43.06h0Z"/><path class="cls-7" d="M72.27,199.54c-11.56.19-16.74,5.36-17.15,17.07v0.08c0.12,0,.21,0,0.33,0,3.22-10.53,10.29-15.47,21.3-15a5.82,5.82,0,0,0,4.31-1.61c-0.18-.19-0.35-0.39-0.53-0.57C77.78,199.52,75,199.49,72.27,199.54Z"/><path class="cls-7" d="M80.53,199.53c0.18,0.18.35,0.38,0.53,0.57a5.7,5.7,0,0,0,.58-0.56h-1.1Z"/><path class="cls-8" d="M9.92,289.89c-1.09-11,4-15.38,12.28-17.08s9.78-8,9.21-15.15c-0.35-4.37-1.56-8.67-1.09-13.11,0.42-3.95,1.47-7.66,6-8.46,4.19-.74,6.43,2.07,7.69,5.51,1.37,3.77,4.1,6.16,7.15,8.3-3.41-11.59-1-22.54,3.91-33.2-3.23.22-3.85-2.54-4.32-4.68-3.57-16.08-17.51-16.62-29.57-19.7-2.89-.74-6.19,0-9.3-0.53-5.91-.91-9.07-1.41-11-3v90.36C4.15,280.82,5.71,283.28,9.92,289.89Z"/><path class="cls-8" d="M6.11,290.21c0.28,2.69,1.63,4.17,4.4,3.11,2.49-1,2.88-2.86,2.05-5.39-2.29-7.07,1.31-10.54,7.72-12.29,12.79-3.49,15.87-8.67,13.2-21.46a58.56,58.56,0,0,1-.92-9.31c-0.15-3.27.17-6.72,4.29-7.19,3.57-.4,4.35,2.38,5.22,5.36,1.28,4.41,2.62,9.48,9.3,7.51-0.07-.22-0.12-0.45-0.19-0.67-3.06-2.14-5.78-4.53-7.15-8.3-1.25-3.44-3.5-6.25-7.69-5.51-4.56.8-5.61,4.51-6,8.46-0.47,4.44.74,8.74,1.09,13.11,0.57,7.15-.94,13.45-9.21,15.15s-13.36,6-12.28,17.08c-4.21-6.61-5.76-9.06-9.05-10.71v2.28C3.67,283.09,5.65,285.71,6.11,290.21Z"/><path class="cls-8" d="M21.19,192.3c12.07,3.08,26,3.62,29.57,19.7,0.48,2.14,1.09,4.9,4.32,4.68l0-.08C51,195,35.24,190.57,16.41,189.9c-5.93-.21-12.26-0.66-15.55-5.19v4.1c2,1.55,5.11,2,11,3C15,192.25,18.3,191.57,21.19,192.3Z"/><path class="cls-8" d="M51.18,249.89l0.25,0.17,3.69-33.38h0C50.13,227.35,47.77,238.3,51.18,249.89Z"/><path class="cls-8" d="M51.37,250.56h0l0.06-.5-0.25-.17C51.25,250.12,51.3,250.34,51.37,250.56Z"/><path class="cls-8" d="M55.09,216.69h0v-0.08Z"/><path class="cls-9" d="M79.38,285.2c0.85,9.13,5.38,10.66,13.86,9.2,6.27-1.08,10.75,5.8,16.87,7.24,0.32,0.08.63,0.2,0.94,0.3,2.67-4.49,8-5.87,11.83-9,2.69-2.19,6.33-3.8,6.55-7.55,1-17.27,6.58-34.6-2.59-51.65-7.22-13.43-26.4-21-39.37-14.19-14,7.29-19.18,26.09-10.45,39.81,3.83,6,5.85,11-.41,16.42-1.83,1.59-2.23,4.07-2.42,6.48C77.1,281,79.14,282.58,79.38,285.2Z"/><path class="cls-9" d="M110.11,301.64c-6.12-1.44-10.61-8.32-16.87-7.24-8.48,1.46-13-.07-13.86-9.2-0.24-2.62-2.28-4.18-5.2-2.93,0,0.16,0,.31,0,0.47,4.81,0.49,3.34,4.3,3.83,7.14,1.1,6.42,2.58,12.24,11.19,7.18,3.34-2,6.39-.94,9.48,1.29,3.45,2.49,6.75,5.7,11.59,5.26h0a10.59,10.59,0,0,1,.81-1.67C110.75,301.83,110.44,301.72,110.11,301.64Z"/><path class="cls-9" d="M74.19,282.27c0.19-2.41.59-4.89,2.42-6.48,6.26-5.45,4.25-10.39.41-16.42-8.73-13.72-3.5-32.52,10.45-39.81,13-6.78,32.16.77,39.37,14.19,9.16,17.05,3.59,34.38,2.59,51.65-0.22,3.75-3.85,5.37-6.55,7.55-3.83,3.11-9.16,4.48-11.83,9l0.85,0.27,0.45,0.13c4.9-2.94,9.78-5.91,14.76-8.73a10.13,10.13,0,0,0,5.26-8.43c0.89-12.18,2.13-24.4,1.92-36.58-0.25-14.81-15.42-32-28.83-34.15-12.89-2.09-24.21,2.89-30.69,13.5s-6,25.42,1.8,35.17c3.35,4.18,3.63,6.44-.92,9.72-3.13,2.26-8.15,5.4-1.84,9.65l0-.1C74,282.34,74.07,282.32,74.19,282.27Z"/><path class="cls-9" d="M111.06,301.94a10.59,10.59,0,0,0-.81,1.67l2.11-1.27-0.45-.13Z"/><path class="cls-9" d="M74.19,282.27c-0.11,0-.22.07-0.34,0.13l0,0.1,0.34,0.24C74.16,282.58,74.18,282.42,74.19,282.27Z"/><path class="cls-10" d="M108.64,345.52c3.94-2.14,7.83-4.42,12.56-4.49v0C115.71,337.18,113.81,337.74,108.64,345.52Z"/><path class="cls-10" d="M108.64,345.52c5.17-7.78,7.07-8.35,12.55-4.54-0.27-3,1.28-8.85-3.94-6.52-4.57,2-10.86,5-10.82,12.23h0C107.18,346.32,107.91,345.92,108.64,345.52Z"/><path class="cls-10" d="M107.78,346.83c5.38,0.44,9.44-2.57,13.41-5.8-4.73.08-8.62,2.35-12.56,4.49Z"/><path class="cls-10" d="M106.43,346.69h0a12.85,12.85,0,0,0,1.35.14l0.86-1.31C107.91,345.92,107.18,346.32,106.43,346.69Z"/><path class="cls-8" d="M41.12,282.71c-2.54.1-6.3-1.13-6.23,3.3,0.05,3,2.53,4.76,5.19,5.74,3.47,0.28,4.31-2.31,5-4.61C46.18,283.72,44,282.59,41.12,282.71Z"/><path class="cls-11" d="M226.06,40.62c-0.57,2.52-3.33,2.1-5.51,1.31-5-1.82-11.55-2.09-10.25-10.22C208,23.88,203.24,21.27,198,26s-10.22,5.28-16.11,3.45c-6.37-2-11.47-.49-15.65,4.61-2,2.38-3.8,3.78-4.89.77-0.86,1.25-1.91,2.35-2.87,3.51-1.19,1.44-2.7,2.91-1.87,5,1,2.53,3.29,2.27,5.55,2.33,8.61,0.25,11.6,2.4,10.24,10.28-2.92,16.83,1.44,33,2.88,49.46,0.57,6.49-.89,10.28-6.47,13.94-5.79,3.8-9.21,9.72-12.71,16.25-4.33,8.08-3,14-2.33,21.91,0.58,6.49,1.75,8.24,6.77,8.24l0.39-.43h0c6.38-5.56,12-8.91,21.2-3.1,7.8,4.92,17.32,0,25.55-2.94,4.56-1.65,8.28-5,13.65-5.52,7.82-.81,9.74-8.53,12.3-14.18,1.47-3.25-2.86-5.76-6.64-6.08-4.6-.39-8.87-0.94-9.64-6.77-0.24-1.83-1.82-2.95-3.4-2.28-8.68,3.67-8.17-3.3-9.46-8.07-0.47-1.74.2-3.91-1.81-5-5.63-3.11-5.16-4.57,1.17-4.78,5.94-.2,5.39-4.35,2.49-6.56-5.56-4.25-3.12-8-.79-12.22,3.3-5.93,7-1.09,10.35-.1,1.87,0.55,3.17,1.72,4.76-.37,4.41-5.79,2.77-16.11-3.59-19.8-2.3-1.33-4.19-3.19-2.41-4.84,2.11-1.95-2.47-8.61,4.64-6.47,0.21,0.18.41,0.34,0.61,0.5l0.11-.14a2.34,2.34,0,0,0-.72-0.37c0.21-2.48-1.33-6,2.88-6.33,3.17-.27,7-0.85,7.2,4.31,2.85-4.06,5.3-8.61,9.76-1,2.62,4.48,5.87,1.91,8.16-1,0.67-.85.24-2.47,0.63-3.63,0.24-.7,1.41-1.61,3.13-2.59L219.53,27.69q0,2-.06,3.95C220.39,35.64,227.19,35.6,226.06,40.62Z"/><path class="cls-11" d="M287.79,67.1L282,63.77a12.39,12.39,0,0,0,1.17,6.12C284.68,68.91,286.23,68,287.79,67.1Z"/><path class="cls-11" d="M153.79,157.47c-0.7-7.93-2-13.83,2.33-21.91,3.5-6.53,6.92-12.46,12.71-16.25,5.58-3.66,7-7.45,6.47-13.94-1.44-16.43-5.81-32.63-2.88-49.46,1.37-7.88-1.63-10-10.24-10.28-2.27-.06-4.55.19-5.55-2.33-0.83-2.07.68-3.54,1.87-5,1-1.17,2-2.26,2.87-3.51a11,11,0,0,1-.44-1.66h0c-1.89,1.65-3.88,3.19-5.63,5s-5,3.7-2.2,7c2.25,2.59,5.35,5.91,8.68,4,10.62-6,9.41,2.84,8.39,7.37-4,17.73,2.14,34.66,3.12,52,0.18,3.17.44,5-2.49,7-7.9,5.3-18.41,8.77-16.09,21.88,0.4,2.28-2.38,3.35-4.74,3.63-2.06.25-4.8-.51-5.51,2.36-0.77,3.11,1.89,4.15,3.91,5.66,3.87,2.9,5.84,6.45,3,11.3-1.67,2.87-2.74,6,.91,8.2s6-.27,8.26-2.72C155.53,165.71,154.36,164,153.79,157.47Z"/><path class="cls-12" d="M290.21,68.5c-2.35,1.33-4.18,4.27-7.28,3-3.58-1.45-3.12-5.1-3.3-8.18,0-.32,0-0.64,0-1L253.85,47.51c-1.64.77-2.78,1.52-3.06,2.15-3.36,7.42-7.79,9.41-14.72,4.35-2.06-1.5-4.22.41-6.34,0.65l-0.48-.17A4.14,4.14,0,0,1,229,55c-1.65,2.79.85,8.12-4.73,8.42-4.21.23-2.4-4.09-3.66-6.21-0.23-.15-0.46-0.31-0.69-0.5-3.14,3.66-2.82,6.62,1.07,10.12,5.39,4.85,5.43,16.11.93,21.43-2.32,2.74-4.81,1.85-7.69,1.3-7.29-1.39-9.39,1.15-6.45,8,1.57,3.64,3,6.54-.24,10.25-3.69,4.21-.72,12.81,4.79,14.43,7.81,2.3,12.53,9.58,20.45,12,3.51,1.07,3.47,5.51,1.71,9.08-3.17,6.42-7.23,11.24-14.76,13.4-9.24,2.65-17.45,8.56-27.54,8.85-2.47.07-5.4,1.84-7.36,0.39-8-5.89-15.86-3.5-23.88-.63h0q0,0.21,0,.42h0.6a5.5,5.5,0,0,1,.85,2.83,3.58,3.58,0,0,1,2.22.17c0.06,0.2.1,0.41,0.15,0.62,1.89,0.54,6.43-5.41,5.14.21-2.1,9.11,2,17.68,1.19,26.37,3.38-1.68,6.78-3.67,9.21,1.46l-0.16.22,7.31,0c10.8-5.88,20.89-12.47,25-25,0.78-2.37,3.3-2.51,5.15-3.59,10.06-5.85,19.33-12.25,21.55-25.2,1.1-6.38,4-12.47,6.14-18.65,1.31-3.7.2-7-2-9.72-11-13.82-5.3-25.94,13.92-29.18h0c6.92-1.78,14.06-2.06,21-4.49,7.59-2.67,14.38,1.47,20,6.63a49.7,49.7,0,0,1,6.93,8.86c8.4,12.42,20.66,16.41,34.77,15.27a15.89,15.89,0,0,1,2.35,0V98.56Zm-74.89,45.65a2.2,2.2,0,0,1-2.75,1.81c-2.42-.48-2.48-2.41-2.24-4.35a2,2,0,0,1,2.57-1.92C214.77,110.58,215.78,112,215.32,114.15Z"/><path class="cls-12" d="M160.94,169.44a2.89,2.89,0,0,1,1.46-.93,5.5,5.5,0,0,0-.85-2.83H161q0,1.87,0,3.74h0Z"/><path class="cls-12" d="M170.42,199.55c2.74-2.46,5.23-6.11,9.38-2h0.36l0.16-.22c-2.43-5.13-5.84-3.14-9.21-1.46a20.93,20.93,0,0,1-.68,3.67h0Z"/><path class="cls-12" d="M164.74,169.29h0c-0.06-.2-0.09-0.41-0.15-0.62a3.58,3.58,0,0,0-2.22-.17,6.88,6.88,0,0,1,0,.87Z"/><path class="cls-12" d="M162.38,169.39a6.88,6.88,0,0,0,0-.87,2.89,2.89,0,0,0-1.46.93Z"/><path class="cls-12" d="M248,48.51c-0.39,1.16,0,2.78-.63,3.63-2.3,2.92-5.54,5.49-8.16,1-4.46-7.62-6.9-3.07-9.76,1l-0.17.36,0.48,0.17c2.12-.24,4.28-2.15,6.34-0.65,6.93,5.06,11.36,3.06,14.72-4.35,0.29-.64,1.43-1.38,3.06-2.15l-2.74-1.58C249.38,46.9,248.21,47.81,248,48.51Z"/><path class="cls-12" d="M282.94,71.52c3.09,1.25,4.93-1.69,7.28-3l-2.42-1.4c-1.55.91-3.11,1.82-4.59,2.79A12.39,12.39,0,0,1,282,63.77l-2.4-1.39c0,0.32,0,.64,0,1C279.81,66.42,279.35,70.07,282.94,71.52Z"/><path class="cls-12" d="M214.7,62.63c-1.78,1.65.11,3.51,2.41,4.84,6.36,3.69,8,14,3.59,19.8-1.59,2.09-2.89.92-4.76,0.37-3.34-1-7.06-5.83-10.35.1-2.33,4.18-4.77,8,.79,12.22,2.89,2.21,3.45,6.36-2.49,6.56-6.33.21-6.8,1.68-1.17,4.78,2,1.11,1.34,3.28,1.81,5,1.29,4.76.78,11.73,9.46,8.07,1.58-.67,3.16.45,3.4,2.28,0.78,5.83,5,6.38,9.64,6.77,3.78,0.32,8.11,2.83,6.64,6.08-2.56,5.65-4.49,13.36-12.3,14.18-5.37.56-9.09,3.87-13.65,5.52-8.23,3-17.75,7.86-25.55,2.94-9.21-5.81-14.82-2.46-21.2,3.1,8-2.87,15.93-5.26,23.88.63,2,1.45,4.89-.32,7.36-0.39,10.1-.29,18.3-6.2,27.54-8.85,7.53-2.16,11.59-7,14.76-13.4,1.76-3.57,1.8-8-1.71-9.08-7.91-2.42-12.64-9.69-20.45-12-5.51-1.62-8.48-10.22-4.79-14.43,3.26-3.71,1.81-6.61.24-10.25-2.94-6.83-.85-9.38,6.45-8,2.88,0.55,5.38,1.44,7.69-1.3,4.5-5.32,4.46-16.57-.93-21.43-3.89-3.5-4.21-6.46-1.07-10.12-0.2-.16-0.4-0.32-0.61-0.5C212.23,54,216.81,60.69,214.7,62.63Z"/><path class="cls-13" d="M171.84,15a6.46,6.46,0,0,1,1.59,1.24,22.15,22.15,0,0,0,4.46-.3c1.88-.41,3.58-1.68,3.17-3.86s-2.22-2.63-4.3-1.91c-2.3.8-4.15-.53-6.13-1.34-3.41-1.4-5.38-3-5.73-5L154.73,9.72a25.72,25.72,0,0,1,6.15,2.79C164.09,14.49,168.33,13.49,171.84,15Z"/><path class="cls-13" d="M23.23,91.55a30.32,30.32,0,0,0,10,2c5.51-.12,9.19,1.14,12.2,6.48,4,7,9.73,6.56,14.38-.39C64,93.4,67.77,87.06,76.06,85.06c5.44-1.31,9.24-.85,11.27,4.83h0c3.51-1.63,6.8-2.73,6.84,3.14a16.5,16.5,0,0,1-.52,1.78c-0.34,2.82,2.53,5.05,3.64,4.16,9.06-7.25,11.81,17.34,21.44,5.08l-0.44-.06c-4.37-4.86-1.2-7,2.56-9-1-.65-0.94-1.64-0.54-2.75H120a32.57,32.57,0,0,1-9.27-1.56c-5.31-1.52-7.36-4.55-4.61-9.82,0.73-1.39,1.81-2.61,2.3-4.1,0.82-2.51,1.44-4.41,2.07-5.84C110,70,110.11,69.06,111.67,68a3,3,0,0,1,2.12-.5c1.92-.42,4.8.3,9.86,1.58,5.87,1.48,11.31,0,16.19-3.14,5.87-3.74,7-10.12,2.27-15.29C135.77,43.69,131,35.53,123.9,29.11c-0.37-.33-0.7-0.67-1-1l-9,5.22a7.93,7.93,0,0,1,3.73,3.75h0c2.81,3.56,7,5.15,10.7,7.38,6.09,3.63,6,9.06-.45,11.81-8,3.38-16.28,9.83-24.73.36-0.78-.88-3-0.49-4.53-0.69C95,55.44,90,57.65,88.48,53.36c-1.08-3.06.86-5.11,3-7.11l-0.69.4c-4,3.12-6.64,8.58-13,7.53h0l-59,34.07A8.08,8.08,0,0,0,23.23,91.55Z"/><path class="cls-13" d="M98.57,55.93l1.81-.82A3.71,3.71,0,0,0,98.57,55.93Z"/><path class="cls-13" d="M172.37,16.27h0l1.07,0A6.46,6.46,0,0,0,171.84,15c-3.52-1.51-7.75-.51-11-2.5a25.72,25.72,0,0,0-6.15-2.79l-3.07,1.77a6.49,6.49,0,0,1,2.85.89C160.13,16.49,166.12,16.39,172.37,16.27Z"/><path class="cls-13" d="M142.11,50.64c4.71,5.17,3.59,11.54-2.27,15.29C135,69,129.52,70.55,123.65,69.07c-5.06-1.28-7.94-2-9.86-1.58,1.65,0.2,3.27,1.54,4.82,2.23,9,4,19.64,2.45,25.79-3.8,4.65-4.73,5.71-12,1.7-15.17-8.26-6.6-11.19-17.42-20.33-23-0.36-.22-0.71-0.46-1.05-0.71l-1.83,1.06c0.32,0.33.65,0.67,1,1C131,35.53,135.77,43.69,142.11,50.64Z"/><path class="cls-13" d="M118.28,104l0.44,0.06c0.22-.28.43-0.55,0.66-0.86h0c-5.29-5.88,2.86-4.86,3.86-7.51a5.41,5.41,0,0,1-2.4-.69C117.08,97,113.91,99.14,118.28,104Z"/><path class="cls-13" d="M106.09,80.87c-2.75,5.28-.71,8.3,4.61,9.82A32.57,32.57,0,0,0,120,92.25h0.33c0.26-.72.66-1.49,1-2.25-2.47-.31-4.94-0.59-7.4-0.93-8.27-1.14-9.9-4.35-3.24-10.26,1.36-1.2,3.15-2.66,2.07-4.74C112.18,73,111,72,110.46,70.93c-0.63,1.43-1.25,3.33-2.07,5.84C107.9,78.26,106.82,79.48,106.09,80.87Z"/><path class="cls-13" d="M90.76,46.66l-6.29,3.63a8.07,8.07,0,0,1-2.41,1.39l-4.31,2.49h0C84.11,55.24,86.78,49.78,90.76,46.66Z"/><path class="cls-14" d="M174.74,19.8C172,25.32,163.8,25.89,162.2,32.42c7.74-4.31,15.52-8,25-4.93,3.44,1.12,6.39-1.72,9.41-3.34,7.71-4.12,12-2.33,15.65,6.14a5.92,5.92,0,0,1,5.78.44,5.49,5.49,0,0,1,1-3.3L178.75,4.15C186.28,14,185.79,15.3,174.74,19.8Z"/><path class="cls-14" d="M174.74,19.8l-0.58.24h0c-4.88,3.89-15,2.46-13.23,13.09l1.26-.71C163.8,25.89,172,25.32,174.74,19.8Z"/><path class="cls-14" d="M161.37,34.79c1.09,3,2.93,1.62,4.89-.77,4.18-5.1,9.28-6.59,15.65-4.61,5.89,1.83,11,1.16,16.11-3.45s9.94-2.09,12.28,5.74a7.5,7.5,0,0,1,2-1.41c-3.6-8.47-7.94-10.26-15.65-6.14-3,1.62-6,4.46-9.41,3.34-9.49-3.09-17.26.62-25,4.93a9.33,9.33,0,0,0-.24,1.45C161.78,34.19,161.58,34.49,161.37,34.79Z"/><path class="cls-14" d="M219.47,31.64h0q0-2,.06-3.95l-0.46-.26a5.49,5.49,0,0,0-1,3.3A13.67,13.67,0,0,1,219.47,31.64Z"/><path class="cls-14" d="M161.37,34.79c0.21-.3.41-0.6,0.59-0.92a9.33,9.33,0,0,1,.24-1.45l-1.26.71h0A11,11,0,0,0,161.37,34.79Z"/><path class="cls-15" d="M109.59,121.66c0.66,3-1.18,4.64-2.88,6.52-10.26,11.34-23.05,8.5-35.71,6.42-1.7-.28-3.4-0.59-5.1-0.89,1.7,5.64,7.16,5.15,11.57,6.4,3.12,0.88,7.64-.12,8.44,4.31,0.67,3.71-3.59,3.56-5.63,5.19-4.58,3.64-2.87,7,5.41,10.66L86,160.61c2.38-3.85,5.15-6.68,10.69-7,6.2-.32,9.45-7.6,15.72-8.72a6.78,6.78,0,0,1,.7-0.82c3.94-2,7.29-3.45,5.45-9.71s1.38-13,4.47-18.63c2.78-5.07,7.93-4.94,13.24-2.89,10.68,4.12,10.75,3.95,14.78-5.27,0.18-.05.33-0.12,0.5-0.18-2.35-5.7.41-7.32,5-7.46,0-.08,0-0.15,0-0.23-4.42-7.37-11-8.64-18.31-3.78-5.9,3.91-11.31,9.22-19.25,8.15-2.47,6.5-5,7.56-9.49,3.45-3.61-3.28-7.22-5.71-12.08-6.44a6.64,6.64,0,0,1-5.73-5.49c-0.6-3-2.7-4.11-5-5.09-3.6,3.22-9.26-.82-12.66,3.12l0,0C87.81,94.26,106.82,109.26,109.59,121.66Z"/><path class="cls-15" d="M138.29,96c7.34-4.86,13.89-3.59,18.31,3.78,0,0.08,0,.15,0,0.23,0.68,0,1.4,0,2.14,0h0c0.47-2.88.93-6.48-2.48-7.21-7.13-1.53-14.41-6-21.14,2.59-3.46,4.42-9.83,6.54-15.78,7.83h0c-0.11.32-.22,0.61-0.34,0.9C127,105.18,132.39,99.87,138.29,96Z"/><path class="cls-15" d="M85.67,160.27c-8.28-3.69-10-7-5.41-10.66,2-1.63,6.3-1.48,5.63-5.19-0.79-4.43-5.31-3.43-8.44-4.31-4.41-1.25-9.86-.76-11.57-6.4l-1.32-.23h0c-1.36,4-.09,6.53,4.24,7.34,5.24,1,10.46,2.07,16.53,3.28-3.82,4.1-12.27.67-10.69,9,1.12,5.94,3.83,9.86,10.71,8.61,0.22-.38.45-0.75,0.67-1.11Z"/><path class="cls-15" d="M151.1,107.6c-4,9.22-4.1,9.39-14.78,5.27-5.31-2.05-10.46-2.18-13.24,2.89-3.09,5.63-6.34,12.26-4.47,18.63s-1.52,7.69-5.45,9.71a6.78,6.78,0,0,0-.7.82,9.3,9.3,0,0,1,1.35-.14h0c4.1-.62,11.6-2,9.23-5.55-4.11-6.15-1.76-10.15-.27-15.45,3.2-11.41,4.59-12.31,15-7.6,11,5,14.72,3,14.23-7.76-0.17-.35-0.3-0.67-0.43-1C151.43,107.48,151.28,107.55,151.1,107.6Z"/><path class="cls-15" d="M86.71,90.53c2.31,1,4.41,2.12,5,5.09a6.64,6.64,0,0,0,5.73,5.49c4.86,0.73,8.47,3.16,12.08,6.44,4.54,4.11,7,3,9.49-3.45l-0.32,0c-9.63,12.26-12.38-12.33-21.44-5.08-1.11.89-4-1.34-3.64-4.16A16.5,16.5,0,0,0,94.16,93c0-5.87-3.33-4.77-6.84-3.14h0A5.44,5.44,0,0,1,86.71,90.53Z"/><path class="cls-15" d="M119,104.11c0.11-.3.22-0.59,0.34-0.9-0.22.31-.44,0.59-0.66,0.86Z"/><path class="cls-16" d="M42.54,116.87a4.18,4.18,0,0,0-2.94.27,13.69,13.69,0,0,0,.17,5.54c0.12,2.5-.11,4.82-2.12,6.16,3.56,4.52,7.63,3.29,12.09,1.14,5.8-2.79,11.71-4.65,15.81,2.69,2.45-1.6,5.21-.41,7.86-0.17,4.35,0.4,8.67,1.43,13,1.56,7.53,0.23,14.63-2.22,18.61-8.73,3.46-5.66-2.64-9.62-5-14C96,104,88.46,101.16,81.61,97.48c-2.47-1.33-5.75-1.22-7.53-3.8h0c-1.14,1.81-2.7,3.48-3.34,5.45C66,113.67,57.07,119.45,42.54,116.87Z"/><path class="cls-16" d="M49.74,130c-4.46,2.15-8.53,3.38-12.09-1.14a5.8,5.8,0,0,1-1.61.76h0c2.57,8,7.6,6.71,13.06,3.36s10.52-5.86,15.48.51h0a5.67,5.67,0,0,1,1-.8C61.45,125.34,55.55,127.19,49.74,130Z"/><path class="cls-16" d="M37.65,128.84c2-1.34,2.25-3.66,2.12-6.16a13.69,13.69,0,0,1-.17-5.54c-1.43.87-1.32,3-1.65,4.85h0a9.2,9.2,0,0,1-.92,6c0.13,0.2.25,0.4,0.39,0.59Z"/><path class="cls-16" d="M37.42,128.57c-0.15-.19-0.26-0.4-0.39-0.59a12.43,12.43,0,0,1-1,1.63,5.8,5.8,0,0,0,1.61-.76Z"/><path class="cls-16" d="M106.71,128.18c1.7-1.88,3.54-3.57,2.88-6.52-2.77-12.4-21.77-27.4-35.51-28,1.78,2.58,5.06,2.47,7.53,3.8C88.46,101.16,96,104,100,111.32c2.39,4.4,8.49,8.35,5,14-4,6.51-11.08,9-18.61,8.73-4.32-.13-8.64-1.17-13-1.56-2.65-.24-5.41-1.43-7.86.17l0.11,0.19c0.06,0.3.15,0.57,0.23,0.85,1.7,0.3,3.4.61,5.1,0.89C83.66,136.67,96.45,139.52,106.71,128.18Z"/><path class="cls-16" d="M65.67,132.86l-0.11-.19a5.67,5.67,0,0,0-1,.8l1.32,0.23C65.81,133.43,65.73,133.16,65.67,132.86Z"/><path class="cls-17" d="M83.26,169c-3.78,1.62-7.1,3-5.4,8C79.49,181.89,83,187,87.77,185c7.81-3.31,14.3-.35,21.42.91,10.3,1.83,12.38-.22,10.83-10.76-1.09-7.43-3.69-14.53-6.51-21.51-0.87-2.15-2.36-4.38-2-6.67-7.3,6.46-16.63,9.5-25,14.14C90.59,165.15,87.05,167.42,83.26,169Z"/><path class="cls-17" d="M113.52,153.6c2.82,7,5.41,14.08,6.51,21.51,1.55,10.53-.53,12.59-10.83,10.76-7.12-1.26-13.61-4.22-21.42-.91-4.8,2-8.28-3.07-9.91-7.88-1.69-5,1.62-6.43,5.4-8s7.33-3.88,3.27-8l-1.17.65c3.3,5.83-1.67,5.25-4.62,5.59-3.46.4-6.58,1.25-6.44,5.2,0.19,5.42,1.92,10.56,6.64,13.82,4.22,2.92,8.72,2.85,13.06-.16,1.37-.95,3-3.71,4.47-1.48,3.86,5.76,9.92,2.3,14.66,4.17,8.3,3.27,10.06-1.69,9.72-8.37a97.7,97.7,0,0,0-2.12-13.44c-1.51-7.79-7.08-14.15-6.93-22.28-0.72.77-1.48,1.47-2.25,2.16C111.15,149.22,112.65,151.45,113.52,153.6Z"/><path class="cls-17" d="M86,160.61c0.17,0.15.35,0.31,0.49,0.46,8.39-4.63,17.72-7.68,25-14.14a4.71,4.71,0,0,1,.9-2c-6.27,1.12-9.52,8.4-15.72,8.72C91.19,153.93,88.42,156.76,86,160.61Z"/><path class="cls-17" d="M112.45,144.92a4.71,4.71,0,0,0-.9,2c0.77-.68,1.53-1.39,2.25-2.16h0A9.3,9.3,0,0,0,112.45,144.92Z"/><path class="cls-17" d="M86,160.61c-0.23.37-.45,0.73-0.67,1.11l1.17-.65C86.39,160.92,86.21,160.76,86,160.61Z"/><path class="cls-18" d="M132.06,159.48c2.52,0.71,5.1,1,6.83-1.41,2.07-2.84-.07-4.92-2.16-6.13-5.84-3.38-3.9-6.48-.4-10.25,2.72-2.93,4.82-6.43,7.09-9.53-0.09-2-.91-3.29-2.54-3.79-3.79-1.16-6.33,1.11-7.37,4.07-1.54,4.35-2.12,8.86-5.64,12.51C121.6,151.46,123.38,157.05,132.06,159.48Z"/><path class="cls-19" d="M175,7.4c1.91,0.42,4.21.65,5.74,1.56a20.28,20.28,0,0,0-1.68-1.63,8.93,8.93,0,0,1-2.75-4.16c-2.37.07-3.89-1.29-5.28-2.88l-2.42,1.39C168.18,5.07,171.1,6.54,175,7.4Z"/><path class="cls-19" d="M176.17,17.86a9.11,9.11,0,0,1-2-.63,5,5,0,0,1,.6,1.89A4.34,4.34,0,0,1,176.17,17.86Z"/><path class="cls-19" d="M182.41,11.33a5.76,5.76,0,0,1-.22,2.36,8.07,8.07,0,0,1-.7,1.74A3.2,3.2,0,0,0,182.41,11.33Z"/><path class="cls-19" d="M174.17,17.24a13.13,13.13,0,0,1-1.81-1h0l1.8,3.77a10.79,10.79,0,0,1,.61-0.92A5,5,0,0,0,174.17,17.24Z"/><path class="cls-19" d="M170.62,8.84c2,0.81,3.84,2.14,6.13,1.34,2.08-.73,3.87-0.37,4.3,1.91s-1.28,3.44-3.17,3.86a22.15,22.15,0,0,1-4.46.3,5,5,0,0,1,.74,1,9.11,9.11,0,0,0,2,.63,3.09,3.09,0,0,1,.67-0.29,12.12,12.12,0,0,0,4.65-2.13,8.07,8.07,0,0,0,.7-1.74,5.76,5.76,0,0,0,.22-2.36A9.28,9.28,0,0,0,180.77,9c-1.53-.91-3.83-1.14-5.74-1.56-3.92-.87-6.84-2.33-6.37-5.72l-3.75,2.17C165.24,5.8,167.21,7.44,170.62,8.84Z"/><path class="cls-19" d="M173.43,16.25l-1.07,0a13.13,13.13,0,0,0,1.81,1A5,5,0,0,0,173.43,16.25Z"/><path class="cls-19" d="M179.09,7.33A20.28,20.28,0,0,1,180.77,9a3.17,3.17,0,0,1,1.64,2.37,3.2,3.2,0,0,1-.92,4.11,4.68,4.68,0,0,1-5.32,2.43,4.34,4.34,0,0,0-1.39,1.26c0,0.16.07,0.3,0.08,0.47s-0.08.14-.12,0.21c11.05-4.5,11.54-5.8,4-15.66l-1.76-1a6.33,6.33,0,0,1-.65,0A8.93,8.93,0,0,0,179.09,7.33Z"/><path class="cls-19" d="M174.74,19.8c0-.07.08-0.14,0.12-0.21s-0.06-.31-0.08-0.47a10.79,10.79,0,0,0-.61.92h0Z"/><path class="cls-19" d="M180.77,9a9.28,9.28,0,0,1,1.64,2.37A3.17,3.17,0,0,0,180.77,9Z"/><path class="cls-19" d="M181.49,15.44a12.12,12.12,0,0,1-4.65,2.13,3.09,3.09,0,0,0-.67.29A4.68,4.68,0,0,0,181.49,15.44Z"/><path class="cls-20" d="M152.38,107.15c2.64-1.08,4.3-2.85,4.35-5.75A11.93,11.93,0,0,0,152.38,107.15Z"/><path class="cls-20" d="M156.73,101.41c-0.05,2.9-1.71,4.67-4.35,5.75a10.57,10.57,0,0,0-.34,1.26c7.33,1.26,7.74-3,6.74-8.42h0Q157.7,100.66,156.73,101.41Z"/><path class="cls-20" d="M151.6,107.43c0.26-.09.53-0.17,0.77-0.27a11.93,11.93,0,0,1,4.35-5.75,9.16,9.16,0,0,0-.1-1.44C152,100.11,149.25,101.72,151.6,107.43Z"/><path class="cls-20" d="M156.63,100a9.16,9.16,0,0,1,.1,1.44q1-.75,2-1.41h0C158,100,157.31,99.95,156.63,100Z"/><path class="cls-20" d="M151.6,107.43c0.13,0.32.26,0.64,0.43,1a10.57,10.57,0,0,1,.34-1.26C152.13,107.25,151.87,107.34,151.6,107.43Z"/><path class="cls-15" d="M128.53,91.28a36,36,0,0,0-6.21.83,16.08,16.08,0,0,1,.59,2A19.51,19.51,0,0,0,128.53,91.28Z"/><path class="cls-15" d="M122.32,92.11a36,36,0,0,1,6.21-.83,19.51,19.51,0,0,1-5.61,2.82q0.18,0.79.32,1.59c4.36,0.08,9.5-1.75,8.47-5.89-1.6-6.39-5.51,1.73-8.59.18a4.26,4.26,0,0,0-1.8,0h0A10.6,10.6,0,0,1,122.32,92.11Z"/><path class="cls-15" d="M122.92,94.1a16.08,16.08,0,0,0-.59-2,10.88,10.88,0,0,1-2,.14c-0.4,1.11-.44,2.1.54,2.75l0.77-.4C122,94.42,122.47,94.26,122.92,94.1Z"/><path class="cls-15" d="M121.61,94.6l-0.77.4a5.41,5.41,0,0,0,2.4.69q-0.14-.8-0.32-1.59C122.47,94.26,122,94.42,121.61,94.6Z"/><path class="cls-15" d="M122.32,92.11a10.6,10.6,0,0,0-1-2.11h0c-0.36.76-.76,1.53-1,2.25A10.88,10.88,0,0,0,122.32,92.11Z"/><path class="cls-4" d="M19.38,103.15c5.26-3.36,10.21-2.84,15.31-1.39,6.71,1.91,8.7,6.31,5.76,12.74-0.12.27-.23,0.54-0.33,0.81a9.61,9.61,0,0,1,2.86-.14c12.63,1.05,21.77-3.31,25.66-16.22,0.76-2.51,1.54-5.63,5.39-5.27l0,0a5.15,5.15,0,0,1-.39-0.58c2.83-4.49,6.81-4,10.8-3.47-7.35-2.82-12.39-1.48-17.65,4.63-2,2.38-3.43,5.26-5.45,7.67-5,6-11,7-16.08,1.43-4.63-5.15-9.87-6.83-16.32-7.8-5.65-.84-9.62-3.09-11.86-6.35L0.86,98.56v7.2C7.21,105.36,13.86,106.67,19.38,103.15Z"/><path class="cls-4" d="M22,104.29c4.19-3.57,10.49-2,15.46,1.12,5.38,3.4,2.31,6.35-.29,9.75a4.88,4.88,0,0,0,.73,6.83c-1.29-3.71-.72-6.06,2.17-6.69,0.1-.27.2-0.54,0.33-0.81,2.94-6.43,1-10.83-5.76-12.74-5.1-1.45-10.05-2-15.31,1.39-5.51,3.52-12.17,2.21-18.51,2.61v2.09C8,107.32,15.52,109.86,22,104.29Z"/><path class="cls-4" d="M29,95.53c6.45,1,11.69,2.64,16.32,7.8,5,5.62,11.06,4.58,16.08-1.43,2-2.41,3.4-5.29,5.45-7.67,5.26-6.12,10.3-7.46,17.65-4.63,1,0.12,1.92.25,2.86,0.3-2-5.69-5.83-6.14-11.27-4.83-8.29,2-12,8.34-16.2,14.61-4.65,7-10.42,7.4-14.38.39-3-5.34-6.69-6.6-12.2-6.48a30.32,30.32,0,0,1-10-2,8.08,8.08,0,0,1-4.5-3.31l-1.63.94C19.34,92.44,23.31,94.69,29,95.53Z"/><path class="cls-4" d="M86.71,90.53l-0.81-.34c-0.49-.21-1-0.41-1.44-0.59-4-.51-8-1-10.8,3.47a5.15,5.15,0,0,0,.39.58C77.45,89.71,83.11,93.75,86.71,90.53Z"/><path class="cls-4" d="M86.71,90.53a5.44,5.44,0,0,0,.61-0.63h0c-0.94-.05-1.9-0.18-2.86-0.3,0.47,0.18.95,0.38,1.44,0.59Z"/><path class="cls-4" d="M42.54,116.87c14.54,2.57,23.49-3.2,28.16-17.75,0.63-2,2.2-3.64,3.34-5.45-3.85-.36-4.63,2.76-5.39,5.27-3.89,12.91-13,17.27-25.66,16.22a9.61,9.61,0,0,0-2.86.14,11.4,11.4,0,0,0-.52,1.84A4.18,4.18,0,0,1,42.54,116.87Z"/><path class="cls-4" d="M39.6,117.15a11.4,11.4,0,0,1,.52-1.84c-2.9.63-3.46,3-2.17,6.69h0C38.28,120.16,38.17,118,39.6,117.15Z"/><path class="cls-21" d="M94.92,44.65a4.07,4.07,0,0,1-.76,1.54c-5,6.74-.71,7.54,4.82,7.53a11.8,11.8,0,0,1,3.27.57c6.86-3,13.68-6,15.06-14.46a15.88,15.88,0,0,1-1.21-1.37c-1.07-2-3-2.8-5.09-3.51L100.72,40.9C99.72,42.54,97.88,43.83,94.92,44.65Z"/><path class="cls-21" d="M100.72,40.9L95,44.23a2.43,2.43,0,0,1-.05.43C97.88,43.83,99.72,42.54,100.72,40.9Z"/><path class="cls-21" d="M88.48,53.36C90,57.65,95,55.44,98.57,55.93a3.71,3.71,0,0,1,1.81-.82l1.86-.81A11.8,11.8,0,0,0,99,53.73c-5.53,0-9.82-.79-4.82-7.53a4.07,4.07,0,0,0,.76-1.54l-0.44.13a7.88,7.88,0,0,0-1,.31l-2,1.17C89.34,48.26,87.41,50.3,88.48,53.36Z"/><path class="cls-21" d="M116.1,38.47a15.88,15.88,0,0,0,1.21,1.37,19.54,19.54,0,0,0,.27-2.76h0a7.93,7.93,0,0,0-3.73-3.75L111,35C113.05,35.67,115,36.47,116.1,38.47Z"/><path class="cls-21" d="M94.92,44.65A2.43,2.43,0,0,0,95,44.23l-1.5.86a7.88,7.88,0,0,1,1-.31Z"/><path class="cls-22" d="M171.57,392.06a8.84,8.84,0,0,0-3.61.08l2.55,1.47,1.28-1C171.73,392.41,171.66,392.24,171.57,392.06Z"/><path class="cls-22" d="M172.36,376.92c0.8-11.69-4.58-21.94-8.19-32.34-3-8.81-15.39-10.74-23.11-5.05-5.18,3.82-10.06,8-15,12.13,0,0.19,0,.39,0,0.58a2.57,2.57,0,0,1-.49,1.76,84.9,84.9,0,0,0-9.34,8.28l42.09,24.3a12.28,12.28,0,0,1,7.94-2C171.25,384.78,172.08,381.14,172.36,376.92Z"/><path class="cls-22" d="M126.05,352.24c0-.2,0-0.39,0-0.58l-1,.8h0a125.77,125.77,0,0,0-10.82,8.67l2,1.15a84.9,84.9,0,0,1,9.34-8.28A2.57,2.57,0,0,0,126.05,352.24Z"/><path class="cls-23" d="M274.3,328c3.77-6.31,5.34-13.91,11.07-19.08-0.67-5.31-2.79-6.87-7.1-2.74-4,3.84-6.54,8.74-9.66,14.19-2.9-7.76,4.69-11,5.52-16.52l-0.19-.23c-11.05,5.73-8.23,17.3-10,27.16-4.68-2-1.25-6.46-4.15-8.21h0c-0.74,8.65-5.19,12.16-13,9.14-7.13-2.74-2.11-7.28-.61-11.12-1.84-.39-3.92-0.83-3.06-3.37,1.93-5.77-1.34-9.59-4.58-13.48l-0.15,0c3.5,19.76,2.15,21.14-18.55,20.62-13.88-.35-23.78-7.08-30.67-18.79-2.83-3.43-1-7.68-2-11.43h0l-3.5-3.76c-7,.79-14.32.23-20.06,5.59a4.52,4.52,0,0,1-6,.64,5.92,5.92,0,0,1-2-7.54c2.05-4.82,4.88-9.32,7.39-13.95-4.26-.49-3.87-3.36-3.84-6-10.79,11.6-14.89,25.86-15.76,41.33-0.67,12-1.53,23.69-13,31.11-3.39,2.18-4.38,5.52-4.33,9.2,4.19-7.78,11.44-12.18,19.21-15.56,7.12-3.1,17.56.64,20.8,8.35,4.2,10,8.74,20.15,8.71,31.45,0,6.39-2.12,11-9.12,12.11a16,16,0,0,0-4.25,1.25l4.2,2.43a8,8,0,0,1,5.51.41,8.79,8.79,0,0,1,.53.91c0.24,0,.48.06,0.72,0.13h0c1.54-3.27,4.81-4.15,7.68-5.57h0c3.29-3.16,6.47-4.49,10.11-3.07l5-2.89c-3.5-.48-7.89-1.11-10.08-5.09h0c-7.52-6.16-9.39-14.89-10.71-23.81-0.41-2.75.69-6.19-.59-8.27-4.09-6.61-2.22-8.6,4.92-8.28,2.63,0.12,2.93-1.71,1.61-3.78h0c-4.64.2-9.19,4.6-13.94,0.33-4-.3-9,0.55-10.56-4.07-1.46-4.35,3.65-6,6-8.72s4.95-5.85,8-7.87c5.32-3.49,9.61-5.76,15.6,1.6a53.37,53.37,0,0,0,34.19,19.2c12.57,1.88,23.77,6.21,30,17.37l22-12.73A38.18,38.18,0,0,1,274.3,328h0Z"/><path class="cls-23" d="M159,267.46h0c-10.65,2.53-8.62,13.47-13.28,19.95-5.34,7.42-3.8,16.13-4.92,24.29-1.44,10.48-.72,21.55-12.05,27.72-5.44,3-7.62,7.22-3.73,13h0c0.28-.62.61-1.17,0.92-1.74,0-3.69.94-7,4.33-9.2,11.52-7.42,12.38-19.15,13-31.11,0.86-15.47,5-29.73,15.76-41.33a11.43,11.43,0,0,0-.07-1.61h0Z"/><path class="cls-23" d="M171.57,392.06a8.79,8.79,0,0,0-.53-0.91,8,8,0,0,0-5.51-.41l2.43,1.41A8.84,8.84,0,0,1,171.57,392.06Z"/><path class="cls-23" d="M174.7,374.95c0-11.3-4.52-21.46-8.71-31.45-3.24-7.72-13.68-11.45-20.8-8.35-7.77,3.38-15,7.78-19.21,15.56,0,0.31,0,.63,0,0.95,5-4.08,9.86-8.31,15-12.13,7.72-5.69,20.07-3.75,23.11,5.05,3.6,10.41,9,20.66,8.19,32.34-0.29,4.22-1.11,7.86-6.11,7.62a12.28,12.28,0,0,0-7.94,2l3,1.74a16,16,0,0,1,4.25-1.25C172.58,385.9,174.68,381.34,174.7,374.95Z"/><path class="cls-23" d="M125.05,352.45h0l1-.8c0-.32,0-0.63,0-0.95-0.31.58-.65,1.13-0.92,1.74h0Z"/><path class="cls-24" d="M166.38,205.65A17.14,17.14,0,0,0,156.22,210c-10.51,9.32-11.11,20.69-1.85,32.45,6,7.59,10.88,15.57,5.62,25.7l-0.14.15c1.69,1.88,2.43,4.3,3.5,6.54,3.83-3.07,8.75-4.79,11.39-9.31-10.25-3.11-10.3-12.17-9.38-19.65,2.2-17.94,12-32,26.2-43,1.22-.95,3.15-1.67,2.47-3.41a2.58,2.58,0,0,0-2.43-1.83,35.38,35.38,0,0,1-5,1.66c-2.43.35-4.78,0.38-6.63-1.54A17.5,17.5,0,0,1,166.38,205.65Z"/><path class="cls-24" d="M160,268.11c5.25-10.13.35-18.11-5.62-25.7-9.26-11.76-8.66-23.13,1.85-32.45a17.14,17.14,0,0,1,10.16-4.32A17.5,17.5,0,0,0,180,197.77c-0.07-.07-0.15-0.13-0.21-0.21-4.79,0-6.63,6.24-11.46,5.63-8.41-1.06-12.58,4.65-18.1,9.42-7.09,6.14-7.17,11.45-2.77,18.92,1.83,3.1-.78,8,3.29,11.09C159,249,161.11,257.56,159,267.46a8.51,8.51,0,0,1,.82.8Z"/><path class="cls-24" d="M186.63,199.31a35.38,35.38,0,0,0,5-1.66c-1.34-.1-2.9.37-4.14-0.06h0l-7.31,0-0.15.21C181.85,199.69,184.2,199.66,186.63,199.31Z"/><path class="cls-24" d="M180,197.77l0.15-.21h-0.36C179.86,197.64,179.94,197.7,180,197.77Z"/><path class="cls-24" d="M159.85,268.26c-0.26.27-.5,0.54-0.75,0.81,0,2.68-.42,5.55,3.84,6l0.4-.31C162.29,272.56,161.54,270.14,159.85,268.26Z"/><path class="cls-24" d="M159,267.46h0a11.43,11.43,0,0,1,.07,1.61c0.25-.27.49-0.54,0.75-0.81A8.51,8.51,0,0,0,159,267.46Z"/><path class="cls-11" d="M169.66,196c-1.83-8-4.11-16-1.78-24.43a9.56,9.56,0,0,0,.68-3.88c-0.88,1.44-2,2.25-3.78,1.61,2.14,7.74,1.41,16,3.9,23.66C169,194,168.34,195.64,169.66,196Z"/><path class="cls-11" d="M168.68,193c-2.5-7.69-1.76-15.92-3.9-23.66h0c0.37,4-2.9,7.62-1.53,11.71,1.93,5.75,4.45,11,2.52,17.74-1,3.4,2.61,2.73,4.69.81-0.23-1.18-.49-2.36-0.76-3.55C168.34,195.64,169,194,168.68,193Z"/><path class="cls-11" d="M168.56,167.7a9.56,9.56,0,0,1-.68,3.88c-2.33,8.42-.05,16.4,1.78,24.43a2.68,2.68,0,0,0,1.06.07l0.39-.19c0.86-8.7-3.29-17.27-1.19-26.37,1.3-5.62-3.25.33-5.14-.21h0C166.53,169.95,167.68,169.14,168.56,167.7Z"/><path class="cls-11" d="M169.66,196c0.27,1.18.53,2.36,0.76,3.55a20.93,20.93,0,0,0,.68-3.67l-0.39.19A2.68,2.68,0,0,1,169.66,196Z"/><path class="cls-11" d="M164.78,169.3h0Z"/><path class="cls-25" d="M143.56,243.59c3.26,0.83,1.83-3.67,2.34-5.69-0.28-4.73.65-10.18-5.81-11.18-2.51-.39-4.13,2.26-3.37,4.49C138.26,235.76,138,242.17,143.56,243.59Z"/><path class="cls-26" d="M221.44,39.06c0.15-3-2.78-4.65-3.33-7.15a18,18,0,0,1-5.54.18C213.43,36.4,216,39,221.44,39.06Z"/><path class="cls-26" d="M218.11,31.92c0.55,2.5,3.47,4.14,3.33,7.15-5.44-.07-8-2.66-8.86-7-0.76-.09-1.51-0.22-2.27-0.38-1.29,8.13,5.24,8.4,10.25,10.22,2.18,0.79,4.94,1.21,5.51-1.31,1.13-5-5.67-5-6.59-9h0C219,31.77,218.56,31.83,218.11,31.92Z"/><path class="cls-26" d="M212.57,32.09a18,18,0,0,0,5.54-.18A3.71,3.71,0,0,1,218,30.8s0,0,0-.07a5.92,5.92,0,0,0-5.78-.44l0.06,0.12A16.38,16.38,0,0,0,212.57,32.09Z"/><path class="cls-26" d="M218.11,31.92c0.45-.09.91-0.15,1.36-0.28h0a13.67,13.67,0,0,0-1.43-.91s0,0,0,.07A3.71,3.71,0,0,0,218.11,31.92Z"/><path class="cls-26" d="M212.57,32.09a16.38,16.38,0,0,1-.25-1.67l-0.06-.12a7.5,7.5,0,0,0-2,1.41C211.06,31.87,211.81,32,212.57,32.09Z"/><path class="cls-27" d="M229.19,54.47c-3.34-1.15-6.61-1.92-9,1.94l-0.09.12a2.12,2.12,0,0,1,.58.64C224.13,59.46,226.84,57.88,229.19,54.47Z"/><path class="cls-27" d="M229.19,54.47l0.23-.34c-0.15-5.16-4-4.58-7.2-4.31-4.21.36-2.68,3.86-2.88,6.33a2.34,2.34,0,0,1,.72.37l0.09-.12C222.58,52.55,225.85,53.32,229.19,54.47Z"/><path class="cls-27" d="M220.64,57.16c1.27,2.13-.55,6.44,3.66,6.21,5.58-.3,3.08-5.63,4.73-8.42a4.14,4.14,0,0,0,.22-0.46l-0.06,0C226.84,57.88,224.13,59.46,220.64,57.16Z"/><path class="cls-27" d="M229.19,54.47l0.06,0,0.17-.36Z"/><path class="cls-28" d="M195.46,198.94c1.27,3.18-2.17,4.67-4.05,6.69-8.94,9.62-18.06,18.92-21.77,32.36-2.85,10.32-2.14,19.08,5.42,26.9,0,0.16-.06.28-0.09,0.44,4.94-3.94,11.06-6.51,13.34-13.42,0.82-2.49,4.68-4.15,7.26-3,13.67,6.24,30,8.1,39.14,22,2.9,4.42,8.83,8.93,3.41,15.49h0l3.88,6h0c5.22-7.32,13-7.75,20.94-7.83,9.71-.54,6,8.83,9.5,12.87h0c4-13.79-10.14-16.59-15.32-24.79-2.39-3.77-4.44,2.94-8,2.67-2.29-6.46-1.53-12.51,1.18-18.85,3-7.13.33-10.89-7.47-12.31-5.4-1-7.35-4.69-5.72-9.72,2.89-8.87,8.24-16.72,12-25,5.17-11.49,13.34-9.82,22-10.48,6.54-.5,11.81.89,10.69,8.82-1.21,8.51,7,5.35,9.8,8.79l-0.1-.09h0c0,0.05,0,.1,0,0.16l0.08-.07c7-2.42,1-10,5.35-13.44h0c1.23-7.78-4.39-8.73-9.74-9.23s-10.62-.08-15.93-0.21c-3.47-.08-6.59-0.69-4.54-5.47h0l-5.24-2h0c-8.1,3.44-13,9.58-15.72,17.88-0.48,1.48-2.95,3.39-4.53,1.52-8.47-10-19-13.77-32.29-9.63q0-1.26,0-2.52c7.81-3.68,15.46-7.78,23.51-10.83,3.45-1.31,6.16-2.64,7.89-5.83-0.58-2.72-5.25-4.45-2.22-8,2.75-3.18,5.43-6.68,10.6-5.95,3.32,0.47,7.63,2.66,8.49-3.37-3.72-.27-5.75-2.06-5.38-6,0.44-4.63,3.81-5.07,7.42-5.11,7-4.4,12.93-9,22.47-3,5.63,3.57,14.63,2.84,21-2.91,2.06-5.44-3.09-10.26-1.18-16,0.64-2-3.64-2.72-6.19-2.61-20.34.82-30.1-14.56-41.39-27.31-2.89-3.26-.19-5.54,1.83-8-6.2.84-10.31,5.37-13.88,9.91-3.14,4-4.2,9.22.82,13.33,5.35,4.38,5.88,9.94,4.24,16.17-4.68,17.81-10.45,34.4-28.73,43.89-6.41,3.33-9.2,12.09-14.87,17.63a38.31,38.31,0,0,1-9.71,7.07A3.86,3.86,0,0,1,195.46,198.94Z"/><path class="cls-28" d="M297.46,202.54c-0.06-.36-0.1-0.7-0.14-1-0.14.58-.28,1.16-0.4,1.75A1.69,1.69,0,0,0,297.46,202.54Z"/><path class="cls-28" d="M193.61,196.73a38.31,38.31,0,0,0,9.71-7.07c5.67-5.54,8.47-14.31,14.87-17.63,18.28-9.49,24-26.08,28.73-43.89,1.64-6.23,1.11-11.79-4.24-16.17-5-4.11-4-9.34-.82-13.33,3.57-4.54,7.68-9.07,13.88-9.91a8,8,0,0,0,1.56-2.52h0c-19.22,3.25-25,15.37-13.92,29.18,2.18,2.73,3.28,6,2,9.72-2.18,6.18-5,12.27-6.14,18.65-2.22,12.94-11.49,19.34-21.55,25.2-1.85,1.08-4.37,1.22-5.15,3.59-4.16,12.56-14.24,19.14-25,25C189.53,196.88,191.86,195.89,193.61,196.73Z"/><path class="cls-28" d="M194,199.47c0.68,1.74-1.25,2.46-2.47,3.41-14.2,11-24,25-26.2,43-0.92,7.47-.87,16.54,9.38,19.65l0.21-.16c0-.15.07-0.28,0.09-0.44-7.55-7.82-8.27-16.58-5.42-26.9,3.72-13.44,12.84-22.73,21.77-32.36,1.88-2,5.32-3.51,4.05-6.69a3.86,3.86,0,0,0-1.85-2.21c-0.66.33-1.33,0.63-2,.91A2.58,2.58,0,0,1,194,199.47Z"/><path class="cls-28" d="M191.6,197.65c0.68-.29,1.35-0.59,2-0.91-1.75-.84-4.08.14-6.14,0.85h0C188.7,198,190.26,197.55,191.6,197.65Z"/><path class="cls-29" d="M302.24,97.29c-8.08-11.57-17.54-16.15-31.31-11-4,1.49-8.56,1.82-12.93,2.31-0.4,0-.8,0-1.18,0-0.77,5.82,1.53,10.59,5.93,15,8,7.94,15.18,16.3,27.78,17.57,13.31,1.34,17.13,8,13.31,21.08,4.83-2.24,4.1-8.47,7.64-11.83s13.46-4.88,18.14-.83,9.52,8,4.29,15.72c-5.78,8.52-11,16.74-22.84,16.78-1.82,0-3.63,2.12-5.44,3.28a9,9,0,0,1-.72.59c-11.72,5.77-24.66,8.8-35.74,16.07-2.4,1.57-5.25.08-7.76-1.14l-0.26.09q0.13,2.31.27,4.63a8.22,8.22,0,0,1,6.23,2.4c0.05,0.09.11,0.15,0.17,0.24,12.1-1.33,24.45,3,36.46-.29a22.33,22.33,0,0,1,4.22-1.46c5-.82,8-3.92,10.93-7.95,4.37-6.06,9.78-8.13,16.38-2.23a9.92,9.92,0,0,0,6.48,2.16V115.33a78.75,78.75,0,0,0-11.44-.71C317.75,114.53,309,107,302.24,97.29Zm-18.06,88.26c-2.38.1-3.1-2.13-3-3.92,0.18-2.21,2.2-2.78,4.18-2.75s3.78,0.5,3.63,3.31C288.38,184.47,286.34,185.45,284.19,185.54Z"/><path class="cls-29" d="M339.92,112.48c-14.11,1.14-26.37-2.84-34.77-15.27a49.7,49.7,0,0,0-6.93-8.86c-5.57-5.16-12.36-9.3-20-6.63-6.92,2.43-14.06,2.72-21,4.49h0a19.23,19.23,0,0,0-.47,2.4c0.39,0,.78,0,1.18,0,4.36-.5,8.94-0.82,12.93-2.31,13.77-5.14,23.24-.56,31.31,11,6.77,9.69,15.5,17.24,28.59,17.33a78.75,78.75,0,0,1,11.44.71v-2.86A15.89,15.89,0,0,0,339.92,112.48Z"/><path class="cls-29" d="M261.45,186.34l5.24,2h0c0.37-.05.73-0.08,1.1-0.12-0.05-.09-0.11-0.15-0.17-0.24a8.22,8.22,0,0,0-6.23-2.4l0,0.76h0Z"/><path class="cls-29" d="M253.91,96.69C265.2,109.44,275,124.83,295.3,124c2.55-.1,6.84.66,6.19,2.61-1.91,5.79,3.25,10.61,1.18,16a7.7,7.7,0,0,0,1.16-.43c3.82-13,0-19.74-13.31-21.08-12.6-1.27-19.8-9.63-27.78-17.57-4.4-4.37-6.7-9.14-5.93-15-0.37,0-.73.06-1.09,0.11C253.72,91.15,251,93.43,253.91,96.69Z"/><path class="cls-29" d="M256.82,88.62a19.23,19.23,0,0,1,.47-2.4,8,8,0,0,1-1.56,2.52C256.09,88.68,256.45,88.64,256.82,88.62Z"/><path class="cls-30" d="M317.48,184.19c-2.25,3.05-6.18,4.11-9.93,4.92a49.43,49.43,0,0,1-5,1.46,20.59,20.59,0,0,0-4.16,7.18,10.23,10.23,0,0,1,.29,5.54c-2,4.69,1,11.4-5.68,14.19q-0.75.09-1.47,0.13c0,2-.73,4.27,2.24,6,2.45-6.75,8.09-9.35,14.35-11.09h0c1.37-9.3,2.58-18.7,8.75-26.32,2.83-3.49,6.6-5.45,9.87-.51,2.66,4,5.22,1.76,8,.6h0a39.9,39.9,0,0,1,7.53-2.15v-3.25a7.37,7.37,0,0,1-4.22-1C329.12,174.09,323.2,176.42,317.48,184.19Z"/><path class="cls-30" d="M297.46,202.54a1.69,1.69,0,0,1-.54.7h0c-4.32,3.47,1.62,11-5.35,13.44l-0.08.07a5.18,5.18,0,0,1,.07.85q0.72,0,1.47-.13c6.71-2.79,3.7-9.5,5.68-14.19a10.23,10.23,0,0,0-.29-5.54,37.79,37.79,0,0,0-1.11,3.75C297.36,201.84,297.4,202.18,297.46,202.54Z"/><path class="cls-30" d="M319.41,178.52c-2.9,4-5.94,7.13-10.93,7.95a16.87,16.87,0,0,0-5.9,4.1,49.43,49.43,0,0,0,5-1.46c3.74-.81,7.68-1.86,9.93-4.92,5.73-7.77,11.64-10.1,20.57-4.3a7.37,7.37,0,0,0,4.22,1v-2.46a9.92,9.92,0,0,1-6.48-2.16C329.2,170.39,323.78,172.45,319.41,178.52Z"/><path class="cls-30" d="M304.26,187.93a29.85,29.85,0,0,0,4.22-1.46A22.33,22.33,0,0,0,304.26,187.93Z"/><path class="cls-11" d="M212.89,109.68a2,2,0,0,0-2.57,1.92c-0.24,1.94-.18,3.88,2.24,4.35a2.2,2.2,0,0,0,2.75-1.81C215.78,112,214.77,110.58,212.89,109.68Z"/><path class="cls-31" d="M104.85,55.06a5.2,5.2,0,0,1-.54,0c1.13,0.51,2.23,1.11,3.34,1.7,5.05,2.68,16.17.56,19.89-3.5,2.57-2.8,1.66-5.18-1.08-7-2.94-1.95-6.12-3.57-8.68-6C117.64,47.86,112.65,53.77,104.85,55.06Z"/><path class="cls-31" d="M126.47,46.3c2.74,1.82,3.65,4.2,1.08,7-3.73,4.06-14.84,6.19-19.89,3.5-1.12-.59-2.22-1.19-3.34-1.7a35.64,35.64,0,0,0-3.93,0l-1.81.82c1.54,0.2,3.75-.19,4.53.69,8.45,9.47,16.75,3,24.73-.36,6.49-2.75,6.54-8.18.45-11.81-3.75-2.23-7.89-3.82-10.7-7.38a18.71,18.71,0,0,1,.22,3.22C120.36,42.73,123.53,44.35,126.47,46.3Z"/><path class="cls-31" d="M104.85,55.06c7.8-1.29,12.79-7.19,12.94-14.76-0.16-.15-0.33-0.3-0.48-0.46-1.38,8.49-8.2,11.49-15.06,14.46a18.25,18.25,0,0,1,2.07.8A5.2,5.2,0,0,0,104.85,55.06Z"/><path class="cls-31" d="M117.31,39.84c0.16,0.16.32,0.31,0.48,0.46a18.71,18.71,0,0,0-.22-3.22h0A19.54,19.54,0,0,1,117.31,39.84Z"/><path class="cls-31" d="M104.32,55.1a18.25,18.25,0,0,0-2.07-.8l-1.86.81A35.64,35.64,0,0,1,104.32,55.1Z"/><path class="cls-4" d="M176.34,3.17c-0.05-.17-0.12-0.33-0.17-0.5h0L171.57,0l-0.51.29C172.45,1.88,174,3.24,176.34,3.17Z"/><path class="cls-4" d="M176.34,3.17a6.33,6.33,0,0,0,.65,0l-0.81-.47h0C176.22,2.85,176.29,3,176.34,3.17Z"/><path class="cls-32" d="M172.29,392.19l-0.5.4a4.35,4.35,0,0,1,.33,1.32l2.74-1.58a18.89,18.89,0,0,0-2.48-.14h-0.1Z"/><path class="cls-32" d="M170.52,393.62l1.05,0.61,0.56-.32a4.35,4.35,0,0,0-.33-1.32Z"/><path class="cls-32" d="M172.31,392.18h0Z"/><path class="cls-33" d="M327.21,194.25c-1.73,10.11-18,8.06-17,20.39-0.2,4.61.64,9.17-2.54,13.52-3,4.12-.61,7.84,3.25,10.26,9.84,6.18,1,12.92-.06,18.86-0.93,5.46-7.74,5.86-12.66,4.8-3.45-.74-8-3.24-5.63-7.88,3.69-7.18-.54-11-5-14.78-4.21-3.59-8.85-6.29-.11-10.35,4.41-2,.39-8,3-11.43-6.53.1-10.75-2.72-11.15-10.81a5.24,5.24,0,0,0-5.65-5.22c-7.94.48-16.3-2-21.56,8.39-3.76,7.42-9,14.18-11.6,22.32-1.48,4.63-.56,7.42,4.6,9.29,7.8,2.83,9.77,7.53,7.57,15.48-0.83,3-2.21,5.89-2.2,9.08,0,1.79-.37,4.53,2.23,4.3,9.64-.88,12.45,8.49,18.8,12.48,4.81,3,4.19,9.3,1.66,14.55-0.2.07-.38,0.13-0.56,0.18,0.84,1.83,2.37,3.46,1.69,5.75h0c0,0.13,0,.25-0.07.38,1.13,1.55,1.07,2.76.52,3.8a29,29,0,0,1,1.88-2.23c4.58-4.84,7.69-3.88,9.87,2.85a3.22,3.22,0,0,0,.89-4c-5.3-9.51,1.49-8.2,7.14-8.42,7.47-.3,14.38-2.23,21.89,3.1,5.87,4.17,13.67-1.12,20.51-2.86h0a10.62,10.62,0,0,1,5.44-2.08v-3.87H342c-3.9-.41-7,1-10.27,3.46-7.73,6-20,2.15-23.14-6.89a11.85,11.85,0,0,1,2-11.56c2.65-3.41,5.47-1.5,8.4-.39s5.93,1.27,8.78-1.11c4.42-3.68,9.54-3.13,14.49-2.41v-3.8c-1.23,0-2.46,0-3.63-.15h0c-2.51.11-5,.07-7.53,0.35-9.62,1.08-12.08-2.08-8.34-11.68,4-10.18.4-19.48-3-28.66-1-2.73-1.65-4.35.43-6.54,6.57-6.91,14.07-13.7,22.09-18.19V193c-4.41.34-8.87,0.78-13.27,1.14A7.36,7.36,0,0,0,327.21,194.25Z"/><path class="cls-33" d="M270.83,312.81c0.89-1.1,1.81-2.45,2.81-3.83C272.43,310.27,270.86,311.39,270.83,312.81Z"/><path class="cls-33" d="M268.62,320.34c3.11-5.45,5.65-10.35,9.66-14.19,4.31-4.13,6.43-2.57,7.1,2.74a4.16,4.16,0,0,0,1-.66c-2.18-6.74-5.29-7.69-9.87-2.85a29,29,0,0,0-1.88,2.23,6.39,6.39,0,0,1-1,1.36c-1,1.38-1.92,2.73-2.81,3.83,0-1.43,1.6-2.54,2.81-3.83,0.33-.45.67-0.91,1-1.36,0.55-1,.61-2.24-0.52-3.8C273.31,309.36,265.72,312.58,268.62,320.34Z"/><path class="cls-33" d="M274.66,307.62c-0.35.45-.69,0.91-1,1.36A6.39,6.39,0,0,0,274.66,307.62Z"/><path class="cls-33" d="M291.47,216.59h0l0.1,0.09c-2.76-3.44-11-.28-9.8-8.79,1.13-7.93-4.14-9.32-10.69-8.82-8.63.66-16.8-1-22,10.48-3.71,8.26-9.07,16.11-12,25-1.64,5,.32,8.73,5.72,9.72,7.8,1.42,10.52,5.18,7.47,12.31-2.71,6.34-3.47,12.39-1.18,18.85,3.52,0.26,5.57-6.44,8-2.67,5.19,8.19,19.37,11,15.32,24.79h0l0.08,0.17c0.18,0,.36-0.1.56-0.18,2.53-5.25,3.16-11.52-1.66-14.55-6.35-4-9.16-13.36-18.8-12.48-2.6.24-2.22-2.51-2.23-4.3,0-3.2,1.37-6.07,2.2-9.08,2.2-7.95.23-12.65-7.57-15.48-5.17-1.87-6.08-4.67-4.6-9.29,2.6-8.14,7.84-14.89,11.6-22.32,5.25-10.37,13.62-7.92,21.56-8.39a5.24,5.24,0,0,1,5.65,5.22c0.4,8.09,4.62,10.92,11.15,10.81A4.43,4.43,0,0,1,291.47,216.59Z"/><path class="cls-34" d="M215.66,338.35C208.77,337,205.88,329,198,329c-4.32,0-7.34-.16-8.63,4.49-0.17.6-.1,1.58-0.46,1.78-20,10.85-7,23.94-2.45,36.4a3.36,3.36,0,0,1,.21,2c0.11,0.09.2,0.19,0.31,0.28a43.55,43.55,0,0,0,11.26,4.92l41.92-24.2C233,347.48,226.1,340.41,215.66,338.35Z"/><path class="cls-34" d="M186.62,373.65a3.26,3.26,0,0,1-1.59,1.9h0c2.19,4,6.58,4.61,10.08,5.09l3.09-1.79a43.55,43.55,0,0,1-11.26-4.92C186.82,373.84,186.73,373.74,186.62,373.65Z"/><path class="cls-35" d="M195.44,304.82c5,4.27,10.09,6.11,15.81.91,1.84-1.67,3.36-3.54,2.28-5.57-3.72-7,1.19-9.3,6-11.81h0c-2.78-.56-6.11,1.38-8.73-2.06,9.12-4.91,17.86-6.24,26.61-.32,0.35-12.56-9.4-18.25-17.59-24.88-7-5.68-16.54-4.75-24.3-8.76-3-1.56-5,1.37-6.76,3.66-3.58,4.64-7.06,9.5-13.81,9.51-1,6.51-5.35,9.09-11.46,9.57l0.09,0.2c0.44,4.43-2.86,7.4-4.34,11.09-0.82,2-1.82,4.27-.22,6.19,1.93,2.33,3.9.32,5.81-.46,5.65-2.3,11.35-4.33,17.55-3.22a104,104,0,0,1-7.52-11.38c-3.2-5.15-.87-7.41,2.41-10,3.61-2.82,7.56-2.8,11.11.17,4.16,3.48,3.61,19.49-.35,25.36a11.94,11.94,0,0,1,.64,1.05c1.21,2.68,1,5.71,1.73,8.5C191.81,301.06,193.67,303.32,195.44,304.82Z"/><path class="cls-35" d="M188.65,294.08A11.94,11.94,0,0,0,188,293a6.9,6.9,0,0,1-.9,1.1h0c1,3.75-.83,8,2,11.43a6.63,6.63,0,0,1,1.26-3C189.62,299.79,189.86,296.76,188.65,294.08Z"/><path class="cls-35" d="M164.81,292.07c-1.91.78-3.88,2.79-5.81,0.46-1.6-1.92-.59-4.16.22-6.19,1.48-3.68,4.78-6.66,4.34-11.09l-0.09-.2-0.52.06h0c-2.51,4.63-5.34,9.12-7.39,13.95a5.92,5.92,0,0,0,2,7.54,4.52,4.52,0,0,0,6-.64c5.74-5.36,13.08-4.8,20.06-5.59-0.45-.48-0.83-1-1.25-1.51C176.16,287.74,170.46,289.77,164.81,292.07Z"/><path class="cls-35" d="M174.93,265.49h-0.18c-2.64,4.52-7.57,6.24-11.39,9.31l0.12,0.26C169.58,274.58,173.91,272,174.93,265.49Z"/><path class="cls-35" d="M163.47,275.06l-0.12-.26-0.4.31h0Z"/><path class="cls-35" d="M188.74,256c1.77-2.29,3.74-5.22,6.76-3.66,7.76,4,17.29,3.08,24.3,8.76,8.19,6.64,17.95,12.32,17.59,24.88,0.24,0.16.48,0.31,0.72,0.48,5.42-6.56-.51-11.07-3.41-15.49-9.14-13.92-25.48-15.78-39.14-22-2.58-1.18-6.44.49-7.26,3-2.28,6.92-8.4,9.48-13.34,13.42,0,0.05,0,.1,0,0.16C181.68,265.49,185.16,260.62,188.74,256Z"/><path class="cls-35" d="M175,265.33l-0.21.16h0.18C174.93,265.44,174.95,265.39,175,265.33Z"/><path class="cls-36" d="M309.23,298.51c-5.42-3-11.73-.21-17.59.4-3,.31-2.2,3.22-2.46,5.33s0.15,4.67-2.53,4.77l0.07,0.23c-3.86,6.88-7.2,14-10.78,21a37.81,37.81,0,0,0-1.36,4.48l62.41-36c0-.18,0-0.36-0.06-0.54C327.78,302,318.83,303.87,309.23,298.51Z"/><path class="cls-36" d="M286.72,309.23l-0.07-.23a5.76,5.76,0,0,1-1.27-.11c-5.74,5.17-7.3,12.77-11.07,19.08a20,20,0,0,0-.08,7l0.36-.2a37.81,37.81,0,0,1,1.36-4.48C279.52,323.25,282.86,316.11,286.72,309.23Z"/><path class="cls-36" d="M289.18,304.24c0.26-2.12-.54-5,2.46-5.33,5.86-.61,12.17-3.43,17.59-0.4,9.6,5.37,18.55,3.5,27.7-.32a16.42,16.42,0,0,1-.1-2.14c-6.84,1.74-14.64,7-20.51,2.86-7.51-5.33-14.42-3.4-21.89-3.1-5.64.23-12.43-1.09-7.14,8.42a3.22,3.22,0,0,1-.89,4c0.08,0.25.16,0.5,0.24,0.77C289.34,308.91,288.94,306.21,289.18,304.24Z"/><path class="cls-36" d="M286.65,309c-0.08-.27-0.16-0.52-0.24-0.77a4.16,4.16,0,0,1-1,.66A5.76,5.76,0,0,0,286.65,309Z"/><path class="cls-37" d="M171.58,319.72c8.37-.88,10.83,2.24,8.82,11,1.79,1,3.07,3.4,1.57,4.11-7,3.32-6.75,8.48-5.82,13.59a12.89,12.89,0,0,1,6.09-11.35,17,17,0,0,0,5.23-5.33c2.82-4.78,7.23-6.29,11.32-5.3a94.58,94.58,0,0,1-14.17-10.68c-6.78-6.07-8.92-6.49-15.73-.75a60.55,60.55,0,0,0-5.38,5.25c-5.77,6.25-5.65,7,2.74,9.73C165.89,325.61,164,320.51,171.58,319.72Z"/><path class="cls-37" d="M177.34,355.68A29.56,29.56,0,0,0,182,368.6,98.56,98.56,0,0,1,177.34,355.68Z"/><path class="cls-37" d="M220.63,334.53a57.07,57.07,0,0,1-13.4-3.8c6.36,3.29,13,5.81,19.21,9.33a63.05,63.05,0,0,1,16.05,13.21l4.84-2.8C241.67,340.74,231.86,336.26,220.63,334.53Z"/><path class="cls-37" d="M177.34,355.68c-0.18-.67-0.36-1.34-0.52-2a23.42,23.42,0,0,1-.66-5.24c-0.93-5.1-1.18-10.27,5.82-13.59,1.5-.71.21-3.07-1.57-4.11-0.05.23-.09,0.44-0.15,0.67h0c1.32,2.07,1,3.9-1.61,3.78-7.15-.32-9,1.67-4.92,8.28,1.28,2.08.19,5.51,0.59,8.27,1.32,8.92,3.19,17.65,10.71,23.81-1-2.32-2-4.63-3-6.95A29.56,29.56,0,0,1,177.34,355.68Z"/><path class="cls-37" d="M219.51,331.87a53.37,53.37,0,0,1-34.19-19.2c-6-7.36-10.28-5.09-15.6-1.6-3.08,2-5.61,5-8,7.87s-7.41,4.37-6,8.72c1.55,4.62,6.59,3.77,10.56,4.07a12.05,12.05,0,0,0,0-1.75c-8.39-2.69-8.51-3.48-2.74-9.73a60.55,60.55,0,0,1,5.38-5.25c6.81-5.74,9-5.32,15.73.75a94.58,94.58,0,0,0,14.17,10.68,11.36,11.36,0,0,1,3.36,1.43c1.65,1,3.35,2,5.06,2.86a57.07,57.07,0,0,0,13.4,3.8c11.23,1.73,21,6.21,26.7,16l2.14-1.24C243.28,338.09,232.08,333.75,219.51,331.87Z"/><path class="cls-37" d="M226.44,340.06c-6.17-3.53-12.85-6-19.21-9.33a64.64,64.64,0,0,1-8.43-4.29c-4.1-1-8.51.52-11.32,5.3a17,17,0,0,1-5.23,5.33,12.89,12.89,0,0,0-6.09,11.35c0.36,2,.82,4,1,5.82,0,0.48.13,1,.19,1.44A98.56,98.56,0,0,0,182,368.6a23.61,23.61,0,0,0,4.62,5.05,3.36,3.36,0,0,0-.21-2c-4.56-12.46-17.57-25.55,2.45-36.4,0.37-.2.3-1.18,0.46-1.78,1.29-4.65,4.31-4.48,8.63-4.49,7.92,0,10.82,8,17.7,9.34,10.44,2.05,17.39,9.13,24.46,16.3l2.38-1.37A63.05,63.05,0,0,0,226.44,340.06Z"/><path class="cls-37" d="M202.17,327.87a11.36,11.36,0,0,0-3.36-1.43,64.64,64.64,0,0,0,8.43,4.29C205.52,329.84,203.82,328.91,202.17,327.87Z"/><path class="cls-37" d="M186.62,373.65A23.61,23.61,0,0,1,182,368.6c1,2.32,2,4.63,3,6.95h0A3.26,3.26,0,0,0,186.62,373.65Z"/><path class="cls-37" d="M177.34,355.68c-0.06-.48-0.14-1-0.19-1.44-0.18-1.86-.64-3.83-1-5.82a23.42,23.42,0,0,0,.66,5.24C177,354.34,177.16,355,177.34,355.68Z"/><path class="cls-38" d="M271.53,336.51l1.43-.82A21.08,21.08,0,0,1,274.3,328,38.18,38.18,0,0,0,271.53,336.51Z"/><path class="cls-38" d="M274.3,328h0a21.08,21.08,0,0,0-1.35,7.71l1.27-.73A20,20,0,0,1,274.3,328Z"/><path class="cls-39" d="M229.44,289.59c-3.21-2.51-6-3.64-9.46-1.53a0.35,0.35,0,0,1-.07.28c-2,4.34-4.69,8.05-4.68,13.54,0,6.92-8.55,10.62-15.85,7.9-2.54-.95-4.67-2.87-7.23-3.76,9.28,12.8,23.65,18.47,38.75,15.35,4.74-1,7.17-3.31,6.64-8.34-0.32-3-1.54-6.12.16-9.14,0.23-.07.43-0.11,0.64-0.15l0-.28C234.51,299.39,234.15,293.27,229.44,289.59Z"/><path class="cls-39" d="M237.54,313c0.53,5-1.9,7.36-6.64,8.34-15.1,3.12-29.47-2.55-38.75-15.35a7.83,7.83,0,0,0-3-.46c6.89,11.7,16.78,18.44,30.67,18.79,20.69,0.52,22-.86,18.55-20.62-0.21,0-.41.09-0.64,0.15C236,306.9,237.21,310,237.54,313Z"/><path class="cls-39" d="M219.5,288.34c-4.78,2.51-9.69,4.79-6,11.81,1.08,2-.45,3.9-2.28,5.57-5.72,5.2-10.77,3.36-15.81-.91-1.77-1.5-3.64-3.76-5.06-2.24a9.28,9.28,0,0,0,.94,2.31c0.27,0.39.55,0.76,0.83,1.14,2.56,0.89,4.69,2.82,7.23,3.76,7.3,2.72,15.87-1,15.85-7.9,0-5.49,2.65-9.19,4.68-13.54a0.35,0.35,0,0,0,.07-0.28c-0.16.1-.31,0.16-0.48,0.27h0Z"/><path class="cls-39" d="M191.32,304.89a9.28,9.28,0,0,1-.94-2.31,6.63,6.63,0,0,0-1.26,3,7.83,7.83,0,0,1,3,.46C191.87,305.64,191.59,305.28,191.32,304.89Z"/><path class="cls-40" d="M272.34,297.73c-3.15.75-3.23-2.26-3.87-4.22-0.91-2.78-1.8-5.38-5.09-6.07,0.33,2.14.65,4.28,1.17,6.38,1.44,5.85-1.28,9.88-5.9,12.53-5,2.86-8.35-.77-11-4.27-2.2-2.87-3.72-6.26-5.53-9.43l-0.24.08c-3.26-.73-4.06-3.24-4.46-6.06,0,0,0-.09,0-0.14-6.09.63-11.76-4.76-18.18-1.18-3.5,2-.24,1.89.6,2.47,2.69-4.49,6.36-3.31,9.7-.81,5.39,4,8.91,9.32,8.77,16.44l0.2,0.24c4.59-.92,4.9,3.5,6.26,6.17,1.67,3.26,1,7.18,2.09,10.66,4.22-.23,8.59-1.41,12.36,1.52l0.09-.1c3,0.07,3.11,2.29,3.62,4.35-0.57-9.5-1.07-19.21,10.44-23.43,0.24,0.25.43,0.49,0.61,0.72l0.26-.15C272.49,301.86,271,300.22,272.34,297.73Z"/><path class="cls-40" d="M262.9,326.3c-0.51-2.06-.63-4.27-3.62-4.35l-0.09.1c0.2,0.15.39,0.31,0.59,0.48h0c2.9,1.75-.53,6.18,4.15,8.21,1.79-9.86-1-21.43,10-27.16-0.18-.24-0.37-0.47-0.61-0.72C261.83,307.09,262.33,316.8,262.9,326.3Z"/><path class="cls-40" d="M244.74,309.86c-1.37-2.67-1.67-7.09-6.26-6.17,3.24,3.89,6.51,7.72,4.58,13.48-0.85,2.54,1.22,3,3.06,3.37l0.71,0C245.71,317,246.41,313.12,244.74,309.86Z"/><path class="cls-40" d="M242,292.49l-3.88-6h0c-0.24,0-.48.06-0.73,0.09,0,0,0,.09,0,0.14,0.39,2.82,1.2,5.34,4.46,6.06l0.24-.08-0.09-.16h0Z"/><path class="cls-40" d="M262.94,284.65c0.16,0.93.3,1.86,0.45,2.79,3.29,0.69,4.17,3.29,5.09,6.07,0.64,2,.72,5,3.87,4.22,0-.07.06-0.14,0.1-0.21C268.93,293.48,272.65,284.11,262.94,284.65Z"/><path class="cls-40" d="M274.21,303.44h0c0.68-2.29-.85-3.92-1.69-5.75l-0.18,0C271,300.22,272.49,301.86,274.21,303.44Z"/><path class="cls-40" d="M272.44,297.52c0,0.07-.06.14-0.1,0.21l0.18,0-0.08-.17h0Z"/><path class="cls-40" d="M210.78,286.28c2.62,3.44,5.95,1.5,8.73,2.06,0.1-.19.2-0.35,0.31-0.52-0.84-.58-4.1-0.52-0.6-2.47,6.42-3.58,12.09,1.81,18.18,1.18,0-.2,0-0.38,0-0.57C228.64,280,219.9,281.38,210.78,286.28Z"/><path class="cls-40" d="M238.11,286.45c-0.24-.17-0.48-0.32-0.72-0.48,0,0.19,0,.37,0,0.57,0.24,0,.48,0,0.73-0.09h0Z"/><path class="cls-40" d="M229.44,289.59c4.71,3.68,5.08,9.79,8.85,13.86,0.14-7.11-3.38-12.4-8.77-16.44-3.34-2.51-7-3.68-9.7.81a0.37,0.37,0,0,1,.17.24C223.45,286,226.22,287.09,229.44,289.59Z"/><path class="cls-40" d="M220,288.07a0.37,0.37,0,0,0-.17-0.24c-0.1.17-.21,0.33-0.31,0.52C219.67,288.23,219.82,288.16,220,288.07Z"/><path class="cls-39" d="M184.4,268.91a5.76,5.76,0,0,0-6.06,1.43c-3,2.81-1,5.61-.11,8.58,1.17,3.72,5.26,6,5.44,10.17l0.08,0A11.16,11.16,0,0,1,187.3,292c0.46-5.2,1.38-10.36,1.44-15.59C188.78,273.19,187.94,270.15,184.4,268.91Z"/><path class="cls-39" d="M183.75,289.11l-0.08,0a6.73,6.73,0,0,1-.06,1.27l3.5,3.76c0-.7.12-1.39,0.19-2.09A11.16,11.16,0,0,0,183.75,289.11Z"/><path class="cls-39" d="M188.36,267.67c-3.55-3-7.49-3-11.11-.17-3.28,2.56-5.61,4.82-2.41,10a104,104,0,0,0,7.52,11.38c0.43,0.08.86,0.13,1.3,0.24-0.17-4.14-4.27-6.45-5.44-10.17-0.93-3-2.9-5.77.11-8.58a5.76,5.76,0,0,1,6.06-1.43c3.54,1.23,4.38,4.28,4.34,7.54-0.06,5.23-1,10.39-1.44,15.59a11.28,11.28,0,0,1,.71,1C192,287.16,192.52,271.14,188.36,267.67Z"/><path class="cls-39" d="M182.36,288.85c0.41,0.5.8,1,1.25,1.51a6.73,6.73,0,0,0,.06-1.27C183.23,289,182.8,288.93,182.36,288.85Z"/><path class="cls-39" d="M188,293a11.28,11.28,0,0,0-.71-1c-0.06.7-.14,1.39-0.19,2.09h0A6.9,6.9,0,0,0,188,293Z"/><path class="cls-22" d="M181.55,388c-1.88.91-3.67,2-5.53,3a4.21,4.21,0,0,1,1,.14l5.48-3.16-0.42-.22C181.88,387.81,181.72,387.88,181.55,388Z"/><path class="cls-22" d="M181.55,388c0.17-.11.33-0.18,0.5-0.28-0.69-.35-1.39-0.69-2.06-1.11-2.87,1.43-6.14,2.3-7.68,5.57A6.4,6.4,0,0,1,176,391C177.89,390,179.67,388.9,181.55,388Z"/><path class="cls-22" d="M173.57,392.07l-1.18.11a18.89,18.89,0,0,1,2.48.14L177,391.1a4.21,4.21,0,0,0-1-.14A25.15,25.15,0,0,1,173.57,392.07Z"/><path class="cls-22" d="M173.57,392.07A25.15,25.15,0,0,0,176,391a6.4,6.4,0,0,0-3.72,1.22h0.08Z"/><path class="cls-41" d="M173.76,322.94c-5.44-.18-4.8,4.5-6.33,7.4,4.1,1.22,8.29-.59,12.39.17C178.59,327.42,179.09,323.12,173.76,322.94Z"/><path class="cls-41" d="M167.43,330.34a4.13,4.13,0,0,1-1.12,1.4c4.75,4.28,9.3-.13,13.94-0.33h0a6.24,6.24,0,0,1-.43-0.89C175.72,329.75,171.53,331.55,167.43,330.34Z"/><path class="cls-41" d="M167.43,330.34c1.53-2.9.89-7.58,6.33-7.4s4.83,4.48,6.06,7.57l0.27,0c0.11,0.05.2,0.12,0.31,0.18,2-8.76-.45-11.88-8.82-11-7.58.79-5.68,5.89-5.31,10.27l0.55,0.18C167,330.25,167.23,330.28,167.43,330.34Z"/><path class="cls-41" d="M180.1,330.54l-0.27,0a6.24,6.24,0,0,0,.43.89c0.06-.23.1-0.45,0.15-0.67C180.3,330.67,180.2,330.59,180.1,330.54Z"/><path class="cls-41" d="M167.43,330.34c-0.2-.06-0.41-0.09-0.61-0.17l-0.55-.18a12.05,12.05,0,0,1,0,1.75A4.13,4.13,0,0,0,167.43,330.34Z"/><path class="cls-42" d="M246.95,321.19c0.36,3-1.09,6.82,3.7,7.84,5.34,1.14,5.85-3.63,8-6.37C254.61,323.1,250.55,323.71,246.95,321.19Z"/><path class="cls-42" d="M250.64,329c-4.79-1-3.34-4.83-3.7-7.84-0.28-.19-0.55-0.4-0.82-0.63-1.5,3.84-6.53,8.38.61,11.12,7.85,3,12.31-.5,13-9.14l-1.13.12C256.49,325.4,256,330.16,250.64,329Z"/><path class="cls-42" d="M246.95,321.19c3.61,2.52,7.67,1.91,11.7,1.46a6,6,0,0,1,.54-0.6c-3.77-2.93-8.13-1.75-12.36-1.52l0,0.06A6,6,0,0,1,246.95,321.19Z"/><path class="cls-42" d="M246.85,320.59l0-.06-0.71,0c0.27,0.23.55,0.44,0.82,0.63A6,6,0,0,0,246.85,320.59Z"/><path class="cls-42" d="M259.19,322a6,6,0,0,0-.54.6l1.13-.12h0C259.58,322.35,259.38,322.2,259.19,322Z"/><path class="cls-32" d="M184.18,386.94l1-.59a10.62,10.62,0,0,0-1.56.54Z"/><path class="cls-32" d="M180,386.6h0c1.23,0.07,2.44.17,3.66,0.28a10.62,10.62,0,0,1,1.56-.54l4.89-2.82C186.46,382.11,183.28,383.45,180,386.6Z"/><path class="cls-32" d="M182,387.71l0.42,0.22,1.72-1-0.54-.06A13.08,13.08,0,0,0,182,387.71Z"/><path class="cls-32" d="M183.64,386.89c-1.21-.12-2.43-0.21-3.66-0.28,0.67,0.41,1.37.76,2.06,1.11A13.08,13.08,0,0,1,183.64,386.89Z"/><path class="cls-43" d="M342.27,189.79v-2.86l-5.4,1A17.91,17.91,0,0,0,342.27,189.79Z"/><path class="cls-43" d="M336.87,187.92l5.4-1v-2.76a39.9,39.9,0,0,0-7.53,2.15A9,9,0,0,0,336.87,187.92Z"/><path class="cls-44" d="M328.73,148.82c5.12-8.72,5.48-13-.64-16.92-6.86-4.37-13.12-2.42-17.9,5.17-1.59,2.52-1.75,7.52-6.59,5.94-0.11.35-.2,0.68-0.31,1-6.17,6.95-14.63,6.55-21.57,3.78-8.06-3.23-14.33-1.74-21,2.08l-0.11,0c3.74,4,3.23,7.3-2.91,9.53l0.38,0.44c0.74,6-3.64,5.31-7.28,5.66-9.11.86-10.17,2-9.38,11a47.12,47.12,0,0,1,14.44-1.76c4.26,0,5.3,2.36,5.29,5.92h0l0.27,0.13c16-5.05,31.13-12.17,46.22-19.51C315.05,157.74,323.8,157.22,328.73,148.82Z"/><path class="cls-44" d="M281.67,145.58c-9.54-6-15.49-1.42-22.47,3,0.52,0.47,1,.93,1.39,1.38l0.11,0c6.68-3.81,13-5.3,21-2.08,6.93,2.77,15.39,3.17,21.57-3.78,0.12-.35.21-0.68,0.31-1a9.52,9.52,0,0,1-.92-0.35C296.31,148.41,287.3,149.14,281.67,145.58Z"/><path class="cls-44" d="M257.15,159.65c-0.86,6-5.17,3.84-8.49,3.37-5.17-.73-7.85,2.76-10.6,5.95-3,3.5,1.64,5.24,2.22,8,0.37-.13.75-0.24,1.12-0.35-0.79-9,.27-10.15,9.38-11,3.64-.34,8,0.31,7.28-5.66l-0.38-.44-0.53.19h0Z"/><path class="cls-44" d="M310.18,137.07c4.78-7.59,11-9.55,17.9-5.17,6.12,3.9,5.76,8.2.64,16.92-4.93,8.4-13.68,8.92-21.11,12.53-15.08,7.34-30.21,14.46-46.22,19.51,2.5,1.22,5.36,2.71,7.76,1.14,11.09-7.28,24-10.31,35.74-16.07a9,9,0,0,0,.72-0.59c1.81-1.15,3.62-3.27,5.44-3.28,11.88,0,17.06-8.26,22.84-16.78,5.23-7.71.3-11.74-4.29-15.72S315,127,311.48,130.4s-2.82,9.6-7.64,11.83l-0.24.78C308.43,144.6,308.6,139.59,310.18,137.07Z"/><path class="cls-44" d="M303.6,143l0.24-.78a7.7,7.7,0,0,1-1.16.43A9.52,9.52,0,0,0,303.6,143Z"/><path class="cls-45" d="M241.4,177.34c-1.11,5-5.24,6.47-9.34,8-5.46,2.06-10.34,5.44-16.06,7.38,9.31-3.59,15.5,2.82,22.25,7,3.47,2.12,7.21,3.64,7.86-1.32,1.2-9.22,8-10.59,14.63-12.67-1.16-1.26-1.09-2.8-.47-4.47l0.87-.29v-0.22C255.34,175.3,247.81,179.38,241.4,177.34Z"/><path class="cls-45" d="M232.38,182.75c-8,3.05-15.7,7.15-23.51,10.83q0,1.26,0,2.52c13.34-4.13,23.82-.38,32.29,9.63,1.59,1.88,4.05,0,4.53-1.52,2.69-8.3,7.62-14.43,15.72-17.88h0a4.61,4.61,0,0,1-.71-0.63c-6.65,2.09-13.43,3.45-14.63,12.67-0.64,5-4.39,3.44-7.86,1.32-6.75-4.14-12.94-10.55-22.25-7,5.72-1.94,10.6-5.32,16.06-7.38,4.1-1.54,8.23-3,9.34-8a10.46,10.46,0,0,1-1.13-.42C238.54,180.11,235.83,181.45,232.38,182.75Z"/><path class="cls-45" d="M260.74,185.71l0.37-.11h0.3q-0.13-2.31-.27-4.63l-0.87.29C259.65,182.9,259.58,184.45,260.74,185.71Z"/><path class="cls-45" d="M260.74,185.71a4.56,4.56,0,0,0,.71.63l0-.76h-0.3Z"/><path class="cls-45" d="M241.4,177.34c6.41,2,13.94-2,19.73,3.39h0c0-3.55-1-5.89-5.29-5.92a47.12,47.12,0,0,0-14.44,1.76c0,0.21,0,.41.05,0.63C241.44,177.25,241.41,177.29,241.4,177.34Z"/><path class="cls-45" d="M241.4,177.34c0-.05,0-0.1,0-0.15,0-.22,0-0.41-0.05-0.63-0.37.12-.75,0.22-1.12,0.35A10.46,10.46,0,0,0,241.4,177.34Z"/><path class="cls-35" d="M242.23,292.6c3.65,1.52,5,5.29,7.41,7.95,2.25,2.43,4.67,4.5,8.16,2.73a7.54,7.54,0,0,0,4.25-7.76c-0.19-2.81-1.19-5.68-.4-8.4C254.49,286.19,248.62,290.43,242.23,292.6Z"/><path class="cls-35" d="M261.65,287.12a6.81,6.81,0,0,1,1.29-2.47c-7.93.08-15.72,0.52-20.94,7.83h0l0.23,0.11C248.62,290.43,254.49,286.19,261.65,287.12Z"/><path class="cls-35" d="M261.65,287.12c-0.78,2.72.21,5.59,0.4,8.4a7.54,7.54,0,0,1-4.25,7.76c-3.49,1.76-5.91-.3-8.16-2.73-2.46-2.66-3.75-6.42-7.41-7.95l-0.14.05c1.81,3.17,3.33,6.56,5.53,9.43,2.69,3.5,6,7.13,11,4.27,4.63-2.65,7.34-6.69,5.9-12.53-0.51-2.1-.84-4.24-1.17-6.38h0A15.88,15.88,0,0,0,261.65,287.12Z"/><path class="cls-35" d="M242,292.49l0.09,0.16,0.14-.05Z"/><path class="cls-35" d="M261.65,287.12a15.88,15.88,0,0,1,1.7.31h0c-0.14-.93-0.29-1.86-0.45-2.79A6.81,6.81,0,0,0,261.65,287.12Z"/><path class="cls-45" d="M276.62,191.26c1.49,0.06,3,.07,4.49.09a108.82,108.82,0,0,1-13-2.63C270.23,191.57,273.55,191.12,276.62,191.26Z"/><path class="cls-45" d="M297.48,196a10.77,10.77,0,0,1,2.4-4.88,54.38,54.38,0,0,1-10.32.84c0.3,0.06.61,0.11,0.91,0.18C293.58,192.88,296,194.08,297.48,196Z"/><path class="cls-45" d="M271.24,193.8c5.31,0.12,10.66-.28,15.93.21s11,1.45,9.74,9.23h0c0.12-.59.26-1.17,0.4-1.75a16.41,16.41,0,0,1,.16-5.47c-1.45-1.94-3.9-3.14-7-3.86-0.3-.07-0.61-0.12-0.91-0.18a69.4,69.4,0,0,1-8.46-.64c-1.5,0-3,0-4.49-.09-3.06-.13-6.38.31-8.48-2.54l-1.45-.38C264.65,193.11,267.77,193.72,271.24,193.8Z"/><path class="cls-45" d="M281.1,191.34a47.15,47.15,0,0,1,8.46.64,54.38,54.38,0,0,0,10.32-.84,13.16,13.16,0,0,1,4.38-3.21c-12,3.27-24.36-1-36.46.29,0.11,0.18.23,0.34,0.34,0.5A108.82,108.82,0,0,0,281.1,191.34Z"/><path class="cls-45" d="M281.1,191.34a69.4,69.4,0,0,0,8.46.64A47.15,47.15,0,0,0,281.1,191.34Z"/><path class="cls-45" d="M266.69,188.33l1.45,0.38c-0.12-.16-0.23-0.31-0.34-0.5-0.37,0-.74.07-1.1,0.12h0Z"/><path class="cls-45" d="M297.48,196a6.94,6.94,0,0,1,.95,1.72,20.59,20.59,0,0,1,4.16-7.18c-0.9.22-1.8,0.41-2.71,0.57A10.77,10.77,0,0,0,297.48,196Z"/><path class="cls-45" d="M297.32,201.49a37.79,37.79,0,0,1,1.11-3.75,6.94,6.94,0,0,0-.95-1.72A16.41,16.41,0,0,0,297.32,201.49Z"/><polygon class="cls-45" points="296.92 203.24 296.92 203.24 296.92 203.24 296.92 203.24"/><path class="cls-45" d="M299.88,191.14c0.9-.16,1.8-0.36,2.71-0.57a16.87,16.87,0,0,1,5.9-4.1,29.85,29.85,0,0,1-4.22,1.46A13.16,13.16,0,0,0,299.88,191.14Z"/><path class="cls-46" d="M257.46,159.2c2-2.72,2-5.8,1.85-8.92C253.91,152,254.11,155.17,257.46,159.2Z"/><path class="cls-46" d="M257.46,159.2c-3.35-4-3.55-7.22,1.85-8.92,0-.58-0.07-1.15-0.11-1.73-3.62,0-7,.48-7.42,5.11-0.38,3.93,1.66,5.72,5.38,6h0C257.27,159.5,257.35,159.35,257.46,159.2Z"/><path class="cls-46" d="M257.46,159.2l0.22,0.26c6.14-2.22,6.65-5.48,2.91-9.53-0.46.11-.89,0.23-1.29,0.35C259.49,153.4,259.42,156.48,257.46,159.2Z"/><path class="cls-46" d="M259.31,150.28c0.4-.13.83-0.24,1.29-0.35-0.42-.45-0.87-0.91-1.39-1.38C259.24,149.13,259.27,149.71,259.31,150.28Z"/><path class="cls-46" d="M257.15,159.65h0l0.53-.19-0.22-.26C257.35,159.35,257.27,159.5,257.15,159.65Z"/><path class="cls-45" d="M285.41,178.87c-2,0-4,.54-4.18,2.75-0.14,1.79.58,4,3,3.92,2.16-.1,4.2-1.07,4.86-3.36C289.19,179.37,287.42,178.9,285.41,178.87Z"/><path class="cls-28" d="M287,233.56c6.41,7.11,8.93,15.67,10.9,24.89,0.58,2.69,6.83,1.43,9.78-1.51,4.33-4.32,4.87-13,.73-17.64-3.52-4-4.77-8-2.45-12.82,1.83-3.78,1.65-7.91,2.49-11.86,0.09-.34.21-0.66,0.31-1-3.31,3.51-8.76,4.15-11.46,8.59-1.15,1.89-3.18,3.53-5.52,2.08a4.55,4.55,0,0,1-1.24-1.12C290.67,227,291,230.86,287,233.56Z"/><path class="cls-28" d="M291.34,216.88l0.15-.14c0-.05,0-0.1,0-0.15S291.38,216.79,291.34,216.88Z"/><path class="cls-28" d="M290.52,223.18a4.55,4.55,0,0,0,1.24,1.12c2.34,1.45,4.37-.19,5.52-2.08,2.71-4.44,8.15-5.08,11.46-8.59l0.12-.37-0.69-.73h0c-6.25,1.74-11.9,4.34-14.35,11.09-3-1.75-2.22-4-2.24-6l-0.55,0A15,15,0,0,0,290.52,223.18Z"/><path class="cls-28" d="M291.34,216.88a7.49,7.49,0,0,0-.32.74l0.55,0a5.18,5.18,0,0,0-.07-0.85Z"/><path class="cls-28" d="M308.74,213.63c-0.1.33-.22,0.64-0.31,1-0.84,3.95-.66,8.08-2.49,11.86-2.33,4.8-1.08,8.85,2.45,12.82,4.13,4.66,3.6,13.32-.73,17.64-2.95,2.94-9.2,4.2-9.78,1.51-2-9.22-4.49-17.78-10.9-24.89,4.05-2.7,3.7-6.57,3.54-10.38-1.17-1.53-.94-3.53-0.05-5.52l0,0h-0.1c-2.58,3.47,1.44,9.39-3,11.43-8.74,4.06-4.11,6.76.11,10.35,4.47,3.81,8.7,7.6,5,14.78-2.39,4.65,2.18,7.14,5.63,7.88,4.92,1.06,11.73.66,12.66-4.8,1-5.94,9.89-12.68.06-18.86-3.86-2.42-6.26-6.15-3.25-10.26,3.18-4.35,2.35-8.91,2.54-13.52l-1.2-1.25C308.9,213.48,308.82,213.55,308.74,213.63Z"/><path class="cls-28" d="M291.34,216.88c0-.1.08-0.2,0.13-0.29h0a4.43,4.43,0,0,0-1.08,1.05h0.1Z"/><path class="cls-28" d="M308.85,213.26l-0.12.37c0.08-.08.17-0.15,0.24-0.24Z"/><path class="cls-28" d="M290.46,217.66c-0.89,2-1.12,4,.05,5.52a15,15,0,0,1,.5-5.56l-0.53,0Z"/><path class="cls-28" d="M291,217.62a7.49,7.49,0,0,1,.32-0.74l-0.85.76Z"/><path class="cls-47" d="M326.73,188.43c-7.55-4.64-10.26.72-11.8,6.34-1.49,5.41-3.45,10.65-5.08,16,1.91-3.94,4.87-7.05,7.91-10.66,5.53-6.56,11.95-8.41,18.48-9a4,4,0,0,1-1.36-2.46C332.22,189.66,329.51,190.14,326.73,188.43Z"/><path class="cls-47" d="M309.85,210.77c1.63-5.35,3.59-10.59,5.08-16,1.54-5.62,4.25-11,11.8-6.34,2.78,1.71,5.49,1.23,8.15.21a9.82,9.82,0,0,1-.14-2.33h0c-2.74,1.16-5.3,3.43-8-.6-3.27-4.94-7-3-9.87.51-6.17,7.62-7.39,17-8.75,26.32a1.57,1.57,0,0,1,.79.44A20.84,20.84,0,0,1,309.85,210.77Z"/><path class="cls-47" d="M336.24,191.1c-6.53.61-12.94,2.45-18.48,9-3,3.61-6,6.72-7.91,10.66-0.24.8-.5,1.6-0.72,2.41a14.62,14.62,0,0,0,1.05,1.47c-1-12.33,15.3-10.28,17-20.39a7.36,7.36,0,0,1,1.79-.14c4.4-.36,8.86-0.8,13.27-1.14v-1.14C340.16,192,337.76,192.3,336.24,191.1Z"/><path class="cls-47" d="M309.13,213.18c0.22-.81.48-1.61,0.72-2.41a20.84,20.84,0,0,0-.91,2.2A2.19,2.19,0,0,1,309.13,213.18Z"/><path class="cls-47" d="M336.47,188q-0.79.35-1.58,0.65a4,4,0,0,0,1.36,2.46c2-.19,4-0.26,6-0.31v-1a17.91,17.91,0,0,1-5.4-1.88Z"/><path class="cls-47" d="M334.89,188.64q0.79-.3,1.58-0.65l0.4-.07a9,9,0,0,1-2.12-1.61h0A9.82,9.82,0,0,0,334.89,188.64Z"/><path class="cls-47" d="M342.27,191.84v-1.05c-2,.05-4,0.13-6,0.31C337.76,192.3,340.16,192,342.27,191.84Z"/><path class="cls-47" d="M308.85,213.26c0-.1.06-0.2,0.09-0.29a1.57,1.57,0,0,0-.79-0.44h0Z"/><path class="cls-47" d="M309,213.39l1.2,1.25a14.62,14.62,0,0,1-1.05-1.47l0,0.1Z"/><path class="cls-47" d="M308.85,213.26l0.13,0.13,0.12-.12,0-.1a2.19,2.19,0,0,0-.18-0.21C308.91,213.06,308.89,213.16,308.85,213.26Z"/><path class="cls-48" d="M342.27,267.39v-1.1c-1.2.34-2.41,0.67-3.63,1C339.81,267.35,341,267.37,342.27,267.39Z"/><path class="cls-49" d="M323.65,228.84c2.14,9.17,5,18.53,1.44,28.39-2.63,7.24-1.09,8.48,7,8.06,2.75-.14,5.49-0.36,8.26-0.32a10.61,10.61,0,0,1,1.9-1.53V206.53a67.65,67.65,0,0,0-15.12,11.06C323.74,221,322.4,223.49,323.65,228.84Z"/><path class="cls-49" d="M320.18,220.72c-2.08,2.19-1.44,3.8-.43,6.54,3.41,9.18,7,18.48,3,28.66-3.74,9.6-1.28,12.75,8.34,11.68,2.49-.28,5-0.24,7.53-0.35h0a11.6,11.6,0,0,1,1.74-2.27c-2.77,0-5.51.18-8.26,0.32-8.11.42-9.65-.82-7-8.06,3.58-9.86.7-19.23-1.44-28.39-1.25-5.35.09-7.89,3.51-11.25a67.65,67.65,0,0,1,15.12-11.06v-4C334.25,207,326.75,213.81,320.18,220.72Z"/><path class="cls-49" d="M340.58,265c0.58,0,1.13.13,1.69,0.21v-1.74a10.61,10.61,0,0,0-1.9,1.53h0.21Z"/><path class="cls-49" d="M340.37,265a11.6,11.6,0,0,0-1.74,2.27h0c1.22-.28,2.43-0.61,3.63-1v-1.11c-0.56-.08-1.11-0.17-1.69-0.21h-0.21Z"/><path class="cls-50" d="M338,298.15l1.39-.8c-0.52.16-1,.34-1.55,0.52Z"/><path class="cls-50" d="M336.83,296h0l1,1.81c0.51-.18,1-0.36,1.55-0.52l2.9-1.67V294a10.62,10.62,0,0,0-5.44,2.08h0Z"/><path class="cls-50" d="M337.25,298.05l-0.32.13c0,0.18,0,.36.06,0.54l1-.57-0.15-.29Z"/><path class="cls-50" d="M337.25,298.05l0.58-.19-1-1.81h0a16.35,16.35,0,0,0,.1,2.14Z"/><path class="cls-51" d="M327.78,273.6c-2.85,2.37-5.75,2.25-8.78,1.11s-5.75-3-8.4.39a11.85,11.85,0,0,0-2,11.56c3.1,9,15.41,12.86,23.14,6.89,3.25-2.51,6.37-3.87,10.27-3.46h0.27V271.19C337.33,270.46,332.2,269.91,327.78,273.6Z"/></svg>