<svg id="Färgen" xmlns="http://www.w3.org/2000/svg" viewBox="0 0 342.27 394.23"><defs><style>.cls-1{fill:none;}.cls-2{fill:#003367;}.cls-3{fill:#001b40;}.cls-4{fill:#001746;}.cls-5{fill:#003495;}.cls-6{fill:#00348e;}.cls-7{fill:#00376b;}.cls-8{fill:#002452;}.cls-9{fill:#00212c;}.cls-10{fill:#001a4d;}.cls-11{fill:#002a63;}.cls-12{fill:#000129;}.cls-13{fill:#003571;}.cls-14{fill:#0047a5;}.cls-15{fill:#00398d;}.cls-16{fill:#03519c;}.cls-17{fill:#278fcd;}.cls-18{fill:#2191d4;}.cls-19{fill:#011c3c;}.cls-20{fill:#003492;}.cls-21{fill:#fefdfd;}.cls-22{fill:#003557;}.cls-23{fill:#001947;}.cls-24{fill:#00012d;}.cls-25{fill:#0a86b4;}.cls-26{fill:#6e7cad;}.cls-27{fill:#fdfbfb;}.cls-28{fill:#f3b439;}.cls-29{fill:#2e261b;}.cls-30{fill:#000122;}.cls-31{fill:#012f62;}.cls-32{fill:#0e4e88;}.cls-33{fill:#10609c;}.cls-34{fill:#e4e3f3;}.cls-35{fill:#fefcfd;}.cls-36{fill:#fbce33;}.cls-37{fill:#625c4a;}.cls-38{fill:#c89182;}.cls-39{fill:#f6bf2f;}.cls-40{fill:#f46914;}</style></defs><title>hexagon</title><path class="cls-1" d="M80.51,117.51h0c0-.1,0-0.18,0-0.28l-0.35.08,0.34,0.2h0Z"/><path class="cls-1" d="M103.2,314l-0.36,0c0,0.27,0,.54,0,0.8A4,4,0,0,0,103.2,314Z"/><path class="cls-1" d="M62.66,195l0,0.06a6.8,6.8,0,0,0,.87-0.2Z"/><path class="cls-1" d="M108.76,323.49l0.06-.09h-0.23Z"/><path class="cls-1" d="M66.66,193l-0.08.17H67Z"/><path class="cls-1" d="M333.46,188.52a2,2,0,0,0-.45,1.62A15.91,15.91,0,0,1,333.46,188.52Z"/><path class="cls-2" d="M324.55,93.67C323.18,91,322.66,89,324.06,88l-4.93-2.84c-6.48.33-13,1.2-19.43,2.12h0c-0.07,2.22,0,4.38,1.55,6.24,2.93,3.5,1.59,5.6-2.3,6.9-1.78.6-3.8,1-5.16,2.18-2.65,2.24-8.17,2.93-6.7,7.76,1.25,4.08,4,7.75,9.65,7.22,4.39-.42,6.74,1.55,4.82,6.24-2.08,5.06-1.49,7.61,4.75,9.23,5.45,1.42,9.86,6.07,16.3,5.83,2.32-.09,4.49,2.42,4.92,5.1,0.63,3.92-2.82,3.15-5,4-4,1.7-5.5,4-1.47,7.59a74.88,74.88,0,0,1,16.93,22c1.47,2.87,3.4,5.24,0,8.23-1.16,1-3.56,1.41-4.58,2.62a15.91,15.91,0,0,0-.45,1.62,4.34,4.34,0,0,0,.49,1.42,10,10,0,0,0,8.33,5.37l0.45,0.05V170c-0.19-.19-0.4-0.37-0.59-0.57-2.71-2.78-4.75-6.45-4.3-10.61,0.08-.75,2.57-1.24,4.3-2,0.19,0.14.39,0.26,0.58,0.4V135.59c-6.89-8.09-11.11-18.05-10.94-31.13C331.39,99.68,326.53,97.48,324.55,93.67Z"/><path class="cls-3" d="M227.31,42.86c-6.63-2-12.48-.88-15,7A6.2,6.2,0,0,1,210,52.63c-2.5,1.78-6.69,3.56-3.66,6.92,2.79,3.1,6.7,1.13,10.11-1.2,3.07-2.11,5.25-9.72,9.86-4.61,3.5,3.87-3.35,6.22-5.42,9.34-1.5,2.25-5,3.68-3.82,7s4.74,4.31,7.84,3.85c6.77-1,9.53,3,11.79,8.2,1.6,3.72,3.13,7.8,8.51,7.17a2.47,2.47,0,0,1,.88.18c-1.6,8.56,9.77,11.94,8.17,20.48,8.52-.35,11.46-6.49,10.74-13.17s-2.92-12.56,4.51-17.15c7.67-4.74,11.36,2.05,16.39,4.82,1.78,1,2.92,3.14,4.35,4.77h0l8.59-1.7a6.08,6.08,0,0,1,2-1.94,65.06,65.06,0,0,1,13.79-3L282.05,63.79l-1.28.88c-0.28.89-.35,2.39-0.86,2.56-10.13,3.42-20.3,6.77-30.52,9.9-2.07.64-4.48-1.55-3.72-2.9,2.45-4.34-2.21-11.51,5.12-13.59,5-1.43,9.09-3.78,11.79-8.11l-5.68-3.28A10.75,10.75,0,0,1,254,50.43c-3.12.66-6.29,4.29-9.48,1-2.89-3,1.43-4.85,1.87-7.38,0-.26.09-0.52,0.14-0.79l-7.25-4.18-0.14.12C235.65,42,232.42,44.37,227.31,42.86Z"/><path class="cls-3" d="M298.84,87.49l0.87-.17h0c6.48-.92,13-1.79,19.43-2.12l-4.54-2.62a65.06,65.06,0,0,0-13.79,3A6.08,6.08,0,0,0,298.84,87.49Z"/><path class="cls-4" d="M333,190.15a2,2,0,0,1,.45-1.62,36.06,36.06,0,0,1,1.77-4.29c1.29-2.69.52-4.72-.56-7.07-3.2-7-8.16-12.57-13.5-17.92-4-4-6-8.23-.46-12.66,3.69-2.93,2.2-4.88-1.46-5.5-4.79-.81-8.69-3.43-13-5.27-5.05-2.16-8.91-4.52-7.59-11,0.78-3.85-2.37-4.55-5.16-5.34a11,11,0,0,1-8.3-9.25c-0.81-5,3.28-7.28,6.83-9.06,4.69-2.35,7.77-5,6.28-10.84a3.35,3.35,0,0,1,0-1.68,7.89,7.89,0,0,1-7.91,1.81l-0.31-.15C289,101,274.95,117.08,262.76,121.44c-3,1.06-7.79,1-6.89,5.86,0.87,4.66,5.37,3.2,8.64,3.46a10,10,0,0,1,1.88,0c2.84,0.81,8.57-2,7.73,3.37-0.71,4.55-5.16.27-7.93,0.42-5.44.29-11-.87-17.6,1.07,3.38,3.62,6.67,2.19,9.43,2.7,4.84,0.9,8.85,2.31,9.74,8.37s4.74,9.51,11.48,10.31c5.82,0.69,10.58,6.44,10.39,10.87-0.57,13.35,8.34,20.51,15.7,28.95,11.08,8,24.16,8.73,36.93,10.6v-8.32C334.74,197,332,195,333,190.15Z"/><path class="cls-4" d="M298.33,90.3c1.49,5.86-1.59,8.49-6.28,10.84-3.56,1.78-7.64,4-6.83,9.06a11,11,0,0,0,8.3,9.25c2.78,0.79,5.94,1.49,5.16,5.34-1.31,6.5,2.54,8.86,7.59,11,4.3,1.84,8.19,4.46,13,5.27,3.66,0.62,5.15,2.57,1.46,5.5-5.58,4.43-3.55,8.65.46,12.66,5.34,5.35,10.3,11,13.5,17.92,1.08,2.35,1.85,4.38.56,7.07a36.06,36.06,0,0,0-1.77,4.29c1-1.21,3.42-1.6,4.58-2.62,3.4-3,1.46-5.36,0-8.23a74.88,74.88,0,0,0-16.93-22c-4-3.59-2.56-5.89,1.47-7.59,2.14-.9,5.59-0.13,5-4-0.43-2.68-2.6-5.19-4.92-5.1-6.44.24-10.85-4.41-16.3-5.83-6.24-1.62-6.83-4.17-4.75-9.23,1.92-4.68-.42-6.66-4.82-6.24-5.61.53-8.41-3.14-9.65-7.22-1.47-4.83,4-5.51,6.7-7.76,1.36-1.15,3.38-1.58,5.16-2.18,3.88-1.31,5.22-3.41,2.3-6.9-1.55-1.85-1.62-4-1.55-6.24a14.86,14.86,0,0,1-1.35,1.3A3.35,3.35,0,0,0,298.33,90.3Z"/><path class="cls-4" d="M333.5,191.56a4.34,4.34,0,0,1-.49-1.42c-1,4.9,1.72,6.87,9.26,9V197l-0.45-.05A10,10,0,0,1,333.5,191.56Z"/><path class="cls-4" d="M290.25,89.18h0c0,0.35-.08.72-0.11,1.09l0.31,0.15a7.89,7.89,0,0,0,7.91-1.81,4.13,4.13,0,0,1,.48-1.13Z"/><path class="cls-4" d="M298.84,87.49a4.13,4.13,0,0,0-.48,1.13,14.86,14.86,0,0,0,1.35-1.3h0Z"/><path class="cls-5" d="M328.44,90.57c-1.89.86-.8,2.62,2.21,7.29a15.18,15.18,0,0,1,2.77,7.82,45.69,45.69,0,0,0,8.85,25.8V98.56Z"/><path class="cls-5" d="M330.65,97.86c-3-4.67-4.1-6.43-2.21-7.29L324.06,88c-1.4,1-.88,3,0.49,5.63,2,3.81,6.84,6,6.78,10.8-0.17,13.07,4,23,10.94,31.13v-4.12a45.69,45.69,0,0,1-8.85-25.8A15.18,15.18,0,0,0,330.65,97.86Z"/><path class="cls-6" d="M337.39,158.79c-0.45,4.16,1.59,7.83,4.3,10.61,0.19,0.2.39,0.38,0.59,0.57V157.18c-0.19-.14-0.39-0.26-0.58-0.4C340,157.55,337.47,158,337.39,158.79Z"/><path class="cls-7" d="M51.83,306.26c-3.2-1.82-10.08-2.52-9.08-5.29,2.38-6.57,0-13.78,3.73-19.81,0.65-1.06,1.75-1.83,2.47-2.85,9.7-13.78,10.55-14.08,25.33-6.85,3.05,1.49,6.67,5.07,9,1.28s-1.14-8.14-4.6-10.14c-4.14-2.39-8.85-5.36-14-1.65-4.89,3.52-9.15,2.47-9.33-3.48C55,245.62,47.59,240.74,37.86,238c0.65-4.45,4.35-4.24,6.46-5.47,6.58-3.86,14.36-5.46,10.23-16.85-2.63-7.24-2.77-14.26-10.41-19.66-8.16-5.76-17.24-12.87-15-25.57h0c-1.87-11.15-4.26-22.37,4.1-32.21-4.48-3.12-7.36.57-9.25,3.18-3.12,4.33-7,5.48-11.39,4-5-1.65-7.23-6.11-7.48-11C4.64,125,6.85,115.61,13.1,109c7-7.35,12.34-14.47,11.61-24.22L0.86,98.56V295.67L56,327.5C59.66,320.77,58.15,309.86,51.83,306.26ZM27.68,234.74h0c-1.63,3-2.62,6.32-7.4,5.73-4.38-.54-6.78-3.33-6.37-6.76,0.91-7.57-9.35-10.31-7.08-18.06,9.62-4.31,9.63-4.32.08-11.23-1.48-1.07-3.62-1.84-2.66-4.21,0.71-1.75,2.62-1.34,4.12-1.43,10.66-.64,20.38,5.13,31.11,4.53,2.29-.13,4.17,2.53,4.93,5.14C46.74,216.35,36.05,233.14,27.68,234.74Z"/><path class="cls-8" d="M255.22,61.38c-3.48,1.32-5.85,3.47-6.27,7.42-0.37,3.51.73,6.14,4.53,4.74,8.7-3.2,18.19-4.33,26-9.75l0.61-.6c-0.07-.2-0.13-0.41-0.18-0.61l-15.66-9v0A17.12,17.12,0,0,1,255.22,61.38Z"/><path class="cls-8" d="M250.79,60.65c-7.33,2.08-2.67,9.25-5.12,13.59-0.76,1.35,1.65,3.54,3.72,2.9,10.23-3.14,20.39-6.49,30.52-9.9,0.52-.17.58-1.68,0.86-2.56a8.54,8.54,0,0,1-.64-1.48l-0.61.6c-7.85,5.42-17.34,6.55-26,9.75-3.81,1.4-4.91-1.23-4.53-4.74,0.42-4,2.79-6.1,6.27-7.42a17.12,17.12,0,0,0,9.06-7.83v0l-1.72-1C259.87,56.87,255.83,59.21,250.79,60.65Z"/><path class="cls-9" d="M305.28,198.94l-0.36-.27c-2.35,8.33-9.5,13.36-14.68,19.69-1.64,2-4.67,2.82-6.09,5.53-1.52,2.89-3.83,3.46-7.11,2.15-8.54-3.4-11.38-1.38-11.1,8.09,0.08,2.62,1,4.92-2.09,6.19h0c14,10.3,29.73,5.25,44.77,4.57,6.58-.3,12.4-1.82,15.89,5.45,1.42,3,4.42,3.39,7.05,4,7.86,1.78,10.87,6.55,9.58,14.32l1.14,1.08V253.12c-2.52-1.35-5.76-1.87-8.42-2.94s-6.22-1-5.88-4.61c0.29-3.07,4-2.41,6.13-2.92,2.91-.68,5.68-1.06,8.17-2.74v-31.1A53,53,0,0,1,305.28,198.94Z"/><path class="cls-9" d="M305.34,196.87c-0.11.62-.26,1.21-0.42,1.8l0.36,0.27a53,53,0,0,0,37,9.87v-1.34c-12.77-1.86-25.85-2.57-36.93-10.6h0Z"/><path class="cls-10" d="M234.24,358l8.08-4.67h0A14.44,14.44,0,0,0,234.24,358Z"/><path class="cls-10" d="M287.44,327.33l3.27-1.89C289.2,325.66,287.9,326.2,287.44,327.33Z"/><path class="cls-11" d="M197.55,378.08h0c-0.36-2.5,3.37-5.11-.36-7.58a7.19,7.19,0,0,0-8.78.11c-3.58,2.5-7.31,4.91-10.42,7.93-1.53,1.49-3.65,4-1.55,6.64,1.13,1.44,4,2.45,3.28,4.34l8.41-4.85C188.27,379.51,192.6,378.32,197.55,378.08Z"/><path class="cls-11" d="M112.79,355.57c9-14.88.06-22.11-12.16-27.49,1.79-4.09,6.44-1.49,8.13-4.59l-0.17-.08a2.58,2.58,0,0,1-.7,0c-3.15-.68-7.67,2-9.26-1.86-1.12-2.71,2.74-4.23,4.19-6.69,0-.26,0-0.53,0-0.8-7.24,1.13-11.33-3.73-13-9.21-2.37-7.8,5.06-9.26,10.21-11.35,3.78-1.53,10.4,1.95,11.46-3.42,1-5.13-1-11-5.1-15.47-2.06-2.28-3.48-5.13-5.19-7.72h0l-3.67-.13c-4.64-1.85-9.31-3.62-13.9-5.57-9-3.82-17.74-19.72-15.37-28.11,1.28-4.54,5.71-5.47,9.3-7.21,3.17-1.53,9.19-.12,9.06-4.51-0.09-3.21-4.91-7-8.63-7.49-8.09-1-10.81-7.16-14.68-12.54a8.55,8.55,0,0,1-1.51-6.18,5.46,5.46,0,0,0,.89-0.07l0-.06-0.85.13c-1.56-.19-3.09-0.44-3.93-2-12.71-1.67-21.09-8.83-26.93-19.21,1,8.86,7.23,15,14.08,19.66,11.24,7.62,11.39,18.78,12.58,29.92,0.37,3.43-2.12,5.71-5,7.36s-6.49,2.43-9.15,6C50.55,241,57,245.49,57.39,255c0.21,4.85,4.39,3.83,8.06,3.14,8.77-1.66,16.19,1.73,19.15,8.3,1.2,2.66,2.09,5.45-.24,7.92-2,2.08-4.55,1.82-7.06,1.16a32.64,32.64,0,0,1-4.37-1.76c-14.4-6.05-23.09-1.15-25.75,14.37-1.26,7.36-1.75,13.29,7.09,17.54,7,3.37,7.76,15.46,3.4,22.78l32.64,18.85c0.27-2.16.76-4.21,3.43-4.74,3.24-.64,3.88,2.46,5.42,4.21,1.79,2,1.88,4.07.19,5.74l13.36,7.71c0-.31,0-0.62,0-0.94C112.57,358.06,112.22,356.51,112.79,355.57ZM57.26,297.63c-1.9-.11-2.66-1.32-2.86-3a2.54,2.54,0,1,1,5-.67A3.2,3.2,0,0,1,57.26,297.63Zm20.6,34.77c-4.43,1.09-6.36-2-8.68-6,4.23-.73,7.75-3,10.28,1.44C80.47,329.65,79.81,331.92,77.86,332.4Z"/><path class="cls-11" d="M165.73,387c-4.19-2.9-8-3.83-11.4-2.71l17.24,10,4.72-2.72a18.11,18.11,0,0,1-4.72-1.65A30.29,30.29,0,0,1,165.73,387Z"/><path class="cls-11" d="M163.75,351.06c4.25,4.91,9.83,6.59,15.88,7.11,1.25,0.11,2.87-1.15,3.84-2.21,0.34-.37-0.55-2.84-1.22-3-6.86-1.74-4.2-5-1.73-8.62,1.75-2.53,2.4-5.12-.93-7.24-3.54-2.26-5.86-.86-7.77,2.23-1.47,2.38-2.78,5.83-6.23,4.18-3.81-1.83-.33-4.91-0.26-7.45,0.06-2.2.15-4.4,0.1-6.6s-0.85-3.67-3.21-3.88c-2.16-.19-3.17.87-4.16,2.86-7.56,15.11-15,30.26-20.05,46.43l9.76,5.63c5.61-8.62,10.47-17.5,10.47-28.7C158.24,346.19,161.95,349,163.75,351.06Z"/><path class="cls-11" d="M54.27,305.69c-8.84-4.25-8.35-10.18-7.09-17.54,2.66-15.52,11.35-20.42,25.75-14.37a32.64,32.64,0,0,0,4.37,1.76c2.51,0.65,5.1.92,7.06-1.16,2.32-2.47,1.44-5.26.24-7.92-3-6.57-10.38-10-19.15-8.3-3.67.7-7.85,1.71-8.06-3.14-0.42-9.53-6.84-14-14-18.17,2.66-3.56,6.19-4.33,9.15-6s5.42-3.93,5-7.36c-1.19-11.14-1.35-22.31-12.58-29.92-6.85-4.64-13.06-10.8-14.08-19.66-0.63-1.12-1.24-2.26-1.81-3.45h0C26.9,183.16,36,190.27,44.13,196c7.64,5.39,7.78,12.41,10.41,19.66,4.13,11.39-3.64,13-10.23,16.85-2.11,1.24-5.81,1-6.46,5.47,9.74,2.74,17.13,7.61,17.49,19.46,0.18,5.95,4.44,7,9.33,3.48,5.14-3.71,9.85-.74,14,1.65,3.47,2,7,6.22,4.6,10.14s-5.92.21-9-1.28c-14.78-7.24-15.63-6.93-25.33,6.85-0.72,1-1.82,1.79-2.47,2.85-3.7,6-1.34,13.24-3.73,19.81-1,2.77,5.88,3.47,9.08,5.29,6.32,3.6,7.82,14.52,4.16,21.24l1.68,1C62,321.15,61.28,309.06,54.27,305.69Z"/><path class="cls-12" d="M261.91,132.61c1.6,0,3.22.06,4.91,0.17A25.78,25.78,0,0,0,261.91,132.61Z"/><path class="cls-12" d="M283.46,322.34c-4.36,1.2-6.72,2.54-5.34,7.65a4.43,4.43,0,0,1-.24,2.86l7-4.06c1-3.3,3.28-5.46,7.85-4.53l13.33-7.7c-1.21-1.92-3.54-4.49-7.08-8.36C298.2,318.29,290.66,320.36,283.46,322.34Z"/><path class="cls-12" d="M255.38,328c6.4-3.21,3.88-8,2.92-13-0.86-4.49,2.94-5.14,6.22-4.62,11.36,1.79,18.35-8.36,28.42-10.23,2.55-.47,5-4.25,3.15-6.77-2.79-3.76-4.35.5-6.44,2-3.82,2.78-8.3,3-10.18-1.78-2-5.1-6.73-5.47-9-3.85-6.34,4.43-13.75,6.3-20.2,10.08-3.38,2-5.51,4.86-7.23-1-1.47-5-6.92-4.72-9.94-7.68-1.37-1.34-3.33-2.45-2.34-4.52,0.57-1.19,2.4-2.59,3.58-2.52,5.86,0.35,12.21-2.8,17.08,4.25,3.39,4.9,8.1,5.19,11.26-1.77,2-4.35,4.06-13.31,10.11-1.93,1.31,2.47,5.89,1.52,8.56-.65,4.22-3.43,8.11-7.15,7.06-13.41h0c-1.32-2.82-4.49-4.55-4-8.12-3.55.22-4.61,2.86-6.48,4.34-2.26,1.79-4.47,2.3-6.8.36s-4.39-3.91-2.74-7.19c1.09-2.16,3.58-4.33-.39-5.94a5.7,5.7,0,0,0-6.85,1.66c-0.61.7-1,1.63-1.53,2.38-2.74,3.61-6.91,4.65-9.68,1.6s-1.81-7.05,3.12-8.61c0.7-.22,1.16-1.22,2.39-2.59l-18.16-1.15h0c-3.83.9-7.12,0.86-10-2.75-4.9-6.11-4.4-9.23,3-11.51,8.2-2.54,16.4-4.47,23.1,3.69,1,1.17,3.41,1.11,5.18,1.62l4.86,1.78a52.1,52.1,0,0,1,.76-9.51c1-6.45,3.87-10.31,11.54-8.33,8.74,2.25,12.74-5.22,17.3-10.19,4-4.38,7.63-9.23,11.4-13.91-9.09-7-15.54-15.65-17.17-27.56-0.83-6-4.21-10.4-10.48-11.87-5-1.17-8.69-4-10.23-8.83-2-6.3-6.18-9-12.52-9.45-2.7-.2-6.38-0.74-5.66-4.65,0.62-3.39,4.11-3.54,6.94-3.37,2.13,0.13,4.28.13,6.47,0.16-3.75,0-6.81-1.14-7.52-5.27-0.67-3.87,2.17-5.88,5.14-6.94,9-3.2,15.07-9.76,21.47-16.35,4.06-4.18,6.07-9.31,9-14-3.12-1.57-5.64-4-8.47-6-3.19-2.25-6.36-4.15-10.31-1.83-4.15,2.43-5,6.28-4.06,10.55,1.17,5.55.42,10.54-3.37,14.92-2.39,2.76-5,4.82-8.91,3-0.16-.26-0.34-0.5-0.51-0.76-0.51,0-1,0-1.54,0h0c-7.2.12-13.47-5-20.88-3.73-6.48-.51-10.38,2-11.37,8.83-2.09,14.48,0,26.84,15.52,33,5.63,2.23,5.59,8.71,9,12.75,2.1,2.49-2.25,3.61-3.72,3.54-4.15-.18-10.64,3.49-11.7-3.17-0.82-5.19-4.1-6.42-7.15-8.85-3.29-2.63-6.51-3.76-10.16-.85-4.07,3.24-.27,6,0.36,9.13,2.6,12.83,13.22,17.17,23.15,22.16,8.33,4.18,17.65,23.9,15.44,34.66-5.87-5.26-5.64-13-9.63-18.79-6.78-9.75-14.88-16.63-26.36-19.47-4.87-1.21-9.55-2.22-12.46-7.27-1.6-2.78-5.25-4.15-8.12-1.41s0.9,4.27,2.29,5.61c4.6,4.41,2.83,10.25,3,15.21,0.12,3.09-4.88,7.25-8.34,4.89-10.66-7.29-10.21,1.74-12.13,7.48a23.52,23.52,0,0,0-.6,4.64h0c3.56,17.07,14.78,27.83,30.31,35.33-5.34,1.3-9.49.82-13.32-2.06-1.91-1.43-4.12-3.22-6.72-.92-3.08,2.71-1.3,6.48-1.82,9.67-0.38,2.33,2.29,2.88,4.91,2.44,6-1,6.36,3.41,5,7.05-2.85,7.55,0,11.25,7,13.34,1.74,0.52,3.13,2.13,4.85,2.8a29.44,29.44,0,0,1,12.44,9.31c-3.75,2.49-7.25,5.51-11.3,7.35-4.77,2.17-7.11,10.17-15.53,5.54-1.7-.93-9.32,8-13.51,13-1.51,1.79.37,6.33,2.65,5.92,6.43-1.13,9.89,5.17,16.14,4.92,7.78-.31,10.6,6.9,13.6,12.67,2.27,4.36-3,4.64-4.64,6.89s-3.89,3.33-6.29.69c-1.37-1.5-2.45-4.46-5-1.8s0.65,3.51,1.92,5.05c6.37,7.77,6.61,19.68,1.24,28.6a9.74,9.74,0,0,1-2.56,5,16.43,16.43,0,0,0-3.52,2L229,361.07a10.12,10.12,0,0,1,5.49-6.11c6.2-3.12,12.42-6.15,18.85-7.94l19.83-11.45c-5.59-2.29-10.94-5-17.14-5.34A4.46,4.46,0,0,1,255.38,328Zm-47-110.71c-6.82-.83-10.6-4.8-11.23-11.66-0.57-6.63,3.94-8.3,8.93-8,4.62,0.24,10.58-.86,12.36,5.77C219,205.63,210.39,217.51,208.35,217.26ZM195,311.4c-1.57-3.09-1.79-5.7,1.36-7.46a2.6,2.6,0,0,1,2.17,1.19C199.36,308.21,198.38,310.44,195,311.4Z"/><path class="cls-12" d="M290.25,89.18c-1.43-1.62-2.56-3.79-4.35-4.77-5-2.77-8.72-9.56-16.39-4.82C262.08,84.19,264.28,90,265,96.74s-2.21,12.82-10.74,13.17h-0.19c0.17,0.26.35,0.5,0.51,0.76,3.92,1.84,6.52-.22,8.91-3,3.79-4.38,4.54-9.36,3.37-14.92-0.9-4.27-.09-8.12,4.06-10.55,3.95-2.32,7.12-.41,10.31,1.83,2.83,2,5.36,4.44,8.47,6,0.18-.29.35-0.59,0.54-0.87h0Z"/><path class="cls-12" d="M280.73,104.05c-6.4,6.59-12.52,13.15-21.47,16.35-3,1.06-5.81,3.07-5.14,6.94,0.71,4.12,3.77,5.26,7.52,5.27h0.27a25.78,25.78,0,0,1,4.91.17c-1.69-.12-3.31-0.15-4.91-0.17h-0.27c-2.2,0-4.34,0-6.47-.16-2.83-.17-6.32,0-6.94,3.37-0.71,3.91,3,4.45,5.66,4.65,6.34,0.47,10.5,3.16,12.52,9.45,1.54,4.8,5.25,7.67,10.23,8.83,6.28,1.47,9.66,5.85,10.48,11.87,1.63,11.91,8.08,20.55,17.17,27.56,0.35-.44.7-0.88,1.05-1.31h0c-7.36-8.44-16.28-15.6-15.7-28.95,0.19-4.43-4.57-10.18-10.39-10.87-6.74-.8-10.57-4.13-11.48-10.31s-4.89-7.47-9.74-8.37c-2.76-.51-6.05.92-9.43-2.7,6.6-1.94,12.16-.78,17.6-1.07,2.77-.15,7.22,4.13,7.93-0.42,0.84-5.36-4.89-2.56-7.73-3.37a10,10,0,0,0-1.88,0c-3.28-.26-7.78,1.2-8.64-3.46-0.9-4.82,3.92-4.8,6.89-5.86C274.95,117.08,289,101,290.13,90.27l-0.43-.21C286.8,94.74,284.79,99.87,280.73,104.05Z"/><path class="cls-12" d="M261.91,132.61h0Z"/><path class="cls-12" d="M289.7,90.06l0.43,0.21c0-.36.1-0.74,0.11-1.09C290.06,89.47,289.88,89.77,289.7,90.06Z"/><path class="cls-12" d="M292.89,212.09c-4.56,5-8.57,12.44-17.3,10.19-7.67-2-10.54,1.88-11.54,8.33a52.1,52.1,0,0,0-.76,9.51l0.56,0.2h0c3.14-1.28,2.17-3.58,2.09-6.19-0.28-9.47,2.56-11.49,11.1-8.09,3.28,1.3,5.59.74,7.11-2.15,1.42-2.71,4.46-3.53,6.09-5.53,5.18-6.33,12.33-11.36,14.68-19.69l-0.63-.49C300.52,202.85,296.91,207.7,292.89,212.09Z"/><path class="cls-12" d="M304.92,198.67c0.16-.58.31-1.18,0.42-1.8-0.36.43-.7,0.88-1.05,1.31Z"/><path class="cls-12" d="M229,361.07l5.24-3a14.44,14.44,0,0,1,8.06-4.66h0l11-6.36c-6.43,1.79-12.65,4.83-18.85,7.94A10.12,10.12,0,0,0,229,361.07Z"/><path class="cls-12" d="M284.91,328.79l2.52-1.46c0.47-1.13,1.76-1.67,3.27-1.89l2.05-1.19C288.19,323.33,286,325.49,284.91,328.79Z"/><path class="cls-12" d="M200.63,374a24.78,24.78,0,0,1-3.08,4.12h0c-4.94.24-9.28,1.43-9.42,6.58l6.43-3.71a16.43,16.43,0,0,1,3.52-2A9.74,9.74,0,0,0,200.63,374Z"/><path class="cls-13" d="M248.47,48.43a7.32,7.32,0,0,0,5.83-.67l-5.93-3.42C248.11,45.65,247.74,47,248.47,48.43Z"/><path class="cls-13" d="M205.12,43.78h0c-1.56,3.83-5.56,5.94-5.93,10.94-0.54,7.4-4.36,8.13-9.18,2.46-2.62-2.57-2.59-5.15,0-7.73h0a21,21,0,0,1,7.61-11.27q0-.94.09-1.88c-4-6-7.82-1.51-9.4,1.31-3.9,7-17.12,6.29-14.7,18.11a1.19,1.19,0,0,0,.43.81c14.45,3.82,7.61,16.4,10.32,25h0c2.05,0.44,2.73,6,6.08,1.63h0c-1.21-6.36-4.11-13.56,6.36-14.75,4.44-.5,8.31.47,8.42,6.16,0.13,6.9,3.49,7.07,9.35,5.69,8.6-2,12.26,2.52,10.57,11.18-1.06,5.46,5.12,7.58,6.43,12.08,0.33,0,.64,0,1,0a34.44,34.44,0,0,1,6.69.77c3.9,0.12,7.69.63,10.93,3.17l1.83,0.6a7.44,7.44,0,0,1,1.74,1.29c-6.81-10.5-14.55-20.34-22-30.38-1.6-2.16-4.37-2.2-6.83-2.78-11.18-2.6-12.47-6.47-5.2-15.25,1-1.17,2.35-2.06,2.85-4.54-4,2.07-6.52,5.72-10.7,6.14-2.58.26-5.2,0.24-6.91-2s-1.08-4.79.57-7c5.92-7.8,11.38-16.3,23.55-13.29,2.94,0.73,5.48-.89,7.89-2.57L215.1,25.13c-4,5.82-6.61,12.46-10,18.65h0Z"/><path class="cls-13" d="M229.06,40.32c-12.17-3-17.62,5.49-23.55,13.29-1.65,2.17-2.34,4.62-.57,7s4.32,2.28,6.91,2c4.19-.42,6.75-4.07,10.7-6.14-0.5,2.48-1.88,3.37-2.85,4.54-7.27,8.78-6,12.66,5.2,15.25,2.46,0.57,5.23.62,6.83,2.78,7.45,10,15.19,19.88,22,30.38,0.18,0.17.37,0.32,0.53,0.51,1.6-8.54-9.77-11.92-8.17-20.48a2.47,2.47,0,0,0-.88-0.18c-5.38.63-6.9-3.45-8.51-7.17-2.26-5.24-5-9.19-11.79-8.2-3.09.45-6.62-.45-7.84-3.85s2.33-4.71,3.82-7c2.07-3.11,8.92-5.46,5.42-9.34-4.61-5.11-6.78,2.5-9.86,4.61-3.4,2.33-7.31,4.3-10.11,1.2-3-3.36,1.16-5.15,3.66-6.92a6.2,6.2,0,0,0,2.33-2.82c2.48-7.83,8.33-8.91,15-7,5.12,1.51,8.34-.86,11.84-3.63l0.14-.12L237,37.75C234.54,39.43,232,41,229.06,40.32Z"/><path class="cls-13" d="M244.53,51.45c3.19,3.27,6.37-.36,9.48-1a10.75,10.75,0,0,0,2.88-1.17l-2.59-1.5a7.32,7.32,0,0,1-5.83.67c-0.73-1.47-.35-2.79-0.1-4.09l-1.83-1.06c0,0.27-.1.53-0.14,0.79C246,46.61,241.64,48.49,244.53,51.45Z"/><path class="cls-13" d="M252,108.11l-1.83-.6a14.13,14.13,0,0,1,2.36,2.36h0c0.51,0,1,0,1.54,0l-0.34-.51A7.44,7.44,0,0,0,252,108.11Z"/><path class="cls-13" d="M231.73,104.14c2.47,0.2,5,.12,7.51.2a34.44,34.44,0,0,0-6.69-.77c-0.34,0-.65,0-1,0a5.89,5.89,0,0,1,.15.59h0Z"/><path class="cls-13" d="M253.73,109.4l0.34,0.51h0.19C254.1,109.72,253.91,109.57,253.73,109.4Z"/><path class="cls-13" d="M280.77,64.67l1.28-.88-0.79-.46c-0.15.45-.3,0.9-0.49,1.34h0Z"/><path class="cls-13" d="M280.46,62.87l-0.51-.3c0.05,0.2.12,0.41,0.18,0.61Z"/><path class="cls-13" d="M280.77,64.67h0c0.19-.44.34-0.89,0.49-1.34l-0.8-.46-0.33.31A8.54,8.54,0,0,0,280.77,64.67Z"/><path class="cls-14" d="M90,47.07L81.67,51.9l0.41,0C87.87,53,89.2,51.29,90,47.07Z"/><path class="cls-14" d="M39.49,92.11c8.82-7.05,15,.92,22.21,3.48,1,0.34,2.34-.5,3.53-0.79h0c0.58-2.88-1.17-7,4-7.41h0a14.92,14.92,0,0,1,.3-1.77h0c2.86-3.58,8.72-6.62,2-11.87-2.88-2.26-7.76-5-4.79-8.69A72.07,72.07,0,0,0,71.17,58L31.52,80.86c2.48,2.57,4.78,5.27,5.56,9.07C37.33,91.16,38.45,92.93,39.49,92.11Z"/><path class="cls-15" d="M7.69,130.77c-0.24,4.56.69,8.92,5.17,11.29,4.11,2.18,6.93-.69,10.11-2.82s6.86-7,10.76-1.45a93.32,93.32,0,0,1,25-16.49c7-3.28,14.1-2,16,3.67h0c3.21-.42,9.47,2.34,5.65-5.41l0.45-.41,0,0-0.41.43c-5.74-1-11.37-2.77-17.34-2.14-1.44.15-3.34,0.38-4-1.38-0.9-2.32,1.2-3.05,2.6-4.18,3.18-2.56,8.28-3.62,7.51-9.35l-3.41-6.73c-2.81,2.61-5.86,1.7-8.63.16-5.06-2.82-10-5.11-15.91-2.34-1.43.67-3.62,0.67-4.3-.76-1.89-4-5.16-7.08-7.7-10.64l-1.74,1C26.49,94.8,21.89,105,13,114,9.07,118,8,124.73,7.69,130.77Z"/><path class="cls-15" d="M13.1,109c-6.25,6.61-8.47,16-8,25.39,0.25,4.93,2.51,9.39,7.48,11,4.44,1.48,8.27.33,11.39-4,1.89-2.62,4.76-6.3,9.25-3.18l0.49-.45c-3.91-5.53-7.47-.77-10.76,1.45s-6,5-10.11,2.82c-4.47-2.37-5.41-6.73-5.17-11.29C8,124.73,9.07,118,13,114c8.89-9,13.48-19.19,14.44-30.78l-2.73,1.57C25.44,94.54,20.06,101.66,13.1,109Z"/><path class="cls-15" d="M41.19,93.6c5.88-2.78,10.85-.48,15.91,2.34,2.76,1.54,5.81,2.45,8.63-.16l-0.49-1h0c-1.19.29-2.57,1.14-3.53,0.79C54.52,93,48.31,85.05,39.49,92.11c-1,.83-2.15-0.95-2.4-2.18-0.78-3.8-3.08-6.5-5.56-9.07l-2.34,1.35c2.54,3.55,5.82,6.68,7.7,10.64C37.57,94.27,39.76,94.27,41.19,93.6Z"/><path class="cls-16" d="M44.43,208.45c-0.76-2.61-2.64-5.27-4.93-5.14-10.73.59-20.45-5.17-31.11-4.53-1.5.09-3.42-.32-4.12,1.43-1,2.37,1.18,3.14,2.66,4.21,9.55,6.91,9.54,6.92-.08,11.23,4.75-.77,7.82,2.24,10,5.51,3.84,5.9,7.39,11.36,15.52,6,0.78,5.36-3.77,5-4.63,7.59h0C36.05,233.14,46.74,216.35,44.43,208.45Z"/><path class="cls-17" d="M66.66,193l-9.14-5.37h0c-17-6.26-25.37-18.3-24.2-34.49,0.16-2.22.28-4.32,1.83-6.15,10.42-12.3,22.64-21.31,39.51-22-4.88-3.75-10.2-3.83-16.06-.81-6.62,3.41-13.44,6.41-18.89,11.75-1.47,1.44-3.1,3.18-5.44,2.68l0,0c-5,9.89-4.55,20.38-3.43,30.94,0,0.45,0,.89,0,1.32a3,3,0,0,1,1.46,1.3c5.58,10.59,14.61,16.53,25.93,19.43a18.7,18.7,0,0,1,2.47,1.51h5.9Z"/><path class="cls-17" d="M30.85,169.56c-1.12-10.56-1.52-21,3.43-30.94l0,0a4.87,4.87,0,0,1-1-.35c-8.36,9.85-6,21.07-4.1,32.21h0a5,5,0,0,1,1.68.43C30.82,170.45,30.82,170,30.85,169.56Z"/><path class="cls-17" d="M60.67,193.12a18.7,18.7,0,0,0-2.47-1.51c-11.32-2.9-20.35-8.84-25.93-19.43a3,3,0,0,0-1.46-1.3,22.7,22.7,0,0,0,.13,3c5.84,10.38,14.22,17.54,26.93,19.21h2.8Z"/><path class="cls-17" d="M29.13,170.46c0.57,1.19,1.18,2.33,1.81,3.45a22.7,22.7,0,0,1-.13-3A5,5,0,0,0,29.13,170.46Z"/><path class="cls-17" d="M39.71,135.91c5.45-5.33,12.27-8.34,18.89-11.75,5.86-3,11.18-2.93,16.06.81h0.08c-1.92-5.65-9-7-16-3.67a93.32,93.32,0,0,0-25,16.49c0.18,0.25.36,0.5,0.54,0.8C36.61,139.09,38.24,137.35,39.71,135.91Z"/><path class="cls-17" d="M33.73,137.79l-0.49.45a4.87,4.87,0,0,0,1,.35C34.09,138.29,33.91,138,33.73,137.79Z"/><path class="cls-18" d="M6.84,215.65c-2.27,7.75,8,10.49,7.08,18.06-0.41,3.42,2,6.22,6.37,6.76,4.78,0.59,5.77-2.76,7.4-5.73-0.46-.86-0.15-2.57-0.4-2.61C17.5,230.28,14.59,219.94,6.84,215.65Z"/><path class="cls-18" d="M32.32,227.16c-8.13,5.36-11.68-.09-15.52-6-2.13-3.27-5.2-6.28-10-5.51,7.75,4.29,10.66,14.63,20.44,16.48,0.25,0-.06,1.75.4,2.61C28.55,232.15,33.1,232.52,32.32,227.16Z"/><path class="cls-19" d="M153.8,63.23c-2.47-5.56-.14-10.91,2.62-15.41a177.72,177.72,0,0,1,14.29-19.41c4.17-5.09,1.64-8-2.68-10.45a46.46,46.46,0,0,0-8.7-3.52c-6.38-2-11.36,2.23-8.72,8.22,1.69,3.82.31,5.43-1,8.27-4.94,10.63-7.06,22.32-14.07,32.32-3.29,4.69-8.92,8.17-9.65,14.61,2.6-2.26,5.28-4.43,7.77-6.81,2.24-2.14,4.81-3.55,7.61-1.94,2.55,1.46,3.64,4.24,3.43,7.3-0.24,3.58-3.19,3.28-5.56,3.78-4.37.93-8.07,3.28-11.9,5.44-4.07,2.3-7.47,2.44-6.91-3.91-9.68,4.2-19.82,6.38-30.28,7.58-5.18.59-9,7.38-15.6,2.93A19,19,0,0,1,70,88.39c-1.91,1.89-2.4,4.62-3.82,6.8,2.93,1.42,3.49,4.5,4.43,7.3a7.18,7.18,0,0,1,.24,2.4c2.74,4.43,4.4,9.69,9.36,12.43l0.35-.08c0.47-19.64,4.39-22.15,25.89-24,10.53-.93,21.15.61,29.41-8.48,2.51-2.76,7.19-.92,10.89-1.12h0c8.42-.6,17.22,5,25.38-1.59,0.53-.43,3,0.8,4,1.82,3.81,4,5.82,2.07,7.58-1l-0.38-.53C182,79.76,180.73,77,181,74.24c0.72-6.47-.83-11.13-6.61-15.12-5-3.47-4.23-9.36-.14-13.12a145.93,145.93,0,0,1,15.27-12.42c3-2.1,6.4-2.92,8.88,1.14,0,0,0,.08,0,0.12,2.46-4.4,6-8.26,4-14.52a2.87,2.87,0,0,1,.43-2.24l-12.82-7.4c-3.69,5.81-7.23,11.71-11.27,17.26C170.46,39.41,165,52.75,153.8,63.23Z"/><path class="cls-19" d="M184.36,81.57c-2.71-8.64,4.13-21.22-10.32-25a1.19,1.19,0,0,1-.43-0.81c-2.42-11.82,10.81-11.12,14.7-18.11,1.58-2.82,5.4-7.32,9.4-1.31,0.23-.49.49-1,0.76-1.45,0,0,0-.08,0-0.12-2.48-4.06-5.86-3.24-8.88-1.14A145.93,145.93,0,0,0,174.29,46c-4.09,3.76-4.91,9.65.14,13.12,5.78,4,7.34,8.65,6.61,15.12-0.31,2.75,1,5.51,2.23,8.07l0.38,0.53c0.24-.41.47-0.84,0.71-1.28h0Z"/><path class="cls-19" d="M70,88.39a10.3,10.3,0,0,1-.74-1h0c-5.17.4-3.42,4.54-4,7.41h0a6.4,6.4,0,0,1,.91.39C67.56,93,68,90.27,70,88.39Z"/><path class="cls-19" d="M70.8,104.88a7.18,7.18,0,0,0-.24-2.4c-0.95-2.8-1.5-5.87-4.43-7.3-0.12.18-.23,0.37-0.37,0.55l0,0,3.41,6.73a3.36,3.36,0,0,1,.57.81C70.08,103.83,70.47,104.33,70.8,104.88Z"/><path class="cls-19" d="M66.14,95.19a6.4,6.4,0,0,0-.91-0.39l0.49,1,0,0C65.9,95.56,66,95.37,66.14,95.19Z"/><path class="cls-20" d="M339.66,268.5c0-.15-0.08-0.28-0.11-0.43-2.11-.69-4.35-1.25-5.8-2.64-5.68-5.45-8.2-3.07-9.68,3.22h0l0.11,0.12h0a107.11,107.11,0,0,0,9.75,5.3c2.37,1,5,1.58,5.05,4.63,0.11,3.21-2.86,3.65-5,4.71-2,1-6,.54-4.25,4.24,1.26,2.62,4.31,1.94,6.45.09,2.54-2.2,4.44-2.19,6.09-1.34V270.65C341,270.59,340.28,269.65,339.66,268.5Z"/><path class="cls-20" d="M339.55,268.08c0,0.15.09,0.27,0.11,0.43,0.62,1.14,1.35,2.08,2.61,2.15v-0.92l-1.14-1.08C340.62,268.44,340.09,268.25,339.55,268.08Z"/><path class="cls-21" d="M342.27,251v-8.6a84.82,84.82,0,0,1-8.43,3.25C335.87,248.21,339.38,249.39,342.27,251Z"/><path class="cls-21" d="M328,245.56c-0.34,3.64,3.27,3.56,5.88,4.61s5.9,1.59,8.42,2.94V251c-2.89-1.61-6.41-2.8-8.43-5.35a84.82,84.82,0,0,0,8.43-3.25v-2.5c-2.49,1.68-5.26,2.06-8.17,2.74C331.95,243.15,328.26,242.49,328,245.56Z"/><path class="cls-22" d="M260.57,241.07c0.9,1.51.66,2.85-3.34,4.08a19.21,19.21,0,0,1-5.17.77c4.73,0.73,4.53,2.39,1,8.36a2.53,2.53,0,0,0-.18,2.77c3.34,1.65,4.8-1.6,7-3,7-4.4,10.8-2.7,11.41,5.61,0.32,4.39,2.14,6.38,5.76,3.89,9-6.16,10.48.88,12.95,6.65,0,0.68,0,1.33-.1,2,1.51,1.87,2.91,3.84,6.55,2.3,4.53-1.92,1.6-4.55,1.42-6.87-0.5-6.54,2.38-7.52,7.9-5.38,5.74,2.23,11.62,4.11,17.44,6.12-0.06-.2-0.14-0.39-0.19-0.6,3.29-8.26,4.78-8.81,11.68-4.4a34.39,34.39,0,0,1,4.46,3.34c-1.58-4.74-5.66-7.21-9.26-10.74-13.22-13-28.75-6.32-43.35-7.38-4.33-.32-8.77,1.07-13-0.5-3.81-1.4-7.69-2.75-10.19-6.3,0-.4,0-0.79,0-1.19A5,5,0,0,1,260.57,241.07Z"/><path class="cls-22" d="M263.36,241.8c2.49,3.55,6.37,4.9,10.19,6.3,4.28,1.57,8.71.18,13,.5,14.59,1.07,30.13-5.6,43.35,7.38,3.59,3.53,7.67,6,9.26,10.74a23,23,0,0,1,1.94,1.93c1.3-7.78-1.72-12.55-9.58-14.32-2.64-.6-5.63-1-7.05-4-3.49-7.27-9.3-5.74-15.89-5.45-15,.68-30.78,5.74-44.77-4.57a4.54,4.54,0,0,1-.54.29C263.33,241,263.32,241.4,263.36,241.8Z"/><path class="cls-22" d="M263.31,240.61c0-.16,0-0.33,0-0.49l-4.86-1.78a31.32,31.32,0,0,1,2.14,2.73A5,5,0,0,0,263.31,240.61Z"/><path class="cls-22" d="M289.92,272.21c0-.64.09-1.29,0.1-2-2.47-5.77-4-12.81-12.95-6.65-3.61,2.49-5.44.49-5.76-3.89-0.6-8.31-4.41-10-11.41-5.61-2.17,1.37-3.63,4.62-7,3a2.53,2.53,0,0,1,.18-2.77c3.48-6,3.68-7.63-1-8.36-5,.15-10.1-0.93-14.84,1.36l18.16,1.15c-1.23,1.37-1.69,2.37-2.39,2.59-4.92,1.55-6,5.47-3.12,8.61s6.94,2,9.68-1.6c0.57-.75.92-1.67,1.53-2.38a5.7,5.7,0,0,1,6.85-1.66c4,1.61,1.48,3.79.39,5.94-1.66,3.28.49,5.33,2.74,7.19s4.54,1.43,6.8-.36c1.87-1.48,2.93-4.12,6.48-4.34-0.45,3.57,2.72,5.3,4,8.12A10.4,10.4,0,0,1,289.92,272.21Z"/><path class="cls-22" d="M263.29,240.12c0,0.16,0,.33,0,0.49a4.54,4.54,0,0,0,.54-0.29h0Z"/><path class="cls-22" d="M334.73,263.37c-6.9-4.41-8.39-3.86-11.68,4.4,0,0.21.13,0.4,0.19,0.6l0.83,0.28c1.49-6.29,4-8.67,9.68-3.22,1.45,1.39,3.68,1.95,5.8,2.64a12.52,12.52,0,0,0-.36-1.36A34.39,34.39,0,0,0,334.73,263.37Z"/><path class="cls-22" d="M339.55,268.08c0.54,0.18,1.08.36,1.58,0.57a23,23,0,0,0-1.94-1.93A12.52,12.52,0,0,1,339.55,268.08Z"/><path class="cls-20" d="M322.17,307.28l6.07-3.51,0,0C326.57,302.54,324.3,304.64,322.17,307.28Z"/><path class="cls-23" d="M174,388.58c0.05-10.44,5.79-17.75,15.26-20.66,3.59-1.1,7-.92,9.65,1.82a7,7,0,0,1,1.09,1.44c2.71-8.26,4-16.49-2.94-24.61-1.69-2-3.12-4.12-1.27-6.75s4.11-2.56,6.65-1.28c2.93,1.47,5.65,1.24,7.33-1.74,1.51-2.66-.53-4.75-1.87-6.83-2.6-4-6.88-4.8-11-6.44-6.31-2.51-15.77-1.61-17.53-10.26-1.82-8.94,7.75-12.27,12.81-15.68,5.28-3.56,13.21-3.57,19-8.25,6.38-5.18,6.59-5.76-.68-10.1a81.35,81.35,0,0,0-8.36-4.35c-6.24-2.81-9.22-7.25-7.83-14.27,1.49-7.53-10.52-5-9.51-13.14,0.93-7.56,4.41-10.9,11.55-8.19,2,0.76,3.83,1.94,6.21,2-15.66-5.64-22.15-18.26-25.83-33.07h-3.58c-0.17,5.48.93,10.62,4.53,14.91,5.77,6.88,3,11.65-3.31,16.24-3.2-5.09,1.85-12-4.23-15-3.51-1.71-2.81,5.18-7.1,5-2.26-14.87,7.85-26.51,10.14-40,0-3.92.34-7.91-2-11.44h0c-9-.75-12.06,4.7-13.22,12.42-1.38,9.2-1,18.47-11.35,24.55-7.45,4.39-5.11,22.93,2.68,28.8,10.77,8.12,12.44,20.11,13.28,31.85,0.69,9.65-.44,9.73,6.69,16.66-9.43,1.45-9.4,1.44-11.91-7.57s-7-15.51-17.76-14.11c-5,.64-9-2.2-13.51-3.25a55.71,55.71,0,0,0-23.45-.68c5,5.17,9.21,10.76,10.75,18.09,1.28,6.09-.76,9.67-7,10.62a4.25,4.25,0,0,1-.93.09c-5.36.52-11.77,0.93-12.65,7.2S98,311,102.88,313.18c0,0.3,0,.58,0,0.87l0.36,0c2.33-2.56,5.23-2.6,7.47-.49,4.19,3.94-2.78,6.27-1.86,9.9h0l-0.06.09c0.18,0.08.34,0.17,0.53,0.24-1.38,2.56-4.76,4.24.61,7.4,9.28,5.47,10.38,10.29,6.79,20.76-1.08,3.15-.86,6.67-1.43,9.82l20.65,11.92c0.17-.44.35-0.86,0.5-1.34a237.11,237.11,0,0,1,19.33-43.86c1.72-3.07,3.48-5.23,7.24-4.54,3.45,0.64,4.22,3.36,4.65,6.29,0.4,2.76-.35,5.6.15,8.46,3-.47,4.14-3.32,6.58-4,4.36-1.14,8.3.54,8.79,4.68,0.61,5.28-1,10.41,1.58,16,1.59,3.55-3.79,4.73-7.39,4.59-5.81-.23-10.6-3.3-16-7.4-1,8.89-3.95,15.7-7.5,22.31-1.23,2.29-2.48,4.57-3.82,6.83l2,1.14C159.14,379.58,166.61,384.9,174,388.58Zm-69.76-80.36c-4.52.83-9.28,2-8.53-5.42-0.29-3,0-5.63,3.94-5.84,2.55-.14,5.26-0.11,6.37,2.56C107.32,302.61,108.41,306.05,104.24,308.21Zm60.11-33.57c5.89-6.07,8.49-11.07,8.74-17.08,0.16-3.91,4.61-5.38,5.44-3.45,2.7,6.25,10.13,9.84,10.39,19C180.79,267.17,174,273.53,164.36,274.65Z"/><path class="cls-23" d="M109.9,331.14c-5.37-3.16-2-4.84-.61-7.4-0.19-.07-0.35-0.16-0.53-0.24-1.69,3.11-6.34.5-8.13,4.59,12.22,5.38,21.13,12.61,12.16,27.49-0.56.93-.21,2.48-0.11,3.73,0,0.32,0,.63,0,0.94l2.54,1.47c0.57-3.15.35-6.67,1.43-9.82C120.28,341.43,119.18,336.6,109.9,331.14Z"/><path class="cls-23" d="M176.44,385.18c-2.1-2.67,0-5.16,1.55-6.64,3.11-3,6.84-5.42,10.42-7.93a7.19,7.19,0,0,1,8.78-.11c3.73,2.47,0,5.07.36,7.58,0.84-2.3,1.7-4.61,2.46-6.91a7,7,0,0,0-1.09-1.44c-2.66-2.73-6.06-2.92-9.65-1.82-9.47,2.91-15.21,10.22-15.26,20.66-7.39-3.68-14.86-9-22.07-5.69l2.4,1.39c3.42-1.12,7.2-.19,11.4,2.71a30.29,30.29,0,0,0,5.84,2.86,18.11,18.11,0,0,0,4.72,1.65l3.44-2C180.47,387.63,177.58,386.62,176.44,385.18Z"/><path class="cls-23" d="M161.29,352.62c5.43,4.1,10.22,7.17,16,7.4,3.6,0.14,9-1,7.39-4.59-2.53-5.64-1-10.76-1.58-16-0.48-4.14-4.43-5.82-8.79-4.68-2.43.64-3.55,3.49-6.58,4-0.49-2.86.26-5.7-.15-8.46-0.42-2.93-1.19-5.65-4.65-6.29-3.76-.7-5.52,1.46-7.24,4.54a237.11,237.11,0,0,0-19.33,43.86c-0.15.48-.33,0.9-0.5,1.34l2.1,1.21c5-16.17,12.49-31.32,20.05-46.43,1-2,2-3,4.16-2.86,2.35,0.21,3.16,1.81,3.21,3.88s0,4.4-.1,6.6c-0.07,2.53-3.55,5.62.26,7.45,3.45,1.65,4.76-1.8,6.23-4.18,1.91-3.09,4.23-4.48,7.77-2.23,3.33,2.12,2.68,4.71.93,7.24-2.47,3.58-5.13,6.88,1.73,8.62,0.67,0.17,1.56,2.64,1.22,3-1,1.06-2.59,2.31-3.84,2.21-6-.52-11.63-2.2-15.88-7.11-1.8-2.08-5.51-4.87-5.51.72,0,11.2-4.86,20.08-10.47,28.7l2.19,1.27c1.34-2.26,2.59-4.54,3.82-6.83C157.34,368.32,160.26,361.51,161.29,352.62Z"/><path class="cls-23" d="M101.22,266.88c1.71,2.59,3.14,5.44,5.19,7.72,4,4.49,6.11,10.34,5.1,15.47-1.06,5.37-7.68,1.88-11.46,3.42-5.15,2.09-12.58,3.55-10.21,11.35,1.67,5.48,5.77,10.34,13,9.21,0-.29,0-0.57,0-0.87-4.85-2.19-11-4.37-10.12-10.57s7.28-6.69,12.65-7.2a4.25,4.25,0,0,0,.93-0.09c6.28-1,8.32-4.53,7-10.62-1.53-7.33-5.77-12.92-10.75-18.09-0.47.09-.94,0.16-1.41,0.27h0Z"/><path class="cls-23" d="M202.53,241.27c-2.38-.05-4.22-1.24-6.21-2-7.14-2.71-10.61.63-11.55,8.19-1,8.19,11,5.61,9.51,13.14-1.39,7,1.59,11.46,7.83,14.27a81.35,81.35,0,0,1,8.36,4.35c7.27,4.35,7.06,4.92.68,10.1-5.77,4.69-13.71,4.7-19,8.25-5.06,3.41-14.64,6.74-12.81,15.68,1.76,8.65,11.22,7.74,17.53,10.26,4.13,1.64,8.42,2.41,11,6.44,1.34,2.08,3.37,4.18,1.87,6.83-1.69,3-4.4,3.21-7.33,1.74-2.55-1.28-4.88-1.23-6.65,1.28s-0.42,4.76,1.27,6.75c6.92,8.12,5.66,16.35,2.94,24.61a4.63,4.63,0,0,1,.62,2.79c5.38-8.92,5.13-20.83-1.24-28.6-1.26-1.54-4.47-2.42-1.92-5.05s3.65,0.3,5,1.8c2.4,2.64,4.69,1.51,6.29-.69s6.91-2.52,4.64-6.89c-3-5.77-5.83-13-13.6-12.67-6.24.25-9.71-6.06-16.14-4.92-2.28.4-4.16-4.13-2.65-5.92,4.19-5,11.81-13.9,13.51-13,8.41,4.63,10.75-3.37,15.53-5.54,4-1.84,7.55-4.85,11.3-7.35a29.44,29.44,0,0,0-12.44-9.31c-1.72-.67-3.11-2.28-4.85-2.8-7-2.08-9.88-5.79-7-13.34,1.37-3.64,1-8-5-7.05-2.63.43-5.29-.12-4.91-2.44,0.52-3.19-1.26-7,1.82-9.67,2.61-2.3,4.81-.51,6.72.92,3.83,2.88,8,3.35,13.32,2.06-15.53-7.5-26.75-18.25-30.31-35.33h-2C180.38,223,186.87,235.62,202.53,241.27Z"/><path class="cls-23" d="M200,371.17c-0.76,2.3-1.62,4.6-2.46,6.91h0a24.78,24.78,0,0,0,3.08-4.12A4.63,4.63,0,0,0,200,371.17Z"/><path class="cls-24" d="M158.83,174.49c-4.86,5.09-14,6.94-11.73,18,0.85,4.22-7.49,6.28-11.89,7.13-4,.78-5.56-4-5.61-8.13,0-3.52-1.82-6.32-5.13-7s-3.78,2.43-4.57,4.84c-0.62,1.87-2,3.83-4,2.73s-0.77-3.25-.23-5a60.75,60.75,0,0,0,2.52-9.95,10.07,10.07,0,0,0-3.92-9.15c-3.36-2.64-5.75.19-8,2.33s-5.11,3-7.75,1.36c-3.75-2.29-.45-4.86.27-7.29s4.23-5.58.55-7.27c-3.4-1.56-6.08,2.56-6.55,5.09-1.1,5.9-1.76,11.55-6.91,15.7-2,1.57-.76,3.28,1.5,4.06,2.1,0.72,3.37,2.29,1.66,4.1-0.64.68-2.93-.21-4.46-0.38-1.66,4.52-6.45,5-9.67,7.54,0.88,2.22,2.85,3.17,4.75,4.33,13.56,8.35,22.31,21.39,32.16,33.34,2.66,3.22,4.48,6.76,2.52,12.15-3.07-4.67-7.76-6.83-10.15-11.48-1.23-2.4-3.42-2.57-5.24-.14h0c0.55,3.8,3.64,5.62,6.11,8,5.43,5.16,5.39,18.7,0,23.88-1,1.77-3,1.57-4.71,1.84a13.27,13.27,0,0,1,1.63.89l0.28,0.29c8-5.73,16.71-2.47,25.14-.84,4.29,0.83,8.4,2.72,12.87,2.65,10.42-.15,16.19,5.45,19.05,15,0.85,2.82.81,6.43,5.18,7.5-3.17-3.1-4.91-6.41-4.79-10.57,0.38-14-3.22-26.22-13.7-36.62-9.33-9.26-7.81-24.56,2.13-33.22a16.67,16.67,0,0,0,5.85-10.34c0.79-4.64,1-9.46,2.73-13.86,2.5-6.43,6.24-11.29,14-9C166.85,169,164.56,168.49,158.83,174.49Z"/><path class="cls-24" d="M101.92,265.87a13.27,13.27,0,0,0-1.63-.89,3.29,3.29,0,0,0-2.74,1.78h0l3.67,0.13h0c0.33-.26.65-0.48,1-0.72Z"/><path class="cls-24" d="M156.67,185.83c-1.71,4.4-1.94,9.22-2.73,13.86A16.67,16.67,0,0,1,148.09,210c-9.94,8.66-11.46,24-2.13,33.22,10.47,10.4,14.08,22.57,13.7,36.62-0.11,4.16,1.63,7.47,4.79,10.57-4.37-1.07-4.33-4.68-5.18-7.5-2.86-9.52-8.63-15.12-19.05-15-4.48.06-8.58-1.83-12.87-2.65-8.43-1.63-17.1-4.88-25.14.84l0.43,0.45a55.71,55.71,0,0,1,23.45.68c4.49,1.05,8.54,3.9,13.51,3.25,10.74-1.39,15.26,5.14,17.76,14.11s2.48,9,11.91,7.57c-7.13-6.93-6-7-6.69-16.66-0.84-11.74-2.51-23.73-13.28-31.85-7.79-5.87-10.13-24.42-2.68-28.8,10.34-6.08,10-15.35,11.35-24.55,1.16-7.72,4.22-13.17,13.22-12.42-0.18-.38-0.35-0.73-0.52-1.08C162.91,174.55,159.18,179.4,156.67,185.83Z"/><path class="cls-24" d="M101.22,266.87c0.47-.11.94-0.18,1.41-0.27l-0.43-.45C101.87,266.39,101.55,266.61,101.22,266.87Z"/><path class="cls-23" d="M80.62,212.72c2.32,0.6,4.14,2.74,5.95,4.48,3.81,3.68,2.66,6.53-1.54,8.82-0.55.3-1.15,0.49-1.71,0.76-4.53,2.1-12.14,1.64-11.46,8.74,0.83,8.73,1.42,18.47,11.52,22.89a141.49,141.49,0,0,0,14.83,5.76,5.88,5.88,0,0,1,2.62-1.57c-7.17-1.29-13.66-4.68-20-8C74.1,251,73,241.94,77,234.85s11-8.26,21.27-3.87c1.54-4.05,4.38-3.56,7-1.1,2.88,2.74,6,5.4,8.29,8.71-8.85-13.7-18.28-26.87-31.67-36.79-3.12-2.31-7.25-3.9-7.84-8.57l-10.38,1.64a6.8,6.8,0,0,1-.87.2C67.05,202.56,71.12,210.25,80.62,212.72Z"/><path class="cls-23" d="M98.19,264.17a141.49,141.49,0,0,1-14.83-5.76c-10.1-4.42-10.68-14.16-11.52-22.89-0.68-7.11,6.94-6.64,11.46-8.74,0.57-.26,1.17-0.46,1.71-0.76,4.2-2.29,5.35-5.14,1.54-8.82-1.8-1.74-3.63-3.88-5.95-4.48-9.49-2.47-13.56-10.16-17.92-17.65a5.46,5.46,0,0,1-.89.07,8.55,8.55,0,0,0,1.51,6.18c3.87,5.38,6.59,11.53,14.68,12.54,3.72,0.46,8.54,4.28,8.63,7.49,0.13,4.39-5.89,3-9.06,4.51-3.59,1.74-8,2.67-9.3,7.21-2.37,8.39,6.38,24.3,15.37,28.11,4.59,2,9.27,3.72,13.9,5.57h0A3.44,3.44,0,0,1,98.19,264.17Z"/><path class="cls-23" d="M105,263.13a33.7,33.7,0,0,1-4.2-.52,5.88,5.88,0,0,0-2.62,1.57h0a13.51,13.51,0,0,1,2.08.79C102,264.7,104,264.9,105,263.13Z"/><path class="cls-23" d="M98.9,231.27c1.82-2.42,4-2.26,5.24.14,2.38,4.65,7.07,6.81,10.15,11.48,2-5.39.14-8.93-2.52-12.15-9.85-11.95-18.6-25-32.16-33.34-1.9-1.17-3.87-2.12-4.75-4.33l-0.92.14c0.59,4.68,4.72,6.26,7.84,8.57,13.39,9.91,22.83,23.09,31.67,36.79-2.28-3.31-5.41-6-8.29-8.71-2.58-2.46-5.42-2.95-7,1.1l0.68,0.29h0Z"/><path class="cls-23" d="M98.19,264.17a3.44,3.44,0,0,0-.63,2.57A3.29,3.29,0,0,1,100.3,265a13.51,13.51,0,0,0-2.08-.79h0Z"/><path class="cls-25" d="M99.17,346.79c-1.54-1.76-2.18-4.85-5.42-4.21-2.66.53-3.16,2.58-3.43,4.74l9,5.22C101,350.87,101,348.84,99.17,346.79Z"/><path class="cls-7" d="M82.47,185.6c-6.32.35-12.46,2.84-18.9,1.79h0l-1.94.06c2.48,1.37,6.41,2.14,5.21,5.13-0.06.14-.12,0.25-0.18,0.37L67,193.12H66.57a3.54,3.54,0,0,1-.41.6c2.5-1.32,5-2.84,8-1.12C75.65,188.82,79.59,187.81,82.47,185.6Z"/><path class="cls-7" d="M64.06,194.69a6.54,6.54,0,0,1-1.81-.17c0.11,0.12.23,0.22,0.33,0.34L62.66,195l0.91-.14Z"/><path class="cls-7" d="M62.25,194.52c-1.46-.32-3-1-4.37-1.4,0.85,1.58,2.38,1.82,3.93,2l0.85-.13-0.08-.14C62.47,194.74,62.35,194.64,62.25,194.52Z"/><path class="cls-7" d="M66.57,193.12h-5.9a11.36,11.36,0,0,1,1.57,1.4,6.54,6.54,0,0,0,1.81.17,17.27,17.27,0,0,0,2.1-1A3.54,3.54,0,0,0,66.57,193.12Z"/><path class="cls-7" d="M61.63,187.45l-4.11.13h0L66.66,193c0.06-.12.13-0.23,0.18-0.37C68,189.59,64.11,188.82,61.63,187.45Z"/><path class="cls-7" d="M60.67,193.12h-2.8c1.35,0.42,2.91,1.08,4.37,1.4A11.36,11.36,0,0,0,60.67,193.12Z"/><path class="cls-7" d="M74.12,192.6a7.48,7.48,0,0,1,.74.48c3.22-2.51,8-3,9.67-7.54-0.69,0-1.38,0-2.06.05C79.59,187.81,75.65,188.82,74.12,192.6Z"/><path class="cls-7" d="M74.12,192.6c-3-1.72-5.46-.21-8,1.12a2.93,2.93,0,0,1-2.1,1l-0.49.17,10.38-1.64c0-.06,0-0.11,0-0.17S74.05,192.76,74.12,192.6Z"/><path class="cls-7" d="M64.06,194.69a2.93,2.93,0,0,0,2.1-1A17.27,17.27,0,0,1,64.06,194.69Z"/><path class="cls-7" d="M74.12,192.6c-0.06.16-.15,0.29-0.21,0.45s0,0.11,0,.17l0.92-.14A7.48,7.48,0,0,0,74.12,192.6Z"/><path class="cls-7" d="M108.58,323.41h0.23c-2.1-3,1.52-9.41-5.61-9.41a4,4,0,0,1-.39.85A8.89,8.89,0,0,0,108.58,323.41Z"/><path class="cls-7" d="M102.81,314.84c-1.45,2.46-5.31,4-4.19,6.69,1.58,3.84,6.1,1.18,9.26,1.86a2.58,2.58,0,0,0,.7,0A8.89,8.89,0,0,1,102.81,314.84Z"/><path class="cls-7" d="M108.81,323.4h0c-0.92-3.63,6-6,1.86-9.9-2.24-2.11-5.13-2.07-7.47.49C110.33,314,106.71,320.4,108.81,323.4Z"/><path class="cls-26" d="M69.18,326.41c2.32,4,4.26,7.08,8.68,6,2-.48,2.61-2.75,1.6-4.55C76.92,323.36,73.41,325.68,69.18,326.41Z"/><path class="cls-7" d="M56.14,291.79a2.39,2.39,0,0,0-1.74,2.85c0.2,1.67,1,2.88,2.86,3A3.2,3.2,0,0,0,59.44,294,2.38,2.38,0,0,0,56.14,291.79Z"/><path class="cls-19" d="M223.48,89c1-6.49-4.42-6.71-8.91-6.13-5.24.68-9.41,0.06-11.23-5.63-1.12-3.51-2.65-6.67-7.14-5.69s-4.44,4.63-4.29,8.2a10.47,10.47,0,0,1-.49,3.87c3.86,1.68,7.23,4.82,11.94,4h0c1.77,0,5.23,0,4.62,1.39-2.75,6.53,3,8.27,6.65,11.77-4,2.83-7.8,1.11-11.25,1.55-5.49,5.94-14,8.58-17.78,16.41a1.25,1.25,0,0,1-.62.66c-12.79-3.35-13.57,5.59-15.27,14.29-0.27,1.4-4.34,2-6.53,3.12-4.87,2.59-10.92,3.67-12.81,10.14-0.8,2.74-2.25,5.93-5.59,4.88-3.19-1-6.06-3.28-5.74-7.63a42.89,42.89,0,0,0-.11-9.43c-0.79-5.28-1.77-10.66-7.29-13.47h0c-9.76,2.85-13.72-5.72-16.69-11.07-3.08-5.56,4.35-2.86,7.05-4,1.54-.79,1.92-2.2,2-3.77h0c-2.86-2.73-5.12-6.25-10.25-3.58-4.15,2.15-5.42,4.5-3.68,8.89,0.46,1.17-.42,3-1,4.44-3.77,8.39-7.47,16.49-2.23,26,1.77,3.2-.53,6.17-4.51,8.66-8.48,5.3-18.36,9.37-22.19,20.24-1.73,4.89-6.89,3.07-10.78,3.36h0c-7.68.76-14.58-.53-17.3-8.85-2.55-7.79,2.39-12.14,8.35-15.92,3.22-2,6-.82,8.92.11a30.62,30.62,0,0,1,4.6.64C86.21,150,86.41,150.07,88,137.58c0.55-4.31,2.76-5,6.23-4.95,2.2,0,5.06.14,5.67-2.19,0.73-2.83-2.07-4.14-4.23-5.38,0.43,5.38-2.26,5.67-6.29,3.9s-6.14-1.64-7.7,3.83C80.2,138,76,141.23,68.76,140.47c-15.39-1.62-25.77,9.87-22.35,22.75,1.34,5.06,5.11,7.08,8.8,9.07,5.48,3,8.67,6.83,8.57,12.63,6.49,0.67,13.13-3.23,19.54-.06l0.13-.11c-0.63-9.39,6.5-16.18,8.38-24.82,0.64-3,4-6.25,8.1-4.27,3.67,1.79,2.46,5.26,1.39,8.32a5.37,5.37,0,0,0-.26,4.3c5.19,1.1,11.12-7.28,16.39.2,3.91,5.54,3.18,11.23,1,17.14,1.13-.75-0.07.56,0.24,0.25,6.49-6.48,9.89-2.31,12.63,3.61,1.39,3,1.41,7.43,6.46,6.27,3.86-.89,6.7-2.93,7.21-7.55,1.12-10.25,10.08-13.91,17.21-18.45,4.53-2.88,8.39.76,8.92,7.23l0.51,0.16c2.93,2.23,3.69,5.21,3.81,8.4l2.08-3.46c3.91,10.25-6,17.09-4.46,25.7,0.1-.14.19-0.28,0.31-0.42a4.8,4.8,0,0,1,3.33-.31,33.67,33.67,0,0,1,1.56-8.22c1.47-5.32,4.43-7.7,10.4-6.76,10,1.55,10.37.84,8.29-8.81a20.59,20.59,0,0,0-3.08-6.81c-1.48-2.32-3.75-4.75-.59-7.4,2.41-2,5.75-2.72,7.84-.66,7.29,7.22,17.51,8.2,25.89,12.92,11.39,6.41,17.81,17,22.68,28.65-4.4-13.35-10-25.79-24.86-30.69-11.06-3.65-12.89-14-16-22.92-1.85-5.33,4.33-9.83,10.41-8a19.14,19.14,0,0,1,12,10c1.86,3.72,5.34,5.35,8.46,2.77,2.81-2.31-.66-5-1.89-7.28-1.55-2.86-4.52-4.23-7.2-5.9-11.69-7.29-17.07-23.78-11.68-36.41a12.29,12.29,0,0,1,11.31-8C225.77,100,222.44,96,223.48,89ZM114.54,140.86c-2.88.44-3.93-1.66-3.91-3.93,0-2.66,2.06-3.71,4.49-3.4,2,0.26,4.49.25,4.91,3.19C119.32,139.59,117,140.48,114.54,140.86Z"/><path class="cls-19" d="M230.22,103.53a12.29,12.29,0,0,0-11.31,8c-5.39,12.63,0,29.12,11.68,36.41,2.68,1.67,5.64,3,7.2,5.9,1.23,2.27,4.7,5,1.89,7.28-3.12,2.57-6.6.94-8.46-2.77a19.14,19.14,0,0,0-12-10c-6.08-1.84-12.26,2.66-10.41,8,3.11,8.94,4.94,19.27,16,22.92,14.87,4.9,20.45,17.33,24.86,30.69-4.88-11.66-11.29-22.24-22.68-28.65-8.39-4.72-18.6-5.7-25.89-12.92-2.08-2.07-5.43-1.36-7.84.66-3.16,2.65-.89,5.09.59,7.4a20.59,20.59,0,0,1,3.08,6.81c2.08,9.65,1.68,10.36-8.29,8.81-6-.93-8.94,1.44-10.4,6.76a33.67,33.67,0,0,0-1.56,8.22,5.13,5.13,0,0,1,2,1.15h0a23.52,23.52,0,0,1,.6-4.64c1.92-5.73,1.47-14.77,12.13-7.48,3.46,2.37,8.46-1.8,8.34-4.89-0.19-5,1.58-10.79-3-15.21-1.39-1.33-5.29-2.74-2.29-5.61s6.52-1.37,8.12,1.41c2.91,5.05,7.6,6.07,12.46,7.27,11.48,2.84,19.57,9.72,26.36,19.47,4,5.74,3.77,13.52,9.63,18.79,2.22-10.76-7.1-30.48-15.44-34.66-9.93-5-20.54-9.33-23.15-22.16-0.63-3.1-4.44-5.89-.36-9.13,3.65-2.9,6.87-1.77,10.16.85,3,2.43,6.33,3.66,7.15,8.85,1.05,6.66,7.55,3,11.7,3.17,1.46,0.06,5.82-1.06,3.72-3.54-3.42-4-3.38-10.51-9-12.75-15.54-6.16-17.61-18.51-15.52-33,1-6.82,4.89-9.35,11.37-8.83l0.05-1.46C231.2,104.3,230.7,103.92,230.22,103.53Z"/><path class="cls-19" d="M191.91,79.72c-0.15-3.57-.18-7.22,4.29-8.2s6,2.18,7.14,5.69c1.82,5.7,6,6.32,11.23,5.63,4.49-.58,9.88-0.36,8.91,6.13-1,7,2.29,11,6.74,14.56,0.44,0,.9,0,1.35,0-1.31-4.5-7.49-6.62-6.43-12.08,1.68-8.65-2-13.21-10.57-11.18-5.86,1.38-9.21,1.21-9.35-5.69-0.11-5.69-4-6.66-8.42-6.16-10.47,1.19-7.57,8.38-6.36,14.75h0c0.33,0.12.66,0.25,1,.39A10.47,10.47,0,0,0,191.91,79.72Z"/><path class="cls-19" d="M231.71,104.68l0-.54h0a5.89,5.89,0,0,0-.15-0.59c-0.45,0-.92,0-1.35,0C230.7,103.92,231.2,104.3,231.71,104.68Z"/><path class="cls-19" d="M176.7,207.05a4.8,4.8,0,0,0-3.33.31c-0.11.14-.2,0.28-0.31,0.42s0,0.27.05,0.4h3.58l0-.12C176.65,207.74,176.69,207.4,176.7,207.05Z"/><path class="cls-19" d="M171.64,177.15l-0.51-.16c0,0.31.05,0.62,0.06,0.94h0c2.3,3.53,1.93,7.52,2,11.44l2.3-3.82C175.32,182.35,174.56,179.38,171.64,177.15Z"/><path class="cls-19" d="M176.67,208.08l0,0.12h2a5.13,5.13,0,0,0-2-1.15C176.69,207.4,176.65,207.74,176.67,208.08Z"/><path class="cls-19" d="M162.21,169.76c-7.13,4.53-16.08,8.2-17.21,18.45-0.51,4.62-3.35,6.66-7.21,7.55-5,1.16-5.07-3.25-6.46-6.27-2.74-5.92-6.13-10.1-12.63-3.61-0.31.31,0.9-1-.24-0.25,2.17-5.91,2.9-11.59-1-17.14-5.27-7.48-11.21.9-16.39-.2a5.37,5.37,0,0,1,.26-4.3c1.07-3.06,2.28-6.53-1.39-8.32-4.05-2-7.46,1.3-8.1,4.27-1.87,8.65-9,15.44-8.38,24.82l-0.13.11a12.19,12.19,0,0,1,1.21.68c1.54,0.17,3.83,1.05,4.46.38,1.71-1.81.44-3.38-1.66-4.1-2.26-.77-3.45-2.49-1.5-4.06,5.15-4.15,5.81-9.8,6.91-15.7,0.47-2.53,3.15-6.66,6.55-5.09,3.68,1.69.18,4.81-.55,7.27s-4,5-.27,7.29c2.64,1.61,5.44.79,7.75-1.36s4.69-5,8-2.33a10.07,10.07,0,0,1,3.92,9.15,60.75,60.75,0,0,1-2.52,9.95c-0.54,1.8-1.77,4,.23,5s3.4-.85,4-2.73c0.79-2.41,1.34-5.52,4.57-4.84s5.08,3.5,5.13,7c0.05,4.12,1.58,8.91,5.61,8.13,4.4-.85,12.74-2.91,11.89-7.13-2.23-11,6.88-12.88,11.73-18,5.73-6,8-5.45,11.83,2.36l0.46,0.14C170.61,170.52,166.75,166.88,162.21,169.76Z"/><path class="cls-19" d="M170.67,176.85c0.17,0.35.34,0.7,0.52,1.08,0-.32,0-0.63-0.06-0.94Z"/><path class="cls-19" d="M63.57,187.39c6.44,1,12.58-1.44,18.9-1.79a10,10,0,0,0,.86-0.73c-6.42-3.17-13.05.73-19.54,0.06a17.49,17.49,0,0,1-.22,2.46h0Z"/><path class="cls-19" d="M84.53,185.54a12.19,12.19,0,0,0-1.21-.68,10,10,0,0,1-.86.73C83.15,185.56,83.84,185.52,84.53,185.54Z"/><path class="cls-10" d="M319.62,306.31a7.82,7.82,0,0,1,1.52-1.85c2-4.9,5.44-10.68,2-14.85-2.52-3.1-8-6.33-13.1-5.08-4.18,1-7.52,1-7.27-3.69,0.2-3.82,2-8.28,7.85-6.87a49.45,49.45,0,0,1,5.5,1.14c5.65,2.08,7.65-.27,8-4.82h0a6.89,6.89,0,0,1-.72-1.39c-5.94,1.93-10.81-2.07-16.12-3.42-4.13-1.05-6.85-1.21-6.47,4.13,0.29,4.16-1.72,6.36-5.72,7.06-3.2.56-4.44-1-5.33-2.93-1.35,10.82-8.44,15.44-19.24,11.66-3.48-1.22-4.32.3-5.94,2.33-5.57,7-7.93,7.39-15.39,1.85-4.45-3.31-8.72-4.16-14.12-2.1,11.05,11.57,17.54,12,28.8,2.77,5.31-4.36,11.16-4.28,16.21.1,3.3,2.85,6,4.32,9.87,1.56,2.54-1.8,5.5-2.53,7.39.58a6,6,0,0,1-2.89,8.79c-8.87,3.69-16.35,10.54-26.5,11.36-5.65.46-8.21,5.76-7.27,13.86,0.18,1.53,10,6,12,5.49a3.11,3.11,0,0,0,2.38-2.64c1-7.25,6.68-9.34,12.45-11.25,3.09-1,5.76-2.4,7.24-5.53,2-4.24,4.36-7.17,9.13-2.73a15.25,15.25,0,0,1,4,5.68l9.38-5.42C316.78,308.41,318.32,307.4,319.62,306.31Z"/><path class="cls-10" d="M294.74,312.56c-1.48,3.13-4.15,4.51-7.24,5.53-5.78,1.91-11.42,4-12.45,11.25a3.11,3.11,0,0,1-2.38,2.64c-2,.52-11.81-4-12-5.49-0.95-8.1,1.62-13.4,7.27-13.86,10.15-.82,17.63-7.67,26.5-11.36a6,6,0,0,0,2.89-8.79c-1.89-3.12-4.85-2.38-7.39-.58-3.89,2.76-6.58,1.29-9.87-1.56-5.05-4.37-10.9-4.46-16.21-.1-11.26,9.25-17.75,8.8-28.8-2.77,5.4-2.06,9.67-1.21,14.12,2.1,7.46,5.54,9.82,5.11,15.39-1.85,1.63-2,2.46-3.54,5.94-2.33,10.8,3.78,17.89-.84,19.24-11.66-0.48-1-.86-2.18-1.39-3.17h0c1,6.26-2.84,10-7.06,13.41-2.67,2.17-7.24,3.12-8.56.65-6-11.38-8.14-2.41-10.11,1.93-3.16,7-7.87,6.67-11.26,1.77-4.87-7-11.21-3.89-17.08-4.25-1.18-.07-3,1.33-3.58,2.52-1,2.08,1,3.18,2.34,4.52,3,3,8.47,2.72,9.94,7.68,1.72,5.83,3.85,3,7.23,1,6.45-3.78,13.86-5.65,20.2-10.08,2.31-1.62,7-1.25,9,3.85,1.88,4.74,6.36,4.57,10.18,1.78,2.09-1.52,3.65-5.78,6.44-2,1.87,2.52-.6,6.3-3.15,6.77-10.07,1.87-17.06,12-28.42,10.23-3.28-.52-7.08.13-6.22,4.62,1,5,3.47,9.83-2.92,13a4.46,4.46,0,0,0,.64,2.26c6.2,0.36,11.55,3,17.14,5.34l4.71-2.72a4.43,4.43,0,0,0,.24-2.86c-1.37-5.1,1-6.45,5.34-7.65,7.2-2,14.74-4.05,15.56-14.14,3.54,3.87,5.87,6.44,7.08,8.36l1.82-1a15.25,15.25,0,0,0-4-5.68C299.1,305.39,296.74,308.32,294.74,312.56Z"/><path class="cls-10" d="M323.4,268.89a6.89,6.89,0,0,0,.72,1.39h0c0-.48.05-1,0-1.51h0l-0.11-.12h0C323.84,268.75,323.62,268.81,323.4,268.89Z"/><path class="cls-10" d="M305.79,262.26c-5.52-2.14-8.4-1.16-7.9,5.38,0.18,2.32,3.11,5-1.42,6.87-3.64,1.54-5-.43-6.55-2.3,0,0.52-.1,1-0.16,1.52,0.89,1.94,2.12,3.5,5.33,2.93,4-.7,6-2.91,5.72-7.06-0.37-5.35,2.34-5.19,6.47-4.13,5.3,1.35,10.18,5.35,16.12,3.42-0.06-.17-0.11-0.34-0.16-0.51C317.41,266.37,311.54,264.49,305.79,262.26Z"/><path class="cls-10" d="M288.37,270.56c0.53,1,.91,2.13,1.39,3.17,0.06-.5.12-1,0.16-1.52A10.4,10.4,0,0,0,288.37,270.56Z"/><path class="cls-10" d="M323.4,268.89c0.22-.07.44-0.13,0.67-0.22h0l-0.83-.28C323.29,268.55,323.33,268.72,323.4,268.89Z"/><path class="cls-10" d="M321.07,304.62l0.07-.16a7.82,7.82,0,0,0-1.52,1.85A4.81,4.81,0,0,0,321.07,304.62Z"/><path class="cls-27" d="M252.08,243.27c2.37-.59,5-0.5,6-2.63l-0.7-.12c-6.85-2-12-9.64-20.48-6.19-3.25,1.32-8.6.75-8.42,5.59,0.19,5.15,5.12,5.32,9.23,5.51h0.94C242.29,241.76,247.7,244.35,252.08,243.27Z"/><path class="cls-27" d="M238.61,245.44h-0.94c-4.11-.19-9-0.36-9.23-5.51-0.17-4.84,5.17-4.27,8.42-5.59,8.51-3.45,13.63,4.21,20.48,6.19l0.7,0.12a5.2,5.2,0,0,0,.39-2.3c-1.76-.51-4.22-0.45-5.18-1.62-6.7-8.16-14.9-6.24-23.1-3.69-7.35,2.28-7.85,5.4-3,11.51,2.9,3.62,6.19,3.65,10,2.75h0A8.57,8.57,0,0,1,238.61,245.44Z"/><path class="cls-27" d="M260.57,241.07a25.37,25.37,0,0,1-2.53-.43c-1,2.13-3.59,2-6,2.63-4.38,1.08-9.8-1.51-13.47,2.17,3.45,0,6.91-.11,10.35.15,1.22,0.09,2.23.2,3.1,0.34a19.21,19.21,0,0,0,5.17-.77C261.23,243.92,261.46,242.58,260.57,241.07Z"/><path class="cls-27" d="M252.06,245.92c-0.87-.13-1.89-0.24-3.1-0.34-3.44-.26-6.9-0.12-10.35-0.15a8.57,8.57,0,0,0-1.39,1.85h0C242,245,247,246.07,252.06,245.92Z"/><path class="cls-27" d="M260.57,241.07a31.32,31.32,0,0,0-2.14-2.73,5.2,5.2,0,0,1-.39,2.3A25.37,25.37,0,0,0,260.57,241.07Z"/><path class="cls-28" d="M206,197.56c-5-.26-9.5,1.42-8.93,8,0.63,6.86,4.41,10.83,11.23,11.66,2,0.25,10.68-11.64,10.06-13.94C216.63,196.7,210.67,197.8,206,197.56Z"/><path class="cls-3" d="M232.4,105.09a0.73,0.73,0,0,1-.08.4,1,1,0,0,1-.67.64c7.41-1.28,13.67,3.86,20.88,3.73h0A38.55,38.55,0,0,0,232.4,105.09Z"/><path class="cls-3" d="M239.24,104.34a100,100,0,0,1,10.93,3.17C246.93,105,243.14,104.46,239.24,104.34Z"/><path class="cls-3" d="M250.17,107.51a100,100,0,0,0-10.93-3.17c-2.5-.08-5,0-7.51-0.2a1.4,1.4,0,0,1,.67.95,38.55,38.55,0,0,1,20.13,4.78A14.13,14.13,0,0,0,250.17,107.51Z"/><path class="cls-3" d="M232.32,105.5a0.73,0.73,0,0,0,.08-0.4h-0.14l-0.55-.42-0.05,1.46A1,1,0,0,0,232.32,105.5Z"/><path class="cls-3" d="M231.71,104.68l0.55,0.42h0.14a1.4,1.4,0,0,0-.67-0.95h0Z"/><path class="cls-23" d="M196.37,303.94c-3.15,1.77-2.93,4.37-1.36,7.46,3.37-1,4.35-3.19,3.53-6.27A2.6,2.6,0,0,0,196.37,303.94Z"/><path class="cls-29" d="M131.93,97.2c-0.88,4.85-3.46,5.41-6.88,5.3a4.51,4.51,0,0,1-1.91,4.7,5.29,5.29,0,0,1-.73.39c1.89,4.79,8.71,6.42,9.25,12.07l0.34,0c8.67,4,8.93,12,9.48,20,0.21,3-.51,7.08,3.13,8.12s3.9-3.34,5.67-5.28,3.46-3.78,5.8-4.71c7.16-2.86,13.86-5.88,14-15.28a4.58,4.58,0,0,1,3.67-4c12.24-.83,18.12-12.14,28-16.82-9.61-3.81-2.16-7.64.67-11.47l-0.47-.49c-4.37-.49-8.37-1.6-10.81-5.43-3.15,3.34-5,1.73-6.77-.54-0.43,3-2.83,4.33-5.91,3.58-10.64-2.6-21.46,1.67-32-1.33-0.76,0-1.5-.06-2.23-0.05C139.67,89.4,133.11,90.72,131.93,97.2Zm7.21,4.13h0c-5.47-6.2-.21-8.94,4.09-11.22,5.57-3,27.74,1.62,32,6.09,1.48,1.57,2.11,3.12-.46,4.3-3.25,5.24,2.45,5.09,4.37,7.19s2.87,4.65,1.16,6.79c-1.92,2.4-3.83-.06-5.51-1.2a45,45,0,0,0-3.74-2.84c-4.95-2.61-10.39-4.44-14.65.46s2.34,7.48,3.69,11.22c0.78,2.17,4,2.95,4.83,6.86-5.48-2.22-10.49-5.79-15.68-.62-1.38,1.38-3.52-1-4.14-2.72-1.56-4.3-3.48-7.5-8.48-9.06s-2.69-4.46.24-6.72S144.12,105.74,139.14,101.34Z"/><path class="cls-29" d="M184.35,83.81c1.73,2.28,3.62,3.88,6.77.54a11.23,11.23,0,0,1-.68-1.15h0c-3.36,4.4-4-1.19-6.08-1.63h0A7.81,7.81,0,0,1,184.35,83.81Z"/><path class="cls-29" d="M144.21,86c0.73,0,1.48,0,2.23.05,10.53,3,21.36-1.27,32,1.33,3.08,0.75,5.48-.56,5.91-3.58-0.24-.31-0.47-0.63-0.7-1-1.76,3-3.77,5-7.58,1-1-1-3.45-2.25-4-1.82-8.16,6.57-17,1-25.38,1.59h0A12.05,12.05,0,0,1,144.21,86Z"/><path class="cls-29" d="M184.36,81.57c-0.23.44-.47,0.87-0.71,1.28,0.23,0.32.46,0.64,0.7,1A7.81,7.81,0,0,0,184.36,81.57Z"/><path class="cls-29" d="M123.14,107.2a4.51,4.51,0,0,0,1.91-4.7l-1.05,0h0c-0.06,1.57-.43,3-2,3.77a6.69,6.69,0,0,0,.39,1.36A5.29,5.29,0,0,0,123.14,107.2Z"/><path class="cls-29" d="M173.76,118.55a4.58,4.58,0,0,0-3.67,4c-0.16,9.39-6.86,12.42-14,15.28-2.34.93-4.08,2.82-5.8,4.71s-2.15,6.3-5.67,5.28-2.92-5.09-3.13-8.12c-0.54-7.92-.81-15.93-9.48-20l-0.34,0a7.91,7.91,0,0,1,0,1.64h0c5.52,2.81,6.49,8.19,7.29,13.47a42.89,42.89,0,0,1,.11,9.43c-0.32,4.35,2.55,6.63,5.74,7.63,3.34,1.05,4.79-2.13,5.59-4.88,1.88-6.47,7.94-7.54,12.81-10.14,2.19-1.17,6.26-1.72,6.53-3.12,1.7-8.7,2.48-17.64,15.27-14.29a1.25,1.25,0,0,0,.62-0.66c3.76-7.82,12.29-10.47,17.78-16.41-0.61-.2-1.14-0.4-1.65-0.6C191.88,106.41,186,117.72,173.76,118.55Z"/><path class="cls-29" d="M201.93,89.78l0.47,0.49a3.81,3.81,0,0,0,1-2.63h0c-4.71.78-8.07-2.36-11.94-4a7.68,7.68,0,0,1-.27.72l0,0C193.56,88.17,197.56,89.29,201.93,89.78Z"/><path class="cls-29" d="M191.16,84.31a7.68,7.68,0,0,0,.27-0.72c-0.32-.14-0.65-0.27-1-0.39a11.23,11.23,0,0,0,.68,1.15Z"/><path class="cls-30" d="M198.72,35.92a6.87,6.87,0,0,1,.07,1.5,15.89,15.89,0,0,1-1.17,2.7c-0.29,3.39-2.26,5.65-4.82,7.51a19.25,19.25,0,0,0-1.06,2c-1,2.23-1.27,4.42.45,6.46a7.45,7.45,0,0,0,.93.62c1.62-.72,2.6-2.27,3.36-4.52,1-3,2.44-5.89,5.17-7.41,0.53-.76,1-1.53,1.53-2.32,3.73-5.93,5.86-12.8,10.25-18.34l-7.62-4.4a10.56,10.56,0,0,0-.71,3.19C204.74,28.14,204.41,33.57,198.72,35.92Z"/><path class="cls-30" d="M201.65,44.83a8.71,8.71,0,0,1,3.47-1h0c3.37-6.19,5.94-12.82,10-18.65l-1.67-1c-4.4,5.53-6.52,12.41-10.25,18.34C202.7,43.3,202.18,44.06,201.65,44.83Z"/><path class="cls-30" d="M197.62,38.18a10.94,10.94,0,0,1,0,1.95,15.89,15.89,0,0,0,1.17-2.7,6.87,6.87,0,0,0-.07-1.5c-0.32.13-.66,0.26-1,0.37Q197.65,37.24,197.62,38.18Z"/><path class="cls-30" d="M190,49.44h0c-2.57,2.58-2.6,5.16,0,7.73a6.13,6.13,0,0,0,3.1-.42,7.45,7.45,0,0,1-.93-0.62c-1.72-2-1.43-4.23-.45-6.46a19.25,19.25,0,0,1,1.06-2c-0.88.64-1.82,1.24-2.8,1.82h0Z"/><path class="cls-30" d="M202.46,20.32c2.05,6.26-1.53,10.12-4,14.52a6.12,6.12,0,0,1,.26,1.08c5.68-2.35,6-7.78,6.38-13a10.56,10.56,0,0,1,.71-3.19l-2.93-1.69A2.87,2.87,0,0,0,202.46,20.32Z"/><path class="cls-30" d="M198.72,35.92a6.12,6.12,0,0,0-.26-1.08c-0.27.48-.52,1-0.76,1.45C198.07,36.18,198.4,36.06,198.72,35.92Z"/><path class="cls-19" d="M197.55,53.87c-0.83,4.4-3.57,5.49-7.53,3.31,4.82,5.67,8.64,4.94,9.18-2.46,0.37-5,4.37-7.11,5.93-10.94h0C201.48,46.3,198.44,49.15,197.55,53.87Z"/><path class="cls-19" d="M197.19,53.85c0.58-3.53,2.56-6.25,4.46-9-2.73,1.52-4.16,4.41-5.17,7.41-0.76,2.25-1.74,3.8-3.36,4.52C195.64,58.21,196.77,56.44,197.19,53.85Z"/><path class="cls-19" d="M197.55,53.87c0.89-4.72,3.93-7.57,7.58-10.08a8.71,8.71,0,0,0-3.47,1c-1.9,2.77-3.88,5.49-4.46,9-0.42,2.59-1.55,4.36-4.07,2.9a6.13,6.13,0,0,1-3.1.42C194,59.36,196.72,58.27,197.55,53.87Z"/><path class="cls-19" d="M190,49.44a42.48,42.48,0,0,0,7.61-11.27A21,21,0,0,0,190,49.44Z"/><path class="cls-19" d="M197.63,40.12c-1.39,2.63-3.33,4.94-4.82,7.51C195.36,45.77,197.33,43.51,197.63,40.12Z"/><path class="cls-19" d="M190,49.44h0c1-.58,1.92-1.18,2.8-1.82,1.49-2.57,3.43-4.88,4.82-7.51a10.94,10.94,0,0,0,0-1.95A42.48,42.48,0,0,1,190,49.44Z"/><path class="cls-30" d="M98.17,59c5.49,12.75.94,20.3-12.52,22.11-4.51.61-8.33,3-12.55,4-0.34.34-.7,0.68-1.1,1-0.49.61-1,1.18-1.57,1.74,5.29,2.21,10.23,2.41,16.45.54A229.42,229.42,0,0,1,120.23,81c0.24,0.2.48,0.42,0.72,0.65a6,6,0,0,0,4.91-3.69c-0.14,0-.27-0.06-0.42-0.11-0.7-8.83,6.87-13.57,10.44-20.21C142.16,45.88,147,34,148,20.71c0.52-6.81,5-9.88,11.85-8.26a33.81,33.81,0,0,1,7.89,3.12c7.49,4,8.65,8.24,3.87,15.15-3.93,5.68-8.31,11-12.05,16.88a24.6,24.6,0,0,0-3.86,10c11.94-15.48,21.53-32.22,32.19-48.18L171.57,0,97.87,42.55A20.43,20.43,0,0,0,98.17,59Z"/><path class="cls-30" d="M72,86.15c0.39-.34.75-0.68,1.1-1a15.25,15.25,0,0,1-3.58.47h0a14.92,14.92,0,0,0-.3,1.77h0c0.41,0.19.8,0.34,1.21,0.51C71,87.33,71.51,86.77,72,86.15Z"/><path class="cls-30" d="M159.54,47.6c3.75-5.84,8.12-11.2,12.05-16.88,4.78-6.91,3.62-11.2-3.87-15.15a33.81,33.81,0,0,0-7.89-3.12C153,10.83,148.51,13.9,148,20.71,147,34,142.16,45.88,135.88,57.6c-3.57,6.64-11.13,11.39-10.44,20.21,0.14,0,.28.07,0.42,0.11l0-.06h0c0.73-6.44,6.36-9.93,9.65-14.61,7-10,9.13-21.69,14.07-32.32,1.32-2.84,2.7-4.45,1-8.27-2.65-6,2.33-10.24,8.72-8.22A46.46,46.46,0,0,1,168,18c4.32,2.42,6.85,5.36,2.68,10.45a177.72,177.72,0,0,0-14.29,19.41c-2.76,4.5-5.09,9.85-2.62,15.41,11.2-10.48,16.66-23.82,25-35.29,4-5.55,7.58-11.46,11.27-17.26l-2.2-1.27c-10.66,16-20.25,32.7-32.19,48.18A24.6,24.6,0,0,1,159.54,47.6Z"/><path class="cls-30" d="M70,88.39a19,19,0,0,0,4.48,3.83C81,96.67,84.85,89.88,90,89.29c10.46-1.19,20.6-3.38,30.28-7.58l0.63-.1c-0.24-.22-0.48-0.44-0.72-0.65a229.42,229.42,0,0,0-33.35,7.47c-6.21,1.87-11.16,1.67-16.45-.54l-0.15.17C70.16,88.17,70.07,88.28,70,88.39Z"/><path class="cls-30" d="M70.27,88.07l0.15-.17c-0.4-.17-0.8-0.32-1.21-0.51a10.3,10.3,0,0,0,.74,1C70.07,88.28,70.16,88.17,70.27,88.07Z"/><path class="cls-8" d="M83.36,54.55c-5.13-.4-8,2.82-10.76,6.43s-4,7.06,0,10.75,4.63,7.15,2.72,10.59a34.79,34.79,0,0,1,13.1-4.23c6.81-.61,8.92-4.84,8.52-11-0.12-1.88,0-3.85-.69-5.58a25.28,25.28,0,0,1-1-17.37l-1.44.83c-1.27,2.39-2.55,4.77-3.66,7.18S86,54.75,83.36,54.55Z"/><path class="cls-8" d="M71.55,73.74c6.68,5.25.82,8.29-2,11.87h0c1.9-1.15,3.81-2.27,5.76-3.29,1.91-3.44,1.1-7-2.72-10.59s-2.78-7.08,0-10.75,5.63-6.83,10.76-6.43c2.6,0.2,5.57,0,6.72-2.44s2.4-4.8,3.66-7.18L90,47.07c-0.85,4.22-2.18,5.92-8,4.88l-0.41,0L71.17,58A72.07,72.07,0,0,1,66.77,65C63.8,68.73,68.68,71.48,71.55,73.74Z"/><path class="cls-8" d="M96.22,61.47c0.71,1.73.57,3.7,0.69,5.58,0.4,6.21-1.71,10.44-8.52,11a34.79,34.79,0,0,0-13.1,4.23,12.74,12.74,0,0,1-2.18,2.81c4.21-1,8-3.41,12.55-4,13.47-1.81,18-9.36,12.52-22.11a20.43,20.43,0,0,1-.3-16.46L95.19,44.1A25.28,25.28,0,0,0,96.22,61.47Z"/><path class="cls-8" d="M75.28,82.32c-2,1-3.86,2.14-5.76,3.29a15.25,15.25,0,0,0,3.58-.47A12.74,12.74,0,0,0,75.28,82.32Z"/><path class="cls-31" d="M51.55,182.44c2.44,1.4,5.07,2.44,7.61,3.67h0a8.35,8.35,0,0,1,3.05-1c-2.6-4.48-5.18-8.8-10-12C38.78,164,40,149.47,54.19,141.7c3.58-2,7.28-3.93,11.46-3.67,7,0.42,12.24-1.58,14.84-8.61,1.16-3.14,3.77-4.08,6.85-3.34a11.94,11.94,0,0,0,8-1.13l-13.61-5.42c3.56,6.22.14,7.34-5.37,7A19.8,19.8,0,0,0,74.68,125c-8.23,3.48-16.73,6.29-24.38,11.13C30.51,148.66,31,170.71,51.55,182.44Z"/><path class="cls-31" d="M76.39,126.47c5.51,0.39,8.93-.73,5.37-7l-0.92-.37-0.45.41c3.82,7.75-2.44,5-5.65,5.41h0l-0.06,0A19.8,19.8,0,0,1,76.39,126.47Z"/><path class="cls-31" d="M35.15,146.94c-1.55,1.83-1.67,3.92-1.83,6.15-1.17,16.19,7.25,28.23,24.2,34.49a5.85,5.85,0,0,1,1.64-1.46h0c-2.54-1.23-5.16-2.27-7.61-3.67-20.51-11.73-21-33.78-1.25-46.31C58,131.29,66.45,128.48,74.68,125l0,0C57.79,125.63,45.56,134.64,35.15,146.94Z"/><path class="cls-31" d="M74.68,125l0.06,0H74.66Z"/><path class="cls-31" d="M61.63,187.45l1.94-.06h0c-0.46-.77-0.91-1.55-1.35-2.32a8.35,8.35,0,0,0-3.05,1,8.25,8.25,0,0,1,1.67.83A6.78,6.78,0,0,0,61.63,187.45Z"/><path class="cls-31" d="M61.63,187.45a6.78,6.78,0,0,1-.8-0.51,8.25,8.25,0,0,0-1.67-.83,5.85,5.85,0,0,0-1.64,1.46h0Z"/><path class="cls-31" d="M95.37,124.94a11.94,11.94,0,0,1-8,1.13c-3.08-.74-5.68.2-6.85,3.34-2.6,7-7.87,9-14.84,8.61-4.19-.25-7.88,1.72-11.46,3.67C40,149.47,38.78,164,52.24,173c4.79,3.23,7.38,7.56,10,12q0.65-.1,1.31-0.17l0.26,0c0.1-5.81-3.09-9.66-8.57-12.63-3.68-2-7.46-4-8.8-9.07-3.42-12.88,7-24.37,22.35-22.75C76,141.23,80.2,138,81.69,132.8c1.55-5.47,3.61-5.63,7.7-3.83s6.72,1.48,6.29-3.9h0Z"/><path class="cls-31" d="M62.22,185.08c0.45,0.77.89,1.54,1.35,2.32a17.49,17.49,0,0,0,.22-2.46l-0.26,0Q62.86,185,62.22,185.08Z"/><path class="cls-31" d="M70.86,109.48a4.47,4.47,0,0,1-.64-2.43c-1.32,2.72-4.5,4.53-6.52,7.29,3.92,1.06,8,1,11.78,1.93C73.45,114.68,72.38,111.74,70.86,109.48Z"/><path class="cls-31" d="M80.7,118.54c-0.07-.34-0.15-0.68-0.19-1h0l-0.34-.2a7.47,7.47,0,0,1-1.41.1A13,13,0,0,1,80.7,118.54Z"/><path class="cls-31" d="M78.76,117.41a5.24,5.24,0,0,1-3.28-1.13c-3.75-.91-7.85-0.87-11.78-1.93,2-2.76,5.2-4.57,6.52-7.29a8.64,8.64,0,0,0-.52-3.75,3.36,3.36,0,0,0-.57-0.81c0.76,5.73-4.34,6.79-7.51,9.35-1.4,1.13-3.5,1.87-2.6,4.18,0.69,1.76,2.6,1.54,4,1.38,6-.63,11.59,1.15,17.34,2.14l0.41-.43c0-.2-0.07-0.4-0.11-0.59A13,13,0,0,0,78.76,117.41Z"/><path class="cls-31" d="M70.86,109.48c1.52,2.25,2.59,5.2,4.62,6.8a16.81,16.81,0,0,1,3.28,1.13,7.47,7.47,0,0,0,1.41-.1c-5-2.75-6.62-8-9.36-12.43a6,6,0,0,1-.58,2.18A4.47,4.47,0,0,0,70.86,109.48Z"/><path class="cls-31" d="M78.76,117.41a16.81,16.81,0,0,0-3.28-1.13A5.24,5.24,0,0,0,78.76,117.41Z"/><path class="cls-31" d="M70.22,107.06a6,6,0,0,0,.58-2.18c-0.34-.55-0.72-1.05-1.1-1.57A8.64,8.64,0,0,1,70.22,107.06Z"/><path class="cls-30" d="M80.51,117.51a1.07,1.07,0,0,1,.55,1,1.94,1.94,0,0,1-.06.25l0.14,0.11,0.33-.3c5.92-.59,11.14.36,14.1,6.26l0.75-.36c7.09,4.69,7.17,6.57-.06,10.17-2.64,1.31-4.6,2.48-5.54,5.6C87,152.64,86.23,153,73.9,149.15c-1.19-.37-2.4-0.63-3.61-0.88h0a3.93,3.93,0,0,0,.49.73c7.53,8.76,8.2,12.69,1.49,18.88,2.35,0,4.69-.07,5.86-2.76,3.9-9,11.82-13.61,19.52-18.31,5.71-3.49,7.94-7.53,5.32-14A15.31,15.31,0,0,1,104,118.43a21,21,0,0,0,3.09-11.66c-0.17-5.53,2.44-8.95,7.67-10.26,4.86-1.22,8,.86,9.91,5.09,1.47-1.5,3.58-2.39,4.46-4.41a21.46,21.46,0,0,1,9.44-10.44,14.6,14.6,0,0,0-6,3.46c-4,3.75-9.32,4.87-14.75,5.15-3.43.18-6.87,0-10.3,0.28C87.9,97.17,86.5,98.32,81.37,117c-0.3.09-.58,0.14-0.85,0.2,0,0.1,0,.18,0,0.28h0Z"/><path class="cls-30" d="M81,118.78a0.41,0.41,0,0,1-.19.36l0,0,0.29-.27Z"/><path class="cls-30" d="M107.58,95.64c3.43-.27,6.87-0.1,10.3-0.28,5.43-.28,10.77-1.39,14.75-5.15a14.6,14.6,0,0,1,6-3.46,33.92,33.92,0,0,1,8.1-3.17h0c-3.7.2-8.38-1.64-10.89,1.12-8.27,9.09-18.89,7.55-29.41,8.48-21.5,1.9-25.42,4.41-25.89,24,0.28-.06.55-0.11,0.85-0.2C86.5,98.32,87.9,97.17,107.58,95.64Z"/><path class="cls-30" d="M69.3,170.41c3.89-.29,9.06,1.54,10.78-3.36,3.83-10.87,13.71-14.94,22.19-20.24,4-2.49,6.28-5.46,4.51-8.66-5.24-9.47-1.54-17.57,2.23-26,0.63-1.39,1.51-3.27,1-4.44-1.74-4.38-.47-6.73,3.68-8.89,5.13-2.66,7.39.86,10.25,3.58h0a6,6,0,0,1,.71-0.85c-1.88-4.23-5.05-6.31-9.91-5.09-5.23,1.31-7.84,4.73-7.67,10.26A21,21,0,0,1,104,118.43,15.31,15.31,0,0,0,103,132.82c2.62,6.46.39,10.5-5.32,14-7.7,4.71-15.62,9.36-19.52,18.31-1.17,2.69-3.51,2.76-5.86,2.76-0.87.8-1.84,1.63-3,2.52h0Z"/><path class="cls-30" d="M95.68,125.06c2.16,1.24,5,2.55,4.23,5.38-0.6,2.33-3.46,2.24-5.67,2.19-3.47-.08-5.68.64-6.23,4.95-1.6,12.49-1.81,12.43-14.15,8.81a30.62,30.62,0,0,0-4.6-.64c0.37,0.82.61,1.74,1,2.52h0c1.21,0.26,2.42.52,3.61,0.88,12.33,3.8,13.1,3.49,16.82-8.89,0.94-3.12,2.9-4.29,5.54-5.6,7.23-3.6,7.15-5.48.06-10.17l-0.75.36,0.11,0.21h0Z"/><path class="cls-30" d="M125,102.5c3.42,0.11,6-.45,6.88-5.3,1.18-6.48,7.74-7.81,12.28-11.2a19.84,19.84,0,0,0-5.62.76,21.46,21.46,0,0,0-9.44,10.44c-0.88,2-3,2.91-4.46,4.41,0.11,0.24.23,0.46,0.33,0.72C125,102.38,125,102.44,125,102.5Z"/><path class="cls-30" d="M144.21,86a12.05,12.05,0,0,0,2.49-2.41,33.92,33.92,0,0,0-8.1,3.17A19.84,19.84,0,0,1,144.21,86Z"/><path class="cls-30" d="M125,102.5c0-.06,0-0.12,0-0.18-0.1-.26-0.22-0.48-0.33-0.72a6,6,0,0,0-.71.85Z"/><path class="cls-30" d="M95.57,124.85c-3-5.9-8.18-6.85-14.1-6.26l-0.33.3c0.16,0.13.33,0.24,0.48,0.38l0.14,0.26,13.61,5.42Z"/><path class="cls-30" d="M81.62,119.26c-0.16-.14-0.32-0.25-0.48-0.38l-0.29.27,0.92,0.37Z"/><path class="cls-30" d="M95.68,125.06h0l-0.11-.21-0.19.09Z"/><path class="cls-30" d="M80.51,117.51c0,0.35.12,0.69,0.19,1l0.3,0.23a1.94,1.94,0,0,0,.06-0.25A1.07,1.07,0,0,0,80.51,117.51Z"/><path class="cls-30" d="M81,118.78l-0.3-.23c0,0.2.06,0.4,0.11,0.59A0.41,0.41,0,0,0,81,118.78Z"/><path class="cls-32" d="M126.6,83c4.42-3,10.12-3.42,14.14-7.08,1-.92.58-2.41-0.58-3.26-1.44-1.06-2.88-.59-4.38.11-3.36,1.58-5.19,6.35-9.9,5.12,0.09,3.64-1.33,5.1-4.37,4.21C122.91,83.43,124.39,84.53,126.6,83Z"/><path class="cls-32" d="M135.78,72.8c1.5-.7,2.94-1.16,4.38-0.11,1.16,0.85,1.58,2.35.58,3.26-4,3.66-9.72,4.1-14.14,7.08-2.21,1.49-3.69.39-5.09-.9a10.35,10.35,0,0,1-1.19-.42c-0.55,6.35,2.84,6.21,6.91,3.91,3.83-2.16,7.52-4.51,11.9-5.44,2.37-.5,5.32-0.2,5.56-3.78,0.21-3.05-.88-5.83-3.43-7.3-2.79-1.6-5.37-.2-7.61,1.94-2.49,2.38-5.17,4.55-7.77,6.81h0s0,0,0,.06C130.59,79.15,132.42,74.38,135.78,72.8Z"/><path class="cls-32" d="M125.88,77.92h0a6,6,0,0,1-4.91,3.69l0.56,0.53C124.55,83,126,81.56,125.88,77.92Z"/><path class="cls-32" d="M125.88,77.86l0,0.06h0S125.88,77.88,125.88,77.86Z"/><path class="cls-32" d="M121.51,82.14l-0.56-.53-0.63.1A10.35,10.35,0,0,0,121.51,82.14Z"/><path class="cls-22" d="M333.55,290.6c-2,1-4.23-.46-5.4-2.64a3,3,0,0,1,1-4.15c9.26-5,4.19-7.7-1.54-10.44a8.28,8.28,0,0,1-2.37-1.81c0.78,3.77-2.14,5.36-6.32,6.07-1.84.31-3.7-.47-5.56-0.65-2.79-.27-6.41-0.85-6.61,3-0.16,3,3.35,1.83,5.29,2.24,14.13,3,18,10.12,11.49,20.79a7.67,7.67,0,0,1,2.89-.6,28.1,28.1,0,0,0,5.22-.57l10.65-6.15v-5.51C339.45,289.49,336.6,289.06,333.55,290.6Z"/><path class="cls-22" d="M336.18,287.75c-2.14,1.85-5.19,2.53-6.45-.09-1.78-3.7,2.29-3.27,4.25-4.24,2.15-1.06,5.12-1.51,5-4.71-0.1-3-2.68-3.62-5.05-4.63a107.11,107.11,0,0,1-9.75-5.3h0a10.69,10.69,0,0,1,1.05,2.77,8.28,8.28,0,0,0,2.37,1.81c5.73,2.74,10.8,5.41,1.54,10.44a3,3,0,0,0-1,4.15c1.17,2.18,3.44,3.63,5.4,2.64,3-1.54,5.9-1.1,8.72-.44v-3.75C340.62,285.55,338.72,285.54,336.18,287.75Z"/><path class="cls-22" d="M323.51,303a43,43,0,0,1-3.11,4.41c-0.51.64-1.22,1.21-1.7,1.88l3.47-2c2.13-2.64,4.4-4.73,6-3.53l0,0,3.38-1.95a28.1,28.1,0,0,1-5.22.57A7.67,7.67,0,0,0,323.51,303Z"/><path class="cls-22" d="M317.28,310.1l1.31-.76a7.67,7.67,0,0,1,1-3C318.32,307.4,316.78,308.41,317.28,310.1Z"/><path class="cls-22" d="M316.17,275.11a49.45,49.45,0,0,0-5.5-1.14c-5.85-1.41-7.65,3-7.85,6.87-0.25,4.66,3.09,4.72,7.27,3.69,5.09-1.25,10.58,2,13.1,5.08,3.39,4.17,0,9.95-2,14.85a8.29,8.29,0,0,1,2.37-1.47c6.51-10.68,2.64-17.77-11.49-20.79-1.94-.41-5.44.8-5.29-2.24,0.2-3.83,3.82-3.26,6.61-3,1.86,0.18,3.72,1,5.56.65,4.19-.71,7.11-2.3,6.32-6.07-0.39-.4-0.76-0.82-1.1-1.26C323.82,274.84,321.82,277.19,316.17,275.11Z"/><path class="cls-22" d="M325.23,271.56a10.69,10.69,0,0,0-1.05-2.77c0,0.53,0,1,0,1.51C324.47,270.73,324.84,271.15,325.23,271.56Z"/><path class="cls-22" d="M323.51,303a8.29,8.29,0,0,0-2.37,1.47l-0.07.16a4.81,4.81,0,0,1-1.45,1.69,7.67,7.67,0,0,0-1,3l0.1-.06c0.48-.67,1.2-1.24,1.7-1.88A43,43,0,0,0,323.51,303Z"/><path class="cls-12" d="M174.94,189.34a42.23,42.23,0,0,0-2,7.53c0.78-1.56,1.7-3.08,2.51-4.6C176.69,189.91,176.08,189.42,174.94,189.34Z"/><path class="cls-12" d="M166.18,216.06c-0.81.94-4.69,7.27,3.72,6.86,5.76-.28,5.14,6.55,5.72,11.79,3.39-4.82.91-8.15-.83-11.76-2.3-4.77-5.7-9.6-1.83-15a9.94,9.94,0,0,1-1.48-3.37A25.33,25.33,0,0,1,166.18,216.06Z"/><path class="cls-12" d="M174.79,222.94c1.74,3.61,4.22,6.94.83,11.76-0.58-5.24,0-12.07-5.72-11.79-8.41.41-4.53-5.92-3.72-6.86a25.33,25.33,0,0,0,5.3-11.5c-0.59-2.72.23-5.24,1.45-7.69a42.23,42.23,0,0,1,2-7.53c-0.53,0-1.16,0-1.79,0-2.29,13.52-12.4,25.17-10.14,40,4.29,0.16,3.59-6.73,7.1-5,6.09,3,1,9.88,4.23,15,6.34-4.58,9.08-9.36,3.31-16.24-3.6-4.29-4.7-9.43-4.53-14.91h0c-0.06-.09-0.1-0.17-0.16-0.26C169.09,213.35,172.49,218.18,174.79,222.94Z"/><path class="cls-12" d="M177.53,182.09l-2.08,3.46c0,0.84,0,1.68,0,2.54-0.19.41-.35,0.83-0.51,1.25,1.14,0.07,1.75.56,0.5,2.92-0.81,1.52-1.73,3-2.51,4.6-0.48,2.56-.88,5.15-1.45,7.69a9.94,9.94,0,0,0,1.48,3.37l0.11-.15C171.56,199.17,181.44,192.34,177.53,182.09Z"/><path class="cls-12" d="M173,207.93c0.06,0.09.1,0.17,0.16,0.26,0-.14,0-0.27-0.05-0.4Z"/><path class="cls-12" d="M171.49,204.56c0.57-2.54,1-5.13,1.45-7.69C171.72,199.32,170.89,201.84,171.49,204.56Z"/><path class="cls-12" d="M174.94,189.34c0.16-.42.33-0.84,0.51-1.25,0-.86,0-1.71,0-2.54l-2.3,3.82C173.78,189.36,174.41,189.31,174.94,189.34Z"/><path class="cls-33" d="M188.92,273.14c-0.26-9.18-7.69-12.77-10.39-19-0.83-1.92-5.27-.46-5.44,3.45-0.25,6-2.85,11-8.74,17.08C174,273.53,180.79,267.17,188.92,273.14Z"/><path class="cls-34" d="M102.43,299.21c-2.64-1.66-4.5,2.17-6.71,3.58-0.75,7.46,4,6.25,8.53,5.42C105.79,304.75,105.24,301,102.43,299.21Z"/><path class="cls-7" d="M99.65,296.94c-3.93.21-4.23,2.82-3.94,5.84,1.6-2.53,3.32-6.19,6.76-4.14s5.55,5.58,1.77,9.56c4.16-2.16,3.08-5.61,1.78-8.71C104.91,296.83,102.21,296.81,99.65,296.94Z"/><path class="cls-7" d="M102.47,298.65c-3.44-2-5.15,1.61-6.76,4.14,2.21-1.41,4.07-5.23,6.71-3.58,2.81,1.76,3.36,5.54,1.82,9C108,304.23,105.81,300.64,102.47,298.65Z"/><path class="cls-35" d="M102.55,240.27c-2-2.62-4.64-4.89-4.49-8.59-2.43,1-4.95,0-7.41-.12-5.77-.35-10.86.62-12.57,7.1-1.63,6.17.58,11.15,5.88,14.55s11.38,5.15,17.22,7.39a15.88,15.88,0,0,1,1.92.85,3,3,0,0,0,.57-0.59C108.31,253.71,107.59,246.85,102.55,240.27Z"/><path class="cls-35" d="M102.55,240.27c5,6.58,5.76,13.44,1.12,20.59a3,3,0,0,1-.57.59,5.07,5.07,0,0,1,1.91,1.68c5.39-5.18,5.43-18.72,0-23.88-2.47-2.35-5.56-4.18-6.11-8h0a5.73,5.73,0,0,1-.84.41C97.91,235.38,100.54,237.65,102.55,240.27Z"/><path class="cls-35" d="M101.18,260.6c-5.83-2.25-11.91-4-17.22-7.39s-7.52-8.37-5.88-14.55c1.71-6.48,6.79-7.45,12.57-7.1,2.46,0.15,5,1.11,7.41.12,0-.09,0-0.16,0-0.25s0.11-.3.17-0.44Q82.89,224.4,77,234.85c-4,7.09-2.85,16.12,3.91,19.72,6.29,3.35,12.78,6.74,20,8a8.27,8.27,0,0,0,2.29-1.16A15.88,15.88,0,0,0,101.18,260.6Z"/><path class="cls-35" d="M103.1,261.45a8.27,8.27,0,0,1-2.29,1.16,33.7,33.7,0,0,0,4.2.52A5.07,5.07,0,0,0,103.1,261.45Z"/><path class="cls-35" d="M98.06,231.68a5.59,5.59,0,0,0,.84-0.41L98.22,231c-0.06.15-.11,0.29-0.17,0.44S98.06,231.59,98.06,231.68Z"/><path class="cls-36" d="M58.84,149.48c-6.71,5.28-5.9,13.42,1.85,17.17,2.91,1.41,6,1.39,9.12,1.32a12.91,12.91,0,0,1,1.34-.08c4-6.56,1.27-13.12-1-19.67C66.19,147.07,62.46,146.63,58.84,149.48Z"/><path class="cls-36" d="M69.8,168c-3.11.07-6.2,0.09-9.12-1.32-7.74-3.75-8.56-11.89-1.85-17.17,3.62-2.85,7.35-2.41,11.26-1.26-0.29-.82-0.57-1.64-0.84-2.47-3-.93-5.69-2.16-8.92-0.11-6,3.79-10.9,8.13-8.35,15.92,2.72,8.32,9.63,9.61,17.3,8.85h0a17.18,17.18,0,0,0,1.84-2.52A12.91,12.91,0,0,0,69.8,168Z"/><path class="cls-36" d="M71.14,167.89h1.12c6.71-6.19,6-10.12-1.49-18.88a3.93,3.93,0,0,1-.49-0.73l-0.19-.05C72.41,154.77,75.11,161.32,71.14,167.89Z"/><path class="cls-36" d="M69.31,170.41c1.12-.89,2.09-1.72,3-2.52H71.14A17.18,17.18,0,0,1,69.31,170.41Z"/><path class="cls-36" d="M70.1,148.22l0.19,0.05c-0.41-.78-0.66-1.7-1-2.52C69.53,146.57,69.81,147.39,70.1,148.22Z"/><path class="cls-37" d="M202.43,101.41l0.42-.2c5.65-1.92,5.83-4.32.28-10.19C202.1,94.48,199.4,97.95,202.43,101.41Z"/><path class="cls-37" d="M203.13,91c5.54,5.88,5.36,8.28-.28,10.19l-0.42.2a8.71,8.71,0,0,0,1,.93c3.46-.44,7.24,1.28,11.25-1.55C211,97.29,205.24,95.55,208,89c0.6-1.43-2.86-1.36-4.62-1.39h0A6.39,6.39,0,0,1,203.13,91Z"/><path class="cls-37" d="M203.13,91l-0.73-.75c-2.83,3.82-10.29,7.66-.67,11.47l0.7-.32C199.4,97.95,202.1,94.48,203.13,91Z"/><path class="cls-37" d="M203.13,91a6.39,6.39,0,0,0,.23-3.39,3.81,3.81,0,0,1-1,2.63Z"/><path class="cls-37" d="M201.73,101.73c0.51,0.2,1,.4,1.65.6a8.71,8.71,0,0,1-1-.93Z"/><path class="cls-30" d="M121.91,107.79a19.08,19.08,0,0,0-4.38,1.71c3.26,4.86,6.72,9.11,12.72,10C127,115.92,121.93,113.46,121.91,107.79Z"/><path class="cls-30" d="M117.53,109.51a19.08,19.08,0,0,1,4.38-1.71,10.53,10.53,0,0,1,.11-1.57c-2.7,1.14-10.14-1.56-7.05,4,3,5.35,6.93,13.92,16.69,11.07h0a12.91,12.91,0,0,0-1.41-1.8C124.25,118.62,120.78,114.36,117.53,109.51Z"/><path class="cls-30" d="M130.25,119.5c0.46,0.07.92,0.13,1.41,0.16-0.53-5.65-7.36-7.28-9.25-12.07l-0.5.21C121.93,113.46,127,115.92,130.25,119.5Z"/><path class="cls-30" d="M131.66,119.66c-0.49,0-1-.09-1.41-0.16a12.91,12.91,0,0,1,1.41,1.8A7.91,7.91,0,0,0,131.66,119.66Z"/><path class="cls-30" d="M122.41,107.59a6.69,6.69,0,0,1-.39-1.36,10.53,10.53,0,0,0-.11,1.57Z"/><path class="cls-38" d="M115.11,133.53c-2.42-.31-4.46.74-4.49,3.4,0,2.27,1,4.37,3.91,3.93,2.47-.38,4.78-1.26,5.49-4.14C119.6,133.78,117.14,133.79,115.11,133.53Z"/><path class="cls-39" d="M136.81,109.85c-2.92,2.26-5.17,5.18-.24,6.72s6.92,4.76,8.48,9.06c0.62,1.71,2.76,4.09,4.14,2.72,5.19-5.16,10.2-1.6,15.68.62-0.79-3.91-4.05-4.69-4.83-6.86-1.35-3.73-7.93-6.32-3.69-11.22s9.7-3.07,14.65-.46a45,45,0,0,1,3.74,2.84c1.69,1.13,3.6,3.6,5.51,1.2,1.71-2.14.73-4.72-1.16-6.79s-7.62-1.94-4.37-7.19c-0.71-3-3.08-4.23-5.6-3.57-5.43,1.43-9.52,3-13.42-4-2.39-4.31-14.7,2.05-16.57,8.43h0C144.12,105.74,139.68,107.64,136.81,109.85Z"/><path class="cls-40" d="M156.38,91.69c4.29,2.65,7.76,3.77,12.56,3.53,2.64-.13,6.54.61,5.79,5.28,2.57-1.18,1.93-2.73.46-4.3-4.22-4.47-26.39-9-32-6.09-4.29,2.28-9.55,5-4.09,11.22h0A11.23,11.23,0,0,1,156.38,91.69Z"/><path class="cls-40" d="M155.7,92.9c3.9,7,8,5.46,13.42,4,2.53-.67,4.9.55,5.6,3.57,0.75-4.66-3.15-5.41-5.79-5.28-4.8.24-8.27-.88-12.56-3.53a11.23,11.23,0,0,0-17.24,9.64C141,95,153.32,88.59,155.7,92.9Z"/></svg>