<svg id="Färgen" xmlns="http://www.w3.org/2000/svg" viewBox="0 0 342.27 394.23"><defs><style>.cls-1{fill:none;}.cls-2{fill:#feb800;}.cls-3{fill:#000020;}.cls-4{fill:#f07000;}.cls-5{fill:#cc5601;}.cls-6{fill:#b94600;}.cls-7{fill:#af541c;}.cls-8{fill:#e46301;}.cls-9{fill:#b44404;}.cls-10{fill:#00155a;}.cls-11{fill:#001451;}.cls-12{fill:#001560;}.cls-13{fill:#006391;}.cls-14{fill:#2e2e33;}.cls-15{fill:#001b66;}.cls-16{fill:#933a03;}.cls-17{fill:#50391c;}.cls-18{fill:#804d31;}.cls-19{fill:#7a472b;}.cls-20{fill:#a15a2a;}.cls-21{fill:#002c8b;}.cls-22{fill:#00306a;}.cls-23{fill:#007e99;}.cls-24{fill:#00033a;}.cls-25{fill:#97bfe0;}.cls-26{fill:#0161a5;}.cls-27{fill:#05282f;}.cls-28{fill:#003d62;}.cls-29{fill:#444c37;}.cls-30{fill:#4f4740;}.cls-31{fill:#47413e;}.cls-32{fill:#fefefe;}.cls-33{fill:#d39854;}.cls-34{fill:#002f6b;}.cls-35{fill:#006875;}.cls-36{fill:#001b34;}.cls-37{fill:#264d42;}.cls-38{fill:#033a49;}.cls-39{fill:#013f5f;}.cls-40{fill:#464f5a;}.cls-41{fill:#2e7a80;}</style></defs><title>hexagon</title><path class="cls-1" d="M306.28,223.33a9.47,9.47,0,0,1,0,1.06,11.33,11.33,0,0,0,1.45-.92Z"/><path class="cls-1" d="M332.43,220.85h-0.15l0.08,0.13Z"/><path class="cls-1" d="M65.46,222.88h0c0-.14,0-0.3,0-0.45l-0.4,0,0.42,0.43h0Z"/><path class="cls-1" d="M212.31,81.27l0.44,0.15c0-.13-0.05-0.25-0.08-0.38Z"/><path class="cls-2" d="M315.29,302.3c-1.11,3.29,1.41,5.88,1.72,8.9l5-2.88c-0.41-1.16-.82-2.31-1.16-3.48C319.68,300.94,318.59,300,315.29,302.3Z"/><path class="cls-3" d="M18.86,176.86c3.92-6.23,13.15-9.17,18.47-15.42,14.27-16.77,33-29.38,45-48.28h0c3.13-11,6.23-21.9,11.95-32,2.27-4,6-9.12,3-13.64-2-3-6.07-6.69-11.14-3.62h0c-6.33,5.52-13.12,9.28-22.11,8a11.47,11.47,0,0,0-12,5.72c-1.46,2.43-3.32,5-6.29,5.33-6.89.79-7.8,5.77-7.48,10.89,0.41,6.5-2.53,8.48-8.35,7.93h0c-6.1-3.07-10.14-1.22-10,4.84,0.06,2.45.91,4.83-1.29,6.77h0c4.76,7.35,8.42-.19,12.53-1,1.84-.37,3.28-3.88,5.44-1.13,1.29,1.65-.15,3.52-1.35,5-6.11,7.69-10.87,16.94-21.28,19.89a35.54,35.54,0,0,0-12.42,6.61v51.64C7.71,189.19,14.19,184.28,18.86,176.86Z"/><path class="cls-4" d="M205.08,347c-4.53-9.08-13.85-12-21.35-5.1-8.71,8-18.25,12.25-30.24,11.69-3-.14-5.91,3.44-9.13,4.28-8.18,2.13-15.29,6.66-25,5.23A14.18,14.18,0,0,0,117,363l55.16,31.85,37.47-21.63a23.41,23.41,0,0,0-1.48-7.8C206.34,360.19,208.14,353.17,205.08,347Z"/><path class="cls-5" d="M227.5,346.56c-2.61,2.48-.93,6-1.54,9s-1.65,6.08-5,5.54c-3.07-.49-0.77-3.6-1.21-5.37-2.39-9.5,1.16-21-9.65-27.81-4.71-3-9-3.71-14.16-2.23-12.92,3.71-26.1,5.49-39.49,7.16-23,2.86-45.54.15-68.28-.46-0.67,4.64-3.64,7.77-7.12,9.83l32.63,18.84a15.69,15.69,0,0,1,6.21-.54c7.54,0.88,14.28-1.23,20.94-4.22a63.51,63.51,0,0,1,19.77-5.59,31.22,31.22,0,0,0,18.72-8.19c6.05-5.82,13.17-8.13,20.67-4.25s10.56,11.87,10.67,19.8c0.06,4.52,1.13,9.14,1.4,13.73L255,347l-0.56-.43C249.69,342.81,231.6,342.66,227.5,346.56Z"/><path class="cls-5" d="M314,309.16c-5.93-4.3-12.69-7.49-16.32-15.11-2.87-6-9-8.19-16.88-4.66-6,2.69-11.85,5.38-17.2,9.13-9,6.29-9.37,14.66-1.24,22,7.35,6.59,19.87,6.41,26.19-.82,3.85-4.4,11.62-3.34,13.54-10.28,0.34-1.22,2.1-1,3.22-.11s0.67,2.19.51,3.44a20,20,0,0,1-1.77,6l11.14-6.43c-0.08-.2-0.15-0.41-0.24-0.61C314.64,310.8,314.31,310,314,309.16Z"/><path class="cls-5" d="M315,311.62c0.09,0.2.16,0.41,0.24,0.61l1.57-.91c-0.89-.77-1.82-1.48-2.76-2.17C314.31,310,314.64,310.8,315,311.62Z"/><path class="cls-5" d="M200,338.27c-7.5-3.88-14.62-1.57-20.67,4.25a31.22,31.22,0,0,1-18.72,8.19,63.51,63.51,0,0,0-19.77,5.59c-6.66,3-13.4,5.1-20.94,4.22a15.69,15.69,0,0,0-6.21.54L117,363a14.18,14.18,0,0,1,2.37.14c9.71,1.43,16.82-3.1,25-5.23,3.22-.84,6.17-4.42,9.13-4.28,12,0.56,21.54-3.65,30.24-11.69,7.5-6.92,16.82-4,21.35,5.1,3.07,6.15,1.27,13.17,3.06,18.37a23.41,23.41,0,0,1,1.48,7.8l2.41-1.39c-0.26-4.59-1.34-9.21-1.4-13.73C210.53,350.14,207.58,342.21,200,338.27Z"/><path class="cls-6" d="M87.41,332.09c-7.44-3-14.69-6.86-23.27-4.75-0.58.14-1.62-1.65-2.45-2.54Q59,326.48,56.32,328L78,340.46A76.51,76.51,0,0,0,87.41,332.09Z"/><path class="cls-6" d="M88.15,332.39l-0.74-.3A76.51,76.51,0,0,1,78,340.46L81,342.22C84.51,340.15,87.47,337,88.15,332.39Z"/><path class="cls-7" d="M272.07,327c-8.34-1.2-15-6.69-16.85-14.35-2-8.15,2.58-13,8.65-17.16,3.64-2.47,7.22-5,11.37-6.61,14.79-5.7,19.38-4.33,28.3,9,2.45,3.66,6.58,5.62,9.78,8.49a7.88,7.88,0,0,1,.51-4.2,13.67,13.67,0,0,1,1.34-1.4,39.53,39.53,0,0,1-.23-5.89c0.2-2.92-1.63-7.42,1.59-8.41,5-1.54,2.55,5.1,5.1,6.63,7.54-1.17-1.79-11.17,6.53-11.79q0-4.7,0-9.41h0q0-1,0-1.9h0c-6.4-1.86-12.25-3.35-14,6.24-0.74,4-4.89,4.88-9,5.25-6.41.58-12.3-2.26-18.58-2a182.22,182.22,0,0,0-33.37,24c-3.83,3.42-6.57,6.07-4.91,11.75,1.5,5.09.41,9.62-6.45,9.58-2.54,0-3.76,1.63-5.32,3.27-4,4.16-7.39,1.92-10.06-1.65-6.31-8.43-22.14-13.3-31.91-9.44-10.54,4.16-20.63,9.34-32.5,9.49a156.28,156.28,0,0,1-56.49-9.82c-11.34-4.18-22.83-2.88-34.33-3.16h0c-4.15,2.65-9.82,4-9.56,10.38,6.09,1.08,12.43.4,18.37,2.67,3,1.16,6,2.32,7.76,5.18L88,331.5c14.64-1.29,29.36-.69,44-0.11,20,0.79,39.29-1.85,58.45-6.55,19.37-4.75,27.45.41,30.55,20.37,0.48,3.09,1,6.17,1.77,9.56,0.42-8.25,4.87-11.94,12.64-12.69,6.91-.67,13.78-2.06,20,2.37,0.64,0.45,1.26.86,1.88,1.25l41.4-23.9a30.47,30.47,0,0,0,4-7.24C292.71,319.79,284.72,328.84,272.07,327Z"/><path class="cls-7" d="M315.29,302.3c0-.51-0.07-1-0.11-1.54a13.67,13.67,0,0,0-1.34,1.4,7.88,7.88,0,0,0-.51,4.2,13.31,13.31,0,0,1,3.6,4.88l0.09,0C316.7,308.18,314.18,305.58,315.29,302.3Z"/><path class="cls-7" d="M235.34,342.08c-7.77.75-12.23,4.44-12.64,12.69-0.76-3.38-1.29-6.47-1.77-9.56-3.1-20-11.18-25.12-30.55-20.37-19.16,4.7-38.49,7.34-58.45,6.55-14.59-.58-29.31-1.18-44,0.11l-0.22.23c0.13,0.22.27,0.42,0.39,0.65,22.74,0.61,45.33,3.32,68.28.46,13.39-1.67,26.57-3.45,39.49-7.16,5.16-1.48,9.45-.76,14.16,2.23,10.81,6.86,7.26,18.31,9.65,27.81,0.44,1.77-1.86,4.88,1.21,5.37,3.38,0.54,4.44-2.69,5-5.54s-1.06-6.5,1.54-9c4.09-3.9,22.18-3.76,26.92,0L255,347l2.25-1.3c-0.62-.4-1.24-0.8-1.88-1.25C249.12,340,242.25,341.42,235.34,342.08Z"/><path class="cls-7" d="M305.33,309.26c-1.11-.9-2.88-1.11-3.22.11-1.92,6.94-9.69,5.87-13.54,10.28-6.32,7.23-18.83,7.41-26.19.82-8.13-7.29-7.72-15.66,1.24-22,5.34-3.75,11.19-6.45,17.2-9.13,7.88-3.52,14-1.35,16.88,4.66,3.63,7.62,10.38,10.81,16.32,15.11a14.13,14.13,0,0,1-.69-2.79c-3.2-2.87-7.33-4.83-9.78-8.49-8.93-13.31-13.52-14.68-28.3-9-4.15,1.6-7.74,4.14-11.37,6.61-6.07,4.13-10.61,9-8.65,17.16,1.85,7.67,8.5,13.15,16.85,14.35,12.65,1.82,20.65-7.22,30.58-12.45a30.47,30.47,0,0,1-4,7.24l5.44-3.14a20,20,0,0,0,1.77-6C306,311.45,306.55,310.24,305.33,309.26Z"/><path class="cls-7" d="M313.33,306.36a14.13,14.13,0,0,0,.69,2.79c0.95,0.69,1.87,1.4,2.76,2.17l0.14-.08A13.31,13.31,0,0,0,313.33,306.36Z"/><path class="cls-7" d="M64.15,327.34c8.58-2.11,15.83,1.74,23.27,4.75l0.34-.36c-1.77-2.87-4.73-4-7.76-5.18-5.93-2.27-12.27-1.59-18.37-2.67,0,0.3,0,.6.06,0.92C62.52,325.69,63.57,327.48,64.15,327.34Z"/><path class="cls-7" d="M88.15,332.39c-0.12-.24-0.26-0.44-0.39-0.65l-0.34.36Z"/><path class="cls-8" d="M328.77,282a18.4,18.4,0,0,0-1.89,7.26c-0.12,2.31-2.14,5.44-3.51,4.85-7.82-3.34-6.46,2.06-6.88,5.66,2.59-1.47,4.66.12,6.21,4,0.45,1.12.89,2.26,1.32,3.39l18.84-10.88v-0.41C337.2,292.78,333.07,287.12,328.77,282Z"/><path class="cls-8" d="M316.49,299.8a3.12,3.12,0,0,1-1.2,2.5c3.3-2.26,4.39-1.36,5.54,2.54,0.35,1.17.76,2.33,1.16,3.48l2-1.17c-0.43-1.13-.86-2.27-1.32-3.39C321.15,299.92,319.09,298.33,316.49,299.8Z"/><path class="cls-8" d="M328.17,281.31c-8.31.62,1,10.62-6.53,11.79-2.55-1.53-.1-8.17-5.1-6.63-3.22,1-1.39,5.48-1.59,8.41a39.53,39.53,0,0,0,.23,5.89,7.52,7.52,0,0,1,1.31-1c0.42-3.6-.94-9,6.88-5.66,1.37,0.59,3.39-2.54,3.51-4.85a18.4,18.4,0,0,1,1.89-7.26l-0.6-.72h0Z"/><path class="cls-8" d="M315.29,302.3a3.12,3.12,0,0,0,1.2-2.5,7.52,7.52,0,0,0-1.31,1C315.22,301.27,315.26,301.78,315.29,302.3Z"/><path class="cls-9" d="M330.35,276a14.91,14.91,0,0,1-.8,4.56c-0.14.24-.25,0.49-0.38,0.73,2.76,0.13,3.93,2.75,5.67,4.39a54.4,54.4,0,0,0,8,6.43v-5.19a55.05,55.05,0,0,1-10.92-8.72A11.21,11.21,0,0,1,330.35,276Z"/><path class="cls-9" d="M328.17,281.31h0a4.82,4.82,0,0,1,1,0c0.13-.24.24-0.49,0.38-0.73a14.91,14.91,0,0,0,.8-4.56c-0.77-1.32-1.42-2.76-2.19-4.08Q328.17,276.6,328.17,281.31Z"/><path class="cls-9" d="M329.17,281.27c-0.14.25-.27,0.5-0.4,0.75,4.29,5.1,8.43,10.76,14.08,13.84v-3.77a54.4,54.4,0,0,1-8-6.43C333.1,284,331.93,281.4,329.17,281.27Z"/><path class="cls-9" d="M328.17,281.31h0l0.6,0.72c0.12-.25.26-0.5,0.4-0.75a4.81,4.81,0,0,0-1,0h0Z"/><path class="cls-10" d="M27.58,212.61c0.5,2.34.84,4.33,3.75,4.4,2-21.55,13.51-37.66,27.53-53.56C75.42,144.68,88.64,123,100.68,101c5.93-10.81,14-18.72,22.38-26.9,1.35-1.32,3.37-2.3,2.18-4.48-1.34-2.48-4.07-2.21-5.74-1-3.83,2.85-8,3.37-12.43,2.93-0.11,6.75-4.45,12.87-7.78,16.94-5.48,6.71-8.61,14.91-14.06,21.47-0.33.9-.67,1.79-1,2.69A45.7,45.7,0,0,1,71.7,130.11c-16.91,14.87-32.51,31.25-48.42,47-6.88,6.81-14.44,13-21.83,19.41v27.21q8.48-7.11,17-14.22C23.19,205.47,26.32,206.68,27.58,212.61Z"/><path class="cls-10" d="M22,241.49c2.92-5.43,7-10.35,7.65-16.81-1-5.46-3.5-2.66-5.78-1.08-7.13,5-15,2-22.37,3.68v13.35A35.89,35.89,0,0,1,6,238.45C13.29,235.65,17.41,236.28,22,241.49Z"/><path class="cls-10" d="M71.7,130.11a45.7,45.7,0,0,0,12.55-17.42c0.32-.9.66-1.79,1-2.69a33.44,33.44,0,0,1-2.93,3.15h0c-12,18.9-30.71,31.51-45,48.28-5.32,6.25-14.55,9.19-18.47,15.42-4.67,7.42-11.15,12.34-17.41,17.51v2.16c7.39-6.39,15-12.6,21.83-19.41C39.19,161.36,54.79,145,71.7,130.11Z"/><path class="cls-11" d="M86.38,60.47h0L86.24,62C97.53,60.56,103,66.48,98.5,76.8q-5.13,11.85-9.75,23.85c5.53-10.09,11.65-19.85,17.89-29.53l0.08,0C100.5,62.7,109,62,113.6,59.24c0.47-3.51-4.1-2.12-4.56-4.68h0c-0.29-3.51-2.27-7.72,1.11-10.17,2.88-2.08,5.46,1.22,7.93,2.81,1.45-.6,2.92-1.76,4.35-1.7,4.34,0.18,6.06-7.66,8.85-5a20.52,20.52,0,0,1,6.11,14c0,1.74-.73,4.13,1.67,4.85,2.12,0.64,3.24-1.44,4.62-2.62,4.78-4.07,7.85-9.61,12.5-14,5.46-5.12,11.53-8.34,18.07-11.34,4.54-2.08,10.71-4.8,9.46-10.16-1.2-5.13-8.84-8.46-12.91-7.41-9.4,2.43-10.76-1.3-10.91-6.16l-1.75,1c0,1.92-.4,3.53-3.13,3.81a3.72,3.72,0,0,1-2.61-.5L112.84,34.85c-0.73,2-2.41,3.34-5.86,3.39l-6.9,4c-2.63,7.49-10.35,11.29-13.7,18.2v0.05Z"/><path class="cls-11" d="M98.5,76.8C103,66.48,97.53,60.56,86.24,62l-0.17,1.87c5.07-3.07,9.15.62,11.14,3.62,3,4.52-.68,9.63-3,13.64-5.72,10.09-8.82,21-11.95,32,2-4.24,4.19-8.39,6.44-12.49Q93.38,88.64,98.5,76.8Z"/><path class="cls-11" d="M106.64,71.12c-6.24,9.69-12.35,19.44-17.89,29.53Q87,105.31,85.24,110c5.45-6.56,8.58-14.76,14.06-21.47,3.33-4.07,7.67-10.19,7.78-16.94-0.14-.18-0.24-0.34-0.37-0.52Z"/><path class="cls-11" d="M82.31,113.15h0A33.44,33.44,0,0,0,85.24,110q1.71-4.69,3.51-9.35C86.5,104.76,84.34,108.91,82.31,113.15Z"/><path class="cls-12" d="M33.1,115c-5.66,0-11.86,8-15.72-1.36,0-.12,0-0.23,0-0.35l-0.68,0h0A68.71,68.71,0,0,0,1.45,118.2v21.21a20.48,20.48,0,0,1,7.22-3.6C19.84,132.84,26.38,124.58,33.1,115Z"/><path class="cls-12" d="M35.14,116.22c1.2-1.51,2.64-3.38,1.35-5-2.16-2.76-3.6.76-5.44,1.13-4.11.82-7.77,8.37-12.53,1h0c-0.37,0-.75,0-1.12,0,0,0.12,0,.22,0,0.35C21.24,123,27.44,115,33.1,115c-6.72,9.58-13.26,17.85-24.43,20.82a20.48,20.48,0,0,0-7.22,3.6v3.31a35.54,35.54,0,0,1,12.42-6.61C24.28,133.16,29,123.91,35.14,116.22Z"/><path class="cls-13" d="M18.95,97.65c2.48,1,2.79-2.47,3.33-4.53,0.74-2.79,2.16-5.87,5.37-5.25s1.77,4.13,2,6.41a33.76,33.76,0,0,1,.15,4.26l1,0.16c3.59-.52,4.37-3.27,4.72-6.17,0.74-6.22,5.08-9,9.55-12.89C53.46,72.48,62,68.41,73,68.63c4.64,0.09,8-4.29,12.17-6.39a5.29,5.29,0,0,1,0-2c0-.19.12-0.36,0.18-0.55-2.66-2.28-5.22-4.33-8.12-4.26l-6.84,3.95a3.59,3.59,0,0,1-1.59.92L6.25,96.39C10.5,96.42,14.85,96,18.95,97.65Z"/><path class="cls-13" d="M85.21,62.23c-4.13,2.11-7.53,6.49-12.17,6.39-11.05-.22-19.58,3.85-27.91,11-4.47,3.84-8.81,6.68-9.55,12.89-0.35,2.9-1.13,5.65-4.72,6.17l-1-.16c0,1.06,0,2.13,0,3.19h0c5.82,0.56,8.76-1.43,8.35-7.92-0.32-5.12.59-10.1,7.48-10.89,3-.34,4.82-2.89,6.29-5.33a11.47,11.47,0,0,1,12-5.72c9,1.31,15.78-2.45,22.11-8h0A3.44,3.44,0,0,1,85.21,62.23Z"/><path class="cls-13" d="M86.24,62l0.14-1.55h0l-1-.84c-0.06.18-.13,0.36-0.18,0.55a5.29,5.29,0,0,0,0,2l0.21-.11C85.71,62.07,86,62.06,86.24,62Z"/><path class="cls-13" d="M85.43,62.12l-0.21.11a3.44,3.44,0,0,0,.86,1.66h0L86.24,62C86,62.06,85.71,62.07,85.43,62.12Z"/><path class="cls-14" d="M51.05,290.43c1.1-1.07,2.08-2.26,3.12-3.4-3.44-2.52-1-5,0-7.49-2.49-.16-6.65.53-7.22-0.6-6.1-12.09-10.48-3.19-13.13,1.61C28,291.12,15.35,292.1,7.86,300l3.42,2A38.14,38.14,0,0,1,27.56,296C35.86,295.23,44.29,297,51.05,290.43Z"/><path class="cls-15" d="M17.47,111.43a9.22,9.22,0,0,1-.4,1.08c0.11,0,.24,0,0.35.09C17.44,112.2,17.45,111.8,17.47,111.43Z"/><path class="cls-15" d="M11.28,102.54c2.61,1.41,5.75,3.11,6.36,6,0.75-9,3.14-11.14,10.61-10.26a17,17,0,0,0-2.07-5.05C23.09,99.46,18,100.63,12,99,9,98.25,5.6,99,2.51,98.55l-1.06.61V110a7.34,7.34,0,0,0,1.61-2.89C4.37,102.66,7.3,100.39,11.28,102.54Z"/><path class="cls-15" d="M17.64,108.58a5.82,5.82,0,0,1-.18,2.85c0,0.37,0,.78,0,1.17a4.09,4.09,0,0,1,1.1.74c2.2-1.94,1.35-4.32,1.29-6.77-0.14-6.06,3.9-7.91,10-4.84h0a9.41,9.41,0,0,1-1.55-3.4C20.78,97.43,18.4,99.55,17.64,108.58Z"/><path class="cls-15" d="M17.07,112.5c-0.11.25-.21,0.5-0.35,0.76h0l0.68,0c0-.24,0-0.46,0-0.7C17.31,112.55,17.18,112.54,17.07,112.5Z"/><path class="cls-15" d="M17.4,113.29c0.37,0,.75,0,1.12,0h0a4.09,4.09,0,0,0-1.1-.74C17.41,112.83,17.4,113.05,17.4,113.29Z"/><path class="cls-15" d="M12,99c6,1.59,11.09.42,14.18-5.78a17,17,0,0,1,2.07,5.05l1.59,0.22a33.76,33.76,0,0,0-.15-4.26c-0.26-2.27,1.12-5.8-2-6.41S23,90.32,22.28,93.12c-0.55,2.07-.85,5.56-3.33,4.53-4.1-1.69-8.44-1.23-12.7-1.26L2.51,98.55C5.6,99,9,98.25,12,99Z"/><path class="cls-15" d="M28.25,98.32a9.41,9.41,0,0,0,1.55,3.4c0-1.06,0-2.12,0-3.19Z"/><path class="cls-16" d="M61.37,323.87c-2.56-7.64,3.17-9.29,8.29-11.39l-4.08-2.74C55,311.3,44.45,313.51,33.88,315l20,11.53,4-2A8.15,8.15,0,0,1,61.37,323.87Z"/><path class="cls-16" d="M61.37,323.87a8.15,8.15,0,0,0-3.54.69l-4,2L56.32,328q2.73-1.47,5.38-3.15C61.56,324.47,61.48,324.18,61.37,323.87Z"/><path class="cls-16" d="M61.37,323.87h0.12l0.14,0c-0.26-6.36,5.41-7.73,9.56-10.38h0l-1.53-1C64.54,314.57,58.81,316.22,61.37,323.87Z"/><path class="cls-16" d="M61.37,323.87c0.1,0.31.19,0.61,0.32,0.94,0-.32,0-0.62-0.06-0.92l-0.14,0H61.37Z"/><path class="cls-17" d="M67,309.14a51.27,51.27,0,0,1,21.08-3.36c-3.53-4.31-12.38-1.13-13.13-9.34-1.16-5.8-6.26-5-10.23-6.15-3.27-.95-6.51-2-9.77-3,0,0.27,0,.55,0,0.82-4.16,7.18-10.65,10.58-18.7,10.45s-15.49,1.39-22,5.11l15.8,9.12c11.41-1.63,22.76-3.71,34.28-4.5A15,15,0,0,1,67,309.14Z"/><path class="cls-17" d="M55,288.11c0-.27,0-0.55,0-0.82L54.17,287h0c-1,1.14-2,2.33-3.12,3.4C44.29,297,35.86,295.23,27.56,296a38.14,38.14,0,0,0-16.29,5.9l3,1.73c6.52-3.72,13.91-5.25,22-5.11S50.82,295.29,55,288.11Z"/><path class="cls-17" d="M67,309.14a15,15,0,0,0-2.69-.84c-11.52.79-22.87,2.87-34.28,4.5l3.81,2.2c10.57-1.49,21.13-3.7,31.7-5.27C66.06,309.52,66.55,309.34,67,309.14Z"/><path class="cls-18" d="M297.14,275.73c15.9,0.36,15.9.42,15.67-15.05h0c-2.54-2.12-1.42-5.12-1.87-7.75-8.57,8.18-18.07,15.31-26.79,23.21-3.67,3.33-7.2,1.41-10.67,3.56-8.79,5.45-15.73,14.24-27.13,15.51-3.23.36-5.24,4.15-7.21,7.07-5.42,8-12.43,10.37-22.27,8.13-9-2.05-17.51-3.23-27.57,2.49-11.56,6.56-26.28,7.54-38.25-3.4-5.72-5.23-11.78-6.77-19.7-2.93-6.2,3-13.39-.77-20.1-1.57-7.81-.93-15.48-2.15-23.09.8a5.74,5.74,0,0,1-.59,1,59.12,59.12,0,0,1-19.08,3.1,6.67,6.67,0,0,1,2,2.18l0.44-.19c12.56-1.73,24.93-1.74,37,3.2,13.48,5.52,28,6.73,42.19,8.67s27.83-1.93,40.95-7.93c13.56-6.21,25.56-1.23,36.39,7.27,2.69,2.11,4.88,4.24,8.12,1.83,3.5-2.6,10.35-2,9.77-8.55-0.76-8.5,4.22-13.14,9.87-18,9.56-8.19,19.33-16,31.15-20.75a10.34,10.34,0,0,1,1.48-.24C290.32,274.92,293.92,275.66,297.14,275.73Z"/><path class="cls-18" d="M286.41,277.65c-11.82,4.78-21.59,12.56-31.15,20.75-5.65,4.84-10.63,9.48-9.87,18,0.58,6.51-6.27,6-9.77,8.55-3.24,2.41-5.43.28-8.12-1.83-10.82-8.49-22.82-13.48-36.39-7.27-13.12,6-26.78,9.88-40.95,7.93s-28.71-3.15-42.19-8.67c-12.06-4.94-24.43-4.93-37-3.2l-0.44.19a7.35,7.35,0,0,1,.65,1.4c11.51,0.27,23-1,34.33,3.16A156.28,156.28,0,0,0,162,326.48c11.87-.16,22-5.33,32.5-9.49,9.77-3.86,25.6,1,31.91,9.44,2.67,3.57,6.1,5.81,10.06,1.65,1.56-1.64,2.78-3.28,5.32-3.27,6.86,0,7.95-4.49,6.45-9.58-1.67-5.68,1.08-8.33,4.91-11.75a182.22,182.22,0,0,1,33.37-24,7.18,7.18,0,0,1,1.35-2A10.34,10.34,0,0,0,286.41,277.65Z"/><path class="cls-18" d="M68.5,309.92c-1,0-1.94-.09-2.92-0.18l4.08,2.74,0.88-.37A6.67,6.67,0,0,0,68.5,309.92Z"/><path class="cls-18" d="M69.66,312.47l1.53,1a7.35,7.35,0,0,0-.65-1.4Z"/><path class="cls-18" d="M87.58,306.81a5.74,5.74,0,0,0,.59-1h0A51.27,51.27,0,0,0,67,309.14a8.81,8.81,0,0,1,1.46.77A59.12,59.12,0,0,0,87.58,306.81Z"/><path class="cls-18" d="M67,309.14c-0.49.19-1,.37-1.46,0.59,1,0.1,2,.16,2.92.18A8.81,8.81,0,0,0,67,309.14Z"/><path class="cls-19" d="M329.94,258.67a24.2,24.2,0,0,0-.39-5.61c-3.12-11.08-2.93-21.81,2.81-32.07l-0.08-.13-4,.22h0c-0.63.18-1.26,0.34-1.89,0.47-5.62,1.95-4.43,8.07-6,12.48h0c-0.12,4.06.39,8.26-.54,12.12-1,4.17-.62,5.64,3.87,7.34,7.56,2.87,3.63,9.93,4.28,15.4l0.3,0.21a7.5,7.5,0,0,1,1.55,2.63c0.08,0.28.11,0.57,0.17,0.85,4.55,2.12,7.07,6.74,10.86,9.8,0.66,0.53,1.35,1,2,1.49V273.24C335.19,272.9,330.24,267.07,329.94,258.67Z"/><path class="cls-19" d="M328.15,270q0,1,0,1.9h0a11.68,11.68,0,0,1,1.82.69c-0.06-.28-0.09-0.57-0.17-0.85a7.5,7.5,0,0,0-1.55-2.63l-0.3-.21a8.22,8.22,0,0,0,.2,1.09h0Z"/><path class="cls-19" d="M330,272.59a14.51,14.51,0,0,1,.38,3.39,11.21,11.21,0,0,0,1.59,2.21,55.05,55.05,0,0,0,10.92,8.72v-3c-0.68-.49-1.37-1-2-1.49C337,279.33,334.53,274.71,330,272.59Z"/><path class="cls-19" d="M328.16,271.9c0.77,1.32,1.42,2.76,2.19,4.08a14.51,14.51,0,0,0-.38-3.39,11.68,11.68,0,0,0-1.82-.69h0Z"/><path class="cls-20" d="M314.29,259.75c0.13,0.49.28,1,.45,1.46a45.5,45.5,0,0,1-.24,8.74c2.58-4.62,7.95-4.61,12.8-1.5-2.78-5.47-3.48-11.77-9-16.51a4.46,4.46,0,0,1-1.23-1.74c-0.08.83-.17,1.67-0.26,2.5C316.5,255.4,316.62,258.13,314.29,259.75Z"/><path class="cls-20" d="M297.34,278.34c-1.34-.13-2.68-0.37-4-0.5,1,0.18,2.1.37,3.15,0.48,3.42,0.35,6.75.82,9.72,0.13A40.1,40.1,0,0,1,297.34,278.34Z"/><path class="cls-20" d="M314.51,270c-0.8,5.34-3.2,7.84-8.3,8.5-3,.68-6.31.22-9.72-0.13-1.06-.11-2.1-0.3-3.15-0.48-2.34-.23-4.64-0.1-6.79,1.59h0c6.28-.21,12.17,2.63,18.58,2,4.13-.37,8.28-1.24,9-5.25,1.76-9.59,7.62-8.1,14-6.24h0c-0.31-.5-0.58-1-0.85-1.53C322.45,265.35,317.08,265.34,314.51,270Z"/><path class="cls-20" d="M314.74,261.21c-0.17-.48-0.31-1-0.45-1.46a6.08,6.08,0,0,1-1.21.65h0l-0.27.28h0c0.22,15.47.23,15.41-15.67,15.05-3.22-.07-6.82-0.81-9.25,1.69a20.61,20.61,0,0,1,5.44.43c1.33,0.13,2.67.36,4,.5a40.1,40.1,0,0,0,8.87.12c3.12-.72,5.84-2.7,7.8-7.46a9.73,9.73,0,0,1,.5-1A45.5,45.5,0,0,0,314.74,261.21Z"/><path class="cls-20" d="M293.34,277.84a20.61,20.61,0,0,0-5.44-.43,7.18,7.18,0,0,0-1.35,2h0C288.7,277.74,291,277.62,293.34,277.84Z"/><path class="cls-20" d="M306.21,278.46c5.1-.67,7.5-3.16,8.3-8.5a9.73,9.73,0,0,0-.5,1C312,275.75,309.33,277.74,306.21,278.46Z"/><path class="cls-20" d="M318.31,251.94c5.51,4.75,6.21,11,9,16.51l0.65,0.44c-0.65-5.47,3.28-12.53-4.28-15.4-4.49-1.7-4.88-3.17-3.87-7.34,0.93-3.86.42-8.07,0.54-12.12-2.38,5.14-2.73,10.68-3.26,16.17A4.46,4.46,0,0,0,318.31,251.94Z"/><path class="cls-20" d="M328.15,270a8.22,8.22,0,0,1-.2-1.09l-0.65-.44C327.57,269,327.84,269.49,328.15,270Z"/><path class="cls-21" d="M172.31,11.83a6.19,6.19,0,0,1,3.55,1.1c4,2.19,9.6,3.08,9.85,8.85,0.24,5.4-4,8.63-8.29,10.42-12.53,5.25-21.94,14-30.49,24.24-6.16,7.39-9.64,6.3-12.32-2.74s-2.65-9-15.34-5.23a3.31,3.31,0,0,1-1,.06c0.55,4.69-1.35,6.36-4.48,6.54,2.1,3,2.37,5.84-2.72,7.94-3.82,1.58-3.46,4.83-3.87,7.83,3.72-1.94,7.92-2.58,11.8-4.13,2.7-1.08,5.75-1.05,7.49,1.95,1.51,2.59.47,5.17-1.64,6.72-16.32,12-23.47,30.72-34,46.89C84,132.69,76.31,142.44,70.74,153.9c-2.88,5.92-9.56,11.21-14.68,16.64-10.5,11.12-19.28,23.23-20.6,39.25a11.52,11.52,0,0,1-3.33,7.61,6.44,6.44,0,0,1-.79.34c0.06,1.8.42,3.66-.35,5.27a10.57,10.57,0,0,1,.43,2.07c-0.83,6.87-3.22,12.9-9.07,17.1-0.22-.12-0.44-0.2-0.66-0.31-3.62,5.28-4,12.35-9.2,16.75h0c5.84,5.19,10.8-.84,15.75-2,7.11-1.61,13.59-6,20.33-9.18l0.08-.05h0c-1.21-5.88-4.9-2.38-8-2.37-3.83,0-9.1,4.93-10.92.35-1.56-3.92,2.23-9.94,5.62-12.63,6.72-5.32,14.62-9.19,22.24-13.3,3.29-1.78,5.36.86,7.4,3l0.4,0c-0.06-1.16.11-2.53-.5-3.2-15.14-16.78-13-35.48,6.07-47.77,6.44-4.15,13.9-6.69,20.88-10,3.58-1.7,6-.42,7.73,2.85,2.59-.08,5-0.23,5.74-3.56,0.48-2.23,2.09-4.83,4.16-4.6,10,1.09,11-.71,2.89-7.05-2.11-1.65-.19-3,1.82-3.9,6.22-2.71,13.53-8.26,11.83-13.56-1.91-6-11.84-2.74-17.94-5-1.49-.55-3.61.93-5.43,0.93-4.07,0-7.13-1.74-5.13-6.25,2.24-5.06,3.75-10.85,9.38-13.68h0l5.93-7.58h0c8.11-11.85,20.57-19.17,32-26.37,16.23-10.21,30.64-22.21,45-34.61a12.49,12.49,0,0,1,2.45-1.32l3.62-5.64h0a68.42,68.42,0,0,1,8.32-13L172.15,0.6l-10,5.79C163.88,10.13,166.63,12.67,172.31,11.83Z"/><path class="cls-21" d="M32.14,217.4a11.52,11.52,0,0,0,3.33-7.61c1.32-16,10.1-28.13,20.6-39.25,5.12-5.42,11.8-10.72,14.68-16.64,5.57-11.46,13.3-21.21,20.1-31.64,10.55-16.17,17.7-34.86,34-46.89,2.11-1.55,3.15-4.13,1.64-6.72-1.75-3-4.8-3-7.49-1.95-3.88,1.55-8.08,2.19-11.8,4.13,0,0.26-.08.52-0.13,0.77,4.48,0.44,8.6-.08,12.43-2.93,1.67-1.24,4.39-1.51,5.74,1,1.18,2.18-.83,3.16-2.18,4.48-8.37,8.18-16.46,16.09-22.38,26.9-12,21.95-25.26,43.65-41.82,62.42-14,15.9-25.5,32-27.53,53.56,0,0.24,0,.49,0,0.73A6.44,6.44,0,0,0,32.14,217.4Z"/><path class="cls-21" d="M22.35,242.18c5.85-4.2,8.24-10.24,9.07-17.1A10.57,10.57,0,0,0,31,223a4.53,4.53,0,0,1-1.39,1.67c-0.67,6.46-4.73,11.38-7.65,16.81l-0.26.38C21.92,242,22.13,242.06,22.35,242.18Z"/><path class="cls-21" d="M170.78,13.85c4.07-1.05,11.71,2.28,12.91,7.41,1.25,5.36-4.92,8.07-9.46,10.16-6.54,3-12.61,6.22-18.07,11.34-4.65,4.36-7.72,9.89-12.5,14-1.38,1.18-2.49,3.26-4.62,2.62-2.4-.72-1.64-3.1-1.67-4.85a20.52,20.52,0,0,0-6.11-14c-2.79-2.69-4.51,5.15-8.85,5-1.42-.06-2.9,1.1-4.35,1.7,0.09,0.47.15,0.9,0.2,1.32a3.31,3.31,0,0,0,1-.06C132,44.74,132,44.74,134.62,53.7s6.17,10.14,12.32,2.74c8.55-10.27,18-19,30.49-24.24,4.27-1.79,8.53-5,8.29-10.42-0.26-5.77-5.86-6.67-9.85-8.85a6.19,6.19,0,0,0-3.55-1.1c-5.68.84-8.43-1.71-10.19-5.44l-2.25,1.3C160,12.55,161.38,16.29,170.78,13.85Z"/><path class="cls-21" d="M111.08,63c5.09-2.1,4.82-4.94,2.72-7.94a18.49,18.49,0,0,1-4.76-.5h0c0.47,2.56,5,1.17,4.56,4.68C109,62,100.5,62.7,106.71,71.08l0.5-.25C107.62,67.84,107.26,64.58,111.08,63Z"/><path class="cls-21" d="M106.71,71.08c0.13,0.18.23,0.33,0.37,0.52,0.05-.25.09-0.51,0.13-0.77Z"/><path class="cls-22" d="M11.65,258.38c2.93-5.75,3.68-12.82,9.85-16.6-7.3-3.47-13.76-1.82-20,1.32v15.32A17.13,17.13,0,0,1,11.65,258.38Z"/><path class="cls-22" d="M21.5,241.78c0.15-.09.29-0.2,0.46-0.29-4.54-5.21-8.66-5.84-15.91-3a35.89,35.89,0,0,0-4.59,2.19v2.46C7.74,240,14.2,238.31,21.5,241.78Z"/><path class="cls-22" d="M12.49,258.62c5.21-4.4,5.59-11.47,9.2-16.75l-0.2-.09c-6.17,3.78-6.92,10.86-9.85,16.6,0.28,0.08.56,0.15,0.84,0.24h0Z"/><path class="cls-22" d="M22,241.49c-0.16.09-.3,0.19-0.46,0.29l0.2,0.09Z"/><path class="cls-22" d="M30.58,218c-2.07.44-3.6-.72-4.44-2.86-2.7-6.86-6.3-4.27-9.81-1S8.66,220.43,4.22,224.3c7.2,0.33,13.42.13,19.34-3.12,3.05-1.68,5.55-1.68,6.89.58C30.34,220.45,30,219.11,30.58,218Z"/><path class="cls-22" d="M23.82,223.6c2.28-1.59,4.81-4.38,5.78,1.08a3.42,3.42,0,0,0,.84-2.93c-1.34-2.26-3.83-2.26-6.89-.58-5.92,3.25-12.14,3.46-19.34,3.12,4.44-3.87,8.46-6.81,12.11-10.21s7.11-5.85,9.81,1c0.84,2.14,2.38,3.3,4.44,2.86a2.91,2.91,0,0,1,.75-1c-2.91-.07-3.26-2.07-3.75-4.4-1.26-5.93-4.39-7.13-9.18-3.1q-8.46,7.13-17,14.22v3.56C8.87,225.65,16.69,228.56,23.82,223.6Z"/><path class="cls-22" d="M31.35,217.74a5.1,5.1,0,0,1-.76.22c-0.57,1.15-.24,2.49-0.14,3.79A6.14,6.14,0,0,1,31,223C31.76,221.4,31.41,219.54,31.35,217.74Z"/><path class="cls-22" d="M31,223a6.14,6.14,0,0,0-.55-1.26,3.42,3.42,0,0,1-.84,2.93A4.53,4.53,0,0,0,31,223Z"/><path class="cls-22" d="M31.34,217a2.91,2.91,0,0,0-.75,1,5.1,5.1,0,0,0,.76-0.22C31.34,217.49,31.33,217.25,31.34,217Z"/><path class="cls-23" d="M85.7,58.8c0.15-.36.31-0.72,0.48-1.07,0-.11.1-0.21,0.15-0.31,0.58-3,3-5.3,4.57-7.81,0.7-1.11,1.43-2.2,2.11-3.3L80.54,53.5C82.71,54.23,84.46,56.14,85.7,58.8Z"/><path class="cls-23" d="M86.37,60.42a7.24,7.24,0,0,1,0-3c0,0.11-.1.21-0.15,0.31-0.18.35-.33,0.71-0.48,1.07a17.91,17.91,0,0,1,.68,1.67V60.42Z"/><path class="cls-23" d="M85.7,58.8c-1.24-2.66-3-4.57-5.16-5.31l-3.26,1.88c2.9-.07,5.46,2,8.12,4.26C85.5,59.36,85.59,59.08,85.7,58.8Z"/><path class="cls-23" d="M68.85,60.25a3.59,3.59,0,0,0,1.59-.92Z"/><path class="cls-23" d="M86.38,60.47a17.91,17.91,0,0,0-.68-1.67c-0.11.27-.2,0.55-0.29,0.83l1,0.84h0Z"/><path class="cls-24" d="M155,12.52c2.73-.29,3.15-1.9,3.13-3.81L152.39,12A3.72,3.72,0,0,0,155,12.52Z"/><path class="cls-13" d="M96.33,44.38l-0.05,0-0.11.18Z"/><path class="cls-13" d="M112.84,34.85L107,38.24C110.43,38.19,112.11,36.87,112.84,34.85Z"/><path class="cls-13" d="M86.37,60.42c3.35-6.9,11.07-10.7,13.7-18.2l-3.74,2.16-0.16.21C93.05,50,87.95,54.24,86.37,60.42Z"/><path class="cls-13" d="M86.33,57.42c2.25-5,6.68-8.45,9.84-12.83l0.11-.18L93,46.3c-0.68,1.1-1.4,2.19-2.11,3.3C89.31,52.12,86.92,54.4,86.33,57.42Z"/><path class="cls-13" d="M86.37,60.42c1.58-6.18,6.68-10.46,9.81-15.83C93,49,88.58,52.43,86.33,57.42A7.24,7.24,0,0,0,86.37,60.42Z"/><path class="cls-25" d="M117.29,48.4c-3-.56-6.74-2.28-5.24,4.28A17.58,17.58,0,0,0,117.29,48.4Z"/><path class="cls-25" d="M117.29,48.4a10.11,10.11,0,0,0,.78-1.2c-2.46-1.59-5-4.89-7.93-2.81-3.38,2.45-1.41,6.66-1.11,10.17h0c1-.66,2-1.26,3-1.87C110.55,46.12,114.28,47.84,117.29,48.4Z"/><path class="cls-25" d="M112.05,52.69c0,0.11,0,.19.06,0.3a21.66,21.66,0,0,1,1.69,2.08c3.12-.18,5-1.84,4.48-6.54a8,8,0,0,1-1-.12A17.58,17.58,0,0,1,112.05,52.69Z"/><path class="cls-25" d="M112.12,53c0-.11,0-0.19-0.06-0.3-1,.61-2,1.21-3,1.87a18.49,18.49,0,0,0,4.76.5A21.66,21.66,0,0,0,112.12,53Z"/><path class="cls-25" d="M118.28,48.53c0-.42-0.11-0.85-0.2-1.32a10.11,10.11,0,0,1-.78,1.2A8,8,0,0,0,118.28,48.53Z"/><path class="cls-26" d="M16.12,112.26h0c-5.06-8.78-5.52-8.68-13.42-1a10.4,10.4,0,0,1-1.27,1v3.17A26.64,26.64,0,0,1,16.12,112.26Z"/><path class="cls-26" d="M16.72,113.27l-0.58-1h0a26.65,26.65,0,0,0-14.68,3.22v2.72a68.71,68.71,0,0,1,15.27-4.93h0Z"/><path class="cls-26" d="M16.14,112.26a4,4,0,0,1,.93.24,9.22,9.22,0,0,0,.4-1.08c0-1,.1-2,0.18-2.85-0.62-2.93-3.76-4.63-6.36-6-4-2.15-6.91.12-8.22,4.56A7.34,7.34,0,0,1,1.45,110v2.33a10.4,10.4,0,0,0,1.27-1C10.62,103.58,11.08,103.49,16.14,112.26Z"/><path class="cls-26" d="M17.64,108.58c-0.07.88-.13,1.83-0.18,2.85A5.82,5.82,0,0,0,17.64,108.58Z"/><path class="cls-26" d="M16.14,112.26l0.58,1c0.14-.26.24-0.51,0.35-0.76A4,4,0,0,0,16.14,112.26Z"/><path class="cls-27" d="M37,273c1.93-3.22,5.54-2.63,8.09.07s5.65,3.86,8.66,5.51a6.46,6.46,0,0,1,.59.93c5.14-.49,6.91-5.92,11.16-7.71,1.07-13.3,12.93-18.83,21.36-24.58,12.18-8.31,22.81-19.44,37.21-24.43h0c1.67-5,7.76-10.1,0-15.13-17.88,20-36.48,38.68-66.29,38-2.83-.07-5.68,1-8.52,1.63a6.11,6.11,0,0,1-.4,1l0,0c1.8,6.19,0,9.58-7.47,10.55-15.65,2-28.06,10.76-39.91,20.32v17.1l4.08,2.36C16.36,290.54,29.58,285.44,37,273Z"/><path class="cls-27" d="M33.86,280.54c2.65-4.79,7-13.7,13.13-1.61,0.57,1.13,4.73.44,7.22,0.6l0.15,0a6.46,6.46,0,0,0-.59-0.93c-3-1.65-6.2-2.91-8.66-5.51S38.94,269.79,37,273c-7.44,12.43-20.66,17.53-31.49,25.62L7.86,300C15.35,292.1,28,291.12,33.86,280.54Z"/><path class="cls-27" d="M48.66,247.43l-0.08.05c0.09,0.28.17,0.55,0.25,0.82l0,0a6.11,6.11,0,0,0,.4-1l-0.59.13h0Z"/><path class="cls-28" d="M37.82,257.36c5.83-.44,8.54-3.89,10.27-8.53-9.11,6.84-19.63,10.52-30.48,13.53-3.46,1-5.25-.34-6-3.52-3.4.81-6.86,1.47-10.16,2.54v15.16c7.44-8,17.33-13.63,28.26-17C32.39,258.76,35.09,257.57,37.82,257.36Z"/><path class="cls-28" d="M28.24,256.66c-5,1.12-9.91,7.16-15.75,2h0l-0.89.21c0.76,3.18,2.54,4.48,6,3.52,10.85-3,21.37-6.69,30.48-13.53,0.17-.44.33-0.88,0.48-1.35C41.83,250.67,35.35,255.05,28.24,256.66Z"/><path class="cls-28" d="M11.54,258.6l0.11-.22a17.13,17.13,0,0,0-10.2,0v3c3.29-1.07,6.75-1.74,10.16-2.54C11.59,258.75,11.56,258.69,11.54,258.6Z"/><path class="cls-28" d="M11.65,258.38l-0.11.22c0,0.08,0,.15.07,0.24l0.89-.21C12.21,258.53,11.93,258.46,11.65,258.38Z"/><path class="cls-28" d="M48.83,248.3c-0.24.19-.49,0.34-0.73,0.52-1.74,4.64-4.45,8.09-10.27,8.53-2.73.21-5.43,1.4-8.11,2.22-10.93,3.33-20.82,8.94-28.26,17v2.64c11.84-9.57,24.25-18.29,39.91-20.32C48.82,257.89,50.62,254.49,48.83,248.3Z"/><path class="cls-28" d="M48.09,248.83c0.24-.18.49-0.34,0.73-0.52-0.08-.27-0.15-0.54-0.25-0.82C48.43,247.94,48.26,248.38,48.09,248.83Z"/><path class="cls-29" d="M54.4,279.59c1.22,2.32.72,4.87,0.6,7.37,8.45-.7,16.34.21,21.93,7.87,0.07,0.18.16,0.33,0.23,0.5,12-5.84,25.15-7.06,38-7.89,8.46-.55,16.35-6.13,25.24-2.7,1.49,0.57,2.24-1.72,2.5-3.3h0c-5.13-4.41-4.4-11-5.23-16.58-1.1-7.4-3.87-9.35-11.26-10.35A37.66,37.66,0,0,0,100,260.36c-3.67,2.31-7.76,2.25-11.85,2.1-7.93-.3-14.54,2.57-20.35,7.37-0.42.8-.82,1.62-1.19,2.47C63.12,275.75,61.19,281.84,54.4,279.59Z"/><path class="cls-29" d="M54.4,279.59l-0.19-.06c-1,2.49-3.48,5,0,7.49h0L55,287C55.13,284.46,55.62,281.92,54.4,279.59Z"/><path class="cls-29" d="M76.93,294.83C71.34,287.17,63.45,286.27,55,287c0,0.11,0,.22,0,0.33,3.25,1,6.5,2.05,9.77,3,4,1.15,9.07.36,10.23,6.15,0.72-.39,1.44-0.76,2.17-1.11C77.08,295.16,77,295,76.93,294.83Z"/><path class="cls-29" d="M54.17,287L55,287.29c0-.11,0-0.22,0-0.33Z"/><path class="cls-29" d="M66.58,272.29c0.37-.85.77-1.67,1.19-2.47-0.76.63-1.52,1.29-2.26,2h0c-4.25,1.79-6,7.22-11.16,7.71l0,0.08C61.19,281.84,63.12,275.75,66.58,272.29Z"/><path class="cls-29" d="M54.35,279.52l-0.15,0,0.19,0.06Z"/><path class="cls-30" d="M139.75,286.77c-21,1.79-41.55,5.9-62.26,9.26,1.59,2.88,4.48,4.21,7.38,5.67,1.58,0.8,4.22,1.47,3.4,3.83,2.08-4,6-3.62,9.63-3.9,7.93-.62,15.6,1.56,23.41,2.25,2.81,0.25,5.83,1.56,8.38.36,10.09-4.72,18.36-.64,26.2,5.09,11.93,8.73,24.1,5.34,35.52-.08,6.34-3,11.61-4.88,18.55-2.53,12.16,4.11,23,2.41,30.34-9.56a5.49,5.49,0,0,1,2.8-2.46c12.94-3.63,22.49-13.38,34.39-19,8.5-4,17.3-8.63,23.12-16.92,2.43-3.46,5.45-6.62,10.35-5.95l0.44-14.41h0c-0.54-2.5-1.3-4.86-4.09-5.77-2.26-.73-5.91.17-6.3-2.87s2.61-3.88,5.31-5.36a9.47,9.47,0,0,0,0-1.06l-7-.68-8.94,9.41h0c3.82,0.38,5.84,3.38,8.32,5.71,3.49,3.28,3.93,6.17-.78,8.83-5.94,3.34-9.12,8.74-12.28,14.71-2.76,5.2-6.81,10.64-14.28,10.7-3.57,0-6.62,1.91-9.09,4.42-4.6,4.69-8.9,9.81-16.43,9.36a1.26,1.26,0,0,0-.85.36c-14.29,14.55-33.27,6.47-49.82,10.13-4.18.92-7.41,0.89-9.22,5.9-2.22,6.14-7.18,6.69-13.13,4.23-7.81-3.22-13.81-7.58-17-16-1.88-4.89-5.45-9.29-11.67-9.11l0.08,0.32C144.17,284.65,142.62,286.52,139.75,286.77Z"/><path class="cls-30" d="M88.26,305.53c0.82-2.36-1.82-3-3.4-3.83-2.9-1.46-5.79-2.79-7.38-5.67l-2.49.41c0.75,8.21,9.6,5,13.13,9.34h0C88.17,305.69,88.22,305.62,88.26,305.53Z"/><path class="cls-30" d="M111.26,305c6.71,0.8,13.9,4.58,20.1,1.57,7.92-3.84,14-2.3,19.7,2.93,12,10.94,26.69,10,38.25,3.4,10.06-5.71,18.56-4.54,27.57-2.49,9.84,2.24,16.85-.1,22.27-8.13,2-2.91,4-6.71,7.21-7.07,11.4-1.26,18.34-10.06,27.13-15.51,3.47-2.15,7-.23,10.67-3.56,8.72-7.9,18.23-15,26.79-23.21V252.8c-4.9-.67-7.92,2.48-10.35,5.95-5.82,8.3-14.62,12.89-23.12,16.92-11.91,5.65-21.45,15.4-34.39,19a5.49,5.49,0,0,0-2.8,2.46c-7.36,12-18.17,13.67-30.34,9.56-6.94-2.35-12.21-.48-18.55,2.53-11.42,5.42-23.59,8.82-35.52.08-7.84-5.73-16.11-9.81-26.2-5.09-2.55,1.19-5.57-.11-8.38-0.36-7.81-.69-15.48-2.86-23.41-2.25-3.64.28-7.55-.05-9.63,3.9l-0.09.24C95.78,302.83,103.44,304,111.26,305Z"/><path class="cls-30" d="M88.17,305.77l0.09-.24c0,0.09-.1.16-0.14,0.26h0Z"/><path class="cls-30" d="M140.43,284.73c-8.89-3.43-16.77,2.16-25.24,2.7-12.88.83-26.06,2-38,7.89,0.11,0.24.21,0.48,0.33,0.7,20.71-3.37,41.31-7.47,62.26-9.26,2.87-.25,4.43-2.12,4.4-5.1l-0.08-.32c-0.37,0-.75,0-1.15.08h0C142.67,283,141.92,285.31,140.43,284.73Z"/><path class="cls-30" d="M77.16,295.33c-0.73.35-1.45,0.72-2.17,1.11l2.49-.41C77.36,295.81,77.26,295.57,77.16,295.33Z"/><path class="cls-20" d="M312.82,255c0-1.72.12-3.44,0.16-5.16a8.45,8.45,0,0,1-1.93,3c0.14,0,.27,0,0.41,0A8.25,8.25,0,0,1,312.82,255Z"/><path class="cls-20" d="M312.82,255a8.25,8.25,0,0,0-1.36-2.11c-0.14,0-.27,0-0.41,0l-0.1.11c0.45,2.63-.67,5.63,1.87,7.75l0.18-1A38.07,38.07,0,0,1,312.82,255Z"/><path class="cls-20" d="M312.82,260.67h0l0.27-.28c0-.25-0.06-0.51-0.08-0.76Z"/><path class="cls-20" d="M313,249.8c0.11-3.85,0-7.68-1.59-11.4h0L311,252.8h0.1A8.45,8.45,0,0,0,313,249.8Z"/><path class="cls-20" d="M311.05,252.81H311v0.12Z"/><path class="cls-31" d="M332.43,220.85l-0.07.14c1.28,2.2.74,4.53-.17,6.67-5,11.89,0,23.6.8,35.32,0.37,5.19,5.48,7.13,9.86,7.22V253.65c-8-8-8.32-21.45-.25-29.31l0.25-.23v-8.22c-3.11,2.3-6.35,4.37-10.42,5h0Z"/><path class="cls-31" d="M333,263c-0.85-11.72-5.84-23.43-.8-35.32,0.91-2.14,1.45-4.47.17-6.67-5.74,10.26-5.93,21-2.81,32.07a24.2,24.2,0,0,1,.39,5.61c0.3,8.39,5.25,14.22,12.92,14.56v-3C338.48,270.11,333.37,268.16,333,263Z"/><path class="cls-32" d="M336.27,189.8c-3.87-5.19-10.6-3.49-16.39-1.94-3.79,1-7.93,3.24-8.87-3.57-0.79-5.66-7.85-.43-9.55-5-5.34-3.06-8.11-3-10.65,4.22-2.07,5.92-5.67,14-15.61,11-4.85-1.47-9.24,2.8-14.56,1.19-2.72-.82-3.89,2.25-2,5.17,6.27,9.72,11.76,19.85,21.33,27.25,2.86,2.21,5.24,3.72,8.56,4.26l1.6-.27c0.83-5.49,5-8.21,9.26-10.9a23.24,23.24,0,0,1,5.19,0,56.29,56.29,0,0,1,19.45-.82,12.36,12.36,0,0,1,3.91-.84,6.14,6.14,0,0,1,4.12.9c0.09,0.13.16,0.26,0.24,0.39h0.15a107.86,107.86,0,0,1,10.43-8v-18A14,14,0,0,1,336.27,189.8Z"/><path class="cls-32" d="M328.27,221.08a10.23,10.23,0,0,0-1.89.47C327,221.41,327.64,221.26,328.27,221.08Z"/><path class="cls-32" d="M328.28,221.08l4-.22c-0.08-.13-0.14-0.26-0.24-0.39a6.14,6.14,0,0,0-4.12-.9,12.36,12.36,0,0,0-3.91.84c1.42,0.18,2.84.4,4.26,0.67h0Z"/><path class="cls-32" d="M290.34,232.06h0l8.94-9.41c1.75-.58,3.52-1,5.28-1.42a23.24,23.24,0,0,0-5.19,0c-4.24,2.69-8.43,5.41-9.26,10.9l0.22,0h0Z"/><path class="cls-32" d="M342.86,215.89v-3a107.56,107.56,0,0,0-10.42,8C336.51,220.26,339.75,218.2,342.86,215.89Z"/><path class="cls-33" d="M307.76,223.47a11.33,11.33,0,0,1-1.45.92c0,0.94-.11,2.11-0.24,3.61-0.19,2.11,1.43,2.42,2.62,3.15,3.08,1.87,4.36,4.7,4.76,8.08,2.67,1.72,1.61,5,1.43,7.76a43,43,0,0,1,1.13-5.92c0.59-2.12.23-4.88,2.11-6.25,0.92-4.28.4-9.49,3.19-12.59-5.1.34-10.25-.19-15.37-0.13a3,3,0,0,1,.34,1.22Z"/><path class="cls-33" d="M318.12,234.82a4.58,4.58,0,0,1,2.22-.79h0c1.61-4.41.41-10.53,6-12.48a35.2,35.2,0,0,1-5.07.68C318.52,225.33,319,230.54,318.12,234.82Z"/><path class="cls-33" d="M316,241.07a43,43,0,0,0-1.13,5.92v0.08c-0.22,3.83.51,7.81-.9,11.49q0.15,0.6.31,1.19c2.32-1.62,2.21-4.35,2.53-7.05,0.1-.83.18-1.66,0.26-2.5-1.58-3.88,1.57-10.2,1-15.15,0-.08,0-0.15,0-0.23C316.24,236.19,316.6,238.95,316,241.07Z"/><path class="cls-33" d="M313.09,260.4h0a6.08,6.08,0,0,0,1.21-.65q-0.16-.59-0.31-1.19a10.6,10.6,0,0,1-.89,1.84h0Z"/><path class="cls-33" d="M318.12,234.82c0,0.08,0,.16,0,0.23,0.58,5-2.58,11.27-1,15.15,0.53-5.49.89-11,3.26-16.17h0A4.58,4.58,0,0,0,318.12,234.82Z"/><path class="cls-33" d="M308.69,231.15c-1.19-.72-2.81-1-2.62-3.15,0.13-1.5.23-2.67,0.24-3.61-2.7,1.48-5.71,2.19-5.31,5.36s4,2.13,6.3,2.87c2.78,0.9,3.55,3.27,4.09,5.77h0a6.52,6.52,0,0,1,2.05.83C313,235.84,311.77,233,308.69,231.15Z"/><path class="cls-33" d="M305.94,222.1a42.29,42.29,0,0,0-6.66.55l7,0.68A3,3,0,0,0,305.94,222.1Z"/><path class="cls-33" d="M313,249.8c0,1.72-.14,3.44-0.16,5.16a14.44,14.44,0,0,1,.75,2.06c0.64-3.31.87-6.69,1.31-10,0.18-2.8,1.24-6-1.43-7.76,0,0.12,0,.23,0,0.35C313.35,243,314.17,246.59,313,249.8Z"/><path class="cls-33" d="M313.07,259.24c0.19-.74.35-1.48,0.5-2.23a14.44,14.44,0,0,0-.75-2.06,38.07,38.07,0,0,0,.18,4.68Z"/><path class="cls-33" d="M314,258.56c1.4-3.68.67-7.66,0.9-11.49V247c-0.44,3.34-.68,6.72-1.31,10C313.72,257.53,313.85,258,314,258.56Z"/><path class="cls-33" d="M313.07,259.24l-0.07.4c0,0.25,0,.51.08,0.76h0a10.6,10.6,0,0,0,.89-1.84c-0.13-.52-0.26-1-0.41-1.54C313.43,257.76,313.26,258.51,313.07,259.24Z"/><path class="cls-33" d="M313,249.8c1.19-3.21.37-6.81,0.51-10.22,0-.12,0-0.23,0-0.35a6.52,6.52,0,0,0-2.05-.83C313,242.11,313.09,245.94,313,249.8Z"/><path class="cls-33" d="M305.94,222.1c5.12-.07,10.27.46,15.37,0.13a7.21,7.21,0,0,1,2.7-1.82,56.29,56.29,0,0,0-19.45.82A1.94,1.94,0,0,1,305.94,222.1Z"/><path class="cls-33" d="M326.38,221.55a10.23,10.23,0,0,1,1.89-.47h0c-1.42-.28-2.84-0.49-4.26-0.67a7.21,7.21,0,0,0-2.7,1.82A35.2,35.2,0,0,0,326.38,221.55Z"/><path class="cls-33" d="M305.94,222.1a1.94,1.94,0,0,0-1.38-.88c-1.77.39-3.53,0.84-5.28,1.42A42.29,42.29,0,0,1,305.94,222.1Z"/><path class="cls-34" d="M207.54,21l-0.92-.53q-2.4,2.83-4.57,5.86Q204.84,23.74,207.54,21Z"/><path class="cls-34" d="M216.33,58.57c-3.1,2.52-7.21,4.38-6.88,9.29,0.06,0.93,2.1,2.6,2.2,2.53,3.55-2.61,9.7-1.62,10.78-7.68,0.65-3.67,4.4-4.19,6.64-6.26,2-1.89,3.94-1.4,5.75.43s3.71,4.41,1.61,6.57c-3.69,3.77-4.79,10.59-12.25,10.26-4.77-.21-6.9,4.37-11.5,7.32,0,0.13,0,.25.08,0.38,7.82,2.63,14.15,5,20.47-.65,2.06-1.85,5.35-2.53,7.06-1.21,7.07,5.47,12.65.83,19-1.53,7.17-2.68,14.23-6.08,22.67-3,4.64,1.72,9-1.19,13.25-3.45L221.67,29.19C225.1,38.06,223,53.18,216.33,58.57Z"/><path class="cls-34" d="M202,26.36q2.17-3,4.57-5.86l-2.38-1.37a68.42,68.42,0,0,0-8.32,13C197.94,30.18,200,28.28,202,26.36Z"/><path class="cls-28" d="M199.29,66.26c0,5.55-4.23,8.33-9.9,6.71-6.92-2-10.41-.21-9.17,7.44,0.73,4.5-2.25,4.46-5.17,4.46a14.74,14.74,0,0,0-12.75,6.72,17.07,17.07,0,0,1-11.8,7.1c-13.59,1.47-23.26,10.72-34.89,16-2.8,1.26-5.78,3.69-8.78,1.59-2.23-1.56-1.41-3.36-.62-5.21-2.87,3.49-6.83,7.17-5.05,11.68,1.54,3.89,6.87.84,10.34,2,1.17,0.4-.29-0.15.9,0.22,5.45,1.7,13.53-.51,15.64,6.15,2,6.43-4.74,10.17-9,14-2.26,2.05-3.08,3.41-1.14,6.15,2.82,4,1.12,7.27-3.31,7-6.41-.45-7.76,8.64-14.07,7.48a14.33,14.33,0,0,0,10,6.49c4.31,0.73,5.87,3.26,3,8.14-3.34,5.6-8.41,10.35-5.29,19.1,2.11,5.91-7.23,9.14-10.62,14.36-5.18,8-22.73,12.17-32.1,9.08h0L65,222.45C51.3,222.91,37.46,231.71,33,243c5.12,3.36,12.29-5.94,16.57,2.68a5.27,5.27,0,0,1-.14,1,12.88,12.88,0,0,1,9.43-3.4c22,0.55,37.61-11.79,52.66-25.5,4.09-3.72,7.16-8.68,12.69-10.7,1.61-7.22,2.15-12.32,14.06-12.21,10.25,0.09,20.85-10,30.84-16.35C181,171,192.9,164,207.22,162.23c5.17-.65,8.89-4,9.18-9.22s3-8,6.59-10.75c12.44-9.37,28.38-13.32,39-25.71,3.93-4.6,9,2.06,14.73-.61,18.09-8.44,38.84-10.6,55.89-21.41,0.36-.23.74-0.45,1.11-0.67l-36.31-21c-1.24.56-2.47,1.17-3.7,1.84-4.19,2.29-8.83,3.59-13.68,2.42-5.83-1.4-11.24-.05-16.59,2-7.83,3-15.33,7.61-24.33,3.49-2.27-1-4.86.73-7.15,1.81a12.63,12.63,0,0,1-4.41,1.63c-5.6.33-13,1.41-14.77-4.64v0l-0.44-.15,0.36-.23c-1.08-4.94,5.28-7.55,9.82-9.23,4-1.48,7.51-3.2,9.59-7.07,0.76-1.41,1.56-3.11.28-4.36-1.72-1.68-3.49-.44-5,0.78-2.69,2.2-3.88,5.9-7,7.61-3.41,1.89-7.25,5.63-11,1.83-4.24-4.27-.66-8,2.4-11.34C220.41,49.94,223.07,38,219,27.63l-1-.6C215.26,35.86,209.86,43.34,205,51,201.89,55.81,199.31,60.11,199.29,66.26Z"/><path class="cls-28" d="M114.58,158.23c4.43,0.31,6.14-3,3.31-7-1.93-2.73-1.12-4.09,1.14-6.15,4.26-3.86,11-7.6,9-14-2.11-6.66-10.19-4.45-15.64-6.15-1.19-.37.27,0.17-0.9-0.22-3.47-1.18-8.8,1.88-10.34-2-1.78-4.51,2.18-8.19,5.05-11.68a5.79,5.79,0,0,0,.73-3.4h0c-5.63,2.82-7.14,8.62-9.38,13.68-2,4.51,1.07,6.25,5.13,6.25,1.83,0,3.95-1.48,5.43-.93,6.1,2.26,16-1,17.94,5,1.69,5.29-5.61,10.85-11.83,13.56-2,.87-3.94,2.25-1.82,3.9,8.13,6.34,7.12,8.15-2.89,7.05-2.07-.23-3.68,2.37-4.16,4.6-0.72,3.33-3.14,3.48-5.74,3.56,0.29,0.49.58,0.95,0.89,1.4C106.82,166.87,108.18,157.78,114.58,158.23Z"/><path class="cls-28" d="M49.55,245.71c-4.28-8.62-11.45.67-16.57-2.68C37.46,231.71,51.3,222.91,65,222.45c-2-2.12-4.1-4.75-7.4-3-7.61,4.11-15.52,8-22.24,13.3-3.4,2.69-7.18,8.7-5.62,12.63,1.82,4.58,7.09-.34,10.92-0.35,3.06,0,6.74-3.51,8,2.37h0c0.24-.27.5-0.51,0.75-0.75A5.27,5.27,0,0,0,49.55,245.71Z"/><path class="cls-28" d="M111.49,217.79c-15,13.7-30.67,26-52.66,25.5a12.88,12.88,0,0,0-9.43,3.4,5.44,5.44,0,0,1-.16.61c2.84-.65,5.69-1.7,8.52-1.63,29.8,0.69,48.41-18,66.29-38l0.13-.59C118.66,209.1,115.58,214.06,111.49,217.79Z"/><path class="cls-28" d="M48.66,247.43l0.59-.13a5.44,5.44,0,0,0,.16-0.61C49.15,246.92,48.9,247.16,48.66,247.43Z"/><path class="cls-28" d="M281.92,75.08c-8.44-3.13-15.5.27-22.67,3-6.32,2.36-11.9,7-19,1.53-1.7-1.32-5-.64-7.06,1.21-6.32,5.68-12.66,3.28-20.47.65v0c1.8,6.05,9.17,5,14.77,4.64a12.63,12.63,0,0,0,4.41-1.63c2.28-1.08,4.88-2.85,7.15-1.81,9,4.12,16.5-.46,24.33-3.49,5.35-2.07,10.77-3.42,16.59-2,4.85,1.17,9.49-.13,13.68-2.42,1.22-.67,2.46-1.27,3.7-1.84l-2.2-1.27C290.91,73.89,286.56,76.8,281.92,75.08Z"/><path class="cls-28" d="M211.79,59.26c-3.06,3.31-6.64,7.07-2.4,11.34,3.77,3.8,7.61.06,11-1.83,3.09-1.71,4.27-5.41,7-7.61,1.49-1.21,3.25-2.46,5-.78,1.28,1.25.48,3-.28,4.36-2.08,3.87-5.6,5.6-9.59,7.07-4.54,1.68-10.9,4.29-9.82,9.23,4.6-3,6.73-7.53,11.5-7.32,7.47,0.33,8.56-6.49,12.25-10.26,2.11-2.15.29-4.66-1.61-6.57s-3.71-2.31-5.75-.43c-2.24,2.07-6,2.58-6.64,6.26-1.08,6.06-7.23,5.07-10.78,7.68-0.1.07-2.13-1.6-2.2-2.53-0.33-4.91,3.78-6.77,6.88-9.29,6.63-5.39,8.77-20.52,5.33-29.38L219,27.63C223.07,38,220.41,49.94,211.79,59.26Z"/><path class="cls-35" d="M65.46,222.88q8.84-1.42,17.62-3.13a28.45,28.45,0,0,0,21.08-18.51c2.47-7.15,2.87-15.31,6.91-22.45,1.67-3-1.68-4-3.93-5.19-3.54-1.84-7.71-3.3-7.61-8.14l-0.11,0c-13-2-22.51,5.3-31.82,12.49-9.48,7.32-11.86,17.19-8.84,28.61,0.9,3.39,1.73,6.66,4.91,8.75,2.6,1.71,4.07,3.91,2.5,7.13l-0.73,0c0,0.15,0,.31,0,0.45h0Z"/><path class="cls-35" d="M63.67,215.28c-3.18-2.09-4-5.36-4.91-8.75-3-11.42-.64-21.29,8.84-28.61,9.31-7.19,18.79-14.51,31.82-12.49l0.11,0a9.37,9.37,0,0,1,.09-1.15c-1.72-3.27-4.14-4.55-7.73-2.85-7,3.31-14.44,5.86-20.88,10-19.1,12.29-21.2,31-6.07,47.77,0.6,0.67.44,2,.5,3.2l0.73,0C67.73,219.19,66.27,217,63.67,215.28Z"/><path class="cls-35" d="M107.14,173.6c2.25,1.17,5.61,2.23,3.93,5.19-4,7.14-4.43,15.3-6.91,22.45a28.45,28.45,0,0,1-21.08,18.51q-8.79,1.71-17.62,3.13c9.37,3.09,26.92-1.1,32.1-9.08,3.39-5.23,12.73-8.45,10.62-14.36-3.12-8.74,2-13.5,5.29-19.1,2.91-4.89,1.35-7.41-3-8.14a14.33,14.33,0,0,1-10-6.49,7.44,7.44,0,0,1-1-.25C99.43,170.3,103.6,171.75,107.14,173.6Z"/><path class="cls-35" d="M100.51,165.71c-0.31-.45-0.6-0.91-0.89-1.4a9.37,9.37,0,0,0-.09,1.15A7.44,7.44,0,0,0,100.51,165.71Z"/><path class="cls-36" d="M198.31,31.91l-0.1.15a22,22,0,0,1-4.61,7l-4.22,3.61c-5.59,9-12.21,16.86-22.74,21.24-4.47,1.86-8,5.95-12.12,8.72-12.42,8.3-25.43,15.75-36.32,26.2a4,4,0,0,1-2.21.86c-0.4.49-.83,0.95-1.22,1.45a75.25,75.25,0,0,1-6.95,8.1l-0.14.15c1.83,3.65,4.55,5.5,8.88,2.3,11.25-8.33,24.22-12.58,37.19-17.26,7.74-2.79,12.53-11.43,21.56-12.81,1.56-.24,1.79-2.41,2.18-3.93,1.4-5.35,4.87-8.06,10.38-7.39,6,0.74,8.92-1.9,9.35-7.68a20.7,20.7,0,0,1,4.64-11.14C207.78,43.67,211,34.22,217,26.5l-7.41-4.28-0.76.69C205.46,26,203.2,30.85,198.31,31.91Z"/><path class="cls-36" d="M107.82,109.2a75.25,75.25,0,0,0,6.95-8.1c0.39-.5.82-1,1.22-1.45-1,.15-2.15.19-3.12,0.4h0l-5.93,7.58h0c0.23,0.61.48,1.18,0.75,1.72Z"/><path class="cls-36" d="M193.6,39a22,22,0,0,0,4.61-7l0.1-.15a9.61,9.61,0,0,1-2.4.21h0l-3.62,5.64q-1.42,2.48-2.91,4.87Z"/><path class="cls-36" d="M198.31,31.91c4.89-1.06,7.15-5.9,10.52-9l0.76-.69L207.54,21q-2.69,2.72-5.49,5.33C200.75,28.17,199.5,30,198.31,31.91Z"/><path class="cls-36" d="M198.31,31.91c1.19-1.9,2.44-3.74,3.73-5.55-2,1.92-4.1,3.82-6.13,5.75h0A9.55,9.55,0,0,0,198.31,31.91Z"/><path class="cls-36" d="M197.22,62.58c-0.43,5.78-3.33,8.42-9.35,7.68-5.51-.68-9,2-10.38,7.39-0.4,1.52-.62,3.69-2.18,3.93-9,1.38-13.81,10-21.56,12.81-13,4.68-25.94,8.93-37.19,17.26-4.33,3.2-7.05,1.35-8.88-2.3-0.37.42-.77,0.81-1.12,1.24l-0.36.44c-0.79,1.84-1.6,3.65.62,5.21,3,2.1,6-.33,8.78-1.59,11.63-5.24,21.3-14.48,34.89-16a17.07,17.07,0,0,0,11.8-7.1,14.74,14.74,0,0,1,12.75-6.72c2.92,0,5.89,0,5.17-4.46C179,72.75,182.47,71,189.39,73c5.67,1.62,9.89-1.15,9.9-6.71,0-6.15,2.59-10.44,5.69-15.29,4.88-7.63,10.27-15.11,12.94-23.94L217,26.5c-6,7.72-9.22,17.17-15.14,24.95A20.7,20.7,0,0,0,197.22,62.58Z"/><path class="cls-36" d="M106.21,111l0.36-.44c0.35-.43.75-0.82,1.12-1.24-0.27-.54-0.52-1.11-0.75-1.71A5.79,5.79,0,0,1,106.21,111Z"/><path class="cls-28" d="M182.52,48.44C176,53.9,169.41,59.25,162.59,64.35L165,62.92A87.12,87.12,0,0,0,182.52,48.44Z"/><path class="cls-28" d="M133,84.33c1.6-1.19,3.2-2.39,4.78-3.61,7.7-6,16.3-11.25,24.8-16.38,6.82-5.1,13.42-10.45,19.93-15.91,3.34-3.45,6.54-7.06,9.76-10.68a12.49,12.49,0,0,0-2.45,1.32c-14.32,12.39-28.74,24.39-45,34.61-11.43,7.19-23.9,14.52-32,26.37h0c4.88-4.35,10.12-8.26,15.37-12.14Z"/><path class="cls-28" d="M165,62.92l-2.37,1.43c-5.61,4.2-11.37,8.23-17.37,12-4.07,2.55-8.2,5.17-12.2,8l-4.78,3.57A77.63,77.63,0,0,0,116,99.65a4,4,0,0,0,2.21-.86c10.89-10.45,23.91-17.9,36.32-26.2,4.15-2.77,7.65-6.86,12.12-8.72,10.53-4.37,17.14-12.27,22.74-21.24q-3.42,2.92-6.86,5.81A87.12,87.12,0,0,1,165,62.92Z"/><path class="cls-28" d="M162.59,64.35c-8.5,5.13-17.1,10.4-24.8,16.38-1.57,1.22-3.17,2.41-4.78,3.61,4-2.83,8.13-5.44,12.2-8C151.22,72.58,157,68.55,162.59,64.35Z"/><path class="cls-28" d="M189.38,42.62q1.49-2.39,2.91-4.87c-3.22,3.62-6.42,7.23-9.76,10.68Q186,45.55,189.38,42.62Z"/><path class="cls-28" d="M128.23,87.9C123,91.78,117.74,95.7,112.87,100c1-.21,2.1-0.24,3.12-0.4A77.63,77.63,0,0,1,128.23,87.9Z"/><path class="cls-37" d="M288.71,127c-8.82,4.7-19.9,5.9-27.45,13.21-6.3,6.11-13,7.9-21.57,9.29-11.71,1.89-20.21,11.93-28.43,20.28-10.51,10.69-18.87,24-36,24.68-2.79.12-4.55,1.77-6.47,3.44-12.37,10.76-26.61,18.17-41.83,23.83-0.24.47-.48,0.94-0.7,1.41-11.88,7.3-23.17,15.51-34.58,23.53-7.54,5.3-15.19,10.59-20.66,18,4-3.05,9-4.21,14.49-4.59,5.68-.39,11.51-0.45,16.35-3.72,8.54-5.78,17.76-5,27.24-4,5.9,0.6,9.19,3.53,10.4,9.11,1.4,6.52,2.85,13,4.51,19.51,8-3.26,10.88,3.69,13.92,8.74,3.51,5.82,7.15,10.75,13.82,13.34,5.44,2.11,9.65,2.35,12.76-3.36,1.58-2.91,4.08-5.48,7.37-5.1,11,1.25,21.45-3.92,32.41-3-1.93-1-1.53-5.3-3.73-6.36h0c-4.68,4.24-10.23,3.71-15.26,1.61-3.57-1.49-7.3-3.62-9.51-7.29-9.36,0-18.14,1-24.31,9.69-2.11,3-5.88.47-7.09-1.76-2.71-5-11.73-7.79-6.75-15.63,2.83-4.45,3.69-9,4.53-14,2-12.26,9.3-19.86,21-25.25,16-7.37,32.71-13.58,46.63-25.18,4.54-3.78,5.81-8.78,8.45-13.15,10.59-17.48,29.29-22.74,45.72-31.33,12.52-6.54,25.48-5.26,39-1.65a69.35,69.35,0,0,0,19.94,2.63V109.65c-1.71.51-3.41,1-5.1,1.61C321.55,116.82,304.37,118.66,288.71,127Z"/><path class="cls-37" d="M286.4,244.91c-8.89,11.22-19.55,18.58-33.75,22-6.93,1.66-13,7.11-19.35,10.9-1.31.77-3.28,2-2,3.54,5.42,6.5-1.19,8.52-4.46,10a5,5,0,0,1-1.23.38c0.55,0.07,1.09.14,1.64,0.24,4.49,0.86,7.89-1.76,11.89-3.81,10.78-5.54,20-13.75,31.28-18.13,5.95-2.31,10.4-5.55,13.47-10.95,1.86-3.27,3.64-6.59,6.26-9.36,8-8.48,8-8.49-.18-17.07,0-.11,0-0.19.06-0.3a4.38,4.38,0,0,1-1.11.93C291.09,237.6,289.56,240.93,286.4,244.91Z"/><path class="cls-37" d="M124.08,222.8c-14.41,5-25,16.12-37.21,24.43C78.44,253,66.58,258.5,65.51,271.8h0A18,18,0,0,1,71,264.68c5.46-7.42,13.12-12.71,20.66-18,11.41-8,22.7-16.23,34.58-23.53,0.22-.47.46-0.94,0.7-1.41-0.95.35-1.89,0.72-2.85,1.06h0Z"/><path class="cls-37" d="M88.12,262.46c4.09,0.15,8.19.21,11.85-2.1a37.66,37.66,0,0,1,26.47-5.85c7.38,1,10.15,2.95,11.26,10.35,0.83,5.55.1,12.17,5.23,16.58h0c0.37-.18.71-0.31,1.06-0.45-1.66-6.47-3.11-13-4.51-19.51-1.2-5.58-4.5-8.51-10.4-9.11-9.48-1-18.71-1.76-27.24,4-4.84,3.27-10.67,3.33-16.35,3.72-5.47.38-10.54,1.53-14.49,4.59a39.27,39.27,0,0,0-3.22,5.14C73.58,265,80.19,262.16,88.12,262.46Z"/><path class="cls-37" d="M65.51,271.8h0c0.74-.7,1.49-1.35,2.26-2A39.27,39.27,0,0,1,71,264.68,18,18,0,0,0,65.51,271.8Z"/><path class="cls-37" d="M155.74,290.46c3.23,8.38,9.23,12.73,17,16,6,2.46,10.91,1.91,13.13-4.23,1.81-5,5-5,9.22-5.9,16.55-3.66,35.52,4.43,49.82-10.13a1.26,1.26,0,0,1,.85-0.36c7.52,0.46,11.82-4.67,16.43-9.36,2.47-2.52,5.51-4.39,9.09-4.42,7.48-.06,11.53-5.5,14.28-10.7,3.17-6,6.34-11.37,12.28-14.71,4.72-2.65,4.27-5.54.78-8.83-2.48-2.33-4.5-5.33-8.32-5.71-0.08.11-.18,0.17-0.27,0.27s0,0.19-.06.3c8.18,8.59,8.19,8.59.18,17.07-2.62,2.77-4.4,6.09-6.26,9.36-3.07,5.39-7.52,8.63-13.47,10.95-11.27,4.38-20.5,12.59-31.28,18.13-4,2.06-7.4,4.67-11.89,3.81-0.55-.11-1.1-0.17-1.64-0.24a2.16,2.16,0,0,1-1.37-.14c-11-.89-21.41,4.28-32.41,3-3.3-.37-5.8,2.2-7.37,5.1-3.1,5.71-7.32,5.47-12.76,3.36-6.67-2.59-10.31-7.51-13.82-13.34-3-5.05-5.88-12-13.92-8.74l0.09,0.37C150.29,281.17,153.86,285.57,155.74,290.46Z"/><path class="cls-37" d="M144.07,281.35L144,281c-0.35.14-.69,0.27-1.06,0.45C143.32,281.38,143.7,281.36,144.07,281.35Z"/><path class="cls-37" d="M290.07,232.33c0-.08,0-0.15,0-0.23l-1.6.27c0.18,0.31.3,0.6,0.44,0.9A4.38,4.38,0,0,0,290.07,232.33Z"/><path class="cls-37" d="M290.34,232.06h0l-0.22,0c0,0.08,0,.15,0,0.23C290.15,232.23,290.26,232.17,290.34,232.06Z"/><path class="cls-38" d="M335.59,95a43,43,0,0,0-4,2.48c-15,10.63-34,11.78-50.36,19.37-4.16,1.93-8.8,3.5-13.71,2.08a5.78,5.78,0,0,0-6.12,1.55c-8.55,9.83-21.2,13.22-31.54,20.23-5.32,3.61-10.13,7.18-11.61,14-1,4.54-4.22,8.34-8.76,9-23.91,3.65-41.48,20.19-62.25,30.16-2.25,1.08-4.36,3.67-6.62,3.34-8.43-1.22-12.55,3.78-16.2,9.79,7.61,3.63,5.74,8.34,3.3,13.12,6.82-4.6,14.35-8,21.54-11.91,3.86-2.11,8.13-3.71,11.33-6.71,6.64-6.23,14.48-9.12,23.17-11.6,10.1-2.89,16.55-11.9,23.82-19.14,11.47-11.43,21.69-24.78,40.22-24.73,2.29,0,4.11-1.29,5.83-2.77,16.8-14.47,37-21.27,58-27.35,10.37-3,21-5.43,31.25-8.83v-8Z"/><path class="cls-38" d="M124.08,222.8h0c1.19-.93,2.41-1.8,3.65-2.63,2.44-4.78,4.31-9.49-3.3-13.12l-0.38.62C131.84,212.7,125.75,217.75,124.08,222.8Z"/><path class="cls-38" d="M276.68,115.94c-5.71,2.67-10.8-4-14.73.61-10.59,12.39-26.53,16.34-39,25.71-3.59,2.7-6.3,5.63-6.59,10.75s-4,8.57-9.18,9.22C192.9,164,181,171,169.08,178.52c-10,6.32-20.59,16.44-30.84,16.35-11.9-.11-12.44,5-14.06,12.21l0.17-.07,0.07,0c3.65-6,7.77-11,16.2-9.79,2.26,0.33,4.37-2.26,6.62-3.34,20.77-10,38.34-26.51,62.25-30.16,4.54-.69,7.79-4.5,8.76-9,1.48-6.87,6.29-10.43,11.61-14,10.34-7,23-10.4,31.54-20.23a5.78,5.78,0,0,1,6.12-1.55c4.92,1.43,9.55-.15,13.71-2.08,16.38-7.6,35.34-8.74,50.36-19.37a43,43,0,0,1,4-2.48l-1.91-1.1c-0.37.22-.75,0.44-1.11,0.67C315.52,105.33,294.76,107.5,276.68,115.94Z"/><path class="cls-38" d="M124.19,207.09l-0.13.59,0.38-.62-0.07,0Z"/><path class="cls-38" d="M253.65,143.29c-1.72,1.48-3.55,2.78-5.83,2.77-18.53,0-28.75,13.3-40.22,24.73-7.27,7.24-13.72,16.25-23.82,19.14-8.69,2.49-16.53,5.37-23.17,11.6-3.19,3-7.46,4.59-11.33,6.71-7.2,3.94-14.73,7.31-21.54,11.91l-0.81,1.57c15.22-5.66,29.46-13.08,41.83-23.83,1.92-1.67,3.68-3.33,6.47-3.44,17.18-.71,25.54-14,36-24.68,8.21-8.36,16.72-18.39,28.43-20.28,8.61-1.39,15.27-3.18,21.57-9.29,7.54-7.32,18.62-8.51,27.45-13.21,15.66-8.34,32.84-10.17,49-15.74,1.69-.58,3.39-1.1,5.1-1.61v-2.53c-10.29,3.4-20.89,5.81-31.25,8.83C290.67,122,270.45,128.83,253.65,143.29Z"/><path class="cls-38" d="M126.93,221.74l0.81-1.57c-1.24.84-2.47,1.7-3.65,2.63C125,222.46,126,222.09,126.93,221.74Z"/><path class="cls-39" d="M339.71,242.07a26.56,26.56,0,0,0,3.15,7.68v-22.6C339,231.31,338.07,236.11,339.71,242.07Z"/><path class="cls-39" d="M320.86,163.14c-12.55-3.4-24.69-3.46-36.73,2.28-9.09,4.33-17.89,9.24-27,13.62a32.66,32.66,0,0,0-15.23,15.09c-8.63,18.14-25.32,25.39-41.91,33.11-7.4,3.44-14.57,7.37-21.94,10.9-6.21,3-10.2,8.25-12.14,15s-2.66,13.48-5.61,19.92c-2.42,5.28,2.06,8.79,5.57,11.87s6.61,0.55,8.89-2.08c5.66-6.53,12.89-5.39,20.12-4.68l1.53,1c9.49-5.94,17.21-4.1,23.77,5.67,0.25-.07.5-0.13,0.75-0.21,4.75,3.26,9.11,6,8.56-3.64-0.21-3.64,3.17-5,5.74-6.78,9.34-6.33,19.71-10.74,30.06-14.89,12.21-4.89,19.06-13.72,22.77-25.56l-0.11.06c-12.28-3.15-19.26-12.52-25.89-22.25-0.68-1-.79-2.36-1.29-3.51-5.65-12.91-5-14.69,9.49-15.34,8.62-.39,15.14-2.57,18.68-10.65,3-6.77,7.61-7.55,13.69-4.63,1.17,0.5,2.39.9,3.6,1.31,12.91-.92,24.61,4.1,36.6,8.46V166A74,74,0,0,1,320.86,163.14Z"/><path class="cls-39" d="M342.86,253.65v-3.89a26.56,26.56,0,0,1-3.15-7.68c-1.64-6-.68-10.76,3.15-14.91v-3l-0.25.23C334.54,232.2,334.87,245.68,342.86,253.65Z"/><path class="cls-39" d="M280,228.1c-9.57-7.4-15.06-17.53-21.33-27.25-1.88-2.91-.71-6,2-5.17,5.32,1.61,9.71-2.66,14.56-1.19,9.94,3,13.54-5.08,15.61-11,2.54-7.26,5.31-7.27,10.65-4.22a42.22,42.22,0,0,1,4.81-.6c-1.21-.41-2.43-0.81-3.6-1.31-6.08-2.92-10.72-2.14-13.69,4.63-3.54,8.07-10.06,10.26-18.68,10.65-14.48.65-15.14,2.42-9.49,15.34,0.5,1.15.61,2.51,1.29,3.51,6.63,9.73,13.61,19.1,25.89,22.25l0.11-.06c0.14-.44.28-0.87,0.41-1.31C285.2,231.83,282.81,230.32,280,228.1Z"/><path class="cls-39" d="M226.87,291.32c3.28-1.47,9.88-3.49,4.46-10-1.32-1.58.65-2.77,2-3.54,6.4-3.79,12.43-9.24,19.35-10.9,14.2-3.4,24.86-10.76,33.75-22,3.16-4,4.69-7.31,2.56-11.65a4.6,4.6,0,0,1-.85.41c-3.72,11.83-10.56,20.66-22.77,25.56-10.35,4.15-20.72,8.56-30.06,14.89-2.57,1.74-5.95,3.15-5.74,6.78,0.56,9.69-3.81,6.91-8.56,3.64-0.25.08-.5,0.14-0.75,0.21l0.3,0.44h0c2.2,1.06,1.81,5.38,3.73,6.36q0.69,0.06,1.37.14A5,5,0,0,0,226.87,291.32Z"/><path class="cls-39" d="M322.92,161.25c-13.49-3.61-26.45-4.89-39,1.65-16.42,8.58-35.12,13.85-45.72,31.33-2.65,4.37-3.91,9.37-8.45,13.15-13.92,11.6-30.66,17.81-46.63,25.18-11.69,5.39-19,13-21,25.25-0.84,5-1.7,9.56-4.53,14-5,7.84,4,10.63,6.75,15.63,1.21,2.22,5,4.72,7.09,1.76,6.18-8.69,15-9.64,24.31-9.69,0.23-.15.46-0.28,0.69-0.43l-1.53-1c-7.23-.71-14.46-1.84-20.12,4.68-2.28,2.63-5.28,5.24-8.89,2.08s-8-6.59-5.57-11.87c2.95-6.43,3.71-13.3,5.61-19.92s5.92-12,12.14-15c7.37-3.53,14.54-7.46,21.94-10.9,16.59-7.71,33.28-15,41.91-33.11A32.66,32.66,0,0,1,257.18,179c9.07-4.38,17.86-9.29,27-13.62,12-5.74,24.18-5.68,36.73-2.28a74,74,0,0,0,22,2.84v-2.09A69.35,69.35,0,0,1,322.92,161.25Z"/><path class="cls-39" d="M225.64,291.7q-0.69-.09-1.37-0.14A2.16,2.16,0,0,0,225.64,291.7Z"/><path class="cls-39" d="M288.51,232.37c-0.13.44-.27,0.87-0.41,1.31a4.6,4.6,0,0,0,.85-0.41C288.81,233,288.7,232.67,288.51,232.37Z"/><path class="cls-40" d="M313.78,183.53c1.57,2.31,4.35,2.07,6.85,1.62a33.33,33.33,0,0,1,8.73-.59,166.24,166.24,0,0,0-17.2-4.12,9.22,9.22,0,0,0-2-.15A10.17,10.17,0,0,1,313.78,183.53Z"/><path class="cls-40" d="M341.84,191a6.5,6.5,0,0,0,1,.95v-1.46q-1.73-1-3.52-1.94A20.39,20.39,0,0,1,341.84,191Z"/><path class="cls-40" d="M339.33,188.52a66.86,66.86,0,0,0-10-4,33.33,33.33,0,0,0-8.73.59c-2.5.46-5.28,0.7-6.85-1.62a10.17,10.17,0,0,0-3.63-3.25c-3,.06-6,1.12-8.7-1,1.7,4.58,8.76-.65,9.55,5,0.95,6.81,5.09,4.58,8.87,3.57,5.79-1.55,12.52-3.25,16.39,1.94a14,14,0,0,0,6.59,5v-2.9a6.5,6.5,0,0,1-1-.95A20.39,20.39,0,0,0,339.33,188.52Z"/><path class="cls-40" d="M306.26,178.67a24.06,24.06,0,0,1,3.89,1.62,9.22,9.22,0,0,1,2,.15,166.24,166.24,0,0,1,17.2,4.12,17.5,17.5,0,0,1,10,4q1.79,0.9,3.52,1.94v-3.33C330.87,182.77,319.17,177.75,306.26,178.67Z"/><path class="cls-40" d="M310.15,180.28a24.06,24.06,0,0,0-3.89-1.62,42.22,42.22,0,0,0-4.81.6C304.12,181.41,307.15,180.35,310.15,180.28Z"/><path class="cls-40" d="M329.36,184.56a66.86,66.86,0,0,1,10,4A17.5,17.5,0,0,0,329.36,184.56Z"/><path class="cls-41" d="M196.71,279.24c7.14,4.39,14.47,8,23.32,5.58C213,279.53,205.5,276.68,196.71,279.24Z"/><path class="cls-41" d="M196.71,279.24c-0.31.09-.62,0.17-0.94,0.28,2.21,3.67,5.94,5.8,9.51,7.29,5,2.1,10.57,2.64,15.26-1.61l-0.51-.38C211.18,287.28,203.85,283.62,196.71,279.24Z"/><path class="cls-41" d="M220,284.82l0.2-.06c-6.56-9.78-14.28-11.62-23.77-5.67l0.25,0.15C205.5,276.68,213,279.53,220,284.82Z"/><path class="cls-41" d="M220,284.82l0.51,0.38-0.3-.44Z"/><path class="cls-41" d="M196.46,279.09c-0.23.15-.46,0.27-0.69,0.43,0.32-.11.63-0.19,0.94-0.28Z"/></svg>