<svg id="Färgen" xmlns="http://www.w3.org/2000/svg" viewBox="0 0 342.27 394.23"><defs><style>.cls-1{fill:none;}.cls-2{fill:#001f4f;}.cls-3{fill:#004099;}.cls-4{fill:#00427f;}.cls-5{fill:#000636;}.cls-6{fill:#00346f;}.cls-7{fill:#002861;}.cls-8{fill:#003573;}.cls-9{fill:#000533;}.cls-10{fill:#002a65;}.cls-11{fill:#001d4d;}.cls-12{fill:#003b7b;}.cls-13{fill:#0052bd;}.cls-14{fill:#015356;}.cls-15{fill:#1d6759;}.cls-16{fill:#00336e;}.cls-17{fill:#1e405e;}.cls-18{fill:#376450;}.cls-19{fill:#002a7f;}.cls-20{fill:#003998;}.cls-21{fill:#003b90;}.cls-22{fill:#014ba4;}.cls-23{fill:#005e6f;}.cls-24{fill:#047f9c;}.cls-25{fill:#01428c;}.cls-26{fill:#0470cf;}.cls-27{fill:#2c4f32;}.cls-28{fill:#024381;}.cls-29{fill:#fefefe;}.cls-30{fill:#757832;}.cls-31{fill:#2b74aa;}.cls-32{fill:#0a2f5d;}.cls-33{fill:#2b435c;}.cls-34{fill:#fcfbfd;}.cls-35{fill:#a1d6ef;}.cls-36{fill:#2f3d46;}.cls-37{fill:#6f4d52;}.cls-38{fill:#fa9907;}.cls-39{fill:#f4af2d;}.cls-40{fill:#f9bf45;}</style></defs><title>hexagon</title><path class="cls-1" d="M81.39,154.57l-0.6-.16c0.22,0.25.43,0.49,0.65,0.71C81.42,154.93,81.41,154.75,81.39,154.57Z"/><path class="cls-1" d="M283.34,177l0.87-.33-0.84-.42c0,0.12,0,.22,0,0.35S283.35,176.89,283.34,177Z"/><path d="M52.73,280.33c-3.62-8.84-12.84-10.16-19.53-14.78-3.65-2.52-7.15,1.12-7.75,4.39-0.89,4.81-3.74,8.56-5.32,12.94-1.74,4.83-3.53,9.65-10.38,10.73a8.45,8.45,0,0,0-5.17,3.45l51.2,29.56c0.7-3.36,1.43-6.69,3.11-9.56C67.33,302.63,57.55,292.11,52.73,280.33Z"/><path class="cls-2" d="M95.19,334.82a1.7,1.7,0,0,0,.42-0.81c-3.79-8-1.74-15.58-.85-24,1.1-10.32,5.75-20.36,17.08-20.65,6.22-.16,9.41-1.2,12.24-8.12,3.34-8.16,11.79-13.46,20.55-16.4,2.74-.92,5.82-1.16,7.15-3.79,3.21-6.36,7.21-11.61,14.14-14.39a6,6,0,0,0,3.37-6.31c-0.7-3.34-4.15-2.19-6.42-2.05-15.2.9-25.94-5.19-33.57-18.65-6.64-11.71-14.54-14.26-27.08-10.69-4.59,1.31-5.71-.55-5.69-4.49,0-3.39,0-6.78,0-10.18-4.65-.62-5.06,3.12-7,4.78-2.1,1.83-3.54,4.41-5.85,7.42-3.35-4.84-4.44-8.51-4.17-12.55,0.62-9.45-.93-18.74-1.86-28.09-0.37-3.78-1.35-7.44-5.23-7.82-3.43-.34-3.72,3.67-4.41,6.26C65.87,172.67,57.18,177,55,185.34h0c-1.93,7.84-3.89,15.68-5.78,23.53-0.47,1.93-1.14,3.69-3.31,4.06a4.23,4.23,0,0,1-4.5-2.79c-3.22-7.79-9.66-13.75-11.77-22.25-2.77-11.19-11.19-20.18-13-31.89-0.37-2.4-2.52-5.56,1.19-6.11,14.89-2.21,20.24-14.69,27.59-24.94,6.93-9.66,12.94-20.07,23.8-26.12,0.81-.45,1.93-1,2.14-1.75,4.94-16.94,22-22.17,32.31-33.87,6.41-7.3,8.8-17.28,11.45-26.49,0.71-2.46,1.49-4.91,2.28-7.35l-16.56,9.56a11.34,11.34,0,0,0-.45,1.78c-1.77,10.56-10.7,17.53-13.61,27.62-1.09,3.77-4.68,5.24-9.25,3.73-6.9-2.27-17.66,4.25-18.62,11.61-1.31,10-9.57,16-13.12,24.65-0.53,1.29-2,2.71-3.78,1.94-2-.88-2.19-3-2.12-4.85,0.28-7.3-1.66-7.3-7.11-3.08-9.05,7-17.24,14.34-20.25,26a8.59,8.59,0,0,1-1.94,3.19c-10.35,12-10.34,12-2.89,25.63,0.7,1.29,1.88,2.61.31,5.26a17.4,17.4,0,0,0-8.18-4.77v37.91c12.13,7.89,22,17.9,28.65,31.18,1.94,3.87,1.89,6.68-1.16,10.12-5.25,5.93-8.78,12.47-8.52,21.17,0.26,9.06-6.18,16-12.24,21.5a64.74,64.74,0,0,0-6.73,7.06v7.26c2.34-4.27,5.29-8.24,9.8-9.81C20.42,280.22,21.49,271,22.06,262.2c0.22-3.42.18-6.9,1.56-9.86,1.75-3.77,2.19-9.54,7.51-9.88s5.64,5,7,8.67,4.28,5,7.46,3.43a6,6,0,0,0,2.93-8.05c-1.56-3.4-3.86-6.45-5.56-9.8-2.17-4.28-1.75-8.27,3.24-10a73.79,73.79,0,0,1,14.29-3.38c3.81-.51,5.66,2.08,5.77,5.82,0.08,2.56.06,5.56,3,6.32,3.38,0.88,5.06-2.09,6.32-4.55,3-5.82,5.52-8.37,8.25.12,0.91,2.82,3.45,3.26,6.11,3.43a21.68,21.68,0,0,0,11-1.79c15.45-7.56,25.35,1.21,34.64,11.63,6,6.7,4.72,13.45-1.69,19.68-9.44,9.19-20.27,9.9-32.06,7.13a24.06,24.06,0,0,0-14.76.83c-4.39,1.72-8.89,3-14.64,1.21,2.79,10.19,5.3,19.69,8,29.14,1.17,4.07,1.5,8-.26,11.94a94.91,94.91,0,0,0-7,22.44L92.64,347.9A20.81,20.81,0,0,1,95.19,334.82Z"/><path class="cls-3" d="M210,26.36c2.66,0.52,5.23,3.17,8,1.27a3.24,3.24,0,0,0,1-1.05l-10.66-6.15a9.21,9.21,0,0,0-.44.89C206.74,23.92,207.31,25.84,210,26.36Z"/><path class="cls-3" d="M137.19,35.2c1.63,2.37-1.2,5.21-2.87,7.45-6,8.07-11.26,16.64-13.67,26.49-3.83,15.62-14.41,29.27-13.62,46.19,0.32,6.77.17,13.8,2,20.21,2.21,7.85,3.11,15.52,1.6,23.36-0.91,4.71-1.72,8.3,4.28,10.34,4.91,1.67,7.66,6.37,9.78,10.88S129.3,189,133,192.44c6.88,6.3,6.45,13.52,3.23,21.26h0c0.14,10.3,8.51,9.66,14.76,9.9a21.48,21.48,0,0,0,15.5-5.25c0.68-.63,1.51-1.75,2.16-1.67,12.77,1.52,16.48-10.37,24.21-16.25,3.51-5.93,6.18-11.9,12.24-16.62,8.64-6.73,12.83-16.87,14.45-28.31,2.07-14.67-.76-27.52-9.34-39.44-3.94-5.48-7.57-10.34-15.53-10.35-5.81,0-22.68-21.29-22.55-27.3,0.26-12.09-2.08-24.66,6-35.4a25.3,25.3,0,0,1,3.39-3.14C188.45,32.94,195.29,26,200,17.26a3.85,3.85,0,0,1,.89-1.09L170.58-1.33,140.52,16c-0.2.51-.42,1-0.61,1.51C137.78,23.54,132.22,28,137.19,35.2Zm12.4,110.65c2.06-5,3.34-9.87,9-12.44,8.82-4,9.31-15,16.34-20.8,1.69-1.4-1.4-3-2.83-3.94-4.8-3.26-2.69-6.73-.81-10.59,2.19-4.49,5.21-2.1,8-1.37,5.26,1.39,3.38,5,2.34,8.27-2.53,7.95,5.23,10.2,8.84,13.47,16.92,15.29,20.22,13,10,37.59-6.68,16.13-14.05,31.87-28.19,43.06-4.61,3.65-9.47,6.08-14.4-.34-3-3.87-12.79-.17-10.11-12.42C153.43,175,143.73,160,149.59,145.85Z"/><path class="cls-4" d="M217.29,29.6c-4.58,2.16-10.1-2.11-11.8-8.45-0.24-.9-0.4-1.82-2.83-2.25-5.21,6.06-9.82,13.49-16.21,19.32,2.28-.1,4,1.29,4.55,5.42h0c1.34,2.2,3.53,1.84,5.59,1.87,4.92-7.42,8.81-16.81,20.74-10.69a2.19,2.19,0,0,0,3.07-1.35,17.35,17.35,0,0,1,2.22-4.75l-2.43-1.4A6.73,6.73,0,0,1,217.29,29.6Z"/><path class="cls-4" d="M181.56,39.87a12.38,12.38,0,0,1,4.89-1.65c6.39-5.84,11-13.26,16.21-19.32,2.43,0.43,2.59,1.34,2.83,2.25,1.7,6.34,7.22,10.62,11.8,8.45a6.73,6.73,0,0,0,2.9-2.28l-1.28-.74a3.24,3.24,0,0,1-1,1.05c-2.75,1.9-5.33-.75-8-1.27s-3.21-2.44-2.14-5a9.21,9.21,0,0,1,.44-0.89l-7.38-4.26a3.85,3.85,0,0,0-.89,1.09C195.29,26,188.45,32.94,181.56,39.87Z"/><path class="cls-5" d="M15.62,97.31c7.9,4.9,12.56.37,15.48-4.87C36.92,82,45.46,74.15,53.79,66.1L-0.13,97.23v1.91C0,99.08.09,99,.21,98.94,5.11,96.58,11.12,94.52,15.62,97.31Z"/><path class="cls-5" d="M8.57,113.82c0.71-2,2.88-3.88,1.31-6.05-1.72-2.39-4.42-1.92-6.91-1.2-1,.29-2.1.82-3.1,1V124C3.46,121.24,6.93,118.44,8.57,113.82Z"/><path class="cls-6" d="M89.87,78.07c-6.45,4.68-12.52,9.5-15.14,17.48a9.74,9.74,0,0,1-4.1,5.08c-13,8.18-20.22,21.4-28.55,33.51-4.77,6.94-9.87,13-17.85,16.15-3.19,1.26-5.71,2.82-4.29,6.95,6.21,18,13.14,35.67,25,52.64,4.51-9,4.94-17.7,8.53-25.25a22.61,22.61,0,0,1,1.81-4.89c1.37-11,7.44-20.31,13.37-29.09,5.48-8.11,8.72-.21,12.12,3.76l0.6,0.16c-0.94-10.51-.62-20.82,4.32-30.54,3.31-6.51-2.14-11.31-3.75-16.74-4-13.64-3.46-13.7,8.73-20.79,8-4.64,11.69-14.61,18.6-20.69,11.15-9.8,11.85-24.93,20.32-35.92,1.8-2.34.18-4.77-.36-7.35l-8.86,5.12c-1.81,5.47-3.62,10.93-5.1,16.49C111.34,59,101.8,69.4,89.87,78.07Z"/><path class="cls-6" d="M103.7,63.21C93.43,74.91,76.33,80.14,71.39,97.08c-0.21.73-1.34,1.3-2.14,1.75-10.86,6.05-16.86,16.46-23.8,26.12-7.35,10.24-12.7,22.73-27.59,24.94-3.71.55-1.56,3.71-1.19,6.11,1.79,11.71,10.21,20.7,13,31.89,2.11,8.51,8.55,14.47,11.77,22.25a4.23,4.23,0,0,0,4.5,2.79c2.16-.36,2.84-2.12,3.31-4.06,1.89-7.85,3.85-15.69,5.78-23.53a36.66,36.66,0,0,1,.29-5.6,22.61,22.61,0,0,0-1.81,4.89c-3.59,7.55-4,16.24-8.53,25.25-11.89-17-18.81-34.62-25-52.64-1.42-4.13,1.1-5.69,4.29-6.95,8-3.14,13.08-9.21,17.85-16.15C50.4,122,57.58,108.8,70.62,100.63a9.74,9.74,0,0,0,4.1-5.08c2.62-8,8.7-12.8,15.14-17.48,11.93-8.67,21.48-19,25.43-33.93,1.48-5.56,3.29-11,5.1-16.49l-3,1.71c-0.8,2.44-1.58,4.89-2.28,7.35C112.5,45.93,110.11,55.9,103.7,63.21Z"/><path class="cls-7" d="M16.94,252.69c0-4.9,2.18-9.29,5.29-12.84,5.86-6.7,5.17-13.37-.09-19.47-6.75-7.83-12.35-16.8-22.27-21.58v83.7c1-1.08,2-2.15,3.06-3.16C10.62,272.12,17,264.12,16.94,252.69Z"/><path class="cls-7" d="M6.6,279.46C12.66,274,19.11,267,18.84,258c-0.25-8.69,3.28-15.24,8.52-21.17,3.05-3.45,3.09-6.25,1.16-10.12C21.88,213.38,12,203.37-.13,195.48v3.32c9.92,4.77,15.52,13.74,22.27,21.58,5.26,6.1,5.95,12.78.09,19.47-3.11,3.55-5.32,7.94-5.29,12.84,0.05,11.42-6.31,19.43-14,26.65-1.08,1-2.08,2.07-3.06,3.16v4A64.74,64.74,0,0,1,6.6,279.46Z"/><path class="cls-8" d="M116.54,59.63c-5.86,7-10.67,14.75-16.88,21.46-3.21,3.47-6.17,7-10.77,8.84-6,2.43-8,7.36-5.41,13.05,5.08,11.13,6.33,21.93.78,33.36-2.75,5.66,1.11,12.54-2.09,18.43l-0.78-.21c0,0.18,0,.36,0,0.54,0.63,6.92-1.59,14.11,1.9,20.77,1.87-.07,3.63-0.09,5.27-1.44,5.95-4.91,11.95-3.46,13.21,3.92s1.79,13.78,12,9c2.6-1.21,6.45.22,7.25,3,2.49,8.55,10.27,13.5,14.14,21,1.31-7.64-.62-14.25-6.52-20.49-6.56-6.94-9-17.33-18.55-22.05-2.67-1.32-2.7-4.89-2.2-7.74,1.66-9.49-.22-18.6-1.8-27.95-2.58-15.26-1.87-30,4.86-45,7.32-16.24,11.15-34,22-48.74a3.37,3.37,0,0,0,.71-2.69c-2-7.06,1-12.78,3.49-18.78l-4.55,2.62Q132.32,22,132,23.32C128.95,36.24,125.39,49.11,116.54,59.63Z"/><path class="cls-8" d="M133.68,36.74a3.37,3.37,0,0,1-.71,2.69c-10.84,14.7-14.67,32.5-22,48.74-6.73,14.94-7.44,29.72-4.86,45,1.58,9.35,3.46,18.46,1.8,27.95-0.5,2.85-.46,6.42,2.2,7.74,9.54,4.73,12,15.11,18.55,22.05,5.89,6.24,7.83,12.85,6.52,20.49a21,21,0,0,1,1,2.32h0c3.22-7.74,3.65-15-3.23-21.26-3.72-3.4-6.2-7.72-8.37-12.32s-4.87-9.21-9.78-10.88c-6-2-5.19-5.62-4.28-10.34,1.51-7.84.61-15.51-1.6-23.36-1.81-6.42-1.66-13.44-2-20.21-0.79-16.92,9.79-30.57,13.62-46.19,2.42-9.85,7.64-18.42,13.67-26.49,1.67-2.24,4.5-5.08,2.87-7.45-5-7.22.59-11.66,2.73-17.66,0.18-.52.41-1,0.61-1.51L137.18,18C134.68,24,131.65,29.68,133.68,36.74Z"/><path class="cls-8" d="M129.62,29.89c-8.46,11-9.16,26.13-20.32,35.92-6.92,6.08-10.63,16-18.6,20.69-12.18,7.1-12.78,7.15-8.73,20.79,1.61,5.43,7.06,10.23,3.75,16.74-4.94,9.71-5.26,20-4.32,30.54l0.78,0.21c3.2-5.89-.65-12.77,2.09-18.43,5.55-11.44,4.3-22.23-.78-33.36-2.6-5.69-.61-10.62,5.41-13.05,4.6-1.86,7.56-5.37,10.77-8.84,6.21-6.71,11-14.49,16.88-21.46,8.85-10.52,12.4-23.38,15.46-36.31q0.32-1.36.63-2.73l-3.37,1.95C129.8,25.12,131.42,27.54,129.62,29.89Z"/><path class="cls-9" d="M75,291.35c-1.84-5.6-5.73-11.82-3.38-17.18,2.48-5.64,10.22-2.17,15.3-4.54,5.57-2.6,11.66-1.55,17.63-.47,10.36,1.88,20,1,27.68-7.57,5.2-5.78,5.52-10.74.4-16.62-8-9.25-16.73-15.37-30.07-10.16-6.91,2.7-14.62,4-21.09-2.67-2.72-2.82-4.26.87-5.94,2.38-4.69,4.21-8.14,3.56-11.1-2.14s-13.63-6.87-17.88-2.16c-1.71,1.89-1.6,4-.74,6.16,0.93,2.35,2.49,4.37,3.58,6.64,2.29,4.75,2.52,9.6-2.23,12.6-5.15,3.25-8.8.16-11.45-4.49-1.18-2.06-1.92-5.27-5.22-4.33-2.6.74-3.34,3.58-4.3,5.88-2.32,5.57-1.25,11.73-3,17.44,3.84-7.49,6.56-7.72,15.52-4.15,16.21,6.45,20.24,21.22,25.69,35.18a7.43,7.43,0,0,1,.09,5.58c-3.24,6.72-3.84,14.36-5.86,21.52l12.32,7.11c1.18-4.67,2.77-9.26,4.32-13.78C78.88,310.94,78.37,301.51,75,291.35Zm18.59-42.47a12.11,12.11,0,0,1,8.91-7.54c2.4-.49,3.47,1.6,2.79,3.55-1.35,3.85-3.37,7.35-7.57,8.27C94.93,252.66,92.62,251.36,93.61,248.88Z"/><path class="cls-9" d="M19.92,277.9a17.41,17.41,0,0,1-8.6,8.26c-4.33,1.88-7.06,5.43-9.5,9.3l1.37,0.79a27.75,27.75,0,0,1,7.88-6C16.22,287.64,18.14,282.79,19.92,277.9Z"/><path class="cls-9" d="M64.38,301.15c-5.45-14-9.48-28.73-25.69-35.18-9-3.56-11.67-3.34-15.52,4.15-0.1.33-.18,0.66-0.3,1a56.79,56.79,0,0,1-3,6.8c-1.78,4.89-3.7,9.74-8.85,12.36a27.75,27.75,0,0,0-7.88,6l1.39,0.8a8.45,8.45,0,0,1,5.17-3.45c6.85-1.08,8.64-5.9,10.38-10.73,1.58-4.38,4.43-8.13,5.32-12.94,0.6-3.26,4.1-6.91,7.75-4.39,6.69,4.62,15.9,5.93,19.53,14.78,4.82,11.78,14.6,22.29,6.16,36.72-1.68,2.87-2.41,6.2-3.11,9.56l2.82,1.63c2-7.16,2.63-14.8,5.86-21.52A7.43,7.43,0,0,0,64.38,301.15Z"/><path class="cls-9" d="M80.48,302.29c-2.72-9.44-5.23-18.95-8-29.14,5.75,1.79,10.25.51,14.64-1.21a24.06,24.06,0,0,1,14.76-.83c11.79,2.77,22.62,2.06,32.06-7.13,6.4-6.23,7.65-13,1.69-19.68-9.28-10.43-19.19-19.19-34.64-11.63a21.68,21.68,0,0,1-11,1.79c-2.67-.17-5.21-0.6-6.11-3.43-2.72-8.49-5.28-5.94-8.25-.12-1.26,2.46-2.94,5.43-6.32,4.55-2.89-.75-2.88-3.75-3-6.32-0.11-3.74-2-6.33-5.77-5.82a73.79,73.79,0,0,0-14.29,3.38c-5,1.73-5.41,5.71-3.24,10,1.7,3.35,4,6.4,5.56,9.8a6,6,0,0,1-2.93,8.05c-3.18,1.61-6.05.26-7.46-3.43s-1.78-9-7-8.67-5.76,6.11-7.51,9.88c-1.37,3-1.34,6.44-1.56,9.86-0.57,8.83-1.65,18-12.39,21.77-4.51,1.57-7.46,5.53-9.8,9.81v0.57l1.95,1.12c2.43-3.87,5.17-7.43,9.5-9.3a17.41,17.41,0,0,0,8.6-8.26c0.7-1.93,1.38-3.86,2.22-5.67,0.36-.77.7-1.46,1-2.11,1.8-5.71.72-11.88,3-17.44,1-2.31,1.7-5.14,4.3-5.88,3.29-.94,4,2.27,5.22,4.33,2.66,4.65,6.3,7.74,11.45,4.49,4.74-3,4.51-7.85,2.23-12.6-1.09-2.27-2.65-4.29-3.58-6.64-0.86-2.18-1-4.27.74-6.16,4.25-4.71,14.89-3.59,17.88,2.16s6.41,6.35,11.1,2.14c1.68-1.51,3.22-5.2,5.94-2.38,6.47,6.71,14.18,5.37,21.09,2.67,13.35-5.21,22,.91,30.07,10.16,5.11,5.89,4.8,10.85-.4,16.62-7.68,8.53-17.32,9.44-27.68,7.57-6-1.08-12.06-2.13-17.63.47-5.08,2.37-12.82-1.1-15.3,4.54-2.35,5.36,1.54,11.59,3.38,17.18,3.34,10.15,3.86,19.58.21,30.22-1.55,4.52-3.14,9.11-4.32,13.78l2.26,1.31a94.91,94.91,0,0,1,7-22.44C82,310.28,81.65,306.36,80.48,302.29Z"/><path class="cls-9" d="M23.17,270.12c-0.34.65-.68,1.34-1,2.11C21.3,274,20.62,276,19.92,277.9a56.79,56.79,0,0,0,3-6.8C23,270.78,23.07,270.45,23.17,270.12Z"/><path class="cls-10" d="M117.34,357.25c5-8.1,10.57-15.3,21.31-15.8,1.63-.08,4.15-1.47,4.59-2.81,2-5.94,6.43-9.18,11.21-12.69,9.61-7.05,9.53-17.43,7.67-27.8-2.53-14.11-2.72-14.08-24.87-21.55,0.28-3.31,3.07-3.81,5.35-4.15,20.14-3.07,32.17-16.94,42.63-32.43,9.37-13.87,20.34-27,33.31-36.52,11.94-8.72,25.83-16.84,42-18.52,7.21-.75,14.11-4.69,22.75-7.94,0-.14.06-0.25,0.06-0.4s0-.23,0-0.35c-16.28-8.2-34.2-12.94-47.08-6.45-13.24,6.67-30.44,12.45-37.73,28.72h0c-10,9.08-14.7,23.79-29.81,27.38-2.31.55-4.27,2.55-6.42,3.83-10.44,6.23-25.84.54-27.58-11.33-1.68-11.44-13.55-14.27-17.37-23.71-1-2.52-5,.75-7.37,1.94-8.66,4.44-9.43,4-9.67-6.1a35.26,35.26,0,0,0-.15-5.64c-0.92-4.86-3.86-6.92-7.93-3.5-8.77,7.36-8.65,1.24-8.88-4.61a6.84,6.84,0,0,1-1.92-1.63l-0.23-.65a65.38,65.38,0,0,1,.9,11.39c-0.1,4.34-.58,8.8,1.09,12.88a1.69,1.69,0,0,0,1.88.33c3.61-1.76,5.2-7.44,9.72-6.62,5.34,1,3.48,6.58,4.62,10.22,0.69,2.21,2.21,3.21,4.26,2.53,14.59-4.81,21.47,5.85,28.36,14.89,7.3,9.58,15.67,15.74,28.1,15.64,3.91,0,9.12-1,10.62,3.87s-2.39,8.12-6.17,10.61a29.42,29.42,0,0,0-9.1,9.38,17.86,17.86,0,0,1-9.42,7.39c-9,3.46-16.57,9-20.88,17.93-2.18,4.53-5.79,6-10.48,6.75-12.9,2-14.37,7-17.47,18.77-2.88,11,3,21.49-1.55,31.88a12.64,12.64,0,0,0-.39,7l20.79,12c0.17-.36.31-0.73,0.45-1.1A23.38,23.38,0,0,1,117.34,357.25Z"/><path class="cls-10" d="M80.79,154.41c-11-2.94-11.43-2.51-17.47,10.47-1.52,3.26-3.3,6.42-4.84,9.68,3.44-4.85,7.51-9.34,9.26-15.18A4.41,4.41,0,0,1,73,156.27a7.91,7.91,0,0,1,6.3,6.12,18.94,18.94,0,0,1,2.17-7.28C81.22,154.9,81,154.66,80.79,154.41Z"/><path class="cls-10" d="M95.71,342.4c4.55-10.39-1.34-20.9,1.55-31.88,3.09-11.78,4.56-16.81,17.47-18.77,4.68-.71,8.3-2.21,10.48-6.75,4.31-9,11.84-14.48,20.88-17.93a17.86,17.86,0,0,0,9.42-7.39,29.42,29.42,0,0,1,9.1-9.38c3.78-2.49,7.67-5.73,6.17-10.61s-6.71-3.91-10.62-3.87c-12.42.11-20.8-6.05-28.1-15.64-6.89-9-13.77-19.7-28.36-14.89-2.06.68-3.57-.32-4.26-2.53-1.14-3.64.73-9.25-4.62-10.22-4.52-.82-6.11,4.86-9.72,6.62a1.69,1.69,0,0,1-1.88-.33c-1.67-4.08-1.19-8.54-1.09-12.88a65.38,65.38,0,0,0-.9-11.39,28.94,28.94,0,0,1-2-12.13,7.91,7.91,0,0,0-6.3-6.12,4.41,4.41,0,0,0-5.23,3.11c-1.74,5.84-5.82,10.33-9.26,15.18A36.09,36.09,0,0,0,55,185.34c2.16-8.37,10.86-12.67,13.08-21.05,0.69-2.6,1-6.6,4.41-6.26,3.88,0.38,4.85,4,5.23,7.82,0.92,9.35,2.48,18.64,1.86,28.09-0.27,4,.82,7.71,4.17,12.55,2.31-3,3.75-5.6,5.85-7.42,1.9-1.66,2.31-5.4,7-4.78,0,3.41,0,6.8,0,10.18,0,3.94,1.09,5.8,5.69,4.49,12.53-3.57,20.44-1,27.08,10.69C137,233.11,147.7,239.2,162.9,238.3c2.26-.13,5.72-1.29,6.42,2.05a6,6,0,0,1-3.37,6.31c-6.93,2.77-10.92,8-14.14,14.39-1.33,2.64-4.42,2.87-7.15,3.79-8.76,2.94-17.21,8.24-20.55,16.4-2.83,6.92-6,8-12.24,8.12-11.32.29-16,10.33-17.08,20.65-0.9,8.41-2.95,16,.85,24a1.7,1.7,0,0,1-.42.81,20.81,20.81,0,0,0-2.56,13.08l2.68,1.54A12.64,12.64,0,0,1,95.71,342.4Z"/><path class="cls-10" d="M80.79,154.41c-3.4-4-6.64-11.87-12.12-3.76-5.93,8.79-12,18.11-13.37,29.09a39.61,39.61,0,0,1,3.18-5.18c1.54-3.26,3.32-6.43,4.84-9.68C69.36,151.9,69.8,151.47,80.79,154.41Z"/><path class="cls-10" d="M55,185.34h0a36.09,36.09,0,0,1,3.46-10.78,39.61,39.61,0,0,0-3.18,5.18A36.66,36.66,0,0,0,55,185.34Z"/><path class="cls-10" d="M81.44,155.11a18.94,18.94,0,0,0-2.17,7.28,10.35,10.35,0,0,1,.22,1.1c0.49,3.69,1.18,7.35,1.74,11l0.23,0.65a6.84,6.84,0,0,0,1.92,1.63c0-.31,0-0.62,0-0.93C79.85,169.22,82.07,162,81.44,155.11Z"/><path class="cls-10" d="M79.27,162.4a28.94,28.94,0,0,0,2,12.13c-0.56-3.68-1.25-7.34-1.74-11A10.35,10.35,0,0,0,79.27,162.4Z"/><path class="cls-11" d="M7.11,131.38c3.07-3.48,3.74-7.92,6.1-11.58,4.27-6.64,9.22-12.68,15.65-17.44,9.09-6.72,9.94-6.62,15.26,3.36,4.72-7.25,10.16-13.6,12.52-22,2.62-9.33,11.18-15,21.16-14.3,3.68,0.26,6.45-.73,7.66-4C88.71,56.61,95.9,49.82,98.13,40.5L62.29,61.19c-2.19,2.23-4.41,4.42-6.73,6.52A129.25,129.25,0,0,0,34.47,91.63c-5,7.45-10.74,12-20.48,8.16-4.37-1.73-9.13-.87-13.28,3.05,4.1,2.37,10.54.05,11.12,6,0.55,5.6-2.46,10.7-6.81,13.88A62.21,62.21,0,0,0-.13,127v27.92a26.25,26.25,0,0,1,4.68,1.77C-1.62,145.28-1.38,141,7.11,131.38Z"/><path class="cls-11" d="M7.74,157.08c-7.46-13.62-7.46-13.61,2.89-25.63a8.59,8.59,0,0,0,1.94-3.19c3-11.61,11.2-18.94,20.25-26,5.45-4.22,7.39-4.22,7.11,3.08-0.07,1.9.1,4,2.12,4.85,1.77,0.78,3.25-.64,3.78-1.94,3.55-8.64,11.81-14.64,13.12-24.65,1-7.36,11.72-13.89,18.62-11.61,4.57,1.51,8.16,0,9.25-3.73,2.9-10.09,11.83-17.06,13.61-27.62a11.34,11.34,0,0,1,.45-1.78L98.13,40.5c-2.23,9.32-9.42,16.11-12.68,24.92-1.21,3.26-4,4.25-7.66,4-10-.7-18.54,5-21.16,14.3-2.36,8.41-7.8,14.75-12.52,22-5.32-10-6.16-10.09-15.26-3.36-6.43,4.76-11.38,10.8-15.65,17.44-2.36,3.66-3,8.1-6.1,11.58-8.49,9.65-8.73,13.9-2.56,25.26a26.25,26.25,0,0,0-4.68-1.77v2.7a17.4,17.4,0,0,1,8.18,4.77C9.62,159.69,8.45,158.37,7.74,157.08Z"/><path class="cls-11" d="M11.83,108.86c-0.58-6-7-3.64-11.12-6C4.85,98.92,9.62,98.06,14,99.79c9.75,3.85,15.5-.71,20.48-8.16A129.25,129.25,0,0,1,55.57,67.71c2.32-2.1,4.54-4.29,6.73-6.52l-8.5,4.91c-8.33,8-16.87,15.9-22.68,26.34-2.92,5.24-7.58,9.78-15.48,4.87-4.5-2.8-10.51-.73-15.41,1.63C0.09,99,0,99.08-.13,99.14v8.43c1-.18,2.1-0.7,3.1-1,2.5-.73,5.19-1.19,6.91,1.2,1.57,2.18-.6,4.07-1.31,6.05-1.64,4.62-5.12,7.42-8.7,10.17v3A62.21,62.21,0,0,1,5,122.74C9.37,119.56,12.38,114.46,11.83,108.86Z"/><path class="cls-12" d="M196.89,197.27c1-1.46,2.08-2.87,3.17-4.26a35.64,35.64,0,0,0-4.81,6.63h0C195.82,198.85,196.36,198.07,196.89,197.27Z"/><path class="cls-12" d="M339.83,170c-8.21-4.47-18.64-2.59-26-9.23-4-.85-8-1.64-11.18-4.41-14.78-12.92-33.34-16.19-51.6-20-15.43-3.24-19.43-7.32-20.35-22.73-0.3-4.91-.74-9.71-7.53-9.45,0.69,1,1.91,2.06,2,3.14,0.17,3.51,1.19,9.12-.45,10.14-3.79,2.34-5-3.13-7.54-5-11.87-8.95-21.42-20.76-34.72-28-1.56-.84-3.67-2.54-3.75-3.95-0.66-11.75-3.4-23.7,2.9-34.93,1.91-3.39,4.16-3.93,6.7-3.13a11.16,11.16,0,0,0-4.4-2c-0.49.38-1,.79-1.48,1.16-10.49,12.39-7.68,27.07-7.11,41.34a3.94,3.94,0,0,0,1.68,3.26c9.18,4.55,12.36,16.83,24,18.36,3.46,0.45,5.92,3.37,8.2,6,17.51,20.27,18,47.6,3.68,68.57a40,40,0,0,1-3.28,4.13A45.45,45.45,0,0,1,224,175.12c1.2-.4,2.68-0.69,3.33-1.67,7.05-10.58,17.7-7.9,27.39-6.88,7.72,0.81,15.83.56,23,4.46,2.37,1.29,5.45,2.21,5.62,5.25l0.84,0.42-0.87.33c-0.34,3-3.55,3.6-5.94,4.75-12.76,6.18-27,7.74-40,13.63-20.81,9.38-34.75,25.83-47.8,42.84C177.09,254.5,165.4,270.5,144,274.67c-0.07,2.4,1.57,2.24,2.52,2.83,5.84,3.59,16.21,2,17,11.07,1.25,13.86,6.42,29.08-8.39,40-8.08,5.94-12.82,15.8-24.2,18.14-5.11,1.05-9,6.58-11.68,11.8-0.67,1.23-1.3,2.48-1.9,3.74l23.12,13.35c3-4.82,7-6.82,12.36-.73a3.69,3.69,0,0,0,1.37,1.26A61.15,61.15,0,0,1,178,388.64l5.24-3a9.21,9.21,0,0,1-.39-0.85c-0.35-.93,1.21-3.72,1.93-3.73a3.51,3.51,0,0,1,3.24,1.82l2.85-1.65c-2.81-4.63-6-8.88-12.81-9.23l-0.25.52c1.11,2.22,1.42,4.23-1.59,5.12-3.42,1-6.59,0-8.06-3-2.57-5.28-4.73-10.45-9.94-14.08-2.65-1.85-.2-5.17,1.06-7.61,0.89-1.72,2.35-3.18,4.41-2.86,3.6,0.56,2.33,3.74,2.93,6a15.56,15.56,0,0,0,1.68,3.17c0-10.58,9.92-10.12,15.54-11.57,7.07-1.83,10.74-4.91,12.88-11.14-6.7-2-21-22.48-20.86-29,0.14-5.78,4.83-8.55,7.44-12.64,1.3-2,3.54-1.13,3.74,1.41a25.58,25.58,0,0,1-.51,7.42c-1.81,8.22,1.3,9.79,8.33,6.46-3.76-4.44-6.56-8.89,0-13.35a10.42,10.42,0,0,1,.63-2.73c2.15-3.95,10-4.39,8-10.21-1.33-4-5.37-7.38-8.18-10.82-3.53-4.32-9.61-.22-14.57.64-4.18.73-8.25,7.85-12.59,0-4.07-7.31.43-11.16,5.72-14.55,8.53-5.45,13.46-13.65,19.55-21.39,8.48-10.78,16.46-22.88,28.94-30.87,14.18-9.09,29.74-13.54,45.35-18.55a11.27,11.27,0,0,1,12.66,3.76c3.46,4.16-1.92,7.32-4,10.31-2.82,4.14-7.52,6.84-12.21,8.44s-5.66,4.3-5.15,8.48c14.71-5.51,28,4.41,42.22,4.06,4.78-.12,7.26,4.74,10.44,7.54,7.82,6.89,14.91,8.69,25.42,4.12q2.05-.89,4.17-1.7V170.18A2.23,2.23,0,0,1,339.83,170ZM180.72,331.14c2,0,3.65,1,3.79,3.21,0.1,1.68-1.43,1.72-2.61,2-1.57-.12-3.21-0.19-3.62-2.14A2.31,2.31,0,0,1,180.72,331.14Z"/><path class="cls-12" d="M178.17,43c-8.09,10.74-5.76,23.31-6,35.4-0.13,6,16.74,27.3,22.55,27.3,8,0,11.59,4.87,15.53,10.35,8.57,11.92,11.41,24.77,9.34,39.44-1.62,11.43-5.81,21.57-14.45,28.31-6.06,4.73-8.73,10.69-12.24,16.62l2.36-.78a35.64,35.64,0,0,1,4.81-6.63,62.59,62.59,0,0,1,9.45-9.77,40,40,0,0,0,3.28-4.13c14.3-21,13.83-48.31-3.68-68.57-2.28-2.64-4.74-5.55-8.2-6-11.63-1.52-14.81-13.81-24-18.36a3.94,3.94,0,0,1-1.68-3.26c-0.57-14.27-3.38-29,7.11-41.34,0.52-.36,1-0.77,1.48-1.16-0.75-.19-1.51-0.36-2.27-0.55A25.3,25.3,0,0,0,178.17,43Z"/><path class="cls-12" d="M191,43.64c-0.59-4.13-2.27-5.52-4.55-5.42-0.84.76-1.71,1.49-2.62,2.2a11.16,11.16,0,0,1,4.4,2A14.72,14.72,0,0,1,191,43.64h0Z"/><path class="cls-12" d="M181.56,39.87c0.76,0.18,1.52.36,2.27,0.55,0.9-.7,1.78-1.43,2.62-2.2A12.38,12.38,0,0,0,181.56,39.87Z"/><path class="cls-12" d="M117.34,357.25a23.38,23.38,0,0,0-.78,3.09A13.22,13.22,0,0,0,117.34,357.25Z"/><path class="cls-12" d="M131,346.67c11.38-2.34,16.12-12.2,24.2-18.14,14.81-10.89,9.64-26.11,8.39-40-0.82-9.05-11.19-7.48-17-11.07-1-.59-2.59-0.43-2.52-2.83,21.37-4.17,33.06-20.17,45.54-36.42,13.05-17,27-33.45,47.8-42.84,13.06-5.89,27.27-7.45,40-13.63,2.39-1.16,5.6-1.71,5.94-4.75-8.65,3.25-15.54,7.19-22.75,7.94-16.22,1.68-30.11,9.8-42,18.52-13,9.48-23.95,22.65-33.31,36.52-10.46,15.49-22.49,29.37-42.63,32.43-2.28.35-5.07,0.84-5.35,4.15,22.15,7.48,22.34,7.44,24.87,21.55,1.86,10.37,1.94,20.75-7.67,27.8-4.78,3.51-9.23,6.74-11.21,12.69-0.45,1.34-3,2.73-4.59,2.81-10.74.51-16.32,7.7-21.31,15.8A16.89,16.89,0,0,0,117,362l0.4,0.23c0.61-1.26,1.23-2.5,1.9-3.74C122,353.25,125.88,347.72,131,346.67Z"/><path class="cls-12" d="M196.89,197.27c-0.53.8-1.07,1.59-1.62,2.37l3.28-1.08h0c7.29-16.27,24.49-22,37.73-28.72,12.88-6.49,30.8-1.75,47.08,6.45-0.17-3-3.25-4-5.62-5.25-7.2-3.9-15.31-3.65-23-4.46-9.69-1-20.34-3.7-27.39,6.88-0.65,1-2.13,1.27-3.33,1.67a45.45,45.45,0,0,0-14.48,8.12c-3,3.35-6.43,6.39-9.45,9.77C199,194.39,197.91,195.81,196.89,197.27Z"/><path class="cls-12" d="M200.06,193c3-3.38,6.45-6.42,9.45-9.77A62.59,62.59,0,0,0,200.06,193Z"/><path class="cls-13" d="M157.87,198.75c4.93,6.42,9.79,4,14.4.34,14.14-11.19,21.5-26.92,28.19-43.06,10.19-24.61,6.9-22.3-10-37.59-3.61-3.26-11.37-5.52-8.84-13.47,1-3.28,2.92-6.88-2.34-8.27-2.76-.73-5.78-3.13-8,1.37-1.88,3.86-4,7.33.81,10.59,1.42,1,4.52,2.54,2.83,3.94-7,5.82-7.51,16.8-16.34,20.8-5.66,2.57-6.94,7.47-9,12.44-5.86,14.15,3.84,29.2-1.83,40.48C145.08,198.59,154.9,194.88,157.87,198.75Z"/><path class="cls-6" d="M111.24,190.67c-4.82,1.73-7.75.13-9.36-3.16,0.84,6.48,2.85,10.5,11,5.5,2.28-1.4,5.56-1.11,6.74,1.37a25.9,25.9,0,0,0,4.35,6.18,51.2,51.2,0,0,1-2.56-4.52C119.12,191.39,116.38,188.82,111.24,190.67Z"/><path class="cls-6" d="M87.32,176.92a3.49,3.49,0,0,1-2.86.34c1.65,2.13,3.24,4.15,7.11,2.2,3.69-1.86,6.28-1.46,7.94.38C97.68,174.86,94.71,172.36,87.32,176.92Z"/><path class="cls-6" d="M135.84,218.19c0,0.23.09,0.45,0.11,0.69,0.73,6.65,15.06,12.32,22,10A66,66,0,0,0,182.92,214c-7.93,5.59-17.59,8.38-27.09,11.13C146,228,138.89,225,135.84,218.19Z"/><path class="cls-6" d="M133.5,211.52a19.53,19.53,0,0,1,1.16,2.38c0.1-.41.2-0.81,0.29-1.21C134.46,212.31,134,211.92,133.5,211.52Z"/><path class="cls-6" d="M134.66,213.9a18,18,0,0,1,1.18,4.29c3,6.85,10.11,9.85,20,7,9.49-2.75,19.16-5.54,27.09-11.13a89.62,89.62,0,0,0,11.46-13.18,3.81,3.81,0,0,1-1.5-.45c-7.74,5.89-11.44,17.77-24.21,16.25-0.65-.08-1.48,1-2.16,1.67A21.48,21.48,0,0,1,151,223.6c-6.26-.24-14.62.4-14.76-9.9-0.44-.32-0.87-0.67-1.3-1C134.87,213.09,134.77,213.5,134.66,213.9Z"/><path class="cls-6" d="M87.32,176.92c7.39-4.56,10.36-2.06,12.19,2.92a10.66,10.66,0,0,1,2.19,6.07c0.05,0.55.12,1.08,0.18,1.59,1.62,3.29,4.55,4.89,9.36,3.16,5.14-1.84,7.88.73,10.2,5.38a51.2,51.2,0,0,0,2.56,4.52c3.23,3.57,7,6.75,9.5,11,0.47,0.4,1,.79,1.45,1.17,0.1-.44.17-0.88,0.25-1.31-3.87-7.51-11.65-12.45-14.14-21-0.8-2.76-4.65-4.19-7.25-3-10.21,4.74-10.72-1.53-12-9s-7.26-8.83-13.21-3.92c-1.64,1.36-3.4,1.37-5.27,1.44,0.39,0.44.76,0.91,1.12,1.38A3.49,3.49,0,0,0,87.32,176.92Z"/><path class="cls-6" d="M136.25,213.7h0a21,21,0,0,0-1-2.32c-0.07.44-.15,0.87-0.25,1.31C135.38,213,135.8,213.37,136.25,213.7Z"/><path class="cls-6" d="M194.46,201.19A37.39,37.39,0,0,1,182.92,214,66,66,0,0,1,158,228.92c-7,2.27-21.32-3.39-22-10,0-.24-0.08-0.46-0.11-0.69a18.29,18.29,0,0,1-1.25-4c0-.1,0-0.2.07-0.3a19.53,19.53,0,0,0-1.16-2.38,47.83,47.83,0,0,1-9.5-11,25.9,25.9,0,0,1-4.35-6.18c-1.18-2.48-4.46-2.77-6.74-1.37-8.17,5-10.18,1-11-5.5a13.72,13.72,0,0,1-1-2.89,42.65,42.65,0,0,0-1.36-4.77c-1.66-1.84-4.25-2.24-7.94-.38-3.87,1.95-5.45-.07-7.11-2.2a5,5,0,0,1-1.08-.45c0.24,5.85.11,12,8.88,4.61,4.07-3.42,7-1.36,7.93,3.5a35.26,35.26,0,0,1,.15,5.64c0.24,10.12,1,10.54,9.67,6.1,2.34-1.2,6.35-4.47,7.37-1.94,3.82,9.45,15.69,12.28,17.37,23.71,1.74,11.87,17.14,17.56,27.58,11.33,2.15-1.28,4.11-3.28,6.42-3.83,15.11-3.59,19.85-18.3,29.81-27.38h0c-1.2,1.12-2.36,2.36-3.94,2.35Z"/><path class="cls-6" d="M134.59,214.2a18.29,18.29,0,0,0,1.25,4,18,18,0,0,0-1.18-4.29C134.64,214,134.62,214.1,134.59,214.2Z"/><path class="cls-6" d="M182.92,214a37.39,37.39,0,0,0,11.54-12.86l0.15-.29-0.23,0A89.62,89.62,0,0,1,182.92,214Z"/><path class="cls-6" d="M133.5,211.52c-2.46-4.21-6.27-7.39-9.5-11A47.83,47.83,0,0,0,133.5,211.52Z"/><path class="cls-6" d="M99.51,179.84a42.65,42.65,0,0,1,1.36,4.77,13.72,13.72,0,0,0,1,2.89c-0.07-.52-0.13-1-0.18-1.59A10.66,10.66,0,0,0,99.51,179.84Z"/><path class="cls-6" d="M83.34,175.88c0,0.31,0,.62,0,0.93a5,5,0,0,0,1.08.45C84.1,176.79,83.73,176.32,83.34,175.88Z"/><path class="cls-6" d="M195.27,199.64h0l0,0.1Z"/><path class="cls-6" d="M195.2,199.74l0-.1-2.36.78a3.81,3.81,0,0,0,1.5.45Z"/><path class="cls-6" d="M195.2,199.74c-0.21.38-.4,0.77-0.59,1.16,1.58,0,2.74-1.23,3.94-2.35l-3.28,1.08Z"/><path class="cls-6" d="M194.61,200.9c0.19-.39.38-0.78,0.59-1.16l-0.81,1.13Z"/><path class="cls-14" d="M268.12,55c-4.44,3.07-9,5.9-15.54,4-3.94-1.12-6.8-2.51-8.77-5.93h0c-2.21.95-2.21,5.54-5.34,4.2s-2.6-5-1.76-7.57a36.56,36.56,0,0,0,1.58-11.94l-13.7-7.91-0.2.41c-2.34,4.82-5.23,7.5-11.05,5.66-4.47-1.41-7.8,1.12-10.6,4.39-1.92,2.25-2.79,5.49-6,6.59,1.11,9,5.92,15.91,13.17,21.34,3.21-2.95.19-5.31-1.14-7.31-1.65-2.49-2.28-4.65,0-6.61,2.55-2.19,5.31-1.34,7.63.71,8.72,7.71,16.81,15.83,19.88,27.67C237.84,88.54,240,95,247,95.27c6.4,0.23,10.67-4.18,12.55-10.73,1.64-5.72,4.85-8.33,11.23-5,5.46,2.89,11.24,3.52,16.4-1.55,1.77-1.74,4.46-3,6.53-.19s1,5.49-2,6.92c-6.41,3-9.76,8.41-11.94,14.77-3.15,9.2-9.09,13.92-19.17,12.16a11.38,11.38,0,0,0-1.88,0c-4.37,0-9-.69-11.76,4a4.17,4.17,0,0,0,1.44,5.82c4.55,2.71,10.15,3,14.15.08A31.87,31.87,0,0,1,275.22,116c6.74-1.4,12.2,1.4,13.78,8.09,2.88,12.16,13.54,17.59,21,25.79,3.22,3.56,5.36-.68,7.69-2.35h0l3.61-5.7h0c-0.85-4.79-4.51-8.61-3.86-14.1,0.67-5.7,2.73-9.4,7.64-12.75,5.81-4,11-8.86,16.25-13.61V97.23Z"/><path class="cls-14" d="M217.33,34.82c-11.93-6.12-15.82,3.27-20.74,10.69,0,0.48.13,0.93,0.19,1.4,3.16-1.1,4-4.34,6-6.59,2.8-3.27,6.13-5.8,10.6-4.39,5.82,1.83,8.71-.85,11.05-5.66l0.2-.41-2-1.14a17.35,17.35,0,0,0-2.22,4.75A2.19,2.19,0,0,1,217.33,34.82Z"/><path class="cls-15" d="M239.35,48.65c0.12,3.65,1.11,4.41,4.23,3.79l0.36,0.21c1.11-3.28,1.72-6.76,2.56-10.15l-6.29-3.63A40.53,40.53,0,0,0,239.35,48.65Z"/><path class="cls-15" d="M238.47,57.28c3.13,1.34,3.12-3.25,5.34-4.2h0c0-.14.09-0.28,0.14-0.42l-0.36-.21c-3.12.62-4.11-.14-4.23-3.79a40.53,40.53,0,0,1,.86-9.78l-1.93-1.11A36.56,36.56,0,0,1,236.7,49.7C235.87,52.26,235.37,56,238.47,57.28Z"/><path class="cls-16" d="M190.32,45.34a7.51,7.51,0,0,0-.65-1.36c-6.67,2-8.92,7.19-9.53,13.93-1.13,12.53-.38,23.6,12.4,31.15,10.94,6.45,19.46,16.38,29.33,24.45,3-2.73-.56-6.6,1.24-9.41-1-1.89-1.81-5.13-3.18-5.42-19.45-4-8.85-18.34-10-28.57a7.36,7.36,0,0,1,0-1.27l-0.07,0c-10.22-4.61-15.06-12.48-13.55-21.81A6.26,6.26,0,0,1,190.32,45.34Z"/><path class="cls-16" d="M190.32,45.34a6.26,6.26,0,0,0,6,1.73c0.08-.51.17-1,0.3-1.55-2.06,0-4.25.33-5.59-1.87h0c-0.47.1-.91,0.21-1.34,0.34A7.51,7.51,0,0,1,190.32,45.34Z"/><path class="cls-16" d="M221.86,113.51c-9.88-8.08-18.39-18-29.33-24.45-12.79-7.54-13.54-18.62-12.4-31.15,0.61-6.74,2.86-12,9.53-13.93a6.33,6.33,0,0,0-1.43-1.59c-2.54-.79-4.79-0.26-6.7,3.13-6.31,11.23-3.57,23.18-2.9,34.93,0.08,1.4,2.19,3.1,3.75,3.95,13.29,7.2,22.85,19,34.72,28,2.54,1.92,3.74,7.39,7.54,5,1.65-1,.62-6.63.45-10.14-0.05-1.07-1.28-2.09-2-3.14l0,0C221.3,106.9,224.91,110.78,221.86,113.51Z"/><path class="cls-16" d="M189.66,44c0.43-.13.87-0.24,1.34-0.34a14.72,14.72,0,0,0-2.76-1.25A6.33,6.33,0,0,1,189.66,44Z"/><path class="cls-16" d="M196.29,47.06c-1.51,9.33,3.34,17.2,13.55,21.81l0.07,0c0-.2,0-0.39,0-0.59h0c-7.25-5.44-12.06-12.3-13.17-21.34-0.1,0-.19.09-0.3,0.12Z"/><path class="cls-16" d="M196.29,47.06l0.19,0c0.11,0,.2-0.09.3-0.12-0.06-.47-0.15-0.92-0.19-1.4C196.46,46,196.37,46.55,196.29,47.06Z"/><path class="cls-17" d="M314.12,235.77c-14.84-12.49-32.37-14.93-50.79-14.52a8.78,8.78,0,0,1-3.65-.78c-0.31-.34-0.58-0.68-0.83-1-1.25,1-.51,1.62.69,2.11h0c15.51,0.52,30.26,4.86,44.24,10.88,10.52,4.53,12,15.66,3.86,23.72-4.78,4.71-5.94,10.83-9.18,16-3.61,5.81,5.31,5.25,4.63,9.48,5.89,9.59,7.13-1.47,10.65-2.4-3.34-2.17-3.72-5.52-3.63-9.06-0.53-4.25-2-8.88,3.15-11.42,4.35-2.14,8.16-4.49,13.8-1.31a60.45,60.45,0,0,0,14.23,5.57v-5.2A45.17,45.17,0,0,1,331,253.32c-5.76-3.46-5.64-7.71.07-11.47a44,44,0,0,1,10.19-4.93v-0.74a80.64,80.64,0,0,0-8.61,3.14C326,242.24,319.41,240.22,314.12,235.77Z"/><path class="cls-17" d="M311.69,230.9c-3.18-2.8-5.66-7.66-10.44-7.54-14.27.35-27.52-9.57-42.22-4.06l-0.18.16c0.25,0.33.52,0.67,0.83,1a8.78,8.78,0,0,0,3.65.78c18.43-.41,36,2,50.79,14.52,5.29,4.45,11.86,6.47,18.55,3.56a80.64,80.64,0,0,1,8.61-3.14v-2.87q-2.11.81-4.17,1.7C326.61,239.59,319.51,237.79,311.69,230.9Z"/><path class="cls-18" d="M328.77,115.48c-9.66,7.39-10.47,10-6.8,21.43a15,15,0,0,1,.87,4c6.29-3.93,12.11-8.6,18.44-12.48V104.24c-0.69.58-1.41,1.15-2.16,1.72C335.4,108.79,332.52,112.61,328.77,115.48Z"/><path class="cls-18" d="M317.39,127.76c-0.65,5.49,3,9.31,3.86,14.1h0c0.54-.32,1.06-0.67,1.59-1a15,15,0,0,0-.87-4c-3.67-11.45-2.86-14,6.8-21.43,3.75-2.87,6.63-6.69,10.35-9.51,0.75-.57,1.47-1.14,2.16-1.72V101.4C336,106.15,330.84,111,325,115,320.12,118.35,318.06,122.05,317.39,127.76Z"/><path class="cls-2" d="M97.74,253.17c4.19-.91,6.22-4.42,7.57-8.27,0.68-2-.39-4-2.79-3.55a12.11,12.11,0,0,0-8.91,7.54C92.62,251.36,94.93,252.66,97.74,253.17Z"/><path class="cls-19" d="M116.1,361.45l0.24,0.14c0.05-.41.14-0.83,0.22-1.24C116.42,360.72,116.27,361.09,116.1,361.45Z"/><path class="cls-19" d="M117.34,357.25a13.22,13.22,0,0,1-.78,3.09c-0.08.42-.16,0.83-0.22,1.24L117,362A16.89,16.89,0,0,1,117.34,357.25Z"/><path class="cls-20" d="M142.94,376.94l27.64,16,5.46-3.15c-7.59-5.7-17-8.7-25.14-13.53C147.21,374,144.91,374.9,142.94,376.94Z"/><path class="cls-20" d="M152.9,374.83c-5.4-6.09-9.36-4.09-12.36.73l2.4,1.39c2-2,4.27-2.92,8-.73,8.17,4.84,17.55,7.84,25.14,13.53l1.92-1.11a61.15,61.15,0,0,0-23.69-12.56A3.69,3.69,0,0,1,152.9,374.83Z"/><path class="cls-21" d="M221.4,281.64c2.19-3.84,4.62-4.29,7.11-1,6.68,8.69,15.06,10.11,24.86,6.62-2.89-2.79-6.53-1.6-9.85-1.69s-6.29-1.14-8-4a19.36,19.36,0,0,0-9.61-8.3c-4.28-1.92-5.71-7.16-5.2-11.26a7.28,7.28,0,0,1,8.29-6.09c2.77-17.41,13.56-27.67,29.09-33.7-1.12-.91-1.78-1.82.67-2.73-3.23-4.37-1.13-7.59,3.45-10.1,5-2.73,10.09-5.27,13.41-10.1s1.89-7.59-3.72-8.45a11.64,11.64,0,0,0-5.6.4c-21.31,7.59-42.73,13.09-58.57,32.76-10.63,13.21-17.21,30.86-34.24,38.78-3.13,1.45-5.18,5.12-3,8.82s5.5,1.43,8.37.48c14.34-4.72,14.55-4.39,23.62,6.78,4.12,5.08,3.72,8.87-.84,12.9a30.14,30.14,0,0,0-4.56,4.41C206.45,293.38,216,291.06,221.4,281.64Z"/><path class="cls-21" d="M201.69,291.65c4.57-4,5-7.82.84-12.9-9.07-11.17-9.28-11.5-23.62-6.78-2.87.95-6.11,3.3-8.37-.48s-0.15-7.37,3-8.82c17-7.93,23.61-25.57,34.24-38.78,15.84-19.67,37.26-25.17,58.57-32.76a11.64,11.64,0,0,1,5.6-.4c5.61,0.85,7,3.76,3.72,8.45s-8.44,7.37-13.41,10.1c-4.57,2.51-6.67,5.73-3.45,10.1l0.23-.09c-0.51-4.18.52-6.9,5.15-8.48s9.4-4.29,12.21-8.44c2-3,7.41-6.15,4-10.31a11.27,11.27,0,0,0-12.66-3.76c-15.61,5-31.17,9.46-45.35,18.55-12.48,8-20.47,20.1-28.94,30.87-6.09,7.75-11,15.94-19.55,21.39-5.3,3.39-9.79,7.24-5.72,14.55,4.34,7.8,8.41.68,12.59,0,5-.86,11-5,14.57-0.64,2.81,3.44,6.85,6.83,8.18,10.82,1.94,5.81-5.9,6.26-8,10.21a10.42,10.42,0,0,0-.63,2.73l2.34-.69A30.14,30.14,0,0,1,201.69,291.65Z"/><path class="cls-21" d="M258.13,222.11c0.47-.18.93-0.37,1.4-0.55-1.19-.49-1.94-1.08-0.69-2.11l0-.07C256.35,220.29,257,221.2,258.13,222.11Z"/><path class="cls-21" d="M258.85,219.45l0.18-.16-0.23.09Z"/><path class="cls-22" d="M198,310.11h0c-0.87-6.07,1.51-10.36,5.67-12.83a16.06,16.06,0,0,1-7.4-.12c-4,4-1.53,8.56-1,12.93H198Z"/><path class="cls-22" d="M187.24,366.66c3.72,3.29,7.28,6.41,9.78,11l7.82-4.52a30.56,30.56,0,0,1-2.76-3.63C197.55,362.59,192.28,366.85,187.24,366.66Z"/><path class="cls-22" d="M271.12,324.89c4.39-6.08.9-9.91-1.66-14-2.78-4.46-7.37-5.31-12.93-3,1.33-5.37,5.94-6.5,9-9.16,2.2-1.93,4.46-4.56,3.94-7.19-0.76-3.84-4.67-1.83-7.22-2.19s-5.12.46-6.95-2h0l-1.77-.13a4,4,0,0,1-.25.74c-7.57,5.07-15,4.5-21.59-1.44-4.6-4.16-6.61-2.57-11.33.76-3.63,2.55-7.25,5.81-11.33,8,6.85-1.68,14.25-2.62,20,4,2.09,2.4,4.51,4.5,3.38,8.11s-4.67,2.3-7.14,3.13l5.69,2.41c-2.09,2.7-5.09,2.66-8,2.84h0c4.22,8.69-3.18,6.94-7.31,8.13a152,152,0,0,1,30.31,21.77,7.14,7.14,0,0,1,1.75,2.77l13.7-7.91a10.17,10.17,0,0,1,1.87-4.08C265.94,332.68,268.49,328.53,271.12,324.89Z"/><path class="cls-22" d="M195.27,310.1c-0.49-4.38-2.93-8.92,1-12.93-0.5-.12-1-0.25-1.52-0.42-6.54,4.46-3.74,8.91,0,13.35h0.46Z"/><path class="cls-22" d="M253.38,287.21c-9.8,3.49-18.18,2.07-24.86-6.62-2.49-3.24-4.92-2.79-7.11,1-5.38,9.42-15,11.74-24.28,14.42a9.62,9.62,0,0,0-.67.94l-0.15.16a16.06,16.06,0,0,0,7.4.12,16.76,16.76,0,0,1,4.43-1.8l0.87-.21c4.07-2.19,7.7-5.45,11.33-8,4.73-3.33,6.74-4.92,11.33-.76,6.57,5.94,14,6.52,21.59,1.44a4,4,0,0,0,.25-0.74h-0.12Z"/><path class="cls-22" d="M196.46,297a9.62,9.62,0,0,1,.67-0.94l-2.34.69c0.52,0.17,1,.3,1.52.42Z"/><path class="cls-23" d="M211.34,83.51c0.09,5.84.47,10,7.08,11.93,3.55,1,6.14,4.11,4.73,8.61a3.74,3.74,0,0,1,.84-0.9c5.55-1.34,8.47,2.54,8.26,6.53-1.15,22.76,16.25,24.83,31.41,27.1,14.22,2.13,26.15,7.86,37.6,15.63a53.6,53.6,0,0,0,11.43,5.72c-0.43-2,.4-3.67,3.09-5,1.77-.88,3.91-2,3-4.06-4,4.93-8.41,4.67-12.64.46-7.3-7.26-15.63-13.54-19.48-23.87-2.89-7.73-9.06-9.18-18-4.72-5.16,2.57-10.1,5-16.08,4.18-4.2-.59-7.31-2.47-7.7-6.9s2.68-6.83,6.51-8.1c3.34-1.11,6.85-.82,10.3-0.54,6.74,0.55,11.57-2.31,14.61-8.21,1.87-3.63,3.23-7.48,5.6-10.88s5.77-5.63,7.9-9.74A22.81,22.81,0,0,1,270,82c-4.64-1.75-7,.62-8.73,4.59-2.7,6.2-7.1,10.87-14.22,10.52-7.89-.4-10.89-6.84-12.93-13.25-3.77-11.86-10.5-21.09-21.29-27.34-4.39,3.75,3.84,9.53-2.59,12.17C213.5,73.33,211.26,78.64,211.34,83.51Z"/><path class="cls-23" d="M301.26,152.41c-11.45-7.77-23.38-13.51-37.6-15.63-15.16-2.27-32.56-4.34-31.41-27.1,0.2-4-2.71-7.88-8.26-6.53a3.74,3.74,0,0,0-.84.9s0,0.06,0,.09c6.79-.26,7.24,4.54,7.53,9.45,0.93,15.41,4.92,19.49,20.35,22.73,18.25,3.83,36.82,7.1,51.6,20,3.17,2.77,7.21,3.56,11.18,4.41a8.57,8.57,0,0,1-1.11-2.61A53.6,53.6,0,0,1,301.26,152.41Z"/><path class="cls-23" d="M210.25,68.69c6.44-2.63-1.79-8.42,2.59-12.17,10.79,6.25,17.53,15.49,21.29,27.34,2,6.42,5,12.86,12.93,13.25,7.13,0.36,11.52-4.31,14.22-10.52,1.73-4,4.1-6.34,8.73-4.59a22.81,22.81,0,0,0,19.72-1.27c-2.13,4.11-5.58,6.41-7.9,9.74s-3.73,7.26-5.6,10.88c-3,5.9-7.87,8.76-14.61,8.21-3.45-.28-7-0.57-10.3.54-3.83,1.27-6.91,3.59-6.51,8.1s3.5,6.31,7.7,6.9c6,0.84,10.92-1.61,16.08-4.18,9-4.46,15.13-3,18,4.72,3.85,10.33,12.18,16.61,19.48,23.87,4.23,4.21,8.69,4.47,12.64-.46a5.4,5.4,0,0,0-1.1-1.5c-2.33,1.67-4.48,5.91-7.69,2.35-7.41-8.2-18.07-13.63-21-25.79-1.58-6.69-7-9.5-13.78-8.09a31.87,31.87,0,0,0-12.68,5.49c-4,2.92-9.6,2.63-14.15-.08a4.17,4.17,0,0,1-1.44-5.82c2.78-4.65,7.38-4,11.76-4a11.38,11.38,0,0,1,1.88,0c10.09,1.76,16-3,19.17-12.16,2.18-6.36,5.53-11.74,11.94-14.77,3-1.43,4.14-4,2-6.92s-4.76-1.55-6.53.19c-5.15,5.08-10.94,4.44-16.4,1.55-6.38-3.37-9.58-.76-11.23,5-1.88,6.55-6.14,11-12.55,10.73-7-.25-9.16-6.73-10.66-12.56-3.06-11.84-11.16-20-19.88-27.67-2.33-2.06-5.08-2.9-7.63-.71-2.29,2-1.67,4.12,0,6.61,1.33,2,4.35,4.36,1.14,7.31h0C210.06,68.4,210.15,68.54,210.25,68.69Z"/><path class="cls-23" d="M219.92,98.68c1.38,0.29,2.14,3.53,3.18,5.42l0-.05c1.41-4.5-1.18-7.58-4.73-8.61-6.61-1.92-7-6.09-7.08-11.93-0.08-4.86,2.16-10.18-1.09-14.82l-0.34.15a7.36,7.36,0,0,0,0,1.27C211.07,80.34,200.48,94.65,219.92,98.68Z"/><path class="cls-23" d="M223.11,104.1l0,0s0-.06,0-0.09Z"/><path class="cls-23" d="M209.92,68.84l0.34-.15c-0.1-.15-0.19-0.29-0.31-0.44h0C209.94,68.45,209.93,68.64,209.92,68.84Z"/><path class="cls-24" d="M322.69,142.42a14.66,14.66,0,0,1-3.14,5.63c1.8,1,.71,3-0.35,4.38a61.22,61.22,0,0,0-4.44,6.68c7.06,4.4,15.3,6,23.09,6.89a13.42,13.42,0,0,0,3.44-.08V131.24a73.5,73.5,0,0,0-14,9.74A5.13,5.13,0,0,1,322.69,142.42Z"/><path class="cls-24" d="M337.85,166c-7.79-.85-16-2.49-23.09-6.89-0.32.55-.67,1.07-1,1.64,7.39,6.63,17.82,4.76,26,9.23a2.23,2.23,0,0,0,1.46.21v-4.27A13.42,13.42,0,0,1,337.85,166Z"/><path class="cls-24" d="M319.55,148.05a14.66,14.66,0,0,0,3.14-5.63,4.76,4.76,0,0,1-1.44-.56l-3.61,5.7h0A5.07,5.07,0,0,1,319.55,148.05Z"/><path class="cls-24" d="M322.86,141.48a8.51,8.51,0,0,1-.17.94,5.13,5.13,0,0,0,4.56-1.43,73.5,73.5,0,0,1,14-9.74v-2.87c-6.33,3.88-12.15,8.55-18.44,12.48C322.85,141.07,322.87,141.27,322.86,141.48Z"/><path class="cls-24" d="M322.86,141.48c0-.21,0-0.41,0-0.62-0.53.33-1.05,0.68-1.59,1h0a4.76,4.76,0,0,0,1.44.56A8.51,8.51,0,0,0,322.86,141.48Z"/><path class="cls-24" d="M318.75,149.06c0.94,2.06-1.2,3.18-3,4.06-2.69,1.34-3.53,3-3.09,5,0.41,0.15.82,0.32,1.24,0.47s0.56,0.33.84,0.5a61.22,61.22,0,0,1,4.44-6.68c1.06-1.38,2.15-3.41.35-4.38l-0.62.78Z"/><path class="cls-24" d="M312.68,158.13a8.57,8.57,0,0,0,1.11,2.61c0.3-.56.65-1.09,1-1.64-0.28-.17-0.57-0.32-0.84-0.5S313.1,158.29,312.68,158.13Z"/><path class="cls-24" d="M318.94,148.83l0.62-.78a5.07,5.07,0,0,0-1.91-.5h0a5.4,5.4,0,0,1,1.1,1.5Z"/><path class="cls-25" d="M206.15,358.51c-7-5.11-7.12-10.17-1.88-17,4.86-6.35-1.29-8.49-5.73-10.79l-1.66,5.11,0.07,0c1.5,8.51-4.38,11.45-10.73,13.41-6.59,2-13.15,3.76-17.34,9.86a4.45,4.45,0,0,1-.44.13c5.29,2.63,7,7.81,9.09,12.7a6,6,0,0,1,.48-0.36c-0.09-2.83-1.56-6.13,1.53-8,3.4-2.11,5.26,1.07,7.43,2.89v0c5.95-4.77,11.76-4.57,16.36,1.52a21.43,21.43,0,0,0,3.73,3.88l3.66-2.11a21.71,21.71,0,0,1-2.35-6.2C208,361.74,207.44,359.45,206.15,358.51Z"/><path class="cls-25" d="M168.88,359.14c4.19-6.1,10.75-7.82,17.34-9.86,6.35-2,12.23-4.9,10.73-13.41l-0.07,0-0.2.63h0c-2.14,6.24-5.8,9.32-12.88,11.14-5.61,1.45-15.57,1-15.54,11.57l0.18,0.11A4.45,4.45,0,0,0,168.88,359.14Z"/><path class="cls-25" d="M177.54,372l0.23,0.53h0L178,372c0-.12,0-0.25,0-0.37A6,6,0,0,0,177.54,372Z"/><path class="cls-25" d="M203.34,367.95c-4.6-6.09-10.41-6.29-16.36-1.52v0l0.26,0.21c5,0.18,10.31-4.08,14.84,2.83a30.56,30.56,0,0,0,2.76,3.63l2.24-1.29A21.43,21.43,0,0,1,203.34,367.95Z"/><path class="cls-26" d="M187,366.64c-4.24-.71-7,1.17-8.71,4.82a6,6,0,0,1,1-.47,10.27,10.27,0,0,1,10.84,5.41,32.25,32.25,0,0,0,2.47,3.76L195,378.8c-0.18-.29-0.36-0.57-0.54-0.87C192.18,374,187.08,371.92,187,366.64Z"/><path class="cls-26" d="M179.32,371a6,6,0,0,0-1,.47c-0.08.18-.18,0.34-0.26,0.52,6.83,0.35,10,4.6,12.81,9.23l1.81-1a32.25,32.25,0,0,1-2.47-3.76A10.27,10.27,0,0,0,179.32,371Z"/><path class="cls-26" d="M187.24,366.66l-0.25,0c0.09,5.28,5.19,7.35,7.48,11.29,0.18,0.31.36,0.58,0.54,0.87l2-1.16C194.52,373.07,191,370,187.24,366.66Z"/><path class="cls-26" d="M187,366.64c0-.06,0-0.12,0-0.18-2.18-1.82-4-5-7.43-2.89-3.1,1.92-1.63,5.21-1.53,8l0.26-.15C180,367.8,182.75,365.93,187,366.64Z"/><path class="cls-26" d="M178,371.61c0,0.12,0,.25,0,0.37,0.08-.19.17-0.34,0.26-0.52Z"/><path class="cls-26" d="M187.24,366.66l-0.26-.21c0,0.06,0,.12,0,0.18Z"/><path class="cls-10" d="M198.23,330.32l0.32,0.07c0.37-13.69,1.12-14.57,11.28-14.4h0l13.06-.27a7.38,7.38,0,0,0,.26-0.71c4.43-.33,2.52-2.62,1.85-4.53-8.73.19-17.49,2.56-26.18-.13-0.06.06-.11,0.14-0.17,0.2a3.35,3.35,0,0,1-3.35-.12c0,0.2,0,.41,0,0.61-9,4.68-11.64,2.12-11.34-11.19-7.62,6.88-8,12.11-.17,18.35,5.76,4.62,5.94,13.09,12.21,17.12C195.19,333.25,196.43,331.71,198.23,330.32Z"/><path class="cls-10" d="M183.84,318.2c-7.79-6.24-7.46-11.48.17-18.35-0.3,13.31,2.3,15.87,11.34,11.19,0-.2,0-0.41,0-0.61a3.39,3.39,0,0,1-.49-0.33h0c-7,3.34-10.13,1.76-8.33-6.46a25.58,25.58,0,0,0,.51-7.42c-0.2-2.53-2.45-3.44-3.74-1.41-2.61,4.09-7.3,6.87-7.44,12.64-0.16,6.52,14.16,27,20.86,29a5.42,5.42,0,0,1-.63-1.13C189.78,331.29,189.6,322.82,183.84,318.2Z"/><path class="cls-10" d="M198.65,310.55c0.07-.06.11-0.13,0.17-0.2-0.26-.08-0.52-0.15-0.78-0.24h-2.77c0,0.11,0,.22,0,0.33A3.35,3.35,0,0,0,198.65,310.55Z"/><path class="cls-10" d="M223.15,315a7.38,7.38,0,0,1-.26.71h0c2.91-.17,5.91-0.13,8-2.84l-5.69-2.41H225C225.67,312.39,227.58,314.68,223.15,315Z"/><path class="cls-10" d="M195.3,310.43c0-.11,0-0.22,0-0.33h-0.46A3.39,3.39,0,0,0,195.3,310.43Z"/><path class="cls-10" d="M198.23,330.32c-1.8,1.4-3,2.93-2.18,5,0.27,0.17.54,0.35,0.83,0.5l1.66-5.11c0-.12,0-0.22,0-0.33Z"/><path class="cls-10" d="M196.88,335.83c-0.29-.16-0.56-0.33-0.83-0.5a5.42,5.42,0,0,0,.63,1.13h0Z"/><path class="cls-10" d="M168.32,359.31c-3.74,1-2.93-5-6.21-4.72-2,1.37-2.18,3.34-.89,4.87a75.77,75.77,0,0,1,8.39,12.27c1.84,3.33,4.65,4,7.44.62,0.07-.06.14-0.1,0.21-0.16C172.28,369.32,170.48,364.19,168.32,359.31Z"/><path class="cls-10" d="M177.25,372.19c-0.07.06-.15,0.1-0.21,0.16-2.79,3.41-5.6,2.71-7.44-.62a75.77,75.77,0,0,0-8.39-12.27c-1.28-1.52-1.09-3.5.89-4.87,3.28-.27,2.47,5.68,6.21,4.72l-0.06-.14a15.56,15.56,0,0,1-1.68-3.17c-0.59-2.22.67-5.4-2.93-6-2.06-.32-3.52,1.14-4.41,2.86-1.26,2.43-3.71,5.76-1.06,7.61,5.2,3.63,7.37,8.81,9.94,14.08,1.46,3,4.64,4,8.06,3,3-.89,2.7-2.9,1.59-5.12h0C177.58,372.41,177.43,372.29,177.25,372.19Z"/><path class="cls-10" d="M177.25,372.19c0.09-.08.19-0.14,0.28-0.22-2.11-4.89-3.81-10.07-9.09-12.7l-0.12,0C170.48,364.19,172.28,369.32,177.25,372.19Z"/><path class="cls-10" d="M168.44,359.27l-0.18-.11,0.06,0.14Z"/><path class="cls-10" d="M177.54,372c-0.09.07-.19,0.14-0.28,0.22,0.18,0.1.33,0.22,0.51,0.32h0Z"/><path class="cls-10" d="M184.73,381c-0.72,0-2.28,2.8-1.93,3.73a9.21,9.21,0,0,0,.39.85l4.78-2.76A3.51,3.51,0,0,0,184.73,381Z"/><path class="cls-25" d="M181.9,336.34c1.18-.27,2.71-0.32,2.61-2-0.14-2.23-1.77-3.23-3.79-3.21a2.31,2.31,0,0,0-2.45,3.06C178.69,336.15,180.33,336.22,181.9,336.34Z"/><path class="cls-27" d="M244.27,52.85c7.35,4.34,14.63,5.56,21.95,1L248.7,43.78c-0.07.26-.15,0.51-0.22,0.78C247.69,47.67,247.86,51.28,244.27,52.85Z"/><path class="cls-27" d="M244.27,52.85c-0.16.07-.29,0.16-0.47,0.22h0c2,3.42,4.83,4.81,8.77,5.93,6.56,1.88,11.1-1,15.54-4l-1.9-1.1C258.91,58.41,251.62,57.19,244.27,52.85Z"/><path class="cls-27" d="M244.27,52.85c3.59-1.57,3.42-5.18,4.21-8.3,0.07-.27.15-0.52,0.22-0.78l-2.2-1.27c-0.84,3.39-1.45,6.86-2.56,10.15Z"/><path class="cls-27" d="M243.94,52.66c0,0.14-.09.28-0.14,0.42,0.18-.06.3-0.15,0.47-0.22Z"/><path class="cls-28" d="M312.35,269.75c0,0.07,0,.14,0,0.21,11.36-.92,19.92,5.65,28.92,11v-15.6c-5.11-1.54-10-3.75-15.09-5.43C317.15,256.94,312.74,260.19,312.35,269.75Z"/><path class="cls-28" d="M330.72,279.76c-1.69-2.53-4.39-3.42-7.37-3.43h0c0.42,1.6,2.57,3.54.09,4.73-3.54,1.7-5.18-2.53-8-3.25l-1.09,1c0.09,0.46.17,0.93,0.21,1.4-6.06,9-7.06,9.53-13,3l-2.89,2.7q0,0.66,0,1.32h0c1.84,0.47,4.15.91,3,3.51-3.22,7.08-6.24,14.37-14.36,17.56-3.57,1.4-7.49,3.55-10-.69-2.4-4.07,3.31-4.38,4.48-7-6.08-1.27-3.19-4.9-1.76-7.68,3.26-6.32.27-7.85-5.36-7.32-3.3.31-6.56,1-9.84,1.42,2.74,0.08,5.4.43,6.3,3.88,1.07,4.06-1.89,7-4.59,9.71-1.56,1.56-3.57,2.49-5.31,3.84,12.43,3,17,11.74,11.6,22.29-1.43,2.81-3.37,5.27-5,7.92-0.76,1.21-1.75,2.4-2.49,3.65l37.35-21.57c0.47-2.54,1.14-5.11,1.68-7.59,2.07-9.47,5.86-16.35,14.24-16.1a21.63,21.63,0,0,1,15.22,5.72l7.6-4.39v-7.57C337.42,285,333.3,283.64,330.72,279.76Z"/><path class="cls-28" d="M314.52,280.18c0-.47-0.12-0.94-0.21-1.4l-0.57.51h0c-3.52.93-4.75,12-10.65,2.4l-1.56,1.46C307.45,289.71,308.45,289.2,314.52,280.18Z"/><path class="cls-28" d="M313.25,258.79c-5.18,2.54-3.68,7.17-3.15,11.42,0.77-.13,1.52-0.2,2.26-0.26,0-.07,0-0.14,0-0.21,0.39-9.56,4.8-12.81,13.84-9.81,5.07,1.68,10,3.89,15.09,5.43v-2.32a60.45,60.45,0,0,1-14.23-5.57C321.41,254.31,317.6,256.66,313.25,258.79Z"/><path class="cls-28" d="M272.71,326.71c5.38-10.55.83-19.34-11.6-22.29,1.74-1.35,3.75-2.28,5.31-3.84,2.7-2.7,5.66-5.65,4.59-9.71-0.91-3.45-3.56-3.8-6.3-3.88a37.84,37.84,0,0,1-9.44.37h0c1.83,2.41,4.52,1.6,6.95,2s6.46-1.65,7.22,2.19c0.52,2.62-1.74,5.26-3.94,7.19-3,2.66-7.65,3.79-9,9.16,5.55-2.28,10.15-1.43,12.93,3,2.56,4.11,6,7.94,1.66,14-2.63,3.64-5.17,7.79-7.85,11.5a10.17,10.17,0,0,0-1.87,4.08l3.8-2.19c0.74-1.25,1.73-2.44,2.49-3.65C269.34,332,271.28,329.52,272.71,326.71Z"/><path class="cls-29" d="M253.63,227c-10.48,5.32-18.32,12.74-20.81,24.75a5.87,5.87,0,0,1-2.51,3.78c-0.51.42-1,.83-1.43,1.23-1,6.93,5.09,10.82,7.21,16.26,2.94,7.55,9,6.15,13.77,8.92,13.1,7.63,23.25-4.7,35.34-3,4.16,0.58,8-3,8.84,4.13,0.08,0.66,1.14,1.21,2.32,1.74l0.33,0.15c0.44,0.19.88,0.38,1.28,0.58,0-.07,0-0.14,0-0.21a6.68,6.68,0,0,1,2.7-3.05l-0.11-.12c-7.84-6.87-2.57-13.6.27-20.33a28.7,28.7,0,0,1,3.65-5.46c9.09-12.49,5.21-21.51-10.19-24.86-11.78-2.56-23.31-6.24-35.16-8.62C258.16,225.15,255.67,225.94,253.63,227Zm37.94,12.73c5-.05,5.4,3.1,5.26,5.13-0.22,5.62-.73,10.1-5.82,9-3.94-.84-11.11.58-10.9-5.48C280.3,243,285.49,239.76,291.57,239.7Z"/><path class="cls-29" d="M294.32,231.46c15.41,3.35,19.28,12.37,10.19,24.86a28.7,28.7,0,0,0-3.65,5.46c-2.84,6.73-8.11,13.46-.27,20.33l0.11,0.12a5,5,0,0,1,2.38-.55c0.69-4.23-8.23-3.67-4.63-9.48,3.24-5.21,4.4-11.33,9.18-16,8.17-8.06,6.66-19.19-3.86-23.72-14-6-28.74-10.36-44.24-10.88h0a5.2,5.2,0,0,1-.38,1.27C271,225.22,282.53,228.89,294.32,231.46Z"/><path class="cls-29" d="M229,255.81c-0.07.32-.11,0.62-0.15,0.92,0.45-.4.92-0.8,1.43-1.23a5.87,5.87,0,0,0,2.51-3.78c2.48-12,10.33-19.43,20.81-24.75,2-1,4.52-1.81,5.52-4.13l-0.13,0c-0.3-.23-0.61-0.47-0.9-0.7C242.59,228.14,231.8,238.41,229,255.81Z"/><path class="cls-29" d="M259,222.81l0.13,0a5.2,5.2,0,0,0,.38-1.27c-0.48.17-.93,0.37-1.4,0.55C258.42,222.34,258.73,222.58,259,222.81Z"/><path class="cls-29" d="M298,285.28c0,0.07,0,.14,0,0.21,0.23,0.11.46,0.23,0.66,0.34l2.89-2.7-0.82-.91A6.68,6.68,0,0,0,298,285.28Z"/><path class="cls-29" d="M301.52,283.14l1.56-1.46a5,5,0,0,0-2.38.55Z"/><path class="cls-30" d="M330.81,247.55c-0.53,5.22,5.49,6.14,10.47,7.67V255c-3.78-.45-7-2.85-7.55-6.21-0.7-4.6,4.51-3,7-4l0.52-.2v-5.13C336.2,240.81,331.3,242.77,330.81,247.55Z"/><path class="cls-30" d="M331,253.32a45.17,45.17,0,0,0,10.26,4.53v-2.63c-5-1.53-11-2.45-10.47-7.67,0.49-4.78,5.39-6.73,10.47-8.11v-2.51a44,44,0,0,0-10.19,4.93C325.38,245.61,325.27,249.86,331,253.32Z"/><path class="cls-31" d="M341.28,284.29V284a47.51,47.51,0,0,0-11-7C334.13,279.54,337,283.73,341.28,284.29Z"/><path class="cls-31" d="M316.06,276.92l0.35,0.11c2-1.24,4.31-.86,6.58-0.72a6.64,6.64,0,0,0,1.11-1.24,9.58,9.58,0,0,1,2.25.22,127.89,127.89,0,0,0-13.93-4.44,47.88,47.88,0,0,0,1.68,7A3,3,0,0,1,316.06,276.92Z"/><path class="cls-31" d="M314.09,277.81a47.88,47.88,0,0,1-1.68-7l-2.31-.62c-0.09,3.54.28,6.89,3.63,9.06h0A2,2,0,0,1,314.09,277.81Z"/><path class="cls-31" d="M326.35,275.28a9.58,9.58,0,0,0-2.25-.22A6.64,6.64,0,0,1,323,276.3l0.36,0h0c3,0,5.69.9,7.37,3.43,2.59,3.88,6.7,5.24,10.57,7v-2.49c-4.33-.56-7.16-4.75-11-7.29Q328.36,276.08,326.35,275.28Z"/><path class="cls-31" d="M312.36,270c0,0.3,0,.59,0,0.88a127.89,127.89,0,0,1,13.93,4.44,11.28,11.28,0,0,1,4,1.71,47.51,47.51,0,0,1,11,7v-3C332.28,275.61,323.72,269,312.36,270Z"/><path class="cls-31" d="M326.35,275.28q2,0.8,4,1.71A11.28,11.28,0,0,0,326.35,275.28Z"/><path class="cls-31" d="M316.06,276.92a3,3,0,0,0-2,.9c0.08,0.32.15,0.64,0.22,1l1.09-1a5.68,5.68,0,0,1,1-.79Z"/><path class="cls-31" d="M312.36,270c-0.74.06-1.49,0.13-2.26,0.26l2.31,0.62C312.39,270.55,312.37,270.25,312.36,270Z"/><path class="cls-31" d="M314.31,278.78c-0.06-.32-0.14-0.64-0.22-1a2,2,0,0,0-.36,1.47h0Z"/><path class="cls-32" d="M296.36,284.77c-8-3.45-15.87-3.13-23.95-1.32l3.49-.14c5.36-.25,8,2.88,6.89,8.47-0.47,2.44-1,4.89-.52,7.4a2.9,2.9,0,0,1,.15,1.31c2-.25,3.84-1,4.34-3.13,1.45-6.07,5.84-8.5,11.12-10a6.49,6.49,0,0,1,.07-1.83c-0.43-.21-0.85-0.42-1.28-0.61Z"/><path class="cls-32" d="M229.91,272.61c5.77,4.69,10.45,11,18.56,11.45-9.55-4-18.69-12.26-21.07-20.45a8.22,8.22,0,0,1,0-5.51C221.68,263.66,222.67,266.72,229.91,272.61Z"/><path class="cls-32" d="M253.54,287.11a4.18,4.18,0,0,1,2.38-.75l1.08,0.09,0.23-.12a25.73,25.73,0,0,1-3.74-.59A2.68,2.68,0,0,1,253.54,287.11Z"/><path class="cls-32" d="M253.49,285.73a33.94,33.94,0,0,1-5-1.67c-8.11-.43-12.79-6.76-18.56-11.45-7.24-5.89-8.23-8.95-2.52-14.5a6.28,6.28,0,0,1,1.65-2.3,7.28,7.28,0,0,0-8.29,6.09c-0.51,4.11.92,9.35,5.2,11.26a19.36,19.36,0,0,1,9.61,8.3c1.67,2.9,4.53,3.95,8,4s7-1.09,9.85,1.69h0l0.16-.1A2.68,2.68,0,0,0,253.49,285.73Z"/><path class="cls-32" d="M255.92,286.36a4.18,4.18,0,0,0-2.38.75s0,0.08,0,.11l1.77,0.13h0c0.57-.35,1.15-0.62,1.73-0.91Z"/><path class="cls-32" d="M253.38,287.21h0.12s0-.08,0-0.11Z"/><path class="cls-32" d="M282.28,299.17c-0.48-2.51,0-5,.52-7.4,1.08-5.59-1.53-8.72-6.89-8.47l-3.49.14c-2.77.62-5.57,1.42-8.4,2.3a17.55,17.55,0,0,1-6.79.57l-0.23.12c1.51,0.12,3,.23,4.53.4,1,0.12,2.1.11,3.18,0.14,3.28-.46,6.55-1.11,9.84-1.42,5.62-.53,8.62,1,5.36,7.32-1.43,2.77-4.31,6.4,1.76,7.68l0.75-.08A2.9,2.9,0,0,0,282.28,299.17Z"/><path class="cls-32" d="M297.9,287.36l0.68-.2h0q0-.66,0-1.32l-0.66-.31A6.49,6.49,0,0,0,297.9,287.36Z"/><path class="cls-32" d="M257,286.44c-0.58.29-1.16,0.56-1.73,0.91a37.84,37.84,0,0,0,9.44-.37c-1.08,0-2.18,0-3.18-.14C260,286.67,258.51,286.56,257,286.44Z"/><path class="cls-32" d="M298,285.52v0c-0.41-.2-0.85-0.39-1.28-0.58C297.12,285.1,297.54,285.31,298,285.52Z"/><path class="cls-32" d="M296.36,284.77c-1.18-.53-2.24-1.07-2.32-1.74-0.88-7.08-4.69-3.55-8.84-4.13-12.09-1.69-22.24,10.64-35.34,3-4.75-2.77-10.83-1.37-13.77-8.92-2.12-5.45-8.21-9.33-7.21-16.26-0.54.48-1,.94-1.49,1.38a8.22,8.22,0,0,0,0,5.51c2.38,8.19,11.51,16.49,21.07,20.45a17,17,0,0,0,2.46,0,2.46,2.46,0,0,1,2.56,1.7,25.73,25.73,0,0,0,3.74.59c4.8-2.29,10-2.67,15.19-2.88C280.5,281.63,288.36,281.32,296.36,284.77Z"/><path class="cls-32" d="M228.89,256.73c0-.3.08-0.6,0.15-0.92a6.28,6.28,0,0,0-1.65,2.3C227.85,257.67,228.35,257.21,228.89,256.73Z"/><path class="cls-32" d="M250.93,284a17,17,0,0,1-2.46,0,33.94,33.94,0,0,0,5,1.67A2.46,2.46,0,0,0,250.93,284Z"/><path class="cls-32" d="M264,285.75c2.83-.89,5.63-1.68,8.4-2.3-5.18.21-10.39,0.59-15.19,2.88A17.55,17.55,0,0,0,264,285.75Z"/><path class="cls-32" d="M298,285.52l0.66,0.31c-0.2-.12-0.42-0.23-0.66-0.34v0Z"/><path class="cls-33" d="M239.87,343.21c-8.05-6.74-18.33-10.63-24.75-19.4l0.07-.07c-3-.62-6.71.35-8.46-3.11a1.94,1.94,0,0,1,.06-2.3c-3,.54-5,2.49-5.56,6.67a8.87,8.87,0,0,1-2.41,5.45c8.77,1.84,11,5.4,6.82,12.95-2.95,5.32-2.87,9.14,1.64,13a4.64,4.64,0,0,1,1.57,2.3,22.17,22.17,0,0,0,4.51,9.5l5.26-3c0.65-7.48-.1-14.05-9.56-17.22,9.75-4.59,17.5-10.65,27-1.65a10.82,10.82,0,0,1,3.66,6.71l5.35-3.09A16.35,16.35,0,0,0,239.87,343.21Z"/><path class="cls-33" d="M215.63,323.84l-0.44-.1-0.07.07c6.42,8.77,16.7,12.65,24.75,19.4a16.35,16.35,0,0,1,5.16,6.71l2.67-1.54a7.14,7.14,0,0,0-1.75-2.77A152,152,0,0,0,215.63,323.84Z"/><path class="cls-33" d="M207.28,356.4c-4.51-3.87-4.58-7.69-1.64-13,4.18-7.55,2-11.1-6.82-12.95-0.1.09-.18,0.19-0.28,0.27,4.44,2.3,10.59,4.44,5.73,10.79-5.23,6.83-5.15,11.9,1.88,17,1.29,0.94,1.83,3.23,2.23,5a21.71,21.71,0,0,0,2.35,6.2l2.62-1.51a22.17,22.17,0,0,1-4.51-9.5A4.64,4.64,0,0,0,207.28,356.4Z"/><path class="cls-33" d="M209.83,316c-10.16-.17-10.91.72-11.28,14.4l0.27,0.06a8.87,8.87,0,0,0,2.41-5.45c0.59-4.17,2.6-6.13,5.56-6.67,0.74-.91,2.33-1.4,3-2.34h0Z"/><path class="cls-33" d="M198.54,330.72c0.1-.09.19-0.18,0.28-0.27l-0.27-.06C198.55,330.5,198.54,330.6,198.54,330.72Z"/><path class="cls-34" d="M225,310.38a3,3,0,0,1-.16-0.74c4.44-5.73,3.61-9.25-2.78-11.61-8.73-3.23-17.64.63-21.45,9.35a11.45,11.45,0,0,1-1.42,2.59C207.78,308.86,216.41,307.35,225,310.38Z"/><path class="cls-34" d="M198,310.11h0l1.12-.14a11.45,11.45,0,0,0,1.42-2.59c3.81-8.72,12.71-12.58,21.45-9.35,6.38,2.36,7.22,5.88,2.78,11.61a3,3,0,0,0,.16.74l0.28,0.09c2.48-.84,6,0.58,7.14-3.13s-1.29-5.72-3.38-8.11c-5.75-6.58-13.15-5.64-20-4a20.56,20.56,0,0,1-5.3,2C199.56,299.76,197.17,304,198,310.11Z"/><path class="cls-34" d="M203.71,297.29a20.56,20.56,0,0,0,5.3-2l-0.87.21A16.76,16.76,0,0,0,203.71,297.29Z"/><path class="cls-34" d="M225,310.48l0-.1c-8.56-3-17.19-1.52-25.81-.41-0.1.13-.22,0.26-0.34,0.38C207.52,313,216.27,310.66,225,310.48Z"/><path class="cls-34" d="M225,310.48h0.25l-0.28-.09Z"/><path class="cls-34" d="M199.16,310l-1.12.14c0.26,0.09.52,0.16,0.78,0.24C198.94,310.23,199.06,310.1,199.16,310Z"/><path class="cls-35" d="M210.41,318.28c1.13,2.14,3.66,3.26,5,5.25,2.48-2.59,6.14-4.11,7.47-7.76-3.4,3.27-7.73,2.3-11.77,2.59C210.86,318.31,210.64,318.3,210.41,318.28Z"/><path class="cls-35" d="M215.41,323.53c0.07,0.11.16,0.2,0.23,0.32,4.13-1.18,11.52.56,7.31-8.13h0l-0.06,0C221.55,319.42,217.89,320.94,215.41,323.53Z"/><path class="cls-35" d="M209.83,316a4.79,4.79,0,0,0,.58,2.29c0.24,0,.46,0,0.7.07,4-.29,8.37.68,11.77-2.59l0,0-13.06.27h0Z"/><path class="cls-35" d="M222.88,315.76l0.06,0h0Z"/><path class="cls-35" d="M210.41,318.28a12.3,12.3,0,0,0-3.61.05,1.94,1.94,0,0,0-.06,2.3c1.75,3.46,5.45,2.49,8.46,3.11l0.22-.21C214.07,321.53,211.54,320.42,210.41,318.28Z"/><path class="cls-35" d="M215.19,323.74l0.44,0.1c-0.06-.11-0.16-0.21-0.23-0.32Z"/><path class="cls-35" d="M210.41,318.28a4.79,4.79,0,0,1-.58-2.29c-0.71.94-2.29,1.42-3,2.34A12.3,12.3,0,0,1,210.41,318.28Z"/><path class="cls-36" d="M304.22,309.12c-0.54,2.49-1.21,5.05-1.68,7.59l13.87-8a17.58,17.58,0,0,0,1.18-6.32c0-1.94.65-4,2.56-4.68,2.09-.79,3.33,1,4.63,2.39,0.85,0.89,1.55,1.71,2.18,2.51l6.71-3.88A21.63,21.63,0,0,0,318.46,293C310.08,292.77,306.3,299.65,304.22,309.12Z"/><path class="cls-22" d="M287.94,298.91c-1,2-3.07,3.51-5.56,2.09-0.39,1.75-1.84,3.38-1,5.3,10.35-1.19,15.81-7.26,16.57-18.38C294.76,291.7,290.33,294.3,287.94,298.91Z"/><path class="cls-22" d="M281.37,306.3c-0.83-1.92.63-3.55,1-5.3a5.49,5.49,0,0,1-.7-0.44c-1.17,2.6-6.87,2.91-4.48,7,2.5,4.24,6.42,2.09,10,.69,8.12-3.19,11.14-10.48,14.36-17.56,1.18-2.6-1.13-3-3-3.51h0c-0.2.27-.43,0.51-0.64,0.77C297.18,299,291.71,305.11,281.37,306.3Z"/><path class="cls-22" d="M286.78,297.35c-0.51,2.12-2.34,2.88-4.34,3.13a3.82,3.82,0,0,1-.05.52c2.48,1.42,4.52-.09,5.56-2.09,2.39-4.62,6.82-7.21,10-11v0c0-.18,0-0.36,0-0.54C292.62,288.85,288.23,291.28,286.78,297.35Z"/><path class="cls-22" d="M297.94,287.9v0c0.21-.26.44-0.5,0.64-0.77l-0.68.2C297.92,287.54,297.91,287.72,297.94,287.9Z"/><path class="cls-22" d="M282.43,300.48l-0.75.08a5.49,5.49,0,0,0,.7.44A3.82,3.82,0,0,0,282.43,300.48Z"/><path class="cls-17" d="M319.43,277.6c-0.52-.06-1-0.14-1.55-0.19a4.1,4.1,0,0,0-2.48.4c2.86,0.72,4.5,5,8,3.25,2.49-1.2.33-3.13-.09-4.73C322.23,277.77,320.84,277.77,319.43,277.6Z"/><path class="cls-17" d="M316.41,277a14,14,0,0,0,1.47.39c0.51,0,1,.13,1.55.19A5.05,5.05,0,0,0,323,276.3C320.72,276.16,318.41,275.78,316.41,277Z"/><path class="cls-17" d="M317.88,277.41a14,14,0,0,1-1.47-.39,5.68,5.68,0,0,0-1,.79A4.1,4.1,0,0,1,317.88,277.41Z"/><path class="cls-17" d="M323.34,276.33h0l-0.36,0a5.05,5.05,0,0,1-3.56,1.29C320.84,277.77,322.23,277.77,323.34,276.33Z"/><path class="cls-37" d="M291,253.84c5.09,1.08,5.6-3.39,5.82-9,0.14-2-.29-5.18-5.26-5.13-6.08.06-11.27,3.29-11.46,8.67C279.9,254.42,287.07,253,291,253.84Z"/><path class="cls-38" d="M341.28,251.81v-4.69a21.09,21.09,0,0,0-3.12,1.62A5.39,5.39,0,0,0,341.28,251.81Z"/><path class="cls-38" d="M333.74,248.79c0.51,3.36,3.77,5.76,7.55,6.21v-3.19a5.39,5.39,0,0,1-3.12-3.07,21.09,21.09,0,0,1,3.12-1.62v-2.55l-0.52.2C338.25,245.76,333,244.19,333.74,248.79Z"/><path class="cls-39" d="M209.06,347.94c9.46,3.17,10.21,9.75,9.56,17.22L239.68,353A10.82,10.82,0,0,0,236,346.3C226.56,337.29,218.81,343.35,209.06,347.94Z"/><path class="cls-40" d="M320.15,297.7c-1.91.72-2.52,2.74-2.56,4.68a17.58,17.58,0,0,1-1.18,6.32L327,302.61c-0.63-.8-1.33-1.62-2.18-2.51C323.48,298.72,322.25,296.92,320.15,297.7Z"/></svg>