<?xml version="1.0" encoding="utf-8"?>
<!-- Generator: Adobe Illustrator 16.0.0, SVG Export Plug-In . SVG Version: 6.00 Build 0)  -->
<!DOCTYPE svg PUBLIC "-//W3C//DTD SVG 1.1//EN" "http://www.w3.org/Graphics/SVG/1.1/DTD/svg11.dtd">
<svg version="1.1" id="Layer_2" xmlns="http://www.w3.org/2000/svg" xmlns:xlink="http://www.w3.org/1999/xlink" x="0px" y="0px"
	 width="456px" height="513.5px" viewBox="0 0 456 513.5" enable-background="new 0 0 456 513.5" xml:space="preserve">
<path fill="#FFFFFF" d="M229,510.6L8.3,383.2V128.4l2.7-1.6L229,1l220.7,127.4v254.8l-2.7,1.6L229,510.6z M19.2,376.9L229,498.1
	L438.8,377V134.7L229,13.5L19.2,134.7V376.9z"/>
<polygon fill="#FFFFFF" points="205.6,221.6 205.6,238.3 137.5,238.3 137.5,117.7 205.6,117.7 205.6,134.4 157.2,134.4 157.2,167.2 
	202.6,167.2 202.6,183.7 157.2,183.7 157.2,221.6 "/>
<polygon fill="#FFFFFF" points="290.8,176.1 331.4,238.3 308.7,238.3 278.5,189 248.1,238.3 227.1,238.3 267,175.8 229.5,117.7 
	251.5,117.7 279.4,163.4 307.2,117.7 328.5,117.7 "/>
<path fill="#FFFFFF" d="M185.5,274.8V395.4h-19.4v-77.9c0-9,0.2-16.3,0.7-22.1c-1.3,1.399-3.4,3.3-6.2,5.699c-2.9,2.4-8.5,7-17,13.9
	l-9.7-12.4l35.5-27.899h16.1V274.8z"/>
<path fill="#FFFFFF" d="M290.6,318.7c10.9,0,19.4,3.3,25.5,10c6.101,6.7,9.2,16.1,9.2,28.1c0,12.101-3.5,21.8-10.6,29.101
	c-7.101,7.399-16.9,11-29.601,11c-12.6,0-22.699-4.7-30.3-14c-7.5-9.301-11.3-22.4-11.3-39c0-47.2,19.2-70.7,57.6-70.7
	c6.101,0,11.2,0.5,15.301,1.399v16.2c-4.2-1.2-9-1.8-14.5-1.8c-13.101,0-22.801,3.5-29.2,10.5c-6.4,7-9.9,18.1-10.4,33.2h1
	c2.601-4.5,6.2-7.9,10.9-10.4C278.9,319.9,284.4,318.7,290.6,318.7 M285.6,381c6.601,0,11.7-2.1,15.301-6.4
	c3.6-4.3,5.399-10.199,5.399-17.699s-1.7-13.2-5.1-17.101c-3.4-3.899-8.5-5.8-15.101-5.8c-6.1-0.2-11.5,1.7-16.199,5.8
	c-4.7,4.101-6.9,8.7-6.7,13.7c0,7.7,2.1,14.2,6.2,19.6C273.6,378.4,279,381,285.6,381"/>
</svg>
