<svg id="Layer_1" data-name="Layer 1" xmlns="http://www.w3.org/2000/svg" viewBox="0 0 223 226.21"><defs><style>.cls-1{fill:#001f4d;}.cls-2{fill:#004099;}.cls-3{fill:#003573;}.cls-4{fill:#010101;}.cls-5{fill:#00427f;}.cls-6{fill:#00336e;}.cls-7{fill:#3c444b;}.cls-8{fill:#244562;}.cls-9{fill:#002350;}.cls-10{fill:#003085;}.cls-11{fill:#040509;}.cls-12{fill:#000434;}.cls-13{fill:#613e22;}.cls-14{fill:#63c3f9;}.cls-15{fill:#002a64;}.cls-16{fill:#003799;}.cls-17{fill:#003780;}.cls-18{fill:#014ba3;}.cls-19{fill:#003b90;}.cls-20{fill:#2a4663;}.cls-21{fill:#fcfbfd;}.cls-22{fill:#a1d6ef;}.cls-23{fill:#000533;}.cls-24{fill:#003649;}.cls-25{fill:#002761;}.cls-26{fill:#000636;}.cls-27{fill:#001d4c;}.cls-28{fill:#0050ba;}.cls-29{fill:#015357;}.cls-30{fill:#196358;}.cls-31{fill:#128496;}.cls-32{fill:#3a8277;}.cls-33{fill:#1d4161;}.cls-34{fill:#316051;}.cls-35{fill:#4f4f52;}.cls-36{fill:#727c75;}.cls-37{fill:#1c51ab;}.cls-38{fill:#00244b;}.cls-39{fill:#0047bb;}.cls-40{fill:#008db4;}.cls-41{fill:#034580;}.cls-42{fill:#0470cf;}.cls-43{fill:#0075bb;}.cls-44{fill:#f8fafd;}.cls-45{fill:#003b7d;}.cls-46{fill:#0a2f5d;}.cls-47{fill:#30787e;}.cls-48{fill:#fefefe;}.cls-49{fill:#f9b42a;}.cls-50{fill:#36322d;}.cls-51{fill:#5b4e43;}.cls-52{fill:#f1aa2e;}.cls-53{fill:#f1964c;}.cls-54{fill:#977f26;}.cls-55{fill:#005f6f;}.cls-56{fill:#2d4c30;}.cls-57{fill:#033d34;}.cls-58{fill:#047f9c;}.cls-59{fill:#757832;}.cls-60{fill:#fdfafa;}.cls-61{fill:#2b74aa;}.cls-62{fill:#003ac6;}.cls-63{fill:#013e7c;}.cls-64{fill:#fbf9fb;}.cls-65{fill:#008c8a;}.cls-66{fill:#2f3d45;}.cls-67{fill:#8b8c9a;}.cls-68{fill:#d6b4b5;}.cls-69{fill:#a0dde4;}.cls-70{fill:#f7d075;}.cls-71{fill:#6f4d52;}.cls-72{fill:#8f8664;}.cls-73{fill:#6c6b50;}.cls-74{fill:#e98a17;}.cls-75{fill:#d78f1f;}.cls-76{fill:#c58e4f;}.cls-77{fill:#fa9907;}.cls-78{fill:#5e8b69;}.cls-79{fill:#faf8f9;}.cls-80{fill:#fdfafd;}.cls-81{fill:#81b8cf;}.cls-82{fill:#fdf9fb;}.cls-83{fill:#aadde7;}.cls-84{fill:#67969c;}.cls-85{fill:#fbc043;}</style></defs><title>splash</title><path class="cls-1" d="M101.07,18.79h5.08c0.29,2.34.49,4.64-1.58,6.42a5.92,5.92,0,0,0-1.82,3.55c-0.75,3.92-2.14,7.67-3.25,11.49-1.34,4.6-4.34,7.75-8.09,10.36a6.1,6.1,0,0,0-2.54,2.74,1.06,1.06,0,0,1-.39.64c-2.41.86-3,3.4-4.62,5-1.84,1.84-3,4.28-4.7,6.32A11,11,0,0,1,74.36,69c-1.1.38-1.5,0.82-1.07,2A109,109,0,0,0,79.4,84.1a1.27,1.27,0,0,0,1.06,1c0.73-.08.76-0.84,0.86-1.39a34.13,34.13,0,0,1,1.53-5.11c0.7-2.53,3.14-4,4-6.46a1.31,1.31,0,0,1,1.71-.72,1.81,1.81,0,0,1,1.27,1.73c0.3,2.35,1,4.65.77,7.05a3.35,3.35,0,0,0,.36,2.43c0.67,0.23.9-.35,1.28-0.63,1.81-1.35,2.2-1.23,2.87,1,0.23,0.77.35,1.61,1.43,1.31,3.75-1,5.74,1.55,7.51,3.94,1.91,2.58,4.1,4.13,7.34,4.17,1.06,0,2.36-.17,2.78,1.22s-0.58,2.19-1.61,2.85a6.72,6.72,0,0,0-2.27,2.36,3.47,3.47,0,0,1-2.29,1.86,8.3,8.3,0,0,0-5.82,4.84,3.61,3.61,0,0,1-3,1.94c-3.6.64-3.73,1.73-4.57,5.1-0.73,2.91.94,5.86-.77,8.55a1.47,1.47,0,0,0-.07,1.25c1.43,3.4.71,7,.87,10.47a12.26,12.26,0,0,1-.81,5.23c-1.28,3.18-.41,6.55-0.58,9.78-0.19,3.77-1.76,7-2.32,10.55-0.5,3.16-2.17,5.7-3.92,8.36a16.45,16.45,0,0,0-2.86,10.32c0.26,3.33-.73,4.22-4.08,3.82a5.06,5.06,0,0,0-4.3,1,1.34,1.34,0,0,1-1.58.48c-0.65-2.29.73-3.36,2.59-3.75,2.27-.48,3-1.79,3.64-3.92,1.07-3.74,1.49-7.92,5.23-10.37a2.19,2.19,0,0,0,.9-1.5c0.7-4.66,2.16-9.14,2.79-13.87,0.57-4.25-.21-8.61,1.17-12.75a3.71,3.71,0,0,0-.4-2.94,41.77,41.77,0,0,1-3.08-9.92A3.28,3.28,0,0,1,87,121c1.32-2.53,1.37-5.4,2.21-8.06,1-3.08-.94-5.88-1.79-8.76-0.23-.77-1.18-1.43-0.67-2.3,0.62-1.05,1.66-.44,2.54-0.34a1.37,1.37,0,0,0,.5.06c3.33-1,6.67-.31,10-0.14,2.42,0.12,3.68-1.81,5.05-3.41a1.64,1.64,0,0,0,.26-1.22c-0.18-2.16-4.7-5.38-6.88-4.92a34.59,34.59,0,0,1-4,.66c-1.1.1-2.33,0.23-3.13-.65-1-1.07-1.56-.78-2.42.13-1.07,1.12-2.05.87-2.83-.5a3.58,3.58,0,0,0-4.65-.8c-0.75.64-.45,1.38-0.16,2.09a13.32,13.32,0,0,1,1.09,2.56,2.35,2.35,0,0,1-1.27,2.78c-1.19.57-1.87-.26-2.5-1.12-0.47-.64-0.53-1.92-1.59-1.69s-1.33,1.47-1.53,2.45a29.92,29.92,0,0,1-.64,4c-0.59,1.7-1.27,3.27-3.06,4.1-2.36,1.09-3,3.54-4.27,5.53-0.7,1.14-1.14,2.53-2.83,2.55-1.06-1.71,0-3.33.8-4.46,1.24-1.87,2.27-3.94,4-5.49,2.13-1.89,3.76-4.13,3.75-7.21a5.65,5.65,0,0,1,1.61-3.66,3.42,3.42,0,0,0,0-4.84c-2-2.38-3.71-5-6.75-6.34-1.87-.85-2.43-0.37-2.84,1.29a22.61,22.61,0,0,0-.48,3.27,9.56,9.56,0,0,1-2.28,5.81,11.37,11.37,0,0,0-1.72,3.38c-0.54,1.22-1,2.57-2.8,2.41-0.45-2.79.94-4.89,2.58-6.9,2.17-3.06,2.36-6.68,2.55-10.18a35.24,35.24,0,0,1,1-7.25c0.9-3.34,2.25-4,5.71-3.11-1.58-2.83-1.49-3.82.7-6.27a6.51,6.51,0,0,0,1.25-2.18c1.26-3.44,4-5.67,6.78-7.72,1.9-1.41,1.81.69,2.12,2,1.33-2.09,3-3.78,3.43-6.32,0.29-1.73,3.41-3.49,5.22-3,1.51,0.4,2-.22,2.74-1.39,1.81-2.92,2.67-6.38,5.1-8.95,1-1-.09-1.89-0.17-2.83-0.1-1.19.71-2.73-1.6-2.75-0.61,0-.28-1-0.05-1.53,0.47-1.09,1.51-1.83,1.9-3.28-1.43.06-2.06,1.1-2.83,1.83-6.47,6.1-12.68,12.47-19.39,18.3-2.27,2-5.18,3.28-6.4,6.31-2.26,2.55-5.52,3.78-8,6-0.85-1.38-.09-2.57.75-3.44,2.87-3,5.32-6.37,8.91-8.6C73,45,74.73,41.76,77,39.07A9.13,9.13,0,0,1,78.89,37a36,36,0,0,0,9.21-9c1.74-2.26,2.92-4.91,5.19-6.81s2.45-1.86,4.21.4c1.13,1.45,1.91.23,2.59-.55C100.63,20.45,100.36,19.39,101.07,18.79Z"/><path class="cls-2" d="M113.79,18.78h18.34c0.47,2.07-1.51,3-2.18,4.56A9.12,9.12,0,0,1,128,26c-2.37,2.39-1.26,5-.69,7.58,0.23,1,1.2,2.06-.41,2.73s-2.64-.07-3.11-1.76a0.83,0.83,0,0,0-.37-0.54c-2.25,1-2.64,4.08-5,5.07-3.79,3.36-3.05,7.78-2.82,12.08a1.38,1.38,0,0,0,.6,1.09c2.38,1.39,3.48,4.37,6.53,5,1.46,0.3,2.29,1.77,3,3,1.53,2.77,2.67,5.4,2.38,9A14.19,14.19,0,0,1,123,79.72c-0.9.77-1.39,2.1-2.09,3.16-0.78,1.32-2.16,2.12-3,3.44a29.18,29.18,0,0,1-8,3.11c-3.16.92-5.22-1-5-4.26a5.66,5.66,0,0,0-1.51-4.41c-1.87-2-2.81-4.84-5.34-6.38-0.87-.53-0.62-1.66-0.55-2.6a23.93,23.93,0,0,0-.44-6.54,20.83,20.83,0,0,1,1.07-12.42c1.88-4.44,3.07-9.17,6-13.14a0.77,0.77,0,0,0,.19-0.47c-0.58-6.27,3.76-10.39,6.71-15.06C112.13,22.41,112.17,20.2,113.79,18.78Z"/><path class="cls-3" d="M101.07,18.79c-0.12,1.27.55,2.9-1.19,3.52-1.2.43-3.3,2.84-3.11-1.12a1,1,0,0,0-1.71-.66c-1.87,1.79-3.89,3.41-5.21,5.79a24.6,24.6,0,0,1-7.17,8.55A29.55,29.55,0,0,0,75.2,42.5a17.33,17.33,0,0,1-5.12,5.11c-2.59,1.55-4.35,3.88-6.32,6-1.44,1.55-3.58,2.71-3.43,5.32s-2.58,5.9-5.11,5.94c-1.69,0-1.64.53-.95,1.75,1.61,2.85,2.67,6,4.48,8.74,0.88,1.35,1.33,3-.71,4l-0.34-.17c0.06-3.85-2.79-6.51-4.05-9.82-0.35-.92-1.4-1-2.41-1-1.39.09-1.47-.66-0.62-1.45,1.35-1.25,1.54-2.35-.06-3.49-0.46-.33-0.16-0.61,0-1,1.76-4.95,2.12-9.87-.48-14.69,2.12-.13,2.45,1.4,2.75,3,0,0.8,0,1.61,0,2.41-0.12,1.59.12,3.19,0.06,4.28a18.28,18.28,0,0,0,.88-5.06,4.83,4.83,0,0,1,2.48-4.44,6.73,6.73,0,0,0,3.59-4.38,0.78,0.78,0,0,1,.21-0.45c4.29-3.11,4.34-8.78,7.67-12.62,2-2.29,3-5.6,4.24-8.59a5.74,5.74,0,0,1,2.07-3.11h27Z"/><path class="cls-4" d="M52.23,50.81a3.14,3.14,0,0,0-2.16-3c-2-1.25-1.68-3.88-3.4-5.34-1.26-1.07-2.08-2.7-4.09-2.52-0.52,0-1.17,0-1.15-.67,0.05-3.23-2.64-4.5-4.49-6.36A2.75,2.75,0,0,1,36,31c-0.18-3-1.52-4.28-4.54-4.42,1.43-1.07,1.81-2.2.34-3.46-0.61-.52-1.3-1.29-0.51-1.88,1-.75.67-2.59,2.63-2.56,7.28,0.14,14.56.1,21.84,0.12a12.6,12.6,0,0,1,4.82,11.07,8.15,8.15,0,0,0,0,2,12.7,12.7,0,0,1-4.67,12.86,5.29,5.29,0,0,0-2.14,4.59C53.83,51.1,53.59,51.18,52.23,50.81Z"/><path class="cls-5" d="M118.38,38.56c1.89-1,2.32-3.25,3.82-4.6,0.64-.58,1.28-1.3,2.19-0.88s0.09,1.14,0,1.7-0.06,1,.4,1a7.34,7.34,0,0,0,2.45-.07c0.42-.09.37-0.71,0.12-1.09-2.73-4.21-1.27-7.72,1.7-11.12a39.68,39.68,0,0,0,3.12-4.75h30.53c4.15,3.74,9,6.65,13.18,10.32,1.6,1.39,3.1,2.77,2.6,5.12s-2.54,2.67-4.45,3.17c-1.42.37-2.8,1-3.88-.6a3.14,3.14,0,0,1-.34-0.68c-0.88-2.88-3.68-3.33-5.86-3.83-4.45-1-8.34-3.16-12.36-5.09a4.31,4.31,0,0,1-1.54-1.3c-2.93-3.8-5.12-3.79-8.06,0-0.47.61-.82,1.29-1.32,1.87a1.22,1.22,0,0,1-.62.32c-2.38,1.29-3.8,3.68-6,5.19-1,.66-2.14,1.13-2.93,1.78-2.26,1.87-4.17,4-7.46,4.17-0.93,0-1.06,1.86-2.2,2.28-1.35.27-2.12-.55-2.84-1.49A1.39,1.39,0,0,1,118.38,38.56Z"/><path class="cls-6" d="M83.24,78.8c-0.51,2-1,4.05-1.51,6.09a1.45,1.45,0,0,1-1.16,1.45c-0.76.09-.94-0.59-1.23-1.08a123.41,123.41,0,0,1-7.13-14.93c-0.27-.65-0.34-1.49.59-1.62,4.32-.61,6.06-4.19,8.34-7.13,1.38-1.78,2.35-3.89,4.34-5.18,0.83-.54.71-1.17,0-1.87a0.86,0.86,0,0,1,.27-1.32c0.61-.42.92-0.06,1,0.57,0.14,1.16.92,0.77,1,.22,0.9-3.73,4.55-4.84,6.95-6.95,2.82-2.48,3.46-5.67,4.62-8.69a41.18,41.18,0,0,0,2.79-10.46,3.29,3.29,0,0,1,1.08-2.24c2.66-1.65,2.1-4.52,2.88-6.87h5.61c0.07,3.34-1.65,6-3.82,8.16-2.44,2.43-3.35,5.26-4.06,8.48s-1.67,6.49-3.9,9.15c-1.84,2.21-3.12,5-5.63,6.49-3.8,2.23-4.77,4.93-2.55,8.77a2.1,2.1,0,0,1,.12,1.75c-1.17,2.87-1.25,5.89-1.32,8.92a0.48,0.48,0,0,1-.19.15c-3.08-.91-3.14-0.94-4.67,2.11A32.64,32.64,0,0,0,83.24,78.8Z"/><path class="cls-7" d="M171.35,18.78H179a14.6,14.6,0,0,0,5,4.11,3.06,3.06,0,0,1,1.52,1.63A40.19,40.19,0,0,0,191.6,34,14.51,14.51,0,0,1,193.82,38a6.12,6.12,0,0,0,1.78,2.41c1.25,1.39,1.19,2.7-.43,3.54-3.52,1.83-6.75,4.4-11.35,3.06-1.64-.48-3.73.49-5.78,0-1.1-.26-1.87,1.55-1.91,2.63-0.1,2.34-.88,4.66-0.25,7,0.25,0.55.53,1.27,1.23,1,2.9-1,5.73-.73,8.67-0.06,1.11,0.25,2.42-.59,3.7-0.64,2.56,1.2,2.76,2,1,4.13a4.33,4.33,0,0,1-1.63.2c0.06,1.54-1.49,2.16-1.83,3.38-0.22.78,0.56,1.12,1.23,1.32,1.06,0.32,1.67,1.08,1.19,2.09-1.08,2.26-1.92,4.68-3.73,6.51-0.46.47-1.05,1.26-1.87,0.36a41.88,41.88,0,0,1-1-11.76c0.14-2.07-1.15-3-3.3-2.82a30.16,30.16,0,0,0-4.21.94,5.83,5.83,0,0,1-6-1.61c-0.52-1.65.38-2.75,1.52-3.69,1.61-1.33,2.64-2.82,1.93-5a2.24,2.24,0,0,1,.26-1.71,4.49,4.49,0,0,0-.27-5,2.46,2.46,0,0,1,0-2.65,1.74,1.74,0,0,1,1.09-.61,12.38,12.38,0,0,0,7.45-3.4A5.19,5.19,0,0,1,184,36.46c1.82-.32,2-1.12.95-2.6a70.05,70.05,0,0,0-11.79-12.55C172.31,20.65,171.18,20.16,171.35,18.78Z"/><path class="cls-3" d="M90.37,70.65A13.06,13.06,0,0,1,91.24,62c0.89-1.88-.63-3.59-1.27-5.24a3.33,3.33,0,0,1,1.59-4.47c3-1.85,4.82-4.78,7.19-7.18s3-5.59,4.16-8.35c0.94-2.28,1.17-5.08,2.17-7.54a3.25,3.25,0,0,1,1.11-1.65c3.29-2.05,4.09-5.65,5.57-8.83h2c-0.79,4.1-3.44,7.15-5.53,10.58-1.61,2.64-4.51,5.39-2.94,9.27a1.7,1.7,0,0,1-.62,1.59c-2.57,3.13-3.88,6.88-5.08,10.65-0.9,2.85-2.55,5.46-2.33,8.7A32.65,32.65,0,0,0,98,65.93a11.9,11.9,0,0,1,.24,5.59c-0.31,1.39.17,1.94,1.06,3.07,2.78,3.5,7.45,6.24,6,11.9a1.38,1.38,0,0,0,.85,1.66c1.29,0.65,2.82,1.37,4.12.64,2.4-1.33,5.13-1.64,7.53-2.88a1.34,1.34,0,0,1,.36,1.15c-2.17,3.79-8.7,5.7-12.32,3.62-1.56-.89-1.62-2.47-1.92-3.95-0.32-2.6-2.86-3.86-3.74-6.17C100,79.9,99,80.21,98.39,80.46c-1.42.56-2.38,0-2.68-1.37-0.49-2.34-1.38-3.67-3.95-2.14a1,1,0,0,1-1.31-.48A6.89,6.89,0,0,1,90.37,70.65Z"/><path class="cls-8" d="M171.35,18.78c0.66,1.15,1.85,1.69,2.8,2.51a83.23,83.23,0,0,1,11.91,12.91c1.12,1.48.5,2.52-1.07,2.71a8.93,8.93,0,0,0-5.47,2.86c-1.84,1.85-4.39,1.38-6.65,1.85a0.49,0.49,0,0,1-.7-0.06,12.52,12.52,0,0,0-1.73-3.05,1.21,1.21,0,0,1,0-2c1.43,0.9,5.65.23,6.84-1.18a3.16,3.16,0,0,0-.22-4.39,17.68,17.68,0,0,0-3.68-3.06c-2.72-1.78-5-4.17-7.86-5.74a5.3,5.3,0,0,1-2.87-3.4h8.68Z"/><path class="cls-9" d="M74.06,18.79c-1.43,4-3.86,7.64-5.24,11.72-0.5,1.49-2.16,2.3-2.88,3.81a16.17,16.17,0,0,0-1.64,4.2C64,40,62.85,41,61.93,42.21,59.77,45,58,48,55,50.1c-0.59.4-.68,1.91-0.58,2.86a8.7,8.7,0,0,1-1.4,5.3c-1.21-1.7-.68-3.37-0.72-4.94a4.91,4.91,0,0,0,1.41-3.9,4.49,4.49,0,0,1,2-4.12,11.8,11.8,0,0,0,4.26-5.83c0.92-2.62,1.87-5.22,3-7.79s0.49-5-.21-7.44c-0.59-2-.84-4,1.22-5.47H74.06Z"/><path class="cls-10" d="M47.65,112.93c0.76,0.44.34,2.46,1.92,1.66,1.24-.63,1.29-1.73.56-3-0.84-1.49.71-3.68,2.73-3.69s3.48-.36,4.3-2.57c0.49-1.32,2.59-1.71,3.12-.54,1.26,2.77,3.69,5.45,2,8.92a2.88,2.88,0,0,1-1,1.42c-2.6,1.1-1.75,3.43-2,5.36-4.21,1.64-7-.36-9.46-3.55C48.92,115.7,46.91,115.08,47.65,112.93Z"/><path class="cls-11" d="M46.52,106.29a14.83,14.83,0,0,1,1-6.23,7.15,7.15,0,0,1,1.14-2.77,5.65,5.65,0,0,0,.67-5.07c-0.81-2.13.23-3.07,2.1-3.15a8.43,8.43,0,0,0,3.67-1.2,9.64,9.64,0,0,0,2.58-3.43,3.48,3.48,0,0,0,1.13-3.88,2.23,2.23,0,0,1,.27-1.92c0.47-.83.86-1.74,2.06-1.37a1.88,1.88,0,0,1,1.21,2.24,26.22,26.22,0,0,1-3.45,11c-2,3.61-4.72,6.76-6.7,10.38a3.41,3.41,0,0,1-.92,1.2,7,7,0,0,0-3.17,4.39,1.06,1.06,0,0,1-1.23,1C46.28,107.33,46.24,106.82,46.52,106.29Z"/><path class="cls-12" d="M63.88,18.79A7.38,7.38,0,0,0,63.56,25c0.82,2.54,1.2,5.48-.49,8-1.57,2.36-1.75,5.23-3,7.73-0.72,1.46-1.46,3.16-2.67,3.86-3.36,1.94-3.47,5.06-3.69,8.22-0.11,1.56-.52,1.66-1.46.5q0-1.26,0-2.52c1.58,0.42,1-.9.91-1.37-0.37-2.53.93-4.11,2.73-5.59,3.64-3,4.85-6.88,4-11.46a2.2,2.2,0,0,1-.06-1c1.09-3.29-.72-6-1.62-8.92-0.49-1.6-2.39-2-2.47-3.69h8.13Z"/><path class="cls-13" d="M193.24,38a22.23,22.23,0,0,0-3.45-5.28,23.93,23.93,0,0,1-4.41-7,5,5,0,0,0-2.85-3,5.39,5.39,0,0,1-3.56-4l2.5,0c0.18,0.92.32,2,1.45,2.13,3.32,0.36,4.22,3.12,5.22,5.48a21.65,21.65,0,0,0,5.16,7.47,2,2,0,0,1,.78.94c-0.19,2.22,1.65,3.28,2.61,4.84C194.87,40.56,194.12,39.16,193.24,38Z"/><path class="cls-14" d="M48.62,128.16c0.13-1.95-1-2.15-2.55-1.91a3.61,3.61,0,0,1,3.5-2c0.45,1.5,1.43,2.88,1.13,4.57a0.67,0.67,0,0,1,0,.65c-1.61,1.15-1.57-.47-2-1.22v0Z"/><path class="cls-3" d="M57.78,84.86a4.15,4.15,0,0,1-2.66,3c1.76-1.53,1.86-3.55,1.74-5.67-0.06-1.06-.27-2.22.85-3l0.2,0.15A15.41,15.41,0,0,1,57.78,84.86Z"/><path class="cls-15" d="M29.22,184.27h1.65c2.11,0.83,3.86,2.6,6.35,2.46,2.73,1.58,6.08,1.24,8.8,2.9a8.53,8.53,0,0,1,2,1,5.15,5.15,0,0,0,4.61,1.52,13.62,13.62,0,0,0,5.49-.78,5.68,5.68,0,0,1,3-.44,1.76,1.76,0,0,0,1.88-.46c2.33-3.29,6.6-4.44,8.7-8a1.5,1.5,0,0,1,2.41-.35,9.71,9.71,0,0,1,7.59-1.64c1.65,0.28,2.23-1.33,1.84-2.84-0.63-2.47.29-4.57,1.09-6.82a37.81,37.81,0,0,1,4.91-8.63c1-1.43.46-3.38,1-5.12,1.62-4.75,2.82-9.62,2-14.8-0.27-1.64.49-3.46,0.82-5.19a5.29,5.29,0,0,0,.46-1.16c-0.51-3.84,1.06-7.74-.35-11.56-0.63-1.7-1-3.41.3-5a1.13,1.13,0,0,0,.3-1.39c-1.28-1.62-1.57-3.15.14-4.68a1,1,0,0,0,0-.7c-0.64-3.3,1.07-5.57,4.46-5.74,1.7-.08,2.38-0.63,3.17-2.39,0.92-2.06,3.26-3.5,5.63-4.21,0.86-.26,1.77-0.43,2-1.27a5.4,5.4,0,0,1,3.23-3.34,1.5,1.5,0,0,0,1-1.83c-0.23-.9-1-0.75-1.68-0.72a8.66,8.66,0,0,1-8.76-5c-0.61-1.18-2.12-1.88-3.19-2.83-1.36-1.2-2.6-.49-4,0s-1.62-.56-1.66-1.7c0-.68.45-1.72-0.58-1.95-0.66-.14-1.07.71-1.56,1.17s-0.58,1.72-1.57,1.29c-0.82-.36-0.91-1.37-0.85-2.24,0.24-3-.35-5.85-0.58-8.77a1.23,1.23,0,0,0-1-1.28,0.77,0.77,0,0,0-1,.56c-0.32,2.82-3.22,4-4.05,6.47C83.33,75.2,85,72.14,87,69.42c1.66-2.23,2.28.57,3.33,1.23,0,2-.22,4.12.51,6.11,0.58,0.71,1,1.52,2.2.71,1.6-1.08,2.54-.32,2.74,1.44s0.3,3.77,3,2.26a1.14,1.14,0,0,1,1.42.2c1.28,1.84,3.61,2.78,4.36,5.07,0.73,4.59,3.57,6.11,7.56,3.9,1.93-1.06,4.5-1.08,5.69-3.39a4.45,4.45,0,0,1,2-2.75,4.2,4.2,0,0,0,1.76-2.35,14.23,14.23,0,0,1,7.1-5.84,2.72,2.72,0,0,0,.89-0.47c1-.93,1.82-2.21,3.56-2.09,3.7,0.26,7.46.1,10.9,1.87a1.53,1.53,0,0,1,1,1.36c0,0.88-.76,1-1.38,1.24-3.29,1.34-6.94,1.48-10.14,3.14-2.91,1.51-6,2.69-8.2,5.33a1.59,1.59,0,0,1-1.36.57c-3.38,1.4-4.73,4.75-6.84,7.31-2.9,3.53-5.73,6.88-10.61,7.48a1.83,1.83,0,0,0-1.76,1.57c-0.13,1.24,1,.83,1.64,1,4.33,1.08,6.11,6.4,3.66,10.14-2.09,3.18-6,3.85-8.3,6.58-2.57,3.06-4.8,6.31-4.85,10.63a14.52,14.52,0,0,1-1.55,6c-0.86,1.78-1.65,3.47-1,5.52a2.9,2.9,0,0,1,0,2c-1.08,2.05-.68,4-0.11,6.09a1.57,1.57,0,0,1-.05,1.21c-2.92,3.35-2.39,8.13-4.81,11.63-1.58,2.29-3.49,4.29-3.85,7.25-0.42,3.41.3,6.82-.1,10.22a0.87,0.87,0,0,0,.73.93c1,0.22,2.55,1.12,1.82,1.66-1.22.89-1.78,2.92-3.66,2.74-1.35-.14-1.56-1.23-1.63-2.46-0.09-1.52-3-3.49-4.49-3.24-2.06.34-4.62,2.81-5.22,4.83-0.34,1.14-.57,2.57-2.38,2.39a1.74,1.74,0,0,0-1.06.58c-3.59,3.35-8.1,4-12.7,4.33a19.23,19.23,0,0,0-5.46.79A6.11,6.11,0,0,1,45,192.48c-2.56-2.58-5.32-2.31-8.33-1.54-0.57.15-1.14,0.27-1.72,0.4-1.52.33-2.48,0.36-1.88-1.81s-1.33-3.73-4.36-3.78C28.35,185.08,28.85,184.7,29.22,184.27Z"/><path class="cls-16" d="M88.87,184.73c1.08-1.25.63-2.29-.45-3.22a2.82,2.82,0,0,1-1-3.57,0.89,0.89,0,0,0,.16-0.47c-2.19-6.65,2.65-11.11,5.1-16.3,0.39-.83.84-1.63,1.26-2.44,0.74-1.25.3-2.79,1-4.05a8.78,8.78,0,0,0,1-3.58,5.3,5.3,0,0,1,.4-4.37,1.58,1.58,0,0,0,.35-1.2c-1.2-3.73,1.65-6.39,2.51-9.57a4.16,4.16,0,0,1,2.59-2.64,61.11,61.11,0,0,1,6.06-2.59c3.07-.91,5.93.44,8.45,2.23a16.56,16.56,0,0,1,1.72,1.86c2.11,2.07,3,1.91,4.12-.74,4.29,0.42,8.48-1.21,12.78-.58a6.74,6.74,0,0,1,2.53,6.26,9.08,9.08,0,0,0,.38,2.68,2.38,2.38,0,0,0-.09,2.81c0.91,1.86,1.39,3.72.45,5.81-0.65,1.44.23,3,.24,4.48,0,0.25.23,0.55,0.48,0.44,2.19-1,2.26.89,2.84,2.07a2.52,2.52,0,0,0,2,1.75c2.73,0.11,3.31,1.86,3.34,4.11,0.36,2.49-1.65,2.57-3.19,3.13s-2.06-.24-2.46-1.43a7,7,0,0,0-1.43-3.4c-2.62-2.74-5.29-2.23-6.55,1.32-1.66.61-2.43,0.1-2.37-1.65a15.3,15.3,0,0,1,1.09-3.9c1.1-3.61-1.23-8.66-4.69-10.07-2.33-.95-4.25-2.78-6.89-3.12-1.06-.14-1-1.47-1.74-2.31-2.51,3.08-5.82,2.78-9.14,2-1.73-.39-2.45.74-3.36,1.73a2.42,2.42,0,0,1-.81.61c-4.84,1.66-5.58,6-6.32,10.12-0.32,1.77-.76,3.3-2.16,4.39-2.9,2.25-3.76,5.74-5.37,8.76a4,4,0,0,0,.71,4.91c1.34,1.4,1.17,2.76-.51,3.77s-1.84,2.41-.81,4.05c0.67,1.07.92,2.1-.79,2.44A1.71,1.71,0,0,1,88.87,184.73Z"/><path class="cls-17" d="M124,86.94c4-4.64,9.12-7.11,15-8.22,1.72-.32,3.24-1.47,5.07-1.53a0.7,0.7,0,0,0,.49-0.45,0.88,0.88,0,0,0-.7-0.91c-2.41-1.16-5-1.29-7.61-1.61s-4.74.59-7.12,2.18c-2.67,1.78-5.37,3.27-7.21,6a1.24,1.24,0,0,1-1.53.5,17.16,17.16,0,0,1,3.21-4.62c2.17-2.12,4.51-4.41,3.46-8a1.67,1.67,0,0,1,0-1c1.82-4.68-1.39-7.66-3.67-11a0.32,0.32,0,0,0-.2-0.15c-3.28,0-4.41-3.14-6.66-4.64a4.83,4.83,0,0,1-1.37-1.09c-2-2.9,0-11.67,3.16-13.8l0.51,1c-0.8,1.75-2,3.32-2,5.41-0.12,3.29.39,6.1,3.49,8,2.07,1.3,3.46,3.48,5.5,4.88a4.28,4.28,0,0,1,1.64,2.22c0,3,1.2,4.71,4.42,5.41,2.11,0.46,4,1.55,6.33,1a4.17,4.17,0,0,1,3.12.87c1.64,1,3.26,2.12,5,3a4.67,4.67,0,0,1,2.27,3.49c0.28,1.27.94,1.66,1.82,0.44,1.17-1.61,2.06-1,2.9.28s1.62,2.86,1.11,4.54,0.16,2.54,1.71,3c0.8,0.25,1.57.64,2.35,1,0.62,0.26,1.36.48,1.28,1.35a1.65,1.65,0,0,1-1.58,1.41,10.46,10.46,0,0,1-3.79.08,25.83,25.83,0,0,0-14.91,1.34,1.82,1.82,0,0,1-1,0c-1.82-1-.31-1.6.36-2.13,0.92-.72,2.17-1,2.91-2a1.92,1.92,0,0,0,.52-2.09,1.4,1.4,0,0,0-1.81-.45c-3.92,1-7.89,1.89-11.33,4.19A8.81,8.81,0,0,0,126.17,88c-1.55,2.83-4.59,4.5-5.88,7.56a1.23,1.23,0,0,1-1.92.53c0.4-2.88,2.11-5,4.11-6.92C123.13,88.55,124,88,124,86.94Z"/><path class="cls-18" d="M119.88,110.87c-0.61-.88.26-1.37,0.54-2a3.63,3.63,0,0,1,.6-0.45c2.36-1.29,5.29-1.62,6.79-4.38,0.64-1.19,1.89-.77,2.58,0,1.71,2,3.79,2.29,6.16,1.71a4.5,4.5,0,0,1,.74.11,8.57,8.57,0,0,0,1.74.29c2.91,0.28,3.2.82,1.63,3.41-0.46.76-.65,1.3,0.09,2,2.57,2.3,2.48,3.36.32,6.82-0.7,1.13-2.28,2.17-.92,3.74s3,1.64,4.84.82c1.6-.73,3.33-1.21,4.28-2.94a1.7,1.7,0,0,1,2-.68,6.16,6.16,0,0,1,5,6.38,1.41,1.41,0,0,1-1.25.75c-1.11-.18-1.45-1.88-2.73-1.54-2.52.66-5.22,0.1-7.67,1.31-1.39.69-.72,2.64-2.21,3.16a5.36,5.36,0,0,0-6.85,1.66c-1,1.42-2.07,2.2-3.8,1.43a2.41,2.41,0,0,0-2.36.31c-3.88,2.2-6.15,1.61-8.68-2.18a10.42,10.42,0,0,0-1.91-2,1.5,1.5,0,0,0-2.53.25c-1.4-.76-1.55-2.46-2.66-3.51-0.65-.62,0-1.62.87-2s2.15-1,2.65.25c1,2.35,2.71,3,5,3.16a2.39,2.39,0,0,1,1.93,1.5,2.71,2.71,0,0,0,2.37,1.64c4.24,0.27,7.1-1.27,8-4.21a3.36,3.36,0,0,0-1.32-4.2c-1.17-.82-2.25-1.77-3.48-2.52a3.45,3.45,0,0,1-1.81-2.61,10.32,10.32,0,0,1,.8-2.54c1.65,0,0-1.09.46-1.49,1.69-1.41.69-2.32-.67-3a4.46,4.46,0,0,0-5.87,2.21,1.49,1.49,0,0,1-.75.94h-0.88C119.74,112.46,119.7,111.74,119.88,110.87Z"/><path class="cls-16" d="M72.52,208.13c-0.74-.93,1.81-1.54.3-2.46-1.2-.72-2.45-1.39-3.94-0.35-2.43,1.69-5.3.15-7.91,0.9-0.56.16-1-.76-1.14-1.48-0.25-1.8-1.31-2.17-2.67-1.24-1.12.76-2.06,0.39-3.12,0.11-0.74-.19-1.61-0.17-1.74-1.15s0.82-.81,1.39-1c1.29-.5.58-1.09,0-1.67-0.79-.87-1.95-1.83-1.32-3a4.68,4.68,0,0,1,4-2.82c3.16-.1,6.33-0.1,9.49-0.13,0.6,0,8-4.83,8.24-5.41,0.42-.92.81-1.87,1.3-2.76,1-1.79,2.13-1.87,3.1-.05a15,15,0,0,0,3.17,3.93c1.17,1.09,2.34,1.33,3.41-.19a2,2,0,0,1,.93-0.84c1.7-.44,2.1-1.75,2.31-3.22,1.81,1.4,1.88,2.08.24,3.42-0.84.69-1.74,1.31-2.56,2a9.1,9.1,0,0,1-6.58,1.38c-3.24-.74-4.89,1.57-7,2.92-1,.66-1.88,1.66-3.11,2.09A1.87,1.87,0,0,0,67.85,199a2.07,2.07,0,0,0,1.51,1.85,8.62,8.62,0,0,0,3,.59A3.49,3.49,0,0,1,75,202.68c1.54,1.82,2.1,1.83,3.28-.25a6.48,6.48,0,0,1,5-3.41c1.53-.21,2.71.25,2.72,2.12-0.66,1.47-2.33.66-3.28,1.47a5.66,5.66,0,0,0-1.2,2.44C80,208.58,75.4,210.16,72.52,208.13Z"/><path class="cls-19" d="M136.72,106.26c-2.64.94-4.87,0.54-6.71-1.76-0.75-.94-1.7-1.23-2,0.52a1.74,1.74,0,0,1-.74,1.23c-2.21.64-3.87,2.61-6.34,2.59-0.51-.75,0-1.24.43-1.76s1.9-.89,1.19-1.86c-0.83-1.14-1.36-2.82-3.28-2.82-1.11,0-2.17.3-3.27,0.3a2.36,2.36,0,0,1-2.28-1.32c-0.59-1.18.37-1.64,1.09-2.21,0.82-1.45,2.44-2,3.57-3.06a1.46,1.46,0,0,0,1.49-.79c1-3.67,4.86-5.22,6.36-8.59,0.79-1.77,2.69-2.88,4.46-3.55,3-1.15,6-2.5,9.26-3,1.23-.19,2.69-1,3.22.68a3.29,3.29,0,0,1-1.66,3.65c-0.91.6-2,1-2.92,1.52-0.34.18-.83,0.4-0.35,0.93a0.9,0.9,0,0,1,.27.9,2.16,2.16,0,0,0-.26,1.17,8.18,8.18,0,0,1-2.32,1.51,8.69,8.69,0,0,0-4.61,5.72,3.11,3.11,0,0,1-.9,1.77c-2.34,1.75-2.25,2.4,0,4.33,1.76,1.53,3.33,3.22,5.91,3.15A0.57,0.57,0,0,1,136.72,106.26Z"/><path class="cls-17" d="M126.52,130.26a2,2,0,0,1-2.77-1.29c-0.58-1.71-1.65-1.87-3.12-1.83a3.48,3.48,0,0,1-3.74-2.75c-0.16-.55-0.06-1.33-1-1-0.69.23-1.6,0.19-1.92,1.06s0.34,1.07,1,1.28c1.56,0.47.19,2.28,1.3,3,2.65,0.26,4.81,2.41,5.62,5.59,0.3,0.68,1.37,1.36.15,2.09-0.93.55-2,1-3,.32a5.07,5.07,0,0,1-1.61-1.6c-1.29-2.41-3.74-2.87-6-3.69-1.61-.59-3.05,0-4.71.38-5.37,1.33-7.68,5.16-9.34,9.8a3,3,0,0,0-.5,1.14c0.72,2.92-1.4,5.49-1,8.36a0.48,0.48,0,0,1-.17-0.18c0.16-4-.06-7.93,1.16-11.87,1.15-3.7,4.09-6.71,3.75-11-0.19-2.47,4.44-6.16,7.38-6.4,2-.17,3.51-2,5.7-1.73,0.37,0.05.4-.64,0.55-1,1-2.63,2.06-2.92,4.56-1.35,1,0.54,1.92,1.12,3,.37,1.06,0.55,2,1.64,1.69,2.57-1.07,3.51,1.8,5.64,2.65,8.44C126.41,129.34,126.85,129.73,126.52,130.26Z"/><path class="cls-20" d="M126.52,130.26c-2-1.92-1.82-5.11-4.13-6.83a0.72,0.72,0,0,1,0-.68c1.62-1.78.3-3.24-.49-4.76a1.06,1.06,0,0,1,0-1.51l2-2c1.23,0.9,3,.43,4.13,1.53,0.85,2.51,3.48,3.06,5.18,4.63,2.32,2.16,3,5.09.84,7.29A7.56,7.56,0,0,1,126.52,130.26Z"/><path class="cls-17" d="M114.81,99.16c-0.19.73-1.4,1.19-.57,2.19a1.86,1.86,0,0,0,2.24.73c3.28-1.4,5.35.37,7.16,2.72,0.7,0.9.14,1.54-.71,2s-2,.7-2,2l-0.5,0a10.58,10.58,0,0,0,.17-2c-0.14-1.33-.56-2.81-2.29-2.07-3,1.25-5.29-.91-8-1.12-1.24-.1-0.92-1-0.19-1.57A22.34,22.34,0,0,1,114.81,99.16Z"/><path class="cls-21" d="M121.8,112.41a3.32,3.32,0,0,1,2.73-3.93c1.9-.49,4-0.84,5.61,1,0.56,0.64,1.22,1.2.93,2.18s-1.24.64-1.91,0.86c-2,1.58-4.1.93-6.21,0.34C122.56,112.74,122,113,121.8,112.41Z"/><path class="cls-15" d="M121.91,116.48l0,1.51c-1.53,3-2.18.56-3-.5-0.08-.67-0.11-1.35-0.25-2-0.18-.83-0.63-1.72.65-2a1.63,1.63,0,0,1,2,1.4C121.49,115.42,121.33,116.08,121.91,116.48Z"/><path class="cls-22" d="M128,116c-1.46-.29-3.45.87-4.13-1.53l0.67-.49a3.46,3.46,0,0,1,4-.07A1.26,1.26,0,0,1,128,116Z"/><path class="cls-15" d="M128.51,113.94l-4,.07L123,112.86l6.2-.34,1.51,0.66A2.6,2.6,0,0,1,128.51,113.94Z"/><path class="cls-15" d="M118.37,111.38c-0.7.07-.63,2-1.76,0.83A1.54,1.54,0,0,1,117,110c1.3-1.19,1.42.23,1.88,0.88A0.6,0.6,0,0,1,118.37,111.38Z"/><path class="cls-17" d="M118.37,111.38l0.51-.52h1l1,1.55C119.48,113.54,119,112.2,118.37,111.38Z"/><path class="cls-17" d="M94.94,154.68c0,1.42.33,2.95-1,4.05C94,157.31,93.62,155.79,94.94,154.68Z"/><path class="cls-23" d="M74.06,182.15c-0.7.13-1.55-.24-2,0.7-1.23,2.64-3.78,3.85-6,5.46a3.7,3.7,0,0,0-.84.55c-3.22,4.46-8.31,3-12.61,4-2.17,0-3.32-1.41-4-3.2-0.53-1.32.45-2.46,1.63-1.79,2.59,1.48,4.27.59,6.11-1.32,0.92-1,2-2.11,3.67-2l0.3,0.22c0.17,1.16.85,1.18,1.61,0.61a89.05,89.05,0,0,0,9.52-7.84,36,36,0,0,0,7.29-10.26c1.54-3.22,3.55-6,2.86-10-0.46-2.65,1.62-4.85,2.5-7.27a16,16,0,0,0,1.15-7.89c-0.27-1.83-1-3.27-3.18-3.22a1,1,0,0,1-1.33-.85,1.69,1.69,0,0,1,.69-1.54c3.6-3.35,3.81-5,1.25-9.39-2.47-4.23-2-4.2.23-8.3,1.28-2.41,2.71-5.66,2.17-8.39-0.85-4.34-3-8.35-7.69-10a1.54,1.54,0,0,0-2.12,1.24,23.55,23.55,0,0,1-1.43,3.49,4.54,4.54,0,0,1-2.74,3c-1.84.74-2.85,2.65-3.44,4.51a12.44,12.44,0,0,1-3.1,5c-0.7.72-2,1.63-1.32,2.73s2.1,0.6,3.22.2c0.52,0.58,1.4.42,1.95,0.93a7.79,7.79,0,0,1-3.5,3c0-1.13-.24-2.39-1.32-2.81-2.28-.88-1.57-2-0.68-3.47s1.87-2.63,1.49-4.39c2.12-1.16,2.55-3.48,3.64-5.34,0.75-1.27,1.48-2.68,2.84-3.14,3-1,3.31-3.55,3.46-6A6.58,6.58,0,0,1,74.72,97c0.52-1.08.59-2.78,2.18-2.81,1.35,0,1.4,1.46,1.84,2.43,0.34,0.75.78,1.7,1.86,1.2a1.79,1.79,0,0,0,1-2.35c-0.22-.63-0.69-1.16-1-1.78a6.51,6.51,0,0,1-.83-2.36,1.6,1.6,0,0,1,2.08-1.59c1.45,0.86,3.77-2.79,4.41.92,0.12,0.68.05,1.49,0.87,1.65s1.32-.63,1.68-1.29c0.68-1.28,1.33-2.33,2.11-.09A1.74,1.74,0,0,0,93,92a17.09,17.09,0,0,0,6.18-1.11c1.15-.49,1.9-0.43,2.5.74,0.87,1.7,2.9,2.22,3.9,3.93a2.75,2.75,0,0,1,0,3.06c-1.59,2.74-6.09,4.58-9,3.37a6.37,6.37,0,0,0-4.32,0c-1.27.3-2.58,0.92-3.88,0a0.81,0.81,0,0,0-1.16,0c-0.43.56,0.16,0.88,0.43,1.27a17.67,17.67,0,0,1,2.61,8.33c0.24,2.36-.78,5.13-1.77,7.22-1.58,3.35-.37,6.11.33,9A18.62,18.62,0,0,0,91,133.69c1.36,2.09-.88,4.11-0.53,6.35,0.21,1.35-.25,2.83.25,4.24a1.73,1.73,0,0,1,.11,1.24c-2.3,3.6-.41,8-2.44,11.85a8.48,8.48,0,0,0-1.1,5.21,2.1,2.1,0,0,1-1.14,2.13c-4.15,2.61-4.41,7.14-5.34,11.21-0.46,2-1.57,3-3.08,3.07C75.42,179.09,74.66,180.38,74.06,182.15Z"/><path class="cls-24" d="M72.2,159.77c-0.43-.13-1.6.37-1.4-0.88,0.17-1-.06-2.54,1.67-2.62,1.18-.06,1.58.66,1.63,1.73C74.16,159.24,73.74,159.94,72.2,159.77Z"/><path class="cls-25" d="M68.41,121.55c-0.82,0-2.15,1.15-1.95-.93,0.64-.25,1-1.28,1.89-0.77S68.74,121,68.41,121.55Z"/><path class="cls-26" d="M57.78,84.86a7.22,7.22,0,0,1,.13-5.46,2.57,2.57,0,0,0,.22-3.8c-2.32-2.91-2.86-6.76-5.16-9.7-0.64-.82-0.34-2.09,1-1.82,4.3,0.86,4.77-2.78,6.35-5.15C62,55.85,65.59,55.07,68,52.81c1.35-1.22,2.22-3,4.33-3.3,1.06-.16.7-1.64,1.48-2.23,5.27-4,9.16-9.48,14.69-13.15,0.91-.6,2.06-1.12,1.8.85-0.11.79,0.13,0.94,0.84,1.16,1.82,0.55,2.06,1.28.69,2.5-3,2.64-5.48,5.77-8.44,8.42a37.24,37.24,0,0,0-5.7,6.44c-1.35,1.93-2.79,3.08-5.31,2.21a3.32,3.32,0,0,0-3.54.69C69,57.2,69.61,56.89,70,57c1.51,0.37,1.93,1.22,1.31,2.63a4.89,4.89,0,0,1-1.73,2.46c-2.57,1.49-3.8,4-5.16,6.41a3.82,3.82,0,0,0-.65,1.9,101.38,101.38,0,0,1-1.91,17.79,21,21,0,0,1-1,3.35,13.25,13.25,0,0,0-3,6.61,6.87,6.87,0,0,1-3.31,4.16c-3.45,1.84-5.43,5-6.76,8.92-1.3-1.52-1.95-3-1.19-4.93,0.2,0.59.59,1.41,1,.28,1.56-4.57,5.48-7.45,7.89-11.4,3-4.94,6.18-9.84,6.43-15.9a1.4,1.4,0,0,0-.64-1.53c-0.44-.23-0.93-0.26-1.1.17-0.28.72-1.33,1.13-.76,2.21C60.39,82.17,60,83.84,57.78,84.86Z"/><path class="cls-27" d="M60.83,91.52c0.81-5.06,1.64-10.12,2.41-15.18a8.68,8.68,0,0,0-.09-2.51,11.9,11.9,0,0,1,2.13-8.37,6.73,6.73,0,0,1,2.47-2.72,5,5,0,0,0,2.54-2.39c0.29-.75,1.23-1.46.72-2.28s-1.42-.73-2.3-0.34a0.72,0.72,0,0,1-1.14-.55,1.63,1.63,0,0,1,.91-1.69,5.29,5.29,0,0,1,4.66-.29,2.18,2.18,0,0,0,3.08-.81c4.21-6.17,9.8-11,15.15-16.1a5.51,5.51,0,0,0,.78-1,1.06,1.06,0,0,0,0-.5c-0.92-.74-2.19,1-3-0.37-0.61-1,.78-1.36.92-2.64-3.56,2.48-7,4.65-9.5,7.83a22.4,22.4,0,0,1-4.44,4.08c-1.21.9-3,1.59-2.3,3.72,0.12,0.39-.14.81-0.45,0.73-2.57-.65-3.45,2.12-5.43,2.63a9,9,0,0,1,4-4.93,32.2,32.2,0,0,0,5.91-4.74C83.32,38,88.69,32.68,94.1,27.45A11.34,11.34,0,0,1,95,26.56c0.78-.6,1.74-1.7,2.6-0.91s-0.21,1.8-.76,2.6S95.61,30,94.86,31c3-.51,3.11-0.39,2.32,2.14a1.12,1.12,0,0,0,.06,1.2c1.91,1.66.81,2.7-.68,3.7A2.7,2.7,0,0,0,95.44,40c-0.46,2.84-3,4.59-3.69,7.37-0.22.94-1.21,1.48-2.45,0.71s-4.94,1-5,2.28c-0.07,3.41-3,5-4.15,8-1-1.3.28-3.25-1.11-3.53-0.75-.15-1.91,1.4-2.8,2.27-1.92,1.88-3.17,4.29-4.72,6.37-2.37,3.2-3.6,5.68-.27,8.84-1.95.6-1.72-1.51-3.57-1.31-2.68.28-2.87,1.74-3.46,3.53C63,78.11,63.93,82,62.88,85.67,62.31,87.66,62.48,89.91,60.83,91.52Z"/><path class="cls-28" d="M117.62,56.89c-0.39,1,.37,1.39.88,1.9q2.31,2.31,4.67,4.57A3.76,3.76,0,0,1,124.24,67c-1,5.19-4.22,9.26-6.94,13.58a8.37,8.37,0,0,1-4.24,3.05c-2.07.82-5.71-2.54-5.14-4.7a8.68,8.68,0,0,0,.17-4.76c-0.9-2.73.33-5,1-7.32a2.57,2.57,0,0,1,1.48-2c2.72-.87,2.95-3.69,4.43-5.53a0.84,0.84,0,0,0-.41-1.27c-1.48-1-.34-1.89,0-2.83s1.16-.63,1.89-0.44C117.64,55.12,118.06,55.76,117.62,56.89Z"/><path class="cls-6" d="M120.41,82.86l1.53-.5c-0.51,2.28-3.22,2.61-4.06,4.58v-1C118,84.27,119.68,84,120.41,82.86Z"/><path class="cls-29" d="M121.41,41.1c1.33-2,2.38-4.53,5.59-2.88a0.59,0.59,0,0,0,.83-0.36c0.67-2.24,2.4-2.92,4.33-4a16.17,16.17,0,0,0,6.25-5.73c0.42-.74.51-0.68,1.35-0.22,0.67,1.55-.43,2.52-1.26,3.5a35.14,35.14,0,0,1-3.06,3.34c-2.26,2.06-2.13,4.79-2.49,7.41-0.17,1.26.71,0.8,1.3,0.84,2.61,1.76,5.11.71,7.6-.32a3.87,3.87,0,0,1,3.3,1.51c2.78,2.81,3.63,2.88,6.87.72,2.29-1.52,4.21-1,5,1.56,0.39,1.24,1.15,1.23,2.12,1.22,1.3,0,2.62,0,2.83,1.78-0.55,1.46-1.54,2.82-.62,4.54,0.39,0.74-.25,1.45-0.78,2a41.59,41.59,0,0,1-4,3.85c-3.66,2.91-3.76,3.48-1.32,7.11a4.09,4.09,0,0,1-.89,2c-1,1.33-2.15,1.4-3.23.31-2.06-2.08-4.58-3.73-5.57-6.79-0.66-2.05-2.95-2.32-5.08-.66A4.35,4.35,0,0,1,137,62.9c-1.24-.19-2.44-0.59-2.6-2s1-2.21,2.23-2.72a4.11,4.11,0,0,1,2.26,0,3.54,3.54,0,0,0,4.09-2.27,14.4,14.4,0,0,1,3.75-5.18,7.79,7.79,0,0,1-5.82.19c-1.17-.42-1.66.52-2,1.41C138.1,54,137,55.23,135,55s-2.86-1.74-3.38-3.39A13.58,13.58,0,0,0,125.76,44c-0.92,1.15,1.28,2.72-.81,3.36C121.92,45.79,120.78,43.76,121.41,41.1Z"/><path class="cls-30" d="M134.14,43.14c-0.6.25-.6,1.49-1.44,1.13s-0.51-1.31-.51-2.06c0-4.73,2.38-8.17,5.75-11.13a6.94,6.94,0,0,0,1.82-3.2l0.45-.06a1.78,1.78,0,0,0,1,0c2.84-1.85,5.7-.37,8.54-0.08a2,2,0,0,1,1.21.33c2.59,2.54,6.42,2.48,9.27,4.45a5.41,5.41,0,0,0,2.6.85c0.92,0.16,1.84.4,2.12,1.5-0.2,1.18-1.14,1.06-2,1.08a26.1,26.1,0,0,1-10.68-1.73,6,6,0,0,0-4.33-.18,28.65,28.65,0,0,1-6.12,1.16c-3.84.2-5.07,2.87-6.4,5.61C135.05,41.66,135.25,42.76,134.14,43.14Z"/><path class="cls-6" d="M121.41,41.1c0.06,2.71,1.77,4.46,3.6,6.13,1.08,1.45.36,3.11,0.45,4.66,0.08,1.2.11,2.11,1.49,2.5s2,1.53,2.71,2.55a3.63,3.63,0,0,1,.54,1.92c0,0.93.05,2-1,2.36S127.54,60.74,127,60c-3.18-2.68-6-5.79-9.35-8.25a4.26,4.26,0,0,1-.77-0.65c-1.83-2.17-.51-9.82,2-11.47C119.63,40.25,120.15,41.28,121.41,41.1Z"/><path class="cls-31" d="M160.11,33c-2.82-1.51-6.42-1.28-8.74-3.91a2.48,2.48,0,0,0-2.09-.69,5.33,5.33,0,0,1-3.35-.74,2.66,2.66,0,0,0-3.25.58c-0.86.77-1.91,1.42-2.47-.37,0.39-2.15,2.13-3.44,3.41-4.94s5.62-.1,6.41,1.79a2.39,2.39,0,0,0,1,1.38c2.6,0.53,4.39,2.55,6.81,3.51,3.5,1.39,7.34,1.74,10.62,3.7,1.09,0.65,2,1.3,1.87,2.72-1,.77-1.9,0-2.77-0.39C165.12,34.6,162.83,33.19,160.11,33Z"/><path class="cls-32" d="M160.11,33c3-.89,5.09,1.48,7.68,2.07a18.19,18.19,0,0,1,2.54,1l0.11,0.54a1.45,1.45,0,0,0,.53,1.74c1.5,0.73,1.47,2,1.38,3.33a5,5,0,0,1-.73,2.12c-0.7,1-1.57,1.93-2.88,1.61s-1.17-1.58-1.1-2.53c0.16-2.15-1.78-3.62-1.73-5.7a6.64,6.64,0,0,0-1.2-2.11,2.81,2.81,0,0,0-2.47-1A2,2,0,0,1,160.11,33Z"/><path class="cls-33" d="M138.37,88.56c-0.34-.14-0.55-0.31-0.14-0.61a7.11,7.11,0,0,1,6.57-.48,8.23,8.23,0,0,0,2.95.75,6.93,6.93,0,0,1,5,2.17,4.9,4.9,0,0,0,6,1.09C162.24,90,166.18,90,169.87,89a5.44,5.44,0,0,0,3.71-2.39c1.1-1.89,2.85-3.39,3.41-5.62,0.23-.92.65-1.89-0.25-2.59-1.53-1.18-1.11-2.54-.79-4.11,0.59-3,.36-6,1.51-9,0.71-1.82-1.1-2.26-2.52-2.15a29.63,29.63,0,0,1-8.84-.57,4.21,4.21,0,0,1-1.21-.38,0.71,0.71,0,0,1-.32-0.68c1.38-1.15,2.55-2.74,4.73-2.16a7.53,7.53,0,0,0,7.42.88,16.11,16.11,0,0,1,2.43-.66c2.73-.58,4.29.77,4.44,3.56,0.17,3.19-1.07,6.5.86,9.59,0.33,0.53-.21,1.6-0.34,2.42a2.09,2.09,0,0,1,.2,2.6c-2,3.51-2.39,8-6.18,10.54-1.05.71-1.26,2.35-2.12,3.42s-1.85,1.58-3.07.79c-1.88-1.22-3.83-1-5.84-.54-1.55.84-3.33,0.52-5,.95-0.41.11-.84,0.14-1.24,0.28-1.33.49-3.21,0.83-3.36,2.28s1.89,1.57,3,2.27a19,19,0,0,0,5.37,1.28,16.66,16.66,0,0,1,3.68.85c2.13,0.89,3.5,2.77,3.37,4.58-0.16,2.2-1.81,2.85-3.55,3.4l-1,.29a2.1,2.1,0,0,1-1.54-.16c-0.66-.93.24-1.34,0.65-1.9,1.25-1.73,1.08-2.76-.65-4a5.4,5.4,0,0,0-2.33-.94,41.25,41.25,0,0,1-8-2.2c-2.48-.92-3.51-0.14-3.87,2.55a19.65,19.65,0,0,0,.55,2.82c-1.53,2.59-1.91,2.64-3.75.53a3,3,0,0,1-.58-4.11,23,23,0,0,1,1.61-2.86c2.43-3.29,1.5-5.9-2.51-6.58-2.75-.46-5.2-2-8.07-2A2,2,0,0,1,138.37,88.56Z"/><path class="cls-34" d="M169.29,59.42c-1.75.12-2.75,1.89-4.48,2-2.55,2.21-5.89,3.21-8.4,5.49a1.15,1.15,0,0,1-1.41.1c-3.14-2.57-3.19-3.77-.18-6.61,1.16-1.09,2.48-2,3.6-3.14,1.29-1.3,3.43-2.25,1.83-4.86-0.5-.81.38-2.07,1.4-2.7,1.21-.76,1.77-2.16,2.95-2.95,2.16-.81,1.45-3,0.88-3.74-2.17-2.65,0-4.44.77-6.53,0.56,2.46,2.67,4.44,2.08,7.28-0.27,1.3.54,1.25,1.55,0.86,1.45-.56,1.18-2.42,2.47-3h0.52c0,1.18-.13,2.38.93,3.27a2.32,2.32,0,0,1,.51.85c0.95,2.14-1.7,3.69-.82,6s-0.76,3.76-2.59,4.87C169.84,57.28,169.85,58.51,169.29,59.42Z"/><path class="cls-35" d="M166.76,91.49c2.19-.67,4.36-1.09,6.37.52a1.31,1.31,0,0,0,2.26-.46,18.69,18.69,0,0,1,4.82-6.25,5.3,5.3,0,0,0,1.61-3.59c0.29-2.34,2.68-3.92,2.28-6.49,2.72-1.66,3.18-4.83,4.8-7.24,0.6-.89-0.06-1.38-1-1.4a1.55,1.55,0,0,1-1.76-1.68,1.47,1.47,0,0,1,1.32-1.85c1.54-.44.32-1.75-0.14-2.78,1.15-.34,1.88.78,2.87,0.68a2.44,2.44,0,0,1-.12.74c-1.24,2.39-1.86,4.41,1.06,6.38,1.09,0.73,1.12,3,1.64,4.63-1,4.13-1.6,8.35-5,11.43a53.94,53.94,0,0,1-7.15,5.16,11.77,11.77,0,0,0-2.22,4.42,2.91,2.91,0,0,1-.63.91A8.23,8.23,0,0,0,176.63,96c-1,1.21-2.11,1.18-2.3-.34-0.28-2.15-1.86-2.33-3.29-2.92S168,92.55,166.76,91.49Z"/><path class="cls-35" d="M175.43,56.91c2.75,0.15,5.27-1,7.92-1.38,2.23-.34,4.43-0.49,5.8,1.87-2.44,1.38-5,.64-7.45.19a5.72,5.72,0,0,0-3.63.58C176.52,58.91,175.69,58.63,175.43,56.91Z"/><path class="cls-36" d="M184,40c-0.13-1.51.31-2.37,1.75-2.41,1.71-.06,2.19,1.17,2.26,2.47a2.49,2.49,0,0,1-2.28,2.87C184,42.87,184.28,41,184,40Z"/><path class="cls-6" d="M104.62,86.43c-1-1.91-3.25-2.62-4.39-4.48-0.71-1.16-1.7-.11-2.43.28-1.75.95-2.52,0.58-2.35-1.47,0-.59,0-1.19,0-1.78a1.42,1.42,0,0,0-.74-1.5,1.52,1.52,0,0,0-1.58.57c-0.46.43-.69,1.36-1.55,1s-0.65-1.45-.71-2.27A5.1,5.1,0,0,0,92,76.31c2.16-1.5,3.29-1.15,3.91,1.35,0.43,1.73.61,3.53,3.08,1.77a1.35,1.35,0,0,1,1.95.65c0.48,2.31,2.47,3.52,3.56,5.35A2.47,2.47,0,0,1,104.62,86.43Z"/><path class="cls-37" d="M50.64,129.23q0,0.73,0,1.47c-2.11.32-2-1.14-2-2.5C49.41,128.33,49.24,130.3,50.64,129.23Z"/><path class="cls-38" d="M36.91,187.25c1.34-.64,3.2-0.64,3.18-2.87,0-.5,7.34-1.09,7.68-0.63a2.14,2.14,0,0,1,0,2.16c-0.18.5-.23,1,0.45,1.21a0.68,0.68,0,0,0,.85-0.69c0.29-2,1.43-1.83,3-1.33,1.7,0.56,3.11-.8,4.68-1,1.15-.17,2.88-2.15,3.58.62-2,1.22-4.13,2.16-5.45,4.27-1.12,1.79-2.35,0-3.53-.1-0.75-.07-1.4-1.37-2.19-0.4s0.42,1.47.78,2.15a4.68,4.68,0,0,0,2.77,2.23,6,6,0,0,1-5.24-1.73,8.28,8.28,0,0,0-4.84-2.16A15.28,15.28,0,0,1,36.91,187.25Z"/><path class="cls-39" d="M110.19,177.56c2.33,3,2.27,3.29-1,4.6-0.61-2.31-2.4-.57-3.55-1,0.31-.53,1.26-0.78.89-1.6-0.77-1.68.24-2.8,1.13-4C108.69,176,109.3,177,110.19,177.56Z"/><path class="cls-39" d="M136.21,172c-0.57-.5-1.17-1-1.69-1.51-2-2.1-4-2-5.85.33-0.61.77-.84,1.76-1.8,0.06-1.56-2.77-5.74-3.79-8.64-2.28-2.23,1.16-4.32,2.6-6.48,3.91a1.42,1.42,0,0,1-2,0c1.14-2,3.46-2.63,5.09-4.06,1.52-1.87,3.92-1.65,5.9-2.4,2.53-1,2.77-1.29,1.34-3.56-0.49-.78-1.38-1.24-1.63-2.19,0.86-2.64.43-3.36-2.18-4.12a5.87,5.87,0,0,1-2.4-1.33c-1.54-1.51-3.1-2.84-5.42-2.92A1.88,1.88,0,0,1,109,151c-0.64-1.84-2-3.24-2.83-4.93,0.66-2.15,1.83-3.1,4.16-2.05a7.25,7.25,0,0,0,4.13.09c1.37-.21,2.87.19,3.29-1.86,0.12-.61,1.2-0.94,2-0.68s0.28,1,.24,1.48a1.07,1.07,0,0,0,.89,1.33c2.69-.29,4.16,2.2,6.38,2.71,2.56,0.58,3.38,2.4,4.62,4.3,2.09,3.2,1.57,6.11.16,9.26-0.46,1-1.5,2.77,1.13,2.73,0.94-.19,1.08.62,1.41,1.15,2.38,3.88,4,4.07,7.28.85,0.56,0.5.58,2.09,1.92,1,1-.75,3.52.1,2.61-2.55a3.09,3.09,0,0,1,1.45-.44,2,2,0,0,1,2.19.92c0.49,0.95-.52,1.27-0.84,2.14,2.33-1.54,4.62-.65,7-0.33a31.45,31.45,0,0,0,8.86-.49,4.83,4.83,0,0,1,2.76,0,2.12,2.12,0,0,0,3.16-.07,5.26,5.26,0,0,1,3.45-1.41c2.2-.05,3.36,1.22,3.38,3.42,0.08,7.78-2.43,7.63-9.48,7.93-2.56.11-5.26-.16-7.46-1.92a1.58,1.58,0,0,0-1.23-.05,33.57,33.57,0,0,1-4.16.32c-1.57-.53-3.07-1-4.16.92-0.6,1-1.72.88-2.68,0.79-0.37-.18-0.25.4-0.21,0.06,0-.09.09-0.07,0.25,0,0.91,0.34,1.78.79,1.62,1.94a2,2,0,0,1-2.06,1.55,3.55,3.55,0,0,0-2.71,1.11,0.52,0.52,0,0,1-.23,0,5.3,5.3,0,0,0-5.57-2.09c-0.68-2.26,1.9-1.72,2.5-2.92-0.55-.54-0.9.18-1.35,0.25a2.78,2.78,0,0,1-2.43-.31c-0.93-.83.24-1.47,0.45-2.17C138,172.33,136.85,172.81,136.21,172Z"/><path class="cls-40" d="M167.83,165.89a53.91,53.91,0,0,1-11.29,1,4.61,4.61,0,0,1-2.22-.24,2.58,2.58,0,0,0-3.79.29,1.57,1.57,0,0,1-2.6-.43c-0.62-1.2.6-1,1.25-1.19a0.57,0.57,0,0,0,.55-0.68,0.93,0.93,0,0,0-.93-0.73c-0.81,0-1.63.55-2.41-.08-0.05-1.92.11-3.78-3-3.24-1.18.21-1.93-1.43-2.48-2.6-0.31-.65,0-1.59-0.79-2-1.14-.14-0.57,1.85-1.74,1.37-0.93-.39-0.69-1.45-0.7-2.27,0-2-.73-3.81.35-5.88,0.76-1.45-.54-3.22-1.33-4.71-0.65-1.21-.82-2.1.94-2.23,1.77-1,2.45-2.29,1.69-4.37-1.7-4.66-.92-6.28,3.75-7.64,1.88-.54,3.35-1,4-3.22,0.51-1.67,2.62-1.94,5.34-1.12a1,1,0,0,1-.06,1.42,3.3,3.3,0,0,0-2,3.36c0.08,1.84-1.22,3.46-2.09,5.08a1.28,1.28,0,0,1-2.16.3c-1.29-1.18-1.72-.07-1.77.86-0.2,3.21-.25,4.41,3.13,4.9a6.1,6.1,0,0,1,1.46.43c4,1.66,4.14,2.61.81,5.21a3.72,3.72,0,0,0-1.27,1.85,2.45,2.45,0,0,1-1.05,1.38c-2,1.21-2,2-.35,3.52a11.57,11.57,0,0,0,3.13,1.66c3.8,1.81,4.24,2.83,2.9,6.69,4.57,0.6,8.29-1.74,12-3.66a11.69,11.69,0,0,1,6.31-1.36c2.49,0.79,2.58,1,1.56,3.26a3.87,3.87,0,0,0-.42,1.17C172.22,165.41,171.35,166.11,167.83,165.89Z"/><path class="cls-41" d="M152.55,126.15c-1,0-2,0-3.05.05-1.22.07-2.23,0.51-2.1,2s-0.83,2-2.08,2.33a12.7,12.7,0,0,0-3.61,1.09c-2.77,1.6-3.47,3.48-1.6,6.16,1,1.49.27,2.6-.06,3.8s-1.45.91-2.38,0.76c-1.08-.48-1.87-0.88-0.9-2.34s-0.45-3-.81-4.45c-0.15-.61-0.82-1.06-0.79-1.79a3.4,3.4,0,0,1,2.76-3.47c1.44-.36,2.69-1.58,4.34-1.08,0.64-4.35,3.84-4.61,7.25-4.57a3,3,0,0,0,1.5-.13c2.22-1.43,3.13.05,4,1.69a0.76,0.76,0,0,1-.48,1.28C153.46,127.75,153,127,152.55,126.15Z"/><path class="cls-42" d="M142.27,129.18c-2.43,1.42-5.84,1.31-7.1,4.55-4.43-.16-8.75,2.11-13.23.57-2-1.74-2.64-4.84-5.62-5.59,0-1.87.35-2.76,2.23-1.15a10.7,10.7,0,0,1,3.17,3.47c1.29,2.69,5,3.16,7.34,1.08,0.91-.8,1.67-1.16,2.66-0.45,1.71,1.22,2.58.36,3.34-1.16,1.2-2.4,3.78-2.09,5.82-2.75C141.69,127.49,142.26,128.26,142.27,129.18Z"/><path class="cls-43" d="M141.85,165.35c0.05,2.6-2.3,2.52-3.75,2.9-1.92.51-2.81-1.46-3.78-2.76-0.47-.63-0.43-1.61-1.17-2.15,0.2-3.23,2.55-4.68,5.37-3.13C140.48,161.28,142.19,162.7,141.85,165.35Z"/><path class="cls-44" d="M129.39,146c-1.31.13-1.91-.52-1.79-1.59s1-1.57,2.16-1.58,1.37,0.6,1.4,1.57C131.2,145.79,130.5,146.18,129.39,146Z"/><path class="cls-45" d="M164.79,62a72.13,72.13,0,0,0,11.27.55c2-.09,3.08,1.52,2.16,3.25a13.9,13.9,0,0,0-1.28,7.37,4.25,4.25,0,0,1-.57,2.18c-0.57,1.06-.61,1.91.73,2.42s1.14,1.42.87,2.66c-0.62,3-2.88,4.87-4.27,7.32-0.76,1.32-2.43,1.63-4.06,2-3.86,1-8,.78-11.59,2.67a3.45,3.45,0,0,1-4.21-.34c-4.54-4-9.89-4.71-15.6-4.17v-1c2.34-.25,4.47-1.31,6.75-1.84,2.77-.65,5.31-0.12,7.91.1,1.78,0.15,3.54.15,5.3,0.18a1,1,0,0,0,1.15-.78c0.09-.74-0.61-0.61-1.06-0.75s-0.78-.32-1.18-0.45c-2.49-.83-4.93-1.51-3.19-5.17,0.7-1.47-1-2.77-1.67-4.07-0.41-.8-1-0.43-1.18.57a1.66,1.66,0,0,1-2,1.44c-1.08-.21-1.16-1.09-1.15-2a3.52,3.52,0,0,0-2.41-3.5,17.41,17.41,0,0,1-3.69-2.2c-1.4-1.08-3-1.87-4.94-1.07a3.58,3.58,0,0,1-3.61-.6,6.53,6.53,0,0,0-2.53-1.13c-3.3-.84-3.67-1.28-3.7-4.72,0-.34,0-0.68,0-1,0.74,0.23,1.45,1.54,2.14.72,0.91-1.08.5-2.52-.1-3.77,1.48-.56,1.76.6,2,1.54,0.43,1.77,0,3.85,1.83,5.07,2.22,1.52,4.88,2,7.44,2.28a16.87,16.87,0,0,1,8.5,3.48,17.78,17.78,0,0,0,4.21,2.3,14,14,0,0,0,6.46,2c2.17,0.23,3.89-1.51,5.46-3,0.35-.32.37-1,0.73-1.31,1.12-1.08,1.57-1.79-.17-3C164.18,65.42,164.09,63.61,164.79,62Z"/><path class="cls-45" d="M135.41,69.32A2.68,2.68,0,0,1,133.73,71c-0.73.26-1.09-.24-1.05-0.95a1.74,1.74,0,0,1,1.45-1.78A1.33,1.33,0,0,1,135.41,69.32Z"/><path class="cls-41" d="M150.12,104.77c1.65,2.83,2-.2,2.87-0.65a0.58,0.58,0,0,1,.62-0.63c0.82,0.25,1.67.67,2.18-.49,2.18-.13,2.92,2.49,4.73,2.46-2.29-2-5.36-3-8.5-3.77,0-3.39,1.65-4.53,4.76-3.22a36.49,36.49,0,0,0,8.25,2.19,5.45,5.45,0,0,1,3.08,1.63c1.63,1.64,1.58,3-.2,4.45l-1.14,1c-2,2-2,2,.19,5.11,0,0.68.2,1.34,0.21,2,0.05,3.26,2,5.05,5.31,4.85,1.49-.09,2.91-0.27,3.63,1.46,0.12,0.6-.57,1-0.36,1.8a7.65,7.65,0,0,1,5.49,1.9c1.66,1.49,1.6,2.87-.33,4a3.66,3.66,0,0,0-2,2.7,7.93,7.93,0,0,1-1.84,3.26,1,1,0,0,1-1.06,0c-2.27-1.06-4.12-2.94-6.76-3.32a2.09,2.09,0,0,1-1.37-1.42,2,2,0,0,0-2.34-1.45,1.36,1.36,0,0,1-1.42-.33c-1.23-2.27-3.28-1.56-5.16-1.52-1-.22-2.13-0.26-2.92-1.12-0.58-2.57-1.58-4.6-4.45-5.56-1.37-.46-1.66-0.31-2.24.79-1.52,2.87-7.09,4.07-9.39,2.06-1.1-1-1.73-2.06-.52-3.47,0.7-.82,1.18-1.83,1.82-2.7,1.73-2.36.53-3.88-1.51-5.05-1.09-.62-1-1.1-0.23-1.91s2-1.26,1.52-2.38-1.82-.36-2.74-0.6a7.43,7.43,0,0,1-1.11-.49c1.72-1,3.67-1,5.56-1.09,1.45-.07,2.15.78,1.86,2.28a5.2,5.2,0,0,0-.14,2c0.26,0.68-.54,1.23-0.25,1.92,2.79-.32,4.26-2,4.47-5a1.74,1.74,0,0,1,0-.7A1.48,1.48,0,0,1,150.12,104.77Z"/><path class="cls-46" d="M144.35,109.86c-1.64-.34-0.86-1.32-0.47-2.07,0.88-1.7.07-2.12-1.44-2-1.73.16-3.43,0.68-5.2,0.48l-0.51,0a2.41,2.41,0,0,0-2.15-.45,2.91,2.91,0,0,1-3.07-1.73,2.27,2.27,0,0,0-1.48-1.29c-1.68-.39-2-1.84-2.1-3.11s1.29-1.54,2.26-2c0.74,0.93.92,2.14,1.64,3.12,2.85,3.87,5,4.6,9.61,3.11a23.13,23.13,0,0,1,5.27-.72c1.51-.12,1.73,1.56,2.22,2.68q0,0.18,0,.36c-0.86,1.14-2.18,1.84-2.87,3.17A1,1,0,0,1,144.35,109.86Z"/><path class="cls-47" d="M156.08,125.62l3,0.58c1.82,3.78,1.26,6.1-1.87,7.66a4.93,4.93,0,0,1-6.45-1.73c-1.16-1.77-.8-3.3,1.15-4.92a1.26,1.26,0,0,0,.62-1.07c0.83,0.23,1.64,2.11,2.48,0Z"/><path class="cls-48" d="M148.92,105.89c-1.49-3.09-4.2-1.46-6.44-1.64a1.5,1.5,0,0,0-1,.09c-1.72,1.8-3.59.51-5.44,0.58-3.8.14-3.81-3.2-5.65-4.77-0.63-.54-0.18-1.62-0.24-2.45,0.77-4.81,3.86-7.53,8.2-9.13a33,33,0,0,1,11.93,2.93c2.84,1.22,3.24,4.22,1,6.39-1.29,1.27-1.6,2.92-2.47,4.33-1,1.56,1.43,1.42,1.25,2.56Z"/><path class="cls-49" d="M124.62,122.6a13,13,0,0,0,2.84-1.21c1.63-1.33,2.83-.3,4.1.53,1,0.69,1.77,1.41,1.3,2.92s-0.31,3.35-2.58,3.84c-2.86.61-3,.65-2.88-2.32C127.5,124.5,126.65,123.43,124.62,122.6Z"/><path class="cls-1" d="M96.84,94.85c-0.49,1-.87,2.1-2.18,2.18a0.87,0.87,0,0,1-1-1.09A3.29,3.29,0,0,1,96,93.89C96.71,93.74,96.86,94.28,96.84,94.85Z"/><path class="cls-50" d="M176,121.11a3.42,3.42,0,0,0-3.45-.76c-1.75.61-3.14-.74-4.66-1.36-2-.82-2.06-2.36-1.22-3.92,0.48-.89-1.6-1.53,0-2.25,2-.85,4.2-1.56,5-4,1.21-1,2.6-.7,4-0.57a16.1,16.1,0,0,1,5.4,6.27,1.25,1.25,0,0,1-.75,1.34l-0.37.51c-0.59,1.33.41,2.18,1,3.17,1.08,0.9,2.5,1,3.72,1.61a4.72,4.72,0,0,0,.08,1.23c2.05,2.62,1.11,5.61,1,8.44-0.07,1.68,1.09,3,1,4.57-1.43.49-2-.48-2.44-1.51a3.14,3.14,0,0,1-.24-1.48C184.27,126.57,180.66,123.48,176,121.11Z"/><path class="cls-51" d="M186.61,135.3c-2.38-2.31-1.7-5.26-1.32-7.95,0.2-1.4.19-2.35-.73-3.37s-1.65-1.9,0-2.8c1.77-.34,3.07,1.82,4.94.95-2.84,2.72-2.27,6.43-2.83,9.81a1.36,1.36,0,0,0,.51,1.09c2.81,1.89,3.09,5,4,7.86-1.16.31-2.05-.38-3-0.79C187.31,138.61,187.82,136.68,186.61,135.3Z"/><path class="cls-52" d="M177.54,94.11l0.46-.48c0.5-.95,1.11-1.38,2-0.41-1.85,1.51-2.3,3.85-3.38,5.81a2.3,2.3,0,0,0-.12,1.95c2.14,3.31,1.06,7.82,4.08,10.78a3.22,3.22,0,0,1,.46,1.13l-0.37.14c-1.91-.58-2.74-2.07-3.3-3.83-0.77-2.4-1.22-4.9-2.46-7.13a3.94,3.94,0,0,1,.32-4.09A29.66,29.66,0,0,1,177.54,94.11Z"/><path class="cls-53" d="M192.11,81.73c0-3.39-.12-6.86,3.16-9.14,1.78,0.52.61,1.59,0.18,2.08a15,15,0,0,0-1.77,3.05c-0.29,1.42.05,2.94-.79,4.26C192.29,82.94,192.27,82.15,192.11,81.73Z"/><path class="cls-52" d="M180.88,119.56c-1.85-.59-2.94-1.42-1-3.17,1.23,1.61,3.48,1.78,5.05,3.22C183.38,120.62,182.17,119.26,180.88,119.56Z"/><path class="cls-54" d="M180,93.22a2,2,0,0,0-2,.41c-0.1-1.88,1-3.22,2-4.62h2.09c-0.48.62-2,.67-0.83,2.16C182.15,92.29,181,92.86,180,93.22Z"/><path class="cls-52" d="M180.3,115.88l0.22-1.46c0.48-.39,0-1.07.43-1.47l0.08-.06c0.64,0.48,1.6.86,1.24,1.86A1.7,1.7,0,0,1,180.3,115.88Z"/><path class="cls-55" d="M153,72.16a16.83,16.83,0,0,1-5.27-2.85c-2-1.39-4.17-2.71-6.72-2.72s-4.54-1-6.76-1.57c-2.58-.68-3.8-2.58-3.68-5.33,0.05-1.16.08-2.45-1.5-2.79-1.12-.88-1.76-2.43-3.65-2.23-0.66.07-.89-0.78-0.82-1.56,0.19-2,.28-3.92.4-5.89,0.84-.72.4-1.36-0.17-1.93s-0.81-1.12-.2-1.74a1.36,1.36,0,0,1,2,.05c2.34,2.1,4.58,4.28,5.43,7.47,0.42,1.59,1,3.27,2.84,3.45s2.94-1.19,3.47-3c0.41-1.4,1.2-2.17,2.84-1.31s3.18,1,4.65-.41a1,1,0,0,1,1.74.07,1.17,1.17,0,0,1-.67,1.84c-1.8.86-2.63,2.53-3.39,4.21-1.16,2.56-2.47,3.31-5.12,2.82-0.08,0-.16-0.06-0.24-0.09-1.58-.45-2.62.38-3.36,1.59a1.11,1.11,0,0,0,.72,1.63c1.3,0.48,2.71,1.08,4-.07,3.21-3,5.42-2.32,7,1.51,1.05,2.58,3.59,4.19,5.66,6,0.83,0.74,1.27-.42,1.86-0.77,1.14,0.11.78,0.85,0.42,1.31A15.5,15.5,0,0,0,153,72.16Z"/><path class="cls-56" d="M166.25,36.52a1.33,1.33,0,0,0,0,.5c0.77,1.79-2.32,3.22-1.15,4.14,1.72,1.35.87,2.83,1.29,4.19,0.54,1.74-.47,1.84-1.69,1.85a0.87,0.87,0,0,1-.29-0.67c0.06-1.38,1.51-3.06-.57-4-2.84-1.29-5.2-3.86-9.07-1.78a11.49,11.49,0,0,1-9.67.93c-2-.81-2.2,1-3.3,1.45-2.55,1.28-5.11,2.93-7.67,0a13.75,13.75,0,0,1,3-6.48c1.08-1.33,2.31-2.24,4.05-1.92a2.79,2.79,0,0,0,1.91-.39c1.14-.58,2.24-1.26,3.58-0.53a0.84,0.84,0,0,0,.72,0c2.23-2.52,4.26-.3,6.36.25,3.6,0.95,7.22,1.72,11,.9A1.45,1.45,0,0,1,166.25,36.52Z"/><path class="cls-57" d="M141.81,43.13a11,11,0,0,1,.75-1.87c0.53-.85,1.2-1.52,2.21-0.49,1.24,1.28,2.65,1.18,4.2.61a5.36,5.36,0,0,1,3.21-.33,1.86,1.86,0,0,0,1.92-.35c2.26-2.6,4.8-1.46,7.19-.42,1.12,0.48,2.09,1.36,3.28,1.81s1.33,1.63,1,2.76c-0.22.81-.58,1.58-0.88,2.36-1,.83-1,2.93-3.06,2.54-0.33-2.08-1.92-1.63-3.14-1.35-1.42.32-2.25-.09-2.21-1.44,0-.86.44-1.74-0.63-2.11a3.41,3.41,0,0,0-3.35.52c-3.28,2.58-5,2.49-7.57-.63A3.53,3.53,0,0,0,141.81,43.13Z"/><path class="cls-58" d="M153,72.16a1.24,1.24,0,0,1,.53-2.05c0.58-.29,1.31-0.68.5-1.5l1-1.55c2.35-1.5,4.68-3,7.07-4.47a5.85,5.85,0,0,1,2.75-1.11c0,0.18,0,.36,0,0.54,0.67,1.75-.32,4.4,2.93,4.77,1,0.12.44,1.27-.25,1.7A3.16,3.16,0,0,0,165.66,71a1.71,1.71,0,0,1-1.37,1.35,4.37,4.37,0,0,0-1.44.41C159.3,76.46,156.23,73.15,153,72.16Z"/><path class="cls-59" d="M181,113a1.6,1.6,0,0,1-.43,1.47l-4.61-5.59c-1-.32-2.1-0.32-1.61-2.06,1.11-4-.22-6.27-4.14-7.76a1.21,1.21,0,0,1-.41-0.3c-0.14-1,.83-1.17,1.31-1.69a2.12,2.12,0,0,0,.83-2,1.91,1.91,0,0,0-2-1.26,21.69,21.69,0,0,0-10.32,2.09c0.57,1.2,1.65,1,2.47,1.29s1.95,0.31,1.53,1.71c-1.25.28-2.34-.3-3.46-0.65-1.32-.71-3.63-0.63-3.44-2.68s2.42-2.28,4-2.91c1.94-.79,4.18-0.17,6.12-1.12a14.52,14.52,0,0,1,5.66,1.06c1.3,0.53,3.16.61,2.3,2.9a1,1,0,0,0,.46.83c0.52,0.31.7-.2,0.91-0.54,0.39-.62.55-1.45,1.45-1.63a1.32,1.32,0,0,1-.13.48c-3.16,4-1.92,8.05-.18,12.08a6.18,6.18,0,0,1,.68,2.36C177.95,111.07,179.28,112.16,181,113Z"/><path class="cls-35" d="M160.1,98.2l3.58,0.4a6.11,6.11,0,0,1,6.14,0c4.13,0.21,7,4.41,5.23,8-0.78,1.58.24,1.6,0.85,2.18-1.4.25-2.95-.55-4.21,0.62a5.51,5.51,0,0,1-3.37-1.78,9,9,0,0,1,.89-0.41c1.59-.54,3.42-0.89,3.13-3.21s-1.88-3.32-3.83-3.81-4.1-.76-6.17-1.07A3.67,3.67,0,0,1,160.1,98.2Z"/><path class="cls-60" d="M168.33,107.69a4.89,4.89,0,0,1,3.37,1.78c-0.45,2.59-1.59,3.35-5,3.36a3.62,3.62,0,0,1-.83-0.56c-0.72-.85-2.3-1.33-1.78-2.78a3.13,3.13,0,0,1,2.7-1.78Z"/><path class="cls-61" d="M153.44,103.72l-0.45.4a2.51,2.51,0,0,1-1-2.44c4-.67,6.7,2.15,9.87,3.7a0.8,0.8,0,0,1,.58,1c-0.29.63-.87,0.41-1.29,0.16-1.22-.73-2.73-1-3.6-2.28a2.25,2.25,0,0,0-2-.93C155,104.09,154.1,103.34,153.44,103.72Z"/><path class="cls-62" d="M120.41,160.27a4.46,4.46,0,0,1,1.32.72c1.11,1.26,2.25,2.74,2,4.41s-2,.62-3,1.13c-1.88,1-4.05,1-6,1.89-1.46-2.16-3.31-1.59-5.12-.65s-3.38,2.2-5.32,2.9-1.82,3.06-2.95,4.52c-1,1.27-1.45,3.1-3.43,2.57a3.84,3.84,0,0,1-2.6-4.68c1.06-4.06,1-8.61,4.42-11.86a5.24,5.24,0,0,0,1.82-4,2.33,2.33,0,0,1,2.39-2.47,31.54,31.54,0,0,1,9.56.69c0.83,0.2,2.06.48,2.15,1.54C116,160,118,160.31,120.41,160.27Z"/><path class="cls-16" d="M109.72,172.48l2,0c-0.25,1.77-1.83,3.13-1.55,5.06-1.59.27-2-1-2.52-2C107.56,174,108.61,173.22,109.72,172.48Z"/><path class="cls-63" d="M167.83,165.89c0.95-.3,1.89-0.63,2.85-0.89,1.34-.37,2.24-0.91,1.17-2.44-0.58-.83,0-1.47.51-2,1.62-1.74.76-2.25-1.08-2.33-0.87-1.46-.61-2.62,1.07-3.12a7.51,7.51,0,0,0,4.11-3.46c0.27-.43.63-0.92-0.12-1.19-2.31-.84-2.61-3.32-4-4.88a0.62,0.62,0,0,1,.23-0.87,65.54,65.54,0,0,0,6.72-2.26,4,4,0,0,1,5.1,2.13,5,5,0,0,0,2.9,2.57c2.69,1,3.24,2.58,1.73,5.09-0.78,1.29-.08,3.16-1.72,4-2-2.44-2-2.45-4.49-.32a3.78,3.78,0,0,1-2.2,1.19c-2,.07-2.6,1.26-2.73,3-0.13.39-.35,0.75-0.49,1.13a1.63,1.63,0,0,0,.26,2c0.75,0.58,1.39.14,1.95-.43,2-2.78,2.53.31,3.87,1.06,1.06-1.9,2.61-3.53,2.6-6,0-.69-0.25-1.85,1.16-1.72a11.15,11.15,0,0,0,3.07,5.26c2.48,2.58,1.5,5.23-2,6.26-1.28.38-2.68,0.1-4.07,0.62,0.86,0.87,1.92,1.07,2.66,1.78,1.45,1.42,1.43,2.72-.35,3.67a21.83,21.83,0,0,0-4.18,2.85,10.25,10.25,0,0,1-3.16,1.06,1.13,1.13,0,0,1-.55-0.48c-1.83-2-4.12-1.12-6.11-.67a16.55,16.55,0,0,1-7.46.06,8.58,8.58,0,0,1-4.94-2.71,1,1,0,0,1-.57-0.86,0.92,0.92,0,0,1,1.5-.3c3.92,3.18,8.45,2,12.77,1.6a3.38,3.38,0,0,0,3.13-3.95,9.25,9.25,0,0,1,0-2.29c0.21-1.26.68-2.53-1.07-3.09a4,4,0,0,0-4.17.67,8.26,8.26,0,0,1-2.06,1.44C168.53,167.65,167.9,167.1,167.83,165.89Z"/><path class="cls-64" d="M154.53,176.58c0.25-1,0-2,.56-2.92,1.38-1,2.91-.89,4.46-0.58l0.57,0.47c1.51,1,1.42,2.42.66,3.76a3.46,3.46,0,0,1-4.13,1.66C155.51,178.67,154,178.48,154.53,176.58Z"/><path class="cls-65" d="M176.91,151.63a4.84,4.84,0,0,1-3.5,3.81c-1.87.44-2.23,1.24-2.13,2.79-2.77-.66-4.88,1.09-7.24,2-3,1.1-5.39,3.38-9.08,2.91-2.59-.32-2.67.29-1.6-2.66a1.9,1.9,0,0,0-.89-2.41,11.24,11.24,0,0,0-3.54-1.93,6,6,0,0,1-3.67-2.92c-1-1.57-.5-2.59,1.38-2.76a1,1,0,0,0,1.13-.78c-0.05-2.17,1.7-2.71,3.08-3.57,1.21-.76,1.47-1.44-0.06-2.07s-2.66-1.67-4.44-1.65c-1.21,0-2.95-.86-2.81-2,0.21-1.85-.9-4.1,1.15-5.58,0.61-.44,1.22-0.71,1.61.25,0.17,0.44,0,1.17.75,1.09a1.33,1.33,0,0,0,1.19-1.17c-0.07-2.07,2.54-3.38,1.38-5.88-0.4-.86,1.19-1.58,2.3-1.82-1.14,1.48-2.43,2.86-.52,4.77s4,2.48,6,1.09,3.19-2.88,1.61-5.24a1.47,1.47,0,0,1,.09-1.63c2-.19,4.42-1.42,5.41,1.72,2.82-.95,3.42,2.21,4.94,2.74,2.55,0.89,4.57,2.53,7,3.5-0.35.68-2,1.11-.39,2.15-0.09.89-1,1.37-1.15,2.24-1.93.37-2.85,1.32-2.21,3.42a3.32,3.32,0,0,1-.17,2,2.11,2.11,0,0,1-2,.16,3.09,3.09,0,0,1-.86-1.23,2.23,2.23,0,0,0-3-.69c-1.18.59-.29,1.61,0,2.43,1,2.49,3.71,3.38,5,5.62,1,1.74,2.34,3.09,4.49,1.3A0.73,0.73,0,0,1,176.91,151.63Z"/><path class="cls-66" d="M154.13,107.81a5.69,5.69,0,0,1,5.85,4.36,4.86,4.86,0,0,1-2.38,5.55c-2.25,1-4.93,2.1-6.91.37-1.74-1.52-.61-4.07-0.19-6.21C151,109.32,152.24,107.74,154.13,107.81Z"/><path class="cls-18" d="M144.35,109.86a1.31,1.31,0,0,0,1.37-.86c0.41-1.71,1.67-2.35,3.18-2.75,0.49,0.13,1.12.24,0.8,0.94-0.87,1.91-1.68,3.87-3.87,4.73-1,.38-2,1-2.69-0.19S144,110.56,144.35,109.86Z"/><path class="cls-67" d="M142.82,122.69c-1.19,0-2.31-.16-2.3-1.47s1.3-1.58,2.36-1.7,1.94,0.18,1.81,1.44A1.63,1.63,0,0,1,142.82,122.69Z"/><path class="cls-68" d="M162.7,122.3a2.11,2.11,0,0,1-2.08,2.11,0.83,0.83,0,0,1-.89-1.16c0.25-1.05.4-2.2,1.91-2.23C162.58,121,162.76,121.52,162.7,122.3Z"/><path class="cls-69" d="M176.9,134.85a2,2,0,0,1-1,1.63c-0.8-.11-1.9-0.08-1.83-1.15,0.09-1.37,1.39-1,2.3-1.17Z"/><path class="cls-33" d="M153.44,103.72a2.51,2.51,0,0,1,2.14-.4c0.13,0.46.85,0.76,0.52,1.27a1.39,1.39,0,0,1-1.17,0A9,9,0,0,1,153.44,103.72Z"/><path class="cls-70" d="M155.8,128.69c1,0,1.94-.12,1.76,1-0.23,1.46-1.34,2.06-2.75,2.14s-2.4-.77-2.2-1.89C152.95,128.18,154.91,129.32,155.8,128.69Z"/><path class="cls-71" d="M148.42,95.06c0,1.26-.15,2.48-1.53,2.21-1.07-.21-3,0.12-3-1.46s1.43-2.33,3.06-2.36A1.26,1.26,0,0,1,148.42,95.06Z"/><path class="cls-72" d="M191.74,145.64c-1,.54-2.28,1.7-3.15.64-1.16-1.41-2.52-3-2.31-5.1a1.53,1.53,0,0,1,1.82-1.33,4.38,4.38,0,0,1,3.1,1C192.24,142.37,193,143.89,191.74,145.64Z"/><path class="cls-73" d="M192.21,157.36c-0.94-.16-2.16,0-2.05-1.5s-0.1-3.27,2-3.69C192.68,153.9,193.73,155.63,192.21,157.36Z"/><path class="cls-74" d="M194.84,153.65c0.57,2.19,1.71,4.35.39,6.65A23.23,23.23,0,0,1,194.84,153.65Z"/><path class="cls-75" d="M195.74,172.9a25.27,25.27,0,0,1,.25,4.35c-0.08.66-.23,0.87-0.84,0.8C195.7,176.37,195,174.55,195.74,172.9Z"/><path class="cls-76" d="M172.43,116.4c-0.79,1.22-1,2.79-2.67,2.5a2.13,2.13,0,0,1-1.48-.8c-0.41-2.56,2.4-2.61,3.42-4.14,0.62-.92,1.33-0.24,1.59.61a1.35,1.35,0,0,0,1,1,1.34,1.34,0,0,1,1,1.93,1.42,1.42,0,0,1-1.49,1.09C172.56,118.56,172.65,117.53,172.43,116.4Z"/><path class="cls-77" d="M169.82,98.61h-6.14c-0.8-1-1.89-1-3-1a2.27,2.27,0,0,1-2.28-1.7c-0.19-1.24,1.22-.82,1.89-1.08a19.15,19.15,0,0,1,8.08-1.68c1.63,0.09,3.74-.58,4.32,1.57S171.46,97.8,169.82,98.61Z"/><path class="cls-40" d="M170.8,143.92a1.74,1.74,0,0,0,1.57,1c2,1.51,2.1,4.9,5.34,5.22,0.78,0.08.75,0.37-.8,1.44-1.45.27-2.23,2.49-3.48,2-0.92-.38-1.76-2-2.3-3.1-1-2.12-3.56-2.51-4.5-4.71-0.55-1.3-1.73-2.49-1.17-3.9s2-.23,3-0.46C170.67,140.92,170,143.12,170.8,143.92Z"/><path class="cls-78" d="M177.52,160c-0.27-2-.16-3.56,2.55-3.42a3.07,3.07,0,0,0,2.86-1.78c0.7-1.38,1.85-1.3,3-1.08,1.41,0.26,1.06,1.5,1.2,2.44l0,0a1.71,1.71,0,0,0-.46,1.85c0.47,2.75-2.24,4.31-2.49,6.83-0.06.68-1,.54-1.36,0a8.57,8.57,0,0,1-.79-1.56c-0.73-1.69-1.36-1-2,.08A8.57,8.57,0,0,0,177.52,160Z"/><path class="cls-79" d="M179.5,155.71c-1.19.15-2.37-.32-2.28-1.77,0.11-1.82,1.5-2.35,3.21-2.4s2.06,0.81,2,2.17C182.43,155.61,181.11,155.75,179.5,155.71Z"/><path class="cls-80" d="M177.52,160c2.61-.22,2.73,1.44,2.53,3.35-0.91,1.24-2.39,1.5-3.18.49A2.4,2.4,0,0,1,177.52,160Z"/><path class="cls-81" d="M182,176.76a2,2,0,0,1-1.71,2.75c-1.53.26-1.07-1.07-1.19-1.88A2.67,2.67,0,0,1,182,176.76Z"/><path class="cls-82" d="M174.79,138.24l1.37,0.31a1.17,1.17,0,0,1,.71.65c-0.1,4.12-.68,4.73-4.59,4.74-0.95-1.36-.13-3-0.67-4.54C171.28,138.43,173.58,138.41,174.79,138.24Z"/><path class="cls-83" d="M170.86,155.82c0,0.9.1,1.86-1.2,1.82-1,0-1.21-.72-1.3-1.55a1.2,1.2,0,0,1,1.21-1.54A1,1,0,0,1,170.86,155.82Z"/><path class="cls-84" d="M190.22,175.6c-0.21.67,0.33,2.19-1.19,1.76-1.15-.33-3.22,0-3.24-1.62s2-1.86,3.24-2.13S190.26,174.58,190.22,175.6Z"/><path class="cls-65" d="M176.87,139.21l-0.72-.65c0.41-.63.83-1.29,1.73-1.13a0.7,0.7,0,0,1,.54,1A1.17,1.17,0,0,1,176.87,139.21Z"/><path class="cls-85" d="M157.55,113.85c0,2.11-3.38,4.54-5.31,3.82-0.36-.13-0.69-0.54-0.5-0.73,1-1,.69-2.57,1.25-3.61a8.92,8.92,0,0,0,1.09-3.21c0.15-1.19.83-1.34,1.74-.53A5.39,5.39,0,0,1,157.55,113.85Z"/></svg>