<svg id="Layer_1" data-name="Layer 1" xmlns="http://www.w3.org/2000/svg" viewBox="0 0 351.5 247.54"><defs><style>.cls-1{fill:#002e71;}.cls-2{fill:#005980;}.cls-3{fill:#0040a1;}.cls-4{fill:#0048d5;}.cls-5{fill:#002862;}.cls-6{fill:#003d6f;}.cls-7{fill:#d7ebf5;}.cls-8{fill:#36773e;}.cls-9{fill:#288270;}.cls-10{fill:#002c80;}.cls-11{fill:#106556;}.cls-12{fill:#017ea7;}.cls-13{fill:#dcf6f7;}.cls-14{fill:#dbf2f5;}.cls-15{fill:#a3e4ec;}.cls-16{fill:#a0e7eb;}.cls-17{fill:#046d68;}.cls-18{fill:#0081d0;}.cls-19{fill:#044032;}.cls-20{fill:#004a7e;}.cls-21{fill:#0055b7;}.cls-22{fill:#0089d0;}.cls-23{fill:#3b7d4b;}.cls-24{fill:#fdcf34;}.cls-25{fill:#5d4f11;}.cls-26{fill:#106b57;}.cls-27{fill:#a28325;}.cls-28{fill:#0078af;}.cls-29{fill:#038cd2;}.cls-30{fill:#037a8d;}.cls-31{fill:#003e62;}.cls-32{fill:#009596;}.cls-33{fill:#003a6e;}.cls-34{fill:#005f76;}.cls-35{fill:#f2f7f9;}.cls-36{fill:#f9f2f6;}.cls-37{fill:#8ed1e7;}.cls-38{fill:#016f5f;}.cls-39{fill:#00a0bb;}.cls-40{fill:#00bad3;}.cls-41{fill:#0097df;}.cls-42{fill:#1b413a;}.cls-43{fill:#0065a6;}.cls-44{fill:#3e643b;}.cls-45{fill:#de9b40;}.cls-46{fill:#089480;}.cls-47{fill:#6f7c3f;}.cls-48{fill:#2e3015;}.cls-49{fill:#e98a17;}.cls-50{fill:#fefdfe;}.cls-51{fill:#011f36;}.cls-52{fill:#366e39;}.cls-53{fill:#003066;}.cls-54{fill:#00a3ab;}.cls-55{fill:#00a4a5;}.cls-56{fill:#00afbf;}.cls-57{fill:#004b61;}.cls-58{fill:#0b8379;}.cls-59{fill:#013c66;}.cls-60{fill:#0a5d88;}.cls-61{fill:#e6fbfc;}.cls-62{fill:#f2f8fb;}.cls-63{fill:#00a5d2;}.cls-64{fill:#0171a9;}.cls-65{fill:#abfafd;}.cls-66{fill:#0390ad;}.cls-67{fill:#fbf4f6;}.cls-68{fill:#216d59;}.cls-69{fill:#eff7f7;}.cls-70{fill:#008ec2;}.cls-71{fill:#1a3625;}.cls-72{fill:#c6a24c;}.cls-73{fill:#066781;}.cls-74{fill:#025e80;}.cls-75{fill:#024874;}.cls-76{fill:#d9c5b9;}.cls-77{fill:#edfafb;}.cls-78{fill:#e0fcfe;}.cls-79{fill:#6da7cb;}.cls-80{fill:#faf8fa;}.cls-81{fill:#fbf9fb;}</style></defs><title>splash</title><path class="cls-1" d="M201.9,65.41c-1.87,1.76-4,3.31-5.52,5.33s-0.11,4.6.65,6.61a25.77,25.77,0,0,1,1.79,9.49c0,4,3.57,6.69,3.91,10.71,0.5,5.95,5.52,9.83,7.54,15.15,0.68,1.79,2.33,1.19,3.68,1.45,2.18,0.42,5,.66,1.92,3.88-1.34,1.41-.52,3.07.43,4.29a6.94,6.94,0,0,1,1.3,5.14,1.94,1.94,0,0,1-2.21.19,5.31,5.31,0,0,0-5.48-.51,1.64,1.64,0,0,1-2.21-1c1.17,3.8.12,8.08-.29,12.32-0.17,1.81-.64,3.55-0.12,5.37,1.12,3.9.55,7.23-3.29,9.4-1.32,1-2.72-.52-4.05.14a3.25,3.25,0,0,0-1,.6c-1.74,1.43-3.56,2.63-5.23,0-1.1-1.72,0-4.53,2.05-5.67,4.07-2.26,4.73-3.47,4.22-7.92a52.29,52.29,0,0,0-1.25-5.74,2.52,2.52,0,0,0-2.77-2.14c-3.5-.11-4-0.87-2.94-4.33a25.27,25.27,0,0,0,0-16.52,10,10,0,0,0-2.4-4.21c0.42,3.11.21,5.44,0.71,7.6,1.93,8.42-.3,16-4.1,23.39-1.13,2.19-2,4.24-.3,6.56,1.06,1.45.24,2.75-.77,3.86a28.82,28.82,0,0,1-6.43,5.67c2.42,0.55,5.11-2.08,6.67,1.08-1,1.23-2.58,1.65-3.92,2.28-3,1.43-5.3,3.37-6.43,6.56a1.41,1.41,0,0,1-1.53-1.4c-0.33-2.22-.87-4-3.75-3.81-1.44.09-1.83-1.28-1.94-2.47a5.85,5.85,0,0,0-2.21-3.94c-0.65-1.32.09-2.22,0.93-3.1,2.61-1.34,2-5.16,4.88-6.32,1.22-.37,2.45.07,3.68,0a6.69,6.69,0,0,1,1,.07c3.22-.64,3.52-1.53,1.47-4.48a2.69,2.69,0,0,1-.7-0.9,2.19,2.19,0,0,1,.4-2.25c1.22-.67,2.37-0.13,3.54.18,1.58,0.6,2.39-.06,2.89-1.57,2.8-8.45,4.6-17,2.29-25.89-1.83-6.44-4.32-12.68-5.5-19.3,0.1-3-2.11-5.15-3.07-7.77-0.67-3.44-.24-6.52,2.88-8.71,1.9-.9,3.8-0.18,5.72,0,4.26,0.36,5.8-1,5.73-5.34,0-1.52.41-2.68,1.94-2.84,2.39-.24,4.8-1.1,7.21-0.05v0.81Z"/><path class="cls-2" d="M276.32,102a22.73,22.73,0,0,1,.87,6.51c0.12,2.61-.51,4.35-3.44,4.49a3.35,3.35,0,0,0-2.3,1.34c-0.95,1-2.51,2.34-1.63,3.56s2.67,1.66,4.13,1.81a2.87,2.87,0,0,0,3.11-2.39,19.41,19.41,0,0,1,.57-2.25c0.24-.68.17-1.79,1.19-1.75s1.33,1.07,1.44,2c1.62,4.11.93,6.4-2.64,8.55a12.29,12.29,0,0,1-5.48,1.94,17.2,17.2,0,0,0-8.68,3.21,6,6,0,0,1-3.42.46c-1.32-.14-1.9.25-1.73,1.72,0.32,2.92-1.75,3.28-3.78,2.88-2.53-.5-5-1.47-7.63-1a2,2,0,0,1-2.16-1.33,1.71,1.71,0,0,1,1-2.27c3-1.69,3.34-4.79,4.1-7.63,0.34-1.27.07-2.23-1.53-1.1-0.85.54-1.67,1.53-2.73,0.6a2.34,2.34,0,0,1-.43-2.56,10.68,10.68,0,0,1,3.66-5.81c0.2-4.35,4.7-8.14,10.26-8.65,2.49-1.11,4.19.4,5.83,1.84,3,2.61,6,1.79,7.24-2.09,0.32-1,.17-2.09,1-2.87C274.69,99.5,275.22,101.86,276.32,102Z"/><path class="cls-3" d="M228,150.78c-0.06-.89-0.52-2.06-0.12-2.63,3.43-4.82,2-9.19-.62-13.78-1.08-1.88-1.58-2.71-3.63-1.16-1.22.93-3.65,2.2-3.37-1.05,0.55-6.42-4.37-8.47-8.44-11-3.18-2-6.42-3.86-9.63-5.77-4.88-2.91-5.18-5.56-1.68-11.9,1-1.89,1.22-3-.18-4.32a6.66,6.66,0,0,1-1.74-3.43c-0.68-2.65.38-4.49,3.12-3.73,3.51,1,7.15-.3,10.61,1.2,1.73,0.75,2.79-2.16,5-1.65,0.53,0.12.3-2.83,0.42-4.36l0.08-.11c2.77-1.86,3.94-5.73,7.8-6.21,1.93,1.65-.42,4.93,2.38,6.26-2.27,2.44-2.64,5.41-2.34,8.55a0.7,0.7,0,0,1,.22.62,0.39,0.39,0,0,1-.14.33c-1.46.16-1.52-1-1.72-1.91s-0.21-1.76-1.34-2c-2-2.4.61-3.88,1.1-5.65-3,2.39-2.06,6.34-3.43,9.45a5.5,5.5,0,0,1-4.52.55c-2.38-.64-3.43.21-2.61,2.5,1.22,3.4-.44,4.79-3.32,5.7-1,.32-2,0.43-3,0.74-2.91.92-3.61,4.2-1.21,6.06,3.81,2.95,7.78,5.6,12.77,6.28,3.79,0.52,7,1.85,7.9,6.29,0.44,2.23,2.37,3,4.44,3.15,2.35,0.14,2-2,2.46-3.31a3.86,3.86,0,0,1,1-2.06c1.76,6.88,2.28,13.79-.53,20.49a29.21,29.21,0,0,0-1.63,6.4C231.49,152.93,230,152.29,228,150.78Z"/><path class="cls-4" d="M233.7,126.42a7.13,7.13,0,0,1-.13,2.71c-0.65,1.34.13,3.93-2.41,3.75-2.35-.17-5.55.12-6-3.09-0.75-4.94-3.95-6.13-8.16-6.59-5.23-.56-9.07-4-13.22-6.8a3,3,0,0,1-1-4.15c0.81-1.53,1.18-3.91,3.63-3.33,2.14,0.51,3.3-1.24,5.06-1.61,2-.42.53-2.12,0.3-3.22-0.32-1.48-1.28-2.86.28-4.3s2.33,0,3.41.5c1.37,0.65,2.82-.7,4.18.16,2.88,0.16,1.73-2.87,3.09-3.91,0.28-1,.72-2,1.49-0.4,0.61,1.33-.46,3.1.91,4.35,1.65,1.78,2.08,4.19,3.17,6.25Z"/><path class="cls-5" d="M166.95,192.71c1.3,4.67-2.48,6.34-5.15,8.62-1.16,1-1.51-.27-2-1a9.62,9.62,0,0,0-7-4.51c-2.21-1.84-4.19,0-6.24.43-0.78.17-1.63,0.58-2.09-.28a1.47,1.47,0,0,1,1-2.19c2.09-.5,3.26-2.1,4.63-3.46,1.77-1.76,4.69-3.19,1.4-6.32-0.8-.76-0.48-2.73.41-4.06,6.26-9.44,6.5-19.78,4.42-30.43-0.23-1.17-.83-2.65.42-3.17,1.63-.68,2.1,1.09,2.61,2.18,3,6.37,3.83,12.91,1.4,19.67-0.43,1.2-1.48,2.45-.37,3.62s1.85-.14,2.73-0.61a1.72,1.72,0,0,1,2.52,1.13c1.45,4.83,3.33,9.69,1.24,14.81-0.55,1.35-1.28,2.32-3.23,2.1s-3.59,2.75-2.74,4.44,2.19,1.84,3.37.34C165,193.08,165.38,191.77,166.95,192.71Z"/><path class="cls-5" d="M285.64,105.28c-0.31,2.25-2.2,3.74-2.8,5.85-0.21.73-.6,1.69,0.1,2.08,0.38,0.21,1.28-.55,2-0.87a1.8,1.8,0,0,1,.2,2.18c-0.75,1.52-.73,4.09-3.23,3.67s-1.35-2.66-1.66-4.24c-0.52,3-.51,6.05-1.34,9-0.36,1.28-.69,2.5-1.86,3.29-2,1.33-4.09.57-3.71-1.66,0.5-3-1.46-3.35-3.13-4.32-2.21-3.31-1.95-5.35,2.48-6.4,3.28-.78,4.65-5,3.26-8.34a14.23,14.23,0,0,0-.85-1.3c-2.16-3.86-2.14-7.48,1.27-10.69,2.41-.18,3.24,1.09,3.12,3.31-0.09,1.67-.15,3.13,2.45,2.35,2.11-.63,3,0.73,3.05,2.82C284.93,103.13,284.59,104.37,285.64,105.28Z"/><path class="cls-6" d="M325,95.37c-0.68-6,3.64-10.16,5.36-15.66,1.33,1.39.82,2.72,0.9,3.93-1.55,1.53-.45,3.8-1.52,5.47-1.55.74-1.91,2.24-2.4,3.68C326.9,94,326.61,95.28,325,95.37Z"/><path class="cls-7" d="M215.42,117.08c0.08-1.17.08-2.35,0.25-3.51s-1-3.07,1-3.15c1.64-.07,1.38,1.85,1.54,3.12a3.47,3.47,0,0,0,.49,1,0.53,0.53,0,0,0,.59.35c2.19,1,1.54,2.87,1.1,4.4s-1.85,1.65-3.25,1.15l-0.75-.25A2.57,2.57,0,0,1,215.42,117.08Z"/><path class="cls-6" d="M334.42,93.42c0.27,1.72-.39,2.74-2.14,3-1.51.21-1.9-.85-1.68-1.88,0.32-1.48.06-3.67,2.4-3.71C334.73,90.78,334.28,92.38,334.42,93.42Z"/><path class="cls-5" d="M332,85.88l1,3.1c-1,1.61-2.14-.16-3.2.12-0.76-2.17-1.19-4.26,1.52-5.47C331.31,84.43,331.06,85.34,332,85.88Z"/><path class="cls-6" d="M333.65,89.22c3.82-.93,4.23-2,2.15-5.54,3.38,0.36,2,2.78,1.62,4.35C337,90.15,335.42,90.41,333.65,89.22Z"/><path class="cls-8" d="M222.82,67.25c0,3.16,1.34,5.15,4.7,5.38a6.22,6.22,0,0,0,1.11.3c4.7,0.78,5.07,1.47,3.38,6.07-5.48,5-8.9,5.17-14.3.47a7,7,0,0,0-7.58-1.56c-3.6,1.3-7,1.59-10.46-.69-2.08-1.39-4.32-.69-6.3.47a8.43,8.43,0,0,1-7.53.42c-4-1.41-5.46-5.39-2.86-8.76,4.18-5.4,9.32-9.17,16.76-7.65,1.21,0.29,2.45,1.68,3.62.62s0-2.49-.59-3.51c-4.4-7.3-1.78-13.22,3.12-19.13a61.65,61.65,0,0,1,19.5-16.06c3.17-1.61,6.62-2.43,10-3.47,1.42-.44,2.22-0.53,2.06-2.41-0.24-2.83,1.12-4.94,3.83-6.22,2.49-1.18,4.36-3.72,7.55-3.34l1.54-.09c0.38,4.44,2.54,5.91,6.81,4.47,1.72-.58,3.34-1.44,5-2.13,1.18-.48,2.42-1.23,3.32.53,1.06,2.08-.63,3-1.81,3.71a91.93,91.93,0,0,1-9,4.46,10.86,10.86,0,0,0-3.93,2.45c-0.63.69-1.46,1.54-.54,2.33,2.1,1.81,2.82,3.75,1.93,6.5a3.45,3.45,0,0,0,1.12,3.12c1.56,0.86,2.11-1.59,3.55-1.75C254.43,36.13,254,36.22,251,33a1.21,1.21,0,0,0-1.25-.66,1.47,1.47,0,0,0-.91,1.59c0.36,4.31-2.6,6.74-5,9.65-4.62,5.49-9.27,10.91-14.4,15.93A17.3,17.3,0,0,1,218,64.8c-1.63.1-2.83,0.44-3,2.31-1.87,1.66-4.09,1.41-6.31,1.14a16.57,16.57,0,0,0-3.13-.11c-1.26.08-2.86-.18-3.19,1.53s1.24,1.68,2.22,2.25c2,1.16,3.44,3.54,6.3.89,1.84-1.7,3.59-3.17,4.11-5.69,0.83,0.32,1.09,2.1,2.37,1.12C219.08,66.92,221,67.65,222.82,67.25Z"/><path class="cls-9" d="M262.17,31.79c-1.22,2.87-4.64,3.73-5.91,6.71-0.69,1.6-1.88,2.88-2.13,4.83a8.2,8.2,0,0,1-3.46,5.47,36.77,36.77,0,0,0-11.18,11.95c-1.7,2.94-5.21,4-8.87,3.1a18.59,18.59,0,0,1,3.8-5.82c6.76-7.17,12.63-15.23,20.91-20.88C257.71,35.52,258.6,31.95,262.17,31.79Z"/><path class="cls-10" d="M169.49,56.93c2.21-2.35,5-3.23,8.11-4.08,4.94-1.36,8.42-5.12,11.23-9.19C190,41.89,191.2,40,192.27,38c5-3.2,9.81-6.76,12.92-12,1.95-3.26,5.06-5.16,7.78-7.5,3.73-3.21,7.65-6.16,10-10.71,0.43-.84,1.53-1.35,2.32-2-0.57,2-2.2,3.83-1.56,6.18-1,.51-1.24,1.5-1.72,2.42-1.78,3.34-3.14,7-7.43,8.29-2.75.84-3.21,4-4.83,6l-0.5-.11c-4.79,3.62-8.34,8.42-12.25,12.87C191.76,47.46,186,52.65,179,56.37s-9.2,9.13-7.35,16.9a40.44,40.44,0,0,1,.74,7.37,5.19,5.19,0,0,1-2.9,5.14,2,2,0,0,1-1.14.12c-4.59-1.79-8.51-1.37-11.35,3.17a3.34,3.34,0,0,1-1.93,1.25c-1.17.34-2.38,0.45-3.1-.78-0.63-1.07-.11-2,0.77-2.7s2.31-1.3.51-2.53c-1.25-.64-2.55-0.39-3.86-0.29-0.92.07-2,.14-2.18-1.08a1.72,1.72,0,0,1,1.6-1.9c5-1.16,7.7-5,10.67-8.73a14.62,14.62,0,0,0,3.66-8.86A12.26,12.26,0,0,1,169.49,56.93Z"/><path class="cls-11" d="M248.81,8.21a33.07,33.07,0,0,0-8.08,4.51c-2.18,1.47-3.33,3.57-2,6.31,0.54,1.1,1.34,2.1-1,2.14-6.28.11-11.84,2.75-16.87,6.11a63.62,63.62,0,0,0-14.32,13.18c-5.71,7.1-6.58,11.42-2.27,19.21,0.67,1.21,2.19,2.46.47,3.7a3,3,0,0,1-4.68-1,3.61,3.61,0,0,1-2-2.71c-0.33-3.26-2.49-4.53-5.3-5.19-0.78-.49-1.64-1-1.4-2.09,0.29-1.29,1.39-1.35,2.47-1.31,1.69,0.2,3-.18,2.92-2.25a12.59,12.59,0,0,1,.9-3.76,5.32,5.32,0,0,1,1.72-2.15,6.43,6.43,0,0,0,3.22-4.5c2.2-3.28,3.59-7.12,6.71-9.77l0.35,0.12c-0.23,2.3.82,2.81,2.4,1.35A50.2,50.2,0,0,1,234,18.36a1.49,1.49,0,0,0,1.39-1.15C236,11.54,242,11.44,244.79,8,246,6.57,247.45,8.19,248.81,8.21Z"/><path class="cls-12" d="M306.78,60.89c1.95,5,6.6,6.58,10.89,8.41,2.46,1.05,4.93,2,7.29,3.3,0,0.84.13,1.74-.64,2.38-1.47.2-3,.46-4.06-0.93a1.52,1.52,0,0,0-1.84-1.49c-0.77,0-1.85.3-2.27-.09-4.95-4.55-6.23-2.25-6.64,3.15-0.16,2-2.84,3.23-3.37,5.45-0.34,1.07.24,1.9,0.74,2.75-0.62.61-1.77,0.92-2.14,0.52-3.76-4.07-9.33-.9-13.46-3.46a2.84,2.84,0,0,0-3.88.68c-0.74.86-2.15,1.68-1.34,2.91s1.85-.1,2.72-0.43c1.5-.57,3-0.63,3.91.71,1.66,2.48,6.66,1.55,6.2,6.28-0.07.72,1.56-.11,2.41-0.17,1.72-.12,2.74.39,1.38,2.17-1.56,2-.92,5.22-3.62,6.73a2.82,2.82,0,0,1-1-3c0.48-3.76-3-4.28-5-5.6-1.33-.88-2.1,1.37-1.6,2.55,1.49,3.48-.2,5.09-3.14,6.18a1.44,1.44,0,0,1-.81.76c-2.39.28-4.42-.85-6.53-1.67-2.13-1.47-5.66-.34-6.81-3.65-1.51-4-1.24-4.8,2.62-8,0.74-.67-0.19,2.64,1.55.52,2.49-3,4-6.66,5.81-10,2.94-5.3,7.06-9.69,10-14.9a11.24,11.24,0,0,1,4.74-4C302.31,57.11,304.14,57.54,306.78,60.89Z"/><path class="cls-12" d="M284.09,120.47c-3.14,1.58-2-1.07-2.24-2.29,0.67-4.7.34-9.42,0.17-14.13,0.34-1.71,2.11-1.66,3.13-2.53,0.83-.68,2.12-0.37,2.83-1.31l0.28-.34c0.93,0.34,2.27-.21,2.76,1,0.58,1.42-.86,2-1.49,2.89-1.31,1.87-4.39,2.07-4.6,4.95h0C283.77,112.58,285.33,116.62,284.09,120.47Z"/><path class="cls-13" d="M294.44,114c-0.19-2.51,1.26-4.1,3.07-5.48a7,7,0,0,0,4.51-1.75c1.06-1.08,1.66-.4,1.78.69C304,109.5,296.64,114.61,294.44,114Z"/><path class="cls-14" d="M306.88,83.82c-1-.36-2.63.7-2.91-1-0.21-1.26,1.4-1.22,2.17-1.79,2.45,0,3.19-2.31,4.79-3.45,0.84-.6,1.77-1.55,2.67-0.55s-0.24,1.82-1,2.47C310.85,81.14,309.6,83.48,306.88,83.82Z"/><path class="cls-15" d="M316.4,125.29a11.79,11.79,0,0,1-3.07,1.58c-2.32.43-3.35-.37-1.8-2.7C313.21,124.3,315.56,121.51,316.4,125.29Z"/><path class="cls-16" d="M320.26,74.05c1.37,0.24,3.06-.92,4.06.93-1,2.53-3.26,1.94-4.79,1.29C318.22,75.7,319.44,74.65,320.26,74.05Z"/><path class="cls-13" d="M302,105.21a1.72,1.72,0,0,1-1.8,1.28,1.21,1.21,0,0,1-1.34-1.44,1.13,1.13,0,0,1,1.52-1.18A2.4,2.4,0,0,1,302,105.21Z"/><path class="cls-17" d="M260.5,82.15a1.25,1.25,0,0,0-1.43,1.44c1,5.79-3.56,9.84-4.68,15-4.54,4.47-14.24,4.39-19-.33-1.94-1.92-4-3.74-5.92-5.64-3.41-3.31-3.46-6.38,0-9.64,1.41-1.33,3.06-2.42,4.41-3.83a12.5,12.5,0,0,1,7.21-3.47c1.13-.15,2.38-0.11,3-1.42,2.64,1.86,5.46,1.94,8.63,1.6C257.17,75.36,259.19,77.3,260.5,82.15Z"/><path class="cls-18" d="M257.21,51.17c1.39-.74,2.21.58,2.75,2.19,1.24,3.68,3.94,6.95,2.31,11.38-0.84,2.29-1.83,4.06-4.13,4.73-4.39,1.29-8.67,0-12.94-.89-1.16-.25-1.09-1.31-1.1-2.23s0.07-2-.7-2.56c-4.3-3.24-1.63-5.8,1.14-7.55C248.18,54,252,51.76,257.21,51.17Z"/><path class="cls-19" d="M244.06,74.23c1,1.67.46,2.33-1.4,2.23a11.35,11.35,0,0,0-8.05,3.1c-1.27.86-2.35,0.82-3.1-.68,0.43-2.59.36-2.7-4-6.25a5.59,5.59,0,0,1,6,0C236.72,74.42,240.66,72.89,244.06,74.23Z"/><path class="cls-20" d="M124.64,69.59a6,6,0,0,0,1.4,1.27c2.17,1,3.38,2,.81,3.91-0.82.62-.69,1.59-0.55,2.5a1.66,1.66,0,0,1,.33,1.6c-2.63,2.78-6,4.78-7.49,8.74-0.91,2.44-.07,3.86,1.1,5.66s2.51,1.16,4.07.8c3.29-.75,7,2.4,6.81,5.56a9.14,9.14,0,0,1-1.8,1.49c-1.39,1-3.15,2-2.95,3.85,0.22,2,2.54,1.27,3.84,2a15.26,15.26,0,0,1,1.43.62c2.72,1.81,3.69,12.36,1.34,14.64a8,8,0,0,1-.89.76c-4.37,3.15-7.24,6.83-5.69,12.76a8.71,8.71,0,0,1-1.22,6.79c-2.56,4.07-3.56,8.34-1.48,13-0.43,2-1.85,2.11-3.48,1.78-4.71-3.67-5.26-7.1-1.51-11.4,3.33-3.82,3.21-8.41,2.21-12.59s0-7,2.94-9.66a10.15,10.15,0,0,1,2.93-1.88c1.83-1,3.28-2.13,2.87-4.54s-1.94-3.19-4.13-3.3a3.8,3.8,0,0,1-1.46-.54c-2.07-2.16-4.87-2.76-7.56-3.6-2.39-4.78-4.57-5.85-10.12-5.14-2.62.34-5.33,1.35-7.74-.71,0.07-1,.45-2-1.22-2.18-0.91-.08-2.23-0.21-1.8-1.82a3.13,3.13,0,0,1,1.51-.67c3.35-1.3,6.51-2.86,8-6.43a6.19,6.19,0,0,1,4-3.92c2.21-.67,3.09-2.23,2.63-4.51-0.1-.51-0.39-1.26-0.11-1.51,4.18-3.69,3.94-10.13,8.52-13.59C122,67.94,123.29,68.11,124.64,69.59Z"/><path class="cls-21" d="M126.29,78.9q0-.81,0-1.63c2.09-1.06,4.65-1.23,5.8-3.93,0.58-1.37,2.39-.9,3.55-0.56,4.88,1.41,8.89-.58,12.7-3.13,2.64-1.77,3.24-4.15.6-6.42-2.07-1.78-1.7-3.54-.56-5.51a1.37,1.37,0,0,1,1.45,1.53c4.34,2.56,9.18,3.32,14.07,3.9,0,7.11-6.8,16.31-13.65,18.36-0.83.25-1.62,0.62-3.27,1.27,2.82,0.74,5.05-.86,6.84.7l-0.33.47c-2,.94-4,1.65-5.47,3.49s-3.24,2-4.69-.25c0.66-1.93-.8-2.75-2-3.74-3-3.35-6.85-4.25-11.11-4C128.91,79.46,127.49,80.1,126.29,78.9Z"/><path class="cls-22" d="M163.92,63.14c-4.06,1.46-11.86-.7-14.07-3.9,5.36-4,11.44-4.76,17.87-4a1.7,1.7,0,0,1,1.77,1.66Z"/><path class="cls-23" d="M17.8,135.51a8.4,8.4,0,0,1-4.55-2.8c-1.28-1.53-3.36-3.63.91-4.54s4.16-5.93,6.83-8.51c1.58-1.52,1.86-5.3,5.18-1.44,1,1.2,2.86-1,4.08-2,2.28-1.83,4.4-3,6.4.28,0.27,1.23-1.27,2.39-.18,3.68,1.64,0.26,1.58-1.52,2.54-2.06,4.65,4.43,6.27,4.67,10.14,1.51,2.89-3.72,4.42-3.82,6.66-.46,2.47,3.7,2.47,3.7,6,1.16a7.68,7.68,0,0,1,2.57,3.11c1,1.67,1.85,3.33-.79,4.33-2.14.81-1.77,2.45-1.6,4.19,0.26,2.76,2.4,5.31.92,8.26-2.57,1.56-4.53.27-6.19-1.54-1.85-2-3.69-4-5.45-6.15-2.39-2.85-5.16-4.21-8.94-2.4-3.41,1.62-7,.11-10.41-0.21-4.31-.4-7.36.67-9.32,4.67C21.5,136.82,19.9,137.93,17.8,135.51Z"/><path class="cls-24" d="M50.28,72.49c1.58,1.11,2.07,3.34,5,3.06,2-.19,1.82,2.52.91,4-2.43,4-2.49,8.38-2.17,12.83a1.76,1.76,0,0,1,.25,1.06C53,99,55.77,106.13,60,108.07c2.92,2.46,3.46,4.46,1.85,6.9-1.8,2.74-4.41,3.61-7.26,1.77-2.47-1.6-4.16.56-6.23,0.6-1.2-.19-2.85.09-2.2-2.06l4.55-2.67c2-2.46-.25-5.4.91-7.95,0-.13,0-0.26,0-0.39-0.1-3-4.7-4.57-1.91-8.87,1.66-2.57.86-6.74,1.17-10.18,0.69-3.47-.37-6.84-0.6-10.25Z"/><path class="cls-25" d="M54,92.86a0.79,0.79,0,0,0,.06-0.44c0.46-5,1.36-9.88,4.46-14.06,0.46-.62.29-2.16,1.67-1.41,1.11,0.61.52,1.19-.16,2.06-1.39,1.79-1.18,2,2.58,2.38l0.13,1.47c-4.53,2.81-4.64,7.55-5.26,12.06a4.88,4.88,0,0,0,2.81,3.55c1.31,0.66,2.55,1.41,2.67,3.11-0.71,2.74-1.2,5.72-5.23,4.93,0.72-3.32-1.68-5.2-3.39-7.41C52.79,97.09,53.43,95,54,92.86Z"/><path class="cls-26" d="M231.5,78.88a4.26,4.26,0,0,0,3.11.68c-1.12,1.64-2.81,2.66-4.31,3.89-3.41,2.83-3.38,5.47-.26,8.43,2,1.85,4.16,3.4,5.86,5.61,2.44,3.18,10.72,4.37,14.26,2.48,1.33-.71,3.09-0.15,4.24-1.42,0.89,1.33-3.6,2.6,0,4,1.4,0.74,1,1.66.18,2.5a1.4,1.4,0,0,1-2.07.33c-1.09-1-2.2-1.34-3.51-.47-2.8,1.18-3.12,4.82-6.32,5.91-2.92,1-4.43.76-5-2.38-0.86-2.48-2,.24-2.93-0.13a1.83,1.83,0,0,1-1-.24c-1.3-3.06-4.85-4.53-5.63-8,0.34-4.55-2.68-7.08-5.82-9.47A16.87,16.87,0,0,0,219.06,89c-5.24-2.45-6-2.12-7.15,3.41a8.47,8.47,0,0,1-2.71,4.21,11.74,11.74,0,0,0-2.33,3.6c-1,1.63-2,3.4-4.24,3.58a1.18,1.18,0,0,0-1,.43c-1.8,5.11-4.61,2.67-7.34,1a1.05,1.05,0,0,0-.45,0c-1,.91.76,1.82,0.07,2.74-1.82.86-2.94-.43-4.18-1.34a3.53,3.53,0,0,1-.92-2.78c1.08-2.3,1.71-4.91,4.33-6.12,1.56-.77,4.25.62,4.65-2.39,0.33-2.53-1-4-3-5.39-2.69-1.93-5.71-2.35-8.76-2.94-4.06-.79-4.53-1.51-2.89-5.11a3.6,3.6,0,0,0-.41-3.93c-4-6.15-3.34-10.25,2.3-15.21a14.91,14.91,0,0,0,3.76-5.41A5.82,5.82,0,0,1,193,53.76c6-.11,5.42,5.17,7.06,8.63-6.22-.76-11.08,1.61-15.26,6.15-2.06,2.24-2.61,4.5-1.44,7.06,0.79,1.73,6.53,3,8.19,1.85,3.78-2.7,7.23-2.85,11,.1,1.8,1.41,4.06.47,6-.31,4.15-1.66,7.56-1.37,10.82,2.26,2.2,2.45,5.36,3.6,8.67,1.18A24.75,24.75,0,0,1,231.5,78.88Z"/><path class="cls-27" d="M215,67.1c-0.17,1.42,1.41,3.68.4,4-3,.85-4.42,4-7.4,4.67a1.67,1.67,0,0,1-2-1,3,3,0,0,0-3.16-2.25c-1.84-.12-2.2-1.55-2-3.14a2.33,2.33,0,0,1,2.62-2.28c3.84,0,7.69,0,11.53,0h0Z"/><path class="cls-28" d="M169.53,85.26c-0.22,1.22,1.1,1.48,1.46,2.33-5,1.33-5,1.34-6.8,6.25,0.63,1.19,3.2-1,3,1.72a21.37,21.37,0,0,1-16.51,1.25,2.12,2.12,0,0,1-1.42-2.14c1.26-3.71,1-8.07,4.53-10.85l0.08-.35c3.87,1.48,1.87,2.78-.16,4-0.68.4-1.62,0.55-1.23,1.57a1.47,1.47,0,0,0,2.31.57c1.29-.84,2.8-1.77,3.46-3.06,2-3.82,4.79-3.26,7.95-2.15C167.26,84.76,168.41,85,169.53,85.26Z"/><path class="cls-29" d="M168.58,78c-0.78,1.77-.47,4.42-3.79,3.7-2.22-.48-4.2-1.1-3.85-3.77,0.33-2.5,2.11-3.82,4.66-3.62C167.77,74.45,168.66,75.89,168.58,78Z"/><path class="cls-30" d="M193,98.48c0.76-1.66,3.61-3.71,2.21-4.71-2.45-1.74-3.25-6.38-8-4.83-4.2,1.37-7.38-1.19-10.3-4-1.48-1.42,0-2.22.57-2.89,1.23-1.35,1.43-2.29.43-4-1.63-2.88.73-12.89,3.34-15.14,1.44-1.24,2.57-2.36,2.48-4.51A4.24,4.24,0,0,1,186,54.52a6.88,6.88,0,0,0,1.27-.92c3.45-3.23,6.23-7.34,11.25-8.52l-0.77,4.08c-1.44.8-3,1.46-3.87,3-0.68-.12-1.53-0.94-1.94.23-0.26.75,0.48,1.09,1.07,1.37a19.39,19.39,0,0,0-4.23,5.84A11.42,11.42,0,0,1,183.85,65c-3.39,1.8-3.73,9.24-.58,12.24,2.13,2,2.76,3.48.41,5.75-1.62,1.57-1,2.86,1.3,3a22.27,22.27,0,0,1,12.23,4.44c1.09,0.79,1.85,1.2,1.7,3C198.46,98.57,198.64,98.59,193,98.48Z"/><path class="cls-31" d="M192.7,125.39l-2.47-7.59c-1.53,7.92-6.11,7.8-10.88,7.24a6.28,6.28,0,0,1-4.89-3c-2.37-3.63-7.59-4.71-10.56-1.63-3.22,3.34-6.61,3.58-10.78,3-11.75-1.59-16.58,1.37-20.82,12.46-1.58,4.12-3.12,7.9-8.6,7.89-1.8,0-3.16-.74-4.71-1.21a1.46,1.46,0,0,1-1.16-1.41,1.63,1.63,0,0,1,1.57-1.62c1.95-.42,3.91-0.77,5.85-1.22,1.23-.28,2.9-0.24,2.76-2.15-0.12-1.62-1.46-1.93-2.81-2.33a4.75,4.75,0,0,0-4.25.4,10.07,10.07,0,0,1-6.17,1.52,3.25,3.25,0,0,1-.88-4.83c1.76-2.22,4.7-2.28,7.34-2.34,1.08,0,2.29,1.19,3.23,1,2.09-.49,5.71,1.84,6-0.91,0.22-2.42-2.4-5.64-5.64-5.83-3.57-.21-6.32-0.52-7.89-4.45-0.66-1.65-3.44-1.76-5.41-1.75a19.1,19.1,0,0,1-11.09-3.76,34.22,34.22,0,0,0-16.29-6.27c-3.94-.39-6.61-3.42-9.63-5.39a26.43,26.43,0,0,0-6.9-3c-3.58-1.8-7.35-3.14-11-4.68,1.13-1.84-1.26-4.63,1.2-5.89a19.08,19.08,0,0,1,12.08-2.19c7.52,1.4,15.09,2.2,22.67,3.07a8.92,8.92,0,0,1,4.24,1.33,16,16,0,0,0,10.29,3A9.48,9.48,0,0,1,114.17,96c1.46,1.47,3.36,2.95,5.28,2.18,5.84-2.32,11.5,0,17.23.14,4.84,0.09,9.57.6,13.38-3.56a5.29,5.29,0,0,1,6.13-.82c11.65,5.76,24.41,3.76,36.65,5.42a12.44,12.44,0,0,1,3,.34c2.1,0.82,8,1.27,10,.73C212.6,96.65,220,97,227.45,97.06c-0.37.88-1.48,3-.16,2.44,5.93-2.57,9.9,1.7,14.28,3.67,3.9,1.76,7.9,3.26,11.82,4.94,1.73,0.74,4.85.71,4.14,3.14a6,6,0,0,1-5.29,3.57c-4.09,0-8.18-.43-12.27-0.65-1.31-.07-2.68-0.69-2.43-1.91,1-4.61-2.44-4.32-5.13-4.91-5.8-1.28-11.56-2.65-17.42.06-1.72.8-3.28,1.49-4.12,3.28a7.17,7.17,0,0,1-4,3.55c-3.31,1.35-5,3.17-2.38,6.67a2.72,2.72,0,0,1,.14,2.85c-1.28,2-5.78-1.47-5.57,3.31,0,0.43-1.25-.32-1.87-0.83C195.87,125.18,194.64,123.34,192.7,125.39Z"/><path class="cls-32" d="M258.92,103.17a4,4,0,0,1,4-2.41c1,1.22,2.46.75,3.69,1.13,3.12,1,6.24-.59,9.36,0,1.23,0.82,2,1.71.39,2.91-3.46,3.36-7.66,1.81-11.48,1.35-2.5-.31-3.67.41-4.57,2.38-1,2.25-1.68,4.79-3.16,6.68-2.05,2.64-3.52,5.78-7.59,6.73s-5.91,5-8.07,8.18a93.9,93.9,0,0,1-14.26,17c-2.24,2-2.79,4.65-3.37,7.29-0.39,1.78-.73,2.92-3,2.37-2.67-.66-4.59.24-5.23,3.19-0.34,1.56-2.07,1.88-3,3-1.36.69-2.9,1.06-4,2.25-1.64,3.2-4.06,3.63-7,1.9a4.33,4.33,0,0,0-4-.3c-1.67,0-3.33,0-5,0-2.14,0-1.91,1.1-1.26,2.46-0.6,1.54-2.17,1.94-3.3,2.85-2.68.46-5,2-7.55,2.73-1.43.39-1.62,1.35-1.68,2.61-0.11,2.16-.78,4-3.14,4.74-2-.43-2.63-1.85-1.82-3.45,1.08-2.14.63-3.92-.37-5.83-1.56-3-.87-6,0.17-9,1.92-1.68,4.43-2.69,5.71-5.09,1.15-.63,2.24-0.69,2.93.6a2.61,2.61,0,0,1-.53,2.84,17.15,17.15,0,0,1-3,2.92c-1,.89,0,1.22.49,1.68,4.08,2.41,6.92,1.75,9.77-1.58,6.91-8.08,13.14-16.7,19.92-24.88a17.09,17.09,0,0,0,1.51-2.28c4.09-3.33,8.91-5.35,13.68-7.42,1.79-.78,3.66-1.36,5.39-2.31,3.38-.93,5.27-3.48,6.21-6.53a11.73,11.73,0,0,1,8.11-8.22,19.07,19.07,0,0,0,10.09-7A8.82,8.82,0,0,1,258.92,103.17Z"/><path class="cls-33" d="M197.65,166.78c1.25-1,3.14-1.23,4-.5,3,2.46,4.94.88,7-1.1-1.34,3.29-4.22,4.5-7.41,2.69A8.29,8.29,0,0,0,197.65,166.78Z"/><path class="cls-34" d="M276.34,104.79a2,2,0,0,0-.08-2.29c2.35-1.74,4.39-1,6.31.78-0.4,5,.84,10-0.73,14.9,0-3.11-.11-6.22,0-9.32,0.06-2.36.23-4.54-3.33-3.36C277.92,105.69,277.07,105,276.34,104.79Z"/><path class="cls-34" d="M284.09,120.47c0.47-3.9-.89-7.93.83-11.74C284.47,112.63,285.93,116.67,284.09,120.47Z"/><path class="cls-35" d="M266.15,102.39c-1.12-.48-3.72,2-3.25-1.63l1.49-.63c5.37-2.58,11-2.3,16.71-1.61l6.87,1.69c0.93,3-1.92.5-2.33,1.58a2,2,0,0,1-1.42.54C278.2,100.8,272.18,102.89,266.15,102.39Z"/><path class="cls-17" d="M281.1,98.52l-16.71,1.61c0.13-1.64,3.38-2.79.76-4.85,0.32-2.35,2-2.6,3.91-2.6,1.28,2.15,3.4,2.51,5.63,2.65C275.93,98.19,279.9,95.58,281.1,98.52Z"/><path class="cls-36" d="M274.69,95.33c-4.17,1.88-4.57,1.71-5.75-2.56A1,1,0,0,1,269,92c0.76-2.93,4.13-3.77,5.22-6.52,0.24-.6,1.75-0.71,2.51-0.21,1,0.63.26,1.65,0.14,2.51C275,89.95,273,92.09,274.69,95.33Z"/><path class="cls-33" d="M266.15,102.39c6.47-1,12.95-2.1,19.5-.6-0.22,2.16-1.94,1.21-3.07,1.49-2.12-.1-4.12-1.23-6.31-0.78C272.9,102.25,269.5,104.44,266.15,102.39Z"/><path class="cls-17" d="M258.92,103.17c-3.88,2.78-5.77,7.95-10.57,9.5-6.75,2.18-11.32,6.23-13.57,13a5.22,5.22,0,0,1-4.86,3.42,8.85,8.85,0,0,1,0-2.36,29.18,29.18,0,0,0,5.22-8.12A10.44,10.44,0,0,1,242.7,112a17.26,17.26,0,0,0,5.85-3c2.4-1.62,2.77-3.28.26-5.12a2.72,2.72,0,0,1,3.77.06c1.41,1.2,1.48,1.12,1.76-1.47C256.77,100.75,256.77,100.75,258.92,103.17Z"/><path class="cls-37" d="M269,92a3.1,3.1,0,0,1,.14.56,0.59,0.59,0,0,1-.19.25,8.12,8.12,0,0,0-3.8,2.51l-0.75.64c-1.27,1.11-2.63,2.84-3.25-.48A8.47,8.47,0,0,1,269,92Z"/><path class="cls-17" d="M261.15,95.44c0.65,3.08,2.12.64,3.25,0.48a2,2,0,0,1-1.77,1.76c-0.83.12-1.78,1.19-2.45,0.26S260.16,96,261.15,95.44Z"/><path class="cls-38" d="M17.8,135.51c1.9,0.84,3.22,1,4.11-1.59,1.37-4,4.86-5.35,9.22-5s9,1.81,13.65-.56c3.13-1.61,5.2,1.48,7.16,3.31a59.52,59.52,0,0,1,5.45,6.54c1.37,1.7,3.22,2,5.23,2,2.38,2.22,3.81,4.82,3.25,8.2,0.11,0.92-1.32,2.09.05,2.71,1.56,0.71,2.47,1.53,1.71,3.2a4.42,4.42,0,0,1-4.3,2.75c-1.27,0-2.55-.56-3.65.5-1.91.2-3.82-.18-5.74,0-0.82.08-.64,0.53-0.49,1-3.66,2.16-6,5.78-9.31,8.3-1.45,1.11-3.92,0-5.13,2-4,1.07-8.6-.12-12.26,2.74-0.42.33-.87,0.53-0.67,1.17,1.48,1.39,3.49,1.69,5.18,2.62,2.41,1.34,3.07,2.83,1.49,5.34a16.34,16.34,0,0,1-4.64,5.16,1.69,1.69,0,0,1-1.9-1.77c1.47-5.55.45-7.28-5.08-8.55-4.25-1-5.89-3.5-4.86-7.72,0.41-1.66-.35-2.77-1.31-3.85-1.9-2.14-3.9-4.19-5.85-6.29C3.42,151.57,5.46,140.89,13,137a6.52,6.52,0,0,0,1.76-.8C15.74,135.72,17.37,138.28,17.8,135.51Z"/><path class="cls-39" d="M59.51,157.49c0-1.68.25-3,2.44-1.85,0.55,0.3,1.24.86,1.7,0.72,1.63-.48,3.56-1.2,3.48-3.15-0.09-2.32-2.32-.55-3.56-1.3L65,148.75c1.18-2.53,0-5.12.14-7.68,0.09-2.2,0-4.4,2.48-5.17,2.64-.82,3.21,1.54,4.15,3.2a15.22,15.22,0,0,0,1,1.68c1.71,2.27,4.77,3.36,6.5,2.31,1.2-.73,1.15-5-0.11-6.9-0.21-.32-0.57-0.55-0.79-0.87-2.09-2.95-.68-6.77,2.86-7,3.27-.19,6-0.5,6.55-4.44a1.39,1.39,0,0,1,.69-0.93c5-2.62,4.84-8,6.52-12.38,0.69-1.78,1-3.87-1-5.37-1-.73-2.87-1.11-2-2.75,0.64-1.28,2.29-.91,3.6-0.68,1.12,0.36,2.38.46,3.13,1.56,2.37,1.18,4.81.75,7.21,0.21a13.73,13.73,0,0,1,5.76.1c3.41,0.64,5.86,1.74,5.25,5.83,0.16,1.88,1.6.76,2.42,1a5.86,5.86,0,0,1,4.61,6.37c-0.32,2.69-1.47,3.42-4,2.24a2.72,2.72,0,0,0-2.54.12c-4.84,2-5.26,1.87-7.75-3a6.86,6.86,0,0,0,.77,5.72c1,1.8.37,2.92-1.3,3.82a33.53,33.53,0,0,1-8.16,2.95c1.37,1.77,2.55,3.38,3.92,4.82,1.73,1.82,3.5,3.87,6.13,1.1a1.78,1.78,0,0,1,1.84-.46c2.8,1,3.9,3.73,5.28,6,0.9,1.48-.18,3-1.51,4.07a5.78,5.78,0,0,1-6.6.78c-1.29-.67-2.67-1.44-3.06-2.9-0.9-3.39-3.63-4.6-6.42-5.77-2.4-1-5.07-1.59-5.55-4.85-0.19-1.3-1.36-.94-2.23-0.88-1.36.09-2.64,0.43-3.15,1.89a2.3,2.3,0,0,0,1,2.78c2.89,1.79,5.24,4.38,8.3,5.83a15.61,15.61,0,0,1,6.66,6.42c0.76,1.25,1.69,2.66.12,3.8s-2.71,0-3.8-1-2-2.64-3.46-3.6C100.9,151.29,102,156,100,161c-0.23.6-.38,1.43,0.41,1.68a2.13,2.13,0,0,0,2.63-1.15c0.59-1.06.7-3.43,2.13-2.7,3.34,1.7,7.64-3.35,10.26,1.67,0.11,1.37-.87,2.08-1.74,2.86a11.58,11.58,0,0,1-4.41,1.39c-4.2.62-8,1.84-10.3,5.86-0.33.4-.68,0.78-1,1.19-0.63.82-1.22,1.85-2.5,1.29a2.15,2.15,0,0,1-1.17-2.63c0.5-2.41-.17-4.63-1-6.83-0.64-.74-1.27-1.63-2.39-1.13-0.25.11,0.39,0.78,0.58,1.22,0.32,3.79-2.22,2.32-3.78,1.84s-2.41-2.25-3.41-3.59c-2.65-3.56-4.1-3.91-8.2-2a1.75,1.75,0,0,1-1.44-.43c-1.29-1.11-2.54-2.49-4.44-1.31a4.11,4.11,0,0,0-2,4c0.2,2,1.18,4,3.29,4.41,3.48,0.7,5.47,4,8.86,4.73,0.51,0.11.49,0.83,0.06,1.29-1.31.82-2.77,0.64-4.2,0.61a4.73,4.73,0,0,0-3,.72c-5,3.37-5,3.33-6.54-2.24-1.51-4-3.19-7.95-6.23-11.14A3.07,3.07,0,0,1,59.51,157.49Z"/><path class="cls-40" d="M115.31,160.67c-2.26-1.46-4.43-2.69-6.85-.08-1.62,1.74-2.22-1-3.85-1.18,0.21,3-1.23,4.61-4.31,4.75-1.9.08-2.55-.63-1.73-2.27,2.6-5.21,1.67-10-1.34-14.7-0.46-.72-1.26-1.76-0.42-2.48,1.2-1,1.83.45,2.45,1.09,1.26,1.31,2.28,2.83,3.51,4.18,0.68,0.75,1.6,1.69,2.65.67,0.86-.83,0-1.62-0.48-2.39a19.39,19.39,0,0,0-7.65-6.86c-2.73-1.38-5.24-3.67-7.81-5.6A3,3,0,0,1,88.34,132c0.73-1.58,2-2.79,3.58-2.51s5.8-2.22,4.07,3c-0.32,1,1.35,1.42,2.26,1.85a62.23,62.23,0,0,1,7,3.25c1.4,0.88,2.15,1.57,2.23,3.21,0.13,2.62,2.44,3.27,4.3,3.91s3.6-.36,4.92-1.75c1.11-1.17,1.5-2.49-.06-3.67a6,6,0,0,1-2.16-2.69c-1-2.51-2.42-2.65-3.86-.41-1.53,2.39-2.69,1.24-4.41.09-2.72-1.82-3.53-5.35-6.76-6.76-1.31-.57-0.33-1.81,1-1.9,2.93-.19,5.46-1.54,8.09-2.61,1.45-.59,2.12-1.11.84-2.78s-1.31-3.65-1.15-5.65c0.07-.9-0.11-2,1.11-2.18s1.71,0.79,2,1.92c1,3.76,2.4,4.24,5.57,2.08,2.73-1.86,2.73-1.86,4.83,1a4.53,4.53,0,0,0,.53-6c-1.14-1.81-2.77-2.71-5-1.79-0.76.31-1.8,0.35-2.06-.48-0.4-1.27,1.1-1.1,1.69-1.66,3.4-.79,5.67,1.06,7.75,3.34a11.36,11.36,0,0,1,.06,10.83,9.65,9.65,0,0,1-1.72,2.57c-1.87,1.43-2,2.88-1.26,5.09,1.1,3.09.9,6.45,0.64,9.67a8.33,8.33,0,0,1-2.12,4.93c-4.06,4.53-4,5.47-.19,10.67C119.67,159.35,117.48,160,115.31,160.67Z"/><path class="cls-41" d="M138,87.45c-1.43,4.52-2.45,9.29-7.16,11.82,0.14-1,.54-2.33-1.17-2.19-1.5.12-3.83,2-2.49-1.91,0.2-.57-2.23-0.69-3.32.07s-3.09,1.6-3.32.37C120,93,116,92.15,117.37,89.08c1.89-4.28,4-8.53,8.91-10.18,4.76-.91,9.39-1,13.74,1.71,1.2,0.75,2.15,1.36,1.89,2.92a2,2,0,0,1-1.45,1.63l-1.57,0c-3.33-.84-6.53-1.16-9.56,2.45C132.7,87.69,135.34,87.92,138,87.45Z"/><path class="cls-42" d="M93.25,97.65a4.9,4.9,0,0,0,2.4,2.43c0.82,1.11,2.05.73,3.14,0.86,0.9,0.1,2,.25,2,1.34,0,1.31-1.35.73-2.07,1.07-1-.34-2.32.24-3.14-0.86-2.66-1.22-4.14-.26-5.22,2.38-0.85,2.06-.26,4.4-1.51,6.31-2.33,1.37-4.26-.07-6.29-0.87-1.28-.79-2.45-1.75-3.78-2.47-1.63-1-3.82-1.52-3.18-4.16,0.42-1.74,5.11-5.45,6.69-5.36s3.17,1.82,4.72.2c1.39-1.46-.87-2.86-0.31-4.37a1.74,1.74,0,0,1,.41-0.65C91.05,92,91.79,95.37,93.25,97.65Z"/><path class="cls-43" d="M115.31,160.67l4.74-4.08c1.35,0,2.9.44,3.2-1.61,1.54,4.43,5.74,3.8,9.09,4.65,1.36,0.35,2.1-.61,1-1.79a4.68,4.68,0,0,1-1.52-3.83c0.09-1.26-.32-2.86,1.76-2.75,1.53,0.08,2.81.62,2.88,2.51,0.09,2.4-.55,5.24,3.25,5.52a0.89,0.89,0,0,1,.44,1.3,1.48,1.48,0,0,1-1.65.76c-2.8-.24-4.72.12-4.57,3.82,0.07,1.6-2.78,2-3.38,3.89-0.06.19-1-.59-1.2-1.22-2.2-3.4-5.58-1.95-8.58-2.08a1.5,1.5,0,0,1-1.15-1.72c0.86-2.18,2.85-1.82,4.71-2-2.16-1.28-4-.83-6,0.31-1.38.8-2.82,2.08-4.54,0.57C113.58,161.64,114.83,161.43,115.31,160.67Z"/><path class="cls-39" d="M124.7,123.65q0-5.42-.06-10.83c1.81,1,4.62-.8,5.63,2.66C131.54,119.84,130.84,121.24,124.7,123.65Z"/><path class="cls-10" d="M140.47,85.15l1.45-1.63a2.55,2.55,0,0,1,2.87,1.83c0.33,1.09-.43,1.24-1.19,1.38Z"/><path class="cls-44" d="M80.64,76.58c0.7,4.33-3.22,6.19-4.95,9.22-0.72,1.25-2.83,2.07-1.61,3.86S76.49,93.2,79,93a32.28,32.28,0,0,1,8.05.81,2.56,2.56,0,0,0,.91,2.06,2,2,0,0,1,.17,3.32c-1.09,1.07-2.22,2-4,.81s-7.61,2-7.9,4.15c-0.31,2.29,2.15,1.84,3,3-0.58,1.45-1.61,2.67-2,4.22s-1,2.91-2.86,2.53a5.71,5.71,0,0,1-4.16-3.81c-0.63-1.59.17-2.76,1.62-3.52a3.56,3.56,0,0,0,2-1.59c-2.85-.6-5.36.51-7.94,0.79-0.9-1.09-2.55-1.68-2.39-3.5a8.4,8.4,0,0,0,4.84-9.46C68,91.39,67,91.32,66,91c-2.29-.65-3.59-2-3.5-4.52,0.21-1,.21-2.15,1.66-2.2,3.29-3.26,8.5-3,11.75-6.41A5.19,5.19,0,0,1,80.64,76.58Z"/><path class="cls-45" d="M64.18,84.33c-0.94.57-.76,1.53-0.83,2.4a1.56,1.56,0,0,0-.29,1.48c1.23,2.76.06,4.1-2.59,4.65a8,8,0,0,0-1.54,2.09c-0.72.68-1.46,1.23-2.43,0.41-0.8-3.26,1.81-5.93,1.41-9.34-0.26-2.19,3.07-2.23,4.84-3.16,0.57-.17,1.36-0.66,1.67-0.45C65.3,83,64.33,83.67,64.18,84.33Z"/><path class="cls-46" d="M88.49,111.11c0.36-2.34-.46-4.75,1.06-7.07,1.68-2.56,3.42-3.19,6-1.55-1.07.14-2.24-.32-3.4,0.46,4.79,2.39,5.37,3.94,3.5,9.29a33,33,0,0,0-1.88,6.34,4,4,0,0,1-2.88,3.76,3.68,3.68,0,0,0-2.72,4.1c0.16,3.22-2.86,2.83-5,2.69-2.75-.18-4.59.48-5,3.51-0.1.71-.18,1.59,0.41,1.73,3.44,0.86,2.39,3.63,2.48,5.8,0.06,1.45.71,4.32-.15,4.15-2.13-.41-4.23,1.31-6.37-0.35a11.94,11.94,0,0,1-4.18-5.45c-0.39-1.06-.74-2.56-2.32-2a2.79,2.79,0,0,0-2,3.32,17.84,17.84,0,0,1-1,9c1.39-3.45-2.34-5.5-2.35-8.57,0.18-3.33-1.54-6.25-2-9.45-0.29-1.87-.18-3.44,1.7-3.6,3.58-.3,1.53-2.09,1.19-3.48a1.88,1.88,0,0,1,1.54-.58c2.82,1,4.83,3,6.77,5.13,1.26,1.36,2.29,1.51,4,.48,3.38-2,6-4.42,7.5-8.16C84.63,117.2,88.19,115.05,88.49,111.11Z"/><path class="cls-47" d="M65.24,123.45l-1.77.2c-0.54-1.09-1.71-1.85-1.67-3.24,1-2.37.86-5.21,2.91-7.15,0.5-.33.78,1.33,1,0.32,0.33-1.51.58-3.05,1-4.54,1-1.5-1.54-2.09-.92-3.49,2.06-3,5.78-.6,8.25-2.54,0.45-.36,1.11.87,1.14,1.7,0.06,1.26-.18,2.1-1.74,2.51-3.6,1-3.74,1.84-1.18,4.47,1.87,1.92,3.28,2.79,4-.91,0.29-1.53.51-3.55,2.87-3.63,1.19,0.58,2.48,1,3.23,2.22,0.93,0.88,1,1.65-.14,2.47a11.13,11.13,0,0,0-4,5.5c-0.69,1.87-2,2.59-3.93,1.67-4.15-3.06-5.3-2.76-7.28,1.9A3.26,3.26,0,0,1,65.24,123.45Z"/><path class="cls-48" d="M64.78,113.39c-1.07,2.31,0,5.51-3,7-1.13.87-.13,3.29-2.62,3.27s-3.09-2.12-4.11-3.63c-0.69-1-.64-2.73-2.43-2.5a2.7,2.7,0,0,0-2.47,2.59c-2-.49-1.58-2-1.45-3.43,2.32-1.35,4.18-3.57,7.16-.23,2.1,2.36,3.88-.84,5.18-2.28,2-2.17.58-4-1.33-5.48-0.82-.59-2.26-0.74-1.65-2.34,3.15,0,2.89-3.26,4.53-4.71,0.74-.26,1,0.07.89,0.76,0.95,0.91,2.73,1.19,2.32,3.11,0.36,1,1.39,1,2.07,1.53,1.54,1.19.42,1.51-.63,1.84s-2.54.19-1.89,2.1C65.66,111.87,65.87,112.82,64.78,113.39Z"/><path class="cls-49" d="M58.08,106.39l1.64,2.34c-3.36-.36-5.14-2.11-5-5.6a3.88,3.88,0,0,0-.89-2.87c-2.13-2.48-1.57-5,.12-7.39a8.55,8.55,0,0,0,3.76,8.68c1.77,1.3,3.73,2.52,0,3.82C57.75,105.36,58,106,58.08,106.39Z"/><path class="cls-47" d="M63.51,102.45l-0.89-.76c-1.22-2.9-5.82-2.54-6.12-6.33l2.1-.85a5.51,5.51,0,0,1,1.8,1.42c0.74,0.61,1.57,1.8,2.49.46,0.64-.94.16-2-0.79-2.69s-2-.57-2.59-1.57c4,0.13,2.83-3.41,3.84-5.4-0.1,2.85,2,3.76,4.08,3.58,2.28-.19,2.66.59,2,2.29s-0.32,3.35-.52,5C68.55,100.79,67.43,103.21,63.51,102.45Z"/><path class="cls-50" d="M248.82,103.92c1.06,0.48,2.91-1.08,3.25.93,0.26,1.49,0,3.3-1.59,4.13-2.26,1.19-4.09,3.06-6.81,3.59a10.09,10.09,0,0,0-8.1,7c-1,3.25-3.12,5.61-5.46,7.88-4.46,4.37-10.21,4.4-15.67,3.81-4.45-.48-6.94-6.35-5.19-10.38a10.31,10.31,0,0,0,.77-2.6c1.25-8.27,6.89-12.09,15.12-10.09,3,0.74,6,2,8.84-.25a1.3,1.3,0,0,0,.71-0.22c1.28-.23,2.59-1,3.77.25,0.24,2,.46,4.08,3.14,1.93,1.47-1.19,4.94-.32,4.16-4.06C245.67,105.47,247.75,104.59,248.82,103.92Z"/><path class="cls-51" d="M234,108c-1.14,3.15-2.95,3.52-6,2.08-5.69-2.71-10.8-1.7-14.65,2.21a7.18,7.18,0,0,0-2.18,4.83c-0.06,1,.25,2.49-0.32,3-4.69,4.61.25,6.81,2.27,9.76a2.44,2.44,0,0,0,2.76,1c4.74-1.11,9.89-.52,14.21-3.39,0.66,0.62,0,1.09-.19,1.61-5.08,2.43-10.18,4.84-15.24,7.32-1.25.61-2.4,1.42-3.6,2.14-0.71.78-1.23,2.38-2.58,1.41-1.65-1.18-.22-2.44.37-3.61,4-3.82,4-3.83-1.6-6.34a2.39,2.39,0,0,1-1.46-2.86c0.41-2.11.08-4.43,1.86-6.19,1.09-1.07,1.1-2.62,1-4a6.56,6.56,0,0,1,1.56-4.27,14.16,14.16,0,0,1,4-4.23c0.72-.46,1.73-0.94,1.07-2.11a1.6,1.6,0,0,0-2.06-.67c-4,1.71-8.51.94-12.39,2.92-2.57,1.31-5,1.36-7.17-.72,0-1.33-3-1.9-1.18-3.39a2.85,2.85,0,0,1,4.38.95c0.56,0.89,2.16,2,2.22,1.13,0.34-4.73,5.86-3.27,7.22-6.5,5.88-.74,11.48-3.39,17.64-2.36,1.86,0.31,3.71.09,4.34,2.4C229.78,103.06,233.88,104.09,234,108Z"/><path class="cls-52" d="M228.32,100.13c-4.83-1.83-9.77-2.31-14.63-.45-2.51,1-4.8,1.84-7.35.4a3.63,3.63,0,0,1,1.24-3.15c2.43-2,3.9-4.27,3.61-7.7-0.19-2.26,1.51-3.09,3.73-2.62,6.6,1.4,11.56,4.93,14.53,11.1C230.12,99.07,229.29,99.6,228.32,100.13Z"/><path class="cls-53" d="M189.94,106.23c-1.46.92-2.38,3.82-4.69,1.84-2.85-2.45-2.86-5.54-.42-7.78,0.86-.79,1.83-1.48,2.61-2.34,1.11-1.23.82-2.32-.52-3.25-3.37-2.33-16.15-2.43-19.79-.12-1.61.15-3.11,1.31-5.1,0.38,2.82-2.78,1.92-9.68,9-7.36a32.07,32.07,0,0,0,11.8,3.64A13.15,13.15,0,0,1,188.27,93c3.81,2.2,4.27,3.41,1.38,6.9-1.17,1.42-1.67,2.55-.51,4.09Z"/><path class="cls-17" d="M238.47,108l-3.77-.25c1.05-.59,1.53-2.23,3-2C238.85,106,238.51,107.17,238.47,108Z"/><path class="cls-54" d="M139,171.56c1.69-5.85,7.28-6.16,11.67-8.12,0.5-.22.67,0.58,0.67,1.1-2.19,2.51-5.31,4-7.27,6.73,3.14-1.73,5.46-4.8,9-5.93l4.57-1.62a4.24,4.24,0,0,1,3.74-.52c1.62,0.39,3.59.32,4.3,2.21s-1.17,2.66-2.14,3.79a18.51,18.51,0,0,0-1,1.68c-1.88.93-4.07,1.36-4.71,4-0.28,1.13-1.68,1.53-2.79,1.91a5.45,5.45,0,0,0-3.14,2.72c-2.47,2.23-2.47,2.23-5.83.59-0.16,2.2-1.69,3.31-3.27,4.51-3.19,2.42-3.23,3.64-.38,6.45a7.92,7.92,0,0,1,2.35,4,11.6,11.6,0,0,0,4.17,6.87,4.15,4.15,0,0,1,1.46,4.56c-0.87,2.6-3.12,4.54-3.51,7.36-0.83,6,.93,9.26,6.82,12.59-0.93,2-5.68,4.37-8.42,4.11a14.48,14.48,0,0,1-3-.69c-1.28-.44-2.35-1.55-3.88-1.23-1.06-.18-2.18-0.26-2.74-1.41-1.17-3-2.88-.14-4.32-0.3-1.13-.12-1.45,3.08-3.21,1.53-1.15-1-2.82-2.15-2.7-4,0.16-2.43,2.86-1.15,3.91-2.39,1.6-1.22,3.25-2.42,3.25-4.74a9.4,9.4,0,0,1,1.53-3.13c0.64-.8,1.78-1.12,2.08-2.33-1.75-.5-3.29.74-4.92,0.54-1.83-.22-4-0.41-2.1-3.19,0.34-.42,1.09.58,1,0a10.36,10.36,0,0,1,.79-7,12.49,12.49,0,0,0,.73-3.2c1.39-5.72,1-11.94,5.65-16.72,2-2,.22-5.22.58-7.86C138,173.27,138,172.22,139,171.56Z"/><path class="cls-55" d="M149.85,206.18a1.57,1.57,0,0,0,0-.77c-3.32-4.28-5-9.61-8.3-13.79-2.63-3.35-3.18-5.25.62-7.86,1.59-1.09,3.73-1.63,2.7-4.31a1,1,0,0,1,.65-1.24,1.52,1.52,0,0,1,1.95.88c1.19,2.35,2.54,1.43,4,.33,1.59,1.9.42,3.71-.23,5.49-2.11,5.78-1.38,7.45,4.4,9.54,1.61,0.58,2.77,1.48,2.79,3.33,0,2.75,2,2.66,3.86,2.58,2.53-.11,5.22-0.44,6.31-3,0.77-1.85-1.13-1.52-2.21-1.57s-2.22.06-2.58-1.22c-0.27-1,.41-1.74,1.09-2.37,4.1-3.89,4-8.45,2.21-13.33-0.73-1.94-1.76-3.77-1.93-5.89,1.17-1.38,1.09-3,1.13-4.71,0.13-4.57,1.14-5.34,5.71-4.65,0.75,0.11,1.54-.27,2.26.18-0.68,4.1-.92,8.12,1.62,11.79a1.7,1.7,0,0,1-.52,2.63c-1.74,1.3-1.29,2.6.45,3.61,2.36,4.6.23,8.93-.8,13.33-1,2.08-2.43,4-3.38,6.11-1.66,3.74-5.3,3-8.39,3.53-1.68-2.07-3.11-1.27-4.47.41C155.73,205.25,152.91,206.84,149.85,206.18Z"/><path class="cls-55" d="M184.37,140.23c2.54,1.27,4.8.17,7.07-.85a4.74,4.74,0,0,0,6,1.32,19,19,0,0,1,3.78-1c2.21-.47,3.62.14,3.67,2.65-2,6.7-6.84,11.15-12.7,14.23a19.78,19.78,0,0,0-8.26,7.36c-1.16,1.93-2.47,3.36-5,2.94-0.91.25-2,1.28-2.62-.17-0.45-1,.75-1.46,1.39-2a29.52,29.52,0,0,0,3.46-3c1.6-1.9.68-2.72-1.49-2.7-0.45-3.45,3.19-4.39,4.37-7.23-2.59,1.42-4.95,2.87-7.72,3-1.73.1-3.58-.06-1.78-2.57,3-1.48,6.3-2.38,8.47-5.16,0.14-1.3,3.52-1.28,1.41-3.49A3.52,3.52,0,0,1,184.37,140.23Z"/><path class="cls-56" d="M175.18,152.62c-1.56,1.63-.24,1.59.9,1.45,3.51-.42,6.27-2.78,10-4.12-1,4.22-5.07,5.72-6.42,9.06-0.55,3.07-2.58,4.41-5.49,4.73-1.08.2-1.74,2-3,1.1-4.67-3.42-3.58,1-4,3-0.25,1.2.26,2.53,0.25,3.81,0,1.66-1.05,1-1.87.7a3.43,3.43,0,0,1-3.16-1.56c-0.93-1.58-.71-2.7,1.24-3.17,0.94-.23,1.83-0.68,1.56-1.83S164,164.61,163,164.5c-1.79-.22-3.57-0.52-5.35-0.79,1.67-2,2.85-4.54,5.7-5.45,0.75-.24,1.91-1.22.61-2.39-0.23-2.52,2-3.77,3-5.63a1.47,1.47,0,0,1,2.61-.06c1.29,1.95,2.82,1.24,4.4.72A1.58,1.58,0,0,1,175.18,152.62Z"/><path class="cls-57" d="M179,166.89c4.45-1.42,5-6.66,8.63-8.91,0.67-.41,1-1.58,1.92-1.81,7.45-1.81,11.4-7.33,14.62-13.65,0.47-1.54.31-3.34,1.85-4.43,1-.79,1.87-2,3.44-1.22,0.25,1-1.88,1.65-.63,2.66,0.9,0.73,1.42-.87,2.31-1-1.53,3.8-4.77,6.36-7.08,9.6-4.9,6.85-10.25,13.38-15.6,19.9-2,2.48-5.14.75-7.72,1.15C179.07,169.46,178.79,168.22,179,166.89Z"/><path class="cls-58" d="M31.14,188.21c-1.65-.09-2.12-1.59-3-2.55,0.49-2.51,3.06-3.48,4.14-5.76,1-2.06.61-2.58-.95-3.53-2-1.24-4.74-1.13-6.34-3.2,1.67-1.5,3.45-.52,5.18-0.21,5,0.88,10,1.82,15.08,1.2,1.22-.15,3-0.16,3.13-1.74,0.16-1.82-1.7-2-3-2.46-2-.76-4.49.15-6.28-1.57a2.16,2.16,0,0,1,2.56-2.19c2.57,0.09,6.58-3,6.49-5.35-0.08-2,.6-2,1.91-1.44a2.35,2.35,0,0,0,3.27-1.1c1.44-1.36,2.68-.4,3.84.42a22,22,0,0,1,7.46,9.39c0.6,1.38.89,2.94,0,4.16-2,2.81-2.33,5.94-2.78,9.21-0.72,5.25-9.09,13.39-14.33,14.44a4.07,4.07,0,0,1-1.94.1C40.24,194.37,34.89,192.76,31.14,188.21Z"/><path class="cls-59" d="M31.14,188.21c3.72,2,7.43,4.09,11.18,6.07s7.17,0.74,9.75-1.64c4.38-4.05,9.94-7.67,9-15a5.41,5.41,0,0,1,.54-2.25c0.7-2,3.38-3.22,2.49-5.86a19.9,19.9,0,0,0-5.54-8.34c-1.4-1.28-2.73-3.4-5.27-2.83-0.59-.18-1.43-0.2-1.7-0.6s0.42-.93.9-0.89c2.35,0.15,4.86-1.29,7,.67,2.91,4.47,7.29,8.13,7.63,14a3,3,0,0,1-.24,2.63c-2.12,2.81-.91,5.3.44,7.94,1,2,2.11,3.37,4.69,3.21,1.29-.08,3.3-0.14,3.1,2.27a1.69,1.69,0,0,1-1,.5c-4.35-.43-7.41,1.74-10,4.89-2.7,2.07-3.45,5.13-2.11,8.43,0.54,1.34,2,2.64.4,4.2-3.3-1.07-6.78-1.91-9-4.8-2.72-3.48-6.64-2.9-10.27-3.35-5.86-1.56-11.72-3.22-16.4-7.31-2-1.72-5.2-.81-6.54-3.52a9.47,9.47,0,0,1,7.92,1.89C29.06,189.28,30.34,190.76,31.14,188.21Z"/><path class="cls-10" d="M138,87.45c-1.15,1.28-7.65,2-9,1a1.25,1.25,0,0,1-.53-1.91c1.79-3.15,7.4-3.92,10.49-1.4A2.16,2.16,0,0,0,138,87.45Z"/><path class="cls-60" d="M130.23,171.73a18.66,18.66,0,0,1,2.32,3.46c0.63,1.59.08,2.93-1.68,3.71-2,.89-2.53-0.09-2.69-1.79,0-1.72.89-3.86-2.09-4a7.1,7.1,0,0,1-1-.3c-2-.43-2.86-2.5-4.71-3.13a1.64,1.64,0,0,1-.74-1.45c0.46-1.37,1.7-1.62,2.86-2,2.51,0,4.19.73,3.59,3.7C127.11,171.4,129.19,170.35,130.23,171.73Z"/><path class="cls-61" d="M153.11,165.33c-5.24,5.08-8.36,7.09-11.89,7.36,3.31-3.26,5.7-6.92,10.13-8.16C152,164.65,152.79,164.47,153.11,165.33Z"/><path class="cls-62" d="M126.1,170c-0.8-1.57-1.17-3.7-3.78-2.92a1.26,1.26,0,0,1-1.69-.47,0.83,0.83,0,0,1,.44-1.25c1.61-1,3.41-.72,5.17-0.84,2.53-.19,3.56.85,3.08,3.35C128.49,168.91,127.71,170.07,126.1,170Z"/><path class="cls-56" d="M158.48,149.58c0.61,1.46,1.86,1.59,3.21,1.62,0.94,0,2,.3,1.85,1.46s-1.16.74-1.87,0.85c-0.13,0-.26,0-0.39,0-1.39.06-3.36-.22-3.32,1.69,0,2.5,2.4,1,3.65,1.48a12,12,0,0,0-2,1c-2.26,1.77-3.13.71-2.63-1.54S156,151.32,158.48,149.58Z"/><path class="cls-63" d="M75.41,187.55a2.59,2.59,0,0,0-3-1.42c-4.3,1.56-4.94-1.78-6.3-4.3s-2.62-5.18-.16-7.92a9.43,9.43,0,0,0,1.16-2.43c1.76,0.08,1,1.29,1.08,2.23,0.16,2.27,2.25,2.35,2.88,1.2,2.42-4.49,6.37-1.92,9.59-2.55,1.71-1.24,3.51,0,5.27-.18,2.41-.22,2.14-1.27,1.15-2.75a10.84,10.84,0,0,0-2.86-2.18c-3-1.55-4.48-5.14-8-6.12a1,1,0,0,1-.27-1.34c2.69-3,5.91-2.92,8.36.32,1,1.35,1.73,3,2.91,4.13s2.66,2.41,3.65-.29c0.79-1.28,2.18-.59,3.23-1,0.55,2.62,2.61,5.05.86,8a1.15,1.15,0,0,0,.68,1.62c2,0.4,1.06-2.11,2.32-2.52,1.17,1.36,1.08,3.39,2.48,4.63-2.15,2.95-2.13,2.94-.08,6.67,0.69,1.25,1.44,2.46,2.14,3.7,2.92,5.13,7.32,5.79,11.37,1.7a1.64,1.64,0,0,1,1.06-.41c1.56,1.11.29,3.1,1.37,4.37-1.24,2.59-1.39,6-5,6.84-2.79,1.21-6.21.59-8.59,3a0.78,0.78,0,0,1-.74.11c-3.1-2.55-5.11-.33-7.18,1.62a10.21,10.21,0,0,1-2.62-1.29,3.21,3.21,0,0,1-.95-1.69c-0.62-1.1-1.84-.85-2.78-1.2-3.6-1.35-7-2.88-8.72-6.74-0.61-1.38-1.47-2.87-3.41-2.83C75.86,188.36,75.3,188.31,75.41,187.55Z"/><path class="cls-40" d="M100.35,174.72c-3.82-.06-1.87-3-2.35-4.72,3.54-6.15,10-5.84,15.75-7.14,2,0.19,3.36-1,4.92-1.95,3-1.82,6.19-.88,8.18,2.37-2.37,0-4.72-1-6.81.48-0.89,1.53.22,3.14-.17,4.69l0.89,0.74c1.62,1,2.43,3.2,4.74,3.14h0c1,0.78,2.12,1.52,1.59,3.09l-2.44.85c-1.23-.21-1.86.77-2.68,1.36-1.15.83-2.26,2-3.82,1s-1.3-2.47-.67-3.85c0.85-1.89.34-3.56-.61-5.21-1.59-2.74-3.5-3-5.55-.62a3.83,3.83,0,0,0-.87,1.3C108.78,175.61,104.67,175.38,100.35,174.72Z"/><path class="cls-64" d="M76,159.77c0.34,0.73.89,1.59,1.65,1.4,2.12-.51,2.95.39,3.47,2.31,0.47,1.71,2.87,1.7,3.5,3.41s-1.75,1.51-2.06,2.68c2.13,1.33,3.84,1,5.12-1.16,1,1.21,2.07,2.68,1.27,4.14-0.68,1.25-2.42.37-3.66,0.59-1.63.3-3.06-.56-4.59-0.78-4.14,0-5.92-4.83-10.34-4.83-1.43,0-3-2.86-3.24-4.9a5.72,5.72,0,0,1,2.58-5.38C72.77,155.31,74.36,157.74,76,159.77Z"/><path class="cls-65" d="M94.14,162.93c-0.48,2.26-2.15.7-3.23,1-1-.71-2.29-1.22-2-3.14C90.76,161.38,93,160.61,94.14,162.93Z"/><path class="cls-66" d="M86.26,78.72c-1.42-1.39-.13-2.41-0.09-3.48,0.09-2.92.12-5.38-3.5-6.75-4.09-1.55-4-2.86-.53-5.55,2-1.53,4-4,6.82-2.53,3.46,1.83,6.45,4.47,7.28,8.56,0.34,1.65-.91,1.79-2.31,1.23-4.22-1.71-5.43-1.21-5.16,3.07C88.95,76,87.13,76.84,86.26,78.72Z"/><path class="cls-67" d="M91.59,56.05l3.34-.88,2.14,1.13c0.84,3.62-.26,4.37-4.62,3.17C91.2,58.58,91.41,57.31,91.59,56.05Z"/><path class="cls-68" d="M92.45,59.48c2.05-.31,5.32,1.14,4.62-3.17,1.71-1.82,2,.25,2.13,1,0.27,1.49-.53,3.15-2,3.23S93.42,62.38,92.45,59.48Z"/><path class="cls-69" d="M98.82,78.55c-1.15-.23-2.29-0.63-2.36-2s1-1.62,2.13-1.64,2.21,0,2.4,1.38C101.2,77.73,100,78.17,98.82,78.55Z"/><path class="cls-23" d="M74.33,118.19c1.28,0.59,2.78,1.05,3.06-.85,0.48-3.29,2.39-5.3,5.1-6.84a2.85,2.85,0,0,0-.12-1.11c2,0.63,3.94,1.65,6.12,1.73-0.18,1.14,1,2.36.12,3.38-4.53,5.46-6.62,13-13.76,16.25a1.58,1.58,0,0,1-2.25-.41c-2.37-2.38-4.89-4.6-7.35-6.88a3.78,3.78,0,0,1,1.4-2.22C69.32,120.52,72.42,120.83,74.33,118.19Z"/><path class="cls-70" d="M119.87,168.46c-1-1.6-1.15-3.18.17-4.69a1.38,1.38,0,0,0,1,1.56c-0.34,1.12.47,1.41,1.25,1.71C121.69,167.83,120.32,167.36,119.87,168.46Z"/><path class="cls-25" d="M59.5,92.13a25.64,25.64,0,0,1,3.39.7c1.61,0.56,1.31,2,1.31,3.31,0,0.89.14,1.92-1,2.24S61,98,60.09,97.15a4.34,4.34,0,0,1-1.5-2.65C58.74,93.65,58.6,92.69,59.5,92.13Z"/><path class="cls-71" d="M74.33,118.19c-0.69,3.1-3.77,4.32-7.7,3-2.25-3,1.18-4.26,2.36-5.12C70.86,114.76,73.11,116,74.33,118.19Z"/><path class="cls-72" d="M64.78,113.39a8.19,8.19,0,0,0-.21-2.27c-0.38-1-2-1.83-.76-2.94s2.46-.27,3.45.74c0.3,1.47-.38,2.79-0.61,4.18a37.28,37.28,0,0,0-.25,3.79C64.39,116.07,65.2,114.49,64.78,113.39Z"/><path class="cls-55" d="M209.41,136.88l-3,1.7a1.13,1.13,0,0,1-1.89-.41,1.31,1.31,0,0,1,0-1.13c1.86-1.89,0-1.75-1.08-2-0.56-1.56-2.54-.78-3.31-2,0.86-1.22,2.55-.25,3.77-1.49-1.6-1.08-4.09-1.14-3.83-4,0.22-2.47,1.65-3.68,3.48-4.77,2.71-1.61,5.37-3.13,4.55-7.12-0.28-1.36,1-2.3,2.21-2.92-1.18,4.75-2.4,9.49-3.54,14.25-0.35,1.47-.83,2.56,1.87,1.88,2.33-.59,4,2.26,5.12,3.93s-1.59,2.11-2.88,2.85A9,9,0,0,0,209.41,136.88Z"/><path class="cls-73" d="M167.16,111.89c0.92,2.12,1.7,4.3-1.08,5.6-3.43,1.6-6.23.61-8.35-2.46,0-1,0-2.07-.06-3.11-0.08-2.71-.11-5.22,3.67-5.57,3.58-.33,5.51.73,5.19,4.61A2.19,2.19,0,0,0,167.16,111.89Z"/><path class="cls-74" d="M204.91,137.63a1.42,1.42,0,0,0,1.49.94l-2.28,3.95c0-1.4-.09-2.72-2.17-2.06s-4,1.17-6,1.69c-2.44.64-4.13,0-4.53-2.77,1.52-4,4.82-5.54,8.66-6.37,0.92,0.77,3.22-1.33,3.14,1.51-2.49,1.85-6.42,1.26-8.08,4.7C198.73,140.2,201.58,137.44,204.91,137.63Z"/><path class="cls-75" d="M175,150.28c-1.27-.75-0.3-1.48,0-2.22a14.76,14.76,0,0,0,7.21-5.95c0.54-.79.75-2,2.12-1.88a2.18,2.18,0,0,1,0,3c0.42,1.5-.8,2.34-1.39,3.44C180.33,147.82,178.51,150.88,175,150.28Z"/><path class="cls-76" d="M182.21,135.75a1.89,1.89,0,0,1-2,2c-1.12.09-2.2-.19-2.23-1.57a2,2,0,0,1,2.09-2.3A2.07,2.07,0,0,1,182.21,135.75Z"/><path class="cls-77" d="M175,150.28c3-.53,4.52-3.83,7.72-3.87,0.85-.06,1.42.13,1,1.16-2,3.14-5.3,4.07-8.56,5.05l-0.9-1.48Z"/><path class="cls-78" d="M183.74,147.57l-1-1.16a3.31,3.31,0,0,1,1.66-3.17c1,0.07,2.26-.7,2.72.62s-0.86,1.6-1.73,2.14A11,11,0,0,0,183.74,147.57Z"/><path class="cls-70" d="M100.35,174.72a1.93,1.93,0,0,1,.71-0.3c4.63,0.18,7.82-1.52,9.5-6.19a3.38,3.38,0,0,1,5.21-1.71,7.68,7.68,0,0,1,3.25,7.4,3.52,3.52,0,0,1-.74,1.35c-0.69,1-.86,2,0.12,2.77,1.17,0.95,1.75-.41,2.62-0.78,1.14-.48,1.58-4,3.63-1l-4.71,5.31c-1.15,2-.45,5.53-4.41,5a1.47,1.47,0,0,0-.71.24c-1.87,5.32-5.79,3.51-9.41,2.71a3.66,3.66,0,0,1-2.85-2.28,27.3,27.3,0,0,0-3.92-7.08C95.88,177.05,96.23,175.45,100.35,174.72Z"/><path class="cls-79" d="M87.67,168.41c0.35,1.63-.28,3.41-1.73,3.36-1.88-.06-3.81-1.07-5.54-2-0.67-.36.06-1.14,0.77-1.25a5.25,5.25,0,0,0,3.44-1.63C85.93,166.78,86.63,167.92,87.67,168.41Z"/><path class="cls-80" d="M204.91,137.63c-2.87,2-6.31,2.18-9.5,3.17-0.75.23-1.67,0.36-2.12-.41-0.6-1,.24-1.75.91-2.32,2.61-2.19,5.34-4.14,9-3.55h3.56Z"/><path class="cls-81" d="M159.86,111.14c0.11-1.3-.6-3.52,2-3.49,4.15,0.05,3.42,4,4.29,6.32,0.67,1.84-1,2.55-2.86,2.58C159.43,116.61,160,113.76,159.86,111.14Z"/></svg>