<svg id="Layer_1" data-name="Layer 1" xmlns="http://www.w3.org/2000/svg" viewBox="0 0 189.86 147"><defs><style>.cls-1{fill:#002e71;}.cls-2{fill:#005980;}.cls-3{fill:#0040a1;}.cls-4{fill:#0048d5;}.cls-5{fill:#002862;}.cls-6{fill:#003d6f;}.cls-7{fill:#d7ebf5;}.cls-8{fill:#36773e;}.cls-9{fill:#288270;}.cls-10{fill:#002c80;}.cls-11{fill:#106556;}.cls-12{fill:#017ea7;}.cls-13{fill:#dcf6f7;}.cls-14{fill:#dbf2f5;}.cls-15{fill:#a3e4ec;}.cls-16{fill:#a0e7eb;}.cls-17{fill:#046d68;}.cls-18{fill:#0081d0;}.cls-19{fill:#044032;}.cls-20{fill:#004a7e;}.cls-21{fill:#0055b7;}.cls-22{fill:#0089d0;}.cls-23{fill:#3b7d4b;}.cls-24{fill:#fdcf34;}.cls-25{fill:#5d4f11;}.cls-26{fill:#106b57;}.cls-27{fill:#a28325;}.cls-28{fill:#0078af;}.cls-29{fill:#038cd2;}.cls-30{fill:#037a8d;}.cls-31{fill:#003e62;}.cls-32{fill:#009596;}.cls-33{fill:#003a6e;}.cls-34{fill:#005f76;}.cls-35{fill:#f2f7f9;}.cls-36{fill:#f9f2f6;}.cls-37{fill:#8ed1e7;}.cls-38{fill:#016f5f;}.cls-39{fill:#00a0bb;}.cls-40{fill:#00bad3;}.cls-41{fill:#0097df;}.cls-42{fill:#1b413a;}.cls-43{fill:#0065a6;}.cls-44{fill:#3e643b;}.cls-45{fill:#de9b40;}.cls-46{fill:#089480;}.cls-47{fill:#6f7c3f;}.cls-48{fill:#2e3015;}.cls-49{fill:#e98a17;}.cls-50{fill:#fefdfe;}.cls-51{fill:#011f36;}.cls-52{fill:#366e39;}.cls-53{fill:#003066;}.cls-54{fill:#00a3ab;}.cls-55{fill:#00a4a5;}.cls-56{fill:#00afbf;}.cls-57{fill:#004b61;}.cls-58{fill:#0b8379;}.cls-59{fill:#013c66;}.cls-60{fill:#0a5d88;}.cls-61{fill:#e6fbfc;}.cls-62{fill:#f2f8fb;}.cls-63{fill:#00a5d2;}.cls-64{fill:#0171a9;}.cls-65{fill:#abfafd;}.cls-66{fill:#0390ad;}.cls-67{fill:#fbf4f6;}.cls-68{fill:#216d59;}.cls-69{fill:#eff7f7;}.cls-70{fill:#008ec2;}.cls-71{fill:#1a3625;}.cls-72{fill:#c6a24c;}.cls-73{fill:#066781;}.cls-74{fill:#025e80;}.cls-75{fill:#024874;}.cls-76{fill:#d9c5b9;}.cls-77{fill:#edfafb;}.cls-78{fill:#e0fcfe;}.cls-79{fill:#6da7cb;}.cls-80{fill:#faf8fa;}.cls-81{fill:#fbf9fb;}</style></defs><title>splash</title><path class="cls-1" d="M114.57,49.14a23.22,23.22,0,0,0-2.81,2.72c-0.81,1.08-.06,2.34.33,3.36a13.12,13.12,0,0,1,.91,4.83c0,2,1.82,3.4,2,5.45,0.26,3,2.81,5,3.84,7.71,0.35,0.91,1.19.61,1.88,0.74,1.11,0.21,2.53.34,1,2a1.59,1.59,0,0,0,.22,2.18,3.54,3.54,0,0,1,.66,2.62,1,1,0,0,1-1.13.1,2.7,2.7,0,0,0-2.79-.26,0.84,0.84,0,0,1-1.13-.49c0.6,1.94.06,4.12-.15,6.27a7.11,7.11,0,0,0-.06,2.74c0.57,2,.28,3.68-1.68,4.79-0.67.5-1.39-.26-2.06,0.07a1.66,1.66,0,0,0-.51.31c-0.89.73-1.81,1.34-2.66,0a2.25,2.25,0,0,1,1-2.89c2.07-1.15,2.41-1.77,2.15-4a26.63,26.63,0,0,0-.64-2.92,1.29,1.29,0,0,0-1.41-1.09c-1.78-.06-2-0.44-1.5-2.2a12.87,12.87,0,0,0,0-8.41,5.08,5.08,0,0,0-1.22-2.14c0.21,1.58.11,2.77,0.36,3.87,1,4.29-.15,8.17-2.09,11.91-0.57,1.11-1,2.16-.16,3.34a1.45,1.45,0,0,1-.39,2,14.68,14.68,0,0,1-3.28,2.89c1.23,0.28,2.6-1.06,3.4.55a5.32,5.32,0,0,1-2,1.16,5.81,5.81,0,0,0-3.27,3.34,0.72,0.72,0,0,1-.78-0.71c-0.17-1.13-.44-2-1.91-1.94a1.09,1.09,0,0,1-1-1.26,3,3,0,0,0-1.13-2A1.29,1.29,0,0,1,97,92.11c1.33-.68,1-2.63,2.49-3.22a8.58,8.58,0,0,1,1.87,0,3.41,3.41,0,0,1,.53,0c1.64-.32,1.79-0.78.75-2.28a1.37,1.37,0,0,1-.36-0.46,1.12,1.12,0,0,1,.21-1.14,2.27,2.27,0,0,1,1.8.09,1,1,0,0,0,1.47-.8c1.43-4.3,2.34-8.65,1.17-13.18-0.93-3.28-2.2-6.46-2.8-9.83,0.05-1.54-1.08-2.62-1.56-4-0.34-1.75-.12-3.32,1.47-4.44,1-.46,1.94-0.09,2.91,0,2.17,0.18,3-.53,2.92-2.72a1.17,1.17,0,0,1,1-1.44c1.22-.12,2.44-0.56,3.67,0v0.41Z"/><path class="cls-2" d="M152.46,67.77a11.57,11.57,0,0,1,.44,3.32c0.06,1.33-.26,2.21-1.75,2.28a1.71,1.71,0,0,0-1.17.68c-0.48.53-1.28,1.19-.83,1.81a3.17,3.17,0,0,0,2.1.92,1.46,1.46,0,0,0,1.59-1.22,9.89,9.89,0,0,1,.29-1.15c0.12-.35.09-0.91,0.61-0.89a0.91,0.91,0,0,1,.74,1c0.83,2.1.48,3.26-1.34,4.35a6.26,6.26,0,0,1-2.79,1,8.76,8.76,0,0,0-4.42,1.64,3.07,3.07,0,0,1-1.74.24c-0.67-.07-1,0.13-0.88.88,0.16,1.49-.89,1.67-1.93,1.47a10.63,10.63,0,0,0-3.88-.52,1,1,0,0,1-1.1-.68,0.87,0.87,0,0,1,.49-1.15c1.52-.86,1.7-2.44,2.09-3.89,0.17-.65,0-1.14-0.78-0.56-0.43.28-.85,0.78-1.39,0.31a1.19,1.19,0,0,1-.22-1.3,5.44,5.44,0,0,1,1.86-3c0.1-2.22,2.39-4.15,5.23-4.41,1.27-.57,2.13.2,3,0.94,1.5,1.33,3,.91,3.69-1.07a2.82,2.82,0,0,1,.52-1.46C151.64,66.5,151.91,67.7,152.46,67.77Z"/><path class="cls-3" d="M127.85,92.61a2.65,2.65,0,0,1-.06-1.34c1.75-2.45,1-4.68-.32-7-0.55-1-.81-1.38-1.85-0.59-0.62.47-1.86,1.12-1.72-.54,0.28-3.27-2.23-4.31-4.3-5.59-1.62-1-3.27-2-4.91-2.94-2.48-1.48-2.64-2.83-.85-6.06,0.53-1,.62-1.52-0.09-2.2a3.39,3.39,0,0,1-.89-1.75c-0.35-1.35.2-2.28,1.59-1.9,1.79,0.49,3.64-.15,5.4.61,0.88,0.38,1.42-1.1,2.57-.84,0.27,0.06.15-1.44,0.22-2.22l0-.05c1.41-.95,2-2.92,4-3.16,1,0.84-.21,2.51,1.21,3.19a5.28,5.28,0,0,0-1.19,4.35,0.35,0.35,0,0,1,.11.32,0.2,0.2,0,0,1-.07.17c-0.74.08-.77-0.5-0.88-1a0.93,0.93,0,0,0-.68-1c-1-1.22.31-2,.56-2.88-1.53,1.22-1,3.23-1.75,4.81a2.8,2.8,0,0,1-2.3.28c-1.21-.32-1.75.1-1.33,1.28,0.62,1.73-.23,2.44-1.69,2.9-0.51.16-1,.22-1.54,0.38a1.72,1.72,0,0,0-.62,3.09,13.69,13.69,0,0,0,6.5,3.2c1.93,0.26,3.58.94,4,3.2A2.14,2.14,0,0,0,129.29,81c1.2,0.07,1-1,1.25-1.69a2,2,0,0,1,.51-1c0.9,3.51,1.16,7-.27,10.44a14.88,14.88,0,0,0-.83,3.26C129.64,93.71,128.88,93.39,127.85,92.61Z"/><path class="cls-4" d="M130.76,80.21a3.63,3.63,0,0,1-.07,1.38c-0.33.68,0.07,2-1.23,1.91s-2.83.06-3.08-1.57c-0.38-2.51-2-3.12-4.16-3.35-2.67-.29-4.62-2.06-6.73-3.46A1.51,1.51,0,0,1,115,73c0.41-.78.6-2,1.85-1.7,1.09,0.26,1.68-.63,2.58-0.82s0.27-1.08.15-1.64c-0.16-.76-0.65-1.46.14-2.19s1.18,0,1.74.26,1.44-.36,2.13.08c1.46,0.08.88-1.46,1.58-2,0.14-.5.37-1,0.76-0.2,0.31,0.68-.24,1.58.46,2.21,0.84,0.91,1.06,2.13,1.62,3.18Z"/><path class="cls-5" d="M96.77,114c0.66,2.38-1.27,3.23-2.62,4.39-0.59.5-.77-0.14-1-0.51a4.9,4.9,0,0,0-3.55-2.3c-1.13-.94-2.13,0-3.18.22-0.4.09-.83,0.29-1.06-0.14a0.75,0.75,0,0,1,.5-1.12,5.14,5.14,0,0,0,2.36-1.76c0.9-.9,2.39-1.62.71-3.22a1.88,1.88,0,0,1,.21-2.07c3.19-4.81,3.31-10.07,2.25-15.5-0.12-.6-0.42-1.35.21-1.61,0.83-.35,1.07.55,1.33,1.11a12.73,12.73,0,0,1,.71,10c-0.22.61-.76,1.25-0.19,1.85s0.94-.07,1.39-0.31a0.88,0.88,0,0,1,1.28.58c0.74,2.46,1.7,4.93.63,7.54a1.4,1.4,0,0,1-1.64,1.07c-1-.11-1.83,1.4-1.39,2.26a0.91,0.91,0,0,0,1.72.17C95.8,114.15,96,113.49,96.77,114Z"/><path class="cls-5" d="M157.21,69.45c-0.16,1.14-1.12,1.9-1.43,3-0.11.37-.3,0.86,0.05,1.06a2.1,2.1,0,0,0,1-.44,0.92,0.92,0,0,1,.1,1.11c-0.38.77-.37,2.09-1.65,1.87s-0.69-1.35-.85-2.16a44.63,44.63,0,0,1-.68,4.58,2.63,2.63,0,0,1-.95,1.67c-1,.68-2.08.29-1.89-0.84,0.26-1.51-.75-1.71-1.59-2.2-1.13-1.69-1-2.73,1.26-3.26,1.67-.4,2.37-2.55,1.66-4.25a7.25,7.25,0,0,0-.43-0.66c-1.1-2-1.09-3.81.64-5.44,1.23-.09,1.65.55,1.59,1.69,0,0.85-.08,1.59,1.25,1.2,1.08-.32,1.55.37,1.56,1.44A1.9,1.9,0,0,0,157.21,69.45Z"/><path class="cls-6" d="M177.24,64.4c-0.35-3,1.85-5.18,2.73-8a2.43,2.43,0,0,1,.46,2c-0.79.78-.23,1.94-0.77,2.78a2.71,2.71,0,0,0-1.22,1.87C178.23,63.68,178.08,64.35,177.24,64.4Z"/><path class="cls-7" d="M121.45,75.45c0-.6,0-1.2.13-1.79s-0.5-1.56.5-1.61c0.83,0,.7.94,0.79,1.59a1.77,1.77,0,0,0,.25.51,0.27,0.27,0,0,0,.3.18c1.12,0.51.78,1.46,0.56,2.24a1.12,1.12,0,0,1-1.65.58L121.94,77A1.31,1.31,0,0,1,121.45,75.45Z"/><path class="cls-6" d="M182.05,63.4A1.16,1.16,0,0,1,181,64.93a0.71,0.71,0,0,1-.86-1c0.16-.75,0-1.87,1.22-1.89C182.21,62.06,182,62.87,182.05,63.4Z"/><path class="cls-5" d="M180.8,59.56l0.49,1.58c-0.51.82-1.09-.08-1.63,0.06-0.39-1.11-.61-2.17.77-2.78A1.18,1.18,0,0,0,180.8,59.56Z"/><path class="cls-6" d="M181.66,61.27c1.95-.47,2.15-1,1.1-2.82,1.72,0.18,1,1.42.82,2.21C183.35,61.74,182.56,61.87,181.66,61.27Z"/><path class="cls-8" d="M125.22,50.07c0,1.61.68,2.62,2.39,2.74a3.17,3.17,0,0,0,.56.15c2.39,0.4,2.58.75,1.72,3.09-2.79,2.53-4.53,2.63-7.28.24a3.59,3.59,0,0,0-3.86-.79,5.54,5.54,0,0,1-5.32-.35,2.9,2.9,0,0,0-3.21.24,4.29,4.29,0,0,1-3.83.21,2.76,2.76,0,0,1-1.45-4.46c2.13-2.75,4.75-4.67,8.54-3.9,0.62,0.15,1.25.86,1.84,0.31s0-1.27-.3-1.79c-2.24-3.72-.91-6.73,1.59-9.74a31.4,31.4,0,0,1,9.93-8.18,31.33,31.33,0,0,1,5.08-1.77c0.72-.22,1.13-0.27,1-1.23a3,3,0,0,1,1.95-3.17c1.27-.6,2.22-1.9,3.85-1.7l0.78,0c0.19,2.26,1.29,3,3.47,2.28,0.88-.29,1.7-0.74,2.56-1.08,0.6-.24,1.23-0.63,1.69.27,0.54,1.06-.32,1.54-0.92,1.89a46.82,46.82,0,0,1-4.61,2.27,5.53,5.53,0,0,0-2,1.25c-0.32.35-.74,0.78-0.27,1.19a2.79,2.79,0,0,1,1,3.31,1.76,1.76,0,0,0,.57,1.59c0.79,0.44,1.07-.81,1.81-0.89-1.19,2.2-1.4,2.24-2.94.59a0.62,0.62,0,0,0-.64-0.34,0.75,0.75,0,0,0-.46.81c0.18,2.19-1.32,3.43-2.57,4.92-2.35,2.79-4.72,5.56-7.33,8.11a8.81,8.81,0,0,1-5.79,2.71c-0.83,0-1.44.23-1.52,1.17a3.74,3.74,0,0,1-3.21.58,8.44,8.44,0,0,0-1.59-.06c-0.64,0-1.45-.09-1.63.78s0.63,0.85,1.13,1.14c1,0.59,1.75,1.8,3.21.45a5.56,5.56,0,0,0,2.09-2.9c0.42,0.16.56,1.07,1.21,0.57C123.32,49.91,124.31,50.28,125.22,50.07Z"/><path class="cls-9" d="M145.26,32c-0.62,1.46-2.36,1.9-3,3.42a8.93,8.93,0,0,0-1.09,2.46,4.18,4.18,0,0,1-1.76,2.79,18.72,18.72,0,0,0-5.69,6.08,3.88,3.88,0,0,1-4.52,1.58,9.46,9.46,0,0,1,1.94-3c3.44-3.65,6.43-7.76,10.65-10.64C143,33.92,143.44,32.1,145.26,32Z"/><path class="cls-10" d="M98.06,44.82a8.21,8.21,0,0,1,4.13-2.08c2.52-.69,4.29-2.61,5.72-4.68,0.62-.9,1.2-1.88,1.75-2.85a19.14,19.14,0,0,0,6.58-6.1c1-1.66,2.58-2.63,4-3.82,1.9-1.64,3.9-3.14,5.07-5.46a4.27,4.27,0,0,1,1.18-1c-0.29,1-1.12,1.95-.79,3.15a2.35,2.35,0,0,0-.88,1.23c-0.9,1.7-1.6,3.56-3.78,4.22-1.4.43-1.64,2-2.46,3.08l-0.25-.05C115.84,32.28,114,34.73,112,37a32.58,32.58,0,0,1-9.13,7.54c-3.55,1.88-4.68,4.65-3.75,8.61a20.59,20.59,0,0,1,.38,3.75,2.64,2.64,0,0,1-1.48,2.62,1,1,0,0,1-.58.06c-2.34-.91-4.33-0.7-5.78,1.62a1.7,1.7,0,0,1-1,.64,1.22,1.22,0,0,1-1.58-.4,1,1,0,0,1,.39-1.38c0.43-.36,1.17-0.66.26-1.29a3.49,3.49,0,0,0-2-.15c-0.47,0-1,.07-1.11-0.55a0.88,0.88,0,0,1,.82-1c2.55-.59,3.92-2.56,5.43-4.44a7.45,7.45,0,0,0,1.86-4.51A6.24,6.24,0,0,1,98.06,44.82Z"/><path class="cls-11" d="M138.45,20a16.84,16.84,0,0,0-4.11,2.3,2.34,2.34,0,0,0-1,3.21c0.28,0.56.68,1.07-.51,1.09a16,16,0,0,0-8.59,3.11,32.4,32.4,0,0,0-7.29,6.71c-2.91,3.62-3.35,5.81-1.16,9.78,0.34,0.62,1.11,1.25.24,1.88a1.51,1.51,0,0,1-2.38-.49,1.84,1.84,0,0,1-1-1.38c-0.17-1.66-1.27-2.31-2.7-2.64a1,1,0,0,1-.71-1.06,1,1,0,0,1,1.26-.67c0.86,0.1,1.5-.09,1.49-1.14a6.41,6.41,0,0,1,.46-1.92,2.71,2.71,0,0,1,.88-1.1,3.28,3.28,0,0,0,1.64-2.29c1.12-1.67,1.83-3.63,3.42-5l0.18,0.06c-0.12,1.17.42,1.43,1.22,0.69a25.57,25.57,0,0,1,11.15-6,0.76,0.76,0,0,0,.71-0.58c0.3-2.89,3.36-2.94,4.79-4.67C137,19.18,137.76,20,138.45,20Z"/><path class="cls-12" d="M168,46.84c1,2.53,3.36,3.35,5.55,4.28,1.25,0.54,2.51,1,3.71,1.68a1.45,1.45,0,0,1-.33,1.21,2,2,0,0,1-2.07-.47,0.77,0.77,0,0,0-.94-0.76,2.14,2.14,0,0,1-1.16,0c-2.52-2.32-3.17-1.15-3.38,1.6-0.08,1-1.45,1.64-1.72,2.78a1.66,1.66,0,0,0,.38,1.4,1,1,0,0,1-1.09.26c-1.92-2.07-4.75-.46-6.85-1.76a1.45,1.45,0,0,0-2,.34c-0.38.44-1.09,0.86-.68,1.48s0.94,0,1.39-.22a1.54,1.54,0,0,1,2,.36c0.84,1.26,3.39.79,3.16,3.2,0,0.37.8-.06,1.23-0.09,0.88-.06,1.4.2,0.7,1.11s-0.47,2.66-1.84,3.43a1.44,1.44,0,0,1-.52-1.53c0.25-1.91-1.55-2.18-2.56-2.85-0.68-.45-1.07.7-0.81,1.3,0.76,1.77-.1,2.59-1.6,3.15a0.74,0.74,0,0,1-.41.39,6.84,6.84,0,0,1-3.32-.85c-1.08-.75-2.88-0.17-3.47-1.86-0.77-2-.63-2.45,1.33-4.05,0.38-.34-0.1,1.34.79,0.26a32.48,32.48,0,0,0,3-5.07c1.5-2.7,3.6-4.94,5.11-7.59a5.73,5.73,0,0,1,2.42-2C165.7,44.91,166.63,45.13,168,46.84Z"/><path class="cls-12" d="M156.42,77.18c-1.6.8-1-.54-1.14-1.17a40.65,40.65,0,0,0,.08-7.19c0.17-.87,1.07-0.84,1.59-1.29s1.08-.19,1.44-0.67l0.14-.17c0.47,0.17,1.15-.1,1.4.51s-0.44,1-.76,1.47c-0.67,1-2.24,1.06-2.34,2.52h0C156.26,73.16,157.05,75.22,156.42,77.18Z"/><path class="cls-13" d="M161.69,73.91a3.13,3.13,0,0,1,1.57-2.79,3.58,3.58,0,0,0,2.3-.89c0.54-.55.84-0.21,0.91,0.35C166.57,71.59,162.81,74.19,161.69,73.91Z"/><path class="cls-14" d="M168,58.51c-0.5-.18-1.34.36-1.48-0.49-0.11-.64.71-0.62,1.11-0.91,1.25,0,1.62-1.18,2.44-1.76,0.43-.3.9-0.79,1.36-0.28s-0.12.93-.49,1.26C170,57.15,169.42,58.34,168,58.51Z"/><path class="cls-15" d="M172.88,79.63a6,6,0,0,1-1.56.81c-1.18.22-1.7-.19-0.92-1.37C171.25,79.13,172.45,77.71,172.88,79.63Z"/><path class="cls-16" d="M174.84,53.54c0.7,0.12,1.56-.47,2.07.47-0.52,1.29-1.66,1-2.44.66S174.43,53.85,174.84,53.54Z"/><path class="cls-13" d="M165.52,69.41a0.88,0.88,0,0,1-.92.65,0.62,0.62,0,0,1-.68-0.74,0.58,0.58,0,0,1,.78-0.6A1.22,1.22,0,0,1,165.52,69.41Z"/><path class="cls-17" d="M144.41,57.67a0.64,0.64,0,0,0-.73.74c0.49,2.95-1.81,5-2.38,7.62-2.31,2.27-7.25,2.24-9.68-.17-1-1-2-1.9-3-2.87-1.74-1.69-1.76-3.25,0-4.91,0.72-.68,1.56-1.23,2.25-1.95a6.37,6.37,0,0,1,3.67-1.76,1.56,1.56,0,0,0,1.52-.72,6,6,0,0,0,4.4.82C142.71,54.21,143.74,55.19,144.41,57.67Z"/><path class="cls-18" d="M142.73,41.89c0.71-.38,1.12.29,1.4,1.11,0.63,1.87,2,3.54,1.18,5.8a3.3,3.3,0,0,1-2.1,2.41c-2.24.66-4.42,0-6.59-.46a0.92,0.92,0,0,1-.56-1.13,1.53,1.53,0,0,0-.36-1.3c-2.19-1.65-.83-3,0.58-3.84A14.93,14.93,0,0,1,142.73,41.89Z"/><path class="cls-19" d="M136,53.63c0.51,0.85.24,1.19-.71,1.14a5.78,5.78,0,0,0-4.1,1.58,0.94,0.94,0,0,1-1.58-.35c0.22-1.32.18-1.38-2-3.18a2.84,2.84,0,0,1,3.07,0C132.3,53.73,134.3,53,136,53.63Z"/><path class="cls-20" d="M75.22,51.27a3.05,3.05,0,0,0,.71.65c1.11,0.49,1.72,1,.41,2a1.2,1.2,0,0,0-.28,1.27,0.85,0.85,0,0,1,.17.81c-1.34,1.42-3.06,2.43-3.81,4.45A2.81,2.81,0,0,0,73,63.32c0.61,0.93,1.28.59,2.07,0.41a3,3,0,0,1,3.47,2.83,4.66,4.66,0,0,1-.92.76c-0.71.51-1.6,1-1.5,2s1.29,0.65,2,1a7.77,7.77,0,0,1,.73.32c1.39,0.92,1.88,6.29.68,7.46a4.08,4.08,0,0,1-.45.39c-2.22,1.6-3.69,3.48-2.9,6.5a4.43,4.43,0,0,1-.62,3.46,6.62,6.62,0,0,0-.75,6.6c-0.22,1-.94,1.07-1.77.91-2.4-1.87-2.68-3.61-.77-5.8,1.7-1.94,1.64-4.28,1.12-6.41a4.49,4.49,0,0,1,1.5-4.92,5.17,5.17,0,0,1,1.49-1c0.93-.49,1.67-1.08,1.46-2.31a1.92,1.92,0,0,0-2.1-1.68,1.94,1.94,0,0,1-.74-0.28,8.36,8.36,0,0,0-3.85-1.84c-1.22-2.44-2.33-3-5.16-2.62-1.33.17-2.72,0.69-3.94-.36,0-.5.23-1-0.62-1.11-0.46,0-1.14-.11-0.92-0.93a1.59,1.59,0,0,1,.77-0.34c1.71-.66,3.32-1.46,4.08-3.27a3.15,3.15,0,0,1,2-2,1.78,1.78,0,0,0,1.34-2.3A1.09,1.09,0,0,1,68.65,58c2.13-1.88,2-5.16,4.34-6.92A1.45,1.45,0,0,1,75.22,51.27Z"/><path class="cls-21" d="M76.06,56V55.18c1.06-.54,2.37-0.63,3-2,0.3-.7,1.22-0.46,1.81-0.29,2.48,0.72,4.53-.29,6.47-1.59,1.34-.9,1.65-2.11.31-3.27-1.05-.91-0.87-1.8-0.29-2.81a0.7,0.7,0,0,1,.74.78,17.84,17.84,0,0,0,7.17,2c0,3.62-3.46,8.31-7,9.35-0.42.13-.82,0.32-1.67,0.65,1.44,0.38,2.57-.44,3.48.36l-0.17.24a7.09,7.09,0,0,0-2.79,1.78c-0.76,1-1.65,1-2.39-.13,0.34-1-.41-1.4-1-1.9a6.65,6.65,0,0,0-5.66-2.06C77.4,56.29,76.67,56.62,76.06,56Z"/><path class="cls-22" d="M95.23,48c-2.07.74-6-.36-7.17-2,2.73-2,5.83-2.43,9.1-2a0.87,0.87,0,0,1,.9.84Z"/><path class="cls-23" d="M20.81,84.84a4.28,4.28,0,0,1-2.32-1.43c-0.65-.78-1.71-1.85.46-2.31s2.12-3,3.48-4.33c0.8-.77.95-2.7,2.64-0.73,0.53,0.61,1.46-.51,2.08-1,1.16-.93,2.24-1.51,3.26.14,0.14,0.63-.65,1.22-0.09,1.88,0.83,0.13.81-.78,1.29-1,2.37,2.26,3.19,2.38,5.16.77,1.47-1.89,2.25-1.95,3.39-.23,1.26,1.88,1.26,1.88,3,.59a3.91,3.91,0,0,1,1.31,1.59c0.5,0.85.94,1.7-.4,2.21-1.09.41-.9,1.25-0.82,2.14,0.13,1.4,1.22,2.71.47,4.21-1.31.79-2.31,0.14-3.15-.78s-1.88-2.06-2.77-3.13c-1.22-1.45-2.63-2.14-4.55-1.22-1.74.83-3.55,0.06-5.3-.11-2.19-.21-3.75.34-4.74,2.38C22.7,85.51,21.88,86.07,20.81,84.84Z"/><path class="cls-24" d="M37.36,52.75c0.8,0.57,1.06,1.7,2.56,1.56,1-.1.93,1.28,0.46,2.05-1.24,2.05-1.27,4.27-1.11,6.53a0.9,0.9,0,0,1,.13.54c-0.66,2.81.75,6.44,2.88,7.43,1.49,1.25,1.76,2.27.94,3.51a2.46,2.46,0,0,1-3.7.9c-1.26-.82-2.12.28-3.17,0.31-0.61-.09-1.45,0-1.12-1.05l2.32-1.36c1-1.25-.13-2.75.47-4,0-.07,0-0.13,0-0.2-0.05-1.52-2.39-2.33-1-4.52,0.85-1.31.44-3.43,0.59-5.19,0.35-1.77-.19-3.48-0.31-5.22Z"/><path class="cls-25" d="M39.25,63.12a0.4,0.4,0,0,0,0-.23,13.63,13.63,0,0,1,2.27-7.16c0.23-.32.15-1.1,0.85-0.72s0.26,0.61-.08,1c-0.71.91-.6,1,1.31,1.21L43.7,58c-2.31,1.43-2.36,3.85-2.68,6.14A2.49,2.49,0,0,0,42.45,66a2,2,0,0,1,1.36,1.58c-0.36,1.4-.61,2.91-2.67,2.51,0.37-1.69-.86-2.65-1.73-3.77S39,64.2,39.25,63.12Z"/><path class="cls-26" d="M129.64,56a2.17,2.17,0,0,0,1.58.35,10.48,10.48,0,0,1-2.19,2c-1.74,1.44-1.72,2.79-.13,4.29a25.41,25.41,0,0,1,3,2.86c1.24,1.62,5.46,2.23,7.26,1.26,0.68-.36,1.57-0.08,2.16-0.72,0.45,0.68-1.83,1.33,0,2,0.71,0.38.5,0.85,0.09,1.27a0.71,0.71,0,0,1-1.05.17,1.33,1.33,0,0,0-1.79-.24c-1.43.6-1.59,2.46-3.22,3s-2.26.38-2.54-1.21c-0.44-1.26-1,.12-1.49-0.07a0.93,0.93,0,0,1-.53-0.12c-0.66-1.56-2.47-2.31-2.87-4.06,0.17-2.32-1.36-3.6-3-4.82a8.59,8.59,0,0,0-1.61-.8c-2.67-1.25-3-1.08-3.64,1.73A4.31,4.31,0,0,1,118.29,65a6,6,0,0,0-1.18,1.83c-0.53.83-1,1.73-2.16,1.82a0.6,0.6,0,0,0-.53.22c-0.91,2.6-2.35,1.36-3.74.53a0.54,0.54,0,0,0-.23,0c-0.48.46,0.39,0.93,0,1.4-0.93.44-1.49-.22-2.13-0.68a1.8,1.8,0,0,1-.47-1.41c0.55-1.17.87-2.5,2.21-3.12,0.8-.39,2.16.31,2.37-1.22,0.17-1.29-.51-2-1.53-2.74a10.6,10.6,0,0,0-4.46-1.5c-2.07-.4-2.31-0.77-1.47-2.6a1.83,1.83,0,0,0-.21-2c-2-3.13-1.7-5.22,1.17-7.75a7.59,7.59,0,0,0,1.92-2.75A3,3,0,0,1,110,43.21c3.06-.05,2.76,2.64,3.6,4.4a8.64,8.64,0,0,0-7.77,3.13,3,3,0,0,0-.73,3.59c0.4,0.88,3.32,1.55,4.17.94a4.17,4.17,0,0,1,5.6.05c0.91,0.72,2.07.24,3.05-.16,2.11-.85,3.85-0.7,5.51,1.15a3.08,3.08,0,0,0,4.41.6A12.6,12.6,0,0,1,129.64,56Z"/><path class="cls-27" d="M121.25,50c-0.09.72,0.72,1.87,0.2,2-1.55.43-2.25,2-3.77,2.38a0.85,0.85,0,0,1-1-.49,1.55,1.55,0,0,0-1.61-1.15c-0.93-.06-1.12-0.79-1-1.6A1.19,1.19,0,0,1,115.38,50h5.87Z"/><path class="cls-28" d="M98.08,59.25c-0.11.62,0.56,0.75,0.74,1.19-2.53.68-2.54,0.68-3.46,3.18,0.32,0.6,1.63-.5,1.51.87a10.88,10.88,0,0,1-8.41.64A1.08,1.08,0,0,1,87.74,64c0.64-1.89.51-4.11,2.31-5.52l0-.18c2,0.75,1,1.42-.08,2-0.34.2-.82,0.28-0.63,0.8a0.75,0.75,0,0,0,1.18.29,4.89,4.89,0,0,0,1.76-1.56c1-1.95,2.44-1.66,4-1.1C96.92,59,97.51,59.1,98.08,59.25Z"/><path class="cls-29" d="M97.6,55.54c-0.4.9-.24,2.25-1.93,1.89-1.13-.24-2.14-0.56-2-1.92a2,2,0,0,1,2.37-1.84A1.57,1.57,0,0,1,97.6,55.54Z"/><path class="cls-30" d="M110,66c0.39-.84,1.84-1.89,1.12-2.4-1.25-.89-1.66-3.25-4.08-2.46-2.14.7-3.76-.6-5.24-2-0.75-.72,0-1.13.29-1.47a1.46,1.46,0,0,0,.22-2.06c-0.83-1.47.37-6.56,1.7-7.71a2.7,2.7,0,0,0,1.26-2.3,2.16,2.16,0,0,1,1.18-2,3.5,3.5,0,0,0,.65-0.47c1.76-1.64,3.17-3.74,5.73-4.34l-0.39,2.08a4.56,4.56,0,0,0-2,1.52c-0.35-.06-0.78-0.48-1,0.12-0.13.38,0.25,0.55,0.54,0.7a9.87,9.87,0,0,0-2.15,3,5.82,5.82,0,0,1-2.51,2.73c-1.73.92-1.9,4.71-.3,6.24,1.08,1,1.4,1.77.21,2.93-0.82.8-.52,1.45,0.66,1.51a11.34,11.34,0,0,1,6.23,2.26,1.42,1.42,0,0,1,.87,1.52C112.81,66,112.91,66,110,66Z"/><path class="cls-31" d="M109.88,79.68l-1.26-3.86c-0.78,4-3.11,4-5.54,3.69a3.2,3.2,0,0,1-2.49-1.5c-1.21-1.85-3.87-2.4-5.38-.83S91.85,79,89.73,78.71c-6-.81-8.44.7-10.6,6.34-0.8,2.1-1.59,4-4.38,4a7.85,7.85,0,0,1-2.4-.62,0.74,0.74,0,0,1-.59-0.72,0.83,0.83,0,0,1,.8-0.82c1-.22,2-0.39,3-0.62,0.63-.14,1.48-0.12,1.41-1.1-0.06-.82-0.74-1-1.43-1.19a2.42,2.42,0,0,0-2.16.2A5.13,5.13,0,0,1,70.2,85a1.65,1.65,0,0,1-.45-2.46c0.9-1.13,2.39-1.16,3.74-1.19,0.55,0,1.17.61,1.65,0.49,1.07-.25,2.91.94,3-0.46a3.14,3.14,0,0,0-2.87-3c-1.82-.11-3.22-0.27-4-2.27-0.34-.84-1.75-0.9-2.76-0.89a9.73,9.73,0,0,1-5.65-1.92,17.42,17.42,0,0,0-8.29-3.19c-2-.2-3.37-1.74-4.9-2.75a13.46,13.46,0,0,0-3.51-1.54c-1.82-.92-3.74-1.6-5.62-2.39,0.58-.94-0.64-2.36.61-3a9.72,9.72,0,0,1,6.15-1.12c3.83,0.71,7.69,1.12,11.54,1.56a4.54,4.54,0,0,1,2.16.68,8.13,8.13,0,0,0,5.24,1.53,4.83,4.83,0,0,1,3.63,1.58c0.74,0.75,1.71,1.5,2.69,1.11,3-1.18,5.86,0,8.78.07,2.47,0,4.87.31,6.81-1.81a2.69,2.69,0,0,1,3.12-.42c5.93,2.93,12.43,1.92,18.66,2.76a6.34,6.34,0,0,1,1.5.17,12.85,12.85,0,0,0,5.09.37c3.47-1.91,7.26-1.74,11-1.7-0.19.45-.75,1.53-0.08,1.24,3-1.31,5,.86,7.27,1.87,2,0.9,4,1.66,6,2.52,0.88,0.38,2.47.36,2.11,1.6a3,3,0,0,1-2.69,1.82c-2.08,0-4.17-.22-6.25-0.33-0.66,0-1.36-.35-1.24-1,0.48-2.35-1.24-2.2-2.61-2.5-3-.65-5.89-1.35-8.87,0a3.69,3.69,0,0,0-2.1,1.67,3.65,3.65,0,0,1-2,1.81c-1.69.69-2.56,1.61-1.21,3.4a1.39,1.39,0,0,1,.07,1.45c-0.65,1-2.94-.75-2.84,1.69,0,0.22-.64-0.16-1-0.42C111.5,79.58,110.87,78.64,109.88,79.68Z"/><path class="cls-32" d="M143.6,68.37a2,2,0,0,1,2-1.23c0.49,0.62,1.25.38,1.88,0.58,1.59,0.52,3.18-.3,4.77,0,0.63,0.42,1,.87.2,1.48-1.76,1.71-3.9.92-5.84,0.69a1.9,1.9,0,0,0-2.33,1.21,16.8,16.8,0,0,1-1.61,3.4c-1,1.34-1.79,2.95-3.87,3.43s-3,2.57-4.11,4.17a47.82,47.82,0,0,1-7.26,8.65,6.35,6.35,0,0,0-1.72,3.71c-0.2.9-.37,1.49-1.52,1.21a1.94,1.94,0,0,0-2.66,1.62c-0.17.8-1.06,1-1.51,1.52a6.25,6.25,0,0,0-2,1.15c-0.84,1.63-2.07,1.85-3.57,1a2.21,2.21,0,0,0-2-.15c-0.85,0-1.7,0-2.55,0-1.09,0-1,.56-0.64,1.26-0.3.78-1.1,1-1.68,1.45-1.37.23-2.53,1-3.85,1.39a1.16,1.16,0,0,0-.86,1.33,2.31,2.31,0,0,1-1.6,2.42,1.15,1.15,0,0,1-.93-1.76,3,3,0,0,0-.19-3c-0.79-1.53-.44-3.05.09-4.57,1-.85,2.26-1.37,2.91-2.59a1,1,0,0,1,1.49.31,1.33,1.33,0,0,1-.27,1.45,8.73,8.73,0,0,1-1.53,1.49c-0.53.45,0,.62,0.25,0.86,2.08,1.23,3.52.89,5-.8,3.52-4.12,6.69-8.5,10.15-12.67a8.7,8.7,0,0,0,.77-1.16,29,29,0,0,1,7-3.78c0.91-.4,1.87-0.69,2.74-1.18a4.59,4.59,0,0,0,3.16-3.32,6,6,0,0,1,4.13-4.19,9.71,9.71,0,0,0,5.14-3.58A4.49,4.49,0,0,1,143.6,68.37Z"/><path class="cls-33" d="M112.41,100.76a1.8,1.8,0,0,1,2-.25c1.51,1.25,2.52.45,3.57-.56a2.46,2.46,0,0,1-3.77,1.37A4.22,4.22,0,0,0,112.41,100.76Z"/><path class="cls-34" d="M152.48,69.2a1,1,0,0,0,0-1.17c1.2-.88,2.24-0.5,3.21.4-0.21,2.53.43,5.09-.37,7.59,0-1.58-.06-3.17,0-4.75,0-1.2.12-2.31-1.69-1.71A2.31,2.31,0,0,1,152.48,69.2Z"/><path class="cls-34" d="M156.42,77.18c0.24-2-.45-4,0.42-6C156.62,73.19,157.36,75.24,156.42,77.18Z"/><path class="cls-35" d="M147.29,68c-0.57-.24-1.9,1-1.66-0.83l0.76-.32c2.74-1.32,5.61-1.17,8.51-.82l3.5,0.86c0.47,1.55-1,.26-1.19.8a1,1,0,0,1-.72.27C153.42,67.16,150.36,68.23,147.29,68Z"/><path class="cls-17" d="M154.9,66l-8.51.82c0.07-.83,1.72-1.42.38-2.47,0.17-1.2,1-1.32,2-1.32a3.16,3.16,0,0,0,2.87,1.35C152.27,65.84,154.29,64.5,154.9,66Z"/><path class="cls-36" d="M151.64,64.37c-2.12,1-2.33.87-2.93-1.3a0.5,0.5,0,0,1,0-.41c0.39-1.49,2.11-1.92,2.66-3.32a1,1,0,0,1,1.28-.1c0.48,0.32.13,0.84,0.07,1.28C151.8,61.64,150.75,62.73,151.64,64.37Z"/><path class="cls-33" d="M147.29,68c3.3-.5,6.59-1.07,9.93-0.3-0.11,1.1-1,.62-1.56.76-1.08-.05-2.1-0.62-3.21-0.4C150.72,67.9,149,69,147.29,68Z"/><path class="cls-17" d="M143.6,68.37c-2,1.42-2.94,4-5.38,4.84a9.92,9.92,0,0,0-6.91,6.64,2.66,2.66,0,0,1-2.47,1.74,4.51,4.51,0,0,1,0-1.2,14.86,14.86,0,0,0,2.66-4.13,5.32,5.32,0,0,1,3.88-3.37,8.79,8.79,0,0,0,3-1.51c1.22-.82,1.41-1.67.13-2.61a1.38,1.38,0,0,1,1.92,0c0.72,0.61.75,0.57,0.9-.75C142.51,67.14,142.51,67.14,143.6,68.37Z"/><path class="cls-37" d="M148.74,62.66a1.58,1.58,0,0,1,.07.29,0.3,0.3,0,0,1-.1.12,4.14,4.14,0,0,0-1.94,1.28l-0.38.33c-0.65.57-1.34,1.45-1.65-.24A4.31,4.31,0,0,1,148.74,62.66Z"/><path class="cls-17" d="M144.74,64.43c0.33,1.57,1.08.33,1.65,0.24a1,1,0,0,1-.9.9c-0.42.06-.91,0.6-1.25,0.13S144.24,64.73,144.74,64.43Z"/><path class="cls-38" d="M20.81,84.84c1,0.43,1.64.53,2.09-.81,0.7-2.05,2.47-2.73,4.7-2.55s4.6,0.92,6.95-.29c1.6-.82,2.65.75,3.65,1.68A30.31,30.31,0,0,1,41,86.21a3,3,0,0,0,2.67,1,4.49,4.49,0,0,1,1.65,4.18c0.06,0.47-.67,1.06,0,1.38s1.26,0.78.87,1.63A2.25,2.25,0,0,1,44,95.81c-0.65,0-1.3-.28-1.86.25-1,.1-1.95-0.09-2.92,0-0.42,0-.32.27-0.25,0.52-1.86,1.1-3.06,2.95-4.74,4.23-0.74.56-2,0-2.61,1-2.06.54-4.38-.06-6.25,1.39-0.22.17-.44,0.27-0.34,0.6a11.47,11.47,0,0,0,2.64,1.34c1.23,0.68,1.56,1.44.76,2.72a8.32,8.32,0,0,1-2.36,2.63,0.86,0.86,0,0,1-1-.9c0.75-2.83.23-3.71-2.59-4.36-2.16-.5-3-1.78-2.47-3.93a2,2,0,0,0-.67-2c-1-1.09-2-2.13-3-3.2a6.91,6.91,0,0,1,2-10.56,3.32,3.32,0,0,0,.89-0.41C19.76,84.94,20.59,86.25,20.81,84.84Z"/><path class="cls-39" d="M42.05,96c0-.86.13-1.55,1.24-0.94a1.62,1.62,0,0,0,.87.37c0.83-.24,1.81-0.61,1.77-1.6,0-1.18-1.18-.28-1.81-0.66l0.71-1.61c0.6-1.29,0-2.61.07-3.91,0-1.12,0-2.24,1.26-2.63s1.64,0.79,2.11,1.63a7.75,7.75,0,0,0,.52.85c0.87,1.16,2.43,1.71,3.31,1.18,0.61-.37.58-2.55-0.05-3.52-0.11-.16-0.29-0.28-0.4-0.44-1.06-1.5-.35-3.45,1.46-3.55s3.06-.25,3.34-2.26a0.71,0.71,0,0,1,.35-0.47c2.56-1.33,2.47-4.08,3.32-6.31a2.16,2.16,0,0,0-.51-2.73c-0.49-.37-1.46-0.57-1-1.4,0.33-.65,1.17-0.47,1.83-0.35a2.59,2.59,0,0,1,1.59.8,5.3,5.3,0,0,0,3.67.11,7,7,0,0,1,2.93,0c1.74,0.33,3,.89,2.67,3,0.08,1,.82.39,1.23,0.49a3,3,0,0,1,2.35,3.24c-0.16,1.37-.75,1.74-2,1.14a1.38,1.38,0,0,0-1.29.06c-2.46,1-2.68,1-3.94-1.51A3.49,3.49,0,0,0,68,77.92a1.25,1.25,0,0,1-.66,1.94,17.07,17.07,0,0,1-4.16,1.5c0.7,0.9,1.3,1.72,2,2.46,0.88,0.93,1.78,2,3.12.56a0.91,0.91,0,0,1,.93-0.23c1.43,0.53,2,1.9,2.69,3,0.46,0.76-.09,1.55-0.77,2.07a2.94,2.94,0,0,1-3.36.4,2.64,2.64,0,0,1-1.56-1.48c-0.46-1.72-1.85-2.34-3.27-2.94-1.22-.51-2.58-0.81-2.82-2.47C60,82.12,59.41,82.3,59,82.33a1.58,1.58,0,0,0-1.6,1,1.17,1.17,0,0,0,.49,1.41c1.47,0.91,2.67,2.23,4.22,3a8,8,0,0,1,3.39,3.27c0.39,0.64.86,1.36,0.06,1.94s-1.38,0-1.93-.52a13.69,13.69,0,0,0-1.76-1.83c1.3,2.33,1.85,4.72.85,7.28-0.12.3-.2,0.73,0.21,0.86a1.08,1.08,0,0,0,1.34-.59c0.3-.54.36-1.74,1.09-1.37,1.7,0.87,3.89-1.71,5.22.85A1.78,1.78,0,0,1,69.66,99a5.9,5.9,0,0,1-2.25.71c-2.14.31-4.1,0.94-5.24,3-0.17.2-.35,0.4-0.51,0.61-0.32.42-.62,0.94-1.27,0.66a1.1,1.1,0,0,1-.6-1.34,6.35,6.35,0,0,0-.49-3.48,1,1,0,0,0-1.22-.58,1.15,1.15,0,0,0,.3.62c0.16,1.93-1.13,1.18-1.93.94S55.23,99,54.72,98.32c-1.35-1.82-2.09-2-4.18-1a0.89,0.89,0,0,1-.73-0.22c-0.65-.57-1.29-1.27-2.26-0.67a2.09,2.09,0,0,0-1,2,2.29,2.29,0,0,0,1.67,2.24c1.77,0.36,2.79,2,4.51,2.41,0.26,0.06.25,0.42,0,.66a3.61,3.61,0,0,1-2.14.31,2.41,2.41,0,0,0-1.51.37c-2.52,1.72-2.56,1.7-3.33-1.14a16.06,16.06,0,0,0-3.17-5.67A1.56,1.56,0,0,1,42.05,96Z"/><path class="cls-40" d="M70.47,97.65c-1.15-.75-2.25-1.37-3.49,0-0.82.89-1.13-.51-2-0.6a2,2,0,0,1-2.19,2.42c-1,0-1.3-.32-0.88-1.16,1.32-2.65.85-5.1-.68-7.48-0.24-.37-0.64-0.9-0.22-1.26,0.61-.53.93,0.23,1.25,0.56,0.64,0.67,1.16,1.44,1.78,2.13,0.35,0.38.81,0.86,1.35,0.34s0-.83-0.24-1.22a9.87,9.87,0,0,0-3.9-3.49,28.89,28.89,0,0,1-4-2.85A1.52,1.52,0,0,1,56.73,83a1.79,1.79,0,0,1,1.82-1.28c0.82,0.14,3-1.13,2.07,1.54-0.16.5,0.69,0.72,1.15,0.94a31.69,31.69,0,0,1,3.56,1.65,1.86,1.86,0,0,1,1.14,1.63c0.07,1.34,1.24,1.66,2.19,2a2.42,2.42,0,0,0,2.51-.89,1.11,1.11,0,0,0,0-1.87A3,3,0,0,1,70,85.4c-0.49-1.28-1.23-1.35-2-.21s-1.37.63-2.24,0c-1.38-.93-1.8-2.72-3.44-3.44-0.67-.29-0.17-0.92.5-1A13.19,13.19,0,0,0,67,79.5c0.74-.3,1.08-0.57.43-1.41a4.12,4.12,0,0,1-.58-2.88c0-.46-0.06-1,0.56-1.11a1,1,0,0,1,1,1C69,77,69.67,77.24,71.28,76.13c1.39-.95,1.39-0.95,2.46.53A2.31,2.31,0,0,0,74,73.58a1.91,1.91,0,0,0-2.55-.91,0.73,0.73,0,0,1-1-.25c-0.2-.65.56-0.56,0.86-0.85,1.73-.4,2.89.54,3.94,1.7a5.79,5.79,0,0,1,0,5.52,4.91,4.91,0,0,1-.87,1.31,2,2,0,0,0-.64,2.59,11.91,11.91,0,0,1,.33,4.93A4.24,4.24,0,0,1,73,90.14c-2.07,2.31-2.05,2.79-.1,5.44C72.69,97,71.58,97.31,70.47,97.65Z"/><path class="cls-41" d="M82,60.37c-0.73,2.3-1.25,4.73-3.65,6,0.07-.52.27-1.18-0.59-1.12s-2,1-1.27-1c0.1-.29-1.14-0.35-1.69,0s-1.57.81-1.69,0.19c-0.25-1.32-2.29-1.76-1.6-3.33,1-2.18,2-4.34,4.54-5.18,2.43-.46,4.78-0.51,7,0.87a1.39,1.39,0,0,1,1,1.48,1,1,0,0,1-.74.83h-0.8c-1.69-.43-3.33-0.59-4.87,1.25A23,23,0,0,0,82,60.37Z"/><path class="cls-42" d="M59.24,65.56a2.5,2.5,0,0,0,1.22,1.24c0.42,0.56,1,.37,1.6.44s1,0.13,1,.68-0.69.37-1.05,0.54c-0.53-.17-1.18.12-1.6-0.44-1.36-.62-2.11-0.13-2.66,1.21-0.43,1.05-.13,2.24-0.77,3.21-1.19.7-2.17,0-3.2-.44-0.65-.4-1.25-0.89-1.93-1.26S49.9,70,50.23,68.62c0.22-.89,2.6-2.77,3.41-2.73s1.61,0.93,2.4.1-0.44-1.45-.16-2.23a0.89,0.89,0,0,1,.21-0.33C58.12,62.69,58.5,64.4,59.24,65.56Z"/><path class="cls-43" d="M70.47,97.65l2.41-2.08c0.69,0,1.48.22,1.63-.82,0.78,2.26,2.93,1.93,4.63,2.37,0.69,0.18,1.07-.31.49-0.91a2.39,2.39,0,0,1-.78-1.95c0-.64-0.16-1.46.89-1.4a1.29,1.29,0,0,1,1.47,1.28c0,1.22-.28,2.67,1.66,2.81a0.45,0.45,0,0,1,.22.66,0.75,0.75,0,0,1-.84.39c-1.42-.12-2.4.06-2.33,1.94,0,0.82-1.41,1-1.72,2a1,1,0,0,1-.61-0.62c-1.12-1.73-2.84-1-4.37-1.06a0.76,0.76,0,0,1-.59-0.88c0.44-1.11,1.45-.93,2.4-1a2.77,2.77,0,0,0-3.06.16c-0.7.41-1.44,1.06-2.31,0.29C69.59,98.14,70.23,98,70.47,97.65Z"/><path class="cls-39" d="M75.25,78.8q0-2.76,0-5.52c0.92,0.49,2.35-.41,2.87,1.35C78.74,76.86,78.38,77.57,75.25,78.8Z"/><path class="cls-10" d="M83.29,59.2L84,58.37a1.3,1.3,0,0,1,1.46.93c0.17,0.55-.22.63-0.61,0.7Z"/><path class="cls-44" d="M52.82,54.83c0.36,2.2-1.64,3.15-2.52,4.7-0.36.64-1.44,1.05-.82,2s1.22,1.8,2.48,1.7a16.44,16.44,0,0,1,4.1.41,1.3,1.3,0,0,0,.46,1.05,1,1,0,0,1,.09,1.69c-0.55.54-1.13,1-2.06,0.41s-3.87,1-4,2.11,1.1,0.94,1.53,1.53a19.11,19.11,0,0,0-1,2.15c-0.19.73-.49,1.48-1.45,1.29a2.91,2.91,0,0,1-2.12-1.94,1.35,1.35,0,0,1,.83-1.79,1.81,1.81,0,0,0,1-.81c-1.45-.31-2.73.26-4,0.4C44.8,69.14,44,68.84,44,67.91a4.28,4.28,0,0,0,2.47-4.82,1.14,1.14,0,0,0-1.13-.9,2.14,2.14,0,0,1-1.78-2.3c0.1-.51.11-1.09,0.85-1.12,1.68-1.66,4.33-1.52,6-3.26A2.64,2.64,0,0,1,52.82,54.83Z"/><path class="cls-45" d="M44.43,58.77A1.28,1.28,0,0,0,44,60a0.8,0.8,0,0,0-.15.75c0.62,1.4,0,2.09-1.32,2.37a4.07,4.07,0,0,0-.78,1.06,0.82,0.82,0,0,1-1.24.21c-0.41-1.66.92-3,.72-4.76C41.1,58.52,42.8,58.5,43.7,58a1.68,1.68,0,0,1,.85-0.23C45,58.1,44.51,58.44,44.43,58.77Z"/><path class="cls-46" d="M56.81,72.41c0.18-1.19-.23-2.42.54-3.6s1.74-1.63,3-.79a3.25,3.25,0,0,0-1.73.24c2.44,1.22,2.74,2,1.78,4.73a16.8,16.8,0,0,0-1,3.23A2.05,2.05,0,0,1,58,78.13a1.87,1.87,0,0,0-1.39,2.09c0.08,1.64-1.46,1.44-2.53,1.37-1.4-.09-2.34.25-2.56,1.79-0.05.36-.09,0.81,0.21,0.88,1.75,0.44,1.21,1.85,1.26,3,0,0.74.36,2.2-.08,2.11-1.09-.21-2.15.67-3.24-0.18a6.08,6.08,0,0,1-2.13-2.78c-0.2-.54-0.38-1.31-1.18-1a1.42,1.42,0,0,0-1,1.69,9.08,9.08,0,0,1-.51,4.57c0.71-1.76-1.19-2.8-1.2-4.36s-0.79-3.18-1-4.81c-0.15-1-.09-1.75.86-1.83,1.82-.15.78-1.06,0.61-1.77a1,1,0,0,1,.78-0.29,8.59,8.59,0,0,1,3.45,2.61,1.38,1.38,0,0,0,2.05.25,8.36,8.36,0,0,0,3.82-4.15C54.85,75.52,56.66,74.42,56.81,72.41Z"/><path class="cls-47" d="M45,78.7l-0.9.1c-0.27-.55-0.87-0.94-0.85-1.65,0.51-1.21.44-2.65,1.48-3.64,0.25-.17.4,0.68,0.51,0.17,0.17-.77.3-1.56,0.53-2.31,0.5-.77-0.78-1.06-0.47-1.78,1-1.51,2.95-.3,4.2-1.29,0.23-.18.56,0.45,0.58,0.86a1,1,0,0,1-.89,1.28c-1.84.49-1.91,0.94-.6,2.28,1,1,1.67,1.42,2-.46,0.15-.78.26-1.81,1.46-1.85a3.43,3.43,0,0,1,1.64,1.13,0.7,0.7,0,0,1-.07,1.26,5.67,5.67,0,0,0-2,2.8,1.31,1.31,0,0,1-2,.85c-2.12-1.56-2.7-1.41-3.71,1A1.66,1.66,0,0,1,45,78.7Z"/><path class="cls-48" d="M44.74,73.57c-0.55,1.18,0,2.81-1.52,3.58-0.57.44-.06,1.67-1.34,1.67S40.31,77.74,39.79,77c-0.35-.52-0.32-1.39-1.24-1.27A1.37,1.37,0,0,0,37.3,77c-1-.25-0.81-1-0.74-1.74,1.18-.69,2.13-1.82,3.65-0.12,1.07,1.2,2-.43,2.64-1.16,1-1.11.3-2-.68-2.79C41.75,70.9,41,70.83,41.33,70c1.6,0,1.47-1.66,2.31-2.4,0.38-.13.49,0,0.46,0.39,0.48,0.46,1.39.61,1.18,1.58a2.16,2.16,0,0,0,1.05.78c0.78,0.61.21,0.77-.32,0.93s-1.29.1-1,1.07A0.86,0.86,0,0,1,44.74,73.57Z"/><path class="cls-49" d="M15.37,31.56l0.84,1.19a2.47,2.47,0,0,1-2.53-2.85,2,2,0,0,0-.45-1.46c-1.08-1.27-.8-2.52.06-3.76a4.35,4.35,0,0,0,1.92,4.42c0.9,0.66,1.9,1.28,0,1.94C15.2,31,15.32,31.37,15.37,31.56Z"/><path class="cls-47" d="M44.09,68l-0.45-.39c-0.62-1.48-3-1.29-3.12-3.22L41.59,64a2.81,2.81,0,0,1,.92.72c0.38,0.31.8,0.92,1.27,0.24a1,1,0,0,0-.4-1.37,3.36,3.36,0,0,1-1.32-.8c2,0.07,1.44-1.74,2-2.75a1.7,1.7,0,0,0,2.08,1.82c1.16-.1,1.35.3,1,1.17a9.77,9.77,0,0,0-.26,2.56C46.66,67.16,46.09,68.39,44.09,68Z"/><path class="cls-50" d="M138.46,68.75c0.54,0.24,1.48-.55,1.66.47a1.89,1.89,0,0,1-.81,2.1c-1.15.61-2.08,1.56-3.47,1.83a5.14,5.14,0,0,0-4.13,3.59,9.68,9.68,0,0,1-2.78,4c-2.27,2.22-5.2,2.24-8,1.94-2.27-.24-3.53-3.24-2.64-5.29a5.25,5.25,0,0,0,.39-1.32c0.64-4.21,3.51-6.16,7.7-5.14,1.54,0.37,3,1,4.5-.13a0.66,0.66,0,0,0,.36-0.11c0.65-.12,1.32-0.5,1.92.13,0.12,1,.23,2.08,1.6,1,0.75-.6,2.52-0.16,2.12-2.07C136.86,69.54,137.91,69.09,138.46,68.75Z"/><path class="cls-51" d="M130.91,70.83c-0.58,1.61-1.5,1.79-3,1.06A6.1,6.1,0,0,0,120.41,73a3.66,3.66,0,0,0-1.11,2.46,2.92,2.92,0,0,1-.16,1.55c-2.39,2.35.13,3.47,1.16,5a1.24,1.24,0,0,0,1.41.49c2.41-.57,5-0.27,7.24-1.73,0.34,0.32,0,.56-0.1.82-2.59,1.24-5.18,2.47-7.76,3.73-0.64.31-1.22,0.72-1.83,1.09-0.36.4-.62,1.21-1.32,0.72s-0.11-1.24.19-1.84c2-1.94,2-1.95-.82-3.23a1.21,1.21,0,0,1-.74-1.46c0.21-1.07,0-2.26.95-3.15a2.55,2.55,0,0,0,.53-2,3.34,3.34,0,0,1,.79-2.18,7.21,7.21,0,0,1,2-2.15c0.37-.23.88-0.48,0.55-1.08a0.82,0.82,0,0,0-1-.34c-2,.87-4.34.48-6.31,1.49a2.9,2.9,0,0,1-3.65-.37c0-.68-1.53-1-0.6-1.73a1.45,1.45,0,0,1,2.23.48c0.28,0.46,1.1,1,1.13.57,0.17-2.41,3-1.66,3.68-3.31,3-.38,5.84-1.72,9-1.2,0.95,0.16,1.89,0,2.21,1.22C128.77,68.31,130.85,68.84,130.91,70.83Z"/><path class="cls-52" d="M128,66.82a10.2,10.2,0,0,0-7.45-.23c-1.28.49-2.45,0.94-3.74,0.2a1.85,1.85,0,0,1,.63-1.6,4.29,4.29,0,0,0,1.84-3.92c-0.1-1.15.77-1.57,1.9-1.34a10,10,0,0,1,7.4,5.65C128.94,66.28,128.52,66.55,128,66.82Z"/><path class="cls-53" d="M108.48,69.93c-0.74.47-1.21,1.94-2.39,0.94-1.45-1.25-1.45-2.82-.21-4,0.44-.4.93-0.75,1.33-1.19a1,1,0,0,0-.27-1.66c-1.72-1.19-8.22-1.24-10.08-.06-0.82.08-1.58,0.67-2.6,0.19,1.44-1.42,1-4.93,4.56-3.75a16.33,16.33,0,0,0,6,1.85,6.7,6.7,0,0,1,2.79.88c1.94,1.12,2.17,1.74.7,3.52-0.6.72-.85,1.3-0.26,2.08Z"/><path class="cls-17" d="M133.19,70.84l-1.92-.13c0.54-.3.78-1.13,1.52-1S133.21,70.41,133.19,70.84Z"/><path class="cls-54" d="M82.54,103.2c0.86-3,3.71-3.14,5.94-4.14,0.26-.11.34,0.3,0.34,0.56-1.12,1.28-2.7,2-3.7,3.43,1.6-.88,2.78-2.44,4.6-3l2.33-.83a2.16,2.16,0,0,1,1.9-.26c0.82,0.2,1.83.16,2.19,1.13s-0.6,1.36-1.09,1.93a9.42,9.42,0,0,0-.5.86c-1,.47-2.07.69-2.4,2a1.9,1.9,0,0,1-1.42,1,2.78,2.78,0,0,0-1.6,1.38c-1.26,1.14-1.26,1.14-3,.3a3.18,3.18,0,0,1-1.66,2.29c-1.63,1.23-1.64,1.85-.19,3.28a4,4,0,0,1,1.2,2,5.91,5.91,0,0,0,2.13,3.5,2.11,2.11,0,0,1,.74,2.32c-0.44,1.32-1.59,2.31-1.79,3.75-0.42,3.07.47,4.72,3.47,6.41-0.47,1-2.89,2.22-4.29,2.09a7.37,7.37,0,0,1-1.52-.35c-0.65-.22-1.2-0.79-2-0.63a1.58,1.58,0,0,1-1.39-.72c-0.59-1.54-1.47-.07-2.2-0.15-0.58-.06-0.74,1.57-1.63.78-0.58-.52-1.44-1.09-1.38-2,0.08-1.24,1.46-.58,2-1.22,0.82-.62,1.65-1.23,1.66-2.42a4.79,4.79,0,0,1,.78-1.6,3.18,3.18,0,0,0,1.06-1.19c-0.89-.25-1.67.38-2.51,0.28s-2-.21-1.07-1.62c0.17-.21.56,0.3,0.51,0a5.28,5.28,0,0,1,.4-3.57,6.36,6.36,0,0,0,.37-1.63c0.71-2.91.5-6.08,2.88-8.51,1-1,.11-2.66.3-4A1.39,1.39,0,0,1,82.54,103.2Z"/><path class="cls-55" d="M88.06,120.83a0.8,0.8,0,0,0,0-.39c-1.69-2.18-2.56-4.9-4.22-7-1.34-1.71-1.62-2.67.32-4,0.81-.56,1.9-0.83,1.37-2.2a0.49,0.49,0,0,1,.33-0.63,0.78,0.78,0,0,1,1,.45c0.61,1.2,1.29.73,2,.17,0.81,1,.21,1.89-0.12,2.8-1.07,2.94-.7,3.79,2.24,4.86a1.77,1.77,0,0,1,1.42,1.7c0,1.4,1,1.35,2,1.31,1.29-.06,2.66-0.22,3.21-1.55,0.39-.94-0.58-0.77-1.12-0.8s-1.13,0-1.31-.62a1.25,1.25,0,0,1,.55-1.21c2.09-2,2.06-4.3,1.13-6.79a11.17,11.17,0,0,1-1-3,3.54,3.54,0,0,0,.58-2.4c0.07-2.33.58-2.72,2.91-2.37a2.63,2.63,0,0,1,1.15.09c-0.34,2.09-.47,4.13.82,6a0.87,0.87,0,0,1-.27,1.34c-0.89.66-.66,1.33,0.23,1.84,1.2,2.34.12,4.55-.41,6.79-0.53,1.06-1.24,2-1.72,3.11-0.85,1.91-2.7,1.54-4.27,1.8-0.86-1.05-1.59-.65-2.28.21C91.05,120.35,89.62,121.16,88.06,120.83Z"/><path class="cls-55" d="M105.64,87.24c1.29,0.65,2.44.09,3.6-.43a2.41,2.41,0,0,0,3,.67,9.65,9.65,0,0,1,1.93-.51c1.13-.24,1.84.07,1.87,1.35a12.22,12.22,0,0,1-6.47,7.25,10.07,10.07,0,0,0-4.21,3.75c-0.59,1-1.26,1.71-2.52,1.5-0.46.13-1,.65-1.34-0.08-0.23-.53.38-0.74,0.71-1A15,15,0,0,0,104,98.18c0.81-1,.34-1.39-0.76-1.37-0.23-1.76,1.63-2.24,2.22-3.68a9.47,9.47,0,0,1-3.93,1.54c-0.88,0-1.82,0-.91-1.31,1.51-.75,3.21-1.21,4.32-2.63,0.07-.66,1.79-0.65.72-1.78A1.79,1.79,0,0,1,105.64,87.24Z"/><path class="cls-56" d="M101,93.55c-0.79.83-.12,0.81,0.46,0.74,1.79-.22,3.19-1.41,5.11-2.1-0.5,2.15-2.58,2.91-3.27,4.61a2.81,2.81,0,0,1-2.8,2.41c-0.55.1-.88,1-1.54,0.56-2.38-1.74-1.82.52-2,1.52a10.14,10.14,0,0,0,.13,1.94c0,0.85-.54.49-1,0.36a1.75,1.75,0,0,1-1.61-.79c-0.47-.8-0.36-1.37.63-1.61a0.79,0.79,0,0,0,.79-0.93,1,1,0,0,0-1.1-.66c-0.91-.11-1.82-0.26-2.73-0.4,0.85-1,1.45-2.31,2.9-2.77a0.68,0.68,0,0,0,.31-1.22c-0.12-1.28,1-1.92,1.53-2.87a0.75,0.75,0,0,1,1.33,0c0.66,1,1.43.63,2.24,0.37A0.81,0.81,0,0,1,101,93.55Z"/><path class="cls-57" d="M102.88,100.82c2.27-.72,2.53-3.39,4.39-4.54a3.74,3.74,0,0,1,1-.92c3.79-.92,5.81-3.73,7.45-7,0.24-.78.16-1.7,0.94-2.25,0.51-.4,1-1,1.75-0.62,0.13,0.52-1,.84-0.32,1.36,0.46,0.37.72-.44,1.18-0.49-0.78,1.93-2.43,3.24-3.61,4.89-2.49,3.49-5.22,6.82-7.95,10.13-1,1.26-2.62.38-3.93,0.58C102.94,102.13,102.8,101.49,102.88,100.82Z"/><path class="cls-58" d="M27.61,111.67c-0.84,0-1.08-.81-1.55-1.3,0.25-1.28,1.56-1.77,2.11-2.93s0.31-1.32-.48-1.8c-1-.63-2.41-0.57-3.23-1.63,0.85-.76,1.75-0.26,2.64-0.11a26,26,0,0,0,7.68.61c0.62-.08,1.52-0.08,1.59-0.88s-0.87-1-1.53-1.25c-1-.39-2.29.08-3.2-0.8a1.1,1.1,0,0,1,1.3-1.11c1.31,0,3.35-1.52,3.31-2.72,0-1,.3-1,1-0.73a1.2,1.2,0,0,0,1.66-.56c0.73-.69,1.37-0.21,2,0.21a11.19,11.19,0,0,1,3.8,4.78,2.16,2.16,0,0,1,0,2.12,10,10,0,0,0-1.42,4.69c-0.37,2.67-4.63,6.82-7.3,7.35a2.07,2.07,0,0,1-1,.05C32.24,114.81,29.52,114,27.61,111.67Z"/><path class="cls-59" d="M27.61,111.67c1.9,1,3.78,2.08,5.69,3.09a4.17,4.17,0,0,0,5-.84c2.23-2.06,5.06-3.91,4.59-7.66a2.75,2.75,0,0,1,.27-1.14c0.36-1,1.72-1.64,1.27-3a10.14,10.14,0,0,0-2.82-4.25c-0.71-.65-1.39-1.73-2.69-1.44A1.8,1.8,0,0,1,38,96.14c-0.15-.21.21-0.47,0.46-0.46,1.2,0.07,2.48-.66,3.58.34,1.48,2.27,3.71,4.14,3.89,7.13a1.52,1.52,0,0,1-.12,1.34c-1.08,1.43-.46,2.7.23,4,0.52,1,1.07,1.72,2.39,1.63,0.66,0,1.68-.07,1.58,1.16a0.86,0.86,0,0,1-.53.26c-2.22-.22-3.77.89-5.09,2.49a3.45,3.45,0,0,0-1.08,4.3c0.28,0.68,1,1.35.2,2.14-1.68-.54-3.45-1-4.61-2.44-1.39-1.77-3.38-1.48-5.23-1.71-3-.79-6-1.64-8.35-3.72-1-.88-2.65-0.41-3.33-1.79a4.82,4.82,0,0,1,4,1C26.55,112.22,27.2,113,27.61,111.67Z"/><path class="cls-10" d="M82,60.37c-0.59.65-3.9,1-4.6,0.53a0.64,0.64,0,0,1-.27-1c0.91-1.61,3.77-2,5.34-.71A1.1,1.1,0,0,0,82,60.37Z"/><path class="cls-60" d="M78.07,103.29A9.5,9.5,0,0,1,79.25,105a1.36,1.36,0,0,1-.85,1.89c-1,.45-1.29,0-1.37-0.91s0.45-2-1.07-2a3.62,3.62,0,0,1-.51-0.15c-1-.22-1.45-1.27-2.4-1.59a0.83,0.83,0,0,1-.38-0.74,1.79,1.79,0,0,1,1.46-1c1.28,0,2.13.37,1.83,1.89C76.48,103.11,77.54,102.58,78.07,103.29Z"/><path class="cls-61" d="M89.72,100c-2.67,2.59-4.26,3.61-6.06,3.75,1.69-1.66,2.9-3.52,5.16-4.16A0.86,0.86,0,0,1,89.72,100Z"/><path class="cls-62" d="M76,102.38c-0.41-.8-0.59-1.88-1.92-1.49a0.64,0.64,0,0,1-.86-0.24A0.42,0.42,0,0,1,73.4,100,5.5,5.5,0,0,1,76,99.59c1.29-.09,1.81.43,1.57,1.71A1.91,1.91,0,0,1,76,102.38Z"/><path class="cls-56" d="M92.46,92a1.52,1.52,0,0,0,1.64.82c0.48,0,1,.15.94,0.75s-0.59.38-1,.43h-0.2c-0.71,0-1.71-.11-1.69.86,0,1.28,1.22.5,1.86,0.75a6.13,6.13,0,0,0-1,.53c-1.15.9-1.6,0.36-1.34-.78S91.21,92.89,92.46,92Z"/><path class="cls-63" d="M50.15,111.34a1.32,1.32,0,0,0-1.51-.72c-2.19.8-2.52-.91-3.21-2.19s-1.33-2.64-.08-4a4.8,4.8,0,0,0,.59-1.24c0.9,0,.51.66,0.55,1.14,0.08,1.15,1.15,1.2,1.46.61,1.23-2.28,3.24-1,4.88-1.3,0.87-.63,1.79,0,2.68-0.09,1.22-.11,1.09-0.65.58-1.4A5.52,5.52,0,0,0,54.65,101c-1.54-.79-2.28-2.62-4.06-3.12a0.49,0.49,0,0,1-.14-0.68c1.37-1.54,3-1.49,4.26.17a18.12,18.12,0,0,0,1.48,2.1c0.55,0.54,1.35,1.23,1.86-.15,0.4-.65,1.11-0.3,1.65-0.51,0.28,1.33,1.33,2.57.44,4.05a0.59,0.59,0,0,0,.35.83c1,0.21.54-1.07,1.18-1.28,0.6,0.69.55,1.73,1.26,2.36-1.09,1.5-1.09,1.5,0,3.4,0.35,0.64.73,1.25,1.09,1.88,1.49,2.61,3.73,2.95,5.79.87a0.83,0.83,0,0,1,.54-0.21c0.8,0.56.15,1.58,0.7,2.22-0.63,1.32-.71,3-2.54,3.48-1.42.62-3.16,0.3-4.38,1.52a0.39,0.39,0,0,1-.37.05c-1.58-1.3-2.6-.17-3.65.83a5.2,5.2,0,0,1-1.33-.66,1.64,1.64,0,0,1-.48-0.86c-0.32-.56-0.93-0.43-1.41-0.61-1.83-.69-3.56-1.46-4.44-3.43a1.9,1.9,0,0,0-1.74-1.44C50.38,111.75,50.09,111.73,50.15,111.34Z"/><path class="cls-40" d="M62.85,104.81c-1.94,0-1-1.52-1.2-2.4,1.8-3.13,5.1-3,8-3.64a4,4,0,0,0,2.5-1A2.88,2.88,0,0,1,76.35,99c-1.2,0-2.4-.49-3.47.24-0.45.78,0.11,1.6-.09,2.39L73.24,102c0.82,0.5,1.24,1.63,2.42,1.6h0c0.52,0.4,1.08.77,0.81,1.58l-1.24.43a1.8,1.8,0,0,0-1.37.69c-0.59.42-1.15,1-1.95,0.51a1.41,1.41,0,0,1-.34-2,2.74,2.74,0,0,0-.31-2.65c-0.81-1.4-1.78-1.51-2.83-.32a2,2,0,0,0-.44.66C67.15,105.26,65.05,105.14,62.85,104.81Z"/><path class="cls-64" d="M50.44,97.19a0.9,0.9,0,0,0,.84.71c1.08-.26,1.5.2,1.77,1.18s1.46,0.86,1.78,1.73-0.89.77-1,1.36a1.65,1.65,0,0,0,2.61-.59c0.52,0.62,1.05,1.37.65,2.11s-1.23.19-1.86,0.3a7.07,7.07,0,0,1-2.34-.4c-2.11,0-3-2.46-5.26-2.46-0.73,0-1.55-1.46-1.65-2.5a2.91,2.91,0,0,1,1.31-2.74C48.81,94.92,49.61,96.16,50.44,97.19Z"/><path class="cls-65" d="M59.69,98.8c-0.25,1.15-1.09.35-1.65,0.51-0.51-.36-1.16-0.62-1-1.6C58,98,59.11,97.62,59.69,98.8Z"/><path class="cls-66" d="M55.68,55.92c-0.72-.71-0.06-1.23,0-1.77,0-1.48.06-2.74-1.78-3.44-2.08-.79-2.06-1.46-0.27-2.83,1-.78,2-2.06,3.47-1.29A6.51,6.51,0,0,1,60.76,51c0.17,0.84-.46.91-1.18,0.62C57.43,50.71,56.82,51,57,53.14,57,54.52,56.12,55,55.68,55.92Z"/><path class="cls-67" d="M58.39,44.38l1.7-.45,1.09,0.57c0.43,1.85-.13,2.23-2.35,1.62A1.57,1.57,0,0,1,58.39,44.38Z"/><path class="cls-68" d="M58.83,46.12c1-.16,2.71.58,2.35-1.62,0.87-.93,1,0.13,1.09.52a1.32,1.32,0,0,1-1,1.64C60.48,46.71,59.33,47.6,58.83,46.12Z"/><path class="cls-69" d="M62.07,55.83a1.18,1.18,0,0,1-1.2-1c0-.7.52-0.83,1.09-0.83a1,1,0,0,1,1.22.7C63.28,55.42,62.69,55.64,62.07,55.83Z"/><path class="cls-23" d="M49.6,76c0.65,0.3,1.41.54,1.56-.44a4.64,4.64,0,0,1,2.6-3.48,1.45,1.45,0,0,0-.06-0.57,12.11,12.11,0,0,0,3.12.88c-0.09.58,0.49,1.2,0.06,1.72-2.31,2.78-3.37,6.6-7,8.28a0.81,0.81,0,0,1-1.15-.21C47.51,81,46.22,79.86,45,78.7a1.93,1.93,0,0,1,.71-1.13C47.05,77.2,48.63,77.36,49.6,76Z"/><path class="cls-70" d="M72.79,101.62a1.83,1.83,0,0,1,.09-2.39,0.7,0.7,0,0,0,.52.79c-0.17.57,0.24,0.72,0.64,0.87C73.72,101.3,73,101.06,72.79,101.62Z"/><path class="cls-25" d="M42.05,62.75a13.06,13.06,0,0,1,1.72.36c0.82,0.28.67,1,.67,1.69a0.92,0.92,0,0,1-.53,1.14,1.57,1.57,0,0,1-1.57-.63A2.21,2.21,0,0,1,41.59,64,1.44,1.44,0,0,1,42.05,62.75Z"/><path class="cls-71" d="M49.6,76c-0.35,1.58-1.92,2.2-3.92,1.55-1.15-1.54.6-2.17,1.2-2.61C47.83,74.27,49,74.9,49.6,76Z"/><path class="cls-72" d="M44.74,73.57a4.17,4.17,0,0,0-.11-1.15c-0.19-.5-1-0.93-0.39-1.5A1.26,1.26,0,0,1,46,71.3a5.64,5.64,0,0,1-.31,2.13,19,19,0,0,0-.13,1.93C44.54,74.94,45,74.13,44.74,73.57Z"/><path class="cls-55" d="M118.39,85.53l-1.54.87a0.57,0.57,0,0,1-1-.21,0.67,0.67,0,0,1,0-.57c0.94-1,0-.89-0.55-1-0.29-.79-1.29-0.39-1.69-1,0.44-.62,1.3-0.13,1.92-0.76-0.81-.55-2.08-0.58-2-2a3,3,0,0,1,1.77-2.43c1.38-.82,2.74-1.59,2.32-3.63a1.54,1.54,0,0,1,1.12-1.49c-0.6,2.42-1.22,4.83-1.8,7.25-0.18.75-.42,1.31,1,1,1.18-.3,2.06,1.15,2.61,2s-0.81,1.07-1.47,1.45A4.59,4.59,0,0,0,118.39,85.53Z"/><path class="cls-73" d="M96.88,72.81c0.47,1.08.87,2.19-.55,2.85a3.11,3.11,0,0,1-4.25-1.25c0-.53,0-1.05,0-1.58,0-1.38-.06-2.66,1.87-2.83s2.81,0.37,2.64,2.35A1.12,1.12,0,0,0,96.88,72.81Z"/><path class="cls-74" d="M116.1,85.92a0.72,0.72,0,0,0,.76.48l-1.16,2c0-.71,0-1.39-1.1-1s-2,.59-3,0.86c-1.24.32-2.1,0-2.31-1.41,0.78-2,2.45-2.82,4.41-3.24,0.47,0.39,1.64-.68,1.6.77-1.27.94-3.27,0.64-4.11,2.4C113,87.23,114.4,85.82,116.1,85.92Z"/><path class="cls-75" d="M100.88,92.36c-0.65-.38-0.15-0.76,0-1.13a7.51,7.51,0,0,0,3.67-3c0.28-.4.38-1,1.08-1a1.11,1.11,0,0,1,0,1.53c0.21,0.76-.41,1.19-0.71,1.75C103.58,91.11,102.65,92.67,100.88,92.36Z"/><path class="cls-76" d="M104.54,85a1,1,0,0,1-1,1,0.87,0.87,0,0,1-1.14-.8A1,1,0,0,1,103.45,84,1.05,1.05,0,0,1,104.54,85Z"/><path class="cls-77" d="M100.88,92.36c1.5-.27,2.3-1.95,3.93-2,0.43,0,.72.07,0.51,0.59-1,1.6-2.7,2.07-4.36,2.57l-0.46-.75Z"/><path class="cls-78" d="M105.32,91l-0.51-.59a1.69,1.69,0,0,1,.85-1.61c0.49,0,1.15-.36,1.39.32s-0.44.82-.88,1.09A5.61,5.61,0,0,0,105.32,91Z"/><path class="cls-70" d="M62.85,104.81a1,1,0,0,1,.36-0.15,4.39,4.39,0,0,0,4.84-3.15,1.72,1.72,0,0,1,2.65-.87,3.91,3.91,0,0,1,1.65,3.77,1.79,1.79,0,0,1-.38.69A0.94,0.94,0,0,0,72,106.5c0.6,0.48.89-.21,1.34-0.4s0.8-2,1.85-.5l-2.4,2.71c-0.58,1-.23,2.82-2.24,2.57a0.75,0.75,0,0,0-.36.12c-1,2.71-2.95,1.79-4.79,1.38A1.86,1.86,0,0,1,64,111.21a13.9,13.9,0,0,0-2-3.61C60.58,106,60.75,105.18,62.85,104.81Z"/><path class="cls-79" d="M56.39,101.59c0.18,0.83-.14,1.74-0.88,1.71a6.84,6.84,0,0,1-2.82-1c-0.34-.18,0-0.58.39-0.64a2.67,2.67,0,0,0,1.75-.83C55.51,100.76,55.87,101.34,56.39,101.59Z"/><path class="cls-80" d="M116.1,85.92c-1.46,1-3.21,1.11-4.84,1.61a0.86,0.86,0,0,1-1.08-.21,0.91,0.91,0,0,1,.46-1.18C112,85,113.36,84,115.25,84.33h1.81Z"/><path class="cls-81" d="M93.16,72.43c0.06-.66-0.31-1.79,1-1.78,2.11,0,1.74,2,2.19,3.22,0.34,0.94-.53,1.3-1.46,1.31C92.94,75.21,93.25,73.76,93.16,72.43Z"/></svg>