<svg id="Layer_1" data-name="Layer 1" xmlns="http://www.w3.org/2000/svg" viewBox="0 0 201.45 317.71"><defs><style>.cls-1{fill:#fc8500;}.cls-2{fill:#000140;}.cls-3{fill:#000039;}.cls-4{fill:#001e21;}.cls-5{fill:#036d76;}.cls-6{fill:#036f65;}.cls-7{fill:#0b7674;}.cls-8{fill:#012f35;}.cls-9{fill:#01043a;}.cls-10{fill:#035440;}.cls-11{fill:#042877;}.cls-12{fill:#023028;}.cls-13{fill:#057474;}.cls-14{fill:#055e47;}.cls-15{fill:#276d86;}.cls-16{fill:#042b69;}.cls-17{fill:#4babed;}.cls-18{fill:#146c76;}.cls-19{fill:#386976;}.cls-20{fill:#0a1a8c;}.cls-21{fill:#154944;}.cls-22{fill:#525578;}.cls-23{fill:#55729a;}.cls-24{fill:#83989b;}.cls-25{fill:#636e82;}.cls-26{fill:#676980;}.cls-27{fill:#676f7d;}.cls-28{fill:#3f596b;}.cls-29{fill:#757485;}.cls-30{fill:#a8adb4;}.cls-31{fill:#9ca1a6;}.cls-32{fill:#436164;}.cls-33{fill:#000267;}.cls-34{fill:#002a9d;}.cls-35{fill:#004bb4;}.cls-36{fill:#004191;}.cls-37{fill:#006c87;}.cls-38{fill:#fa9907;}.cls-39{fill:#fad843;}.cls-40{fill:#f4b83a;}.cls-41{fill:#fbce33;}.cls-42{fill:#f8c22f;}</style></defs><title>splash</title><path class="cls-1" d="M97.61,226.91c1.07,4.18,2.56,2.48,3.83,1.66,4.44-2.88,8.86-5.78,13.2-8.75a4,4,0,0,1,3-1c2.28,0.23,4.15-2.22,6.26.14,2.3,2.57-1.43,2.67-2.65,3.78-1.58,1.44.1,5.75,3,7.68,2.44,1.62,2.52.27,2.74-.91,0.84-4.61,5.65-6,8.34-9.18,0.43-.5,1.79-0.27,2.82-0.39,1.9,6.71,3,7.47,9.6,6.79,4.88-.51,7.91,1.84,8,6.43a17.91,17.91,0,0,1-1.38,6.2c-1.69,4.9-3.76,9.57,3.62,16.91,1.36,1.35,2.68,4-1.16,2.56-3.63-1.35-4.37-.64-1.2,2.17,3.56,3.15,3.19,5.31,1.31,6.37-2.24,1.26-2.69,3.56-3.93,5.42-1.35,2-.31,3.59,2.66,5.52,3.11,1.49,3.29,3,1.19,3.26-4.45.51-4.7,3.71-5.06,7.16-0.48,4.62-2.53,8.22-7.58,9.43a31,31,0,0,0-7.11,2.15c-6.34.09-11.38,1.53-12.9,6.7-0.15.52,0.17,0-.22,0.34-2.28,2.22-21.51.09-25.91-2.94-3.67-2.53-5.08-5.35-4.72-8.11a8,8,0,0,1,4.19-6.3c8.21-4.64,8.23-13,2-24.18-0.59-1-1.55-2.41-1.19-3,2.47-4.18-.16-10.75,1.93-15.08,0.41-.86.44-2.25,1.35-2.47,7.79-1.83,6.68-10,9.68-14.92-3.8.75-5.32,2.65-3.66,6.61s0.4,5.69-3.2,5.65c-9.49-.13-13.91,14.3-9.87,23,3,6.41,3.88,12.17,1.21,16.6A5,5,0,0,1,93,284.64a5.22,5.22,0,0,1-5.36-1.13c-2.25-2-1.38-3.37-.28-4.18,6.49-4.79-.43-13.8-2.78-21.37A7.52,7.52,0,0,0,83,256.74c-2.17-7.72-.63-13.5,3.47-18.1,1.6-1.79,4.24-3.3,1.88-7.38-2.44-.88-2.34,1.07-3.74,1.23-1.75.2-3.49,0.56-4.27-2.4,0.31-2.38,1.93-3.86,3.31-5.5C87.59,223.29,92,223.27,97.61,226.91Z"/><path class="cls-2" d="M186.2,263.57c-4.09,4.68-8.45,4.16-13,3.74a28.78,28.78,0,0,0-10.63,1.17c2.39,1.89,4.86.91,7.29,1.25,1.65,1.23,3.2,2.78,5,3.08,2.36,0.39,2.81,3,1.42,7.09,0,0.29.2,0.58,0.36,0.42,3.81-3.85,7.25,1.09,10.88,1.73,0.69,0.84,1.15,2.29,2,2.82,1,0.79,2.13,1.08,3.16,1.81a3,3,0,0,1,1.26,3.17c-0.23,1.73-1.11,1.16-1.73,1A11,11,0,0,1,185,286c1.86,6.12,1.67,7.64-1.52,12-1.48,1.4-3.07,1.08-4.64,1.11-4.25-1.08-8.35,1.75-12.52,1.93-7.25.31-14.51,0.18-21.76,0.26a13.32,13.32,0,0,0-2,.29c-4.48-1-8.92.62-13.39,0.7a76.79,76.79,0,0,1-19.64-2.59c-2.45-.6-4.9-0.41-7.35-0.69-0.88-.1-2.12.09-2.15-2.4,0-2.22,1.1-3,2-3,2.94-.16,5.87-1.14,8.83-0.49,2.62,0.58,5.24.73,7.69-1.66,4.28-.87,8.34,1.89,12.43,3.25-0.07-6.31-2.25-6.79-4.63-7.08-1.88-.23-3.48-2.47-5.27-3.47-0.72-.4-1.34-1.68-1.07-3.46,0.22-1.46.9-1.87,1.61-2a4.59,4.59,0,0,1,2.5.72c3.81,1.6,7.6,3.38,11.44,4.72,2.59,0.9,2.89.32,3-4.79,0-2.05.7-2.45,1.51-2.59,1-.17,1.81.69,2.69,1.28,1.69,1.12,3.38,2.32,5.19.34-1.94.2-3.59-1.26-5.18-3.13-0.43-.51-1-1.27-1.42-0.74-2.11,2.73-4,1.46-5.88-.9-0.86-1.06-2-.72-3-0.3-5.27,2.23-9.77-2.46-14.36-6.16-0.7-.56-1-1.28-1.9-0.51-2,1.75-4.16.23-6.25,0a1.9,1.9,0,0,1-1.09-1.87,11.9,11.9,0,0,0-2.07-5.43c-0.53-2.52,0-4.13,1.28-4,2.54,0.33,5-1,7.56-.68,1-.38,1.86-0.3,2.51,1.4,0.57,1.49,1.36,2.08,2.23,1.86,2.68-.68,4.63,2.14,6.46,5.26a2.57,2.57,0,0,0,2.84,1.41c9-.17,18.09-0.49,27.14-0.55,2.14,0,4.39-.5,6.34,2.27a1.85,1.85,0,0,0,1.72.5c5.29,0,10.58,0,15.87-.18C182.68,266.52,184.08,262.43,186.2,263.57Z"/><path d="M149.32,162c8,6,10.59,15.24,14.27,23.83-2,8.39-.7,10.77,8.3,15.5,4.23,1.18,8.35,2.47,8.37,8,2.5,5.71,5.24,11.34,7.39,17.18,1,2.73,1.55,5.92-.59,8.68-1,3.15-3,4.72-6.45,3.92a7.78,7.78,0,0,0-3.71-.09c-4.3,1.14-6.21-1.27-7.55-4.8-3-7.83-3-7.82-11.54-7.24-7.59.51-15.28-5.8-15.87-13.3a16.53,16.53,0,0,0-7-12.57c-4.07-3.07-7.32-7.24-12.64-8.58a2.69,2.69,0,0,1-1.66-3.92c0.76-1.75,2.8-3.61,1.67-5.32-1.83-2.77-3.59-5.74-6.35-7.82-0.86-.64-1.88-1-2.77-1.61-3.48-2.32-3.44-3.12.16-6.15,1.69-1.58.41-2-.94-2.29-5.19-1.17-10.24-2.09-15.43.59-4.32,2.22-5.83,1.2-6-3a8.84,8.84,0,0,1,.79-1.38c1.87-3,5-2.91,8-3.27,6-.67,11.57.67,17.34,2.22,4.89,1.31,10.37.1,15.28,2.29,5.25,6.31,5.3,6.33,15.66,6.5C149.58,167.1,143.28,163.46,149.32,162Z"/><path class="cls-3" d="M114.9,168.5c-0.94,1-3.3.35-3.27,2.2,0,1.64,1.82,1.91,3.19,2.33,4.93,1.49,5.84,6.92,9.45,9.83,1.35,1.09-.44,4-1.64,5.15-2.5,2.45-1,3,1.08,4,10.34,4.69,19.3,10.47,19.82,23.56,0.21,5.26,8.7,10.7,14.78,9.91,8.93-1.15,9.64-.71,12.14,7.63a5.08,5.08,0,0,0,.17.51c1.13,2.7,1.53,6.41,6.11,3.54,0.92-.58,2.81,0,4.11.47,2.91,1.05,4.7-.27,6.24-2.46-1.7,2.75-2.22,5.85-2.64,9-3.21,2.88-11.1,3.77-14.12,1.24-1.39-1.16-2.34-1.18-3.66-.35-2.48.61-3.61-.87-4.4-2.86-0.66-1.66-1.42-3.27-2.16-4.9a7.69,7.69,0,0,0-6.39-4.3c-2.59-.2-3,3.09-3.68,5.19-2.81,8.66-5,9.24-11.77,2.88-3.39-3.19-4-7.86-6-11.79-0.92-1.78-1.39-3.71-3.72-4.09-4.08-.68-4.24-3.23-2.93-6.33,1.16-2.76,1.65-5.12-1.9-6.52a4.64,4.64,0,0,1-2.63-3.81,7.79,7.79,0,0,0-4.93-5.89,7.36,7.36,0,0,1-3.62-3.77c-3.65-7.71-3.22-8.93,4.63-12.34,1.09-.47,2.74-0.54,2.47-2.25s-1.77-2.15-3.23-2.29a9.88,9.88,0,0,0-6.22,1.08c-1.91,1.15-4.25,2.54-5.3-.41-1-2.68-2-6.31,1.77-7.93,2.25-1,3.6-1.32,2.35-4.21-0.76-1.77.69-3.56,2.44-4.24S114.41,166.66,114.9,168.5Z"/><path class="cls-4" d="M59.69,235.18c-5.15-.55-6.17-7.23-11.44-7.74-0.67-.07.38-10.72,1.29-11.22,2-1.1,2.95-2.79,3.78-4.85,2.16-5.38,4.82-5.14,10-2.92,4.61,2,6.36,5.2,8.38,9a6.72,6.72,0,0,1,.72,5.87c-1.63,5.37,3.15,11,8.63,10.88,4.39-.11,9.82,6.4,7.88,10.4-1.29,2.66.19,6.87-4,8.07-2.82.09-4.75,2.22-7.2,3.16-3,1.17-5.37.43-6.05-2.91C70.17,245.26,66.71,239,59.69,235.18Z"/><path class="cls-5" d="M92.48,162.73q-0.23.34-.49,0.67a2.45,2.45,0,0,0-1.6,1.93c-1,4.41-4,4.81-7.72,3.83-3.17-.82-6.19-2.85-9.7-1.48-3.41,2.55-3.4,7.07-5.85,10.17-2.18,3-3.55,6.4-5.19,9.68-1.35,2.7-2.91,5.2-6.08,6.09-5-1-7.54-5.63-11.59-8.11-1.65-1,.16-3,1.89-3.87,4.2-1.43,6.23-5.56,9.77-7.88,1.65-1.08.08-2.44-.79-3.56-2.35-3-3.38.43-5,1.23,0.16-5.81,2.65-9.22,7.43-10.44a3.23,3.23,0,0,0,1.5-.52c6.69-7.06,15.23-3,23-4,4.41-.54,8.18,1.83,12.38,1.86C94.73,160.23,92.45,161,92.48,162.73Z"/><path class="cls-6" d="M115.93,127c1.58,1,1.47,4.66,4.3,3.51,3.32-1.35,2-4.77,2.26-8,4.57,2.86,8,6.58,13.31,6.87,1.71,0.09,2.48,2.17,1.26,3.79-2,2.61-2.23,5.41-2,8.55,0.36,5.17-3.88,6.45-7.44,8.43-3.36,1.86-5.7,1.55-8.69-1.14C112.46,143.21,110.85,133.82,115.93,127Z"/><path class="cls-7" d="M11,131.2c0.32-5.52,5.93-4.25,9.36-6.14a2.51,2.51,0,0,1,3.8,2.28c0.12,4.27.44,8.3,3,12,1.13,1.66-3.77,6.46-6.6,6.86-3.56.51-6.94-1-10.58-.53-2.37.31-4.14-8.39-2.24-10.93C8.53,133.64,9.6,132.67,11,131.2Z"/><path class="cls-8" d="M118.12,83.9l4.06-3.14c0,2.82,1.67,5,3.74,5.14,4.11,0.22,5.1,2,6,5.78s1,8.26,3.62,11.94c1.12,1.55-1.41,3.62-2.78,5.17-7.18-2.21-7.31-9.28-9.75-14.65-2.17.52-1.58,1.9-1.36,3,0.34,1.71.25,3.24-1.47,4.15s-3.05.06-4.47-.79A7.34,7.34,0,0,1,112,92.87C112.49,88.93,113.35,85,118.12,83.9Z"/><path class="cls-9" d="M174.28,265c1.13,4.61-1.83,8.33-2.7,12.51-1.48,4.33-5.44,5.66-9,7.46-5.44-3.48-5-9.08-4.49-14.24,0.36-3.53.27-6.5-1.43-9.69-2.34-4.4-1.22-6.31,3.59-7.26a4.44,4.44,0,0,1,1.4.75c4.23,6.17,5.57,12.58.46,20.21,4.46-1.88,6.09-4.29,6.46-7.72a17,17,0,0,1,1.63-6.16,19.37,19.37,0,0,1,3.88-5c0.79-.66,1.75-1.55,2.79-0.73s0.82,2.19.05,3.29C175.53,260.37,173.59,262.15,174.28,265Z"/><path class="cls-10" d="M65.77,58.87c-2,3.08-4.23,6.45-9.12,2.18-3.94-3.44-4.11-10,.75-15.16,3.42-3.6,6.49.84,9.48,1.74S69.26,54.35,65.77,58.87Z"/><path class="cls-11" d="M161.3,255.26l-0.89-.69c-1.18-5.31,2.29-7.78,6.12-10,1.1-.83.27-3.17,2.2-3.18,1.54,0,1.66,1.59,2,2.74a3.06,3.06,0,0,0,4.21,2.12c3.05-1.63,6-2.85,9.48-2.06-0.42,5.94-5.16,9.68-7.52,14.64-1,2-2.27,3.89-2.62,6.18-2.46-3.85,2.83-5.59,2.3-10.61l-5.94,8c-2.8-3.69-2.1-8.56-3.93-12.61C163.61,250.58,164.1,254.49,161.3,255.26Z"/><path class="cls-12" d="M101.79,121.16c-4.33-3.37-4.91-6.76-2.15-10.25,3.82-4.82,6.36-5.06,11.59-1.09,3.19,2.42,2.65,5.51-1.78,11C106.67,124.33,104,123.34,101.79,121.16Z"/><path class="cls-13" d="M118.12,83.9c-6.55,5.13-7,12.27-1.12,15.86,1.09,0.66,1.89,1.74,3.17.66s0.6-2.29,0-3.36c-2.19-3.87.4-4.57,3.31-5,1.24-.18,2,0.32,1.89,1.78-0.62,6.5,3.14,10.85,7.41,14.93-7.24-1.9-15.07-2.44-20.36-8.8-2.32-2.79-3.38-6.32-1.86-9.4S112.84,82.94,118.12,83.9Z"/><path class="cls-14" d="M9.47,135.19c1.84-3.08,4.83-4.35,7.37-2,1.73,1.62,4.7,2,5.26,4.12,0.41,1.55-.56,4.65-1.78,5.23-3.13,1.48-4.17,7-7.57,5.8C7.85,146.61,6.55,139.11,9.47,135.19Z"/><path class="cls-15" d="M44.45,157.53c-1.36,4.19-7.62,2.31-9.77,6.53-0.36.7-1.08-.72-1.43-1.51-3.15-7.13-3.17-7.11,4.24-10.25,0.82-.34,1.6-0.77,2.39-1.18,2.09-1.08,4.26-3.71,6.54-1.09S46.15,154.88,44.45,157.53Z"/><path class="cls-16" d="M149.32,162c-3.69,2.3-.71,4.22.54,5.92,1.45,2,1.81,3.27-1.13,3.26a54.52,54.52,0,0,1-9.42-.77c-4-.73-7.18-2.62-6.92-7.48,4-.62,8-1.14,12-1.92C146.26,160.61,147.89,160.56,149.32,162Z"/><path class="cls-17" d="M170.85,202.43c-3.72-1.12-6.21-4-8.83-6.56-4-3.81-.68-7,1.57-10.08a63.77,63.77,0,0,0,9.14,11C175.66,202.09,175.66,202.09,170.85,202.43Z"/><path class="cls-18" d="M170.86,159.2c-0.85-2.32-2.47-5.18-.41-7.24s5.51-3.16,8.26-1.08c2.42,1.83,2.93,5.69,1.27,7.47C177.93,160.55,174.23,160.72,170.86,159.2Z"/><path class="cls-19" d="M94.92,51.23c2.73,1.51,4.1,3.32,2,6.37s-4.28.86-5.94-.14c-2.59-1.56-3.13-4.15-1.29-6.77C91.67,47.86,93.27,50.28,94.92,51.23Z"/><path class="cls-20" d="M170.85,202.43c1.3-.68,5.26.15,1.82-3.23-0.78-.77-0.11-1.59.05-2.39l3.81,0.23c2.38-.66,2.91.89,3.23,2.69,1.12,3.14.81,6.36,0.49,9.57C179.39,203.92,174.49,204,170.85,202.43Z"/><path class="cls-21" d="M105.58,54.85c-0.84-3.3,2.15-6.65-1-9.43a12.64,12.64,0,0,1,2.15-1.21c2.12-.7,3.9.23,5.31,1.63,1.2,1.19.65,2.65-.23,3.88C110.22,51.91,107.32,52.57,105.58,54.85Z"/><path class="cls-22" d="M180.31,175.05c-2-1.42-.59-3.31.19-4.88,1.07-2.15,2.79-1.55,4.43-.5s2.37,2.56,1.24,4.42C184.76,176.42,182.75,176.11,180.31,175.05Z"/><path class="cls-23" d="M179.77,199.74c-1.06-.92-1.6-2.46-3.23-2.69,1.22-1.47,3.25-2.71,2.62-4.91-0.88-3.09,1.53-2.55,3-3.08,1-.35,2.39-0.79,2.47.74s1,4-1,4.81C181.07,195.64,179.9,197.19,179.77,199.74Z"/><path class="cls-24" d="M68.18,33.54c-1.71-1.82-3.77-3.63-2.12-6.42,1.11-1.88,2.89-1.29,4.05-.05,2,2.11,1.94,5,1.1,7.38C70.77,35.72,69.17,34.16,68.18,33.54Z"/><path class="cls-25" d="M120.34,57.58c-1.15,1.23-2.55,2.38-4.09,1-2.11-1.92-1.31-4.22-.07-6.3,0.94-1.58,2.28-1.59,3.56-.42C121.59,53.53,121.71,55.49,120.34,57.58Z"/><path class="cls-26" d="M85.77,135a2.24,2.24,0,0,1,3.62-.73c1.75,1.35,2.28,3.14.81,5.13-1,1.35-2.28,1.8-3.68.77C84.59,138.73,84.5,136.92,85.77,135Z"/><path class="cls-27" d="M30.59,38c-1.17-1.88-3.83-3-1.63-5.51,1.52-1.76,3-.8,4.09.21,1.77,1.66,1.51,4,.41,5.8C32.61,39.82,31.36,38.35,30.59,38Z"/><path class="cls-28" d="M151.37,146.72c0.79-.9,1.46-3.06,3-1.4s0.43,4.08,0,5.89c-0.25,1-3.21,1.68-4.23.66C148.39,150.09,150.46,148.42,151.37,146.72Z"/><path class="cls-29" d="M44.93,137.24c-1.59-1.87-.35-3.66.48-5.25s2-.62,3,0.17c1.76,1.43,1.55,2.94.14,4.47C47.52,137.73,46.42,138.49,44.93,137.24Z"/><path class="cls-30" d="M80.31,87.1c0.7-2.32,1.88-2,3.2-1,1.5,1.18,1.7,2.49.48,4-1,1.23-1.86,1.9-3.49.88C78.14,89.6,79.51,88.26,80.31,87.1Z"/><path class="cls-31" d="M57.81,78.07a2.77,2.77,0,0,1-.35-3.85c0.66-.92,1.66-1.65,2.7-0.89,1.47,1.07.87,2.51,0.2,3.83C59.81,78.26,59,78.79,57.81,78.07Z"/><path class="cls-32" d="M51.12,127c-0.73.71-1.4,2.08-2.48,1.1-1.25-1.13.17-2.12,0.8-3s1.31-2,2.36-.81C52.63,125.29,51.6,126.22,51.12,127Z"/><path class="cls-33" d="M92.48,162.73c-0.35-1.88,1.13-3,1.89-4.38,1.8-.22,3.6-0.66,5.39,0C97.18,159.56,93.86,159.52,92.48,162.73Z"/><path class="cls-33" d="M126.08,287.81l-1.9-2.62c0.1-4.58-3.06-9.33-7-10.15-5.17-1.06-3.72-5.77-4.94-8.91-0.51-1.31.2-3.13-1.34-4.24,0.42-8-3.12-14.48-7.12-21.07-2.41-4-1.51-9,.32-13.18,1.92-4.37,3-8.51,2.16-13.31-0.49-2.9-1-5.45-3.22-7.56-1.31-1.24-2.27-2.9-.26-4.52,1.92-.42,4.4-0.59,1.41-3.19-1.33-1.16-3.09-1.8-4.15-3.28-1.25-1.75-2.69-3.49-.17-5.45,2.7-2.1.78-3.17-1.08-4.12a8.65,8.65,0,0,0-2.08-.41c-6.05-1.37-6.39-2-4.11-7.65a1.6,1.6,0,0,0-.06-1.52c-0.4-.44-1.12-0.63-1.36-0.24-2.47,4.07-4.63,3.82-6.57-.37-1-2.18-3.15-2.55-5-3.58-2.72-1.52-7.15-1.26-7.24-6,2.83-1.63,5.5-.36,8.07.63,4,1.55,7.78,2.94,9.84-2.66,0.18-.48,1.14-0.68,1.73-1-0.79,4.38,2.46,2.71,3.6,1.89,5.78-4.17,11.82-2.27,17.77-1.09,2,0.39,5.75,1.22,1.54,4.31-1.38-.63-2.26-2.54-4.26-0.14-3,3.58,1.81,3.84,1.94,6-0.73,1.47-2.17.69-3.29,0.86-3.3.5-5.51,5-3.53,7.54,1.15,1.46,2,.19,3.05-0.5,3.61-2.33,7.43-2.86,11.27-.46,1.24,0.78,2.3,1.81,2,3.47s-1.78,2-3.21,2.28l-1.05.18c-2.66.42-6.75,2.57-6.37,3.47,1.47,3.52.59,8.64,5.36,10.31,3.42,1.2,5.43,3.35,5.57,7,0.06,1.72.79,2.94,2.31,3.1,5,0.54,4.1,3.74,2.68,6.47-1.79,3.46-2.95,6,2.64,5.89,2.35,0,2.46,1.79,3.13,3.52,2.26,5.79,3.53,12.17,9.79,15.67,2.79,1.56,4.15,1.67,4.78-1.68,0.26-1.38.19-3,.86-4.11,1.47-2.52,2-5.63,4.51-7.5,1.4,3.89,7,2.28,8.48,6.92,0.85,2.58.37,7.16,5,7.77-2,3.39-5.49,5.82-6.12,10-5.05.19-4.62,3.19-2.59,6,2.41,3.34,2.74,6.36,1.46,10.29-1.55,4.79.41,9.3,2.94,13.46-1.43.34-3-.47-4.34,0.49-0.49-4.2-.84-8.42-1.5-12.59-1-6.37-2.68-7.2-8.6-5-3.12,1.15-5.28-1.57-7.69-2.69-1.87-.87-1.23-3.3-0.71-5.32,1.37-5.24-.18-8.54-4.4-9.89a4.44,4.44,0,0,0-4.09.5c-1.42,1-1.2,2.41-.55,3.83,1.14,2.51.95,5.45,3.5,7.55,1.74,1.44,1.08,3.52-.49,5.59-3.48,4.59-2.44,7.89,3.22,9.4C132,279.5,129.36,283.92,126.08,287.81Z"/><path class="cls-34" d="M103,202.53c-0.45.8-.87,1.65-0.09,2.43,7.44,7.43,5.56,15.25,2.15,24-1.36,3.48-3.46,8.77,1.31,12.77,1.75,1.47,2.65,4.18,2.92,6.76,0.13,1.23.07,3.24,0.73,3.55,6.17,2.93,1.76,6.52.81,9.89-1.64,2.67-1.85,6-4.37,8.35-1.64,1.53-1,3.83-.3,6,1.81,5.66-.35,10.14-4.43,14.19-2.7,2.68-4.09,1.62-5.73-.91a42.63,42.63,0,0,1-5.94-15.3c-0.92-4.75-.72-4.25-4.84-3-2.5.73-4.47-2.22-3.69-4.42,1.77-5-.77-9.93,1.26-15.39,1.72-4.62-1.92-11-5.38-15.87-2-2.82-5.73-4.43-6.08-8.43,6.08-1.47,6.6,4.81,10.19,7.51,0.85-1.63-.07-2.9-0.23-4.15-0.24-1.87-.17-4.07,1.58-4.74,5.46-2.09,9.31-8.15,16.24-6.61,0.82,0.18,1.79,0,3-1.45-5.11-2-4.48-7.22-6.56-11.1-2.25-4.19-4.65-8.33-8.15-11.69-0.43-3.43,1.15-6.07,4.24-3.73C95.93,194.29,100.44,197.57,103,202.53Z"/><path class="cls-35" d="M88.22,195.46c6.39,2.7,7.71,9,10,14.48,1,2.31.16,5.55,4.32,5.44,1.69,0,1.45,1.78,1.38,2.95a2.32,2.32,0,0,1-2.51,2.26c-1.77,0-3.55-.31-5.32-0.29-5.45.07-8.05,5.82-13.22,6.76-0.93.17-1.16,2.93,0,4.35,1.44,1.82,1.94,3.82-.2,5-2.73,1.53-3.27-1.67-4-3-1.76-3.05-3.59-5.69-7.28-6.39-1.89-5.84,2.56-9.9,4.9-14,2.53-4.45-.92-6.57-1.61-9.67-0.25-1.12-2.17-.9-2.87.57a2.81,2.81,0,0,0,0,1.58c1.33,7.62,1.24,14.55-8,17.23-2.85-6.06,4.93-2.44,5-5.86,0.2-1.42-1.2-1.23-2.09-1.51-5.69-1.78-8.41-5.57-8.06-11.73,0.23-4-2.08-7.31-2.81-11,4.3-1.84,4.94-6.34,6.77-9.84a42.7,42.7,0,0,1,3.87-6.31,18.11,18.11,0,0,1,10.49-.68c2.34,0.52,4.39,1.77,4.83,4.39,0.5,3-2.12,3.24-4.93,4.4C83,186.42,85.44,191.09,88.22,195.46Z"/><path class="cls-36" d="M88.22,195.46c-2.28-1.87-5-3.1-5.89-6.53-0.52-2.07-3.27-1.74-5.11-2.29-1.36-.41-3-0.84-2.65-2.71,0.27-1.53,1.69-1.61,3-1.54s3.17,0.53,3.28-1.58-1.71-3-3.37-3.68c-3.6-1.47-7.47.71-11.1-.7,2.51-3,1.64-8.07,6-10,0.18,1.5,1.41,1.76,2.5,2.41,4.66,2.81,11.87,2.21,12.28,10.09,2.58-1.25,1.25-3.09,2.07-4.19,1.71-2.28,3.19,0,4.69.36,2.26,0.59,1.33,1.92.54,3.23-3,4.93-2.45,6.06,3.68,6.08,3.82,0,4,2.88,5.2,5.09,0.36,0.67-.08,1.16-0.83,1.61-3.21,1.93-3.18,3.26.15,5.31,1,0.64,2.48.72,3,2s2.92,2.39,1.75,4.05c-1,1.42-2.89,1-4.38.05-3.68-2.7-7.39-5.34-10.34-8.93-0.77-.94-1.41-2.84-3.19-2.27C87.34,192,88.83,194.12,88.22,195.46Z"/><path class="cls-37" d="M161.3,255.26a12.46,12.46,0,0,1,1.1-3c1.35-2,2.12-5.41,4.78-5,2.07,0.35,1.3,3.69,1.7,5.7,0.63,3.1,2.21,6,1.76,9.34-1,4.82-.17,10.39-5.89,13.18-1.08.52-1.89,1.83-3.19,0.85a2.21,2.21,0,0,1-.22-3.33C166.4,267.06,163.93,261.17,161.3,255.26Z"/><path class="cls-38" d="M81.6,109.32L87.87,101c2.12-.12,3.25-1.6,4.44-3.09s3.16-2.18,4.65-1.38c1.88,1-.12,2.49-0.45,3.69-1.24,4.57-2.84,9-5.94,12.75-1.78,2.14-3,5.7-6.54,4.3S81,112.39,81.6,109.32Z"/><path class="cls-39" d="M45.75,169c2.36-3.21,6.38-4.62,8.34-2.66s4.2,4.22,1.81,7.39c-2,2.67-6.32,4.07-8.27,2.73C45,174.64,44.11,171.24,45.75,169Z"/><path class="cls-40" d="M90,224.07c-1.73,1-3.24,4.5-5.46,1.93-1.4-1.62-3.09-4.54-2-7.1,1-2.39,5.36-2.47,7.65-.59S91.07,222.1,90,224.07Z"/><path class="cls-41" d="M146.87,187.41a6,6,0,0,0-1.61-.34c-6,.41-7.28-0.69-7.48-6.42,1.83-3,4.2-5.22,8-3.94,3.57,1.2,3.81,4.22,3.57,7.45C149.23,185.91,148,186.58,146.87,187.41Z"/><path class="cls-42" d="M134.56,238.63c-1-2.63-2.55-.5-3.85-0.37s-2.5-.22-2.81-1.44,1.09-1.38,2-1.69a21.16,21.16,0,0,0,2.07-.6c2.32-1.1,4.48-2.6,3.85-5.52s-3.4-1.18-5.14-1.74c-1-.33-2.19.76-3.76-0.15,2.23-1.34,4.91-2.21,4.44-5.54-0.13-.89,1.34-1,2.14-0.77,2,0.62,3.71.77,5.66-.64s2.37,0.26,2.39,1.94-0.49,3.82,2.5,3.18a5.15,5.15,0,0,1-1.19,9,9.18,9.18,0,0,0-4.75,3.65C137.41,239,136.07,240.19,134.56,238.63Z"/></svg>