<svg id="Layer_1" data-name="Layer 1" xmlns="http://www.w3.org/2000/svg" viewBox="0 0 495.84 427.33"><defs><style>.cls-1{fill:#005dc7;}.cls-2{fill:#068681;}.cls-3{fill:#b94700;}.cls-4{fill:#005f76;}.cls-5{fill:#0089d0;}.cls-6{fill:#967d22;}.cls-7{fill:#e98a17;}.cls-8{fill:#003257;}.cls-9{fill:#0086b3;}.cls-10{fill:#406c36;}.cls-11{fill:#6f7c3f;}.cls-12{fill:#002349;}.cls-13{fill:#00012d;}.cls-14{fill:#008b77;}.cls-15{fill:#012f62;}.cls-16{fill:#003a6e;}.cls-17{fill:#03519c;}.cls-18{fill:#278fcd;}.cls-19{fill:#1c88cc;}.cls-20{fill:#0a88b6;}.cls-21{fill:#6e7cad;}.cls-22{fill:#00398c;}.cls-23{fill:#067574;}.cls-24{fill:#216d59;}.cls-25{fill:#00afbf;}.cls-26{fill:#fefefe;}.cls-27{fill:#00233d;}.cls-28{fill:#003c93;}.cls-29{fill:#035d7b;}.cls-30{fill:#01b1d6;}.cls-31{fill:#00397d;}.cls-32{fill:#003d82;}.cls-33{fill:#038894;}.cls-34{fill:#003f84;}.cls-35{fill:#029fcc;}.cls-36{fill:#fdfcfd;}.cls-37{fill:#0c2a59;}.cls-38{fill:#00a4a5;}.cls-39{fill:#0f6bae;}.cls-40{fill:#58bac0;}.cls-41{fill:#1fa3bb;}.cls-42{fill:#fcfafb;}.cls-43{fill:#0b5a8f;}.cls-44{fill:#3bafd3;}.cls-45{fill:#b5e5ec;}.cls-46{fill:#fbce33;}.cls-47{fill:#000021;}.cls-48{fill:#c89182;}.cls-49{fill:#095969;}.cls-50{fill:#009284;}.cls-51{fill:#016fa2;}.cls-52{fill:#fdfbfd;}.cls-53{fill:#0e4e88;}.cls-54{fill:#006495;}.cls-55{fill:#00a8a3;}.cls-56{fill:#fcf8fa;}.cls-57{fill:#004da1;}.cls-58{fill:#0277be;}.cls-59{fill:#05394c;}.cls-60{fill:#2e4253;}.cls-61{fill:#634f61;}.cls-62{fill:#4999b8;}.cls-63{fill:#22cdda;}.cls-64{fill:#04355f;}.cls-65{fill:#0e3468;}.cls-66{fill:#552f47;}.cls-67{fill:#0177b2;}.cls-68{fill:#f7dcd5;}.cls-69{fill:#158cc9;}.cls-70{fill:#15bae7;}.cls-71{fill:#38b8ea;}.cls-72{fill:#46a7d9;}.cls-73{fill:#e6f4f9;}.cls-74{fill:#baf8fb;}.cls-75{fill:#063867;}.cls-76{fill:#00a5d2;}.cls-77{fill:#028ecb;}.cls-78{fill:#2eb8d4;}.cls-79{fill:#f46914;}.cls-80{fill:#00a3ab;}.cls-81{fill:#00768f;}.cls-82{fill:#0094d1;}.cls-83{fill:#fefdfe;}.cls-84{fill:#83f1f9;}.cls-85{fill:#008ec2;}.cls-86{fill:#55cbf4;}.cls-87{fill:#2b2a49;}</style></defs><title>splash</title><path class="cls-1" d="M224,276.1c5.08-7,18.14-9.14,17.07-19.91-0.18-1.77,2.63-1.83,4.83-1.61,15.87,1.56,15.88,1.53,18.18-12.6,7.25-.09,11.8-4,15-8.23,2.3-3,4.51-4.08,8.51-3.5,7.34,7.53,16.55,9.52,27.31,7.11,2.25-.5,5.46-0.35,5.11-3s-3.09-2.73-5.66-2.14c-2.94.67-6.24,0.73-7.37-1.91-1.45-3.38,3-4.13,5.23-5.64,3.11-2.07,7.34-1.76,10.51-.59,13,4.8,24.46.27,36.11-2.48a31.87,31.87,0,0,1,9.4-1c17.93,1,21.85-1.84,23.47-16.62,0.18-1.65.41-3.29,0.62-4.94,10.06,2.25,16.93-.91,21.75-7.78,3.4-4.85,8.56-8.18,14.7-10.56-11.61,13.45-23.11,27-34.93,40.29a9.78,9.78,0,0,1-9.59,3.24c-11.56-2.83-21,4-32.09,3.29-2.48-.16-4.92,1.47-4.21,3.85,0.94,3.17,4.39,4.12,7.81,3.71,5.49-.66,11.16-2.13,10,5.44-7.13,17.73-23.53,28.15-43.85,33.95-10.24,2.92-21.39,4.56-32,7.1-9.85-5.29-20-6.72-31.48-4.7-9.54,1.68-20.14-.24-29,4.41C226,280.76,225.27,278.25,224,276.1Z"/><path class="cls-2" d="M342.52,149.29c5.38-.13,11.46-2.37,14.37,4.89,5,3.75,2.35,8.23,1.2,12.58-1.13,2.5-4.33,3.46-4.76,6.5-1.07,9.35-4.72,17.72-9.08,25.94-3.11,5.87-4.4,12.51-4.85,19.12-0.64,9.44-5,16.34-12.83,21.17a71.66,71.66,0,0,1-8.31,4.76c-4.15,1.85-7,4.54-7.47,9.3a6.69,6.69,0,0,1-.5,1.73c-1.83,4.63-5.14,8.31-10,8.4-5,.09-3.34-5.46-4.87-8.39-2.66-7.54-5.38-9.86-12.58-8.5-4.64.88-7.94-1.33-11.75-2.66-8.35-.51-16.37-3.91-24.89-2.86-6.83-1.43-8.42-3.59-7-9.49,2.88-4.27,6.83-6,11.9-5.23,10.75-.11,14-9.95,20.06-16,2.55-2.53,4.9-5.21,7.93-7.18,2.58-1.68,4.87-3.93,5.59-6.83,2.15-8.68,7.84-14.43,14.64-19.42,9.59-6.51,14.92-17.31,24-24.31a3,3,0,0,1,1.16.12c5.07,3,5.09,2.4,8.71,2.53C338.12,155.65,340,152.14,342.52,149.29Z"/><path class="cls-3" d="M355.55,228.17c-1,5.06-5.09,8.33-8.81,10-8.25,3.76-12.14,11-16.85,17.75-2.86,4.09-5.25,5.27-9.61,1.29-4.83-4.4-11.62-1.9-17.45-3.1-2.17-.45-4.59.28-6.52-1.39-5.72-5-12.22-5.16-18.41-1.81-8.21,4.46-17.2,5.4-26,7.21-2.8.58-4.31,2.4-6.18,4.1-3.36,3.06-6.58,6.3-11.73,6.28a6.88,6.88,0,0,0-7.12,5.82c-1,4.79,4,3.59,6.08,5.36,1.28,1.11,3.87.6,5.82,1,5.05,1.14,8.6,4.28,7.94,9.58a19.42,19.42,0,0,0,.82,9.63c5.52,14.55-4.45,23.55-11.85,33.36-1.86,2.47-3.55,1.42-5.1-1.29-3.13-5.51-7.5-8.29-13.68-4-0.26,2.76-2.7,3.44-4.47,4.75a88.37,88.37,0,0,1-21,10c-6.94,2.15-12.2-2.43-18.37-1.75,1.2-5.27,5.76-6,9.8-6.86,5.54-1.13,10.69-3.31,16-5.16,9.47-3.34,13.68-13.44,22.34-18,2.21-1.16,1.23-3.11-.91-3.9-5.71-2.11-11.44-3.37-16.31,1.78-5.43,5.74-12.73,8.35-19.35,12.07a14.23,14.23,0,0,1-11.81,1.37c-6.83-2.31-13.89-2.87-21-3.27-4.16-.23-8.05-0.29-11.72,2.13-2,1.29-4.35,2.11-6.27,0s-1.08-4.45.45-6.31c3.73-4.54,7.21-9.31,11.56-13.29a6.91,6.91,0,0,1,4.74-2.24c14.69,0.54,24.44-10.13,36.22-16.18a4.94,4.94,0,0,0,2.18-2.12c5.59-11.62,17.27-14.31,27.5-19.07,13.14-6.12,27.55-8.85,40.56-15.43,7.27-3.67,15-6.27,20.21-13.23A5.92,5.92,0,0,1,286,232c5.57,4.33,10.2,3.53,17.1,1.73a148.2,148.2,0,0,0,28.8-11.26c5.16,0.44,10.38-.09,15.5,1.07C350.63,224.31,353.72,225.05,355.55,228.17Z"/><path class="cls-4" d="M108.13,275.15l-2.33,3.67a2.2,2.2,0,0,1-.12,2.29c-3.64,4.43-2.44,8.9-.21,13.39a14.21,14.21,0,0,1,1.36,9.9c-0.74,3.08-2.34,5.84-5.33,6.8-4.53,1.45-5.88,4.12-4.51,8.51a2.26,2.26,0,0,1-1.64,1.81c-2.61-1.25-5.36-1-8.12-.73-3.54,0-7,1.24-10.59.44-2.31-.52-3.69.51-4.67,2.6A5.88,5.88,0,0,1,64,327c-3.69-1.5-7.61-1.79-11.28-3.13-2.92-5.72-.52-10.41,2.93-14.83a52.29,52.29,0,0,1,4.71-4.56c5-1.6,7.89-6.24,12.33-8.83-2.25.06-4.29,1.24-6.52,1.07-6.41,2-12.7.75-19-.69-2.27-4.24,1.7-5.32,3.74-7.25,2.23-2.1,4.59-3.94.76-6.64,2.13-3.18,4.73-5.84,3.93-10.55-0.64-3.78,2.58-5.39,5.93-3.42,3.81,2.24,7.45,4.8,7.11,10.35,2.21-1.38,2-3.42,2.79-5,0.93-1.9,1.2-3.53-1.77-3.53-2.22,0-2.49-2.14-3.66-3.35-3.92-4.06-7.67-9-14.55-6.9-1.36.41-2.82,0.65-3.73-.88a3.59,3.59,0,0,1,.33-4c1.91-3,4.56-4.62,8.1-3.73,5,1.25,10,2.7,15.26,2,3.26-.4,4.88,4.61,8.62,2.73,3.51-1.17,6.26-3.33,8.88-7.09-2.52.72-3.45,2.44-4.87,3.38-1.71,1.13-3.44,3.2-5.37.25,1.47-5.49,5.76-9.89,5.78-16,0-1.8,2.19-2.68,3.67-1.88,4.39,2.37,9.74,2.74,13.44,6.52,0.38,1-.78,2.53.81,3.1a2.89,2.89,0,0,0,3.57-1.34c0.78-1.18,1.17-2.6,2.17-3.64,5.66-3.57,8.73-3.18,11.29,2.63,1.65,3.74,6.79,6.21,4.58,11.5l-0.25,3.16c-2.52,1.44-1.66-1.9-3-2.17-0.83,2.11.31,4.85-2,6.49-1.83-.26-2.05-1.73-2.36-3.13a11.17,11.17,0,0,0-.11-1.18c-0.16-.65-0.18-0.57-0.46-0.1a44.77,44.77,0,0,0-6,14.26C109.48,272.32,109.43,274,108.13,275.15Z"/><path class="cls-5" d="M464.82,110.74c1.21-1.29,1.84-4.52,4.39-1.15a5.29,5.29,0,0,0,3,1.79c4.62,0.85,8.1,2.32,6.24,8.21-0.14.44,1.22,1.37,1.88,2.07,2.35,7.15.95,9.63-6.33,10.86-1.27.22-2.57,0.38-2.77,1.75-0.74,5-5.28,7.41-7.43,11.43-2.87,4.78,3.62,7.37,3.38,12.73a6.56,6.56,0,0,1-2.13,4.35A24.33,24.33,0,0,1,447.33,170c-4.56-.15-8.49-0.39-11.91,3.4a6.73,6.73,0,0,1-6,2.12c-1.06-.42-1.84-1.52-1.4-2.32,2.43-4.47,0-7.34-3-10.11-1.38-5.88-.69-11.92-1.26-17.86-0.64,0-1.13.56-1.67,0.55-7.69-.09-14.52-3.73-21.68-5.85-3.17-.94-3.95-5.44-3.13-9,1.06-4.67,4.84-5.9,9.66-6.07a10.62,10.62,0,0,0-6.31-1.78c-7.27.32-9.38-1.8-9.37-9.24,0-2.92.42-5.64,2.82-7.64,2.11-1.75,4.78-2.54,6.75-4.66,4.52-4.85,5-4.74,10.67-.36,2.77,2.62,2.53,6.43,3.64,9.77,2.53-.1,4.12-2.48,6.56-2.42a3.39,3.39,0,0,1,2.79.84c4.68,5.91,12.25,6.28,18.26,9.66s10.61,1.75,14.82-4.05a15,15,0,0,1,3.9-3.68C462.54,110.72,463.57,110.08,464.82,110.74Z"/><path class="cls-6" d="M341.22,103.38l-3.42.49c8.67,3.61,7.81,9.83,6,16.43-0.64,2.41-.62,4.84,2.12,6.2,1.63,2.18.53,3.79-1.21,5.06-7.69,5.63-9.5,14.26-9.31,22.64,0.13,5.79,1.92,11.51-.16,17.31-4.73,1-7.23-1-7.81-5.74-0.15-1.2-.21-2.6-0.95-3.47-6.12-7.17-2.81-14.18.18-21.22a10.42,10.42,0,0,0,.74-2.29c-2.47,3.21-2.37,3.24-4.12,10.78-0.65,2.8-.79,6.28-4.68,6.88A3,3,0,0,1,315,154c-0.87-3.42-.4-6.42,3-8.32,4.73-4,2-9.59,2.85-14.42,1.94-1.66,4.24-3,4.45-6,0.16-2.29.85-4.49,3.72-4.62s4.42,1.37,5.52,3.8c0.56,1.22-.37,3.78,2.35,3.22a4.42,4.42,0,0,0,3.81-4.88,18.27,18.27,0,0,1,.57-6.33c1-3.3.38-6-2.78-7a8.27,8.27,0,0,1-3.66-1.92c-3.24-3.2-2.64-5.26,2-6.77C338.63,101.08,340.86,100.63,341.22,103.38Z"/><path class="cls-7" d="M317.91,145.92c-1.26,2.83-3,5.62-1.17,8.81a1.62,1.62,0,0,0,2.11.61c3.12-1.7,2.94-4.91,3.13-7.84,0.34-5.2,2.84-9.33,6-13.25,3,1.92,1.68,4.57.63,6.37-2.26,3.88-2.44,8.43-4.54,12.3a2.1,2.1,0,0,0-.47,1.07c0.9,3.73,5.59,5.57,5.25,9.73-0.4,4.89,2.33,6.59,6.24,7.58,2.86,0,4.37,1.62,4.68,4.34s-1.49,3.91-3.57,4.88a25.36,25.36,0,0,1-3.85,1.51c-3.22.51-6.09,0.38-7-2.93-2,4.4-4.82,9.65-4.55,15.93,0.06,1.4-.21,3.46-2.7,2.95-2.61-6.16-1.12-12.11,1.18-17.9,1.37-3.44,2.08-6.07-2.74-7-2.87-.54-2.67-3.65-3.85-5.6,3.86-6.9.1-13.57-.6-20.33,0.37-1.2,2.49,1.88,2.37-1.06,0-1.13,1.44-2,2.93-1.48Z"/><path class="cls-8" d="M355.35,300.06c-9.11-8.06-15.47-8.35-25-1.76-6.8,4.68-13,9.92-19.85,14.61a84.67,84.67,0,0,0-15.6,13.79,30.18,30.18,0,0,1-9.21,7.69c-4.13,2.13-2.73-1.1-3-2.65-1.34-2.38-3.1-3.42-5.69-1.71-3.34,2.2-7.51,3.08-11,5-5.55,1.28-11.85.11-16.88,3-0.54.37-1.54,0.64-1.31,1.35s1.22,0.52,1.91.47a11.9,11.9,0,0,0,3.44-1.26,6,6,0,0,1,3.36-.38c6.49,5.81-1.47,6.52-3.52,9.32a17.23,17.23,0,0,1-4.42,1c-3.4-.11-6.3,1.47-9.6,1.74-4.62-1-2.5-3.6-2.21-5.39a8,8,0,0,1-7.45,1.71c-6.47-4.45.61-6.1,1.63-9,4-8.47,14.07-13.36,16-23.14,0.34-1.77,2.24-4,5.16-1.25a4.78,4.78,0,0,0,.18,2.14c1.67,2.71-3,7.39,2,8.07,4.66,0.64,11.77-.52,13-4.9,3.2-11.86,14.47-11.78,24.41-13.51,14.14-2.45,22.81-9.21,26.36-21.8a37.18,37.18,0,0,1,8.67-15.33c8.95-9.31,17.9-18.47,23-30.14,2.12,0.17,2.22,1.66,2.57,3,0.35,2.44,1.81,3.72,4.34,2.5,4.28-2.08-.64-3.8-1-5.73a3.42,3.42,0,0,1,1.72-3.58c1.62-5,6.33-9.16,3.84-15.2,2.92-2.33,6.51-3.85,10-1.1,3,2.36,2.5,5.52.39,8.47a36.2,36.2,0,0,0-3.64,7.67c-0.52,1.29-1.39,3.48-.77,4,9.46,8-1.83,10.68-4.52,14.14-6.9,8.89-10,17.57-4.3,28.34,2.3,4.34,2.54,9.13,6.15,13.34,2.69,3.15-1.45,6.26-3.39,8.6C358.61,305.07,357.48,300.4,355.35,300.06Z"/><path class="cls-9" d="M250.75,252.56c0.63-5.3-4.78-11.14-9.55-9.6-5.79,1.86-7.43-3.39-11-5.34-3.72-2-8,3.88-11.82-.67a6.28,6.28,0,0,1-1.62-3.11c-0.49-3.26-3.29-4.42-5.59-4.48-3.59-.09-6.34-0.21-6.7-4.66a2.2,2.2,0,0,0-1.56-1.47c-4.34.19-3.9-3-4.21-5.75,0.5-1.11,1-2.24,2.51-2.14,0.83,0.05,1.81,1.12,2.11.9,6.82-5.14,10.78,1.66,15.5,4.06,3.64,1.85,7.07,2.88,10.82,1.76,3.44-1,5.7-.11,7.63,2.77a23.11,23.11,0,0,0,3.72,3.9c6.88,6.33,16.56,4.66,21.15-3.62,0.78-1.41,1.25-3,2-4.38,4-7.39,4.82-10.61,13.45-6.58,3.17,1.48,5.62-.45,8.26-2,4.34-2.58,8.56-6,14.23-4.08l0.42,0.76,0.77,4.68c-4.4-3.21-8.67-1.51-12.84.5-2.11,1-2.85,2.68-1.33,4.92,0.67,1,1.69,2.36,1.44,3.22-0.86,2.89.12,7.55-3,8.26-2.61.59-1.36-3.72-2.21-5.71-1.57-3.69-3.93-5.25-8-3.88s-7.29,3.87-5.51,8.25c1.56,3.83.67,6.17-1.18,9.36-1.48,2.54-3.78,6.5,1.84,7.93a1.2,1.2,0,0,1,.91,1.81c-0.68,1.55-2,1.72-3.49,1.59C262,249.23,256.44,251.38,250.75,252.56Z"/><path class="cls-10" d="M400,80.46c-6,1.94-11,4.95-12,12-1.63,2.7-4.6,4.2-6.23,7,1.56,1,2.95-.81,4.4-0.14,2.91,1.73,2.68,4.25,1.32,6.7-1.88,3.38-2.45,7.09-3.44,10.73-1.12,4.11-1.28,7.56,2.29,10.8,1.88,1.7,4,4.59-.31,6.55a5.12,5.12,0,0,1-2.37-1.64c-1.06-1-2.47-1.91-3.64-.84-1.95,1.78.58,2,1.32,2.82,1.57,1.68.4,2.82-.61,4-2,1.61-4.05,1.15-6.18.29-6.17-2.5-12.07-1.64-17.68,1.67-4.35,2.56-9.58,3.31-13.5,6.73-2.66-4.48-.08-8,2.27-11.38a19.6,19.6,0,0,1,5.16-5.65,8.12,8.12,0,0,0,1.1-2.64c0.1-4.44,1.87-4.78,5.17-2.48,4.45,3.1,9.54.58,9.14-5-0.46-6.43,1.78-11.07,7-14.13,4.16-2.45.69-5.77,1.59-8.51,0.65-5.58,3.81-11,1.19-16.79,0.78,0.69,7.6-.07,8.71-1C387.71,77.16,397.43,77.7,400,80.46Z"/><path class="cls-11" d="M350.83,130.16c0.23,2-1.09,3.06-2.33,4.45-3.07,3.43-5.69,7.25-4.87,12.34,1.46,1.92.22,3.47-.87,4.8-2.52,3.09-2.29,6.25-.5,9.45a7.83,7.83,0,0,0,9,4.23,8.76,8.76,0,0,1,7.72,2.19c2.18,2,3.15,4.16.56,6.6-8.32,3.82-16.09,8.76-24.56,12.26-1.63-.52-2.2-2.33-3.66-3.05a1.79,1.79,0,0,1,.24-2.22c0.88-.47,1.75-1,2.64-1.41,6.1-3.08,6.18-3.78,1-8.5-0.6-2.69-1.64-5.36.35-8,0.42-.55.72-1.85,0.41-2.19-3.44-3.84-1-8-1.26-12-0.66-9.6,4.65-14.59,10.73-19.81,0.58-.5.43-1.85,0.62-2.81C347.76,127.49,349.93,128,350.83,130.16Z"/><path class="cls-12" d="M361.93,145.71c4.77,1.15,2,3.84,1.22,6.11-0.79,2-2.57,3.16-4.2,4.34-3.95,2.85-6.44,5.82-5,11.5,0.94,3.82-.1,8.26-6.18,5.9-0.93-.36-2.06-1.12-2.35.39-0.92,4.75-4.08,6.2-8.34,6-5.19-.21-10.87,1.42-14.9-3.66-1.72-2.24-4-1.56-6.31-1.38a34.29,34.29,0,0,1-21.19-5.12c2.64,3.43,4.73,6.39.25,9.08-5.18,3.1-5.12,7.9-3.47,12.84,3.44,10.32-.38,19-5.76,27.37-2.38,1.61-5,1.22-5.58-1.38-2-9-10.12-16.25-7.55-26.53-0.06-2,.1-4.09-0.79-6-0.56-1.19-1.53-2.54-2.84-1.83-3.66,2-6.47,4.94-7.32,9.15-0.73,3.6,1.23,5.77,4.61,6.73a11.52,11.52,0,0,1,5.38,2.63c6.58,10.68,6.78,22.53,6.18,34.53a2,2,0,0,1-.37,1.45c-8.18,5.27-7.53,16.33-14.43,22.42a5.16,5.16,0,0,1-3.24.56c-4.46-.72-4.4-5.14-6.36-7.86-3.4,4-2.73,8.87-2.85,13.54a17.48,17.48,0,0,1-1.77,7.62c-1.77,3.93-2.9,8.1-4.4,12.14-1.56,4.19-5.58,6.07-8.35,4.06-5.06-3.65-9.19-1.52-13.77-.13-7.12-4.54-10.51-11.18-10.87-19.54,0.69-5.45-3-10.17-2.58-15.57,0.58-4.12,4-4.71,7-5.69,3-.82,6-0.6,9.08-0.57,5.68,0,7.34-2.12,5.55-7.66a39.54,39.54,0,0,0-5.61-11.73c-2.6-3.49-5.14-6.27-10.1-4.67-4.55,1.47-5.73-1.49-6.17-5.33a32.4,32.4,0,0,1,5.05-21.29c3.19-5.07,2.07-7.44-3.05-9.95-6-2.95-11.45-7-18.16-1.52-2.55,2.08-4.95.88-5.81-2.23-0.69-2.49-1.17-5-2.95-7-1.41-2.19-1.76-4.24.81-5.87a5,5,0,0,1,2.13-.32c3.61,0.63,3.46-1.7,3.2-4.15s-0.36-5.3,2.68-5.14c6.15,0.33,12.41-2.29,18.46.62,6.79,3,13.92,5.23,20,9.62,5.27,4,11.9,5.95,16.23,11.33,0.78,1,1.89,1.66,3.32.68,2.44-1.67,5.42-11.18,4.19-13.68-3.71-7.57-2.85-10.11,4.58-13.59,9.59-4.5,9.89-5.18,4.31-14.55-2-3.36-2.68-6.44-1.09-10.15,1.24-2.89,1.57-6-.59-8.76-4-5.46-7.11-11-.9-17,2.2-2.14,1.12-4.06-.42-6.06s-3.64-4.11-.2-6.33c4.18-.39,6.71,1.91,8,5.51,1.43,3.91,3.9,7.05,6.39,10.23,0.47,1.93-.89,2.73-2.22,3.46-2.05,1.13-3.17,2.52-1.69,4.87s3.39,2.7,5.75,1.19a14.43,14.43,0,0,1,8.6-2.48c3.75,0.22,4.35,2.07,1.71,4.85-2.92,1.43-6.34,2.42-5.56,6.9,1,5.76,6.15,5.1,9.95,6.51a4.1,4.1,0,0,1,2.26,2.23c3.54,8.34,5.8,17.64,16.38,20.34,3.74,1,6.79,1,9.59-2.16,3.34-3.77,7.69-4.68,12.5-3.42,4.45,0.21,5.46,7,10.72,5.64A69.18,69.18,0,0,1,361.93,145.71Z"/><path class="cls-13" d="M322.41,197.94c1.24,0.13,3.1.84,3.6,0.28,1.37-1.5.3-2.72-1.38-3.35-1-.36-2.43-1.45-1.79-1.91,6-4.25,3.91-12.36,8.4-17.2,0.78-.84,1.69-2.25,3-0.86,0.9,0.94.9,2.18,0.62,3.56-0.53,2.68-4.87,5.26-1.19,8,3,2.2,5.36-.89,8-2.48,6-3.69,6.69,1.93,7.82,5.51,1.06,3.33-1,6.45-1.93,9.61-0.42,1.47-1.43,3.25.18,4.13s2.75-.68,3.25-2.21c0.64-2,1.07-4.51,3.69-4s4.09,2.85,4.16,5.72c0.1,3.64,1.68,8,5.16,6.5s10.61-1.09,9.25-8.71c-0.42-2.35,9.76-14,12.69-14.5,4.17-.69,5.87,2,6.54,5.68-7.31-.62-9.75,3.91-10.69,10.17-1.13,7.54-.87,15.13-9.23,20.05-5.77,3.4,13-22.45,19.2-17.94,9,6.59-6.65,57.49-6.46,66.8,0.13,6.38-33,5.82-27.08,9.48-6.61,1.53,24.07,5.18,22.94-1.35-1.37-7.92-6.06-12.95-14.95-11.6-4.37.66-7.75-2.13-11.65-3.09-6.79-1.67-13.48-.57-20.21.07l-1.46-.08c-0.29-3.68,3.61-2.89,5-4.8,3.76-5.84,3.17-11.44-.9-16.82-1.66-2.19-3.88-4.07-3.64-7.22,1.23-3.73,3.51-3.21,5.82-1.25,2.14,1.81,3.71,4.21,6.11,5.83-7.5-10.56-14.76-21.3-25.48-29.1-2.26-1.65-5.81-2.64-5.15-6.71C317.27,202.12,321,201.53,322.41,197.94Z"/><path class="cls-14" d="M290.65,99.13c-0.46-5.14-.67-9.46-7.38-3.83-2.63,2.21-5.59,3.71-7.37,7-5,9.16-5.22,9.18-10.42,0-1.76-3.09-3.63-2.42-5.35-.78-3.27,3.11-6.2,6.58-9.27,9.89-2.83,1.57-3.77-.28-4.49-2.52,1.23-8.9,3.34-17.72,2.92-26.81,2.9-3.26,6.05-6.38,3.66-11.42-0.71-1.5-.41-3.73,1.39-3.59,7.12,0.54,12.1-6.87,19.44-5.08,11.89-5.68,20.32-1.51,26.63,13.17-0.13,5.36-3.81,10.4-1.39,16.07,0.32,0.76-.74,2.33-1.71,2.07-5.57-1.53-3.46,3.92-5.29,5.74A10,10,0,0,0,290.65,99.13Z"/><path class="cls-15" d="M487,110.2c-0.33,1.78.31,5.17-2.83,3.75-5.35-2.42-7.29-.18-9.46,4.42-1.58,3.36-4.67,5-9.33,4.41-10.56-1.23-19.52,8.33-18.26,17.8,0.63,4.73,4,6.43,7.15,8.17,5,2.76,7.65,6.45,6.78,12.31l-4.87.13c-11.12,1-15.2-7.51-19.4-15.23-3.63-6.67-3.92-14.13.91-20.29,7.8-9.94,17.89-16.44,30.83-17.43,3.43,0.85,5.46-1.33,7.48-3.56C480.44,104.87,484.77,105.38,487,110.2Z"/><path class="cls-16" d="M409,176.51c2.11,8.38-4.86,20.69-13.16,23.28a35,35,0,0,0-4.23,1.69A16.35,16.35,0,0,1,370.3,195c-2.21-3.79.71-15.64,5.67-18.7,6.17-3.8,14.42-2.08,18.62,1.48,6.61,5.61,10,3.88,14.4-1.31h0Z"/><path class="cls-16" d="M360.11,219.65c-10-2.91-10.18-3.17-6.53-14.72,1.85-5.86,6.23-11.72-.61-17.24a0.82,0.82,0,0,1-.21-0.71c3.6-11.6-1.2-10.54-9.75-7.65-5.21,1.76-11.56.29-17.37-.12-2.14-.15-5.09-1-2.34-4.34,3,2.56,16,4.42,18.49,2.64,2-1.44,1.33-3.69,1.53-5.65,0.17-1.61.55-3.3,2.18-3.72,2.24-.58,2.14,1.47,2.5,2.88s1.16,2.49,2.66,2c2.64-.94,2.33-3.79,1.67-5.24-5.28-11.61,5.65-11.72,10.81-15.91,4.4-1.13,6.36,1.07,3.7,4.47-8.52,10.89-.67,23.91-5.13,35.2a3.7,3.7,0,0,0,.29,2.24c4.18,12.16,3.78,13.34-7.29,20.87C355.12,217.78,360.56,215.61,360.11,219.65Z"/><path class="cls-17" d="M415.07,182.52c2.07-.22,4.91,1.21,5.77-1.86,0.67-2.38-1.55-3.35-3.24-4.49s-4-2.18-3.06-4.52,3.54-1.15,5.41-1.3c5.75-.45,10.57,4.76,16.6,2.86,9.32,1.27,11.2,4.3,7.25,13.09-1.88,4.18-.27,10.85-7.36,11.78-9.93-.67-14.89-9.68-22.76-13.82Z"/><path class="cls-18" d="M470,110.14c-13.7.5-24.34,7.35-31.8,18.11-5.63,8.11-.39,20.46,9.1,28.72a16.6,16.6,0,0,0,8.81,4.23c1.54,2.49,4.9.88,7.74,4.36-8.07-.83-14.72-1.67-20.43-6.07-4.84-3.73-7.89-9.07-11.61-13.8,0.67-9.07-2.25-19,6.11-26.25,5.09-9.72,14.67-12.54,24-15.5,2.84-.9,6,0.27,8.57,2.16C472.55,107.6,472.06,109,470,110.14Z"/><path class="cls-19" d="M413.7,184.25c5.5-1.28,8.62,2.47,11.05,6.18s4.65,5.34,9.18,3.7,3.66,1.31,2.52,3.94a11.44,11.44,0,0,0-5.6,4.75c-2.23,3.55-10.34,2.24-10.63-1.8-0.38-5.38-1.51-9.54-6.37-12.37C413.18,188.26,413.72,185.77,413.7,184.25Z"/><path class="cls-20" d="M292.79,128.34c0.27-2.52.38-4.52,0.73-6.47s0.44-4.24,2.69-5,3,1.22,3.87,2.71a4.13,4.13,0,0,1-1.12,6C297.26,126.88,296,129.13,292.79,128.34Z"/><path class="cls-16" d="M386,120.06c-0.48,2.44-1.7,4.75-4.55,4.94a2.34,2.34,0,0,1-2.24-3.65c1.18-2.08-.73-6.46,3.81-6.07C385.4,115.47,386,117.62,386,120.06Z"/><path class="cls-21" d="M285,106c-0.31,1.27-.73,2.64-2.28,2.55a4.62,4.62,0,0,1-4.1-3.92c-0.45-2.13,1.78-2,3.19-2C284,102.59,285,103.9,285,106Z"/><path class="cls-16" d="M373.55,130.17a95.75,95.75,0,0,0,.08-19.84A23.37,23.37,0,0,1,373.55,130.17Z"/><path class="cls-16" d="M367.59,105.77c-2-.51-5-1.66-3.52-3.55,2.21-2.8,4.83.25,7.08,1.61C369.74,104.06,368.35,104.33,367.59,105.77Z"/><path class="cls-22" d="M430.39,70.13c1.72,1.48,3.87,2.66,5.07,4.48,3.23,4.9,5.38,10.94,13.35,6.55,1.95-1.07,4.67,1.29,6.73,2.8s4,3.28,6.78,1.57l3.16,6.26c0.35,4.8.35,4.8-4.58,9.84,4.71,0.77,9.27.7,13,3.28l0.86,0.59c2.7,6-1.75,4.59-4.77,4.64-1.49-4.34-7.33-6-12.36-3.35-6.93,3.64-14.1,6.92-19.71,12.65-4.93-2.07-7.28,1.85-9.56,4.74-2.06,2.61-4.2,3.47-7.17,2.73-3.25-.81-5.6-3-5.88-6.27-0.85-10.14.41-19.35,8.71-26.95,5.31-4.86,9.68-11.32,5.34-19.54A2.9,2.9,0,0,1,430.39,70.13Z"/><path class="cls-23" d="M384.44,138.42c7-5.31,7.14-7,4.76-15.51-1.44-5.15-3.59-10.86,1.17-15.75a16,16,0,0,0,2.06,13.14c3.51,5.13,3.33,9.72.08,14.26-2.33,3.27-1,4.5,1.49,6.61,3.81,3.18,9,4.55,11.75,9.05,5.57,9.05,2.55,17.83-8.57,24.46-1.28.76-3.19,0.37-2.48,3,2.33,8.6-3,14.06-8.39,19.19-2.45,2.34-4.12,4-.57,6.44,2.17,1.51,1.62,2.48-.52,3.08-2.75.78-1.38,2.25-.72,3.64H382c-2.88.56-3.8-1.52-4.74-3.57-0.55-4.38-2.67-8.41-2.54-13,0.09-3.34-2.37-2.64-4.27-1.85-3.6,1.5-7.17,4.65-10.83.44s-0.2-7.67,1.07-11.63c2.65-8.28,3.17-14.36-7.4-16.37-5.35-1-6.57-6.92-2.55-10.73,4.86-4.61,11-7.35,16.86-10.3,2.46-1.23,5.71,2.16,8.05-1.06,1.74,0.95,1.69,2.82,2.24,4.38,2.17,2.92,4.76,2.07,6.94.36,1.39-1.1,1.19-2.8-.85-3.58a6.92,6.92,0,0,1-3.47-2,2.26,2.26,0,0,1,.1-1.63C381.71,138.48,382.89,137.78,384.44,138.42Z"/><path class="cls-24" d="M378.35,206.28c-3.57-1.32-4.2-7.49-9.54-5.91-5.1,1.79-10.31.84-15.13-.5-6.29-1.75-7.65-7.41-3.57-12.65a79.06,79.06,0,0,0,9-13.42c1-4.48-2.27-8.43-6.73-7-5.5,1.73-9-.23-11.48-4.47s-3.2-9,1.74-12.64c0.65-.48.69-1.79,1-2.71a7,7,0,0,1,6.59-5.23c5.11-.55,8.59-5.45,14.16-5.69,4.19-.18,8.17-0.8,11.82,1.92,1.57,1.16,3,.25,4.38-0.62a1.53,1.53,0,0,1,.22,2.39q0,0.55.12,1.09c-1.35,1.8-3,2.42-5.11,1.35-1.13,2-1.32,6-5.09,2.35a2.53,2.53,0,0,0-3.3-.19c-5,3.19-10.15,6.23-15.18,9.42-2,1.28-3.13,3.16-2.39,5.66,0.61,2.08,1.88,3,4.22,3.54,10.17,2.15,13.46,10.93,7.42,19.8-1.44,2.11-3,4-2.06,6.51,1.21,3.15,3.26,5,6.9,2.75a43.06,43.06,0,0,1,5.83-3c2.21-1,5.14.33,4.58,1.94C374.74,196.56,378.9,201.11,378.35,206.28Z"/><path class="cls-25" d="M226.69,294c0-2.11-.19-4.18-2.7-4.74-3.44-.76-5.94-3.23-8.9-4.85-5.37-3-6.79-7.4-4.51-13.24,0.48-1.24,2.3-3,.83-3.63-8.44-3.79,0-7.25.49-10.44s3.61-2,5.17.59c-0.41,4.17,2.87,3.24,5.14,4,6.55,2.09,12.84-1.08,19.29-.8,0.63,0,1.32-1.3,2-2,1-4.72,5.25-4.79,8.43-4.78,6.51,0,13.13.41,19.41,2.47s7,6,2.43,10.65c-1.25,1.27-2.86,2.23-3.5,4s0.08,3.51,1.08,5.07c2.11,3.27,4.68.14,7,.54,2.26,0.08,3.35,2.83,5.76,2.56,8.71,1.64,16.43-3.13,24.78-3.91,1.54-.14,3-1,4.64-0.92,1.86,0.05,3.58.49,4.53,2.3,1.08,2.07-.29,3.4-1.6,4.65-2,1.93-4,3.91-5.91,5.91-1.21,1.29-3.08,2.42-2.89,4.34,0.63,6.34-3.53,9.08-8,12.07-5,3.41-5,5.51-.92,9.73,2.9,3,2.22,3.84-4.33,5.57-5.74,1.36-10.06,4.81-13.57,9.44-3,2.94-6.62,3.35-10.52,2.46-3.8,1.9-5,6.45-8.68,8.55-2,1.17-3.88,2.64-6.22,3.19-8.35,1.74-14.1-1.09-17.61-8.66-1.59-3.43.23-8.53,4.61-10.48,4.67-2.08,7.58-5.45,10.31-9.6,3.63-5.5,9.24-7.33,15.71-6.54,3.46,0.42,6.8,1.69,10.36,1.5-4.3-3.51-9.47-2.62-14.41-2.81a14.45,14.45,0,0,0-4.7.85c-3.37,1-5.55.54-5.19-3.73,0.12-1.42,0-3-1.64-3.49-1.85-.58-2.44.87-3,2.18-1.05,2.45-3.18,3.54-5.44,4.42-2,.77-4.14,2.35-6-0.07s-1.37-4.94.22-7.3c1.28-1.91,3.31-2.84,5.27-3.86,2.19-1.14,4.42-2.48,4.09-5.35s-3.22-2.56-5.09-3.52a4,4,0,0,1-2.09-3.47c-0.11-4-2.58-4.32-5.68-4.17-3.35.16-4.45,2-4.5,5.1a51.79,51.79,0,0,1-.26,6.64C229.91,292.41,229.34,294.34,226.69,294Z"/><path class="cls-26" d="M112.22,230.55l-4.37-.56c-4.24-1-5-5-5.85-8.2-2.59-9.53-3.83-19.42-8.64-28.32a8.89,8.89,0,0,1,.48-9.46l4.92-18.09c0.48-2.9,2.39-4.43,5-5,4.29-1,7.74-3.54,11.61-6.08a75,75,0,0,1-8.48-1.17c-4.35-.8-3.85-3.38-1.68-6,2.62-3.14,13.32-4.94,17.33-3.51,2.83,1,2.53,3.23,2.67,5.39a1.06,1.06,0,0,0,1-1c-3.13-11.74-2.52-13.1,8.35-18.09,1.84-.85,3.62-1.83,5.51-2.61,4.27-1.83,8.91-1.41,13.35-2.17,3.32-.57,6.08.65,5.61,5a3.44,3.44,0,0,1-1.35,1.9c-2.47,1-4.92,2.26-7.7,1.45,3.73,1.08,7.18-1.08,10.82-1.25,9.32-.88,18.1,2.3,27.08,3.79,4.35,0.72,7.15,3.82,6.83,8.79-3,9.77-3.09,9.9,6.92,14.13,5.89,2.49,9.84,8.09,16.12,9.83,2.06,1.6,2.72,3.55,1.58,6-0.51,1.11-1.31,2.46.58,3.1a4.29,4.29,0,0,0,3.65-.48c1.36-.81,1.38-2,0.61-3.24-1.42-2.29-2.37-4.57-.32-7,12.15-7.36,19.58-3.58,20.25,10.39a57.05,57.05,0,0,0,1.55,10.59c0.67,2.78,1.52,6.19-.6,8.09-5.08,4.53-4.93,10.52-6.41,16.35-1.32,5.2-5.47,9.7-8.84,14-4.28,5.41-7.75,10.59-7.51,17.75a6.71,6.71,0,0,1-1.77,4.17,8.51,8.51,0,0,1-3.83,2.64c-11.07,1.17-16.65-1.61-21.16-11.65-2-4.39-3.46-3.84-6.42-1.25a70.66,70.66,0,0,0-8.78,8.43,8.35,8.35,0,0,1-8.09,3.25c-1-.15-1.95-0.63-2.93-0.78-10.85-1.65-17.82-6.43-15.7-19,0.28-1.64,0-3.65-3.44-5.4,5.1,5.62,1.09,10.41,1.1,15.25,0,7-8,4.74-11.58,7.93a8.14,8.14,0,0,1-4.33.32c-4.14-1.52-6.41-3.64-7.89-8.68-1.24-4.23-8.19-5.52-12.59-8.16C114.11,231.3,113.07,231.1,112.22,230.55Z"/><path class="cls-27" d="M40.13,221.53c-7-9.76-5.21-18.49,2.41-27.12,2.42-2.74,3.16-6.92,5-10.26,1-1.86,2.34-3.58,1.22-5.65-1.41-2.6-4.06-1.63-6.19-1.47s-4.43,1.08-6.68,1.31c-3.35.34-6.17-.41-6.5-4.59,0.54-3,1.15-5.95,1.59-8.94,0.29-2-.27-4.31,2.6-4.72a4.35,4.35,0,0,1,5.16,3.48c1.63,6.9,5.28,7.54,11.7,5.86,7.71-2,15.87-2.91,23.92-1.35,5.28,1,4.4-2.34,3-4.7-1.76-3-4.52-5.41-6.84-8.08a5.28,5.28,0,0,1,6.93-1c7.74,5.49,16.11,10.67,17,21.67-4.94,5.4.71,8.66,2.56,12.68,2.41,5,7.09,8,10.43,12.16,1.88,2.35,5.49,5.63,3.73,7.86-5.7,7.21.92,12.08,2.32,17.85,0.89,3.69,3.16,7.06,2.43,11.13-0.68,2.68-1.37,5.37-2.31,8-1.72,4.75-4.62,7.74-10.16,6.34-2.4-1.19-4-5.1-7.48-2.66-2.7,1.92-1.58,4.24.3,6.24,1.39,1.77,5.18,1,4.84,4.56-10.44,1.87-12.79,0-12.22-9.45,0.3-5,2.61-7.44,7.57-7.53,1.65,0,3.5.67,5-.91-1.35-3.2-4.39-1.69-6.59-2.38-16.49-5.23-34-7.38-48.94-17.26C44.47,221.51,42.1,221.83,40.13,221.53Z"/><path class="cls-28" d="M92.8,196.08c-2.61,2.1-5.69,3.16-8.77,4.35-4.82,1.86-6.54,5.62-4.67,10.48,2.65,6.88,2.79,6.82-5.18,8.23-0.37-2.64,4.53-3.49,2.49-6-1.54-1.87-4.28-1.09-6.48-1.14-6.71-.16-9.42,1.19-12.94,6.52,5.14-1.6,9.22,3.18,14.44.81a19.9,19.9,0,0,1-13.91,9.35,9.37,9.37,0,0,0-6.11,3.68c-3.55-1.73-7.42,4.09-10.85-.46,1.78-2.44.81-3.55-1.83-3.88-3.21-.4-6.45-0.07-9.66-0.37-3-.28-6.22-0.29-6.4-4.59,3-6.9,9.08-1.59,12.58-3.57-4.09.49-8.09-.69-9.77-6,0.08-4.67,1.78-9.57-1.92-13.7-1.26-2.31-3.77-2.39-5.79-3.34-5.71-2.69-8-7.92-6.15-13.88,1.55-5,6.37-8.08,12.24-6.05s9.3,0.45,12.75-4.2,8.61-6.87,14.45-7.51c5.53-.61,10.88-2.48,16.48-2.83,17.37-.32,34.46-5.1,52-3.25,8.06,0.85,16.12,1.2,24-1.12,5.21-1.21,10.49-2.5,10.68,5.78,10.7,4.75,1.22,14.55,5.09,21.27,1.22,2.12-1.52,5.32-4.53,6.15-3.22.88-4.41-1.79-5.68-4a20,20,0,0,1-2-5.8c-1.13-5.17-5.43-8-9.49-7-7.16,1.73-13.47-.78-20.14-1.57-12.34-1.15-24.69-2.74-36.12.4,2.64,0.36,8.31-1.33,8.87,2.52,0.6,4.13-5.09,3.46-8.32,4.15-2.92.63-5.25,3.4-8.59,2.41-5.71-4.8-10.81-10.79-19.48-9.68-3.08.4-6.51,0.34-6.21,4.72,0.27,4,2.46,6.55,6.83,6.5,3,0,5.93-1.37,8.94-.2,4.62,3.33,8.91.33,12.85-1.27a33.41,33.41,0,0,1,12.36-2.94c1,0,2.36.27,3-.37,7.8-8.42,12.32.7,17.51,3.71,4.06,2.35,3.41,5.41-1.72,6.26-2.91-.11-5-2.62-7.59-3.08-3-.52.07,1.3-0.41,1.91C100.61,193.1,94.6,192.87,92.8,196.08Z"/><path class="cls-29" d="M126.21,345.93c-3.29-11.82-13.29-21.15-22.92-21.39-4,1.16-7.32.61-9.32-3.61a4.5,4.5,0,0,0-4.24-2.57c-1.16-1.21-2.28-2.43-1.5-4.33l3.88-.35c9.89-4.49,19.52-2.46,29.07,1.21a5.67,5.67,0,0,0,3.66.59c3.35,1.15,5.61-.45,7.46-3,6.68-1.95,11.89,3.41,10.77,11.29-0.5,3.56-1.38,7.47-3.47,10.06-4.09,5.08-3.51,11-4.63,16.67-0.84,4.24.44,7,5.25,7.28s8-2.06,6.75-6.75c-3-11.2-1.77-22.85-4.36-34-0.64-2.77-1.94-5.84.74-7.81,2.93-2.16,5.31.28,7.07,2.43,4.82,5.92,11.86,6.13,18.41,7.68,1.49,4.5-1.31,6.5-4.66,8.18-4.38.3-5.48,2.69-4.11,6.64,2.15,6.94,2.21,14.72,8.11,20.11,0.51,3.18,1.46,6.27,1.75,9.5-3.15,11.92-7.43,23.55-9.28,35.81a2,2,0,0,1-1.08,1c-8.22,2.49-8.22,2.49-5.9,10.5-4.82,2-7.7,1.46-6-4.82-2.68-6.89-2.63-15-9.4-20.07-1.91-1.43-1.51-3.56,1.2-4.63,5.3-2.07,3.41-4.65,1-8.13-3.78-5.4-10-8.63-12.58-15C130.23,353.83,128.52,349.84,126.21,345.93Z"/><path class="cls-30" d="M230.21,173.55l-19.8-9.37c-3.42-2.59-7.35-4.56-9.75-8.38-3.48-5.54-5.23-11.1-.7-17,1.09-1.42,2.27-3.23,1.69-4.93-3.67-10.78,6-17.2,8.14-26.08,2.32-1.25,7.68,1.51,6.16-4.81-0.55-2.3,0-4.14,2.57-4.71,2.85-.64,5,0.52,6.37,3,1.6,2.9.61,6,.53,9.26,2.65-1.5,4.77-4.39,8.22-2.52,5.68,9,9.22,18.92,12.35,29-3.8,4.49-.39,8.28,1.2,12.27a63.19,63.19,0,0,1,.46,13.76C247.16,175.34,241.23,178.84,230.21,173.55Z"/><path class="cls-31" d="M184.48,176.41c5.35,1.43,1.78,8.28,4.87,9.49,3.34,1.31,4.92-5.34,9.53-4.67,7,1,12.46,5.35,18.46,8.38,3.14,1.59.86,5.21-.68,7.34a32.59,32.59,0,0,0-6.35,21.34c0.18,3.82,0,6.73,5.4,4.27,4.65-2.12,10.88,2.67,14,10.64,1,2.58,2.06,5.14,3,7.73,2.54,6.67-.81,10.48-7.91,9.71a82.85,82.85,0,0,0-8.38-.09c-4.54,1.83-7.86-.56-10.77-3.51a99,99,0,0,1-7.33-8.83c-6.89-8.81-9.22-9.85-19.37-5.23-6.84,3.11-12.34,2-17.45-2.68-2.94-2.68-6.51-3.91-9.92-5.53-5-2.38-6.53-5.49-2.7-10.17,1.9-1.13,3.77-.8,5.64.1,4.56,3.36,10.38-.67,15,2.57,2.64,2.74,5.93,5.09,9.28,2.28,4.39-3.67,3-8.72,1.34-13.43,0.66-5.16.08-10-3.4-14.19-1.29-1.55-1.67-3.65-2.12-5.62-1.48-6.49-.6-7.68,6.16-8.34a7.69,7.69,0,0,0,2.71-1.2Z"/><path class="cls-32" d="M222.57,289.06c8.81,0.66,15.71,9.18,25.46,6.28a2.35,2.35,0,0,1,3.17,2.33c-0.07,2-1.84,2.05-3.38,2.22-9,1-18,2-27.07,3-2.42.27-5.92-.73-6.4,2.51s3.31,4,5.37,4.31c9.4,1.43,15.36,7.3,20.26,14.77,1.08,1.64,2.73,3.38,1.72,5.57-1.21,2.61-3.3,1.1-5.26,1-4.87-.35-9.1.31-6.53,7.18,0.64,1.7.7,3.89-1,4.9-2.42,1.42-2.48-1.75-3.78-2.46-4.35-2.38-6.62-6.67-9.53-10.28-4.29-5.33-9.94-5.26-15.31-4-7.37,1.76-4.73,8.47-5.19,13.51a3.76,3.76,0,0,1-4.83-1c-3.3-4.3-7.33-6.7-12.82-6.89-2.06-.07-4.06-1.51-3.75-4s2.45-3,4.62-3c1.77,0,3.61-.47,5.29-0.17,5.55,1,6.85-2.18,6.94-6.75,3.16-4.47-3.07-4-3.42-6.59a2.19,2.19,0,0,1,2.77-1.49c-0.84-.54-1.63.09-2.44,0.12-6,.22-8.46-2.39-7.27-8.34a34.66,34.66,0,0,1,8.25-16.92c1.74-1.9,3.43-3.67,4.3-6.13,4-2,4.59,2.72,7.11,3.72s4.65,3.33,7.65,1.93c3.43-1.6,2.22-4.47,1.91-7.24-0.35-3.07-.13-6.16,4-6.68C213,278.39,217.37,283.94,222.57,289.06Z"/><path class="cls-33" d="M298.59,124.37c8.69,2.91,15.84-1.68,23.29-4.84,3.13-2.61,6.23-2.69,9.28.14,5.35,4.1,5.62,4.09,18.91-1.45-4.58,5.8-8.38,10.32-11.82,15.1-1.36,1.89-4,4.59-1.48,6.65,1.83,1.49,5-.22,6.84-1.81,3.41-2.9,8-4.61,7.19-11.18-0.41-3.43,3.19-7.5,7.81-8.21,4-.61,7.89.46,9.8,4.22,1.81,3.57,1.14,7.13-1.55,10.65-6.07,8-12.24,15.41-22.47,18.23-1.92.53-5.31,1.6-5,5,0.17,2.13,2.17,2.58,4,2.76-2.23,2.39-4.29,1.44-5.52-.84s-3.66-3.43-5.35-5.27c-0.53-2.7-2.9-2.28-4.7-2.83-5.74-1.75-6.52-3.47-3.11-8.43,2.44-3.55,5.16-6.81,4.47-11.52-0.21-1.36.25-3.11-1.51-3.67-1.14-.36-1.54.72-1.74,1.71a12.79,12.79,0,0,1-2.29,9.42,18,18,0,0,0-3.37,12.19c0.5,4.95-2,7.76-7,7.76-4.6,0-7.89-1.5-7.29-7.19,0.54-5.13-2.86-7.8-6.78-10-2.16-1.2-5.07-.8-6.64-3.24l-0.6-1.82c-0.41-2.76,2.06-2.63,3.47-3.57C297.95,130.3,296.46,126.57,298.59,124.37Z"/><path class="cls-34" d="M230.21,173.55c12.31,3,15.74.2,15.52-12.6-0.08-4.6-.28-9.2-0.43-13.8,0.86-3.31,1.91-6.63-.32-9.84-2.9-6.69-5.85-13.35-8.69-20.07-1.17-2.76-2.11-5.61-3.15-8.42a3.66,3.66,0,0,0-3.4-1.2c-1.62.22-3.77,3.09-4.69-.57-0.61-2.44.59-4.36,2.89-5.65,8.17-4.57,12.18-2.81,14.16,6.29,1.81,7,6.5,11.47,12.59,15,3.27,1.9,5.94,2.13,8.91,0a2.71,2.71,0,0,1,1.63,3.14c-3.21,8.63,0,16.17,3.64,23.69,1.94,4,.44,6.18-3.68,7.22a27.92,27.92,0,0,0-7,2.74c-4.1,2.37-7.46,4.78-1.92,9.71,2.8,2.49,4.47,6.55-.57,9.39a2,2,0,0,0-.93,1.17c-2.74,14.18-7.47,6.95-12.61,1.43C238.91,177.71,233.33,177.5,230.21,173.55Z"/><path class="cls-35" d="M263.62,122.71c-0.52,4.47-3.32,5.92-6.77,3.74-6.87-4.35-14.47-8.3-16.1-17.62a7.55,7.55,0,0,1-.48-5.15c1-5.14-.72-7.53-6-7.65-4.14-.09-5.55-3.73-7.32-6.74-0.08-9-5-3.06-8.17-2.71-6.4.47-9.06-5.77-13.94-8.22-3.56-1.79-.65-5.74,1.85-8.12a13.54,13.54,0,0,0,3.86-4.69c0.66-1.15,2-2.74,2.81-2.18,8.26,5.89,15.39-2.29,23.17-1.68a10.36,10.36,0,0,1,3,.39c8.42,9.23.83,15.5-4.54,22.14,2.75,0.86,3-1.3,3.84-2.4A44.49,44.49,0,0,1,242,77.61c4.72-4.67,8.71-3.72,10.75,2.53-0.67,3.34-3.21,5.57-4.86,8.34-0.93,1.57-1.51,3.55.14,4.78,2.07,1.53,2.58-1.7,4.21-1.93,2.32,2,7-2.73,8,2.85,2.63,6.28,7.18,12.16-.84,18.65C257.3,114.59,261.25,119.68,263.62,122.71Z"/><path class="cls-31" d="M210.34,108.65c-1.82,6.1-1.94,13-8.08,17,4.79,8.12-3.1,14.47-3,21.78,0.12,7.6,7.36,11.16,11.15,16.72-6.15-3.48-12.59,2-18.87-1.27-0.85,4.11,2.68,8.16-.66,11.07-1.54,1.34-3.69-.34-5-2a4.83,4.83,0,0,0,1.25-5.57c-0.79-1.91-1.78-3.71-4.06-4.13a1.72,1.72,0,0,0-2,.82c-1.22,2.85,1.64,3.17,2.87,4.5s3.06,2.1,1.84,4.34c-2.34.91-2.64,2.44-1.33,4.46l-0.22.22c-2.36,1.65-4.54.53-6.3-.86a48.19,48.19,0,0,1-12.69-15.15c-2.7-5.06-.65-9.69,4.87-11.13,3.65-1,3.17-2.53,2.1-4.86-1.61-3.49-3.73-6.71-5.65-10-2.19-3.8-1.34-6.6,1.88-9.38,5.57-4.81,12-7.11,19.07-6s9.93-1.57,10.77-8.1a13.13,13.13,0,0,1,2-5c2-3.14,4.88-4.56,8.38-3.32C211.48,103.83,214,105.52,210.34,108.65Z"/><path class="cls-36" d="M260.33,94.18c-0.78-2.79-1.76-2.1-3.5-.56-3.68,3.26-3.35,0-3.36-2.38,0.23-8,1.54-15.26,8.91-20.44,2.81-2,5.67-5.54,4.68-10.1-2.54-3.66-2.56-7.39.53-10.5,3.43-3.45,1.76-10,7.41-11.94,8,1.11,11.54,8,7,15.25-2.77,4.43-3,8.21-1.3,12.66-0.38,1.91,1.89,4.73-1.85,5.5-2.73.95-3,2.7-1.61,5,0.09,3.18.61,6.41,0.16,9.51-0.5,3.44-1.61-1.18-2.53-.07-3.41,3.75-3.31,5.92.54,7.89,3.25,1.66,6.31,3.39,6.65,7.6,1,6-.81,9.46-7.45,8.87-4.57-.1-6.07-4.66-6.59-7.15C267,98.37,263.66,96.54,260.33,94.18Z"/><path class="cls-37" d="M193.75,278.24c-0.05,2.37-.49,4.61-2.49,6.16-5.15,4-7,9.79-8.71,15.75-2.06,7.19-1.14,8.63,6.19,8.88,1.51,0.05,3,0,5.35,0-2.13,2.63-5.39.66-6.71,3a4.26,4.26,0,0,1-1.3,1.64c-3.91,1.76-8.55,1-12.15,4.42-1.53,1.44-3.07-.35-1.86-2.67a2,2,0,0,0,.24-0.72c-1.1-11.45,6.29-19.34,12-27.61,3.8-5.46,7.82-10.13,5.62-17.37-0.24-.78.91-2.69,1.8-3,7-2.61,6.17-7.94,4.46-13.25-1.06-3.29-.9-6.51-0.94-9.81-0.13-10.72-4.78-13.89-14.39-9.87-1.39.58-2.82,1.08-4.24,1.62-1.6,2.52-3.68,2.89-6.18,1.39-9.35-2.26-16.11-9.47-24.73-13.31-4.66-2.08-2.9-6.77.5-10a2.26,2.26,0,0,1,2.68-.5,1.65,1.65,0,0,1,.6,1.72c-2.09,4.54-1.32,7.25,3.94,9.12A27.56,27.56,0,0,1,163.84,230c6.48,6.48,13.63,2,19.9,0,7.8-2.49,11.68.9,16,6.38,4.54,5.82,7.82,13.52,16.77,14.13-1.44,2.45-6.24.42-6.24,4.78a3.13,3.13,0,0,1-2.85-1.12c-1.55-1.51-2.73-3.51-5-4.48-1.67,4.17,1.61,5.63,3.4,7.8,2.78,4.11,2.26,8.86,2,13.32-0.37,5.28-5.16,7.94-9.55,5S195.51,278.09,193.75,278.24Z"/><path class="cls-38" d="M292.48,137.71c6.9-.7,11.44,2.94,15.2,8.22,1.09,1.53,2.33,2.83.81,4.7s-2.27,3.69.25,5.08a9.24,9.24,0,0,0,7.41.31,3.71,3.71,0,0,0,2.48-5c-2.41-5.73.45-10,3.55-14,2.53-3.27,2.19-6.52,1.32-10,3.19-.67,5.26,1.42,7.5,3.08,1.06,5.19-.93,9.1-4.53,12.77-3.09,3.16-4.1,6.1,2.42,6.06,2.07,0,7-.6,3.59,4.54-3.7.06-8.05-1.38-10.52,2.5-5.31,8.32-12,3.63-18.07,2.06C299.81,157,292.17,142.44,292.48,137.71Z"/><path class="cls-39" d="M193.75,278.24c-0.08-1.51-.27-3-0.22-4.54s-0.41-3.35,1.5-3.82,2.56,1.14,3,2.65c0.55,2,1.24,4.28,3.84,3.53,2.18-.63,4.69-2.75,4.31-4.7-0.85-4.37,1.26-9.17-1.86-13.15-1-2.46-5.36-4.62-3.17-7,2.64-2.86,5.05,1.5,7.61,2.6l1.49,1.51c0.25,5.22,4.69,9.56,3.13,15.16-2.09,2.36-4.18,4.89-1.74,8.06,1.82,2.37,1.41,4-.51,6-2.11,2.13-4.46,4-7.37,2.45C199.79,284.88,195.39,283.1,193.75,278.24Z"/><path class="cls-40" d="M244.18,194.5c-1.36,3.5-3.69,2.76-6.12.62-2.61-2.3-4.39-2.86-4.52,1.66-0.06,2,.15,4.72-3,3.74a4,4,0,0,1-2-5.78c6.5-8.15.39-9.31-5.44-11.27-2-.67-3.51-2.78-5.34-4.08-2-1.42-5.4-2.5-3.76-5.52,1.94-3.57,5.27-1.39,7.1.34,5.77,5.48,13.93,7.36,19.26,13.41C242,189.52,244.13,191.07,244.18,194.5Z"/><path class="cls-41" d="M274.48,190.32c-2.54,2.21-1.52,5.06-1.31,7.72,0.19,2.48,0,4.6-3.17,4.66-2.8-2.12-7.25-.13-9.43-4-1.61-2.84-2.67-6-.72-8.64,2.83-3.79,5.41-9.86,9.6-10C274.41,179.85,274.25,186,274.48,190.32Z"/><path class="cls-42" d="M295.39,133.38l-3.52,2.52a15,15,0,0,1-8.9-1c-5.31-2-4-6.69-3.82-10.43,0.27-5.11,5-2.92,7.77-3.83l5.49,1.63C299,124.43,298.43,128.57,295.39,133.38Z"/><path class="cls-43" d="M254.52,249.06c0,8.43,0,16.86.08,25.28,0,2.85-1,5.12-3.55,6.23-2,.9-3.28-0.54-3.92-2.45,3.81-2.65,3.69-6.63,4.29-10.76,0.77-5.3-2.56.2-2.83-1.43C249.54,259.95,246.68,252.59,254.52,249.06Z"/><path class="cls-44" d="M248.58,265.94l2.68-3.42c3.72,10.71,2.65,14.65-4.14,15.61L247,273.64C248.67,271.3,248.29,268.55,248.58,265.94Z"/><path class="cls-45" d="M220.73,253.72c2.32,0.22,4.79.26,5,3.43,0.2,2.55-1.27,4-3.62,3.8-2.65-.27-5-1.91-5.29-4.69C216.59,253.78,219.09,254.06,220.73,253.72Z"/><path class="cls-43" d="M262.3,259.85a17,17,0,0,0,1.24,1.87c1.6,1.85,2.85,3.93.6,5.88-1.93,1.67-3.16-.59-4.19-1.74-1.57-1.74-5.46-3.5-.69-6.06Z"/><path class="cls-46" d="M465.59,127.09a10.72,10.72,0,0,0,1.22,2.65c6.88,8.08,6.69,11.11-1.18,17.47-6.21.62-11.8-.43-14-7.22-2.07-6.37,1.94-9.91,6.76-13C461,125.32,463.2,126.32,465.59,127.09Z"/><path class="cls-47" d="M442.74,100.58c0.86,5.22,8.49,6.07,7.8,12.3-8.22,2-9.46-6.54-14.64-9.28C437.78,100.69,440.25,100.61,442.74,100.58Z"/><path class="cls-48" d="M447,93.87c-0.75,2.19-2.55,3-4.59,3.2-2.3.21-3.1-1.5-3-3.38,0.14-2.2,1.83-2.89,3.77-2.61C444.88,91.32,446.85,91.39,447,93.87Z"/><path class="cls-49" d="M314.3,79.47a36.07,36.07,0,0,1,18.29-3.25c1.86-1,3.52,0,5.23.55,5.48,1.58,10.48,3.72,11.52,10.34-0.2,4.8,2.35,9.25,1.29,14.26-2.29,10.81-9.8,15.64-19.46,18.28l-9.28-.14c-12.52-2.06-20-17.83-14-29.63C309.77,86.28,312.16,82.94,314.3,79.47Z"/><path class="cls-50" d="M349.34,87.12c-3.34-4.06-6.62-8.2-12.27-9.08a3,3,0,0,1,3.23-1.65C352.59,76,356,64.62,363.13,57.76a2.93,2.93,0,0,0,3.13,3.16l-4,4.56c1.82,2.88,6.75.72,7.75,4.83-1.18,2.06-3.15,1.15-4.77,1.37-6.79.93-13.35,2-12.85,11.39C352.45,85.06,351.06,86.31,349.34,87.12Z"/><path class="cls-29" d="M234.42,329.83c1.58-6.55-1.78-8.57-4-9.62-3.57-1.68-1.64,4.63-2.45,6.92-2,5.67-1.9,11.61-1.82,17.67,0.12,8.61,2,21.6-5.91,7.58-5.89,10-10.43-6.22-14.27-3.9-7.17,4.32-12.3,3.29-17.88-5.85-1.82-3-5.18-2.32-6.57,4.88-1.53,7.9-3.84,15.27-5.81,22.86-2.81-6.26-9.19-9-5.92-21.28,2.39-2.78,7.28-3.41,2.88-12a171.68,171.68,0,0,1-2.59-18c0.48-5.57.05-10.75-1.84-15.32,0.53-8.69,6-17,10.91-15.3a30,30,0,0,1,9.29,5.83c3.86,3.36,1.42,9.92,1.12,15.26-0.14,2.54.14,4.83,1.62,5.72s2.94-.19,4.32-1.57c2.39-2.39,2.44-10,6-9.63l1.42,3.08c3.16,5.08,2.31,13.19,4.12,19.42s3.27,11.79,7.7,11.13c4.28-.63,6-6.06,7.1-12.76,0.53-3.07.3-6.74,1.92-9a59.6,59.6,0,0,1,6.06-.34c2.91,0.12,6.61,3.86,8.39-2.17,2-6.73-2.72-8.63-4.12-13.07-0.78-2.46-2.09-4.52-.86-7.48s3-1.41,4,.19c6.33,9.41,12.79,18.62,18.06,30.25,2.81,6.2.56,9.94-2.43,11.45C246.57,338,246.37,345,249,354.22c0.83,3,2.26,6,.51,8.88-1.88,3-4.88,3-6.42.61C235,351,230.22,347.28,234.42,329.83Z"/><path class="cls-51" d="M202.56,355.32c-2.68,3.31-3.3,8.32-9.24,8.79-4.62.36-6.24-2.51-5.37-5.15,1.62-4.94,4.2-6.49-4-8.72-5.61-1.52-8.53,1.48-12.69,1.28-1.89-.09-1.14,2.32-0.52,3.74a2.13,2.13,0,0,1-3,.19c-9-4.75-7.06-14.13-9.13-21.81a19.32,19.32,0,0,0,4.3-7.47c3.63-.59,4.53-3.87,6.18-6.4-0.77-1-.78-1.94.34-2.71l2.75-1.66,1,1.81c3.07-5.75,8.82-3.84,13.55-4.84,1.1,2.61,3.46,4.11,5.29,6.08-0.46,1.16-1.11,2.22-.2,3.55,3.09,4.51.11,6.24-3.33,4.94-3.93-1.49-7.49,1.93-11.11-.31-0.94-.58-2,0.22-2.46,1.2a1.61,1.61,0,0,0,1.3,2.26c9.11-2.11,12.6,6.59,18.91,9.82,1.32,2.74,2.52,5.81,5.18,7.3C204,349.31,203.74,352.06,202.56,355.32Z"/><path class="cls-52" d="M211,347.68c-7.21,0-12.8-5.27-13-11.68-0.17-4.93,2.24-6.93,6.89-6.92,6.45,0,11.76,5.66,11.51,12.53C216.23,345.33,215.08,348.24,211,347.68Z"/><path class="cls-53" d="M433.38,110.81a5,5,0,0,0,4.5-3.14c2.26-2,4.53-4,6.76-6,1.86-1.69,4-2.46,6.1-.89a6.34,6.34,0,0,1,2.4,5.33c0,2.83-2.05,3-4.09,3.37-3.78.64-6.92,2.73-10.2,4.57S432.93,115.76,433.38,110.81Z"/><path class="cls-15" d="M474.69,104q0.07,0.73.1,1.47c-5-.42-9.79-2.11-14.88-1.57a3.17,3.17,0,0,1-2.54-1c-0.9-1.39.39-2.23,1.34-3,2.74-2.28,7.27-3,6.77-8.06C468.72,95.75,469.66,101.46,474.69,104Z"/><path class="cls-54" d="M155.47,69.49c5.26,0.18,10.53-.07,15.69,1.59,3.57,1.15,5.63,3.07,5.72,7,0.1,4.39-3.29,3.47-5.81,4.12C159,85.28,147.21,82.07,135.44,80c-2.46-.44-4.84-1.3-7.39-1.11,0.15-1.58-4.17-3.15-.54-4.51C136.48,71,145.62,68,155.47,69.49Z"/><path class="cls-55" d="M437.73,185.52c-4.4,3.9-4.4,3.9-9.51-2.1-1.29,3.8-4.1,6.34-6.21,9.39-0.88,1.39-2.31,1.17-3.64,1.26-2.28.22-5.37,2.45-6.36-1.25-0.94-3.51,2.06-4.63,5-5.31-1.11-1.57-4.26-1.47-3.46-4.4,0.67-1.58,3.47-1.56,3-4-2-1.69-3.8.21-5.63,0.39-8.9.84-14.15-4.52-18.14-11.19-1.49-2.49.61-6.5-2-9.26-0.5-.53-0.5-1.56-1-2.07-5.18-5.1-5.67-6.44.57-8.63,8.43-3,13.12-9.89,19.62-14.83a3.87,3.87,0,0,0,2.45-3.64,2.28,2.28,0,0,1,2.15.51c7.86,5.11,10.88,3.79,12.26-5.35,3-.24,6.15.19,6.72,3.5s-1.54,6-4.88,7.35c-0.93.36-1.87,0.69-2.77,1.11-2.83,1.31-4.39,3.42-3.87,6.7,0.19,1.19.82,3,2,2.16,2.59-1.72,7.78-1.3,7.68-4.64-0.14-5,2.48-4.36,5.12-3.91,3.62,0.61,3.4,3.26,2.42,6a20.42,20.42,0,0,0-.49,2.91c7.88-3.24,15.38-2.57,22.93-.88,2.28,0.51,4,1.21,3.11,3.84s-2.9,2.79-5.31,1.62c-5.3-2.58-10.77-3.68-16.47-1.28a5.59,5.59,0,0,0-2.13,1c-5.11,6.09-9.52,12.82-17.25,16.26-1.25.55-3.63,3.65-1.4,6.24,3.55,4.11,6.24,9.69,13.14,8.56,1.16-.19,2.3-0.58,3.44-0.87a7.1,7.1,0,0,1,.39,3.68C439,185.21,438.69,185.8,437.73,185.52Z"/><path class="cls-56" d="M293.2,11.53l-0.27,5.8c-1.27,6.52-5.83,11.12-9.83,15.78-4.26,5-10.1,4.11-18.21-1.32a3,3,0,0,0-2.66.27c-2.44.85-5.32,6.62-7.1-.58,1.61-5.18,6.16-7.88,9.53-11.58a5.71,5.71,0,0,1,5.13-1.44,9.59,9.59,0,0,1,4,3.42c4.48,3.3,4.27-.26,4.15-3.05-0.1-2.4-2.7-4.22-1.84-7,0.36-.88,1-2.54,1-2.53C282.36,11.36,287.93,10.4,293.2,11.53Z"/><path class="cls-57" d="M146.15,159.51c2.4-7.58,4.86-14.94,10.6-21,3.06-3.24,2.33-9,5.77-12.74,1.44-1.58-.92-2.75-2.68-3.48-1.92-.79-3.89-2-1.36-4.39,4.63-3.42,10.36-1.3,15.35-3.1,3.1-1.12,6.91-1.47,7.39-5.47,0.52-4.25-3.24-5.39-6.28-6.47-4.06-1.43-7.16-3.48-8.29-8-0.66-2.67-3.25-3.69-5.3-5.18-1.55-1.13-4.79-1.9-2.17-5,15-2.13,29.91-3.13,44,4.39a3.8,3.8,0,0,1,1.44,1.75c-0.71,2.63-3.62,4.29-3.28,7.41s-6,6,0,9c0,0.25-.07.51-0.13,0.75-1.17,4.42-1.12,10-3.85,12.95-2.93,3.18-8.37-.58-12.83,0-3,.4-6.07.59-8.86,1.75-9,3.75-9.94,6.52-5.13,14.89,1.26,2.2,3.3,4.21,3.76,6.56,0.61,3.09,7.53,10.37-4.44,7.19-5.39-1.43-4.65,6.51-3.11,8.35,5.2,6.23,8.26,15,17.58,17-0.37,3-1.14,5.12-4.85,3.3-4-2-4.55.6-3.64,3.49,1,3.1,1,6.58,3.51,9.19,3.78,3.91,4.24,8.49,2,13.39-4.92.37-8.79,1.89-9.3,7.78a5.44,5.44,0,0,1-2.78,4.34c-4.92-2-10.58,2.77-15.21-1.72,1.27-2.09,4.34-.65,5.7-2.91-3.51-2-6.92-.77-10.33-0.22l-3,.19c0.78-6.33-2.35-8.7-8.3-9.09-8.52-.56-16.69-3.9-25.37-3.53-1-.76-3.26.09-3.15-2.3l1.69-.63c0.54-4.49,2.28-6,7-4.11a99.32,99.32,0,0,0,15.36,4.43c3.25,0.74,6.45,1.08,10-1.47-5.39-3.78-6.81-7.61,2.44-11.69-13.74-.08-21.44-5.93-27.38-14.66,7.44,4.3,15.71.21,23.4,2.36,4.71,1.31,7.14,3.76,7.53,9,0.23,3,1.21,8.39,5.37,7.4,4.59-1.09,4-5.84,2.14-9.61-2.09-4.32-1.66-8.17,2.09-11.22-1.94-3.18-11.88,1.79-6.7-8C153.9,157.56,148.58,158.71,146.15,159.51Z"/><path class="cls-58" d="M118.63,170.41c3.86,2.86,8.06,5.21,11.35,8.89s8.23,3.43,12.84,3.39c1.69,0,3.93-.46,4.45,1.88,0.56,2.54-1.19,3.69-3.41,4.13-1.48.29-3.35,0.25-3.42,2.27-0.09,2.62,2.26,2.2,3.86,2.68s3,1.19,2.86,3.06-1.55,2.46-3.06,2.93c-3.15,1-6.2,2.1-9.65,1-6.21-2-12.71-3.25-18.68-5.79-4.19-1.79-2.5,3-4.58,3.08,0.34-2.54-.33-5.53-3.16-4.24-5,2.27-10.46-.14-15.21,2.41-0.36-4.49,6.48-3.92,5.9-8.56,2.65-1.13,5.45,3.9,8-.21,1.17-.33,2.92-0.31,3.38-1.07,0.87-1.46-.88-2-1.86-2.6l-11.48-7.57c-1.2,1.47,1.43,5.77-2.95,5-8.77-1.62-16,3-23.87,5.42-2.73.83-5.55,2-6.44-2.31,1.93-4.59,5.41-4.5,9.32-3.17l16.95-5.2-0.13-.84c-2.51,0-5,.14-7.52,0s-6.29,1-6.44-2.1c-0.16-3.34,3.8-2.11,6.09-2.5C94.06,168.19,106.34,169,118.63,170.41Z"/><path class="cls-59" d="M169.33,317.07L169,319.78c-8,.6-15-1.45-20.62-7.61-1.12-1.24-2.4-3.43-4.3-2.07-1.57,1.12-1.09,3.4-.15,5,2.68,4.46,2.92,9.45,2.07,14.17-1.39,7.72,3.72,14.15,3.34,21.6-0.17,3.49-.25,7-3.89,8.42-3.33,1.31-7.05,1.64-10.22-.58-3.54-2.48-1.89-6.19-2.22-9.66-0.89-9.14,4.93-15.54,7.8-23.1,2.44-6.41-1.76-13.26-8.51-13.45,2.4-6.3,9.65-7.66,13.11-13.17,1.45-2.31,3.44.79,3.68,2.66C150.67,314.14,159,316.86,169.33,317.07Z"/><path class="cls-60" d="M124.83,315.49c-4.66,3.44-9.09-1.1-12.94-1.84-6.93-1.34-13.23-.06-19.79,0,1.37-1.54,3-3.18,5-3.13,6.42,0.16,7.7-2.46,4.84-7.94-0.48-.92-1.35-1.91.74-2.75,3.74-1.51,2.46-3.44-.18-5.09-1.69-1.06-3.89-2.08-2.82-4.62a2.36,2.36,0,0,1,3.35-.78c1.83,1.44,6.59.17,5.55,3.51-1.38,4.46,2.1,8.08.31,12.67-2,5.18,3.49,6,6.79,6.86S122.17,313.21,124.83,315.49Z"/><path class="cls-61" d="M170.52,236.77l6.18-1.4c-0.13,1.45-.89,3.13,1,4,2.59,1.17,4.93,3.56,2.79,5.63a9.3,9.3,0,0,1-11.2,1.16c-3.88-2.44,0-3.9,1.67-5.39S171,238.05,170.52,236.77Z"/><path class="cls-62" d="M126.21,345.93c5.74,3.3,6.36,8,1.64,12.45-1.19-1.85-2-4.09-3.62-5.48C119.64,348.85,122.41,347.33,126.21,345.93Z"/><path class="cls-63" d="M162.81,326.18c2.78,5,0,6.64-4.3,7.47C155.17,328.36,156.23,325.64,162.81,326.18Z"/><path class="cls-50" d="M289.58,81.22a9.09,9.09,0,0,1,6.16,3.05c2,5.64,4.19,11.25,6.07,16.94,3.35,10.16.69,18.43-8,24.73-0.43.32-.36,1.34-0.5,1.94,1.56,1.46,2.93.56,4.38,0.2,2.39-.59,5.31-1.84,6.67,1.26s0.07,6-2.67,8c-5.7,4.33-12.24,4.48-18.9,3.79-2.69-.28-4.52-2.19-3.5-4.76,2.25-5.67-1-6.72-5.27-7.36-9.27-1.4-13.61-9.71-9.28-18.57,1.94-4,3.62-7.83,3.41-12.33,0-.51.06-1,0.07-1.53,0.06-1.61.67-3.94,1.95-3.77C279.84,94.19,279.28,78.47,289.58,81.22Z"/><path class="cls-64" d="M263.66,28.74c2.32-.52,2.82,1.7,4.07,2.77,5.15,4.41,11.72,3.81,15.75-1.52,3.17-4.2,6.3-8.43,9.44-12.65-0.52,7,4.76,15.37-5.09,20.05a4.79,4.79,0,0,0-2.11,3.85c1,8.89-5.66,16.17-5,24.93-5-4-3.49-7.92-.37-12.42,4.39-6.31,1.6-13-5.59-14.5C266.19,38.34,263.05,35.38,263.66,28.74Z"/><path class="cls-65" d="M282.07,101.6c-3.42-4-6.76-8.22-13.32-5.3,0-4,3.94-5.64,1.93-10.15-1.44-3.22,2.53-1.33,4.19,0-2.29,5.62,2.3,3.81,4.29,3.6,4.11-.45,9.8-4.43,11.87-1.16,2.47,3.9-4.57,5.17-6.57,8.33A51.82,51.82,0,0,0,282.07,101.6Z"/><path class="cls-12" d="M295.39,133.38c1-4.24,1.37-8.32-3-11.1,3.36-3.22,4.41.54,6.19,2.09C298.95,127.89,301.11,132.06,295.39,133.38Z"/><path class="cls-66" d="M277.26,76.68c-2.52-.19-4.72-1.24-3.77-4.07s3.25-2.52,5.38-.93Z"/><path class="cls-67" d="M201.29,107.21c-1.84-.28-4.06,1.92-5.53-0.62s0.56-3.54,2.07-5c1-1,1.37-2.62,2-4,3-.58,2.49-3.92,4.23-5.5l0.14-.62c3.33-.47,6.43,2.12,9.83.74,2.76-.24,4.88,2.71,8.61,1.35-4.21-3.14-8.77-4.3-12.92-6.27s-9.21-2.81-12-7.22c1.37-4-2.21-6.93-2.24-10.64,2.41-1.67,5.06-1.05,7.67-.82,2.23-.16,3.41,1.17,4.18,3.05-1.94,3-6.3,6.07,2,6.67,3.86,0.28,4.62,7.87,10.36,7,3.59-1.54,5.54.86,7.53,3.18,3.71,2.48,5.84,7.66,12,6,1.58-.43,4,3.11,2.66,6.07-1.21,2.7-.8,5.53-1.14,8.3-0.29-.41-0.58-0.82-0.87-1.22-1.53-2.07.76-7.54-2.25-6.53-3.91,1.32-10.13-.77-12.25,6.11,2.7,0.76,6.62-3.56,7.77,1.64-3.23-1-4.38,1.55-6,3.51-1.11,1.38-2.65,3-4.48,2-2.66-1.48,0-2.93.55-4.32a10.55,10.55,0,0,0,.19-8.18c-0.89-2.25-3.06-2.55-5.16-2-1.08.26-1.16,1.2-1,2.4,1.22,8.66,1.17,8.67-7,6.43,0.83-1.65,1.39-3.38-.86-4.23C206.09,103.14,203.37,104.34,201.29,107.21Z"/><path class="cls-68" d="M245,137.31c7,3.05,5.1,6.4.32,9.84C241.65,144,237.93,140.82,245,137.31Z"/><path class="cls-69" d="M208.75,217.14c0.71,5.22,0,8.58-6.36,5.87-1.55-.66-3.63,0-5.27-0.5-2.73-.9-7.51-0.36-7.36-4,0.16-3.89,4.49-1.53,7-2,1.18-.24,2.89-0.16,3.42-0.91,1.17-1.64-.81-2.57-1.55-3.8-1.51-2.52-7.09-4-3.58-7.77s6.53,0.56,9.61,2.66C208.61,209.4,209.57,212.9,208.75,217.14Z"/><path class="cls-70" d="M169.16,218.11c0.54-2.43,1.12-4.85,1.62-7.29,1.39-6.71,3.78-7.83,10.45-4.83,4.81,4,2,9,1.12,13.38-0.61,3.15-4.12,3.42-6.87,3.55C172.23,223.07,169.38,222.24,169.16,218.11Z"/><path class="cls-71" d="M149.33,213.26c0.44-1.6,1.23-2.81,3.1-2.72,3.93,0.19,8.24-1,11.23,2.82a2.27,2.27,0,0,1,.28,2c-3,3-6.64.74-10,1l-4.38-1.72A4.68,4.68,0,0,0,149.33,213.26Z"/><path class="cls-72" d="M194.6,200.85c-1.76-.19-3.48-0.78-3.47-2.5,0-3.09,2.64-3.29,4.91-3.49,1.6-.14,3.46.38,3.37,2.19C199.27,199.92,196.57,200.18,194.6,200.85Z"/><path class="cls-73" d="M191.95,318.46c-4.3.22-8-.11-5.29-6.08a0.6,0.6,0,0,0,.73-0.36c2.45,0.67,5.8-1.56,7.34,1.66C195.81,315.94,193.21,317,191.95,318.46Z"/><path class="cls-74" d="M331,130.1a7.74,7.74,0,0,1-7.5-3.08c0.61-3.69,3.38-3.4,5.74-2.71C332.28,125.2,330.81,128,331,130.1Z"/><path class="cls-67" d="M263.66,28.74c0.28,7.17,7.28,7.12,11.09,10.5-1.35,2-4,3.3-2.71,6.51,1,2.62-.54,4.26-2.68,5.56-4,2.45-3.66,5.56-1.15,8.91-1.74,10-9.85,14.74-16.65,20.57-0.52-6.38-4-5.68-7.41-2.66A16.17,16.17,0,0,0,239,85.57c-0.86,3-3.61,4-6,2.27s-1.3-3.94.82-5.68c6.39-5.24,9.47-11.5,5.54-19.72,4.76-3.65,5.5-9.9,9.13-14.29,0.62-5.82,6-8.2,8.91-12.37,1.4-2,3.75-3.27,4.51-5.81Z"/><path class="cls-75" d="M251.55,80.8c2.1-3.76,4.46-7.22,8.55-9.14,4.8-2.24,4.17-8.5,8.1-11.44,1,0.5,3.43.85,2.67,1.54-4.66,4.27-4.77,12.11-11.53,14.62-3.14,1.17-4,3.66-3.38,6.81s0.9,6.19-2.5,8.05c-3,.86,0,6.21-4.22,5.91A4.49,4.49,0,0,1,245.41,94c-1.4-3.38-.47-5.63,2-7.93A39.44,39.44,0,0,0,251.55,80.8Z"/><path class="cls-76" d="M227.19,88.49c-3.07.29-4.64-3-7.53-3.18,0.71-1.41,1.75-2.7,3.33-2.64,2.12,0.08,4.54-2.19,6.26.05C231.19,85.27,227.76,86.5,227.19,88.49Z"/><path class="cls-77" d="M194.9,135.16c0,3.15-6.84,13.38-8.89,13.52-2.8.19-10.68-7.59-10.8-10.67-0.23-5.7,6.31-12.25,11.86-12.61C194.84,124.92,192.8,131.72,194.9,135.16Z"/><path class="cls-78" d="M185.82,171.95c-1-2.73-3.7-3.24-5.78-4.54-1.79-1.11-3.63-2.26-2.36-4.75s3.29-4.1,6.13-3.16c4.41,1.46,5.52,5.77,6.5,9.52s-2.28,2.94-4.44,3Z"/><path class="cls-31" d="M208.73,253.81c-2.49.24-4.44-1.36-7.22-2.47l2.78,6.86a20.61,20.61,0,0,1-3-2.32c-2.3-2.57-2.88-6.56-.93-8.41,2.93-2.78,4.21,1.92,6.23,3.26C207.6,251.37,208.05,252.76,208.73,253.81Z"/><path class="cls-79" d="M460,107.89a3.52,3.52,0,0,0-4.53-2.9c-4.38,1.16-7.71,2.49-10.84-3.29-1.91-3.51-11.89,1.68-13.4,6.87-4-3.9-1.06-6.4,2-8.45,5.12-3.47,23.89-.08,27.69,4.85C461.82,106.15,461.62,107.31,460,107.89Z"/><path class="cls-80" d="M340.3,76.39L337.06,78l-4.48-1.81c-0.63-1.79-2.34-4,1.25-4.43C337.24,71.38,340.64,71.3,340.3,76.39Z"/><path class="cls-81" d="M322.13,338.17c-0.07-1.06,0-2.25,1.31-2.27a3.57,3.57,0,0,1,3.6,3.19c0.1,0.5-1.18,1.8-1.89,1.85C323.42,341.08,322.5,339.81,322.13,338.17Z"/><path class="cls-82" d="M158.49,85.46c4,3.88,11.63,4.11,11.39,12.52-0.06,1.92,4.67,2.26,7.19,3.34,3.51,1.52,7.65,3.2,7.12,7.81-0.51,4.42-3.95,6.44-8.4,7.42-5.77,1.27-11.52,1.31-17.32,1.31-1.55-1.86-3.68-1.46-5.67-1.36a3.64,3.64,0,0,0-2.61,1c-0.83,1.31.2,2.7,1.24,3.19,7.28,3.38,1.72,9.57,2.83,14.28,0.5,2.1-3.75,1.08-5.85,1.4-3.76.57-8.6-.71-7.24,6.37,0.69,3.56-2.59,2.89-4.81,2.46-10.57-2.09-16.77-13-13.52-23.72,0.72-2.38.78-5-1.83-5.91s-5.45-4-8.23-.73c-4.65,5.54-9.66,6.54-16.69,4.23-9.35-3.08-9.64-10.61-10.93-18.05-0.38-2.17,2.46-5.83,0-6.19C79.59,94,78.1,87.52,72.62,87.1a88.7,88.7,0,0,1-8.92-1.56c-2.63-8.24-.45-12.13,8.89-15.89-5.88-1.47-6.35-2.67-2.74-7,4.9-5.9,8.46-5.83,13.35-.46,3.59,3.93,8.53,2.86,12.11.49,3.82-2.54,7.25-3.1,11.34-1.87,1,0,2,0,3,.1,6.21,0.45,13-1.42,17.3,5.62,4,6.58,12.51,6.4,17.61,11.45C150.22,78.58,154.68,81.4,158.49,85.46Z"/><path class="cls-82" d="M132.59,154.66a6.12,6.12,0,0,1-4.61-5.79c-0.07-1.35.59-3.06,1.87-2.48,2.34,1.06,5.29,2,5.54,5.35C135.51,153.44,134.87,154.7,132.59,154.66Z"/><path class="cls-82" d="M117.39,139.55l7,5.86c-4.84,1.68-6.67-1.13-8.26-4.31Z"/><path class="cls-83" d="M203.89,101.78q12.57,5.75,25.14,11.48c1.55,0.7,4,.87,3.51,3.13s-2.75,1.67-4.49,1.76c-3.26.17-5.94-1.59-8.85-2.6-4.77.57-7.94-3-11.64-4.9-11.51-6-23.93-5.47-36.2-5.64-9.73-.13-16.94-3.68-21.79-12.42-3.91-7.05-3.74-10.78,2.09-18q8-13.85,23.32-9.85l0.17,0.53,0.58,0c4.18-.08,6.82,2.57,8,6,3.18,8.88,10.64,11.76,18.42,14.38,1.41,0.48,3.07.27,4.07,1.72l2.38,3.1c-2.31,2.16-5.22,1.27-7.89,1.59C195.69,93.6,192.36,90,189,88.16,193.47,92.72,201.24,94.36,203.89,101.78Z"/><path class="cls-84" d="M247.55,41.11c4.94-1.45,5.27-7,8.57-9.88,3.2,5.47,3.61-2.16,5.84-1.26-2.47,7.57-8.42,12.52-13.42,18.18C242.59,46.61,247.55,43.51,247.55,41.11Z"/><path class="cls-85" d="M270,19.13l-3.09-6.07c2.85,0.17,6-1,8,2.41,2.06,3.61-2.37,4.44-2.77,7Z"/><path class="cls-85" d="M277.29,195c-5.22,1.22-7-2.79-9.22-6.16C272.95,188.14,273.28,194.38,277.29,195Z"/><path class="cls-86" d="M204.09,92.12c0.08,1.72.26,3.45,0.2,5.16,0,1.15.23,2.82-1.34,3.06-1.8.28-1.88-2-3.09-2.73C200.06,94.85,198.17,90.42,204.09,92.12Z"/><path class="cls-87" d="M180.07,62.48c4.48,3.92,10.06,5.39,15.17,7.74,4.47,2.1,6.9,4.87,3.15,9.69"/></svg>