<svg id="Layer_1" data-name="Layer 1" xmlns="http://www.w3.org/2000/svg" viewBox="0 0 488.6 422.22"><defs><style>.cls-1{fill:#fe9300;}.cls-2{fill:#274e44;}.cls-3{fill:#002558;}.cls-4{fill:#011c4d;}.cls-5{fill:#34261f;}.cls-6{fill:#feb800;}.cls-7{fill:#000c32;}.cls-8{fill:#003369;}.cls-9{fill:#337499;}.cls-10{fill:#d3e4ed;}.cls-11{fill:#004e97;}.cls-12{fill:#000140;}.cls-13{fill:#003370;}.cls-14{fill:#013339;}.cls-15{fill:#002b40;}.cls-16{fill:#00192d;}.cls-17{fill:#00254b;}.cls-18{fill:#001435;}.cls-19{fill:#003b99;}.cls-20{fill:#00377e;}.cls-21{fill:#003360;}.cls-22{fill:#002766;}.cls-23{fill:#00021d;}.cls-24{fill:#004a86;}.cls-25{fill:#001a41;}.cls-26{fill:#001443;}.cls-27{fill:#003495;}.cls-28{fill:#7ca9b1;}.cls-29{fill:#003657;}.cls-30{fill:#00212d;}.cls-31{fill:#082621;}.cls-32{fill:#001a4e;}.cls-33{fill:#00327c;}.cls-34{fill:#002672;}.cls-35{fill:#002c65;}.cls-36{fill:#001f3b;}.cls-37{fill:#459ac5;}.cls-38{fill:#000129;}.cls-39{fill:#003b85;}.cls-40{fill:#002b57;}.cls-41{fill:#e49565;}.cls-42{fill:#484340;}.cls-43{fill:#474b3f;}.cls-44{fill:#002d65;}.cls-45{fill:#003072;}.cls-46{fill:#ebeff4;}.cls-47{fill:#002ea5;}.cls-48{fill:#4eabc4;}.cls-49{fill:#003492;}.cls-50{fill:#004091;}.cls-51{fill:#fdfdfd;}.cls-52{fill:#001947;}.cls-53{fill:#004db0;}.cls-54{fill:#00193c;}.cls-55{fill:#00306a;}.cls-56{fill:#fdfbfb;}.cls-57{fill:#f4b83a;}.cls-58{fill:#b4c0e3;}.cls-59{fill:#0037c5;}.cls-60{fill:#003cbb;}.cls-61{fill:#00123e;}.cls-62{fill:#10609c;}.cls-63{fill:#2e261b;}.cls-64{fill:#625c4a;}.cls-65{fill:#f8c22f;}</style></defs><title>splash</title><path class="cls-1" d="M413.83,55.32c0.63,2,1.31,4.1-1.68,6a6,6,0,0,1-6.46.22c-5.12-2.73-11.92-2.2-17.74-3.68-5.51-1.41-6.8,4.55-10.37,6.78-2.79,1.75-.82,3.45.56,4.83,2.35,2.36,3.83,5.54,8.71,5.42,1.41,0,25-6.65,25-5.07S388,79,386.69,79.29c-11.5,2.44-17.28,10.26-23.53,17.79a26.52,26.52,0,0,1-15.84,9.68c-2.72.5-5.47,1.07-5.07,4.24-2.7,2.83-4.15,1.24-5.21-.38-1.45-2.22-.79-4.57,2.27-6.37A50.63,50.63,0,0,0,349.88,96c5.33-5.43,6.27-10,2.05-14.53a15.18,15.18,0,0,0-10.14-5.1c-7.36-.28-9.87,6.68-14.78,10.19-3.27,2.34-3.34,5.19-1.37,7.65,1.18,1.48,2.87,2.56,4.06,4.05,3.69,4.64-.55,8.87-3.67,13.34-2.52,3.62-5.5,4.44-9.32,3.62-7.21-1-14-2.22-15.25-9.59-0.4-2.43-3.39-2.54-6.23-1-3.74,2-8,3.21-11.21,6.16-6.88,6.9-15.09,10.91-25,11.29a6.88,6.88,0,0,0-4.92,2c-3.88,3.67-6.85,3.29-9.29.11-1.37-1.78-2.47-3.83-5.87-4.8-0.59,3.08,2.71,5.64-.85,8.49-2.75,2.2-6,3.48-9.24,4.79-4.46,1.81-9.26,2.77-13.27,5.69-6.09,2.58-11.87,7.37-18.68,4.81-1-.69-1.07-1.58-0.2-2.66a72.5,72.5,0,0,0,18.52-8.73c3.13-2,4.08-2.58,3-5.4-2.07-5.39-2.41-11.34,4-16.54s13.46-6,20.59-4.33c1.56,0.37,3.17,1,5.1.29a0.64,0.64,0,0,0,.13-0.53,2.94,2.94,0,0,1-1.13-.71c-0.54-2,4.53-3.84,1.48-5.86-4.33-3.24-1-8.61-2.34-12.7,0.06-3.39-1.65-6.77,2.25-10.18,4.09,0.29,2.58,3.78,3.8,5.63,0.53-4.05,0-8.25,4.09-12.1a4,4,0,0,1,3.09-.24c4.34,3.27,6.82.49,9-3.26,3.9-5.74,8.1-11.17,15.65-14.29A14.44,14.44,0,0,0,289.09,48c10.63-12.4,23.21-11.3,36-9.48,2,0.76,3.94,1.67,6.37-.13,3.7-2.72,6.29-1.54,8.8.18,7.91,7,20.46,8.16,29.83,13.32-0.36,2.16,1.37.86,2.54,0.86,3.82,0,7.15-4,11.08-2.61C395,53.52,455.89,27.24,413.83,55.32Z"/><path class="cls-2" d="M351.51,222.59c-6.11-.08-7.38-5.41-9.6-9.72-1.55-2.83-3.66-3.5-6.74-2.84-5.34,1.15-11.1.94-15,6-4.17,2.92-7,6.14-5.52,12.32,1.33,5.51-2.77,6.48-6.9,6.67a60.44,60.44,0,0,0-13.49,7.66c-7.34,5.26-15.75,5.68-24.4,4.38-7.66-1.15-14.87-.15-21.5,4.38-5.29,3.62-10.31,7.63-15.55,11.32a20.26,20.26,0,0,0-7.8,10.94c-3.19,11.44-11.62,17.6-20.34,23.45-4.67,3.13-8.94,6.85-13.79,9.73-3.82,2.27-5.92,6.12-6.34,10.89-0.35,4-.19,8.08-1.53,11.94s1.26,6,3.81,8c3,2.29,4.65-.16,6.05-2.3,2.84-4.34,7.2-4,11.39-4.24,5.4,2.7,10.88,4.52,16.76,1.89,1.56,0.91,1.84,2.15.92,3.7-4.84,2.84-10.35,2.68-15.62,3.5-2.82.44-4.85,1.39-6.49,4.11-3.3,5.46-9.62,6.16-14.14,1.48a59.68,59.68,0,0,0-8.42-7.4c-4.79-3.39-7.38-8-8.51-13.85-0.8-4.17-2.11-6-7.8-5.41-11.26,1.2-20.46,7.8-31.14,10,6.71-10.05,15.44-18,24.57-25.45,1.32-1.08,2.68-2.12,4-3.18,1-2.65,3.24-4,5.31-5.3,9.55-6.15,16.46-15.84,27.08-20.77,5-2.31,7.79-8.49,11.14-13.39,5.09-7.45,10.23-15,18.8-18.7,4.34-1.86,7.44-5.58,11.1-8.39a154.1,154.1,0,0,1,43.22-23.22c8.76-3.07,14.13-9.91,19.24-17.15,3-4.3,6.82-5.83,11.88-5.78,7,0.07,13.83.16,20.28,3.58,2.46,1.3,4.89.1,7.34-.26,7-1,10.06.67,11.69,7.54,2.2,9.24,8.09,13.64,16.5,14.41,5.37,0.49,9.89,1.38,11.76,7.56,0.72,2.38,3.16,2.84,4.83,4.16a4.13,4.13,0,0,1,1.53,2.29,26.09,26.09,0,0,1-3.45,18.45c-3.3,5.37-8.57,6.19-13,2.11-1.45-1.33-3.28-2.71-2.92-4.9,0.45-2.7,2.71-1.24,4.27-1.44,2.17-.29,2.57-1.93,2.56-4C367.51,226,362.23,221.15,351.51,222.59Z"/><path class="cls-3" d="M244.84,56.51c2-.35,4.14-0.79,4.36,2.3,0.18,2.48,1.61,2.91,3.79,2.56a29.61,29.61,0,0,1,6.93-.53c1.47,0.1,3.75,0,3.67-2.74a1.11,1.11,0,0,1,2-.88c3.69,5.78,10,3.61,15.09,5.19,5.57,1.74,11,.83,16.48-1.2,2.58-1,5.52-1.31,8,1.07,2,2,5.2.5,5.82-.46,2.2-3.44,4.4-2.1,6.54-.66,4,2.71,8.42.09,12.87,0.72-3.72,5.6-8.65,5.27-13.76,4.27a26.67,26.67,0,0,0-4.84-1c-1.82,0-3.56.31-1.45,2.86s1,5.05-2.46,5.68C301,74.93,294.3,73.25,287.53,73c-3.8-.12-7.58-0.6-11.38-0.78-1.12-.05-2.66.13-2.79,1.54-0.16,1.66,1.46,2.33,2.7,2.27,4.91-.26,9.44,2.44,14.56,1.42,1.71-.34,6.72-1.5,5.16,4.31-0.59,2.18,2.78.71,4.79,2.87-10,2.07-19.28-.33-28.43.24C268.3,87,264.05,86.08,260,86.53a8.19,8.19,0,0,1-1.49-.15c-0.77-.06-21.67,5.05-22.34,5.45-5.9,3.47-12.33,5.65-18.87,7.51-1.69.48-3.82,1.66-5-.4s0.59-3.77,1.87-5.27c1.64-1.9,4.16-2.73,5.76-4.64-1.47,1-2.55,2.76-4.61,2.82-2.36.07-3.15-1.45-3.42-3.47,2.85-9.16,9.43-15.7,22-13.62,3.41,0.57,5.26-2,6.8-4.17,1.72-2.41-.72-3.66-2.4-5.08-1.86-1.58-2.79-4.09-5-5.41C237.2,59.11,240.75,56.94,244.84,56.51Z"/><path class="cls-4" d="M211.92,88.39c2,3,4.06,3.54,6.61.58a14,14,0,0,1,2.81-2c1-.68,2.19-1.47,2.87.09,0.54,1.23-.81,1.48-1.67,1.94-4.21,2.23-8.07,4.82-10.16,10.44,8.4-2.38,16-4.44,22.91-8.6a15.36,15.36,0,0,1,5.85-2.52c4.73-.68,9.34-0.89,14.09-3,3.67-1.62,9.23-.47,14-0.44l3,0c-3.94,5.54-10.1,4.59-15.62,5.1a64.56,64.56,0,0,0-19.8,4.67c4.92,1.26,9.58-1,14.19-.47,11.44,1.24,22.65-1.55,34.05-1.57,7.28,0,15-2,22.36-4.09a33.93,33.93,0,0,1,11.61-1.27c0.4,3.1-1.95,3.48-4,3.92-12.7,2.62-25.46,4.85-38.34,6.52-5.67.73-11.29,2.35-16.94,3.53a12.18,12.18,0,0,1-4.3,0c-3.85-1.43-7.91-1.12-11.76-.58a134,134,0,0,0-40.1,12.26,38,38,0,0,1-24.55,3.36c-2.93-.59-5.94.56-8.9-0.11-7.29-.76-12.86-4.66-17.78-9.77a24.08,24.08,0,0,1-3.14-5.39c-0.39-1.6-.74-3.2.45-4.65,4.22,4,6.17,10.19,12.26,12.31,0.91,0.32,1.93,1.31,2.62,1.1,6.51-2,12.77.62,19.09,1.08,6.15,0.45,11.36-1.39,16.57-3.91,1.5-.73,3.67-1.58,1.88-4,2.7-2,3.6-5.83,7.1-7,2.49-.24,2.49-0.24,1.38-4.24A3,3,0,0,1,211.92,88.39Z"/><path class="cls-5" d="M244.84,56.51c-3.56,2.14-6.9,5-11.56,3.6A19.14,19.14,0,0,0,229,59c-1.74-.07-3.36,1.06-1.69,2.7,2.48,2.44.59,3-1,4.32-3,2.6-6,5.25-9.94,6.44-1.48.45-3,1.17-3.4-1.2-0.84-4.47-4.22-5.61-8.05-6-1.42-.14-3.55.55-3.39-1.59,0.14-1.94,2.37-1.21,3.72-1.29a40.31,40.31,0,0,0,9.4-1.13c2-.6,4.36-0.65,5.14-3.29a2.14,2.14,0,0,1,1.46-1.15c13.15-2.14,25.71-7.29,39.19-7.71-4.05,2.12-8.55,2.42-12.95,2.95C244.45,52.42,243.41,53.61,244.84,56.51Z"/><path class="cls-4" d="M195.47,107.17a17.38,17.38,0,0,1-11.76,1.67Z"/><path class="cls-3" d="M210.44,91.67c0.55,1.34,3.09,1.84,1.81,3.9a1.83,1.83,0,0,1-3.19.34C212.09,95.34,208.09,92.48,210.44,91.67Z"/><path class="cls-6" d="M400.32,246.35a9,9,0,0,1-6.76,5.32c-3.34.57-5,3.6-7.47,5.35-6.71,4.74-13.9,8.79-20.91,13.12-2.75,1.62-5.33,2.23-7.28-1.16-0.54-.92-0.43-2.11-1.22-2.93a1.2,1.2,0,0,0-.84-0.46c-6,2.66-12.89,3.34-18,8-0.31,2.43,3.54,1,3.19,3.44-7.24,5.06-14.92,7.52-23.68,4.28a5.76,5.76,0,0,1-3-3.07,14.77,14.77,0,0,0-2.45-2.52c-4-1.43-7,.11-9.23,3.38-0.2,2.82,4,1.3,3.91,4a10.41,10.41,0,0,1-8.54,5.22c-4.28.4-8.48,1.51-12.83,1.2-3.1-.67-6.05.57-9.09,0.73,1.21-2.93,3.85-1.19,5.72-2.14a48.86,48.86,0,0,0-7.46,1.46c-2.6.73-5.29,1-6.51-2.38-0.07-1.76-1.42-2.43-2.72-3.1a0.94,0.94,0,0,1-.12-0.91,11.42,11.42,0,0,0-11.09,6.27c0.27,1.3,1.3,2.11,2,3.1,1.36,2.62.24,4.66-1.43,6.66-1.12,1.34-2.91,2.1-3.48,3.92-5.71,9.08-13.68,16.69-17.54,27-2,1.48-2.89,3.91-4.63,5.63-4,3.91-6.55,3.92-10.55,0-4.66-2-8,.62-11.31,3.23-1.52,2.16-.73,3.39,1.3,4.85,2.7,1.94,2.31,3.49-.82,4.89-8.09,3.6-16.07,1.1-23.88-.86-7.35-1.85-14.14-5.54-21.51-7.46a3.86,3.86,0,0,1-1.85-.71c-4.77-5.11-11.56-4.2-17.46-5.92-3.25-.95-5.91.55-8.16,2.66-2.06,1.93-4.13,3.26-7.11,2.63-2.33-.49-4.11,1-6,2s-4.06,1.64-6.16.32c-2.39-1.51-.61-3.59-0.48-5.36-1.61-1.34-3-.37-4.24.23a45.07,45.07,0,0,1-13.22,4.37c-2.43.36-4.14,2-6,3.4-2.56,2-5,5.34-8.68,3.36a13.19,13.19,0,0,1-6.94-10.91c-0.18-2.21,1.46-5.16-1.19-6.36-2.36-1.07-4.13,1.6-6,2.78-5.45,3.4-5.62,9.48-7.26,14.81-0.71,2.29-.23,5.13-3,6.49a3.32,3.32,0,0,1-2.16-1.95c-0.74-5.76,1.47-11,3-16.32,0.27-.94.78-1.82,1.09-2.75,2-6.1-.18-8.74-6.88-8.21-3-2.39,1.67-4.71.07-7.09a2.1,2.1,0,0,1,.44-1.27c2.32-2.29,4.64-4.35,8.23-2.28,0.89,0.51,1.87-.3,2.77-0.73,5.78-2.73,11.72-5.11,17.22-8.41,1.13-.3,2.54-0.57,3.22.35,2.91,3.93,5,2,7.15-.76a6.67,6.67,0,0,1,.94-1.11c0.89-.77,2-1.73,3-1.41,6.24,1.93,10.66-1.76,15.35-4.7a11.53,11.53,0,0,1,2.71-1.2c5-.36,10.13,1,15.08-1.44,3.44-1.71,6-4.71,9.74-5.91a2.59,2.59,0,0,1,2.8.85c0.72,1.85-.35,3.34-1,4.93-0.61,1.27-1.74,2.75,1.11,2.53a11.28,11.28,0,0,1,3.32.15C156,301.83,167,301.86,178,301.16c3.83-.24,7.62.48,11.45,0.54s7.63,0,10.8-2.74c1.17-1,2.76-1,4.28-1A28.28,28.28,0,0,0,222,291.61a250,250,0,0,1,42.11-26.53,156.24,156.24,0,0,1,27.8-11c12.6-3.49,23.47-9.06,31.12-20.06,2.56-3.69,6.17-6.49,9.45-9.55a75.67,75.67,0,0,0,8.94-7.87,8.77,8.77,0,0,1,2.36-2.58c4.06-3,6.29-7.5,9.36-11.31,2.13-2.65,1.11-4.05-2-4.66-1.39-.28-3,0.18-4.14-1.15-1.11-1.75-1.17-3.9-2.17-5.7-0.76-3.6-3-6.88-2.3-10.79,1.74-2.45,3-1.08,4,.63,1.44,2.4,2.63,5,4.24,7.26,0.86,1.24,2.09,2.72,3.54,1,3.16-3.73,5.87-1.79,8.42.5,3,2.68,5.84,2.64,8.84.18,2.62-1.59,4.15-5.17,8.05-4.43a3,3,0,0,1,.75,2.81c-2.06,3.79-5.86,6.07-8.3,9.54a31.55,31.55,0,0,0-3.49,5.47c-5.21,10.4-.82,19.93,10.42,22.51,5.05,1.16,10.16,1.75,15.36.7,7.69-1.56,15.53-1.78,23.34-2.27a9.54,9.54,0,0,1,2.34.1,10.17,10.17,0,0,1,4.81,2.1c-1.28,6-6.06,8.27-11,9.78-3,.91-5.74,1.63-7,4.68S401.13,242.9,400.32,246.35Z"/><path class="cls-7" d="M227,390.33l-1.4-2.76a4.84,4.84,0,0,1,2-2.82c4.33-3,7.17-7,9.74-11.63,2.32-4.14,6.87-6.63,10.56-9.5,9.43-7.34,18.21-15.58,28.26-22,4.94-3.18,8.95-8.18,15.33-8.93,31.78-17.34,66-26.15,101.84-29.73-5.8,2.3-10.77,7-18,5.06-3.11-.85-5.45,2-6.18,4.68-0.83,3,3.21.34,3.8,2.71-2.54,2-5.81,1.16-8.16.33-5.66-2-10.81.46-16.17,0.78a2.83,2.83,0,0,0-2,1.22c-2.5,5-7.29,5.11-11.89,5.74-4.4.6-8.41,1.45-11.95,5-2.66,2.68-7.88.93-11.21,3.36-6.2,4.55-14.24,4.9-20.5,9.53-4,2.95-5.95,7.22-9.08,10.66-0.84.92-1,2.29-2.75,2.45-5.61.51-9.81,3.82-13.12,8-1.91,2.39-3.71,4.28-6.84,4.12-5.15-.26-8.63,3-12.28,5.74-2.86,2.17-2.74,2.65.43,4.45,1.06,0.6.64,1.3,0.2,2-0.85,1.41-2.24,2.41-3.72,2-5.63-1.45-8.7,1.37-11.08,5.94C231.63,388.93,229.2,389.54,227,390.33Z"/><path class="cls-8" d="M389.79,74.09c2.95-.65,6.19-0.18,8.76-2.28,4.41-.65,8.29-4.69,13.27-2,0.61,0.33,1.49-.56,2.18-1,1.42-.93,3-2,4.47-0.41,1.34,1.38.77,3.12,0.3,4.73-0.28,1-.53,2.14-1.33,2.64-5.54,3.48-9.67,9.19-16.7,10.32-5.06.81-10.19,1.49-13.6,6.2a6.1,6.1,0,0,1-4.93,2.12c-4.35,0-8.62.71-12.92,1.13-2.33.23-5.31,0.36-5.36-2.84s2.72-3.79,5.44-3.61c5,0.32,9.35-1.42,13.55-3.95-4.39-.49-8.37,1.39-12.46,2.35a41.55,41.55,0,0,0-17,8c-2.2,1.79-4.65,2.62-7.3.69a2.08,2.08,0,0,0-1.38-.53c-9,1.13-18.42.06-26.8,4.4-3.17,1.65-6.28,3.05-9.81,3.32-6,.46-11.33,4-17.5,3.78-2.16-.08-4.32.13-6.46-0.41a6.08,6.08,0,0,0-4.84.47c-1.27.78-2.9,1.62-2.58,3.3s2.13,1.13,3.38,1.23c9.43,0.77,18.26-2,27.34-4A71.8,71.8,0,0,1,332,106.29c4,0.53,4.65,2.86,3.26,6.59-2,5.33-5.06,9.09-11.08,10.14-10.62,1.84-19.76,7.72-29.76,11.31-5.44,2-11.1,3.16-16.49,5.26-7.89,3.89-16.8,1.73-24.92,4.26-2,.32-4,0.82-6,1-2.8.18-4.94,1-4.64,4.46a2.32,2.32,0,0,1-2.28,2.74c-3.45.12-5.84,2-8.25,4.12a9.74,9.74,0,0,1-6.48,2.27c-17.28.16-34.54,2.24-51.81,1.21-8.08-.48-16-2.92-23.92-4.63-5.13-1.1-8.29-6-12.46-9a33.74,33.74,0,0,0-9.08-5c-3.93-2.7-8.42-4.61-11.83-8.08-1.37-1.39-2.87-1.4-4.54-.81-6.33-1.6-13.17.05-19.28-3.06-1.51-.77-3.25-0.47-4.89-0.22C81.19,130.31,75,128,68.69,128.1c-4.13,0-5.33-2.9-3.39-6.84,0.91-1.85.34-3.1-.55-4.59-2-3.38-5.15-5.59-8.14-8-4.12-3.27-4.11-3.75-.11-8.05A59,59,0,0,1,47.08,98C44.14,96.94,42,96,42,92.4c0-2.34-2.15-2-3.68-2.48-4.81-1.43-5.93-5.27-2.16-8.46,2.62-2.22,4.69-4,2.56-7.64-0.3-.51.36-1.21,0.85-1.69,11.43-4.19,22.56-6.71,34.53-.51,7.8,4,15.39,8.43,23,12.54a0.82,0.82,0,0,0,.73-0.75c0-2.52-.15-5.29,2.56-6.54,3.07-1.42,5.54.55,7.59,2.45,3.9,3.62,8.1,7,11.49,11.06,7.53,8.91,17.3,15,26.38,22.08a39.12,39.12,0,0,1-9.61-18.88c-0.58-3-3.86-5.22-6.65-7.06a11.44,11.44,0,0,0-1.4-.52c-3.25-1.55-11-13.4-10.84-16.54a8.55,8.55,0,0,1,9.26,4,1.74,1.74,0,0,0,.28.94c8.08,4.82,10.73,13.57,15.12,21,9.83,16.66,24.64,23.94,43.64,23.84,7.39,0,14.7-.57,21.6-3.21,5.36-2.05,10.76.18,16.14-1.09,6.33-1.49,12.39-3.74,18.58-5.61,7.94-2.39,16.5-2,24.12-5.68,6.1,2.43,11.69-1,17.5-1.66,18.59-2.18,36.52-7.3,54.25-13.14a20.72,20.72,0,0,1,5.33-1.25c1.66-.09,3.33.05,5.36,0.06-2-.48-4.21.41-4.92-2.07,0.93-3.09,3.8-2.64,5.78-2.5A48.48,48.48,0,0,0,371,79.59,164.64,164.64,0,0,1,389.79,74.09Z"/><path class="cls-3" d="M277.84,138.59c3.9-1.42,7.58-3.27,11.83-3.95a34.66,34.66,0,0,0,10.54-4A121.46,121.46,0,0,1,328,120.36c2.41-.61,3.85-1.77,4.11-4.28a4.54,4.54,0,0,1,.35-1.91c1.1-1.69,4.18-3.26,2.13-5.32a9.28,9.28,0,0,0-9.28-1.83,23.12,23.12,0,0,1-12.69.84c-1.09-.23-2.62-0.4-3.39.17-6.42,4.7-14.49,3-21.52,5.58-3.36,1.24-7.76-.2-11.67-0.65-1.8-.21-2.77-1.59-1.58-3.24,2.07-2.89,4.68-5.93,8.54-4.87,6.76,1.86,12.92.59,19.17-1.83a25.19,25.19,0,0,1,5.89-1c3.48-.45,6.79-0.95,9.56-3.66,1.27-1.24,3.59-1.67,5.51-1.94,7.36-1,14.75-1.83,22.12-2.72a0.81,0.81,0,0,1,.49,0c4.46,5.73,7.27.09,10.29-1.74a50.51,50.51,0,0,1,18.82-6.74c1.89-.29,3.67-1.46,5.45-2.32,2.12-1,4.2-.77,5.24,1.22,1.38,2.64-1.43,3.2-2.87,3.51-4.73,1-9,4.41-14.36,2.55a2.7,2.7,0,0,0-3.65,2.39c-0.15,2.1,1.79,2,3.31,1.84,4.78-.45,9.45-1.75,14.36-1.23,1.42,0.15,3.81-.82,4.37-2,3-6,8.93-5.35,14-6.44,3.06-.66,5.75-1.44,7.65-4.09,1.32-1.84,3.43-2.63,5.39-3.48s3.42-2,3.78-4.22c0.25-1.5,2-3.34-.11-4.42-1.68-.86-2.46,1.15-3.45,2.2-0.55.59-1.21,1.09-1.81,1.63-4.09-5.67-8.45,1.46-12.62-.26-0.31-.13-0.64-0.2-1-0.29,1-1.12,2.24-2.1,2.79-3.39,0.77-1.8,1.23-4-1.54-4.73-1.06-.29-2.63.23-2.87-1.22s1.26-2.12,2.22-3c1.72-1.63,1.79.4,2.7,0.92,4.74,2.68,9.9,2.26,15.94,1.91-3.42-2.91-7.12-1.15-9.9-2.79,1.34-2,3.4-1.51,5.3-1.48,1.54,0,3.26,1,4.35-1,7.38,4.74,16.26,1.72,24,4.63a15.47,15.47,0,0,1,3.06,1.64c1.74,1.42,3.7,3.11,2.16,5.37-1.79,2.65-4.35,1.17-6.05-.32a11.91,11.91,0,0,0-7.15-3c-1.71-.15-2.89-0.45-2.64,2,0.16,1.56-1.25,2.64-1.95,3.94-1.24,2.33-3,4.72,1.16,6.18a2.44,2.44,0,0,1,1.36,3.34c-0.61,1.5-1.81,1.82-3.23.92-0.59.28-1.49,0.4-1.72,0.85-5.73,11.4-17.38,13-27.72,16.33a112.48,112.48,0,0,0-18.47,7.87,3.75,3.75,0,0,1-2.42,3c-5.74,1.53-10.9,5-17.08,5.07-8.75.08-16.54,3.21-23.81,7.77a37.16,37.16,0,0,1-6.78,3c-9.1,3.48-18.79,5.11-27.72,9.2A67,67,0,0,1,283.42,140C281.43,140.26,279.42,140.17,277.84,138.59Z"/><path class="cls-3" d="M389.79,74.09c-6.09,2.07-11.29,6.17-18.38,6.2-3.31,0-6.33,4-10.61,4.16a51.78,51.78,0,0,1-10.87-.31c-2-.32-4.38-0.47-5.94,1.6-2.29,2.56-5.72,2.95-8.61,3.44-14.24,2.42-28,7.41-42.67,7.61-9.19.13-17.95,3.53-27,4.68-2.28.29-5,1.42-6.58-1.55,13.85-3.24,28-5,42-7.23,4.84-.78,9.62-2.3,14.54-2.93,1.61-.21,2.85-0.84,3.34-2.5,4.5-3,9.86-1.87,14.77-2.93,8.94-1.93,18.1-2.81,27.18-4.06a60,60,0,0,0,14.82-4C380,74.57,385.07,74.76,389.79,74.09Z"/><path class="cls-9" d="M146.94,70.7c2.31-.08,5.29-0.84,3.38,3.34C147.74,74.39,145,75,146.94,70.7Z"/><path class="cls-4" d="M149.38,95.41c-3.11-2.9-2.88-6.9-3.52-10.62C148.4,87.88,148.94,91.63,149.38,95.41Z"/><path class="cls-10" d="M273.75,63.8C267.88,65.41,262,66.38,255,62.74,262.23,61.54,268,61.32,273.75,63.8Z"/><path class="cls-11" d="M134.5,76.38c2.55,7.14,5.59,14,10.89,19.62,1.22,4.31,5,6.73,7.55,10,4.95,3.87,9.66,8.18,16.36,8.8a67.38,67.38,0,0,0,32.61-.39c10.36-2.63,19.56-8.25,29.94-10.68,7.67-1.79,15.18-4.75,23.32-3.28l3.92-.53c5,1.23,9.92-.23,14.64-1.4A156.4,156.4,0,0,1,298.26,95c8-.69,16-2.7,24-4.33,7.29-1.49,14.52-3.26,21.77-4.9,2.64,2,6.32-1.5,8.76,1.63-0.19,1.45-1.47,1.46-2.28,1.37-10.35-1.21-19.35,3.83-28.77,6.48a312.6,312.6,0,0,1-42.27,8.85c-2.1.29-4.38,0.13-6,2a1.93,1.93,0,0,1-2.7.44c-3.27-3-6.31-.94-9.47.12-4.72,1.58-9.87,1.49-14.45,2.61-6.06,1.49-12.18,3.84-18.24,5.71-3.83,1.18-7.76,4-12.85,1.51-3.14-1.52-7.57.8-11.32,1.82-16.35,4.45-32.38,3.39-47.24-4.64-7.08-3.83-12.45-10.39-16.5-17.61q-4.45-7.94-8.74-16c-1.06-2-2.57-2.69-4.79-2.86-3-.23-3.51-1.66-1.09-3.72-2.25-3.93-5.76-6.59-9.37-9.07-2.15-1.48-4.49-.62-6.67.38s-4.56,2.09-7.15,2c-3.57-.16-4.78-2.08-3.26-5.29,1.89-4,4.13-7.29,9.52-5.65,2.19,0.67,3.88-.23,4.21-2.88a4.24,4.24,0,0,1,3.25-4c2.43-.54,3.76,1.25,4.71,3,3.86,6.94,8,13.74,11.35,20.94C133.21,74.07,133.5,75.41,134.5,76.38Z"/><path class="cls-3" d="M255.17,100.45a145.21,145.21,0,0,0-41.76,11.74c-12.82,5.67-26.46,6.58-40.29,4.69a5,5,0,0,1-3.82-2.08c10.64,0.1,21.51,2.78,31.71-2.35a143.1,143.1,0,0,1,30.86-11.24,75.16,75.16,0,0,1,20.87-2.3A3.09,3.09,0,0,1,255.17,100.45Z"/><path class="cls-12" d="M233.67,96.6c-2.87,3.29-7.24,2.17-10.56,4.12a1.38,1.38,0,0,1,.59-2.66C227,97.5,230.34,97.08,233.67,96.6Z"/><path class="cls-13" d="M152.94,106c-3.41-2.65-7.15-5.07-7.55-10,2.07,1.37,2,4.68,4.85,5.35Z"/><path class="cls-14" d="M277.84,138.59a54.79,54.79,0,0,0,27.9-7.3,3.72,3.72,0,0,1,1.3-.71c7.4-.44,13.85-4.09,20.8-6a50.67,50.67,0,0,0,10.24-4.42c7.09-3.7,14.4-6.84,22.9-6.83,6.92,0,13.2-3.5,19.37-6.57,3.35,3.35,7,3.45,11.69,2.74,6.32-1,12.8-1.5,19.22-1.88a17.69,17.69,0,0,0,6.65-1.22c3.32-1.55,6.5-2.12,9.84,0,0.9,0.59,3,1.09,3.21.73,3.5-4.94,9-3.36,13.66-4.52,6.56-1.63,14.32,3.31,14.63,9.82a4.31,4.31,0,0,1-3.73,4.65c-2.63.42-3.68,1.64-3.43,4.39,0.27,3-1.68,4.79-4.26,6.06-1.11.55-2.7,1.14-2.22,2.84,0.43,1.52,2,1.63,3.3,1.72,2.3,0.16,4.62.11,6.92,0.19,7.81,0.27,15.63.48,23.44,0.91,1.49,0.08,3.76.32,3.76,2.48a2.85,2.85,0,0,1-3.29,3c-5.93-1-11.49,1-17,2.31-6.19,1.44-12.55.33-18.62,2.06-6.27,2.8-13,2.57-19.57,2.46-10.4-.18-20.57-0.08-30.26,4.56a45.13,45.13,0,0,1-13,3.46c-15,2.22-30,4.63-44.58,8.57-17.12,4.62-34.74,7.22-51.58,12.93a5.54,5.54,0,0,1-1.45.37c-15.51.8-29.78,8.07-45.33,8.63a37.86,37.86,0,0,0-11.63,2.71C219,189.62,210.55,188.44,203,192c-5.16,2.45-10.18,4.35-9.45,11.54a7.31,7.31,0,0,1-2.28,5.94c-7.81,7.07-14.47,15.62-25.27,18.79-6.46,1.89-12.68,2.22-19.08-.09-3.17-1.14-4.6-2.85-2.82-5.93,2.23-3.87.7-6.62-2.16-9.16-5.19-3.42-9.82-7.57-15.42-10.57-5.31-2.85-8.63-8.42-13.06-12.58-1.16-4.07-1.53-8,1.85-11.34,4.19-.8,8.5-0.59,12.7-1.41,1.7,1.33.49,3.51,1.73,5.54a96.25,96.25,0,0,1,25.76-8.24,8.57,8.57,0,0,1,6.26-.15c4.53,1.72,8.23-.08,12.23-2.89a29.24,29.24,0,0,1-9.67-3.15c-1.28-.67-3.43-0.93-2.7-3.35a5.5,5.5,0,0,1,5.17-1.09c10.08,2.68,20,1.45,30.68-1.45-11.34,0-21.85-.32-32.36-0.44a11.54,11.54,0,0,1-5.62-1.72c-4.75-2.65-9.92-2.82-15.17-2.12-1.92,1-4.19.18-6.09,1.25-1.33.25-2.8,0.57-3.32-1.14-0.44-1.46.78-2.06,1.89-2.44,3.43-1.17,1.39-2.66.14-3.81-4.26-3.9-8.42-7.69-14.94-7.74-4.39,0-8.76-1.52-13.18-2.54-0.6,1.77,1.74,3.91-.6,5-2.06.94-3.28-.93-4.55-2.2C98.48,139.38,92,137.25,85,136.23c-3.77-.55-7.43-1.48-10.38-4.15,0.93-2.83,3.34-2.24,5.38-2.2,2.74,0,5.27-.35,7.34-2.31a10.22,10.22,0,0,1,6.63.61c3,1.36,6,2.85,9.75,1.24,2.81-1.22,5.25,2.57,8.38,1.68a85.32,85.32,0,0,0,15.4,8.87c6.73,0.28,10.68,5.43,15.43,9.05,2.5,1.91,4.59,4.84,7.77,5.14,10.5,1,20.49,4.68,31.31,4.5,14.37-.24,28.68-1.94,43.06-1.41a8,8,0,0,0,6.76-2.65c2.08-2.65,4.13-4.41,7.77-3.49,1.21,0.31,1.9-.25,1.45-2.07-1-4.23,1-5.75,6.21-5.11,1.76,2,3.28.77,4.82-.34,2.21-2.35,5.24-2.57,8-2.42C266.23,141.47,272,140,277.84,138.59Z"/><path class="cls-15" d="M141.82,211.66c6.39,4.93,6.47,5,3.06,11.71-0.87,1.72-1,2.54,1,3.31,12.21,4.64,23.09.63,32.43-6.58,3.68-2.84,7-6.77,10.79-9.9,2.3-1.88,3.09-4.69,3.3-7.59,0.53-7.36,2.62-9.75,10.06-11.79a423.88,423.88,0,0,1,52.25-10.55,34.88,34.88,0,0,0,7.63-2.1c11.13-4.34,23.53-3.05,34.52-7.94,6.39-2.84,13.86-1.77,20-5.67,2.24-1.43,4.88.09,7.37-.22,6.29-.79,11.7-4.54,18-5.14,1-.09,1.87-0.81,2.82-0.89,11.47-.95,22.42-4.93,33.86-5.83,8.11-.64,15.43-3.84,22.79-6.66,6.37-2.43,12.81-1.83,19.12-1.77,7.8,0.06,15.52-.61,23.27-1-3,3.73-7.77,3.74-11.71,4.44-5.61,1-11.64,1.22-17.05,2.44-10.41,2.35-21.15,4.06-31,8.7-2.38,1.12-4.84,2.06-7.26,3.08a7.15,7.15,0,0,0-4.85-.73c-13.34,1.55-26.75,2.69-39.52,7.36-3,1.09-6.17,1.36-9.27,2-4.17.81-8.1,1.89-10.53,5.88a3.31,3.31,0,0,1-4.73,1.4,11.86,11.86,0,0,0-6.83-1c-12.58,1.09-25.17,2.14-37.41,5.5-3.54,1-7.31.78-10.71,2.34a9.84,9.84,0,0,1-4,.63c-4.86-.79-9.4.33-14.14,1.54-8.66,2.2-17,6-26,6.56-5.4.33-8.15,3.55-9.48,8.1a42,42,0,0,1-6.2,12.93c-3.14,4.4-1.48,7.42,3.95,8.26a47.77,47.77,0,0,0,17.36-.45c7-.53,13.7-2.62,20.53-4,14-2.72,28-5.24,41.35-10.37,4.92-1.89,10.18-3,15.31-4.39,1.47-.4,2.94-0.61,4.3.39-2.89,4.28-6.71,6.59-12.08,6a7.18,7.18,0,0,0-4.36.68c-6.18,4-13.68,5-20,8.67-3,1.8-5.06,4.32-2.8,8.13,2,3.31,2,5.67-2.78,5.79-2,.06-2.78,1.53-3.25,3.24a1.89,1.89,0,0,0,.5,2.25,1.57,1.57,0,0,0,2.26,0c3.22-3.58,8.7-.16,11.93-3.94,0.56-.65,1.91.17,2.47,1.09a1.54,1.54,0,0,1-.29,2.23c-3.44,1.93-1.34,6.88-4.9,8.78a1.13,1.13,0,0,0,.27,2c0.86,0.45,1.9,1.1,2.77.26a27.25,27.25,0,0,0,2.86-3.44,9.4,9.4,0,0,1,7.45-4c3.83-.34,7.64-2,11.23-3.66,10.82-4.92,21.59-9.88,33-13.41,12.26-3.8,24.45-7.84,36.64-11.87,2.63-.87,5.25.23,7.86-0.36a1.76,1.76,0,0,1,1.9,1.32,1.92,1.92,0,0,1-.92,2.13,7.77,7.77,0,0,1-4,1.86c-11,1.45-21.67,4.71-32.12,8-7.41,2.34-16.44,3.39-21.11,11.46a2.24,2.24,0,0,0,2.22.94c1,0,2.1,0,2.23,1.34,0.09,1-.83,1.27-1.51,1.73a69.27,69.27,0,0,1-20.5,9.72c-2.33.66-4.13,2.1-6.28,2.91-1,.38-2.45,1-3.18-0.2-0.83-1.38.69-1.95,1.53-2.67,1.34-1.14,3.6-1.17,4.06-3.37a38.53,38.53,0,0,0,13.1-6.13c-4.93,1.27-8.4,5-13.11,6.11-0.64-.15-1.46-0.63-1.91-0.4-11,5.72-23.51,7.51-34.74,12.69-2.46,3.34-6.5,3.94-9.94,5.37-7.21,3-13.84,7.11-21.07,10.16-8.65,3.66-18.07,4.51-26.49,8.78-3.91,2-8.7,1.89-13,3.4-3.19,1.12-7-2-7.16-5.34-0.08-1.68-.46-2.53-2.14-2.58-3.17-.09-5-2.34-7.09-4.26-3.12-2.87-8.66-3.71-11.29-.78C148,279.48,142,280.6,136,281.81c-13.26,2.68-26.6,4.43-40.17,2.67-4.86-.63-8.75-3.25-12.37-6.07s-1.77-11.1,2.75-13.83a14.6,14.6,0,0,1,20.17,6c1.17,2.41,3.3,2.65,5.42,2.86a67.46,67.46,0,0,0,29.06-3.1,75.21,75.21,0,0,0,22.32-11.85c4.7-3.69,10.94-5.31,16.44-8,2-.95,4-1.56,4.79-4.37-3.63-1.18-7.08-.69-10.56.46-12.74,4.19-26.08,5.68-39.22,7.17-9.09,1-18.62-.29-27.9.36-13.27.94-26.57,1-39.85,1.7-7.2.38-14.33-.26-21.43,2A11.19,11.19,0,0,1,36.7,257a11.09,11.09,0,0,1-1.21-9.61c2.08-1.6,3.09.9,4.67,1.28,2,0.48,3.77,1.94,6,1.63,0.68-.09,1.36-0.19,2-0.34,2.88-1.08,6.14-1.37,8.28-4a2.11,2.11,0,0,1,1.28-.31c2.85,1.81,4.16-1.25,6.22-2,2.66,0.67,5.2,1.43,4.74-3.06a3.28,3.28,0,0,1,2.67-3.28c3.72-.64,6.15-3,8.59-5.53,2.23-2.34,5.1-2.25,7.88-1.08,4.5,1.89,8.63,3.1,13.83,1.13,6-2.28,11.44,1.23,13.35,7.13,1.3,0.14,1.58-1,2.08-1.77,2.07-3,4.42-3.67,7.61-1.58,3.52,2.31,6.81,2,9.61-1.31-0.68-1.32-1.83-1-2.72-1.21-1.36-.39-2.54-1-2.64-2.57-0.08-1.37.95-2.12,2-2.55,2.23-.87,3.86-2.56,5.71-4,2.28-1.71,3.9-3.28,2.31-6.61C137.87,215,139.92,213.14,141.82,211.66Z"/><path class="cls-16" d="M37.18,257c5.79-.9,12.08.71,17.26-3.39a1.69,1.69,0,0,1,1.44-.23c7.06,3.28,14.45.81,21.56,0.65,6.54-.15,13.15.07,19.7-0.56a258.23,258.23,0,0,1,35.59-.7c5.73,0.23,11.56-1.53,17.3-2.61,9.1-1.71,18.44-2.38,27.14-6,1.23-.51,2.94,0,4.41.23,1.93,0.24,5.38-1.83,5.36.91,0,1.89-1.64,5.7-5.22,6.17-4,.52-6.83,4.32-10,4.84-5.6.92-9,4.4-13,7.35-9,6.63-19.67,9.39-30.21,11.21-7,1.21-14.82,1.61-22-1.26-0.85-.34-2.52-0.18-2-1.53,2.26-5.89-3-5.75-5.83-7.09-3.41-1.63-7.21-.95-10.75.11-5,1.49-4.57,6.24-5.08,9.9-0.42,3,3,3.74,5.32,5,10.9,6,22.31,3.82,33.8,2.55a117.83,117.83,0,0,0,24-4.68c1.64-.54,3.19-1.1,4-2.73,1.2-2.55,3.35-2.67,5.8-3.48,5.15-1.71,7.83.78,10.51,4,1.79,2.12,3.59,3.13,6.44,2.51s3.76,0.61,2.27,3.3c-0.51.91-2,2.56-.69,2.82,2.34,0.46,4.15,3.91,6.62,1.92s5.1-1.31,7.46-2.33c9.38-4,19.47-5.74,29.05-9.25,11.51-4.22,21.54-11.57,33.4-14.83l9.68-1.39C256.19,264.5,249.2,265,243.85,270c8.17,0.22,13.34-5,19.4-7.45,6.4-2.54,12.92-4.64,19.45-6.8-20.83,12.41-42.31,23.25-67,28.59,3.7-4.55,9.24-4.41,13.07-7.28,1.66-1.24,5.82-1.11,4.87-3.31-1.21-2.8-4.32-.5-6.51.47-4.22,1.87-8.2,4.08-12.88,5.11s-6.53,6.29-10.14,9.15a28.14,28.14,0,0,0-3.3,3.67c-0.44,2.12-2.36,2.61-3.89,3.53-7.95,4.79-16.45,8.57-24.31,13.53a81.6,81.6,0,0,0-14.85,12.36c-2.07,2.13-4,4.56-7.36,4.5-1.54-1.22-2.95-.87-4.51.14a53.73,53.73,0,0,0-7.58,5.68,13.53,13.53,0,0,1-3.58,2.69c-1.62.72-3.31,0.94-4.55-.62s-0.15-2.89.78-4c2.22-2.7,4.88-5,7.28-7.55,1.43-1.53,3.53-2.7,0-4.77-3.14-1.87-1.06-4,1-5.35,5.33-3.4,11.07-6.1,16.47-9.4,9.28-5.68,19.27-10,29.33-14.06-4.7,2.06-9.46,4-14.27,5.75-6.71,2.48-13.4,5.08-19.56,8.78a51.09,51.09,0,0,1-10.55,4.43,8.29,8.29,0,0,0-3.83,2.24c-1.07,1.2-2,3-4,2s-1.4-3.11-1.35-5.52c-2,1.93-3.48,3.5-3.48,6-2.21.25,0.18,2.31-1.14,2.92-1.78,1.12-3.09-.58-4.63-0.82-2,7.92-4,9.41-12.11,8.8a1.34,1.34,0,0,0-.5,0c-2.73,0-6.76-1.15-7.55,1.85-0.87,3.33,3.45,3.12,5.68,4.16,2.64,1.24,5.28,2.41,5,6s-4.32,6.73-8.81,7.26c-1.46-2,0-3.1,1.26-4.16,2.85-2.45,2.2-4.58-1-5.44C97,331,90.26,327.24,82.53,327.61c-5.19.25-8.33-3-11.17-6.52-2-2.5-1.15-4.76,1.93-5.74a23.83,23.83,0,0,1,7.41-1,37.61,37.61,0,0,0,21.16-6.47c5.77-3.78,5.64-6-.26-9.6a18.16,18.16,0,0,0-3.74-1.36,11.76,11.76,0,0,1-1.41-.49,13.87,13.87,0,0,1-3.9-2.18c-7.25-6.27-15-5.85-23.58-2.82-5.79,2-12,4-18.45,2.23a5.17,5.17,0,0,1-4-3.3c-2.26-6-3.71-6.8-10.16-5.75a2.64,2.64,0,0,1-1.43-.37c-4.92-3.45-6.27-3.49-10.84-.25-5.73,2.93-13.73,1.27-17.12-3.53,6.74,0.59,12.27-4.8,19-3.93,3,0.39,3.58-1,4.61-3.46,1.26-3.07-2.66-2.64-2.27-4.67,0.92-4.32,4.35-7.22,6.26-11A1.71,1.71,0,0,1,37.18,257Z"/><path class="cls-17" d="M414.5,267.53c-6,1-11.58-2.15-17.62-1.34-2,.27-3.08-0.22-3.69,2.33-1.12,4.7-3.23,7.82-8.75,10s-11,5.76-16.79,8a59.43,59.43,0,0,1-19.22,4.07c-6.4.26-12.74,3.09-19,5.07-2.8.88-3.23,3.79-3.89,7.05-1.72-5.21-4.24-3.82-7-1.85-3.34,2.39-7.43,3.81-9.52,7.77a3.67,3.67,0,0,1-2.88,1.77c-9.56,1.46-17.19,7.46-25.81,10.85s-15.75,8.88-24.41,11.66c-2.67.86-5.7,1.92-7.16,4.89-1.38,1.84-3.1,2.77-5.44,2.07-1.13-2.68,1.39-3.34,2.67-4.5,5.81-5.26,12.62-9.14,19-13.64,4.67-3.3,8.85-7.38,14.51-9.28-4.34,0-8.31.68-11.89,3a16.5,16.5,0,0,1-6.93,2.71,13.72,13.72,0,0,0-10.39,6.09,5.92,5.92,0,0,1-3.56,2.59c-7.92,1.85-14.62,6.08-21.23,10.59-4.67,3.18-10.27,4.66-15,7.85-0.88.6-2.23,1.15-3.2,0.05S207,343,207.57,342a13.56,13.56,0,0,1,2.89-4c4.89-4.26,8.48-9.78,13.64-13.75a24.45,24.45,0,0,0,4.07-5c2.7-3.76,6.24-6.67,10.83-7.43,4.75-.79,9.23-2.77,14.11-3,2-.08,4.55-1,4-3.42-1.13-5,2.48-6.53,5.59-8.06,4.47-2.2,9.37-3.31,14.27-4.29,2.6-.52,5.28-0.5,8-1.14-1.26-.31-2.34.24-3.45,0-1.36-.25-2.8-0.57-3.24-2-0.57-1.77.81-2.81,2.15-3.47a61.14,61.14,0,0,0,8.69-5.76c2.76-2,2.18-3.51.19-5.37,6.83-5.69,15.12-8.61,23-12.47,10.66-5.26,22.05-7.28,33.35-10.26,7.84-2.07,15.88-4.14,23.67-6.74,1.58-.53,4.26-1.76,5,0,0.93,2.39-1.79,4-3.68,4.38-10.29,1.93-19.64,6.63-29.54,9.64-4.47,1.36-8.23,4.23-12,7a2.13,2.13,0,0,0-.94,2.6c0.52,1.25,1.51.9,2.51,0.58,11.1-3.55,22.18-7.13,33.14-11.09a48.89,48.89,0,0,1,16.87-2.76c2.48,0,4.81-3,7.38-.39a2.07,2.07,0,0,1-.2.93c-1.09,1.09-4,1.41-3.13,3.19,1.16,2.49,4.34,2.66,6.64,2.07,3.9-1,7.87-1.28,11.78-2,1.42-.25,2.95-0.85,4.28.36-1.22,1.26-2.37,2.2.45,3.24C410.21,264.57,413.8,263.7,414.5,267.53Z"/><path class="cls-18" d="M279.14,282.46l5.78-1.86c12.51-1.59,22.84-8.09,32.87-15a43.14,43.14,0,0,1,16.47-7.21c1.6,2.27-.48,2.8-1.76,3.68a93.56,93.56,0,0,1-14.65,8.26c2.17-1,4-3.19,6.8-1.47-4.25,4.56,2.42,4.23,3,6.63-7.37,5.11-15.13,9.76-22,15.46-7.44,6.17-15.79,11.24-22.68,17.95-4.28,4.17-9.92,7.1-12,13.88-1,3.18-6,5.13-9.19,7.64-12.29,4.35-18,16-26.48,24.42-8,8-14.26,17.71-21.92,26-4.92,5.33-9.89,11.82-18.36,13-2.63.36-4.78,2.19-5.49,5.65-1.39,6.8-6.44,9.44-13.18,7.75-1.39-.35-1.51-1.06-1.16-2.14,1.76-5.47-1.83-4.69-4.81-3.87-7.42,2-15.44,3-20,10.61-0.5.84-2,1.1-3,1.63a2.21,2.21,0,0,0-1.28-1.86c-1.75-1.45-2.17-3.58-2.83-5.58,1.61-5.12,6.56-4.69,11-6.11-2.52-2.11-5-.15-7.08-1.16-1-.47-2.61-0.28-2.38-1.94,0.15-1.14,1.38-1.23,2.35-1.5,5.7-1.6,5.69-1.61,2.94-7.19a9.83,9.83,0,0,1-.54-3.89c-0.25-3.81-1.45-6.71-5.82-8s-8.49-2.73-7.78-9.48c0.36-3.39-1.26-7.17,0-11a5.7,5.7,0,0,1,1.94-3.22c0.66-.48,1.83-1.25,1.74-1.64-1.45-5.93,4.69-10,3.77-15.9-0.25-1.62-.73-5.08,3.24-4.29-2.9,1.73-.67,4.46-0.45,6.1,0.65,4.79-3.84,8-2.93,12.59a3.46,3.46,0,0,0,3.49,1c4.2-.71,4,1.29,2.43,4.06a7.38,7.38,0,0,1-.89,1,8.39,8.39,0,0,0-3.35,6.64c0.14,5.47,3.31,9.23,9.06,10.47,3,0.65,6.11,1.16,9.17,1.75,2.9,2.71,5.82,3.88,10.21,3,3.49-.71,7.75.59,10.78,3,3.22,2.6,6.1,2.21,9.11.21,6.48-4.31,13.1-8.35,19.4-13,8-5.93,14.23-13.16,20.79-20.39a143.62,143.62,0,0,1,22.61-20.39c-3.51,1.34-7.38,1.39-10.72,3.36a17.5,17.5,0,0,1-6,2.32c-5.93,1-10.84,3.86-15.58,7.42-3,2.29-6.11,5.47-10.7,3.74-0.68-3.09,1.87-4,3.73-5.12,3.54-2.13,7.25-4,11.05-6.06-2-.09-4.5.82-5.27-1.54s1.45-3.77,3.1-4.5c9.18-4.07,16.15-11.63,25.2-15.84,2.5-1.16,3.84-3.65,6.18-5,2-1.12,3.88-2.63,6.41-2.3,3.49,1.27,5.3-1.83,7.76-3.12s4.44-3,7.32-1.62c0.8,2.56-.9,3.89-2.78,4.48-3.51,1.11-5.6,2.63-3.71,6.63,0.16,0.35-.37.83-0.49,1.29,0.67-.81,1.09-2,2.16-2.29,7.93-2.25,12.59-8.59,18.11-14,2.79-2.73,6.41-4.68,9.69-6.91,2.59-1.76,4.77-4.05,7.57-5.49-7.7,3.36-13.93,9.48-22.23,11.7-2.73-1.17-5.62,1.66-8.31-.34,0.27-3.34,3.47-3.59,5.44-5.13,1.4-1.1,3.27-1.45,4.68-2.74-8.37-.56-14.49,3.91-20.21,8.89-3.14,2.74-6.61,5-9.89,7.46a5.42,5.42,0,0,1-5.66.62c-1.28-1.82.26-2.72,1.31-3.62A99.61,99.61,0,0,1,269.91,288c3.19-1.25,5.71-3.58,8.56-5.37Z"/><path class="cls-19" d="M141.51,385.51c7.44-6.24,18.29-9.53,18.37-22.1a10.47,10.47,0,0,1,4.46-8.5,10.63,10.63,0,0,1,1.5-1.32c14.4-9.21,25.26-22.59,38.73-32.87,7.79-5.95,16.75-10,25.7-14,1.61-.71,3.76-1.46,4.94.63s-0.5,3.49-1.69,4.81c-7,7.8-14.2,15.56-22.44,21.93-6.6,5.1-12.1,11.25-18.45,16.55-4.39,3.67-8,8.43-7.73,14.84,0,0.86-.14,2-0.82,2.26-6.18,2.25-4.51,9.6-8.67,13.19-1.53,1.33.28,3.14,0.11,4.75-0.32,2-2,2.94-3.42,4-5.63,4-11.29,7.88-16.88,11.91a9.67,9.67,0,0,1-1.82.74c-1.23.35-2.61,1.17-3.63-.16s-0.05-2.79.68-4.06c0.9-1.56,2.21-2.85,3.32-4.85-3.31.21-4.8,2.9-7.11,4.07-2.47,1.26-5.24,3.13-6.44-1.47a3,3,0,0,1,.87-1.89c1.13-1.25,4-2.15-.06-3.76C137.47,388.76,140.15,387,141.51,385.51Z"/><path class="cls-20" d="M174.84,385.76c-1.82-2.69-3.56-5.33,1.08-7.09a2.44,2.44,0,0,0,.87-1.73c0.6-4.3,1.24-8.53,6.49-9.77a1.47,1.47,0,0,0,.63-1.24c-1.33-8.8,4.87-13.42,10.29-18.38,10.56-9.67,21.33-19.11,31.72-28.95,2.67-2.52,4.84-5.66,7.53-8.26,0.72-.69,2-1.65,1-2.94-0.79-1-1.76,0-2.7.11-3.73.63-6.57,3-9.84,4.54-16.7,7.68-29.42,20.29-42.11,33-4.35,4.37-9.83,7.28-15.47,9.79,4.76-9,11.85-15.71,19.78-21.9s16-13,25.1-17.49c8.38-4.11,15.86-9.74,24.63-13.21,7.91-3.13,16-6.27,22.46-12.38,2.9-2.72,7.37-3.44,11.05-5.3,7.07-3.57,14.61-6.21,22-9.24,1.42,1,4.28-.28,4.57,2,0.24,1.93-2.22,2.63-3.55,3.83-2.83,2.55-5.63,5.1-9.36,6.32-0.94.31-2.2,0.69-2.09,1.81,0.15,1.53,1.67,1.3,2.78,1.4a6.55,6.55,0,0,0,1.94-.08c1.83-.41,4.67-2,5,0.57,0.3,2.21-3.1,1.79-4.93,2-6.77.87-13.5,2-19.67,4.93-2.73,1.29-7.51,1.43-5.15,7.51,1.1,2.84-3.07,4.12-6.23,4.67-7.23,1.26-14.76,1.52-21,6.47-2.92,2.33-3.26,6.67-7,8.2-4.78,1.67-6.94,6.39-10.77,9.27a103.51,103.51,0,0,0-19,18.06,9.32,9.32,0,0,0-2.4,6.83,9.24,9.24,0,0,1-1,5.79c-3,5-6.58,9.75-7,15.89C181.63,383.19,179.14,386.29,174.84,385.76Z"/><path class="cls-21" d="M150.05,325.63c6.55-2.33,9.65-8.77,15-12.64a120.77,120.77,0,0,1,16.26-10.14c6.62-3.35,13-7.14,19.51-10.74,4.25,0.3,7.91-2,11.08-3.94,7.41-4.51,16.05-4,23.7-7.08,8.37-3.4,16.74-6.6,24.79-11,6.59-3.59,13.25-8,21.09-9.18a1.21,1.21,0,0,1-.42,2c-17.83,9.11-35.61,18.33-53.59,27.14-5.39,2.64-10.13,6.24-14.83,9.68-6.27,4.58-13.48,7.47-19.63,12.12-0.61.46-1.9,0-2.87,0-4.44.27-8.22,1.47-11.36,5.18-2.74,3.25-6.49,5.64-9.78,8.43-1.23,1-2.45,2.74,0,3.17,4.9,0.86,2.21,3.86,1.47,5.42a14.5,14.5,0,0,1-9,8c-1.8-1.43-3.6-2.86-5.35-4.35-2.78-2.37-3.93-2-4.58,1.76-0.48,2.75-.5,5.57-1.44,8.24-0.28.79-.69,1.5-1.74,1.33a12.73,12.73,0,0,1,0-5.92c1.58-5.14-.38-10.09-0.92-15.12C147.64,326.56,148.18,325.38,150.05,325.63Z"/><path class="cls-22" d="M252.89,183.57c5.34-2.65,11.38-3.74,17-4.65,8.28-1.35,16.68-2.72,25.11-3.27,4.9-.32,10.14-2.8,14.71,1.52,0.77,0.73,2.07-.32,2.27-1.27,1.23-5.7,6.46-6.38,10.4-6.88,9.34-1.2,17.88-5.29,27.1-6.59,7.86-1.11,15.75-2,23.65-2.73,1.36-.13,3.51-0.22,4,2.05-8.23.57-15.4,4.72-23.17,6.87-6,1.65-12.08,2.91-17.64,5.73l0.21,1.26c3.43-.49,7.22-0.23,10.24-1.62,9.31-4.29,19.63-4.52,29.14-7.83,0.88-.31,2.09-0.69,2.42.72a1.54,1.54,0,0,1-1.35,1.8c-8.71.81-14,8.8-22.07,10.61-7.16,1.61-12.44,6.62-18.94,9.35-12.21,5.11-24.12,11-37.22,13.66-1,.2-2,0.36-2.49,1.39-10.11,2.87-20.48,5.06-30.26,8.81s-20.26,3.89-30.12,6.91c1.23-4.09,5.19-3.61,8.06-4.36,7.86-2,15.84-3.64,23.64-6a11.77,11.77,0,0,1,1.55-.62,134.43,134.43,0,0,0,24.42-8.34c2.23-.78,4.46-1.53,6.69-2.3,12.09-3.7,22.88-9.92,33.34-16.87-3.86-.45-7.2,1-10.66,1.76-1.85.42-3.81,0.46-4.87-1.48-1.17-2.14.91-2.83,2.07-3.88,0.49-.45.87-0.77,0.37-0.33l0,0a20.88,20.88,0,0,1-17.38,3.87c-8-1.63-16.12-.68-24.13.94-7.83,1.59-15.89,1.35-23.77,2.57A2.63,2.63,0,0,1,252.89,183.57Z"/><path class="cls-23" d="M150.05,325.63l-2.64,2.45c-3.07,2-6.4,3.75-1.55,7.62a4.19,4.19,0,0,1,.55,5.53c-1.35,1.68-3-.21-4.42-0.73a9.13,9.13,0,0,0-1.95-.26c-5.7,3.57-11.29,2.85-16.33-2.1-1-4.28,3.25-6.68,3.79-10.46,0.26-1.79,1.28-3.39,2-5.07a19.89,19.89,0,0,1,1.64-3.07c2.25-3.46.13-5.1-2.68-6.46l-0.43-.51c-0.08-1.06-5.78-1.13-.51-3.26,1.07-.43,1.36-2.55,2.27-3.68,0.68-.84,1.67-1.82,3-1.12s1.28,1.83.43,2.91c-1,1.32-1.7,2.85.12,3.73s1.87-1.21,2.58-2.19a3.84,3.84,0,0,1,1.79-1.59c10.35-2.28,18.68-9.15,28.59-12.45,6.88-2.29,13.78-4.63,20.21-8.1,0.75-.41,1.62-1,2.13,0,0.6,1.12-.18,1.7-1.26,2.16-10.36,4.46-20.72,8.93-30.49,14.63-5.57,3.25-11.24,6.33-16.84,9.53-1,.56-2.28,1-2.27,2.4,0,1.78,1.49,1.31,2.57,1.51,3.26,0.59,2.77,2.34,1,4.11-2.9,3-6,5.72-8.86,8.7-0.92,1-2.83,2.16-1.58,3.64s3.08,0.72,4.37-.59a62.44,62.44,0,0,1,12.25-9.29C150.13,322,150.93,322.82,150.05,325.63Z"/><path class="cls-24" d="M148.35,349.11a21.43,21.43,0,0,0,1.74-9.61A6.7,6.7,0,0,1,153,334c2.07-1.25,2.69,1.71,3.77,3,1.52,1.77,5,1.79,4.68,5.18-2.17,2-4.8,3.64-6.39,6s-4.6,4.57-1.54,8.25c1.34,1.61-.94,3.53-2.38,3.15-4.46-1.19-8.43,1-12.66,1.12-1.08,0-2.47.85-3.14-.5s0.62-2.11,1.27-3C139.59,353.11,144.74,352.23,148.35,349.11Z"/><path class="cls-7" d="M288.5,326l-6.93,1.9c2.68-4.12,8-4.22,10.88-7.64,1.66-1.93,5.1-1.59,5.66-4.73,9.35-4.58,28.55-9.81,32.67-8.79-4.33,3.61-10,3.85-14.6,6.26C307.13,317.72,296.67,319.43,288.5,326Z"/><path class="cls-16" d="M125.35,350.4l-1.31-.71c0.85-1.85,3.52-1.77,4.29-4.26-3-.79-5.06-3.13-7.73-4.53a1.52,1.52,0,0,1,.1-1.93l0.85-1.16a3.24,3.24,0,0,1,2.74-.48c4.61,4.41,10,4.41,15.73,2.91,0.47,3.29,1.3,6.69-3.33,7.89-0.84.22-.92,1.17-0.67,2.09,0.72,2.67-1.71,2.77-3.13,3.59-2,1.12-3.27-.26-4-1.67C128,350.5,127,350,125.35,350.4Z"/><path class="cls-25" d="M42.17,52.18c3-.79,5.89-2.39,9.13-2.28,2.72,0.09,5.78-.52,7.32,2.84a2.36,2.36,0,0,0,1.55,1.1c9,1.46,17.15,6.19,26.52,6.37,4,0.08,8,.76,9.46,6.26,0.79,3,5.9,4.58,8,2.67,5.11-4.67,9-1.71,13.26.55a8.37,8.37,0,0,0,4,6c1.54,1.08,3,2.4,3.37,4.19,0.67,3.43,2.55,4.42,5.84,5.54,2.9,1,6.59,4.57,6.9,7.34,0.89,8,5.1,13.79,10,19.47a9.12,9.12,0,0,1,1.1,1.66,2.72,2.72,0,0,1,.08,1c-2.09.47-3.35-1-4.78-2C131,104,119.94,93.17,109.1,82A18.1,18.1,0,0,0,106.95,80c-1.84-1.35-3.73-3.47-6.15-2.31s-1.88,3.91-1.56,6.25c0.14,1.06.87,2.49-.61,3.07-1.07.42-1.57-.91-2.35-1.42-6.74-4.4-13.33-9.21-21.06-11.68-3.07-1-4.95-3.59-8.31-4.19-9.33-1.67-18.06.53-26.84,3a4.11,4.11,0,0,0-2.24-1c-4.3.16-7.57-.75-7.39-6.07,0-.52-1-0.83-1.51-1.22-0.78-.81-0.58-1.74-0.36-2.69a4.1,4.1,0,0,1,2.38-2.59,5.88,5.88,0,0,0,5.37-2.9C37.63,53.9,39.9,53.06,42.17,52.18Z"/><path class="cls-26" d="M28.74,64.21c2.55-.92,4.82-1.5,3.37,2.67-1.13,3.24.72,3.75,3.29,3.44,2.12-.26,4.44-1,4.66,2.38-0.81.85-1.07,2,0,2.55,4.6,2.53,1.75,3.57-.75,5.16-2,1.27-4.86,2.49-4.23,5.48s3.29,3.17,6,2.9c2.92-.29,2.7,1.77,2.31,3.67-0.51,2.48.22,3.36,2.93,3.83C49.9,96.92,53,99.91,57.1,98.85c0.91-.23,1.84.8,1.93,1.92,0.1,1.31-1,1.48-1.94,1.82-3.78,1.32-3.54,2.46-.28,4.67s6.61,4.74,8.86,8.43c1.64,2.7,3.56,4.08,0,7.3-3,2.69,1.9,4.27,3,4,6.3-1.23,12.38,2.43,18.6.53-1.18,3.52-4,4-7.09,3.67-1.94-.22-3.9-0.83-5.35,1.13a2.46,2.46,0,0,1-2,1.32c-7.2-.4-14.66,1.38-21.45-2.51-5.4-3.79-11.08-7.24-12.49-14.6-0.5-2.59-2.95-3.9-5.51-4.51-2.16-.51-4.22-1.23-5.49-3.13-2-3-4.34-4.87-8.23-4.31a2.6,2.6,0,0,1-3.11-2.52c-0.08-1.73,1.07-2.68,2.76-3-0.1-.46,1.6.69,0.5-0.48-2.14-2.28-1.09-4.44.9-5.34,5.57-2.51,8.25-7.45,11.39-12.12,1.39-2.06,2.63-4.2.91-6.34s-4.23-3.77-7.35-3.33c-1.3.18-2.4,1.16-3.81,1-1.6-.76-3.05-1.63-3.06-3.7a3,3,0,0,1,1.83-2.07,13.53,13.53,0,0,0,7.43-2.46Z"/><path class="cls-27" d="M56.64,70.38c2.53-.47,4.62-0.84,6.64.53C72.16,77,83,79.1,92.11,84.77c4.72,2.93,6.56,7.78,9.52,11.87,1,1.34-.12,2.67-2,1.67s-4.26-.75-6.23-1.41c-4.38-1.46-7.32-.26-9.39,3.75-0.94,1.82-2.26,2.48-4.49,1.71C69.83,99,62.41,93.08,58.8,83.31a33.32,33.32,0,0,0-5.13-9.46C50.08,69.27,56,71.62,56.64,70.38Z"/><path class="cls-26" d="M127.49,140c-6.23-1.06-11.73-3.38-15.4-8.87,1.08-.83,2.45-1.78,3.45-0.4C118.63,135,124.24,135.94,127.49,140Z"/><path class="cls-28" d="M252.07,143.57c0.09,1.68-.38,2.94-2.32,3.12s-2.51-1.1-2.5-2.78C248.82,143.36,250.37,142.38,252.07,143.57Z"/><path class="cls-29" d="M141.82,211.66c-0.14,2.67-4.26,5.24-.13,8.09,0.64,0.44.13,1.6-.62,2.13-3.16,2.21-5.13,6-9.29,6.91-1,.21-2.1.71-1.95,1.85,0.19,1.45,1.52,1.5,2.74,1.52,1.38,0,3.33-1.17,3.93.84,0.69,2.29-1.7,2.93-3,4-2.66,2.16-5.9,2.52-8.29.37-4-3.57-6-1.58-8,1.82-0.59,1-1.26,1.9-2.07,3.11a9.71,9.71,0,0,1-1.3-1.54c-1.37-2.66.89-7.71-5.15-7.29-3.29.23-6.43-1.93-10,.69-2.66,2-6.22,0-8.91-1.35-4.48-2.31-8-2.64-11.15,2.09-1.1,1.63-2.64,3.65-5.71,3.08-2.27-.42-3.46,1.63-3.38,3.93,0,1.33,2.2,2.66.36,4s-3.42-.18-4.94-1.19a7.64,7.64,0,0,0-1.37-.58c-1.86.83-3.91,1-5.79,1.78l-1,.17C56,245,56,243,53.6,243.45c-1.07.21-2.8,0.11-2.35-2,3.9-2.62,8.45-1.61,13.32-2.17-2.47,0-4.57.7-5.37-2,1.58-4.21,5.44-4,8.78-4.1A16.07,16.07,0,0,0,78.15,230c2.57-2,5.73-2.53,9-2.42,3.48,0.12,7,0,10.45.37A28.4,28.4,0,0,0,114.43,225c4.12-1.69,8.35-3.12,12.51-4.73,2.35-.91,4.56-2.23,4.59-5.24s-2-4.33-4.5-5.2c-3.13-1.09-5.81-3.19-9-4.08a47.41,47.41,0,0,1-16-9.61c-4-3.52-6.7-8.23-10.06-12.34-2.63-3.22-1.62-6.11,2.56-6.92,5.72-1.1,10.65-4.6,16.68-4.82,3.19-.12,3.51-2.32,1.95-5-3.6-6.2-8.46-7.74-16.2-4.4C92,164.8,87.1,166.61,81.72,167c-1.79.14-3.65,0.73-5.18-.8,0.33-2.08-1.67-4.63,1.23-6.21,8.55,2.53,15.12,1.26,14.07-7.87a2,2,0,0,1,1.26-2.39c2.65,3.95,6.31,4.81,11,4.77,6.82-.06,13.63,1.65,20,3.94,10.51,3.79,21.27,5.06,32.26,5.47,1.82,0.07,3.69.06,5.12,1.48a35.76,35.76,0,0,0,14.31,5.21c-4.56,5.56-8.14,6.62-15.06,4.53-1.7-.52-3.28,0-4.91.18-8.16.43-15.74,5.18-24.23,3.21a10.74,10.74,0,0,1-3.75-1.23c-3.55,3.45-7.8,2-11.89,1.69-3.37-.22-4.28,2.26-5.14,4.73-1.25,3.58,1.89,4.72,3.74,6.57,1.46,1.06,3.4,1.8,4.29,3.22,4.93,7.79,14,10.12,20.42,15.9C140.06,210.19,140.95,210.92,141.82,211.66Z"/><path class="cls-30" d="M77.62,160.32c-2.08,1.38,1.75,3.89-1,5.14a1.62,1.62,0,0,1-2-.84c-1-3.34-3.14-5.34-6.73-5.61-0.65,0,0,.28-0.46-0.11-7.45-6.34-15-1.49-22.39,0-4.69.93-8.82,0.69-12.5-2.57a17.13,17.13,0,0,1-.59-5.4c-0.08-3.71,1.26-6,5.55-5.74,4.84,0.28,6.64-3.82,8.71-7,1.8-2.74,3.28-5.72,5.06-8.51,7.47,4.43,15.7,2.1,23.61,2.68,7.76,2.87,16.47,2.4,23.8,6.93,2.55,1.58,5.17,2.83,6.77,5.57,0.45,0.77,1.49,2.26,2.75,1,0.92-.94-0.35-1.75-0.77-2.58s-2.35-1.36-1.32-2.76c0.86-1.16,2.15-.24,3.23,0,6.09,1.55,12.39,2.13,18.47,3.56s9.74,6.58,13.39,11.36c-1.1,1.41-2.58.89-3.76,1.29-0.74.25-2,.23-1.67,1.3s1.66,0.57,2.58.49c2.25-.71,3,1.76,4.67,2.28,1.37-.65.22-2.18,1.05-3-1.15-2.76,1-2.33,2.27-2.06,3.36,0.67,6.59,2.47,10.15.84a1.16,1.16,0,0,1,.94.21c9.41,6.79,20.07,3.54,30.3,3.87,3.89,0.12,7.76.78,12.3,1.26-10.52,4.91-23.06,6.06-32.68,3.18-2-.61-3.94.17-5.91,0.28-15.51.67-30.25-3.22-45-7.37-5.31-1.5-10.73-3.21-16.46-2.13-4.6.87-6-2.47-7.25-5.84-2.1-.18-4.15-1-6.28.31-1.9,1.17-3.47.05-4.83-1.37-1.86-1.94-3.89-2-5.62,0s-3.94,2.87-6.16,4.07C72.57,155.67,78.5,154.34,77.62,160.32Z"/><path class="cls-31" d="M213.67,183.85c-8,2.6-15.92,5.31-24,7.74a22.33,22.33,0,0,0-7.38,3.84c-8,6.22-17.3,9.32-27.25,7a42.06,42.06,0,0,1-16.93-8.55,1.42,1.42,0,0,1-.53-1.71,14.08,14.08,0,0,1,14.94-9.48c10.64,1.32,21.43,1.66,32,3.08,8.62,1.17,15.9-1.67,23.65-3.39A5.5,5.5,0,0,1,213.67,183.85Z"/><path class="cls-15" d="M127.79,177.31c5.66-.62,11.42,1.6,17-0.46a22.36,22.36,0,0,1,11-1.52c-4.38,3-10,1.32-14.53,4-3.08,1.85-7.05,1.88-9.82,4.41-1.2,1.1-2.15,1.25-3.45.29-1.48-1.1-.88-2-0.26-3.36C128.17,179.76,127.8,178.45,127.79,177.31Z"/><path class="cls-15" d="M114.49,190.31c-2.78-.11-5.08-1.47-5.45-4.1-0.39-2.79,1.2-5.42,3-7.58,1.15-1.42,2.69-.75,3.9.38C113.21,182.49,113.76,186.39,114.49,190.31Z"/><path class="cls-29" d="M144.07,157.82c0.12,1.58,2.92,3,.63,4.61-2.05,1.41-3.07-.64-4.18-2a15,15,0,0,0-2.17-1.87C140,156.15,142.16,158.07,144.07,157.82Z"/><path class="cls-31" d="M133.56,186.93c1.08,0.23,2.34.3,2.72,1.66a1,1,0,0,1-.93,1.38c-1.14-.07-2.38-0.25-2.76-1.61A1.06,1.06,0,0,1,133.56,186.93Z"/><path class="cls-32" d="M59.65,237.56c1.85,1.73,4.65-.52,6.83,2l-15.33,2.2c-5.32.24-9.34,4.12-14.4,5.1-1.6,3.42.39,6.7,0.43,10.05-3.9,2-3.85,6.88-6.93,9.5a14.24,14.24,0,0,0-1.56,1.84c-3.59,3.58-8,4.48-12.85,3.92-3.55-.41-5.45-2.34-5.25-6s0.27-7.35,2.45-10.56c1.27-1.86,1.11-3.59-.12-5.54-3-4.77-2.5-8.11,2.52-11.09,6.41-3.79,10.19-8.4,8.21-16.25a4.57,4.57,0,0,1,1-3.75C29.34,212.76,42.32,209,50,212c-0.72-3.6.24-6.89,0.31-10.27,0.05-2.56.86-4.67,4.1-4.35,0.53,2.27,1,4.43,4.31,3.13,1.09-.43,2.17.55,2.73,1.72,1.63,3.37.23,7.11,1.35,10.7,0.49,1.55-2.76,2.9-4.76,2.22-4.18-1.42-3.14.92-2.55,3.12,0.09,2.45-1.42,2.68-3.28,2.3a23.51,23.51,0,0,0-4.87-.87c-1.37,0-2.66.24-3.35,1.64-1.31,2.64,1,9.22,3.47,10.94C51.23,234.88,56.35,234.11,59.65,237.56Z"/><path class="cls-33" d="M185.65,277.11c-3,.86-5.87-0.07-8.46-2.25-0.89-.75-1.8-1.86-2.82-2-5.45-.84-6.4-3.31-5.14-8.74,1.15-5,3.44-8.44,9-7.58a17.51,17.51,0,0,0,9.62-1c3.15-1.29,5.58-1.06,8.67.8s7.17,0.23,10.59-.89a37.65,37.65,0,0,1,6.28-1.47c1.32-.2,2.74-0.49,3.22,1.35a2.76,2.76,0,0,1-1.46,3.38c-2.95,1.51-5.88,3.76-9,4.08-5.19.54-7.34,4-9.75,7.58A16.16,16.16,0,0,1,185.65,277.11Z"/><path class="cls-34" d="M252.89,183.57c10.43-2.24,21.16-1.93,31.68-4.11a44.19,44.19,0,0,1,20.73.46c4.79,1.33,9.69-.12,13.68-3.57a7.24,7.24,0,0,1,2.49-1.47c0.86-.27,2.08-0.67,2.55.62,0.34,0.93-.49,1.44-1.14,2-1.38,1.14-5,1.13-3.9,3.29,1.25,2.55,4,.67,6.16-0.21,2.3-1,5-.5,7.2-1.83,1.1-.65,2.58-1.37,3.48.23,0.81,1.43-.47,2.46-1.19,3.53-1.68,2.48-4.7,3.21-7,4.35-8.85,4.35-17.21,9.9-27,12.15-0.56-2.82,1.76-3.24,3.49-4a20.55,20.55,0,0,0,9.06-7.22c-8.08,2.1-14.53-1.66-21.12-5a8.49,8.49,0,0,0-6.8-.06,33.31,33.31,0,0,1-12.75,1.7c-7-.32-13.9.66-20.8,1.68-2.22.33-4.59,1.23-6.7-.51,0.66-2.38,2.44-1.71,4.05-1.49Z"/><path class="cls-22" d="M249,184.15c-1.34.39-3,0-3.83,1.59-1.8,2.37-4.76,2.42-7.17,2.94-6.8,1.49-13.31,4-20.08,5.42a84.28,84.28,0,0,0-8.85,1.25c-3.32.73-5.34,2.49-4.7,6.29,0.36,2.12.29,4.38,1.23,6.32,1.57,3.23,2.17,6.13-.68,9.07-1.73,1.79-.52,2.93,1.45,3.48a27.62,27.62,0,0,0,4.45.36c1.62,0.18,3.46.24,3.39,2.65-5.9,1.44-11.87.79-17.8,0.38-5.75-.4-8.13-5.29-4.64-9.82a35.41,35.41,0,0,0,6.54-13.21c1.29-5.08,4.41-8.52,10.42-9,10.12-.81,19.58-4.71,29.25-7.48A21.2,21.2,0,0,1,249,184.15Z"/><path class="cls-34" d="M214.21,223.52c-1.06-1.72-2.68-1.8-4.38-1.39-2.07.51-3.81-.39-5.73-0.87-3.79-.94-2.83-3-1-4.44,2.9-2.37,3.65-4.19,1.47-7.82-1.58-2.63-1.7-6.4-1.69-9.66s2.75-4.72,5.68-5.29c2.76-.54,5.57-0.82,8.36-1.22-0.19,2.84-2.66,2.42-4.38,3-1.88.64-4.33,0.93-4.16,3.48,0.14,2.17,2.46,1.73,4,2.09,5.11,1.18,6.29,3.85,3.64,8.28-0.17.29-.39,0.54-0.55,0.83-1.33,2.37-4.64,4.58-2.93,7.39,2,3.25,5.81,1.61,8.78,1.09,7.36-1.3,14.49-3.64,21.72-5.51,6.75-1.75,13.61-3.08,20.44-4.46,1.75-.35,3.64-0.72,5.28.56-3.78,1.91-7.86,2.8-11.93,3.83-7,1.79-14.44,2.44-21,6C228.63,220.75,221.59,223,214.21,223.52Z"/><path class="cls-35" d="M90.65,203.89c4.42-2.78,8.23-7.27,14.4-5.1,1.9,1.66,4-.1,6.11.4,0.91,1.35-1.06,2.51-.43,3.87-0.59,5.37-6,2.85-8.45,5.17-0.3-3.88-3-4-6.07-3.77,1.12,1.77,4.07,1.48,4.3,4C96.61,208.25,92.85,207.75,90.65,203.89Z"/><path class="cls-36" d="M287.33,247.37c4.35-3,8.26-7,14.94-6.89-4.47,4.57-8.71,7.83-14.93,6.91h0Z"/><path class="cls-37" d="M100.49,208.47c-2.26-1.54-5.22-2-7.43-4.44,2.4-.91,4.5-0.57,6.56-0.73,5-.38,4.43,1.86,2.64,4.93Z"/><path class="cls-36" d="M244.22,231.54c1.29-2.94,1-6.65,5.23-5.55,1.61,0.41,3.39,1.66,2.6,3.58C250.43,233.53,247.07,230.25,244.22,231.54Z"/><path class="cls-16" d="M111.68,202.89c1.19-3,3.41-2.67,5.79-1.78-0.38,2.66-2.72,3.33-4.64,4.09C112,205.52,111.92,203.79,111.68,202.89Z"/><path class="cls-38" d="M49.45,410.91c-4.52-2-9-3.94-5.57-9.08,0.48-.73.08-1.66-0.69-2.38-4.59-4.27-4.81-8.38.37-12.23,3.68-2.74,5.73-5.27,4.29-8.89-0.18-.45.45-1.13,0.7-1.71,3.92-.84,5.19-2.64,5-5.61s0.69-6.27-3.47-8.14a1.39,1.39,0,0,1-.72-2.26,2.8,2.8,0,0,1,2.94-1.08c1.71,0.3,3.48.39,4.16-1.19s-1.11-2.41-2.44-3.19c-2.79-1.61-6.59-.85-9.86-1.51s-6-.77-4.87-3.91c0.82-2.36,4.2-3.26,8.27-2.31-0.94-.91-3.41-0.62-3-2.31s2.38-1.3,3.93-1.64c3.56-.78,5.6-3.22,8.19-5,1.25-.87-0.13-1.5-1-2-1.62-.83-3.64-0.93-5.51-1.28-3.57-.67-6.37-1.75-6-5.07,0.13-1.12-.41-1.9-2.05-2-3.92-.27-4.11-2.44-3.28-4.61,1.09-2.85,3.91-2.24,6.5-1.68a6,6,0,0,0,2.74,0c-9.18-1-13.33-5.37-16.06-10.85a7.51,7.51,0,0,1,.08-2.59c0.37-2.88,1.71-4.91,6.28-4.46a7.1,7.1,0,0,0,3.88-.83c-0.65-2.09-.92-4.3-3.18-5.86-0.77-.53-1.75-1.22-0.83-2.2A4.91,4.91,0,0,1,41.38,294a6.3,6.3,0,0,1,3.68.69,14.48,14.48,0,0,0,5.47,1.27c9.76,0.93,14.75,3.53,19.5,10.08-3.68-6.47-5.85-8.13-14.84-9.82-5.72-1.08-7.27-4.71-9.28-8-1.07-1.73,2-3.79,5-3.56a9.74,9.74,0,0,1,6.83,2.94,3.32,3.32,0,0,0,4.58.58c1.58-1.27-.69-2.07-1.53-2.95a7.49,7.49,0,0,0-3.25-1.43c-7-2.14-10.48-7-8.92-12.89,0.82-3.08,3.69-4.43,7.62-4.69,3.22-.49,6.26.38,9.46,0.09,0.47-.09.94-0.15,1.4-0.22,3.73-1,3.95-3.09,3.4-5.4-0.43-1.82-1.75-3.7,1.09-5.36,4.45-3.79,8.27-1.36,11.78.2a2.82,2.82,0,0,1,.76,4.85c-3.27,2.8-4.62,6.58-8.86,8.83-0.81.43-1.4,1.29-2.23,1.48-2.21.51-4.71,1.08-4.39,3s3.37,0.52,5.14,1.09c-1.43,2-3.43,1.27-5.28,1.25-1.3,0-2.39.51-2.42,1.55s1.25,1.53,2.41,1.15c4.28-1.38,6.53.14,8.24,2.57,1.06,1.51,2.86,2.08,5.09,2.3,3.94,0.41,6.22,1.74,6.85,5.09,0.79,4.23,6,6,10.09,8.23,0.13,3.61-4.14,5.87-5.88,8.94-0.65,1.15-3,1.93-4.09,3.32a3.57,3.57,0,0,1-3.43,1.12c-4.95-.59-5.53-0.12-5.37,3.75,0,1,.55,1.94-0.59,2.84a3.45,3.45,0,0,1-2.69.07c-4.65-1.84-9.32-3.46-14.53.06-1.3,1-2.5,2-2,3.44,0.5,1.2,1.79,1.94,2.85,2.78,1.92,1.51,2,1.43,3-.74s6.33-3.13,10.11-1.66a3.66,3.66,0,0,1-1.33,1.61c-0.54.51-1.19,1.14-.57,1.67,0.81,0.68,1.81.08,2.7-.26,1-.47,1.69-1.28,2.65-1.81,1.61-.89,3.41-0.69,3.19.71-0.57,3.64,3,3.21,5.82,3.7,1.61,0.28,3.27-.12,4.9,0a2.11,2.11,0,0,1,1.08.56c0.71,4.65-3.24,7.9-8.84,6.95-2-.35-2.5.12-3.37,1.27-2.55,3.39-3.84,3.76-7.72,2a8.56,8.56,0,0,0-7.42,0c4.61,3.73,9.94,3.46,14.74-.75A7.77,7.77,0,0,1,90.49,335c2.19,0.94,3.72,1,5.73-.26a3.14,3.14,0,0,1,3.6-.23c1.3,0.91.65,2,0,3.08a3.7,3.7,0,0,1-2,1.71c-4.83,1.26-7.86,5.14-13.27,5.59-1.86.15-2.86,1.46-1.74,2.47,1.36,1.24-2.29,4.18,2.64,4.22,3,0,5.11.53,5.4-2.57,0.12-1.31,1.82-2.13,3.35-2.76,2.71-1.13,5.25-2.24,6.27-4.77,0.66-1.66,2.6-1.53,4-.66,2,1.22,4,2.58,2.12,5a7.71,7.71,0,0,1-3.69,2,3.83,3.83,0,0,1-2.83-.16c-1.56.13-3.7,0.56-3.39,1.75,0.73,2.77-2.19,5.53-.54,8.2,0.38,0.62.88,1.54-.2,2a4.11,4.11,0,0,1-2.79-.19c-4.51-2.45-8.84-.68-13.24,1a89.28,89.28,0,0,0-8.64,3.89c-1.81.9-2.63,2.17-2.25,3.09,2.62,6.31-1.68,10-9,13-4.67,1.91-5.58,4.9-2.29,7.45,2,1.53,2.15,2.82.08,4.41-3.54,2.72-2.72,6.12-3.36,9.21-0.35,1.68,1.94,2,4.08,2.24,4.64,0.44,8.5-1.76,12.75-2.58a4.76,4.76,0,0,0,1.41.89c2.25,0.53,2.62,1.14,1.26,2.59a1.13,1.13,0,0,0-.09,1.36c0.66,2.2-1,2.65-3.37,2.4-4.25-.45-8.31-0.63-11.6,2.56a3.35,3.35,0,0,1-4.33.43C53.09,410.27,51.27,410.55,49.45,410.91Z"/><path class="cls-39" d="M97.33,295.79c3.2,2,3.6,3.49,0,6.17-7.42,5.58-15,10.17-24.61,10.58a15.71,15.71,0,0,0-5.24,1.26c-6,2.49-6,2.55-2.94,8-4.23.83-10.93-2.65-12.09-6.35a3.3,3.3,0,0,1,1.79-4.16c1-.57,2.17-0.83,3.18-1.42,2.22-1.31,3.59-3.19,2.65-5.77s-3.3-2.79-5.45-2.32c-4.06.89-8,1.8-12.28,1.13-2.26-.36-3.36,1.82-4.78,3.15-4.11,3.84-9.2,4.62-13.2,1.95-2.1-1.41-3.31-3-.33-4.87,7.74,2.47,8.71,1.86,13.44-8.44-1.53-.66-2.48.57-3.58,1.15a11.24,11.24,0,0,0-3.07,1.79c0.9,1.13,3.48,1,2.68,3.4-0.54,1.63-1.93,2.2-3.42,2.57a7.57,7.57,0,0,1-5.37-.27A5.91,5.91,0,0,1,21,300.62c-1.15,1.44-.58,4.86-3.78,3.7-2.57-.94-3.32-3-2.7-5.58,0.38-1.56.45-3.28,1.75-4.49,0.91,0.29,1.27,1.78,2.44,1.34s1.11-1.39.59-2.43a1.91,1.91,0,0,1,.49-2.64c1.09-.71,1.76.43,2.56,0.89,3.48,2,4.38,2,9.1-.16-1.55-2-4.32.71-5.67-1.5,0.68-1,2.34-1.18,2.56-3.07-2.23.19-1.6,2.3-2.52,3.1-2.51-1.66-1.35-4.52-2.22-6.72,3.75-4,8.22-3.8,11.26.5,1.48,2,4,.75,5.93,1.85,2.71,1.51,5.56,2.17,5,6.2-0.22,1.73,1.4,2,2.7,2.35a24,24,0,0,0,15.19-.68c2.06-.82,4.2-0.83,6.3-1.23,9.53-1.8,18.43.43,27.21,3.74h0Z"/><path class="cls-40" d="M97.3,295.79c-3.16.16-6.25,0-9.12-1.58-5-2.75-10.29-.72-15.44-1-4.55-.24-8.6,1.4-12.74,2.5-5.1,1.35-9.78-.44-14.63-0.89-2.11-.2-1.75-1.82-1-3.43,1-2.21.75-3.53-2.32-4a12,12,0,0,1-7.1-3.89c3.28-.91,6.4-2.36,9.71.5,1.3,1.12,2.59,2,2.93,3.66s-0.65,3.8,1.37,4.37c2.6,0.74,5.72,1.7,8.07.92,5.15-1.71,10.54-2.65,15.69-4.2,5.91-1.78,13.3-2.65,18.87,3.09C93.14,293.51,95.37,294.51,97.3,295.79Z"/><path class="cls-41" d="M131.74,320l-1.28,2.56a13.56,13.56,0,0,1-.79,1.21c-1,1.15-1.75,3.51-3.55,2.34-2.61-1.7,1.11-2.7,1-4.27,0-2.35,1.32-4.71-.08-7-1.77-1.63-.4-1.93.95-2.24h0.06C132.09,313.68,133.62,316,131.74,320Z"/><path class="cls-42" d="M127.13,321.86c1,1.43-1.91,2.36-.49,3.89,2.19,0,2-2.83,3.83-3.18-0.84,5.43-4.23,9.79-6.17,14.76a2,2,0,0,1-2.75.48c-0.14-2.66-.42-5.31,2.19-7.18a2.91,2.91,0,0,0,1-3.6C123.45,324.23,125.38,323.14,127.13,321.86Z"/><path class="cls-43" d="M120.7,339l0.29,1.89c-1,3.55-1.93,7.12-4.86,9.68l-4.78.77c1-2.91,2.73-5.46,3.15-8.69S118,339.19,120.7,339Z"/><path class="cls-44" d="M184.15,380.35c-2-6.09,2.83-9.46,5.34-13.79,1.31-2.26,2.54-4.6,1.76-7.5a7.11,7.11,0,0,1,1.81-6.47,122.36,122.36,0,0,1,22.7-21.13c3-2.15,4.61-6.17,9-6.39-5.78,6.42-12.72,11.83-17,19.7,7.61-4.18,15.6-7.38,22.9-12.13,4.78-3.11,9.59-7,16-6.89,1.8,0,2.57-2,3.45-3.35a10.69,10.69,0,0,1,8.14-5.12,17.6,17.6,0,0,0,9.69-3.57c3.53-2.93,8.36-1.33,11.83-4.19,1-.85,2.18.28,1.8,1.85s-1.18,3.35-2.92,3.78c-7.39,1.82-12.18,7.7-18.31,11.48a99.89,99.89,0,0,0-17.32,13h0a71.37,71.37,0,0,0-8.2,6.2c-6.34,4.22-12.94,8.1-18.23,13.73-9.4,6.43-18.54,13.22-27.88,19.73C187.36,380.18,186,381.37,184.15,380.35Z"/><path class="cls-45" d="M367.36,264.13c4.65-.49,8.43-0.34,12.06,2,4.12,2.66,4.73,6.07.52,8.79-5.19,3.35-10.39,6.49-16.79,8a207,207,0,0,0-19.81,6.19c-2.6.9-5.21,1.7-8.17,1.23-2.77-.44-4.93,1.43-7,3.16-4.86,4-10.94,3.52-16.57,3.5-3.07,0-2.71-2.72-.54-4.56,5-4.26,9.55-9.29,16.48-10.57s12.29-5.62,17.77-9.5C352.19,267.49,360.33,266.57,367.36,264.13Z"/><path class="cls-46" d="M242.34,319.69c-1.67.17-3.38,0.38-3.51-2.06-0.1-2,1-3,2.86-3.26,1.66-.21,3.47-0.37,3.8,1.87S244.45,319.48,242.34,319.69Z"/><path class="cls-47" d="M268.77,209.6a346,346,0,0,0-41.93,9.8,48.12,48.12,0,0,1-11.3,1.74c-5.12.2-6.72-2.7-4.19-7.11,1.07-1.86,2.5-3.51,3.76-5.27,0.86-1.2,2.12-2.4,1.18-4a4,4,0,0,0-4.18-2.11c-2.8.39-6,.49-6-3.12,0-3,2.59-4.7,5.83-5,1.73-.17,3.75.11,5-1.65,9.46-2.2,18.64-5.5,28.25-7.09,10.32-1.39,20.58-3.58,31.11-2.53a7.26,7.26,0,0,0,3.91-.56c7.47-4,14-.94,20.41,2.64,4,2.25,7.89,2,11.92.5,1.05-.39,2.13-1.39,3,0,0.79,1.2-.05,2.28-0.81,3.12-2.89,3.23-6.14,6.06-10.34,7.43-1.62.53-3.27,0.72-3.84,2.65-2.18.9-4.34,1.91-6.76,2-8.17,3.38-16.83,5.37-25,8.61h0Z"/><path class="cls-34" d="M268.78,209.61c7.68-4.82,16.54-6.18,25-8.61C286.05,205.56,277.51,207.85,268.78,209.61Z"/><path class="cls-16" d="M131.74,320c0.89-3.53,0-6.19-3.69-7.44C133.45,313.15,134.66,315.58,131.74,320Z"/><path class="cls-23" d="M116.13,350.54c1.54-3.27,1.92-7.12,4.86-9.68,3.85-.57,5.89,3.17,9.27,4,0.89,0.21-.67,1.79-1.34,2.68-1.25,1.66-3.1,1.79-4.88,2.18Z"/><path class="cls-23" d="M136.53,346.75c-1,.05-2.13.39-2.47-0.9-0.44-1.68.94-1.81,2.06-2s2.13-.12,2.31,1.15S137.55,346.57,136.53,346.75Z"/><path class="cls-48" d="M41.31,33.94c-2.65.4-5.39,0.87-3.26-3.36a2.86,2.86,0,0,0,.45-0.17C40,29.51,42,28,43.26,29.59,44.83,31.46,41.89,32.4,41.31,33.94Z"/><path class="cls-13" d="M83.3,19c-1.62-1.14-2.76-7.35-1.58-8.73,1-1.16,1.7-.38,2.28.46a7.64,7.64,0,0,1,1,6Z"/><path class="cls-25" d="M92.56,241.05c0.86-.34,2.15-1.14,2,0.65-0.27,2.74-1.4,5.17-4.39,6-4.78,1.34-2.64,5.34-3.06,8.24-0.18,1.25,1.2,1.82,2.56,1.26l5.95-2.42,2.55,3.68c-0.94,2.46-.47,4.73.51,7.12,1.57,3.83-.18,7-4.37,8.54-4-5.29-9.25-9.45-13.74-14.3-1-1.06-2.34-1.05-3.69-1.16-6.62-.53-7.39-1.95-4.2-7.58a8.41,8.41,0,0,0,1.18-2.76c-2.27,1.71-3.42,3.94-5.88,4.34-3,.49-4.93-1.36-3.58-3.93,2.34-4.47,4.26-9.72,11-9.12,2.41,0.22,3.85-1.58,5.49-3,2.63-2.27,5.21-1.59,5.14,1.68-0.11,5.26,2,4.42,5.13,2.71A1.74,1.74,0,0,1,92.56,241.05Z"/><path class="cls-25" d="M75,24.31c2.13-2.06,5.32-1.52,7.64-3.12C80.87,24.15,78.42,25.42,75,24.31Z"/><path class="cls-49" d="M55,197.87l2.9-.58c6.42-1,11.45-5.7,17.92-6.71-2.28-.33-4.57-0.33-6.81-0.69-3-.49-3.59-2-1.81-4.5,1.53-1.59,3.16-3,5.6-2.6a4,4,0,0,0,3.92-1.65c1.05-1.31,3.53-2.15,2.23-4.39-1.2-2.07-3.08-1.27-4.81-.4-1.44.73-3,.85-4-0.63s0.1-2.52,1.15-3.32c2.33-1.77,1.81-2.82-.72-3.57a9.2,9.2,0,0,1-3.92-2.08,3.79,3.79,0,0,1-.76-1.23c1.07-4.43,2.09-5,5.87-3.37a15.53,15.53,0,0,1,3.66,2.46l1.22,0.86a25.84,25.84,0,0,0,18-3.44c3.69-2.13,7.63-1.6,11.4-2.51,2.91-.71,10.85,8.11,10.2,10.89a4,4,0,0,1-4.57,3.09c-6.59-.51-11.64,4.43-18,4.83-2.76.17-2.89,2.89-1.1,4.42,3.72,3.18,5.79,7.58,9,11.12,4.78,5.21,11,7.8,17,11-2.38,2.55-5.09,1.33-7.71.61a49.56,49.56,0,0,1-5.54-1.89c-6.25-4.4-13-6.32-20.68-4.68-1.9.41-3.25,0.57-2.83,2.91s-1.16,3.61-2.9,5.32c2.52,0.32,3.76,1.23,3.32,3.91-0.9,5.48,1.57,9.2,6.8,10.92a21.63,21.63,0,0,0,7.33,1.22c1.91,0,4.09-.18,5.21,2.06a2.13,2.13,0,0,1-.94,1.19c-9.38,1.85-18.38-.07-27.33-2.66a1.58,1.58,0,0,1-.86-0.48c-3.72-5.5-9-5.79-14.78-4.47a4,4,0,0,1-2.83-.76c-1.77-1.49-2.22-3.69-1-5.28,1.38-1.87,2.38.61,3.56,1.16a3.71,3.71,0,0,0,4.16-.61c2.17-1.77-.6-1.73-0.94-2.6-0.86-2.2,1.08-4.18.52-6.61-0.63-2.7-1.87-3.3-4.15-2.5-1.19.42-2,2.53-3.59,0.59C51.4,199.87,54.45,199.34,55,197.87Z"/><path class="cls-35" d="M54.81,218.11c2.63-.38,5.27-0.72,7.89-1.16,3.49-.59,6.64-1.49,8.25,3.48,1,3,4.94,3.12,7.79,3.61,7.46,1.27,15,2.66,22.59,1.55,4.72-.67,9.44-1.4,14.17,0-4.88,3.57-10.4,4.35-16.27,4-4.93-.31-10.32-1.72-14.7-0.25-7.49,2.51-14.59,6.05-22.7,6.4-0.75,0-1.45,1.23-2.18,1.89-2.87-.67-5.8-1.17-8.61-2-6.42-2-9.46-7-8.79-14,0.2-2.1,1.38-2.84,3.21-3.11a12.26,12.26,0,0,1,7.24,1.13C54.26,220.29,54.85,219.69,54.81,218.11Z"/><path class="cls-50" d="M115.51,225.56c-4.72.53-9.44,1.71-14.17,0l0.06-.11c5.08-2,6.41-4.65,2.07-9a2.92,2.92,0,0,1,.71-4.72c1,0.15,1.78.84,2.88,0.39,2.8-1.14,4.56-.51,4.12,3,2.24-.75,3.43-1.88,2.5-3.84-0.84-1.78-2.54-1.95-4.31-1.32-1.36.49-2.54,1.74-4.19,1-1.38-2.76,0-5.51,0-8.26,4.53,0.19,8.53,3.72,13.34,2.15,4.07,1.72,8.32,3.13,12.17,5.25,4,2.21,3.28,8.11-1.42,10.31C124.87,222.54,120.11,223.89,115.51,225.56Z"/><path class="cls-51" d="M77.62,160.32c-0.4-4.74-4.43-4.12-7.41-4.85-1.44-.35-3.33,0-3.43-2-0.08-1.63,1.9-1.56,3-2,1.85-.72,3.62-1.16,4.93-3,2.38-3.36,5.12-4.12,7.83-.13,1,1.51,2.32,2.65,3.95.71,2.7-3.21,4.48-1.23,6.27,1,1.15,4.27.93,8.14-2.79,11.28-3.21,2.71-7.4-.28-10.81,2.13C78.26,164.11,78.14,161.45,77.62,160.32Z"/><path class="cls-29" d="M75.41,164.6c-1.59.31-2.77-.72-4-1.39-3.13-1.71-4.8-1-4.94,2.66-3.15.53-6.26,0-9.36-.43-2.16-.32-3.31.17-2.79,2.57a3.24,3.24,0,0,1-2.38,4.24c-2.53.86-3-1.27-4-2.68h0c-2.17-.88-3.86-2.06-3-5-1.36,1-2.2,2.46-3.66,3.17-1.85.9-3.15,0.48-4.1-1.35-0.82-1.58.92-4.62-2.17-4.76-2.43-.11-2.2,3-3.72,4.24-1.63.82-3.54,2.83-4.9,0.14s0.61-4.18,3-5c0.79-.8.27-1.33-0.39-1.83-0.08-1.43.59-2.77,0.44-4.2a1,1,0,0,1,1.12-.34l2.23,1c4.36,2.45,8.56,3.53,13.67,1.34a40.14,40.14,0,0,1,13-2.8c5.37-.32,9.93,4.11,14.93,6.27C75.2,160.74,75.1,163.15,75.41,164.6Z"/><path class="cls-52" d="M69.25,89.64c3.1,8.73,9.91,13.41,18.54,16.25a7.77,7.77,0,0,1-7.17-.11c-1.12-.6-2.41-1.38-3.59.07-1.35,1.67-.2,3.5-0.19,5.21,0,1.24,1.45,1.26,2.79.86,3.09-.93,3.54,1.39,3.09,3.39-0.95,4.22,1,5.85,4.76,6.42a35.69,35.69,0,0,1,3.76,1.12c2.44,0.66,5.11,2,5.89,3.92,0.66,1.6-2.65,2.79-4.06,4.3-1.18,1.26-2.89,1.91-3.66,3.8-0.88,2.14-2.46,1.66-4,.47a1.32,1.32,0,1,0-.8,2.41c2,0,3.24.73,2.89,3a1.75,1.75,0,0,1-1.55,1.7,1.9,1.9,0,0,1-1.5-.94c-0.2-3.35-2.09-2.32-3.75-1.45s-3.12,2.13-2.42,4.35c0.63,2,2.59,1.27,3.79,1.84,4.18,2,9.9-.4,12.9,4.55,0.89,1.48,3.9,2.42,1.56,4.79-1.49,1.5-2.66,5.09-5.67,1.55a1.1,1.1,0,0,0-1.73.18,1.2,1.2,0,0,0,.29,2.06c6,3,4.59,8.47,4.47,13.43-0.09,3.6-1.7,6.06-5.75,6,0.72-1.88,5.58-1.78,3.12-4.75-2.09-2.52-5.07,0-6.24,1.82-1.39,2.19-7.29,3.9-1.87,8,1.08,0.82-.21,1.89-1.27,1.8a20.34,20.34,0,0,1-5.32-1c-6.36-2.37-7.2-2.12-10.36,3.48-0.64,1.14-.9,3.45-2.93,2.25-1.69-1-.86-2.74.22-3.87,4.16-4.35,2.95-10.73,6-15.52,0.62-1,.09-2.27-0.5-3.33-1.63-3-1.42-5.68,1.25-8.07,1.48-1.33,2.1-3,1.06-4.94-0.44-.79-0.8-2-2.14-1.55a1.93,1.93,0,0,0-1.43,1.85c0.05,6-4.08,10.75-4.8,16.6-0.26,2.14-1.46,4.39-1.78,6.67-0.59,4.22-1.62,7.46-6.94,8-3.5.32-7.12,7.69-5.62,11.32,1.72,4.17-.94,8.17.36,12.18a1.83,1.83,0,0,1-1,1.48c-0.92.2-1.43-.6-1.71-1.43-0.63-1.88-2-3.86-1.73-5.63C45,199.24,38.76,197,40.21,192c0.19-.66-0.9-1-1.52-0.83a43.43,43.43,0,0,0-6.55,2.23c-1.12.53-1.45,1.5,0.2,2.52,3.5,2.16,3.41,2.31,2.93,7a1.74,1.74,0,0,1-.86-0.13c-3.3-6.65-3.64-6.65-8.33-.8-1.17,1.46-2.06,4.71-4.8,2.53s-1.52-4.69.91-6.55c2.61-2,4.3-3.8,1.94-7.41-1.61-2.45.63-2.22,2.47-2.2,2.89,0,5.2,3.59,8.42,1.26a38.91,38.91,0,0,0,10.82-12.92c1.39-2.53.59-6.95,0.91-10.53,0.38-4.36-3.34-5.67-6.85-6.59-1.11-.29-2.58-0.14-2.75-1.59s1.28-1.18,2.15-1.51a5,5,0,0,0,2.85-6.06c-0.77-2.38-3.29-.72-5,0.06-4,1.79-6.05-1.49-7.72-3.78-1.92-2.63,1-4,2.86-5.33,0.4-.3.85-0.53,1.26-0.82,1.82-1.3,5.7,0,5.72-2.9A11.55,11.55,0,0,0,35,129c-1-.86-2-1.79-2.95-2.68,4.44-4,9.82-3.3,15.09-2.84,2.15,0.19,4.28.7,6.44,0.35,5.45-.87,8.9,1.65,11.07,6.41,0.76,1.66,1.37,3.47,3.75,3.81a8.34,8.34,0,0,1-3.94-6.52C63.55,120.76,60.9,115,55,110.75S48.68,98.3,53.37,92.87A8.84,8.84,0,0,0,55.63,87c0.07-2.49-.18-5,0.39-7.46,0.87-3.7,2.55-6.62,7.18-5.66,2.15,1.2,2.58,3.28,2.82,5.46-1.46,5,.33,10.57-2.77,15.37-0.35.54-1.92,4.18,2.48,3.29,3.08-.62,3,3.16,4,5.58,1.34-2.6-.21-4.16-1.4-5.92-1.62-2.41-3.88-4.76-1.92-8.06A2.45,2.45,0,0,1,69.25,89.64Z"/><path class="cls-39" d="M121.23,275.51c1.73,3.46.83,7.43,2.14,11-0.61,4.61-4.24,7.68-6.07,11.69-0.75,1.65-2.95,1.13-4.59.74A20.23,20.23,0,0,1,103,293c-9.08-9.29-18.57-18-29.58-25.08-3.63-2.32-4.9-6.62-4.9-11a4,4,0,0,1,3.26-3.91,10.55,10.55,0,0,0,6.29-5.36c0.73-1.28,1.57-2.84-.06-4-1.34-.95-2.52.06-3.53,0.95-2.29,2-3.76,4.62-5.32,7.18A4.21,4.21,0,0,1,65,254.18a3.27,3.27,0,0,1-3.27-3.64l0.39-2.8c1.32-1,2.6-2.08,4-3,2.26-1.59,3.58-2.74,1.09-5.76-2-2.46-.78-6,0.16-9.12,1.21-3.92.79-6.48-2.54-10.28-4-4.56-8.91-9.15-11-15.32A5.9,5.9,0,0,0,52,201.35c-1.86-1.56-1.78-3.16-.11-5.11,2.06-2.41,2.15-5.1-.42-7.44-2.77-2.52-1.43-4.26,1.1-5.75,0.85-.5,2.55-1,2.52-1.32-0.55-6.91,5.89-7.22,9.45-10.21,1.47-1.24,3-2.68.61-4.32-2-1.36-1.16-2.72-.55-4.3,0.91-2.34,3.16-4.3,1.53-7.37-0.85-1.59,1.19-1.57,2.11-2a4.31,4.31,0,0,1,5.45.87c1.47,1.56,1.72,3.51,1.83,5.55,0.08,1.58-.32,3.52,2.09,3.85,2.16,0.3,3.47-.84,4.26-2.68,0.52-1.22.83-2.53,1.4-3.72,0.86-1.8,8.08-2.92,9.11-1.38s0.24,2.93-1.15,3.8-3,1.43-4.39,2.27c-1.16.7-2.24,1.7-1.67,3.24,0.49,1.33,1.9,1.31,3,1.2,3.87-.36,6,0.06,2.63,4.26-0.76.94-.79,2.47-1.23,4,2.58,0.45,3.65-1.61,5.24-2.51s2.85-1.24,3.93.35a2.37,2.37,0,0,1-.82,3.48c-3.71,2.42-5.55,6.53-8.74,9.46-2.33,2.14-3.19,4.64-.05,7.53,2.89,2.67,5,6.18,7.46,9.33-1,1-2,.44-2.59-0.25-3.23-3.52-4.74-1.24-6.78,1.52-4.56,6.18-5.17,13.53-6.79,20.61a5.84,5.84,0,0,0,1.61,5.44,16.67,16.67,0,0,1,4.43,12.69,36.51,36.51,0,0,0,1.68,14.28c1.3,3.82,4.06,5.55,8,5.46,6-.14,9.24,1.84,11.2,7.47a22.43,22.43,0,0,0,4,7.36c3.12,3.67,4.67,3.68,7.94.07A3.67,3.67,0,0,1,121.23,275.51Z"/><path class="cls-53" d="M124,282c2.23,2,3.59,4.5,2.51,7.52s-3.87,2.78-6.31,3.09c-2.76.34-5.35,0.8-8.29-.24-4.55-1.61-8.27,1-10.32,5.31-1.7,3.56-4.65,6.1-9.12,5.36-6.3-1.05-11.84-3.94-17.2-7.29-3.39-2.12-7.29-1.88-10.74-.52-1.66.65-2.54,0.91-3.84-.18-6.66-5.6-13.89-10.58-17.64-19-2.5-5.59-2.67-5.73,3.13-7.22a8.27,8.27,0,0,0,2-1.23l0,0c2.19-2.56,5.85-.84,8.37-3-2.78,1.49-5.71,1.48-8.57,1.86-9.86,1.69-16.38-1.89-17.58-9.63-1.27-8.25,4.95-13.79,13-11.55,1.26,0.35,2.49.79,3.74,1.18,6.24,0.38,12.44,1.36,18.72,1.1a4.2,4.2,0,0,1,3.91,1.73l0.35,1.92c0.41,2-.58,3.86-0.94,5.78a2.82,2.82,0,0,0,2.63,3.5C74,260.65,73,258.73,73,257.61s-0.42-2.68.89-3c1.88-.51,1.65,1.46,2.24,2.51a28.91,28.91,0,0,0,2.32,3.13v0c-2.09,1.59-1.92,2.79.48,4,4.66,2.26,9.1,1.46,12.32-2.89,1.9-2.57,3.61-3.93,7-2.6,2.69,1.06,5.51.08,8.19-.94,4.08-1.56,8.54-.16,9.37,2.8,1,3.59-1.29,7-5.85,8.28-1.33.38-2.59,0.58-2.94,2.18s0.94,2,1.77,2.68c2.81,2.47,5.48,5.21,9.66,5.1C120,280.33,121.52,282,124,282Z"/><path class="cls-54" d="M147.5,383.7c-0.31-2.05-.42-4.17-1.89-5.85-4.49-2.07-10.07,1.64-10.22,7.2a7.05,7.05,0,0,1-3.34,6.18c-3.87,2.69-5.7,2.48-7.94-1.69-1.48-2.76-2.47-3.36-4.21-.36a2,2,0,0,1-2.55,1,2.48,2.48,0,0,1-1.34-2.47c-0.1-2,.74-4,0.34-5.94-0.49-2.43-1.49-4.33-4.35-2.34-1.85,1.29-3.67,2.52-5.87,1s-0.46-3.66-1.06-5.52c0.6,4.23-3.27,7.72-1.16,12.5,1,2.29-1.52,2.12-3.12,1-3.72.38-7,2.62-10.85,2.53a19.16,19.16,0,0,0-8.32-7.36c-4.52-2.27-5.69-7.7-2.93-11.93,2.42-3.7,5.45-6.68,10.25-7,1.34-.09,3.14-0.27,3.5-1.49,1.52-5,6-5.91,9.93-7.63,3.93,1.9,4.22,2.89,1.16,5.12-1.53,1.12-2.68,2.08-2.93,4.17-0.7,5.76-1.53,6.3-7.25,5.48a21.61,21.61,0,0,0-2.92-.37c-4.66-.12-7.74,2.07-7.72,5.48,0,3.65,3.35,5.44,9.06,4.88,1.76-.37,4-0.28,4.49-2.45,1.08-5,5-7.72,8.43-10.69,2.67-2.28,3.6-4.54,1.76-7.74a8.14,8.14,0,0,1-.52-7.62,12.16,12.16,0,0,0,.7-6.83c-0.46-2.9.79-4.8,3.45-5.82s4.42,0.25,5.65,2.56a2.51,2.51,0,0,1-.59,2.74,19.78,19.78,0,0,1-3.27,1.75c2.88,1.83,5,4.69,8.86,4.16,4,1.09,5.13,4.39,6,7.83a35.58,35.58,0,0,0,1,4.37,2.28,2.28,0,0,0,1.63,1.71c1,0.15,1.44-.73,1.72-1.49a10.62,10.62,0,0,1,5.14-5.88c2.87-1.52,4.85-3.37,4.41-7-0.17-1.39.65-3,1.86-3.29,6.23-1.39,8.44-7.51,13.06-10.74q0.41-.29.83-0.55c3-1.53,2.67-3-1.39-5.92a7.24,7.24,0,0,1-6.63-2.75c-1.66-2.35-2.35-4.84-.28-7.24s5.29-3.31,6.86-.9c2.45,3.74,5.48,3.78,9.13,3.95,2.79,0.13,5.11,1.65,5,5-0.08,3.06,2.64,4.42,3.83,6.7a1.45,1.45,0,0,1-.09,1.45c-4.48,0-6.48,1.91-6.2,6.65,0.42,7.16,2.19,13.14,10.2,15,3.38,0.77,3.76,4.43,6.16,6.2,1.08,0.8-.22,2.09-1.08,2-2.71-.12-6.36,3.44-7.8-2.37-0.54-2.19-3.88-2.86-6.31-3.39-1.41-.3-2.49.63-3.28,1.83s0.26,2.12.67,3.14c2.52,6.27,7.82,8.84,13.8,10.68,5.4,1.67,11.54,10.69,11.53,18.11-4.51-6.58-7.33-13.43-14.24-15.92a144.75,144.75,0,0,0-19.43-5.36c2.5,2.94,4.4,5.75,4.6,9.51,0.15,3-2,5-3.89,4.12-6.19-2.87-5.25,1.73-5.82,4.89a12.48,12.48,0,0,0,0,2.48l-2.93.41c-2.44-2.48-1.07-5.15-.31-7.73C148.94,384.63,149.43,383.63,147.5,383.7Z"/><path class="cls-39" d="M69.86,249.32c-4.48-1.38-9.11-.14-13.7-0.76a31.38,31.38,0,0,1-8.92-2.07c3.77-2.15.11-3-.89-3.39-4.92-1.72-9.73-1.38-14.07,1.83-5.15,3.82-6.26,3.45-7.88-2.79a4.39,4.39,0,0,0-1.7-2.93c-2.33-1.45-2.34-3.39-1.37-5.61,1.66-3.77-.91-8.15,2-11.87,1.32-1.71,1.09-4.93,4.3-4.57,3.46,0.39,7.84-.73,9.6,3.54,1.29,3.11,2.35,3,4.5,1,1.54-1.49,4.25-.83,5.68-2.81A1,1,0,0,1,49,219a2.89,2.89,0,0,1,.09,2.33c-2.74,3.44-1.55,6.11,1.5,8.41,0.86,0.65.59,1.39,0.71,2.18,0.33,2.26-.36,5.64,3.95,3.9C58.13,242.5,67.49,242.14,69.86,249.32Z"/><path class="cls-55" d="M19.25,364.6c5.2-1.23,5.73-2.29,2.79-6.38-1.9-2.64-2.42-5.79-3.67-8.66-0.88-2,.87-3.48,2.15-4.67,1.56-1.45,3,.07,3.81,1.08,2.72,3.21,4.93,6.87,3.34,11.22-0.89,2.44-.13,3.61,1.87,4.14,4.35,1.15,8.06,2.06,12.8-1.25,5.51-3.84,12.83-5,19.23-7.67,6.58-2.72,13.89-3,20.25-6.54,1.85-1,3-2.49,4.51-3.81,1-.91,1.64-2.18.49-2.95-3.84-2.57-3.91-7.16-6.06-10.61,7-1.43,12.14,2.5,16.8,6.49,4.09,3.5-.43,12.9-6.56,14.24-7.63,1.67-15.11,3.6-21.12,9.08-2.24,2-6.15,2.77-4.6,7.41,0.32,1-1.17,3.37-3.09,3.23-1.43-.1-1.09-1.78-0.95-2.89,0.11-.83.39-1.73-0.67-2.06a2,2,0,0,0-2.15.92,2.46,2.46,0,0,0-.81,1.21c1.83,9.86-9.09,13.66-10.43,22a4,4,0,0,1-3.52,3.15c-5,.85-9.9,2.51-15.12.55-4-1.51-7.15-7.31-5.39-11.12,2.76-6,2.12-9.65-2.43-14.22A16.81,16.81,0,0,1,19.25,364.6Z"/><path class="cls-13" d="M83,272.77c-2.14-2.35-6.13-2.93-4.87-8.17,0.74-3.08-4.23-3.68-6.51-3-3.48,1.1-5.13,1.12-5.89-2.88-0.56-3-3.22-2.77-5.15-1.76-3.16,1.67-3.25,4.26-1,7-0.83,3.78-2.49,3.43-4.59.94a16.83,16.83,0,0,1-2.42-6,5.63,5.63,0,0,0-3.37-4.51c-3.62-1.74-4.29-4.36-1.81-7.53a101.73,101.73,0,0,1,7.05-7.67c1-1.07,2.42-2,4-1,1.85,1.18,1.21,2.86.63,4.44s-1.49,3-1.77,4.64c-0.19,1.14-.41,2.59,1.06,2.9,1.24,0.26,1.29-1.18,1.7-2,2.58-5.38,4.35-11.1,6.73-16.57,2.72-6.27,8.85-8.74,13.56-12.76a3.38,3.38,0,0,1,5.2,1c0.58,2.84.43,6.26,5,2.81,2.68-2,5.27-1.23,6,2.84,0.78,4.39,1.25,8.53-2.48,12a4,4,0,0,0-1.45,3.56A14,14,0,0,1,89.67,243c-1.59.58-3,2.73-4.9,1.24-1.73-1.34.4-2.65,0.44-4s0.26-3.28-1.3-4c-1.7-.81-2.05,1.19-2.88,2.05-1.63,1.72-3.15,3.18-6,2.77-3.63-.53-6.61.51-7.29,4.81a3.27,3.27,0,0,1-1,1.64c-1.18,1.12-3.2,2.31-1.33,3.91,1.49,1.28,3.33.16,4.87-1.11s2.23-5.57,4.77-3.71c2.93,2.15-1.59,3.88-1.95,6.11-0.2,1.24-2.22,2-1.27,3.47a3.39,3.39,0,0,0,4,1.34c3.65-1.2,5.48.89,7.37,3.39,1.2,1.59,2,4,4.95,3.16a2.16,2.16,0,0,1,1.5.87c-1,4.06,2.26,4.88,4.68,6.46,1,0.67.14,1.83-.06,2.76l-0.92.11C90,272.85,86.49,273,83,272.77Z"/><path class="cls-32" d="M47.91,169.57c1.39,0.85,2.21,2.89,4.57,1.45s0.37-2.53.19-3.75c-0.26-1.72-.4-4.12,1.86-3.48,4,1.13,8.3-.33,12,2.08l0.07,0.08c0.81,1.12,2.68,2,1.47,3.7a5.33,5.33,0,0,1-4.26,2.19c-1.7.09-3.57-1.2-5.08,0.55-0.06,1.61,1.12,1.34,2,1.46,9.2,1.13,10.46,3.1,7.67,11.95-1.4,1.3-2.62,2.75.57,2.93,3.56,0.21,7.1.38,10.7,1.76-7.88.47-13.39,8-21.76,6.81,2.72-1.72,5.32-3.46,1.41-6.59-0.76-.61-1.5-1.74-2.25-1.74-1.66,0-1.41,1.79-1.37,2.71,0.17,4.21-4,3.34-5.91,5-1.76,1.5-4,1.74-2.77,5.06a2.34,2.34,0,0,1-3.11,3,15.24,15.24,0,0,0-7.7-1.3c-1.35.14-1.89-1.18-.95-1.91,2.2-1.7,1.9-3,.54-5.22s-0.12-4.26,2.78-4.15c5.91,0.24,8.52-5.84,13.75-7,1.27-.29,2.56-2.78,1.37-4.22-1.52-1.83-2.45.34-3.41,1.31-1.81,1.84-3.49,2.17-5.49.08-2.6-2.72-6.47-2.38-7.8.9a3.42,3.42,0,0,1-3.66,2.49,4.8,4.8,0,0,0-1.44-.11c-4.64,7.92-7.56-1.19-11.41-1.25-1.68,0-2.66-2.36-.72-3.1,3-1.15,6.39-3,9.67.12s4.59,2.47,6.34-2c0.75-1.92.86-6.72,4.68-1.56,1.76,2.38,6.79-1,7.68-5.27A10.8,10.8,0,0,0,47.91,169.57Z"/><path class="cls-56" d="M83.67,111.94c2.61,1.62,1.72,2.89-.41,4-3.62,1.92-7.93,1.23-11.63,3.49-2,1.21-4.19-1.08-5.43-3.21-1.83-2.74.69-3.73,2.07-5.18C73.62,107.49,78.72,108.34,83.67,111.94Z"/><path class="cls-57" d="M53.86,94.24c2.21,0.62,6.31-1,6,2.89-0.18,2.46-1.19,6.22-4.17,7.42-2.78,1.12-6.38-2.37-6.71-5.77C48.67,95.2,51.37,95,53.86,94.24Z"/><path class="cls-30" d="M85.14,122.88a30.25,30.25,0,0,1,1.47-3.69c0.66-1.2,1.67-2.16,3.25-1.67a2.64,2.64,0,0,1,1.85,2.69c0,1.46-.56,3.34,1.2,3.93s2.92-1.14,4-2.35a7,7,0,0,1,3.75-2.59c-1.58,2.95-1.46,5.46,1.11,7.36-4.23,2.2-8-.2-11.89-1.23-1.21-.32-1.48-1.17-0.88-2.3s1.47-2.42.11-3.05c-1.79-.84-1.75,1.45-2.66,2.22A6.35,6.35,0,0,1,85.14,122.88Z"/><path class="cls-30" d="M66.19,116.25c2.33,2,4.42,3.31,7.87,1.51,2.66-1.38,6.09-1.25,9.19-1.79,0.81,0.33,2.36-.54,2.38.9,0,1.24-1.48.9-2.37,1.11-3.29-1.06-6.21-.12-10.3,1.54l4,1C72.17,125.34,70,124.46,66.19,116.25Z"/><path class="cls-30" d="M83.67,111.94c-0.64,0-1.53.27-1.9,0-4.32-3.75-8.87-2.72-13.5-.83,5.56-4.92,10.89-3,16.17.55Z"/><path class="cls-25" d="M83,272.77c3.6-.5,7.26-1.46,10.36,1.48-3.45.72-6.76-1.52-10.22-.52Z"/><path class="cls-53" d="M78.49,260.21c1.32-.2,2.64-0.35,3.94-0.6,1.58-.29,4,0,4.1-2,0.13-2.53-2.26-.72-3.41-1.22a3.09,3.09,0,0,1-1.54-1,1.16,1.16,0,0,1,.87-1.52c2.92-.82,5.33-2.51,7.81-4.17,1-.68,2.41-0.08,3.21.72,1.26,1.24,0,2.08-.89,2.76-1.67,1.32-2.07,3.37-3,5.1-2.71,5.06-6.64,5.81-11.09,2v0Z"/><path class="cls-58" d="M79.77,246.76c0.45-1.72-2.84-4.26,1-5.18a2.64,2.64,0,0,1,3.45,2.61c0.33,3.92-2.79,2.07-4.52,2.54Z"/><path class="cls-59" d="M228.27,215.36c-1.4,0-4.23.45-5.61-1.45-1.5-2.06.37-4.44,1.44-6.39,1.41-2.58,4.36-4.11,5.21-7.16,0.35-1.27,1.45-2.92,1-3.72-2.52-4.53.91-5.35,3.77-6.5,5.53-2.24,10.91-4.51,17.26-2.58,4.76,1.44,10.06-2,14.88.94,0.54,0.33,2.32-.13,1.53,1-3.21,4.41,1.6,5.1,3.27,6.54,4.06,3.51,4.31,4.92-.73,7a214.86,214.86,0,0,1-20.43,7.22C243.05,212.19,236.06,213.53,228.27,215.36Z"/><path class="cls-60" d="M105.2,202.76c2.73,2.66-.26,5.43.16,8.14,0.28,0.77,0,1.14-.82,1.09-1.79,2.44-.38,4.11,1.18,6,1.29,1.56,3.85,2.77,3.09,5.23-0.88,2.83-3.71,1-5.55,1.66-0.62.22-1.24,0.41-1.87,0.61-4-2.29-8.63-.44-12.91-2-5.26-2-8.87-7.21-7.37-12.74,0.91-3.36-1.41-2-2.78-2.07-0.78,0-1.8.38-2.15-.65-0.41-1.22.51-1.89,1.48-2.15,3.23-.84,4-2.65,2.41-5.55-0.67-1.26-.51-2.45,1.11-2.51C89.59,197.45,98.38,195.41,105.2,202.76Z"/><path class="cls-29" d="M68.38,185.79a27.3,27.3,0,0,1-.17-3.47c0.41-5.57-2.16-8.14-7.67-7.21-1.32.22-2.47,1.12-3.47-.38a3,3,0,0,1-.2-3.31c0.87-1.52,2.45-1.59,4-1.56a3.43,3.43,0,0,1,1.84.66c2,1.5,3.07-.66,4.3-1.33,1.77-1-.69-2.07-0.44-3.24a55.93,55.93,0,0,0,5.55,2c1.34,0.35,2.74.51,3,2.11s-1.3,2.11-2.38,2.82-3.08.81-1.72,2.57c1,1.26,2.39.43,3.41-.61,2.73-2.77,4.63-.35,6.19,1.34,1.76,1.91,0,3.2-1.49,4.37-2.23,1.7-3.44,5.47-7.55,3.14C70.31,183.06,69.59,185.28,68.38,185.79Z"/><path class="cls-61" d="M104.55,212l0.82-1.09c2.41-1.07,4.17-3.85,7.55-2.34,2.51,1.12,3.29,3,2.49,5.14a4.78,4.78,0,0,1-5.56,3.09c-3.53-1,1.47-2.58-.12-4.37C108.56,209.87,105.51,218.44,104.55,212Z"/><path class="cls-38" d="M35.32,92.66L37,89.19c2.7,4.94-2,9.09-.33,13.34a11.2,11.2,0,0,0,3.5,7.47c3.57,3.18,2.36,5.87-.49,8.79-2.08-2.46,0-6.47-3.37-7.55-1.83-.58-1.3,2.71-3.26,3.43C30.71,106.78,35.14,99.92,35.32,92.66Z"/><path class="cls-62" d="M49.79,135.28c-4.53-2-7.75.69-11.39,2.37,1.26-3.38,2.28-6.31,2-9.61-0.15-2.11,2.4-2.79,2.9-1.67C44.84,129.66,49.23,130.45,49.79,135.28Z"/><path class="cls-63" d="M35.93,268.43c4.37-1,9.4,1.32,13.18-2.75,0.24-.26,1.64.19,2.23,0.66,2.61,2.07,3.43.29,4.18-1.8,1.61,1.67,3,1.55,4-.57,1.49,2.54,3.86,2.65,6.38,2.32,1,2.48-2.3,5.59,1.12,7.71-2.28,3.58-6.9,5.33-7.82,10-0.3,1.51-1.4.93-2.37,0.78-3.76-.59-5.35,1.28-4.72,4.78,0.52,2.9-.74,4.15-3.12,5.37-3.07,1.57-6.27,3.21-6.66,7.4-0.09,1-.84,2.48-2.32,2s-3-.87-3.33-2.64-0.47-3.65-.91-5.42c-0.73-2.93-1.67-5.8-4.92-7-2-2.44-6.22-3-6.18-7.17a2.08,2.08,0,0,0,.76-2.13c0.58-1.19,1.93-1.82,2.32-3.13C29,272.65,32,270.11,35.93,268.43Z"/><path class="cls-64" d="M67,274c-8.09-1.45-.44-5.19-1.12-7.72,0.93-.11,2.74-0.41,2.54.38-0.95,3.63,2.19,4.12,4.37,5.67C70.94,274.13,68.82,273.51,67,274Z"/><path class="cls-65" d="M51.88,275.18c-1.31,3,1.66,2.49,2.83,3.44s1.86,2.22,1.12,3.47-2,.24-3-0.23a24.4,24.4,0,0,0-2.17-1.21c-2.79-1-5.77-1.55-7.64,1.34s1.8,3.74,2.76,5.61c0.56,1.1,2.4,1.17,2.94,3.19-2.91-.73-5.8-2.21-8.13.88-0.62.83-1.92-.26-2.37-1.12-1.13-2.15-2.39-3.66-5.12-4.11s-1.72-2.14-.36-3.53,3.52-2.71.56-4.63a5.94,5.94,0,0,1,8.31-6.35,10.58,10.58,0,0,0,6.85.91C49.83,272.59,51.93,272.68,51.88,275.18Z"/></svg>