<svg id="Layer_1" data-name="Layer 1" xmlns="http://www.w3.org/2000/svg" viewBox="0 0 347.23 488"><defs><style>.cls-1{fill:#f0e3d8;}.cls-2{fill:#d4b8b7;}.cls-3{fill:#001546;}.cls-4{fill:#002761;}.cls-5{fill:#00468c;}.cls-6{fill:#000457;}.cls-7{fill:#000103;}.cls-8{fill:#00244b;}.cls-9{fill:#198cd6;}.cls-10{fill:#023b61;}.cls-11{fill:#062c82;}.cls-12{fill:#127b74;}.cls-13{fill:#2d99d2;}.cls-14{fill:#327bad;}.cls-15{fill:#533724;}.cls-16{fill:#1c51ab;}.cls-17{fill:#484f68;}.cls-18{fill:#59747d;}.cls-19{fill:#c4c8d6;}.cls-20{fill:#000023;}.cls-21{fill:#001;}.cls-22{fill:#221401;}.cls-23{fill:#001525;}.cls-24{fill:#000343;}.cls-25{fill:#000328;}.cls-26{fill:#402004;}.cls-27{fill:#232722;}.cls-28{fill:#231506;}.cls-29{fill:#000032;}.cls-30{fill:#8a5d32;}.cls-31{fill:#f5b449;}.cls-32{fill:#03494d;}.cls-33{fill:#d2d6dc;}.cls-34{fill:#fafcfd;}.cls-35{fill:#f7f9fb;}.cls-36{fill:#979d9f;}.cls-37{fill:#002e99;}.cls-38{fill:#0039ab;}.cls-39{fill:#007793;}.cls-40{fill:#001e70;}.cls-41{fill:#00638e;}.cls-42{fill:#002369;}.cls-43{fill:#003799;}.cls-44{fill:#0037b7;}.cls-45{fill:#000533;}.cls-46{fill:#00636d;}.cls-47{fill:#004dbd;}.cls-48{fill:#00388f;}.cls-49{fill:#5b2801;}.cls-50{fill:#fddc28;}.cls-51{fill:#c13a00;}.cls-52{fill:#a93e01;}.cls-53{fill:#6c3d15;}.cls-54{fill:#cd5c01;}.cls-55{fill:#a18078;}.cls-56{fill:#002180;}.cls-57{fill:#000e47;}.cls-58{fill:#001d5f;}.cls-59{fill:#00145a;}.cls-60{fill:#000a40;}.cls-61{fill:#0f1729;}.cls-62{fill:#006391;}.cls-63{fill:#001b5b;}.cls-64{fill:#062a30;}.cls-65{fill:#00063f;}.cls-66{fill:#01376b;}.cls-67{fill:#1266a8;}.cls-68{fill:#043559;}.cls-69{fill:#332f31;}.cls-70{fill:#f9fefe;}.cls-71{fill:#010000;}.cls-72{fill:#6f2902;}.cls-73{fill:#00273a;}.cls-74{fill:#001c66;}.cls-75{fill:#fefefe;}.cls-76{fill:#fbc01e;}.cls-77{fill:#8f2d04;}.cls-78{fill:#002ea8;}.cls-79{fill:#0035ae;}.cls-80{fill:#002471;}.cls-81{fill:#007dbe;}.cls-82{fill:#00306a;}.cls-83{fill:#007599;}.cls-84{fill:#002a95;}.cls-85{fill:#0063b8;}.cls-86{fill:#005cc4;}.cls-87{fill:#0162a5;}.cls-88{fill:#dae8f6;}.cls-89{fill:#8eb0e5;}.cls-90{fill:#00487e;}.cls-91{fill:#002a83;}.cls-92{fill:#0084a7;}.cls-93{fill:#00408c;}.cls-94{fill:#97bfe0;}.cls-95{fill:#a9d4db;}.cls-96{fill:#003e62;}.cls-97{fill:#00255f;}.cls-98{fill:#006a87;}.cls-99{fill:#0068b2;}.cls-100{fill:#007476;}.cls-101{fill:#00788d;}.cls-102{fill:#00849a;}.cls-103{fill:#f7f5fc;}.cls-104{fill:#0072ab;}.cls-105{fill:#002c88;}.cls-106{fill:#001d48;}.cls-107{fill:#002b4f;}.cls-108{fill:#0040a5;}.cls-109{fill:#001832;}.cls-110{fill:#027498;}.cls-111{fill:#017bcc;}.cls-112{fill:#fef7fa;}.cls-113{fill:#37b1f6;}.cls-114{fill:#286ea1;}.cls-115{fill:#e4a866;}.cls-116{fill:#006871;}.cls-117{fill:#1063a1;}.cls-118{fill:#0039a1;}.cls-119{fill:#91cde5;}.cls-120{fill:#4fbdf0;}.cls-121{fill:#f1eef5;}.cls-122{fill:#3d7ea8;}.cls-123{fill:#8cb4da;}.cls-124{fill:#447dcb;}.cls-125{fill:#c6f2f8;}.cls-126{fill:#023a4c;}.cls-127{fill:#5aa4df;}.cls-128{fill:#0097bf;}.cls-129{fill:#0045c8;}.cls-130{fill:#00347f;}.cls-131{fill:#fcf8f7;}.cls-132{fill:#01308e;}.cls-133{fill:#d5f3fa;}</style></defs><title>splash</title><path class="cls-1" d="M117.22,334c7.09,0,14.16-.42,21.24-0.88,6.39-.41,12.78-0.88,19.17-1.12,4.88-.18,9.78,0,14.67-0.06a14.25,14.25,0,0,1,4.46.81,2.25,2.25,0,0,1,1.54,2.39,1.77,1.77,0,0,1-1.65,1.68c-7.64,1.43-14.78,4.78-22.81,5-6.24.16-12.41,2.21-18.66,2.81-6,.58-11.84,2.66-18,2.62V334Z"/><path class="cls-2" d="M0,282.84c1.36,0.31,3,3.07,2.71,5.05-0.19,1.47-1.54,1.5-2.71,1.57v-6.62Z"/><path class="cls-3" d="M233.21,154.6c2.87-2.35,2.08-6.51,4.48-9.11a8.68,8.68,0,0,1,.34-0.93c1.12-.77,1-3,2.34-2.88,1.07,0.12.5,2,.86,3.14,1,3.07,3.85,4.54,5.72,6.83,0.58,0.71,2.51-.12,3.92.74a4.05,4.05,0,0,1,2.27,4c-0.09,3.57,0,3.57,3.36,3.22,0.65-.07,1.55-0.31,1.88.36a4.05,4.05,0,0,1,0,3.89c-0.93,1.33-1.3,3.43-3.57,3.56-0.55,0-1.39.56-1.14,1.12,0.7,1.59-.6,3.28.18,4.66,1,1.83.55,3.4-.21,5-1.11,2.43-1.44,5.15-2.92,7.48-0.95,1.49-1.61,2.07-2.93.46-0.34-.41-0.78-1.4-1.57-0.54-0.58.63-.16,1.28,0.32,1.8,1.8,1.93,1.83,4.46,2.33,6.83a1.53,1.53,0,0,1-.13,1.21c-1.93,1.5-2.05,4-3.34,5.83-0.67,1.18.12,2,.67,2.94,1.21,2,.94,2.5-1.53,2.9a44.7,44.7,0,0,0-3.69-5.32c-0.67-1.45.11-2,1.39-2a1.58,1.58,0,0,0,1.63-2.05c-0.3-2-.19-4.11-1.28-6-0.67-1.18-1.13-2.77.78-3.62a1.6,1.6,0,0,0,1-1.86c-0.59-3-.69-6.22-3-8.4a5,5,0,0,0-5.46-1.18,3,3,0,0,1-1.71.12,1.81,1.81,0,0,0-2.06.57c-0.62,1,1,.89,1,1.68-2.85-.58-2.49,0-2.43-5.91,0-2.07,1.16-2.58,3-2.31,0.88,0.78,1.68.46,2.5-.14a7.11,7.11,0,0,1,2.25-1.14c1.48-.41,2.56.59,1.79,1.81-0.53.85,0.52,1,.15,1.55a6.09,6.09,0,0,1-4.39.8c1.39,0.58,2.95.53,4.31,1.22a6.08,6.08,0,0,1,2.9,3,1.77,1.77,0,0,0,1.73,1.25,1,1,0,0,0,.85-0.84c0.23-1-.59-1.24-1.17-1.72-1.43-1.17-3.63-1.58-3.89-3.91a2.25,2.25,0,0,1,1.93-.26c2,0.25,3.34-.71,4.21-2.5a14.91,14.91,0,0,1,3.76-5.32c1.44-1.17.6-2.13-.1-3.25S249,160,248,161a1.45,1.45,0,0,1-1.86.27,1.74,1.74,0,0,1-.47-2.07c0.25-1,.85-1.84,1.19-2.79,0.46-1.3.16-2.48-1.15-2.92s-1.56.85-2,1.74c-0.71,1.4-.39,2.94-0.72,4.39-2.32-1.88-4.54-4-7.91-3.57C233.87,156.19,233.74,155.17,233.21,154.6Z"/><path class="cls-4" d="M265.84,26.68a4.06,4.06,0,0,0,2.22-2.92c0.46-2.84,3.52-4.33,3.69-7.35a31.15,31.15,0,0,1,.8-5.48c0.52-2.15,1.25-2.09,3.19-1.18,2.82,1.33,4.7,3.53,6.68,5.74,2.23,2.48,2.46,4.09.65,6.76-0.71,1-1.58,2-1.45,3.42,0.3,3.15-1.62,5.3-3.56,7.24a18.74,18.74,0,0,0-5.6,9.57c1.35,1.75,0,3-.88,4.23s-1.64,2.5.57,3.48a1.9,1.9,0,0,1,.82,3,1.4,1.4,0,0,0-.82,1.88,1.37,1.37,0,0,1-.26,1.64c-2.63,2-1.13,4.79-1.58,7.23,1.2,0.17,1.51-1,2.43-1a1.42,1.42,0,0,1,1.5,1.09c0.25,0.71-.33.77-0.77,1A7.51,7.51,0,0,0,270.9,75c-1.29-.17-1.5-1-1.49-2.16q0.1-7.33,0-14.66a3.87,3.87,0,0,1,1.08-2.46c1.6-2.14.86-4.2-1.72-4.68-1.3-.24-0.52-1.7-1.43-2.07-0.8-1.71-1.2-3.33.43-4.88,3-2.85,3.11-6.71.29-9.88a1.3,1.3,0,0,0-2.31.16c-1.07,1.94-2.69,2.52-4.77,2.74a2.19,2.19,0,0,0-2.08,3c0,0.16.1,0.32,0.13,0.49,0.27,1.43-.14,2.67-1.61,3-1.69.36-1.34-1.3-1.74-2.19-2.71-3.27-2.76-9.1-.11-12.87,0.78,2-.66,3.85-0.44,5.81a4.64,4.64,0,0,0,.3,3.72c1.95-3.33,3.88-6.65,7.54-8.36C264.4,29.13,264.43,27.29,265.84,26.68Z"/><path class="cls-5" d="M227.18,101a1.64,1.64,0,0,0,2.11-1.34c1.51,1.19,4.67,1.2,6.67,0a8,8,0,0,1,2.95-1.42,1.32,1.32,0,0,1,1.7.71,1.12,1.12,0,0,1-.61,1.5c-1.85.82-2.62,2.58-3.68,4.09a13.63,13.63,0,0,1-1.88,2.39c-0.68.61-1.73,0.73-2.24,1.8a10.35,10.35,0,0,0,5.63-2.11,1.44,1.44,0,0,0,.87-1.43c-0.48-2.11.92-2.76,2.48-3.09,1.86-.39,2.58-1,1.25-2.81a1.5,1.5,0,0,1,0-1.9c1.11-.63,2.44-0.57,3.57-1.14,1.35-.17,2.57.49,4,0.39,2.48-.17,4.35-0.76,6-2.89,1.9-2.44,3.73-2.64,5.13-.45,0.92,1.44,1.55,2.86-.07,4.29-0.9.79-.37,1.93-0.58,2.9-1.74,1.14-3.48.35-5-.32s-2.18-.36-2.65,1.08-1.45,2.2-2.92,1.79a2.63,2.63,0,0,0-3.5,1.59,17.27,17.27,0,0,1-1.57,1.86c0.62,0.63,2.08.56,1.92,1.88-0.12,1.05-1.06,1.48-1.76,2.06a10.18,10.18,0,0,1-1.9,1.27c-1.38.59-2.76,1.18-4.19,1.63a7.77,7.77,0,0,1-1.51.15,33.5,33.5,0,0,1-4.06-.07c-1.27-.16-2.11-0.23-2.49,1.42-0.27,1.18-1.72,1.66-2.87,1.81a3.07,3.07,0,0,0-2.83,2.44,7,7,0,0,1-1.57,2.29,2,2,0,0,1-2.2.91,2.56,2.56,0,0,1-1.78-2c-0.53-2,.17-3.48,2.13-4.64,2.57-1.51,2.65-3.12.26-4.94-1.6-1.22-1.73-2.65-.31-4.59s3.28-3.16,4.94-4.73A2.26,2.26,0,0,1,227.18,101Z"/><path class="cls-6" d="M230.63,98.42l5.6-3.05c2.16-.22,4.21-0.7,5.58-2.61,1.19-1.69,2.13-3.62,4.51-4a1.51,1.51,0,0,0,1.2-1.45c0.1-1.38,1-2.23,1.9-3.11a1.16,1.16,0,0,0,.37-1.34c-0.07-2,.4-3.58,2.59-4.31,1.69-.56,2-1.86,1.32-3.46-1.3-3.15-1.51-6.55-2.16-9.84-0.35-1.77,1-3.13,1.54-4.71a34.72,34.72,0,0,1,1.68-3.67,1.29,1.29,0,0,1,1.65-.62,1.76,1.76,0,0,1,.53.48c0.58,0.49,0,2.35,1.76,1.46,1.7-1.23,2.31-1,2.66.8a8.7,8.7,0,0,1-.89,5.14,11.79,11.79,0,0,0-1.09,7.29,5.71,5.71,0,0,1-.07,2,4.33,4.33,0,0,1-.18.76,17,17,0,0,0-.81,2.66c-1,5.17-4,9-7.93,12.23-2.14,1.75-3.89,4-6.36,5.34a80.15,80.15,0,0,0-11.15,5.84c-0.87.5-1.82,0.92-2.58,0.32S229.9,99,230.63,98.42Z"/><path class="cls-7" d="M240.35,172.83c-0.37-.7-1.27-0.32-1.8-0.82,0.11-1,2.31,0,1.53-1.53-0.7-1.31-1.48,0-2.25.15-1.38.18-2,2.53-3.85,1.23a0.69,0.69,0,0,1-.23-1c1.13-2.15,3.41-3.3,4.61-5.55,0.57-1.06,3.07-1,3.9-2.88,0.42-.93,1-1.74.68-2.81-1.55-2.4,0-4.36.95-6.37a1.47,1.47,0,0,1,2.38-.45c0.86,0.77,2.08,1.67,1.49,3.17-0.43,1.1-1,2.13-1.53,3.2a1.36,1.36,0,0,0,.05,1.66c0.63,0.59,1-.18,1.47-0.39,0.85-.38,1.52-2.16,2.68-0.73,2.61,3.2,2.71,4.09.6,5.51-1.59,1.06-2.24,2.78-3.14,4.22-2.47,4-2.33,4-7,3.5A0.37,0.37,0,0,1,240.35,172.83Z"/><path class="cls-8" d="M242.88,111.2a10.49,10.49,0,0,0,1.55-1.27c0.58-.68,2-0.75,1.8-1.89-0.24-1.32-1.4-.28-2.08-0.51-1.22-.41-0.74-1.24-0.05-1.64a5.66,5.66,0,0,0,2.39-2.84,1.62,1.62,0,0,1,2.45-.93c1.94,0.94,3,.28,3.47-1.74s1.25-2.36,3-1c1.33,1.07,3.2.73,4.81,1.12a0.61,0.61,0,0,1,.42.45c1,1.62,2,3.31,4.35,3.18,0.64,0,1.52-.32,1.39-0.8-0.47-1.69,1-3.07.94-4.18-0.33-4.16,1.84-7.3,3.23-10.83a15.83,15.83,0,0,0,.61-7.52,4.77,4.77,0,0,1,.25-3.21,39.06,39.06,0,0,1,.08,10c-0.14,2-1.43,3.5-2.14,5.19a9.76,9.76,0,0,0-.95,3.93c0,0.51.07,1,.06,1.51-0.19,6.49-1.2,6.64-6.67,6.33-0.73-.5-1.39-1.34-2.35-0.28a1.8,1.8,0,0,1-1.91.27c-0.82-.21-1.44-0.33-1.45.87a1.13,1.13,0,0,1-1.18,1.11c-1.58,0-2.24,1-2.71,2.24a4.47,4.47,0,0,1-5.17,3.06C245.61,111.72,244.11,112.31,242.88,111.2Z"/><path class="cls-9" d="M260.6,101l-0.42-.45c0.16-1.34,0-2.67,1-3.92,0.72-.84,0-2.17-0.49-3.21a3.48,3.48,0,0,1-.84-3.06,2.59,2.59,0,0,0-.8-2.3c-1.67-2-1.74-2.79.1-4.46a5.2,5.2,0,0,0,2-4.4,6.83,6.83,0,0,1,1.53-4c-1.28-.67-3.49,0-3.46-2.44,0-.34-0.15,0,0-0.24,1.89-2.93,1.65-6.49,2.86-9.6,0.93-2.39-.18-4.41-1-6.27-0.65-1.42-1.32,1.08-2.34.77-0.4-1.52-2-2.75-1.09-4.59,0.55-.16,1.11-0.75,1.66-0.37,1.76,1.2,3.23.51,4.59-.64a1.28,1.28,0,0,1,2,0c0.86,0.85,0,1.12-.56,1.43a1.14,1.14,0,0,0-.57,1.29c0.47,2.84,0,5.69.29,8.57a16.81,16.81,0,0,1-1.26,8.38,5.65,5.65,0,0,0-.51,1.07c2.62,2.21-.66,4-0.38,6.1s0.78,4.51.27,6.54,0.59,4.54-1.72,6.14c-0.67.46-.19,1.36,0.39,2,1.45,1.58,1.6,3.1-.37,4.4C260.15,98.54,261,99.91,260.6,101Z"/><path class="cls-10" d="M230.63,98.42c-0.12.67-.94,1.43,0.11,2a1.34,1.34,0,0,0,1.62-.36c2.1-2.27,5.16-2.92,7.7-4.46,1.12-.68,2.26-1.85,3.86-1.61,0,1.41-.84,2.42-1.5,3.53-0.07,1.67,2.3,2.58,1.78,3.93s-2.72.81-4,1.53c-0.45.24-1.23,0.58-1.05,0.95,1.77,3.71-2.1,3.33-3.45,4.68-0.62.62-1.9,0.55-2.86,0.86-0.68.22-1.4,0.46-1.73-.37a1.11,1.11,0,0,1,.78-1.4c2.68-.88,3.65-3.33,5.13-5.34,0.71-1,1.07-2.38,2.69-2.39A0.62,0.62,0,0,0,240.2,99a0.76,0.76,0,0,0-1.07-.33,4.26,4.26,0,0,0-1.84.77c-1.92,2.36-4.76,1.29-7.12,2-1.36.39,0.12-1.5-.88-1.78C228.76,98.11,230.08,98.7,230.63,98.42Z"/><path class="cls-11" d="M255.18,56.79a3.89,3.89,0,0,1-.89,2.6c-3.68,5-1.52,10.05-.05,15,0.8,2.7.89,3.87-1.63,4.83A3.47,3.47,0,0,0,250,82.93a1.15,1.15,0,0,1-.63,1.26c0.23-3.54-.19-7.14.11-10.61,0.34-4-.31-8.34,2.62-11.79C252.21,58.62,252.91,57.45,255.18,56.79Z"/><path class="cls-12" d="M243.83,77a14.4,14.4,0,0,1,2,.13,2,2,0,0,1,1.25,3.34A5.87,5.87,0,0,1,245.87,82c-0.88.55-1.44,2.36-2.83,1.27-1.54-1.21-3.16-2.57-2.14-5C241.57,76.63,242.92,77.1,243.83,77Z"/><path class="cls-13" d="M219.55,173.47c1.37,0,2.48-.47,1.69-2.05s1.18-3.24-.25-4.73c-0.06-2.07,1.45-3.24,2.73-4.42,1.86-1.71,3.71-3.28,2.24-6.17a1.24,1.24,0,0,1,.23-1.62,1.36,1.36,0,0,1,1.82.31c0.7,0.6,1.35,1,2.2.3l0.5-.16c0.27,1.57-.41,2.39-1.68,3.45-1.46,1.22-3.74,2.73-2.17,5.46,0.38,0.65-.14,1.09-0.74,1.32-3.64,1.44-4.39,2.61-4.14,6.3,0.06,0.92,0,1.86,0,2.79a4.14,4.14,0,0,1-2.48-.42A0.32,0.32,0,0,1,219.55,173.47Z"/><path class="cls-14" d="M238.66,83.05c2.39,0.27,3.64,1.21,3.6,3.28,0,1.46-.95,2.67-2.35,2.32a4.07,4.07,0,0,1-3-3.49A1.66,1.66,0,0,1,238.66,83.05Z"/><path class="cls-15" d="M217.83,240.63c-2,.66-4.06,1.09-6-0.3-1.08-.79-1.64-0.64-1.83.75a16.19,16.19,0,0,1-.59,1.94c-0.16.6-.33,1.22-1.12,1.09s-0.81-.68-0.71-1.36c0.15-1,.37-2.25-1.42-1.64,0.27-1.5,3.93-3.16,5.12-1.9C213.35,241.34,215.65,240.29,217.83,240.63Z"/><path class="cls-16" d="M255.18,56.79c-1.89,1.13-2.37,3.12-3,5a3.76,3.76,0,0,0-.57-1.37c-1.63-1.52-1.86-2.42.8-2.79,1.42-.2,1.16-1.88,1.75-2.84,2.34-.78,2.82-0.42,2.55,1.91A1.39,1.39,0,0,0,255.18,56.79Z"/><path class="cls-17" d="M203.68,243.6a23.87,23.87,0,0,0-.94,2.32c-0.16.55-.21,1.55,0.38,1.54,2.68-.05,1.94,1.3,1.45,2.85a7,7,0,0,0,.15,2.48c-0.54-1.27-1-2.46-2.49-3.15C200.95,249.07,202,244.85,203.68,243.6Z"/><path class="cls-18" d="M235.09,67.77c-1.45.22-1.64-.69-1.76-1.65a1.11,1.11,0,0,1,1.25-1.42c1.45,0,3,.6,3,2S235.71,67,235.09,67.77Z"/><path class="cls-19" d="M219.49,173.81l2.48,0.42c-0.4,1.41.92,3.07-.7,4.27-2.78-1.46-2.83-1.85-.44-3.45C220.85,174.14,219.56,174.62,219.49,173.81Z"/><path class="cls-10" d="M225.67,100a8.93,8.93,0,0,0-5.26-1.62c1.35-.61,2.62-1,3.92.24a1.32,1.32,0,0,0,2.18-.33c0.59-1.09,1.1-.76,1.76-0.14-0.6.82-2.67,1.09-1.08,2.75l-0.09.61C225.81,101.82,226,100.67,225.67,100Z"/><path class="cls-10" d="M241.8,92.76c-1.11,2.48-3.24,2.75-5.58,2.61C238.12,94.57,240.25,94.28,241.8,92.76Z"/><path class="cls-20" d="M64.16,373c0.88-2.9,3.9-2.91,5.91-3.69,3.84-1.5,7-4.05,10.8-5.56,5.23-2.1,9.45-6.11,14.9-7.74A3.31,3.31,0,0,1,97,355.7c4.23,0.49,6.57-2.35,8.6-5.23a23.77,23.77,0,0,1,4.95-5.59c1.58-1.19,1.79-3.44,3.54-4.48,0.85,1.85-.52,3.23-1,4.8a5.21,5.21,0,0,1-.32.66,14.1,14.1,0,0,1-4.54,5.33,19.91,19.91,0,0,0-5.24,6.09c-1.25,2.16-2.91,3.78-5.75,3a3.43,3.43,0,0,1-1.35-.59c-2-1.16-3.57,0-5.22.84-5.53,2.8-10.37,6.7-15.76,9.72a10.42,10.42,0,0,1-3.22,1.44,5.71,5.71,0,0,0-2.77,1.23c-2.91,2.58-6.15,4.78-8.89,7.54-0.95,1-2.39,2.27-1.44,3.7s2.62,0.5,3.94,0a15.69,15.69,0,0,0,6.62-5.38c3.14-3.94,9-4.65,12.6-1.62,0.59,0.5,1.23,1,1.05,1.88s-1,1-1.77,1.17a5.66,5.66,0,0,0-2.74,1.25c-1.33,1.09-1.76,2.25-.49,3.67s1.7,3.38,3,4.72a38.13,38.13,0,0,0,12.12,9,2.93,2.93,0,0,0,3.31-.57c1.41-1.23,3-2.19,4.54-3.27a12.33,12.33,0,0,0,4.83-6c1-2.77,3.18-5,4.75-7.44,2.31-3.65,5.9-6,8.27-9.47,2.13-3.11,4.85-5.66,7.31-8.45,1.74-2,3.55-3.78,4.59-6.31s2.7-2.7,4.8-1.15c0.85,2.78.85,2.78,3.11,1.05,1.83-1.4,3.43-.74,3.75,1.56a2.32,2.32,0,0,1,0,1c-1.32,4.1.21,7.24,3.26,9.9a20.91,20.91,0,0,1,.7,2.08c1.63,4.2,7,6.76,11.17,5.25a6.74,6.74,0,0,1,2.11-.7c1.82-.44,3.52-1.4,5.47-1.33,3.07,0.74,5.44-1.07,7.8-2.41,3.06-1.74,6.34-3.09,9.13-5.4a41,41,0,0,1,6-4.5c3.38-1.85,6.08-4.53,9.37-6.42,6.89-4,12.93-8.93,17.29-15.72,1.54-2.4,4.16-3.7,6-5.81a26.87,26.87,0,0,1,8.72-6.43,7,7,0,0,0,3.27-3.21c-1.5.66-2.93,1.45-4-.44,0.05-.67.43-1.24,0.45-1.94,0.11-2.84,1.06-3.46,3.76-2.52a0.62,0.62,0,0,0,.68-0.11c1.42-4.88,4.42-7.32,9.75-7.87a7.89,7.89,0,0,0,2.61-.85c1.34-.25,2.47-2.52,4.05-0.44,0.28,1.49-.57,2.59-1.38,3.64a5.53,5.53,0,0,0-1.55,3.38c0.17,4-1.81,7.25-3.45,10.63-4.19,3.89-8,8.19-12.11,12.14-5.33,5.08-11.64,9.32-15.52,15.85-2.57,3.92-6.59,6.07-10.53,8.18-2,1.07-3.76,2.65-6,3.25-1.1.29-2.23,0.72-2.54-1a10.05,10.05,0,0,1,3.65-4.65c2.1-1.75,3.94-3.88,6.93-4.22,0.58-.07,1.41-0.76.93-1.46s-1.24,0-1.68.39c-1.65,1.57-3.74,2.59-5.36,4.19a3.53,3.53,0,0,1-.59.38c-1.74.68-3,2.07-4.41,3.2-2.2,2.19-5.06,3.49-7.38,5.63-2.05,1.9-3.28,3.5-2.57,6.24-0.07,1.59-1.17,2.39-2.44,2.94-3.69,1.61-5.09,4.71-5.66,8.39a2.29,2.29,0,0,0,.32,1.71,3.36,3.36,0,0,1-.08,4.22c-0.8,1.16-.28,1.85,1,1.62,2.51-.46,3.22.73,3,3a3,3,0,0,1-.31,1.16c-1.46,1.6-3.08.22-4.63,0.27a25.2,25.2,0,0,0-5.47-.72c-3-.22-4.27,2.21-5.61,4.35a4.8,4.8,0,0,1-2.43,1.93c-3.47.06-4.83-2.93-7-4.82a5.35,5.35,0,0,0-3.11-3.13c-4.32-1.61-7.45-4.86-10.6-8-2.77-2.73-4.78-2.45-6.1,1.32-0.31.87-.4,1.81-0.65,2.7a3.36,3.36,0,0,0,.14,4.39,2.17,2.17,0,0,1,.14,3,2.68,2.68,0,0,1-3.22.89c-2.24-1.1-4.93-1.33-6.73-3.32-0.86-1-1.56-.85-2.16.26a1.42,1.42,0,0,1-1.18.86c-2.32,0-4.6-.17-5.68-2.73-0.86-2,0-3.33,2.22-3.22-0.39,1.51.35,2.21,1.76,2.42,1.55,0.62,1.12-.69,1-1.21-0.45-1.79-.57-3.47.86-4.81a1,1,0,0,0-1.21-.48c-2.69.51-3.47,0-3.87-2.73-0.64-4.23,1.84-6.66,5.92-5.81a7.75,7.75,0,0,0,2.52.25c1.31-.16,2.35-0.57,2-2.24a3.27,3.27,0,0,1,.24-2c0.72-1.71,2.08-2,3.33-.61,0.56,0.61.87,1.3,2,1.25,4.75-.22,8.65,1.87,11.94,5a24.68,24.68,0,0,0,6,4.64c2.23,1.1,4.48,2.07,7.06,1,0.89-.36,1.85,0,2.84-0.11-3.52,0-5.82-2.95-9.17-3.43a4,4,0,0,1-3.22-2.27c-0.8-2.05-2.43-3.17-4.08-4.38-3.17-2.34-4.78-5.89-6.74-9.15-0.63-1.05-1.22-2-2.57-2.21-1.63-.21-2.29-1.27-2.37-2.81a4.05,4.05,0,0,0-.39-1.73c-0.67-1.26-1.56-1.59-2.58-.43-2.9,3.33-6.73,5.86-9.22,9.42s-6.5,6.54-7.58,11.25a2.63,2.63,0,0,1-1.63,1.86c-2.89,1.15-4.09,3.72-5.15,6.29a12,12,0,0,1-4.27,5.54c-2.51,1.74-5.07,3.38-7.5,5.23-1.84,1.4-3.45,1.2-5.31-.31a7.79,7.79,0,0,0-6.05-1.91c-2.52.28-5.85-2.5-6.71-5.34-0.56-1.86-1.22-3.7-1.62-5.61a1.46,1.46,0,0,0-1-1.36c-0.75-.13-0.93.61-1.21,1.1a10.44,10.44,0,0,1-8.7,5.35c-3.1.27-6.13,1.32-9.32,0.78-1-.16-1.76.54-2.63,0.85a2.56,2.56,0,0,1-2.84-.5c-0.93-.92-0.27-1.74.36-2.43,0.85-.93.52-1.45-0.46-1.92a14.42,14.42,0,0,1-2.39-1.44c-2.11-1.56-2.33-3.43-.31-5,3.45-2.73,6.85-5.53,10.34-8.21C59.93,374.25,62.23,374,64.16,373Z"/><path class="cls-21" d="M120.18,394.25c-1.78-.81-2.17.34-2,1.64a3.29,3.29,0,0,0,3.17,3.06c0.81,0.07,1.72-.29,2.37.51a1.88,1.88,0,0,1,.58,2.11,1.42,1.42,0,0,1-1.41.39c-2.84-1.05-5.08,0-7.15,1.87a1.07,1.07,0,0,1-1.17.23,5.27,5.27,0,0,1-1-.76c-0.93-1.13-3.52-.79-3.19-2.63a12.47,12.47,0,0,1,1.47-4.23,5,5,0,0,0,.57-4.26c-0.24-.92,0-2.07,1-1.47a2.6,2.6,0,0,0,3.41-.39,1.64,1.64,0,0,0,0-2.13,6.86,6.86,0,0,0-3.43-1.75c-3.21-.54-4.2,2.07-4.68,3.76-1.15,4.07-3.82,6.54-7.13,8.53a43.6,43.6,0,0,0-6,3.85c-1.64,1.39-3.08,1.06-4.49-.27a7.13,7.13,0,0,0-6.39-2.05c-2.24.35-6.91-3.72-7.4-6.08A6.32,6.32,0,0,0,77,392.7c-0.59-1.22-1-3-1.95-3.45-1.4-.65-1.89,1.49-2.93,2.12-1.75,1.06-3.29,2.43-5.59,2.69-4.88.55-9.71,2.16-14.56,2.13-4.28,0-7.88,1.58-11.79,2.52-3.7.89-7.08,2.56-10.71,3.58-1.32.37-1.89-.47-2.72-0.9-2.67-1.38-3.86-.83-3.84,2.18,0,4-2.8,6.07-5.47,7.91s-4.73,4.37-7.76,5.66c-0.77.33-.53,1.28-0.38,2.07a9.24,9.24,0,0,1-1.17,7.17c-0.46.68-1,1.49-1.71,0.52a12.58,12.58,0,0,1-2.3-4.2C3.8,421.11,4,419.4,6,418.47c1.11-.51.17-1.5-0.16-2.2-1.61-3.49-1.63-3.5,2-4.62,1-.31,1.45-0.88,1.06-1.88A6.31,6.31,0,0,1,8.69,407a1.1,1.1,0,0,1,1.25-1.25c3,0.32,5.58.15,7.29-3,0.43-.79,1.78-1.29,2.66-2.07,1.63-1.45,3.36-2.52,3.33-5.11a1.5,1.5,0,0,1,2.25-.86c1.34,1,2.57.54,3.86,0.15,3.43-1,7.06-.6,10.52-1.48,1.49-.37,2.38-0.49,1.23-2.44-1.7-2.87.5-7.73,4.16-8.65,4.2-1.06,7.34-3.54,10.49-6.17A12.86,12.86,0,0,1,64.16,373a2,2,0,0,1-1.3,1.14c-4.74,1.53-8.1,5-11.78,8.11a6.88,6.88,0,0,1-1.2.92c-3.6,1.84-4.27,3.89,0,6.1a17.13,17.13,0,0,0,1.59.79c1.31,0.52,1.52,1.12.41,2.15-0.53.5-1.79,1-1,2a2,2,0,0,0,2.95.16c1-.81,2-0.75,3.29-0.67a34.11,34.11,0,0,0,12.84-1.94c2.06-.68,2.94-2.42,3.81-4.19,0.34-.7.43-1.83,1.59-1.68s1.19,1.12,1.5,1.88c0.77,1.88.57,4,1.45,5.88,1,2.1,2.19,4,4.42,4.94a2.22,2.22,0,0,0,1.7.34c2.59-1.07,4.46.49,6.19,1.88a4.05,4.05,0,0,0,5.52.11c2.6-1.87,5.1-3.89,7.8-5.61,1.64-1.05,2.33-2.56,3.08-4.18,1.33-2.87,2.34-6,5.89-7.14a2,2,0,0,0,1.22-1.8c0.32-2.29,1.65-4,3.23-5.59,2.61-2.71,4.35-6.13,7.2-8.74,2.41-2.2,5.09-4.18,6.93-7,0.68-1,1.65-.6,2.38.13a4.1,4.1,0,0,1,1.14,3.26c0,0.77,0,2,.81,1.91,3.73-.2,4,3.1,5.39,5.18,2,3.07,3.86,6.16,7.25,8a2.92,2.92,0,0,1,1.75,2.07c0.3,2.39,2.23,2.94,4,3.27a6.93,6.93,0,0,1,3.39,1.41,4.82,4.82,0,0,0,3.2,1.31,5.22,5.22,0,0,1,3.54,1.34,1.48,1.48,0,0,1-.47.55c-7.37,1.09-13.83-.27-18.37-6.83-0.66-1-1.82-1.21-2.8-1.69-1.66-.82-3.52-1.17-5.08-2.25a2.08,2.08,0,0,0-1.69-.29c-1.86.82-3.31,1-3.81-1.52a1,1,0,0,0-1.31-.44c-1,.43-1.1,1.5-1.21,2.36s1.28,2.1-.14,2.93A5.74,5.74,0,0,1,125,382a7.78,7.78,0,0,1-1.47-.38c-2.4-1.19-3.31.64-4,2.19a5.53,5.53,0,0,0,.66,5.54c0.58,0.82,1.37-.07,2-0.29s1.76-.63,2.33.19,0,1.65-.7,2.19c-2,1.45.33,3-.11,4.5-0.21.71,0.07,1.66-.92,1.8s-1-.69-1.13-1.37A19.57,19.57,0,0,1,120.18,394.25Z"/><path class="cls-22" d="M114.6,404.05a8.52,8.52,0,0,1,9.66-2.56c2.5,1.23,5.43,1.67,7,4.55,0.68,1.27,2.41,1,3.75,1,1.53,0,3.06-.08,4.29,1.1a14,14,0,0,1,.87,4.21,7.76,7.76,0,0,0,9,7.06c1.77-.21,3.55-0.23,5.32-0.45a5,5,0,0,1,2.5.27,1.17,1.17,0,0,1,1,1.24,1,1,0,0,1-1.12.83c-1.33,0-2.13.93-3.07,1.62a1.26,1.26,0,0,0-.17.38,1.39,1.39,0,0,1-.86.62,7.46,7.46,0,0,0-2.54,1.13c-4,2.25-7.92,2.49-11.55-.51-2.2-1.82-4.13-1.73-6.19,0a1.93,1.93,0,0,0,.2.58c1.84,1.61,3,3.9,5.29,5.05,3,0.77,5.73-.91,8.62-1.15,1.58,0,2.13.62,1.54,2.21-0.89,2.39-4.47,5.09-7,5.12-2.1,0-2.7-2.06-4.13-3a3.46,3.46,0,0,0-1.24-2c-2.37-2.3-5.56-4.11-5.47-8.11a1.62,1.62,0,0,0-.81-1.24c-0.55-.42-1.14-0.87-0.77-1.67a2.14,2.14,0,0,1,1.89-1.08c1.28-.2,2.36.77,4,0.72a45,45,0,0,0-4.19-4.46c-1.29-1-2.63-1.92-4.38-.81-1.31.82-2,.2-2.41-1.14-0.17-.62-0.19-1.5-1.08-1.52s-1.23.79-1.57,1.47c-0.23.46-.34,1-0.54,1.43-1.22,2.88-2.73,3.52-5.64,2.42-3.17-1.21-3.77-.81-3.48,2.56a5.67,5.67,0,0,1-2.39,5.56c-2.39,1.61-3.79,3.35-2.06,6.23-3.17.85-5.11-.42-6.56-4.27-0.75-2.89-.31-5.33,2.32-7.21,1.34-1,.2-2.63.63-4a10.84,10.84,0,0,1,3.66-5.32C109.52,408.71,113.15,407.54,114.6,404.05Z"/><path class="cls-23" d="M100.32,427.46a2.94,2.94,0,0,1,1.3,1.51,5,5,0,0,0,5.33,2.58,1.31,1.31,0,0,1,1.38.36c3.2,2.17,5.55,2,8.58-.58,1.07-.91,2.28-1.57,3.15.07,0.66,1.23,1.68.31,2.42,0.74a6.57,6.57,0,0,1,.59,6,25.39,25.39,0,0,0-6.71,5.57c-1.56,1.84-2.15,4.2-3.76,6-0.79.88,0.32,1.35,1.06,1.43,1.86,0.2,2.95,1.29,4,2.74a7.8,7.8,0,0,0,7.11,3.57c2.71-.16,5.39-0.19,7.93-1.27a2,2,0,0,1,1.69,1.34,22.63,22.63,0,0,1-8.79,4,3,3,0,0,0-.5,0c-3.58,1.82-6.64.5-9.56-1.59a10.35,10.35,0,0,0-4.22-1.57,45,45,0,0,1-13.81-4.62,11.3,11.3,0,0,1-1.69-1.1,1.84,1.84,0,0,1-1-1.65c0.18-.9,1-1,1.77-1.18A3.62,3.62,0,0,0,99,444.67c-0.63-1.21-1.71-2.48-.17-3.84,0.36-.32.44-1,0.09-1.11-2-.69-2.91-3.44-5.52-2.72-1.71.48-2.51-.68-3.24-1.83a5.13,5.13,0,0,1-.36-4.17,1,1,0,0,1,.84-0.34,5.84,5.84,0,0,1,1.21.36C97.74,432.76,97.74,432.76,100.32,427.46Z"/><path class="cls-24" d="M240.89,201.87c1.8,1.27,3.78,2.43,3.56,5.11,0.67,1-.19,1.55-0.53,2.27-0.62,1.25-.83,2.7-2.35,4,1.59-.06,3.08-0.81,3.26,1.11-2.64,5.44-4.5,11.19-6.57,16.85a1.83,1.83,0,0,1-.56.52c-3.31.48-4.3,2.6-4.42,5.7a23.73,23.73,0,0,1-4.74,13.88,8.64,8.64,0,0,0-1.41,3,5,5,0,0,1-3.33,3.54,3.41,3.41,0,0,0-2.22,1.57c-0.6,1.23-1.69,1.52-2.81,2.13a7.88,7.88,0,0,0-4.1,5.39c-0.74,4.29-3.76,7.31-5.59,11-0.46.92-1.28,0.64-2,.16-1.21-.86-1.85-0.2-2.36.84a8.35,8.35,0,0,0-.78,1.87c-0.85,4-3,7.31-5.53,10.45a106.87,106.87,0,0,1-10.14,9.94c-2.24,2-5.07,3.36-6.69,6-1.19,2-2.34,3.73-5,4.22-1.61.3-2.18,2.2-2.87,3.68s-0.73,3.19-2.34,4.06c-0.73-.09-1.24-0.69-2.23-0.12-1.69,1-2.55.35-2.81-1.67a4.59,4.59,0,0,0-1-2.76c-0.37-1.2.54-1.66,1.3-2.16a16.06,16.06,0,0,0,2.29-1.59,36.72,36.72,0,0,0,2.57-2.75c1-1.32,2-2.85,4.28-1.47,1.25,0.75,2.89-.34,3.88-1.33,4.49-4.53,9.38-8.62,14-13,4.2-3.94,8-8.22,9.57-14.18,0.38-1.5,1.08-3.7,3.06-4.61a2.2,2.2,0,0,0,1.2-1.86,5.12,5.12,0,0,1,2-3.4,8,8,0,0,0,2.3-4.82,10.83,10.83,0,0,1,4.24-6.76c3-2.31,6.72-3.49,8.95-7.09a29,29,0,0,0,3.41-6.45c0.32-1,1-2-.06-3.07a0.94,0.94,0,0,1-.08-0.91c2-2.07.72-4-.18-6a1.36,1.36,0,0,1,.15-1.81c2.18-2.18,4.27-4.45,6.47-6.62,3-2.92,3.49-6.62,3.58-10.49,0-.93-0.32-2,0-2.76C239.85,208.43,239.52,204.94,240.89,201.87Z"/><path class="cls-25" d="M169.08,310.87c-0.09,2.3-3,1.71-3.58,3.53a2.76,2.76,0,0,1-1.14,1.63,4.15,4.15,0,0,1-.57.38,2.36,2.36,0,0,0-1.3,2.26,2.5,2.5,0,0,1-.38,1,38.71,38.71,0,0,0-5.34,7.79c-1.17,1.64-2.1,3.47-4,4.47a4.36,4.36,0,0,0-1.58,2.26c-0.47,1-1.12,1.84-2.34,1.45-1.46-.47-0.81-1.6-0.62-2.56a1.58,1.58,0,0,0-.18-1.75c-1.87,2.07-4.85,2.32-6.79,4.38a4,4,0,0,1-4.41,1.11,1,1,0,0,1-.61-1.71c0.65-.77,1.58-1.23,2.23-2a5.09,5.09,0,0,0,.28-6.5c-1-1.51-2.52-1.67-5.2-.54a15.57,15.57,0,0,1-2.12.79c-2.69.7-2.68,2.94-2.73,5-0.06,2.55-.3,2.87-3.08,3-1.64-1.64-4-1.69-5.93-2.57,0.59-2.29,2.92-3.77,2.86-6.6,2.09,1,2.09,2.94,2.45,4.6,0.08,0.38-.11.9,0.31,1.1,0.66,0.31.77-.38,1.1-0.72a6.75,6.75,0,0,0,1.23-3c1.29-4.31,5-6.42,8.2-9,1.34-1.07,2.49-2.89,4.83-1.92,0.66,0.27.79-.85,1-1.48a1.69,1.69,0,0,1,2.24-1c0.91,0.41.63,1.44,0.08,2.15-1.47,1.91-1.15,4.29-1.46,6.43-0.19,1.31,1.86,1.71,2.85,2.59,0.72,0.63,1.23-.42,1.85-0.69a7.35,7.35,0,0,0,4.49-6.25c0.06-.41.46-1.5,1.35-1.18s0.2,1.18.21,1.78a3.9,3.9,0,0,1-.31,1.22,2,2,0,0,0,.8,2.46,1.53,1.53,0,0,0,1.9.13c0.76-.57,1.92-1,1.42-2.36a1.93,1.93,0,0,1,.57-2.31c3.05-1.75,4.25-5.2,7-7.28C166.35,309.54,167.62,311.31,169.08,310.87Z"/><path class="cls-26" d="M137,433.07a2.4,2.4,0,0,1,2.08,1.2c1,2.08,2.25,1.63,3.88.8,1.92-1,3.89-1.49,4.68-4.05,0.51-1.65-.18-1.44-1.09-1.58,1.39-2.37,3.64-3,6.17-3,1.18,0.47,2.48-1.42,3.65.25,1.3,1.86,1.09,3.55-.1,5.36-1.73,2.63-2.62,5.64-3.65,8.57,0.07,3-2.09,5-3.21,7.53a21.5,21.5,0,0,1-2.77,4.19c-0.71.92-1.4,2.23-3,1.63,0-1,3.18-2.14,0-3.15-0.57-1.59.78-3.18-.2-4.88a9.65,9.65,0,0,0-6.88-5.09,8.2,8.2,0,0,1-5.73-4.19,3.47,3.47,0,0,1,.28-4.64,1.87,1.87,0,0,1,2.29.5C134.48,433.58,135.57,434.35,137,433.07Z"/><path class="cls-27" d="M131.38,432.08a6,6,0,0,0,4.87,8.11,10.08,10.08,0,0,1,7.62,5.23,4.84,4.84,0,0,1-.29,5.45c-2.68,2.74-6.24,4.26-9.17,6.65-0.77.05-1-.73-1.5-1,0.15-2.48,2.33-3.76,3.41-5.71,1.58-2.86,1.23-3.92-2-4.31a5.64,5.64,0,0,1-4.14-2.09c-0.81-1.06-2.06-1.4-3.19-2-1.9-.92-3.83-1.85-4.22-4.27a13.65,13.65,0,0,0-.52-6.08c0.48-.88,1.87-1.06,1.62-2.61-0.13-.81,1.15-1,2-1C128.51,428.37,130.05,430.07,131.38,432.08Z"/><path class="cls-28" d="M145.63,466.74c-0.86.63-1.7,0-2.55,0-1.94.16-2.34,2.17-3.65,3.15-0.94.7,0.59,1.43,1.07,2.11,0.82,1.17,2.92,1.82,1.56,3.87a4.5,4.5,0,0,0-1.65-2.8c-2-1.35-2.24-4.17-4.44-5.35-1.35-1-2.45-2.12-1.34-4.05-2,.89-3.94,1.62-5.79,2.54a3.31,3.31,0,0,0-2,.52c-0.34-.65-0.93-1.3-1.59-0.87-2.28,1.51-4.78.84-7.16,0.8-3.14-.05-6.23.73-9.33,0.53a12.07,12.07,0,0,1-9.25-5.31c-0.33-.45-0.35-1-1.09-1.25-4.37-1.18-5.74-5-7.39-8.55a3.1,3.1,0,0,1,.23-0.94c1.57,1.76,3.9,2.23,5.17,3.88,2.67,3.48,6.43,4.14,10.3,4.51a16.5,16.5,0,0,1,9.36,4.2,1.32,1.32,0,0,1-1,.34,1.29,1.29,0,0,1-.49-0.1,32.8,32.8,0,0,0-11.72-3.75c-2.78-.37-5.64-1.17-7.38-3.88a4.22,4.22,0,0,0,3.26,2.86c2.68,0.37,3.77,1.92,4.12,4.34,1.14,0.87,2.75.88,3.72,2l0.61,0.33a5.16,5.16,0,0,0,4.28-.66c1.23-.91,2.57-0.22,3.86-0.24,9,0.57,17-2.09,24.26-7.18a16.72,16.72,0,0,1,5.2-2.87c2.3-.09,2.54.15,2.2,2.27a4.2,4.2,0,0,1-.55,1.92,5.76,5.76,0,0,0-.61,5.73A1.74,1.74,0,0,1,145.63,466.74Z"/><path class="cls-29" d="M119.66,332.24c2.32-.14,4.63-0.25,6.13,2a2.48,2.48,0,0,1,.42.64,2.76,2.76,0,0,1,0,1.49,4.12,4.12,0,0,1-1.27,1.85c-0.72.65-1.45,1.79-2.53,1.16s-0.73-1.88-.38-3c-0.59,1.72-1.53,2.67-3.55,2.32-1.71-.3-1.87,1.42-2.31,2.5-0.61,1.48-1,3.06-2.48,4a1.26,1.26,0,0,1-1.15.31l1.53-5.09C116.48,338.05,117.3,334.62,119.66,332.24Z"/><path class="cls-30" d="M115.1,463.61l1,0.09c4.39,1.79,8.43-.05,12.48-1.31a37,37,0,0,0,11.92-6.47,4.68,4.68,0,0,1,2.61-1.41c0.28,1.12-.62,1.42-1.3,1.87s-1.57.69-1.72,1.69c-2.61,2.64-6,4.08-9.34,5.26a36.68,36.68,0,0,1-15.59,2.32,0.66,0.66,0,0,1-.31-0.51A2.32,2.32,0,0,1,115.1,463.61Z"/><path class="cls-31" d="M140.07,458.06c-0.53-.19-1-0.33-0.21-0.89,1.13-.82,2.55-1.3,3.23-2.67l0.54-.48c3.14-1,3.65-4.14,5.23-6.36a59.32,59.32,0,0,0,3.77-7,1.16,1.16,0,0,1,.71,1.07l-1.09,3.14c0.34,1.5-.59,2.6-1.34,3.67-1,1.46-1.87,3-2.87,4.47a7,7,0,0,1-3.41,2.46C143.23,456.56,141.35,456.79,140.07,458.06Z"/><path class="cls-32" d="M228.22,225.77a4.11,4.11,0,0,1-3.47-2.3,1.65,1.65,0,0,1,.6-2.24c0.72-.54,1.52-0.86,2.22,0,0.44,0.56.82,1.11,1.65,0.62,1.84-1.1,2.54.45,2.87,1.59,0.47,1.64-.88,1.88-2.18,2A11.11,11.11,0,0,0,228.22,225.77Z"/><path class="cls-33" d="M156.52,305.88c-1.22-.73-2.07-0.36-2.79.89-0.37.64-1.15,0.52-1.83,0.24a1.2,1.2,0,0,1-.74-1.43,1.84,1.84,0,0,1,1.17-1.79,44.09,44.09,0,0,1,5-1.06,1.26,1.26,0,0,1,1.5,1.31C158.82,305.43,157.71,305.69,156.52,305.88Z"/><path class="cls-34" d="M149.36,315c-0.85.07-1.69,0-1.64-1.23,0.05-1.43,1.17-1.1,2-1.18s1.64-.16,1.6,1S150.46,315,149.36,315Z"/><path class="cls-35" d="M158.4,308.62c-0.89.09-1.87,0.22-1.75-.89,0.18-1.66,1.73-.83,2.64-1.14,0.71-.24,1.69-0.3,1.67.82C160.93,309.51,159.07,308,158.4,308.62Z"/><path class="cls-36" d="M103.59,406.71c-0.64,0-1.23-.19-1.14-1a1,1,0,0,1,1.31-.85c0.63,0,1.24.17,1.15,1A1.07,1.07,0,0,1,103.59,406.71Z"/><path d="M128.84,466.17c1.31-2.3,4.48-1.67,6-3.76,0.25-.35,1.19.44,0.86,0.71-2.1,1.73-.15,3.08.29,4.56,0.11,0.4.2,0.8,0.33,1.19,0.2,0.6.26,1.24-.42,1.48a1,1,0,0,1-1.25-.92C133.95,466.08,131.37,466.2,128.84,466.17Z"/><path class="cls-37" d="M265.84,199.78l-1-1.48c-1.21-.12-2.4-0.28-3.05-1.52-0.59-.67-1.44-1.06-1.68-2.12s-1.34-1.45-2.28-1.85-2.21.8-2.81-.86-1.21-3.34-.69-5.17a4.8,4.8,0,0,1,.26-0.72c1.93-4.11,1.58-8.47,1.29-12.8a3.39,3.39,0,0,1,.59-2.4c1.81-2.05,1.81-5,3.53-7,0.49-.59.07-1.27-0.08-1.93-0.33-1.47-1-2.94-.64-4.47,0.22-.92.26-2.47,2-1.38a1.08,1.08,0,0,1,.66,1.27,6.53,6.53,0,0,0-.28,5.16,4.38,4.38,0,0,1-.41,3.92,8.68,8.68,0,0,0-1,3.9,2.58,2.58,0,0,0,1.79,3,3.29,3.29,0,0,1,2.53,3.39c-0.06,2.2,1.23,2.92,3.14,3.19,1.58,0.22,3.22.39,4.13,2.06,1,1.9.55,3-1.56,3.36-1.09.16-2.1,0.35-2.11,1.68a4.13,4.13,0,0,0,1.67,3.79c1.22,0.7,1.61-.78,1.66-1.54,0.14-2.41,1.26-4.51,1.82-6.78a3.48,3.48,0,0,1,2.6-2.75c2.92-.94,3.94-2.83,3.29-5.82-0.14-.66-0.45-1.28-0.54-2a2.33,2.33,0,0,1,1.37-2.72c1.29-.52,1.85.44,2.24,1.43s1.14,1.68,1.57,2.6c0.26,0.89-.1,1.84.32,2.73,1,2.11.38,3.92-1.12,5.53-2.64.84-2.64,0.84-2.35,3.38-1.85,3-1.34,6,1.64,7.51,2.14,1.08,4.25,2,5,4.59,1.26-1,1-2.27,1.59-3.18s1.15-1.57,2.23-1.35,1.17,1.3,1.2,2.23a6.73,6.73,0,0,1-1.07,3.62,36.28,36.28,0,0,0-2.68,5.17c-0.81,2.07-3.27,1.88-4.82,3a2.32,2.32,0,0,0-1.5,2.32c-0.21,3.47-.25,3.46-3.76,4.27-0.91.1-2,.44-2.47-0.61-0.34-.78.51-1.35,1-1.87a5.29,5.29,0,0,0,1.39-2.38,3.59,3.59,0,0,1,1.42-2.34c1.92-1,2.49-2.7,2.87-4.73,0.65-3.45-1.33-7.6-4.54-8.88-0.33-.13-0.81-0.3-0.93,0-0.66,1.51-3,2.32-2.42,4.18,1,3.36-.09,6.6-0.64,9.7s0,6.41-.85,9.75a3,3,0,0,0,.49-1.83c0.28-1.21.59-2.33,2.11-1,0.75,0.64,1.8.43,2.61,0.9,1.28,0.79,2.77.7,4.15,1s1.75,0.84.74,2.24c-2.44,3.39-6.16,4.79-9.62,6.61a3.24,3.24,0,0,1-2.47.2c-0.81-.86-0.62-2.09-1.08-3.08a1.31,1.31,0,0,0-1-1.06,1.17,1.17,0,0,0-1.16,1.14,6.25,6.25,0,0,1-1.92,4c-0.35.37-.57,0.83-0.94,1.18a1.46,1.46,0,0,1-1.82.39c-0.73-.42-0.58-1.13-0.42-1.8a8.94,8.94,0,0,1,1.15-2.23,6.17,6.17,0,0,0,.32-6c-1.54-1.41-3.25-.72-4.3.31a43.36,43.36,0,0,1-8.63,6.14c-1.38.81-1.74,1.72-.84,3.08,0.14,0.21.18,0.48,0.33,0.68,3.33,4.74,2.52,9.9,1.57,15.08-0.35.78-.38,1.84-1.62,1.82-1.64-1.77-1.11-4.05-1.07-6a26.94,26.94,0,0,0-1.76-9.94,2.83,2.83,0,0,0-3.89-1.76c-1.82.72-1.76,1.87-1,3.47,0.92,2-.87,5.1-3.19,5.71a4.07,4.07,0,0,0-2.9,1.83,15.61,15.61,0,0,0-1.42,4.75c-0.42,2.73-.78,5.61-3.62,7.18a2.37,2.37,0,0,1-.22-2.61,23.26,23.26,0,0,0,1.41-6.89c0.13-3.38,2-5.78,4.44-7.88h0c0.91-.89.85-2.16,1.3-3.22,1-2.39,1.91-4.88,3.9-6.72a3.58,3.58,0,0,0,.84-2.08c1-4.64,2.74-9.06,3.9-13.66a3.17,3.17,0,0,1,.73-1.32c-0.18-.65-0.34-1.31-0.55-1.95-0.41-1.28-1.07-2.54,1.37-2.22,1.32,0.17,2.21-1.84,4-1a6.34,6.34,0,0,1-.83-3c-0.11-.67-0.16-1.21.6-1.4a1,1,0,0,1,1.37.81c0.08,1.17,1,2,1.18,3a3.49,3.49,0,0,0,2.2,2.83c1.49,0.62,2.28,2.12,2.95,3.39,0.86,1.64-1.06,2.13-2,2.93a2.57,2.57,0,0,1-1.24.15c-0.73.07-1.8-.25-2,0.63s0.92,1.29,1.42,1.95a1.28,1.28,0,0,0,2,.36,13.56,13.56,0,0,0,2.25-1.64,2.9,2.9,0,0,1,3.35-.91c1.17,0.33,3.2.59,1.66-1.87a1.31,1.31,0,0,1,.66-2.07c1.52,0.87,1.86,2.67,3.1,3.84-0.77-1.81-1.46-3.52-.51-5.5,0.39-.82-0.53-1.29-1.2-1.66S266.4,200.64,265.84,199.78Z"/><path class="cls-38" d="M283.64,173.36a4,4,0,0,1-2-2.21c-0.21-.78-0.12-2-1.37-1.57a1.79,1.79,0,0,0-1,2.74,6.85,6.85,0,0,1,.43,4.9,3.72,3.72,0,0,1-3.69,3.15c-1.61.17-1.69,1.16-2.22,2.43-1.15,2.76-1.16,5.79-2.39,8.48-0.65,1.42-1.68,1.18-2.32.2a8.91,8.91,0,0,1-1.81-4.41c-0.09-1.78.74-2.44,2.38-2.53,0.73,0,1.95.84,2.07-.52a2.71,2.71,0,0,0-1.81-3,22.94,22.94,0,0,0-3-.55c-2.06-.36-3.62-1.18-3.1-3.67a2.33,2.33,0,0,0-1.36-2.72c-3.33-1.76-4.14-3.43-2.46-6.85,1-2.13,1.47-3.85.37-6.15a3.43,3.43,0,0,1,1.3-4c1.15-1.77,2.45-2.35,4.31-.83,1.39,1.13,1.85.43,1.72-1.1a4,4,0,0,1,.34-2.45c0.8-1.32,1.35-.76,1.79.3l0.5,1.54a8.49,8.49,0,0,0,4.92,1.69,43.71,43.71,0,0,1,5.84,1.46c2.9,0.73,4.55,3.5,4,6.69-0.38,2.39-1.24,4.68-.49,7.17A1.26,1.26,0,0,1,283.64,173.36Z"/><path class="cls-39" d="M280.57,136.68c2.89,1.15,5.24.06,7.49-1.71,1.47-1.15.75-3.3,2.19-4.41,2.07-.69,3.59.4,5.1,1.55h0c2.73,0.87,3.73,3.33,4.78,5.58,0.81,1.73-.62,2.88-1.91,3.69-3.49,2.18-7,1.73-10.53-.08-1-1.33-2.17-1.26-3.46-.55-0.85.47-1.58,1.21-2.66,1.13-1.21-.42-2.23-0.78-1.2-2.46C280.8,138.72,280.53,137.6,280.57,136.68Z"/><path class="cls-40" d="M248.5,204.42c0,2.67-1,5.14-1.84,7.56a69.66,69.66,0,0,0-2.24,8.51,2,2,0,0,1-.45,1.11c-2.73,2.07-3.72,5.1-4.67,8.17a2.71,2.71,0,0,1-1.47,1.64c0.6-5,3.81-9.07,4.58-14,0.22-1.4,2-1.82,2-3.35-0.58-1.65-2.14-3.09-1-5.08,0.29-.7,1.11-1.14,1-2,1.71-.34,2.64-0.93,1.23-2.76-0.61-.79-1.29-1.82-0.24-2.87C245.54,203.3,246.21,204.67,248.5,204.42Z"/><path class="cls-41" d="M258.4,139.87c0.64-1.67-.48-1.63-1.56-1.65-1.32,0-2.45-.14-1.83-2,0.32-1-.61-1.51-1.19-2.08a3,3,0,0,1-1.22-2.64c0.07-.48-0.09-1.13.62-1.17a1,1,0,0,1,.82.84,6.58,6.58,0,0,0,6.89,3.33c0.54-.08,1.31-0.66,1.53.09,0.27,0.91-.66,1-1.32,1.09-2,.39-2.41,1.12-1,2.86,1.1,1.32,2,2.66,3.81,3.11a4.08,4.08,0,0,1,2,1.55,1,1,0,0,1,.22,1.17c-0.28.47-.72,0.24-1.11,0.07a3.2,3.2,0,0,0-2.17-.43C258.81,145,258.77,144.46,258.4,139.87Z"/><path class="cls-42" d="M261.76,196.78c1,0.62,2.29.5,3.05,1.52-0.8,1.46-2.31,2.83,0,4.44,0.73,0.51-.08,1-0.68,1.13a2.37,2.37,0,0,1-2.32-.7c-1.89-2-4.39-3.43-5.94-5.83-0.64-1-1-1.79.22-2.53s2.25-.94,3.17.27C259.89,195.95,260.36,197,261.76,196.78Z"/><path class="cls-43" d="M269.9,153c-0.48-.21-1-1.37-1.41,0-0.21.7,0,1.53-.15,2.26s0.84,2-.19,2.56-2-.47-2.4-0.92c-1.58-1.8-2.73-.73-4,0.2l-0.51-1c1.9-.58,3.29-1.46,3.1-3.84s1.94-1.82,3.1-2C269.18,150,269.85,151.36,269.9,153Z"/><path class="cls-44" d="M265.84,199.78a8,8,0,0,1,3.32,1.08c1.05,0.65,1.69,1.43.84,2.67s-1,2.27.37,3.26a1.74,1.74,0,0,1-.61,2.85c-1.13,0-.69-1.11-1-1.73-0.55-1.22-1.7-2.1-2-3.49-0.88-1-1.1-2.31-2-3.35S265.17,200,265.84,199.78Z"/><path class="cls-43" d="M271.44,145.34c2,0.48,2.19,2.79,3.78,3.77,0.63,0.39.15,1.25-.75,1.31s-1.68,0-2.52,0C268.48,149.06,271.34,147.06,271.44,145.34Z"/><path class="cls-37" d="M249.7,195.94c-0.36-1.47,0-3-.6-4.45a0.73,0.73,0,0,1,.36-1,1.77,1.77,0,0,1,1.15.29C252.32,191.75,251.86,194.49,249.7,195.94Z"/><path class="cls-43" d="M261,150c1-.39.35-2.43,2.06-1.85a1,1,0,0,1,.61,1.42C263.08,150.69,262.09,150.52,261,150Z"/><path class="cls-45" d="M245,115.8a7.21,7.21,0,0,1-6-3,11.26,11.26,0,0,1,4-1.63,13.56,13.56,0,0,1,2.53.05c3.72,0.76,5.84-1,7-4.3,0.15-.43.17-1.28,0.79-1.09,3.65,1.13,1.88-1.66,2.08-3.27,1.5,1.16,2.67,2.58,4.5.69,0.8-.83,1.53.47,1.95,1.31-0.58.1-1.33-.6-1.73,0.41-0.22.55-.42,0.85-1.28,0.55a2.17,2.17,0,0,0-3,2.39c0.21,1.21-1.66,3.32,1.44,3.68,1.57,0.19,2.92,1.35,4.68.21s4.17,0,6.3-.86c0.83-.33.84,1.4,0.2,2.3l0,0c-1.21-1.1-2.41-.26-3.57.06-1.77.48-3.42,1.53-5.4,0.94-0.91-.27-1.37.45-1.76,1.14a1.25,1.25,0,0,1-1.47.72,1.14,1.14,0,0,1-.88-1.37c0.31-2.18-.89-2.14-2.45-1.83-2,.38-4.24-0.18-5.28,2.43C247.13,116.32,245.76,115.2,245,115.8Z"/><path class="cls-46" d="M240.35,172.83l0.51,0.07a14.26,14.26,0,0,0,4.56,3.49c0.64,0.34,1.59.49,1.42,1.51a2.52,2.52,0,0,1-1.49,2.2,1.89,1.89,0,0,1-2.16-1c-1.23-3.78-4.4-4.24-7.59-4.75-0.56-.09-1.34,0-1.18-0.91a0.91,0.91,0,0,1,1.44-.48C237.42,173.72,238.86,172.72,240.35,172.83Z"/><path class="cls-47" d="M259.7,72.53c0.19,2.79,2.75,1,3.88,2.24a9.2,9.2,0,0,0-1.85,6.62,1.84,1.84,0,0,1-1.05,1.81c-2.75,1.83-2.8,2.37-.64,4.68a2.15,2.15,0,0,1,.57,2.33,5,5,0,0,0,.11,3.19c-1.87-2.06-3.25-.63-4.5.74s-2.06,3.34-4.74,2.94c-1.8-.27-3.77.67-5.52-0.58-1.51-1-.66-1.9.18-2.64,2.95-2.56,5-5.91,8-8.44a11.62,11.62,0,0,0,3.26-5.08,6.91,6.91,0,0,1,.71-1.35c1.37-2.16,1.39-2.44.35-4.47a0.52,0.52,0,0,1,.17-0.46h0C259.36,73.77,258.4,72.37,259.7,72.53Z"/><path class="cls-48" d="M258.67,74c1.27,1.41,1,3,.14,5-2.65,6.46-8.14,10.51-12.63,15.4a1.51,1.51,0,0,0-.22,2c-0.84,1.57-2.33.81-3.55,1-0.39-1.55.75-2.46,1.5-3.53a116.91,116.91,0,0,0,10.42-9.71c1.95-2.08,2.56-4.81,3.34-7.43C258,75.87,257.92,74.82,258.67,74Z"/><path class="cls-48" d="M259.7,72.53l-1,1.5a44.53,44.53,0,0,0-.34-5.77c-0.33-2,1.31-3.63,1.91-5.5a13.49,13.49,0,0,0,.33-5.21c-1.28.16-1.11,1.45-1.91,1.69a1.09,1.09,0,0,1,0-1.47q0-.23.07-0.46c0.93-.55.42-2.53,1.8-2.32,1.64,0.25,1.35,2,1.8,3.2,0.81,2.23,1.56,4.25-.48,6.17C263,67.59,260.76,69.9,259.7,72.53Z"/><path class="cls-49" d="M177.21,401.48a57.12,57.12,0,0,0-8.64,4.61c-1.79,1.18-4.3,1.3-6.25,2.52a29.58,29.58,0,0,0-3.14,2.09c-0.7.57-1.47,1.38-1,2.38a3,3,0,0,0,2.12,1.66c4.16,1,7.94-.15,11.64-1.91a21.63,21.63,0,0,1,6.63-1.48,2.77,2.77,0,0,1,3.15,2.37c0.3,1.63-.66,2.48-2,3.11-1.7.79-3.93,0.58-5,2.6a1,1,0,0,1-.09.26c-1,1-2,.17-2.86-0.26a2.81,2.81,0,0,0-2.78-.12c-3,1.93-6.62,1.91-9.7,3.49a1.19,1.19,0,0,1-1,.06c-1.56-2.34-3,0-4.47.08,0.64-1.75,2.37-1.89,3.83-2.58-2.67-1.21-5.38-.6-8-0.2-3.22.49-8.7-1.58-9.74-4.53-0.82-2.31-.67-5-0.95-7.46a10.21,10.21,0,0,1,7.69-1.09c4.46,1,8.7,1.3,12.84-1,1.37-.75,3-0.49,4.41-1l2.18-1.6c2.18-2.76,5.28-3.56,8.55-4C175.89,399.64,177,400,177.21,401.48Z"/><path class="cls-50" d="M152.72,426.48c-2.1.9-4.35,1.48-6.17,3-3,.63-5.83,2.49-9.06,1.09a75.4,75.4,0,0,0-5.49-5.7l0,0c0.27-1.88,1.6-1.27,2.6-1a11.86,11.86,0,0,1,3.8,2.41c0.45,0.35,1,1.05,1.5.66,1.56-1.28,3.27-.55,4.85-0.42,3.25,0.26,5.43-1.85,8-3.14l0.88-.05c0.73,0.16,1.49.42,0.61,1.24A6.69,6.69,0,0,0,152.72,426.48Z"/><path class="cls-51" d="M169,419.3c1-.87,2-1.24,3.3-0.25a6.47,6.47,0,0,0,2.33.63c-1.84,2.22-2.92,2.19-4.28,0A2.71,2.71,0,0,0,169,419.3Z"/><path class="cls-52" d="M147.5,452.89l4.74-8c0.33-.26.67-0.5,1-0.78s0.68-.86,1.23-0.32a1,1,0,0,1,.18,1.18c-1.33,2.29-1,4.88-1.47,7.32s-2.36,4.33-4,6.23C147.81,456.9,147.72,454.87,147.5,452.89Z"/><path class="cls-53" d="M147.5,452.89l0.91,0.37c-0.82,1.92,1.08,3.43.8,5.27l-0.51.51a7.58,7.58,0,0,1-1.35,1.44,3.92,3.92,0,0,0-.72,5.16l1,1.59c0.26,2.12,1.64,3.11,3.57,3.55,1.34,1.37,1.08,2.69-.16,3.94-0.8.81-1.11,1.52,0.16,2.14a1.66,1.66,0,0,1-2.44.16c-0.91-1,.5-1.29.89-1.88a0.76,0.76,0,0,0,0-1.08,3.76,3.76,0,0,0-.52-2.84c-2.26-.64-3.77-1.88-3.57-4.48-0.39-1.88-1.29-3.66-1-5.68,0.2-1.44,1.42-2.3,1.72-3.83,0.4-2.06-.27-2-1.72-1.75Z"/><path class="cls-54" d="M146.63,465.64c-2-3.28-1.53-4.73,2.07-6.6-0.41,1.59-.58,3.27-2.06,4.39C145.77,464.08,147.06,464.9,146.63,465.64Z"/><path class="cls-55" d="M149.2,471.22c2.16,0.58,1.72,1.64.52,2.84C147.68,473.18,147.58,472.59,149.2,471.22Z"/><path class="cls-56" d="M233.68,321c-0.49.65-1.09,0.62-1.38-.05-0.41-.95-0.9-1.11-1.74-0.62s-1.57.73-1.09,1.89a1.68,1.68,0,0,1-.8,2.36,0.47,0.47,0,0,1-.63,0c-0.16-.85.26-2-0.92-2.37-1-.33-1.27.6-1.78,1.09a5.8,5.8,0,0,1-2.63,1.38c-0.67.18-1.55,0.17-1.62,1.39,1.39-.36,2.69-1.79,4.1-0.33a10.16,10.16,0,0,0-4.22,6.55c-0.23,1.29-1.51,1.93-2.55,2.7-2.1,1.54-4.36,3-5.12,5.75-0.09.32,0.16,0.11-.09,0.21-2.71,1.14-3.15,3.92-4.49,6.06a2.7,2.7,0,0,1-2.56,1.43c-2.61-.55-4.42.92-6.21,2.25-2.29,1.7-4.58,3.48-5.94,6.13-1.13,2.19-3.23,3.43-5,4.94a6.9,6.9,0,0,0-1.37,1.11c-1.25,1.76-2.57,2.41-4.33.59-0.73-.76-1.32-0.17-1.92.41-5.11,5-14.77,6.2-21,2.6a3.7,3.7,0,0,0-4.25.12c-3.39,2.1-6.41.64-6.76-3.35a37.42,37.42,0,0,0-2.56-10.32,4.69,4.69,0,0,0-2.29-2.89c-1.42-.69-1.71-1.8-0.78-3.13s2.53-1.77,3.71-.73a27.31,27.31,0,0,0,3.89,3c-0.49-3.8-.13-7.32-0.19-10.83a5.72,5.72,0,0,1,1-3.83c2.35-3,5.12-5.64,7.53-8.59a1.13,1.13,0,0,1,1.16-.35c0.6,2.29-.94,3.87-2.08,5.41a13.23,13.23,0,0,0-2.38,6.06,3.85,3.85,0,0,0,1.19,3.91,5.17,5.17,0,0,1,1.4,2.92c1,3.79,2.35,4.94,6.14,5.07,1.92,0.07,3.22.45,3.27,2.84,0,2.1,1.11,2.74,3.18,2.42a23.81,23.81,0,0,1,2.53-.17c2.59-.12,3.44-0.85,3.94-3.38a7.18,7.18,0,0,1,7.3-5.4,9.68,9.68,0,0,0-3.5-4.52c-0.76-.52-1.87-1.11-1.57-2.09,0.36-1.18,1.72-1,2.66-.85,2.81,0.46,5.36-.53,8-1.24a10.28,10.28,0,0,0,7.46-7.58,15.27,15.27,0,0,1,1.48-4.77,0.79,0.79,0,0,1,.9-0.3c2.09,1.59,3.7.32,5.48-.73,2.87-1.69,5.43-3.78,8.88-4.68,2.32-.6,3.77-3.26,4.17-6a5.51,5.51,0,0,1,1-2.84,1.51,1.51,0,0,1,1.69-.82,1.32,1.32,0,0,1,.67,1.72,28.7,28.7,0,0,1-2,6.52c-0.33.71-1,1.39-.54,2.37,0.85-.64.73-1.7,1.24-2.44s1-1.51,2-1.29a1.62,1.62,0,0,1,1.17,2c1.5,1.47,4.14,1.6,5.2.18,0.53-.7,1-1.43,2-1.24s1.06,1.17,1.35,1.94S233.33,320.26,233.68,321Z"/><path class="cls-57" d="M125.81,334.81l0-.53c1.9,0.11,2.72-.34,2.18-2.61-0.62-2.58.93-4.69,3.4-5.53,0.34,0.77-.27,1.23-0.6,1.77-1.89,3-1.75,4.16.79,6.68a1.91,1.91,0,0,1,.52.83c-0.68,3.1-2.84,4.49-5.74,5.3-3.39.94-4.09,2.14-3.94,5.6,0.07,1.69,1.17,3.88-2.1,3.91-0.67,0-.45,1.16-0.47,1.8-0.06,1.75-.48,3.13-2.55,3.46-1.37.22-1.25,2.19-2.61,2.54a3.28,3.28,0,0,0-.7.78c-0.54,1.08-.11,1.69.88,2.23s1.5-.16,2-0.86a2.49,2.49,0,0,1,1.53-1.27c2.18-.27,3.5-1.85,5.17-3,3-2,4.12-5,4.77-8.27a3.09,3.09,0,0,1,2.41-2.61c2.61-.74,5.29-1.18,7.89-1.94a1.68,1.68,0,0,1,1.69.22c0.71,0.68,0,1.24-.31,1.77a2.3,2.3,0,0,0,0,2.41,31.34,31.34,0,0,0,7.18,10.37,5.2,5.2,0,0,1,2,4.9,7.38,7.38,0,0,0,.13,2.53c0.45,2.16,1.56,3.06,3.78,2.85,1.6-.15,3.2-0.32,4.78-0.6a5.07,5.07,0,0,1,4,1.22,1.88,1.88,0,0,1,.89,2.19,1.8,1.8,0,0,1-1.95,1.33,3.6,3.6,0,0,0-3.84,1.86,1.6,1.6,0,0,1-.79.62c-3.38,1.46-8.59-.76-9.86-4.19-0.29-.8-0.45-1.63-0.73-2.59-0.36.68,0.14,1.48-.48,2-3.57-2.35-5-5.47-3.67-9.71a2.55,2.55,0,0,0-.88-3.17c-1-.66-1.41.5-2.07,0.9-0.83.51-.93,2.21-2.5,1.53s-0.88-2.15-1.07-3.31c-0.54-.69-0.19-1.47-0.22-2.21-0.06-1.9-.83-2.44-2.61-1.7-2.19.91-4,2.3-4.68,4.69a11.1,11.1,0,0,1-3.83,5.55,32.74,32.74,0,0,0-6.22,7.29,15.33,15.33,0,0,1-5.47,5.18,8.38,8.38,0,0,0-4.31,5.68,29.21,29.21,0,0,1-1,3.16c-1.19,3.22-2,3.62-5.38,3.54-2.58-.06-4.79,1.57-7.31,2a26.21,26.21,0,0,0-4.42,1.16c-4.09,1.44-8.72-1.78-10.23-5.86-0.65-1.76.21-3,2.21-3.48a8,8,0,0,1,3.75.41c0.71,0.18,1.78.46,1.65-.77-0.32-2.87,0-6-2.44-8.24-0.88-.83-1.64-1.76-3.06-1.1a1,1,0,0,1-1.55-.28,1.4,1.4,0,0,1,.44-1.62c2.15-2.28,4.15-4.73,6.81-6.45,1.2-.78,2.25-1.83,3.68-2.22a2.2,2.2,0,0,1,2.38.35c0.72,0.78.28,1.58-.18,2.32a7.33,7.33,0,0,1-1,1.48c-3,2.93-2.88,6.63-2.6,10.36,0.18,2.38,1.39,3.1,3.57,2,1.13-.56,2.6-0.61,3.52-1.94-1.29-.24-1.83.74-2.66,1-1.81.66-2.58,0.27-2.77-1.62-0.31-3.18-.12-6,3.53-7.54a9.51,9.51,0,0,0,4.24-4.59,21.27,21.27,0,0,1,3-4.36c0.8-.91,1.39-1.93,2.87-1.14a1.11,1.11,0,0,0,1.6-.82c1.38-4.05,4.87-6.91,6.2-11h0c2.23-1.32,2.69-3.7,3.59-5.84,0.5-1.2,1-2.65,2.9-1.45,0.9,0.56,1.53-.13,2-1s0.7-2.12,1.92-2.58c0.82,1.18-.39,1.83-0.61,2.71a1.57,1.57,0,0,0,.17,1.68c0.64,0.49,1.06-.23,1.45-0.63,0.65-.66,1.23-1.38,1.85-2.08C126.66,335.82,126.74,335.32,125.81,334.81Z"/><path class="cls-58" d="M114.08,357.7c0.63-.59,1.69-0.77,1.62-2a0.94,0.94,0,0,1,1-1c2.83,0.43,2.42-1.55,2.45-3.2,0-2.18,0-2.16,2.11-1.87,0.89,0.12,1-.61.83-1.16a8.86,8.86,0,0,1-.39-3.24c0.09-3.23.81-4.19,3.92-4.94a9.1,9.1,0,0,0,6.26-5,3.48,3.48,0,0,1,4.56.07c0.64,1.16,2.7,1.76,3.41.63,1.7-2.7,5.3-2.34,7.05-4.83a1.57,1.57,0,0,1,2.26-.41c0.92,0.73-.14,1.33-0.21,2s-1.25,1.82-.06,2.37,1.53-.69,1.79-1.57c0.75-2.49,3.72-3,4.72-5.23a6.36,6.36,0,0,1,.91-1.2c1.23-1.91,3.32-3.12,4.24-5.29a0.64,0.64,0,0,1,1.06-.19,2.87,2.87,0,0,1,.38,1.9,2.61,2.61,0,0,1-1.1,2.07c-2.8,3.2-5.61,6.39-8.39,9.6-1.73,2-.3,4.38-0.67,6.59a14.64,14.64,0,0,0,.35,7,1.16,1.16,0,0,1-.27,1.4,0.92,0.92,0,0,1-1.26-.53c-0.89-1.38-2.83-1.52-3.54-3.13a1.15,1.15,0,0,0-1.76-.38,2.72,2.72,0,0,0-1.68,2.08,1.21,1.21,0,0,0,1.33,1.24,1.94,1.94,0,0,1,1.84,1.5c1.33,3.88,3,7.63,3.06,11.89,0.05,3.82,2.9,5.12,6.11,2.93,1.4-.95,2.78-1.47,4.18-0.3,4.2,3.5,8.88,2.61,13.52,1.49,3-.72,6.19-1.28,7.8-4.56,0.48-1,1.35-.88,2,0.12,1.28,2.09,2.4,1.62,3.9.05a23,23,0,0,1,4.27-3.93,4.51,4.51,0,0,0,1.68-1.86c1.45-3.31,4.21-5.26,7-7.22,1.72-1.19,3.14-2.34,5.62-1.8,1.69,0.37,2.89-1.42,3.3-3.26,0.34-1.53.39-3.35,2.74-3.25a1,1,0,0,0,.7-0.59c0.67-3.52,3.45-5.08,6.16-6.73a3.65,3.65,0,0,0,1.86-2.89c0.15-2.9,1.79-4.52,4.28-5.55,0.48-1.93,1.68-1.75,3.05-1l0.58,0.07a2.27,2.27,0,0,0,3.37-.08c0.4-.35.83-1.18,1.42-0.58s-0.23,1.14-.49,1.72c-1.22,2.74-4.1,3.4-6.28,4.83a24.64,24.64,0,0,0-3.59,2.63A99,99,0,0,0,212,344.85a45.47,45.47,0,0,1-14.68,12.09,36.1,36.1,0,0,0-4.27,3.08c-1.29,1-2.32,2.17-4.07,2.37-1.42.16-1.57,1.89-2.72,2.52-3.88,2.11-7.06,5.28-11.26,7-2.57,1.08-4.92,2.79-7.64,3.72a2.63,2.63,0,0,1-2.41-.13,2.12,2.12,0,0,0-3.11-.12c-0.78.62-1.67,1.08-2.49,1.64a3.29,3.29,0,0,0-2,.53c-5,.45-8.82-1.66-11.74-5.6-0.72-.55-0.42-1.34-0.49-2-0.2-1.32-1.16-2.74.7-4,0.63,2,.81,4,1.72,5.8a3.41,3.41,0,0,0,3.57,2.24,8.06,8.06,0,0,1,2.78.06c1.62,0.5,2.59.41,3.31-1.44,0.41-1.07,1.82-1.42,3.12-1a1.44,1.44,0,0,0,2-.91c0.33-1-.53-1.23-1.11-1.72-2.17-1.83-4.56-.69-6.74-0.36-4.39.66-6.54-1.23-5.9-5.75a4.55,4.55,0,0,0-1.88-4.57c-3.74-3.17-5.88-7.54-8-11.88-0.75-1.56,1.24-1.58,1.45-3-2,.41-3.84.76-5.7,1.21-1.14.28-2.25,0.67-3.43,0.86-1.41.24-2.73,0.93-2,2.75,0.61,1.6-1.15,2.07-1.36,3.34-0.62,3.72-4.12,5.11-6.61,7.08-1.38,1.09-3.5,1-4.62,3.14-0.68,1.29-2.29-.46-3.3-0.88s-0.18-1.87.41-2.78c0.85,0.35,1.33,1.8,2.58.92,0.77-.54,1.92-0.95,1.23-2.49C116.28,357,115.65,359.17,114.08,357.7Z"/><path class="cls-29" d="M112.55,345.48c-0.09,3.26-2.4,5.4-3.95,7.94a17.91,17.91,0,0,0-1.45,2.93c-0.62,1.63-1.22,3-3.16,1.26-0.71-.63-1,0-1.36.52a40,40,0,0,0-2.58,3.75c-1.57,2.92-3.31,5.55-6.6,6.86-1.53.61-2.54,5.54-1.72,7.13,0.34,0.66.78,0.37,1.28,0.29a4,4,0,0,0,2.3-1.48,1.13,1.13,0,0,1,1.92.06,1.05,1.05,0,0,1-.39,1.85c-2,.6-3.68,1.7-5.59,2.35-1.2.41-2.89-2-2.58-3.94a6.85,6.85,0,0,0-.24-3.65,4,4,0,0,1,.91-3.52c1.08-1.5,2.08-3.07,3.15-4.59,0.34-.49.9-0.94,0.49-1.56a1.4,1.4,0,0,0-1.85-.3,29.39,29.39,0,0,0-3.87,2.37c-2.79,2-4.93,4.67-7.2,7.18,2.88-.83,4.19.18,6.09,2.63s0.62,5.32,1.66,7.86c0.5,1.22-1.1,1.31-2.14,1-1.29-.4-2.54-1-3.95-0.75-2.05.37-2.56,1.34-1.67,3.19,1.74,3.64,5.41,6.48,10,4.86,3.26-1.14,6.75-1.53,9.88-3.08a1.56,1.56,0,0,1,1.67,0c2,1.27,3-.06,3.78-1.55a14,14,0,0,0,1.37-3.81c0.62-3.31,2.42-5.42,5.31-7.25a14.78,14.78,0,0,0,5.45-5.69,20.42,20.42,0,0,1,4.51-5.39c1.92-1.77,4.07-3.22,4.67-6,0.56-2.62,2.54-4.07,4.83-5.16,1-.48,2.07-1.15,3.09-0.35s0.91,2.12.7,3.31a13.51,13.51,0,0,1-.41,1.46c-1.49-.82-3.17-0.76-3.63.88-1.14,4-4.35,6.47-7,9.21-3,3.13-5.36,6.72-8.41,9.79-4.46,4.48-8.54,9.3-10.71,15.45-0.63,1.78-2.45,2.74-3.9,3.87s-3.43,2.15-4.91,3.59a3,3,0,0,1-3.74.56c-2.2-1.22-4.62-2-6.38-4s-4.48-2.61-6-5c-1.33-2.13-2.24-4.54-4.11-6.33a1.19,1.19,0,0,1,.17-1.81c1.3-1.31,2.44-2.89,4.61-2.81a1.09,1.09,0,0,0,1.3-.51c0.29-.8-0.46-1-0.88-1.33a8.4,8.4,0,0,0-11.94,1.5,17.06,17.06,0,0,1-8.17,6.14,3.42,3.42,0,0,1-3.74-.79c-1-.9.33-1.77,0.59-2.66a2.89,2.89,0,0,1,.74-1.32c3.49-3.15,6.7-6.84,11-8.8a115.69,115.69,0,0,0,13.23-7.58c3.37-2.12,6.67-4.59,10.68-5.64a2.08,2.08,0,0,1,2.46.65c-0.2.76-.83,1.45-0.51,2.39,1.2-.19.82-1.47,1.54-1.89,2.41,0.74,4-.59,5-2.42a20.44,20.44,0,0,1,6.49-7.28C110.42,348.89,111.23,347,112.55,345.48Z"/><path class="cls-59" d="M215.41,356.17c2.9-4.78,7.43-8,11.23-11.92,3.49-3.6,7.91-6.21,10.8-10.4,1.45-2.1,3.79-3.3,5.46-5.19a89.28,89.28,0,0,0,8-14.18c0.94-2-1.13-2.35-1.36-3.62-1.63-1.29-2.18,1.15-3.47,1-0.22-1.82,1.75-2.51,2.07-4.06a4.07,4.07,0,0,1,.39-0.57c1.73-1.35,2.2-4,4.85-4.48,0.87-.16.55-1.48,0.85-2.24a2.34,2.34,0,0,1,2.32-1.56,0.43,0.43,0,0,0,.22.1c0.56,0.29,1,1.49,1.75.49,0.57-.79-0.65-0.91-0.91-1.43,0.23-1.36,1.33-1,2.17-1s1.53,0.24,1.88-.73c0.81-.83.67-2.75,2.37-2.49s1.24,1.94,1.72,3c0.89-.79-0.07-2.6,1.65-2.92,0.5,1.82,1.34,3.12,3.6,2.91a4.22,4.22,0,0,1,2.28,1c1.44,0.9,1.37,2,.35,3.16a5.12,5.12,0,0,1-2,1.48c-3.13,1.17-5.34,3.46-7.41,5.94a7.3,7.3,0,0,1-1.65,1.56c-1,.65-1.77.47-2-0.84a13,13,0,0,0-.12-1.51c-0.4-1.44-.76-2.95-2.75-1.43a2.17,2.17,0,0,1-1.46.32,1,1,0,0,1-.79-0.62c-0.53-1.93-1.65-1.19-3.09-.61,0.76,0.07,1.24-.52,1.59.15a5.62,5.62,0,0,1,.35,2.56,6,6,0,0,1-.24,1.75c-0.77,2.42-.71,2.49,1.84,2,0.73-.13,1.53-0.55,2,0.4a1.46,1.46,0,0,1-.5,1.82c-4,3.4-6.37,8-9,12.46a76.37,76.37,0,0,1-6.07,8.41,6.4,6.4,0,0,0-1.5,2.6,42.68,42.68,0,0,1-4,5.19,13.09,13.09,0,0,0-2.86,6.68,4.3,4.3,0,0,1-1,2.8,1,1,0,0,1-1.61-.62c-0.66-1.86-1.61-1.24-2.56-.33a35.88,35.88,0,0,1-3.65,2.85c2.17,0,3.87,0,5.47-.86,1.08-.59,2-0.49,2.16,1a6.29,6.29,0,0,1-2.39,4.64c-2.68-1.38-5-.3-7.22,1.12a77.53,77.53,0,0,1-7.25,4.14,34.57,34.57,0,0,0-11,8.36c-1.79,2-4.08,3.53-5.82,5.62a1.49,1.49,0,0,1-2,.59,1.77,1.77,0,0,1,.58-1.84c2.18-2.77,3.66-6.12,6.8-8.1a6.53,6.53,0,0,0,1.86-2.08,9,9,0,0,1,5.28-3.72,7.83,7.83,0,0,0,2.69-1.37c1.22-1,2.65-1.68,1-3.48C214.77,357.61,215.07,356.79,215.41,356.17Z"/><path class="cls-60" d="M215.41,356.17c0,1-.06,2,1.09,2.61s0.86,1.49-.05,2.13c-1.94,1.35-3.89,2.77-6.22,3.29a4.54,4.54,0,0,0-2.72,2,29.7,29.7,0,0,1-4.43,4.42c-1.8,1.49-3,3.76-4.38,5.69-0.55.74-1.08,1.5-1.62,2.25a1.8,1.8,0,0,1-1.63,2,4.2,4.2,0,0,0-3.06,2.42,17.14,17.14,0,0,1-4.07,5.1c-1.3,1-1,2.38-.58,3.72-1.11,3-3.47,4.85-5.91,6.66,0-1.52.2-3.06-2.24-2.13-0.79.31-2,.45-2.53-0.54s0.34-1.73.94-2.4,1.11-1.65.43-2.51c-2.42-3.08-.21-5.77.91-8.33a6.59,6.59,0,0,1,4.22-3.45,2.94,2.94,0,0,0,2.29-2.44c0.57-.58,1.6-0.63,1.84-1.55,0.6-2.22,2.37-3,4.3-3.68a28.24,28.24,0,0,0,2.86-3.19c0.54-.72,1.07-1.56,2.2-1.42,0.15,1,.74,1.29,1.6.81C204.54,364.25,211.09,361.84,215.41,356.17Z"/><path class="cls-61" d="M163.91,405.08c-5.71,2.65-11.37,4.83-17.93,2.57-2-.7-4.65.3-7,0.52-1.94-.73-4-0.29-6-0.56a2.75,2.75,0,0,1-1.43-.26c-1.51-3.15-5.16-3.57-7.32-5.86a3.32,3.32,0,0,1-.51-2c0.61-.38.39-1.08,0.63-1.59,0.51-1.09,1.91-1.36,2.24-.61,1.19,2.61,4,2.13,5.81,3.54a2.8,2.8,0,0,0,3.92,0c1.39-1.26,0-2.09-.64-3-1.26-1.58-.57-3,0.27-4.46,0.88-.18.93,0.56,1.09,1.07,0.94,3,3.2,4.23,6.11,4.32a7.44,7.44,0,0,1,4.71,1.48,21.65,21.65,0,0,0,2,1.13c2.77,1.78,5.24,1.18,7.54-.9C159.64,401.92,160.81,404.86,163.91,405.08Z"/><path class="cls-62" d="M248.52,307.8c-0.1,1.8-1.67,2.7-2.48,4.07-0.5.31-1.07,0.95-1.5,0.86-3.62-.68-6,1.68-8.73,3.3a2.84,2.84,0,0,0-1.38,2.75,2.79,2.79,0,0,1-.77,2.25c-1.51-.35-0.88-1.81-1.37-2.7-0.26-.47-0.06-1.27-0.91-1.27a1.13,1.13,0,0,0-1.15,1.13c-0.12,1.75-1,1.66-2.42,1.4a11.33,11.33,0,0,0-3.69-.34c-1.28.17-.91-0.77-0.1-1.31a2.53,2.53,0,0,1,1.14-.53c3.49-.64,3.72-0.82,1.57-3.56-1.55-2-1.24-3.5-.07-5.25a19.84,19.84,0,0,0,1.67-3.41c1.06-2.54,2.09-3,4.65-2.16,1.17,0.41,2.89-.4,3.46,1.46-0.76,1.36.27,3.47-2,4.39,1.75-.45,1.64-2.76,3.35-2.71,1.54,0,2.44,1.43,3.7,2.1a1.58,1.58,0,0,0,1.67.22C244.82,307.4,246.71,307.9,248.52,307.8Z"/><path class="cls-63" d="M157.39,400.49c-0.89,3.14-4.7,3.17-7,1.94-2.78-1.49-5.32-3.08-8.82-3.17-3-.08-5-2.67-5.59-5.88,0.36-2,.79-3.75,2.41-5.29s3.18-1.71,4.68.08c3.09,3.68,6.51,7,11.08,8.8C155.74,397.61,157.16,398.54,157.39,400.49Z"/><path class="cls-64" d="M211.32,383.2c-0.16,1.3-1,1.73-2.19,2-4,1-8.14,1.38-11.76,3.6-1.39.85-3.09,0.93-4.64,1.6-3.4,1.48-5.57,4-7.69,6.73a6.08,6.08,0,0,1-3.19,2.27q0-.51,0-1c1.47-2.53,4.26-3.94,5.58-6.59,0.51-.66,1-1.31,1.53-2a8.18,8.18,0,0,1,5.86-3.91c2.48-.32,4.74-1.69,7.21-2.28,2.16-.28,4.31-0.64,6.48-0.92C209.47,382.6,210.48,382.37,211.32,383.2Z"/><path class="cls-65" d="M249.52,310.87a7.83,7.83,0,0,0,1.4,1.05c1.81,0.82,1.52,1.8.37,3-1.34,1.38-1.44,3.35-2.26,5a30.6,30.6,0,0,1-6.14,8.76,13.49,13.49,0,0,1,1.31-3.24c1-1.9,2.1-3.81,1.78-6.16C245.51,315.79,249,313.95,249.52,310.87Z"/><path class="cls-66" d="M192.44,371.9c-2,.74-4,1.32-4.33,4-0.12,1-1.28,1.18-2.27.73-1-2.76-.61-4.45,1.61-5.88a10,10,0,0,0,3.22-3c0.87-1.34,3-1.22,4.21-2.47a10.69,10.69,0,0,1,1.18-.94,0.38,0.38,0,0,1,.6,0c-0.51,2.45-2.63,3.57-4.29,5C191.21,370.35,191.24,371.08,192.44,371.9Z"/><path class="cls-67" d="M192.44,371.9c-0.71,0-1.61.34-1.9-.67a1.82,1.82,0,0,1,1.07-2.07c2-1.27,3.43-3.13,5-4.81,1.35-1,2.3-2.55,4-3.07h0c1,0.5,1,.58,0,1.48-1.54,1-2.26,2.8-3.57,4Z"/><path class="cls-68" d="M200.61,362.76c0.14-.49.84-1,0-1.48,1.61-2.47,4.55-3.36,6.5-5.45a1.2,1.2,0,0,1,2,.12,1.68,1.68,0,0,1-.39,2.08,1,1,0,0,1-.37.33A16.85,16.85,0,0,0,200.61,362.76Z"/><path class="cls-69" d="M174.7,399.95c-3.2.37-5.9,2-8.61,3.53,1.19-3.91,3.55-5.39,7.51-4.61,1.21,0.24,2.55-.41,3.63.57l0,0C176.51,400.41,175.45,399.35,174.7,399.95Z"/><path class="cls-57" d="M145.62,372a25.18,25.18,0,0,1,2.12,1.69c2.68,2.62,6.14,3.28,9.62,3.91a4.87,4.87,0,0,1-5.41.07,17.21,17.21,0,0,0-3.87-1.81C146.38,375.34,146,373.59,145.62,372Z"/><path class="cls-57" d="M97.27,359.74a2.41,2.41,0,0,1,0,.25c-0.1,1,.38,2.28-1.11,2.7a1,1,0,0,1-1.22-.64c-0.59-1.39.19-2.19,1.3-2.81A1.11,1.11,0,0,0,97.27,359.74Z"/><path class="cls-57" d="M159.39,377c0.86-.78,1.72-1.55,2.56-2.35,1.49-1.43,2.45-1,3,.83C163,375.55,161.27,376.58,159.39,377Z"/><path class="cls-70" d="M120.18,394.25c1.64-.12,1.68.91,1.49,2.09a4.4,4.4,0,0,1-1.23.09c-0.62-.13-1.64.56-1.78-0.65C118.56,394.76,119.23,394.32,120.18,394.25Z"/><path class="cls-68" d="M200.65,361.28c-1.41.94-2.34,2.51-4,3.07l-0.56,0C197.54,363.23,198.49,361.33,200.65,361.28Z"/><path class="cls-20" d="M120.13,392.85c-0.65-.07-1.62.12-1.6-0.78s1-1.33,1.83-1.52c1-.24,1.4.84,1.44,1.39C121.89,393,120.82,392.75,120.13,392.85Z"/><path class="cls-20" d="M127.15,377.9a1.62,1.62,0,0,1-1.66,1.12,0.92,0.92,0,0,1-1-.88,1.25,1.25,0,0,1,1.22-1.34A3.83,3.83,0,0,1,127.15,377.9Z"/><path class="cls-20" d="M34.59,397.18c-1.07.86-1.77,1.38-3,1A2.38,2.38,0,0,1,34.59,397.18Z"/><path class="cls-71" d="M131.38,432.08a5.89,5.89,0,0,1-2-1.44,5.05,5.05,0,0,0-1.31-1.13,3.23,3.23,0,0,0-3.56-.21c-1.36.89,1.14,1.43,0.43,2.58-0.78.44-1.86-.71-2.7,0.2-1,1.29-1.83,2.07-2.55-.26-0.61-2-1.72-.78-2.4-0.09-3,3-6.45,3.14-9.68.22a4.58,4.58,0,0,0-.63-0.41c-2.51-1.7-2.71-3.33-.23-5,2.89-2,4.54-4.16,3.88-7.94-0.44-2.54,1.33-3.42,3.64-2.14,3.06,1.69,4.92,1,5.87-2.34a3.47,3.47,0,0,1,.95-2c0.57-.46.93-1.4,1.8-1.22a2,2,0,0,1,1.33,2c0.2,1.74.33,2.45,2.11,0.85,1.29-1.16,2.9.1,4.1,0.9,2,1.31,3.07,3.55,5,5,0.79,0.59.42,1.07-.55,1.27-1.41.29-2.31-1-3.58-1-0.75,0-1.68-.22-2.06.6-0.52,1.1.76,0.79,1.15,1.2a2.11,2.11,0,0,1,.89,1.44,10.45,10.45,0,0,0,6.23,8.45,0.79,0.79,0,0,1,.8.52c-0.1.7-1.06,0.4-1.26,1-1,2.21-2.15,1.76-3.53.35A10.74,10.74,0,0,0,131.38,432.08Z"/><path class="cls-72" d="M152.78,423.37a10.85,10.85,0,0,1-10.32,3.29c-0.5-.1-1.22-0.23-1.41.24-1.05,2.65-2,.78-3,0-1.21-.93-2.41-1.87-3.68-2.7-0.93-.61-1.92-0.89-2.33.65-1.06-1.93.81-1.33,1.5-1.68,0.39-.2,1.49.7,0.81-0.84-0.36-.83.55-1,1.25-0.53a25.67,25.67,0,0,1,2.71,1.8c4.23,3.55,8.5,3.19,12.81.2A2.37,2.37,0,0,1,152.78,423.37Z"/><path class="cls-72" d="M132,424.82c2.45,1.31,3.94,3.54,5.49,5.7A22.43,22.43,0,0,1,132,424.82Z"/><path class="cls-73" d="M122.72,438.17a10.13,10.13,0,0,0,5.77,4.2,1.85,1.85,0,0,1,1.11.56c1.51,2.56,4.06,2.82,6.62,3.3,1.92,0.36,2.47,2.49,1.29,4.08q-2.29,3.1-4.6,6.19c-3.52,2.44-7.54,1.6-11.33,1.36-1.87-.12-3.45-2-4.52-3.7-0.89-1.4-1.7-2.41-3.53-2.3a2.16,2.16,0,0,1-2.28-1.3c-0.28-.85.65-1.3,1.16-1.8,1.87-1.83,2.35-4.5,4.27-6.44S120.17,438.79,122.72,438.17Z"/><path class="cls-40" d="M237.83,231.42a20.73,20.73,0,0,0-4.38,12.18c-0.12,1.72-1.36,3.28-1.23,5.12a1.53,1.53,0,0,1-.18,1.69c-2.13,3-3.38,6.49-5.81,9.43-3.79,4.59-7.51,9.4-9.33,15.27a10.11,10.11,0,0,1-2.23,3.94,8.47,8.47,0,0,0-2.37,4.43c-0.22,1.42-1.19,2.42-1.9,3.56a2,2,0,0,1-2.79,1c-1.31-.62-2.3-1.5-1.94-3.16a21,21,0,0,0,.78-3.47,0.85,0.85,0,0,0-.39-0.87A0.82,0.82,0,0,0,205,281a4.83,4.83,0,0,0-.66,2.68c-0.33,4.66-3.54,7.5-6.64,10.4a0.7,0.7,0,0,1-.73,0c-0.74-1.44.68-2.08,1.13-3.07a39.92,39.92,0,0,0,6.16-12.37c0.46-1.45,1.36-3.37,3.27-1,0.47,0.59.83,0.59,1.27-.23,1.35-2.47,2.82-4.87,4.27-7.29a5,5,0,0,0,.85-2.61,4.93,4.93,0,0,1,1.74-3.8,2.91,2.91,0,0,0,1.36-2,1.6,1.6,0,0,1,.61-1c3.65,1,3.76-4.37,7.12-4a2.21,2.21,0,0,0,1.33-1.4c1.16-3.64,3.78-6.5,5.26-9.88,1.14-2.59,1.16-5.74,1.35-8.67C232.95,232.64,233.72,231.69,237.83,231.42Z"/><path class="cls-74" d="M198.09,291c0,1.14-1.34,1.83-1,3.08a2.28,2.28,0,0,1-.77,2.74c-3.25,2.32-4,6.16-6,9.29s-4.07,6-7.22,8c-2.55,1.59-4.68,3.88-7.79,4.6a3.67,3.67,0,0,0-2.19,2,5.8,5.8,0,0,1-6.69,3.26,22.23,22.23,0,0,0-5-.34v-2.06c-0.69-.88,0-1.44.47-2.05l0-1c0.57-.93.87-2.06,2-2.57h0c1.52-.75,2.49,0,2.26,1.42-0.42,2.66,1.2,2.35,2.69,2.06,0.9-.18,1.81-0.18,2.69-0.42,0.77-1.87,1.45-3.79,2.35-5.6s1.92-3.23,4.2-3.07a1.62,1.62,0,0,0,1.57-1c1.84-3.21,3.79-6.2,7.44-7.9,1.88-.88,3.2-3,4.78-4.5Q195,293.92,198.09,291Z"/><path class="cls-58" d="M171.61,319c-1.34,1.3-3.17,1-4.76,1.26-1.44.23-1.87-1-1.33-2.21,0.8-1.77-.09-2.09-1.55-2.1a3.26,3.26,0,0,1,1.53-1.54c2-.07,1.47,1.39,1.52,2.48,0.11,2.32.58,2.72,2.42,1.37C170.88,317.21,170.82,319,171.61,319Z"/><path class="cls-3" d="M243.42,209c-0.7,1.91,1.39,3.25,1,5.08-0.49-1.08-1.05-.77-1.68-0.12-0.42.44-.92,0.78-1.48,0.18a1,1,0,0,1,.17-1.54C242.71,211.69,242.63,210.13,243.42,209Z"/><path class="cls-75" d="M136.45,335.39l-4.56-.07c-4.2-1.2-4.12-5.91-.53-9.18,0.54-.23,1.08-0.45,1.61-0.69,3.5-1.58,5.55-1.18,6.68,1.28,1.59,3.48.59,6.76-2.54,8.29C136.89,335.14,136.67,335.27,136.45,335.39Z"/><path class="cls-24" d="M161.9,319.49l-0.47,2.05a12,12,0,0,1-5.1,5.59C157.84,324.34,159.18,321.41,161.9,319.49Z"/><path class="cls-24" d="M163.94,315.93c-0.64.87-1,2-2,2.57C162,317.17,162.15,315.91,163.94,315.93Z"/><path class="cls-76" d="M115.1,463.61c0.14,0.51.87,1,0,1.53-0.81.66-1.36-.37-2-0.31-1,.1-2.6-1.72-3.07,1.08-0.17,1-2.27.61-3.52,0.21l0,0c-0.87-1.85-2.67-1.68-4.25-2-0.17-2.61-1.19-4.31-4.12-4.57-1.47-.13-2.44-1.36-3.29-2.56-0.42-.59-1.41-1.18-0.71-1.86,0.85-.84,1.65.24,2,0.81,2,3.06,5.32,3.6,8.38,4a22.68,22.68,0,0,1,7.47,2C113,462.49,114.06,463.06,115.1,463.61Z"/><path class="cls-77" d="M106.46,466.12c1.06,0.09,2.14.44,3.19-.14,0.48-.89-1.55-1.1-0.64-2a2.5,2.5,0,0,1,2.61-.21c1.17,0.39,2.18,1.22,3.46,1.37q0,0.25,0,.5c-1.52-.07-2.91-0.56-4.44.73A3.5,3.5,0,0,1,106.46,466.12Z"/><path class="cls-77" d="M102.24,464.15c1.83-.23,3.61-0.34,4.25,2C105.32,464.95,103.73,464.66,102.24,464.15Z"/><path class="cls-58" d="M125.81,334.81c0.33,0,.65,0,1,0a1.09,1.09,0,0,1,1.29.85c0,0.84-.79.6-1.31,0.65a9.09,9.09,0,0,1-1,0Z"/><path class="cls-78" d="M161.44,323.6c1.55-1.71,3.32-.57,4.95-0.28,2.89,0.51,5.21-.57,6.24-3.18,0.61-1.55,2.09-2.14,3.42-2.6,4-1.38,7.15-4,10.06-6.85a28.28,28.28,0,0,0,6.29-10.24,6.66,6.66,0,0,1,2.91-3.4c1.12-.65,1.27-1.94,1.78-3,3.11-3.45,7.08-6.4,6.7-11.87a4,4,0,0,1,.89-2,1.39,1.39,0,0,1,1.73-.73,1.41,1.41,0,0,1,.84,1.68,12.88,12.88,0,0,1-.88,3.41c-0.92,1.85.41,2.5,1.54,3.14,1.33,0.75,1.8-.45,2.2-1.36,2.83-6.44,7.22-12.1,9.44-18.84,0.44-1.34,1.69-1.83,2.42-2.84,3.72-5.11,7.6-10.1,10.25-15.9a13.3,13.3,0,0,0,3.05-8,9.23,9.23,0,0,1,1.53-4.18,1.6,1.6,0,0,1,.55,1.61c-0.85,3.75-.56,7.83-3.19,11.08a6.11,6.11,0,0,0-1.61,3.93,2.55,2.55,0,0,1-.87,1.8c-3.11,3.09-4.8,7.18-7.49,10.56a4.53,4.53,0,0,0-1,3.08c0.18,4.37-1.79,8-4.56,11-3.6,3.88-5.52,8.7-8.26,13.05a14.24,14.24,0,0,1-1,1.77c-1.26,1.5-2.38,1.38-3.25-.35-0.08-.15-0.1-0.33-0.19-0.47-0.45-.81-0.83-2-1.81-1.92s-1.12,1.35-1.35,2.2a8.87,8.87,0,0,1-2.71,4.46,9.68,9.68,0,0,0-3.18,5.95c-0.14,1.05-.09,2.14.95,2.7s1.7-.37,2.38-1c0.5-.45.89-1,1.42-1.45,0.77-.61,2-1.23,2.55-0.58,2.2,2.38,2.58.18,3.82-1,1.5-1.48,3.28-3.09,5.81-2.39,1.77,0.49,1.22-1.89,2.49-2,0.68,2.41,2.51,3.09,4.75,3.14,1.56,0.43,3.34.45,4.13,2.28a28.08,28.08,0,0,1-5.87,4.28c-2.92,1.74-5.92.65-9.27,0.44,1.42,1.62,2,3.46,3,5,0.64,0.94.23,1.5-.3,2.41-1.85,3.24-5.6,4.18-7.89,6.87-1.25,1.47-3.25.1-4.86,0.55-1.8-.59-3.94-0.72-4.23-3.26,1.07-.81,2.85-0.64,3.26-2.38,0.13-.56.64-1.18,0.23-1.67-1.07-1.26-.91-2.2.44-3.1a0.85,0.85,0,0,0,0-1.34,2.06,2.06,0,0,0-2.23-.85,9.33,9.33,0,0,0-4.67,2.39c-3.14,3.51-6.1,7.18-9.51,10.43a2,2,0,0,0-.5,2.08,6,6,0,0,1,0,1.51,11,11,0,0,0-.29,2.51,2.1,2.1,0,0,0,1,1.89c1.91,1.07,6.26.19,7.63-1.56s5.85-2.4,7.87-1a11.52,11.52,0,0,1-8.19,8.16,28.23,28.23,0,0,1-10.29,1.19c1.74,1.85,4,3.07,5,5.44,0.32,0.72,1.41,1.27.71,2.16s-1.34.14-2-.27a1.71,1.71,0,0,0-1.18-.19c-1.25.3-4.33,4.2-4.41,5.6a3.53,3.53,0,0,1-2.73,3.29c-1.89.53-3.91,0.08-5.94,0.75-0.9.3-2.75-1.85-2.41-3.48,0.45-2.19-.58-2.35-2.12-2.23-4.44.32-5.27-.12-7.23-6.37a3.24,3.24,0,0,0-.61-1.36c-1-.93-2.41-1.65-2.18-3.19,0.38-2.48.35-5.2,2.07-7.2a21.92,21.92,0,0,0,3.31-5.82Z"/><path class="cls-79" d="M216.43,298.63c-0.69.47-.4,1.23-0.56,1.86a1.24,1.24,0,0,1-1.91.94c-2-.75-5.47.91-6.18,2.94-0.3.87-.39,2-1.44,2.19s-1.07-.9-1.47-1.5c-1-1.5-2.06-.73-3,0a24.48,24.48,0,0,0-1.68,1.89c-0.65.65-1.41,1.47-2.39,1.09a2.88,2.88,0,0,1-1.69-2.66,9.57,9.57,0,0,1,3.43-7.53,8.26,8.26,0,0,0,2.64-4.33c0.35-1.27.64-3.22,1.95-3.14,1,0.06,2.1,1.68,2.58,3,0.21,0.58-.17,1.53.86,1.54a2,2,0,0,0,1.78-1.59c0.83-2.67,3-4.63,3.91-7.23,1.56-4.23,5.62-6.72,7.48-10.76,0.95-2.06,2-4,1.81-6.4-0.33-3.65,2.74-5.63,4.26-8.36,1.3-2.33,3.65-4.32,4.59-6.54,2.38-5.61,5.77-11.06,5.4-17.56a2.21,2.21,0,0,1,2.1-1.88c2.38,0.22,2.91-1.61,3.88-3a1.58,1.58,0,0,0-.07-2.26c-1.35-1.5-1.24-2.84.72-3.84,2.24-1.15,4.54-.82,5.19,1.13,1.21,3.61,2.41,7.18,2,11.21a15.07,15.07,0,0,0,.49,5.76c0,0.12,0,.24,0,0.36-1.55,3.17-1.65,3.23-4.29,2.43-0.13,1.24.69,1.8,1.51,2.35a3.62,3.62,0,0,1,1.69,2.42,1.62,1.62,0,0,1-.42,1.64,1.29,1.29,0,0,1-1.85,0c-1.09-1.24-1.73-.64-2.43.36a2.93,2.93,0,0,1-1,.69c-3.24,1.8-3.93,3.39-2.83,7a5.44,5.44,0,0,1,.08,3.7,4.18,4.18,0,0,0,.2,3.45c1,1.94.84,3.54-1.08,4.83-0.64.43-1.26,1.09-.47,1.86,0.46,0.45.82,1.76,1.84,0.56a1.5,1.5,0,0,1,1.46-.95c4.06,0.06,4.83.56,5.48,3.61,0.3,1.43,0,2.54-1.69,2.78-1.46.1-1.5-2.39-3.53-1.72-1.26.42-2.2,0.72-2.51,2a3.9,3.9,0,0,1-3,3.09,3.27,3.27,0,0,0-2.29,2.2,3.18,3.18,0,0,1-2.83,2.22c-3.7.4-6.58,2-8.21,5.52a1.41,1.41,0,0,1-1.67-.28,7.2,7.2,0,0,0-2.17-4c-0.94-.77-1.94-2.46-3-1.86s-0.41,2.48,0,3.72a7.74,7.74,0,0,1,.17,4.21C217.85,296.94,217.72,298.13,216.43,298.63Z"/><path class="cls-80" d="M247,280.32c1.64-.31,2-1.4,1.12-2.56s-0.24-4.06-3-2.75a1.24,1.24,0,0,1-1.65-.32c-0.95-.62-1.14-1.68,0-1.81,2.95-.34,4.82-2.26,6.91-3.94,0.59-.48,1.43-0.52,2.06-1a7,7,0,0,1,5-1.59,4.29,4.29,0,0,0,4.13-1.93,9.6,9.6,0,0,1,3.66-3.09c1.87-.92,2.07-2.16,1.77-4.33-0.53-3.81-1.59-7.55-1.75-11.42-0.07-1.66,1.12-2.8,1.55-4.25,1.33-4.52,2-9.19,3.14-13.76,0.32-1.34,0-3,1.57-3.82,4.78-1.6,9.18-3.78,12.3-8-1.47-1.11-4,.46-5.2-1.68a1.11,1.11,0,0,1,0-1.49,1.77,1.77,0,0,1,1.57-.55c1.28-.18,1.84-0.75,1.59-2.21-0.28-1.65-.39-3.46,2-3.9l0,0.05c0.41,0.54,1.58-.21,1.62.95-2.8,2.21.91,1.34,1,2.16s-0.52,1-1.12,1.27a5.13,5.13,0,0,0,1.16-.51c1.42-.89,2.74-1,3.61.7,0.65,1.31-.23,2.9-2,3.52a3.36,3.36,0,0,0-2.25,1.46,1.52,1.52,0,0,0,.56,2.18,1.82,1.82,0,0,1-.91,1.7c-3.07,2.33-5.13,5.58-7.66,8.41a8.53,8.53,0,0,0-1.39,2.68c-0.38,1-.55,2.27-2.18,1.79-0.72-.21-0.81.45-1,0.9-2.08,6.45-1.94,12.75,1.25,18.84,1.69,1.55.52,3.66,1,5.75,1.29-1,1-2.34,1.45-3.39s0.92-2.19,2.24-.77c-0.93,2.22-1.34,4.59-2.38,6.83-0.8,1.73-2,4.34-.7,6.73a1.66,1.66,0,0,1-.2,2.12,1.76,1.76,0,0,1-2.32.34c-1.41-.91-2.33-0.27-3.27.77a43.89,43.89,0,0,1-5.8,5.29c-2.74,2.11-4.08,1.92-5.74-1.13-0.08-.33-0.34.23,0,0.09,0,0,.07.06,0.13,0.22a1.46,1.46,0,0,1,0,1.23c-1.44.55-1.63-1.1-2.56-1.44-1.65-1.2-2.7-.27-3.45,1.1-1.24,2.28-2.54,4.55-3.67,6.87a22.78,22.78,0,0,1-3.16,5.08,7.43,7.43,0,0,0-2,3.7,1.72,1.72,0,0,1-2.17,1.56,2.7,2.7,0,0,1-1.62-.91c-0.54-1.68,1-2.38,1.72-3.4C243.79,286,245.19,283,247,280.32Z"/><path class="cls-81" d="M271.41,223.79c-0.69,4.66-2.55,9.08-2.66,13.89a11.18,11.18,0,0,1-1.89,5.31c-1.82,2.84-.92,5.27-0.07,7.83,0.27,0.81.78,1.59,0.46,2.39a4.7,4.7,0,0,0,.6,4.51c1.13,1.93-.35,3.35-1.85,4.06a10.3,10.3,0,0,0-4.62,4c-0.81,1.33-2.11,1.3-3.35,1.27-2,0-3.89.1-5.43,1.55-1.05.09-.93-0.71-1-1.35a24.07,24.07,0,0,1,2.92-7.13c0.63-1.29.88-3,3.1-2.25,0.5,0.18.79-.5,1-1,1.13-3.4,3.26-6.54,2.61-10.41a4,4,0,0,1,.72-2.65,4.17,4.17,0,0,0,.67-2.91,5.85,5.85,0,0,1,1.36-5c0.63-.8.8-1.44-0.08-2.15a1.48,1.48,0,0,1-.58-1.8c0.6-1.38,1.84-2.71-.17-4.06-0.4-.27-0.09-1.18.67-1.29a4.94,4.94,0,0,1,2.47,0c-0.24-.84-1.15-1.56-0.34-2.38a2.68,2.68,0,0,0,1.48-2.44c0-1.35.17-3,1.9-3.07s1.58,1.86,2,3A6.6,6.6,0,0,1,271.41,223.79Z"/><path class="cls-82" d="M255.06,260.41c-1.56,2-1.89,4.47-3,6.64a1.43,1.43,0,0,1-2.09.68c-1.4-.68-2.82-4-2.47-5.8a9.55,9.55,0,0,0,1.88-5.06c3.28-2.57,2.37-6.43,2.93-9.8a15.19,15.19,0,0,0-.24-5.47,31.29,31.29,0,0,0,.87-8.72c0-2.7-2-5.05-3.25-7.5-0.65-1.3-.6-1.56.66-2.41,3-2,6.72-3.19,8.89-6.35,1.11-1.62,3-1,4.42-1.78,0.68-.4,1,0.56,1.1,1.28a2.9,2.9,0,0,1-.53,2.89c-3,2.94-2.34,6.91-3,10.46-0.28,1.43-.44,2.6-1.88,3.25a3.2,3.2,0,0,0-1.59,2.47c-1,4.16-1.44,8.33-.23,12.53a3.39,3.39,0,0,1,0,2.49C255.8,253.42,255.86,257,255.06,260.41Z"/><path class="cls-83" d="M255.06,260.41c0-1.44.08-2.88,0.09-4.32a7.31,7.31,0,0,1,1.14-4.52c0.8-1.16.8-2.75,0.28-4.52-1.11-3.75-.58-7.7.34-11.51,0.4-1.68.45-3.67,2.95-3.78a0.78,0.78,0,0,0,.7-0.91c-0.74-2.75,1.22-5.24.72-8a2,2,0,0,1,.69-2.08c1.59-1.18,2.15-2.95,2.82-4.67,1.27,1.13,1.51,4.51.43,6.31a5.73,5.73,0,0,1-.61.79c-0.72.83-1.59,2.26-.83,2.76,1.45,1,1.2-1.32,2.11-1.71-0.05.59-.18,1.2,0.57,1.49,0.59,0.22,1.54.27,0.87,1.29-0.54.83-1.1,0.32-1.71,0a2.77,2.77,0,0,0-1.47-.19,1,1,0,0,0-.72.56,0.63,0.63,0,0,0,.61.88c2.78,0.05,1.25,1.46.63,2.28-1.06,1.42-1.7,2.53.56,3.42,0.86,0.34.62,1-.06,1.56-1.65,1.37-2.53,3.06-1.9,5.28a1.51,1.51,0,0,1,0,1c-2.26,4.25-.58,9.53-3.56,13.58a2.19,2.19,0,0,0-.43,1.18c0,2.73-1.44,2.6-3.26,1.58C255.3,258.78,256.05,260,255.06,260.41Z"/><path class="cls-44" d="M278.53,212.58q0,0.74,0,1.49a3,3,0,0,1-3.54-1.51c-0.84,1.35-.23,2.6-0.62,3.68-0.19.52-.31,1.32-1.08,1.17s-0.61-.76-0.54-1.42c0.46-4.74.74-9.49,1.3-14.21,0.23-1.93,1-3.74,0-5.72a1.33,1.33,0,0,1,1.08-2.07c0.78-.07.84-0.74,1-1.31,0.54-2.47,1.68-2,3.05-.66,0.91,0.86,1.92,1.64,2.84,2.49,3.16,2.92,2.37,7,.71,9.45s-3.46,4.63-5.1,7a7,7,0,0,1-1.32,1.15C277,212.82,277.84,212.4,278.53,212.58Z"/><path class="cls-84" d="M252.08,241.59a4.64,4.64,0,0,1,1,3.3c-0.15,2.77-.37,5.55-0.55,8.32-0.13,2-1.83,2.9-3,4.16a2.15,2.15,0,0,1-2.17.48c-3.32-1.36-3.81-1.24-4.69,1.22-0.73.87-1.26,0.28-1.53-.34a3,3,0,0,1,.28-3.12c0.93-1.28,2.38-1.46,3.73-1.95s2.43-1.27,3.56.31c0.46,0.65,1.08.09,1.54-.25s1.26-1.15.83-1.67c-2.33-2.85.34-5.62,0-8.41h0A2.78,2.78,0,0,0,252.08,241.59Z"/><path class="cls-38" d="M282.63,181.5c0.1,1.54-.2,2.81-2,3.06-0.32-.89-1.78-1.59-1-2.58A2.72,2.72,0,0,1,282.63,181.5Z"/><path class="cls-85" d="M293.85,129.54c0.86-.51,1.59-0.53,2,0.54-0.28.65-1.17,1.14-.52,2-1.82-.11-3.17-1.8-5.1-1.55C291.23,129.42,292.89,130.72,293.85,129.54Z"/><path class="cls-49" d="M179.28,401.51h5.06A5.87,5.87,0,0,1,179.28,401.51Z"/><path class="cls-84" d="M247,280.32a16.51,16.51,0,0,1-3.07,6.41,56.33,56.33,0,0,0-3.57,5.27,3.28,3.28,0,0,1-1.28,1.82,5,5,0,0,0-.31,7.24,2.38,2.38,0,0,1-.25,3.43c-0.55.57-1.31,1.93-2.27,0.29a1.25,1.25,0,0,0-1.79-.88,1.85,1.85,0,0,1-1.45,0c-2.63-1-3.62-.58-4.29,2.15-0.3,1.22-1.15,2-1.63,3.09-0.62,1.36-2.39,2.8.39,4.08,0.28,0.13,1.89,2.27,1.56,3.43-0.46,1.6-2.28,1.41-3.73,1.35l-1.27,0c0-.77.08-1.66-0.93-1.8-0.86-.11-1,0.77-1.33,1.33a5.3,5.3,0,0,0-.57,1.91c-0.12.7-.45,1.71-1.43,1.4s-1-1.35-.58-2.14a31.48,31.48,0,0,0,2.51-6.61,5.66,5.66,0,0,0,.32-3.14,3.65,3.65,0,0,0-2,3.39c0,3.09-2.45,4.81-4,7a0.57,0.57,0,0,1-.46.16c-3.85-.46-6.09,2.58-8.89,4.26-2.28,1.37-4.2,2.56-6.52.37a0.73,0.73,0,0,1,0-1,2.86,2.86,0,0,1,1.41-.42c2.06,0.91,3.37.19,4.28-1.7a1,1,0,0,1,.46-0.57c3.33-.18,4.17-3.53,6.47-5,0.47-.3.63-0.71,0.26-1-1.78-1.3-1.44-4-3.43-5.14A0.94,0.94,0,0,1,209,308c0.44-.78,1-0.25,1.53-0.08,4.73,1.49,8.94.63,12.36-3,0.67-.71,1.65-0.37,2.16-1.12a4.71,4.71,0,0,1,1.09-1c1.95-1.94,2-3,.26-5.17-0.84-1.05-2.27-1.82-1.88-3.54,0.35-3.79,3.69-5.26,7.69-6,1.54-.3,2.78-0.41,3.06-2.27,0.22-1.48,1.44-2.08,2.7-2.3a2.78,2.78,0,0,0,2.46-2.42c0.35-1.3.59-3.46,2.84-2.48,1.27,0.56,1.14-2.11,2.31-.74C246.24,278.53,245.76,279.9,247,280.32Z"/><path class="cls-86" d="M200.1,323.09l0,1c0.28,1.82-1.27,3.25-1.05,5.05-2.19-1.39-4.28,1.36-6.48.19a1.27,1.27,0,0,0-.5.47c-1.81,2.58-6.21,4.12-8.87,2.74-2.38-1.23-1.48-3.41-.91-5.36,1.22-.79,1.83.29,2.56,0.87,3.12,2.54,4.16,2.33,5.51-1.55,0.88-2.53,2.55-4.55,3.89-6.78a1.06,1.06,0,0,1,1.1-.47,1,1,0,0,1,.69.81C196.48,322.31,198.69,322.16,200.1,323.09Z"/><path class="cls-87" d="M228.09,324.54c-1.08.14-2.37-.31-3.05,1-1,.24-2.24-0.22-3,0.94a1,1,0,0,1-1.7.31c-0.64-.65-0.29-1.38.25-2a2.44,2.44,0,0,1,1.81-.73,3.28,3.28,0,0,0,2.92-1.69c0.59-1.23,1-1.81,2.39-.78S229.51,323.36,228.09,324.54Z"/><path class="cls-88" d="M185.54,347.57c0.74,0.42,1.65.17,1.82,1s-0.57.86-1.14,1c-1,.3-1.43,1.53-2.61,1.38a1.73,1.73,0,0,1-1.11-.38,1.31,1.31,0,0,1,0-1.17C183.55,348.86,184.94,348.88,185.54,347.57Z"/><path class="cls-89" d="M188.43,341.94c1.52,0.18,3.58-.06,2,2.55-0.88.29-1.78,0.53-2.38-.47C187.6,343.27,187.44,342.49,188.43,341.94Z"/><path class="cls-78" d="M188.43,341.94c-1.2,2.34.28,2.55,2,2.55-1,.77-2.11.83-2.77-0.26C187.21,343.47,186.86,342.27,188.43,341.94Z"/><path class="cls-90" d="M114.08,357.7c0.77-.1,1.75.31,2-0.94,0.12-.6.1-1.62,1.1-1.14,0.79,0.38,1.69,1.1,1.31,2.17a4.64,4.64,0,0,1-3,2.49c-1,.37-1.74-0.93-2-2.07Z"/><path class="cls-91" d="M240.38,337.34c-0.07-2.14,1.76-3.19,2.85-4.56a109.12,109.12,0,0,0,8.4-13.09,22.71,22.71,0,0,1,4.89-5.69c0.51-.44,1.35-0.74,1-1.52-0.45-1.05-1.15-.13-1.67.06-1.09.41-2.14,0.66-3.06-.25s0.16-1.56.55-2.31a5.45,5.45,0,0,0,.27-1.72c0.82-.59,1.86-0.91,2.34-1.92l1.16-.51c2.08-.9,3-1.09,3.08-0.66,0.35,1.41,1.61,2.65.82,4.3a1.52,1.52,0,0,0,.22.61c2.37-.85,3.26-3.27,5-4.78a20.1,20.1,0,0,1,5-3.27c1.22-.57,2.89-1.3,2.55-2.74s-2.38-2.28-3.48-2c-3.52.9-2.87-1.38-2.93-3.26-0.16-2.88,2.09-4.27,3.84-5.83,1.43-1.27,2.58-2.2,1.43-4.35-0.5-.94-0.81-2.48.85-3.16,0.66,0.55.53,1.39,0.77,2.1,1,3,4.71,4.29,7,2.47a1.74,1.74,0,0,0,.95-1.68c-0.2-.93-0.94-0.39-1.47-0.41s-1.23,0-1.25-.88c1.25-1.5,3-2.59,3.28-4.85,0.19-1.41,1.59-1.56,2.53-.78s2,0.46,3,.39c1,0.5,2.19.68,2.44,2,0,1.74-1,3.75,1.36,4.81a3.24,3.24,0,0,1,.43.27c2.89,2.45,2.86,2.4,6.35.4,1.71-1,2.49-1.92,1.52-4.05-1.16-2.54,1.62-8.68,4.09-9.79,3.77,1.24,4,1.62,3,5.48a6.52,6.52,0,0,0-.3,3.25c1.11-.14,1.49-1.09,2.11-1.74a4.33,4.33,0,0,1,5.08-1.12c1,0.6,2.11,1.37,2.06,2.7a2.54,2.54,0,0,1-2.37,2.31c-2.24.33-2.43,1.23-1.3,3,0.48,0.75.95,1.7-.09,2.49-1.16.59-1.88-.22-2.72-0.79-2.19-1.46-3.35-1.1-5.53.23-3.67,2.25-7,5.22-11.54,5.83-1.21.16-1,1.2-.89,2,0.2,1.65,1.63,2.52,2.44,3.79a4.38,4.38,0,0,1-4.55,1.89c-1.69-.22-2.08-1.66-2.39-3.14-0.42-2-1.49-2.46-3.3-1.56a9.2,9.2,0,0,0-2.07,1.42c-1.55,1.44-2.64,3.27-4.08,4.81-2,3.12-3.48,6.67-7,8.59-3,.41-5.07,2.6-7.49,4a35.58,35.58,0,0,0-10.79,9.72c-1.26,1.73-1,2.13,1.11,2.35a20.21,20.21,0,0,0,3.3.15c2.6,0,3.31,1.17,2.47,3.81a19.35,19.35,0,0,1-4.86,4.3c-4.07-.43-7.79.75-11.4,2.46C242.5,337.42,241.5,338.08,240.38,337.34Z"/><path class="cls-65" d="M273.48,280.83a2.69,2.69,0,0,0,0,3.66c1.5,1.56.54,2.37-.6,3.17a14.84,14.84,0,0,0-5.51,6.37c-0.79.64-.38,1.56-0.54,2.35a1.4,1.4,0,0,1-1,1.29c-0.77.08-.76-0.73-0.91-1.25s-0.09-1-.21-1.48a0.89,0.89,0,0,0-.9-0.73,0.76,0.76,0,0,0-.81.78,1.21,1.21,0,0,1-1.28,1.64c-1.94,0-2.41-.62-1.26-2.25,2.15-3,3-6.83,5.91-9.35a1.77,1.77,0,0,0,.44-1.06c-3.12-.94-5-3.58-7.43-5.58-0.59-.49-1.31-1.19-0.64-2.17,0.37-1.21-.81-1.86-1.28-2.91a2,2,0,0,1,.7.11c4.11,3.7,5.08,3.63,8.93-.63,0.9-1,1.88-1.92,2.81-2.9,1.17-1.22,2.22-2.85,4-.75,0.49,0.57,1.1.2,1.59-.15a1.06,1.06,0,0,0,.06-1.76c-1.22-1.11-1-2.05-.17-3.28a2.53,2.53,0,0,0,.44-2.41c-0.48-1.08-.37-1.78.89-2.39,1.43-.69.73-2.46,1.28-3.66,0.29-.63-0.09-1.6,1.06-1.69,1.24-.85,2.3,0,3.28.5,1.22,0.63,1.94.28,2.88-.58,1.7-1.56,2.25-4,4.23-5.3,1.87,0.11,1.15,1.86,1.77,2.77,0.76,1.28,2.07,1.67,3.38,2a3.36,3.36,0,0,1,1.93,1.52c-0.76,1.88-1.7,3.19-4.17,2.35-1.41-.48-0.88,1.45-1.64,1.95-2.11,2.58-4,5.33-6.18,7.86a64.35,64.35,0,0,0-4.08,5.49,6.93,6.93,0,0,1-3.85,3.11c-2.11.59-1.88,2.55-2.14,4.19A1.52,1.52,0,0,1,273.48,280.83Z"/><path class="cls-92" d="M258.69,276.25c0.22,1.73,1.75,2.37,2.84,3.38,0.86,0.8,1.88,1.44,2.68,2.3,1,1.08,1.86,2.22,3.39-.05,0.21,2-.1,3.3-1.08,4-3.1,2.38-3.37,6.51-5.91,9.24-1,1,.16,1.37,1.07,1.49,0.57,0.93.73,1.74-.77,1.32-1.14-.32-2.2-0.86-3.25.12a1.09,1.09,0,0,1-1,1,4.06,4.06,0,0,0-2,1.57c-0.61,1.11-1.23,2.21-2.71,2.27a1.12,1.12,0,0,0-1.23,1c-0.18,1.61-1.44,2.58-2.16,3.87h0c-0.83.54-1.6,1.19-2.73,0.58a1.54,1.54,0,0,0-1.44.09c-2.05,2.45-3.47.19-4.73-.8-1.55-1.23-2.49-1.38-3.45.46a5.36,5.36,0,0,1-1.09,1.37,0.89,0.89,0,0,1-1.32-.26c-0.43-.48.1-0.73,0.47-0.87,1.26-.45,1.78-1.1,1-2.45-0.57-1,.34-1,1-1.14,1.79,0.68,2.13-.8,2.5-1.86s-0.08-1.81-1.39-1.77a0.86,0.86,0,0,1-1-1.13c0.49-3.08.17-6.56,4-8l1.53,0.54a1.74,1.74,0,0,1,1,1.38c0,1.55.12,2,.45,2.26,0.75-.64.22-2.57,2-2.1,1.44,0.39,1.38,1.68,1.37,2.91s-0.16,3.06,1.36,3,1.53-1.84,1.46-3.27c-0.12-2.4.59-3.12,2.83-3.18a5.16,5.16,0,0,0,4.45-6.4c-0.82-2.43-1.75-4.66-.32-7.26,0.68-1.24-.83-2.23-1.51-3.26-0.43-.65-0.88-1.31-0.33-2.08a1.44,1.44,0,0,1,2-.37C257.69,274.5,258,275.58,258.69,276.25Z"/><path class="cls-82" d="M201.67,384.15c-2.58.93-5,2.34-7.8,2.62-2.18.21-3.53,1.86-4.37,3.68a2,2,0,0,1-2.09,1.39c-1.38-1.5-1.06-2.93.33-4.13a17.6,17.6,0,0,0,3.9-4.76c0.73-1.27,1.39-3.39,3.82-2.94,0.81,0.15,1-1,1.63-1.44,2.29-1,3.89-3,5.34-4.75,5.87-7.18,14.21-10.69,21.82-15.27,1.63-1,4-2.78,5.91.14-0.39,3.35-1.55,4.64-4.6,5a5.51,5.51,0,0,0-2.09.81c-2.32,1.37-4.28,3.26-6.72,4.45-0.72.35-1.1,0.82-.2,1.44a1.49,1.49,0,0,1-.72,1.53,19,19,0,0,0-5,5.68C208.66,381.05,204.79,382.08,201.67,384.15Z"/><path class="cls-93" d="M216.42,370.45l-1.85.34a2.48,2.48,0,0,1,1.58-2.19c2.69-1.3,4.88-3.31,7.35-4.91a1.65,1.65,0,0,1,.91-0.39c3.56,0.49,4.57-2.16,5.74-4.61,0.77-1.48,1.89-2.81,2.08-4.56,0.57-.59-0.22-1.49.46-2.06,0.86-2.42.66-5.06,2-7.44,1.57-2.73,3.92-4.76,5.66-7.3,3-.74,5.61-2.47,8.64-3.17a10,10,0,0,1,6.13.09,1,1,0,0,1,1.21.55,0.83,0.83,0,0,1,0,.71c-2.1.58-2.85,2.93-4.82,3.65a31.89,31.89,0,0,0-8,3.53c-2.9,1.78-3.12,3.8-.88,6.39,1.15,1.33,2.38,2.64,2.18,4.62-1.14,1.32-2.43,1.78-3.89.53a1.55,1.55,0,0,0-1.84-.32,31.67,31.67,0,0,0-4.51,2.78,1.42,1.42,0,0,0-.67,1.75c0.35,0.69,1.07.3,1.6,0.16a56.22,56.22,0,0,1,9.46-1.61,4.88,4.88,0,0,0,2.9-1.4,1.28,1.28,0,0,1,1.55-.51,1.3,1.3,0,0,1,.39,1.79c-1.55,2.38-4,2.82-6.56,3a17.4,17.4,0,0,0-5.36,1c-5.86,2.59-11.81,5-17.2,8.55C219.44,370.25,218.09,371.26,216.42,370.45Z"/><path class="cls-82" d="M232.69,352.08c0,0.72.25,1.5-.46,2.06-0.16-1.07-.7-1.05-1.36-0.44-1.62,1.51-3.79.54-5.59,1.28a0.63,0.63,0,0,1-.83-0.41,1,1,0,0,1,.52-1.3,18.32,18.32,0,0,0,3.59-2.79c1.41-1.19,2.84-1.91,3.2.9A0.86,0.86,0,0,0,232.69,352.08Z"/><path class="cls-62" d="M248.52,307.8c0.11-1.76,2-2.92,1.62-4.88a0.67,0.67,0,0,1,.87-0.66c1.85,0.84,2.4-1.11,3.61-1.6,0.19,1.75.09,3.24-2.3,3.15-0.78,0-1.05.63-1.29,1.31A5.48,5.48,0,0,1,248.52,307.8Z"/><path class="cls-65" d="M264.91,299.65c0.6,2,1.44,3.59-.21,5.18a1.12,1.12,0,0,1-1.37.28c-0.72-.48-0.07-0.79.3-1.08C265,303,263.7,301.13,264.91,299.65Z"/><path class="cls-65" d="M253.74,305.31l-0.24.09c-0.7.29-.19,1.66-1.33,1.52a0.6,0.6,0,0,1-.44-0.79c0.28-.9.61-1.79,1.77-1.86a17,17,0,0,1,1.77,0c2.25,0.1.59,1,.32,1.61C254.79,306.33,254.25,305.86,253.74,305.31Z"/><path class="cls-65" d="M256.62,299.09l1-1c0.74,0.17,1.84-.34,2,1a1.73,1.73,0,0,1-1.53,1.76C256.76,301.22,256.94,299.85,256.62,299.09Z"/><path class="cls-91" d="M263.82,301.31c-0.09,1,.11,2.19-1,2.09-0.85-.08-0.84-1.31-1-2.1a1.37,1.37,0,0,1,1.08-1.74C264.23,299.54,263.53,300.82,263.82,301.31Z"/><path class="cls-94" d="M253.74,305.31l1.85,0.55,0.37,0.5c0.62,2.34-.83,2.16-2.34,1.92A5.35,5.35,0,0,1,253.74,305.31Z"/><path class="cls-65" d="M268.81,301.59c-0.58-.92-0.59-1.59.2-2.09a0.69,0.69,0,0,1,.6.26C270,300.51,269.52,301,268.81,301.59Z"/><path class="cls-95" d="M194.17,379a1.23,1.23,0,0,1-1.24-1.33c0-1,.65-1.23,1.49-1.16a1,1,0,0,1,1.07,1.07A1.3,1.3,0,0,1,194.17,379Z"/><path class="cls-64" d="M244.44,363.3c-1.24.65-1.75,1.82-2.39,3a6.26,6.26,0,0,1-3.19,2.63c-0.67,0-1.7.19-2-.16-2-2.61-2.82-.22-3.58.93a6.46,6.46,0,0,1-4.16,3,5.47,5.47,0,0,0-2.74,1.71c-1.45,1.49-2.74,3.23-5.06,3.51a1.58,1.58,0,0,0-1.05.65c-1.46,2.58-3.87,2.66-6.38,2.52-1.23-.24-2.33-0.71-2.42-2.15a2.37,2.37,0,0,1,1.92-2.39c1.55-.51,2.19-2.19,3.56-2.78a18.72,18.72,0,0,0,7.8-5.68,15.28,15.28,0,0,1,9.89-5.24c1.63-.23,2.19-1.31,2.69-2.58a17.62,17.62,0,0,1,6.09-1.12,7.92,7.92,0,0,0,6-2.55c2.67-2.78,5.79-5.07,8.48-7.83,2.26,0.89,1.87,2.52,1.19,4.24a2.26,2.26,0,0,1-.83.92C253.29,356.46,249.14,360.29,244.44,363.3Z"/><path class="cls-96" d="M237.38,360.3c0.52,1.8.09,2.83-2,3-4.33.45-8.53,2.5-10.7,5.72-1.85,2.75-3.8,3.72-6.49,4.69-2.12.77-3.48,2.85-5.51,4.05-2.22,1.32.43,2.3,1.26,3.3l-2.6,2.08c-3.26-.06-6.38,1.23-9.65,1,1.69-1.47,3.17-3.21,5.5-3.77,1.34-.32,2-1.49,2.65-2.56a32,32,0,0,1,6.61-7.38c2.41-.38,4.33-1.78,6.32-3C227.34,364.47,232.53,362.74,237.38,360.3Z"/><path class="cls-97" d="M196.06,320.07l-0.51-.57c-0.26-.23-0.7-0.53-0.87-0.29-1.27,1.76-3.11,2-5.06,2.11-1.24.09-2,1.19-2.81,2-1.28,1.19-2.51,2.47-4.48,2.34-0.82-1.17,0-1.85.76-2.54a85.27,85.27,0,0,0,8.77-9.63c1.69-2,3.93-2.59,6.07-3.38,1.21-.44,2.41.83,3,2,1,1.93-1.53,1.53-2.07,2.72,2.44,1,1.26,2.66.53,4C198.7,320,197.68,321.06,196.06,320.07Z"/><path class="cls-98" d="M182.32,325.64a18.1,18.1,0,0,0,5.35-4.1,2.7,2.7,0,0,1,2.2-1c1.58,0.05,3.14.26,4.16-1.56,0.45-.81,1.34-0.54,1.53.56a19.32,19.32,0,0,0-4.17,6.29c-0.23.54-.36,1.12-0.59,1.66-1.59,3.84-3,4.14-6.06,1.36-0.72-.65-1.21-1.69-2.42-1.62v-1.56Z"/><path class="cls-84" d="M221.52,289.47c0.52,1.34,3,2,1.53,4a3.48,3.48,0,0,1,.37,3.79,27.51,27.51,0,0,1-2.43,4.89,2.64,2.64,0,0,0-.94-0.35c-3.45.18-3.55,0.1-3.63-3.21,0.44-1,1.15-1.88,1-3.06a3.4,3.4,0,0,0,.7-2.57C217.87,290.28,218.71,289.45,221.52,289.47Z"/><path class="cls-99" d="M221,302.19a6.78,6.78,0,0,1,1.51-4.35c1.09-1.27.32-2.89,0.55-4.33l1.52,0.54c0.5,1.61,1.92,2.51,2.87,3.78,1.83,2.43.77,5.1-2.34,5.94Z"/><path class="cls-37" d="M251.06,243.63c0.72,1.63.91,3.22-.3,4.75a1.39,1.39,0,0,0,.33,2.17c0.84,0.7,1.47,1.69.68,2.63a13.69,13.69,0,0,1-2.93,2.31c-0.3.2-.62-0.21-0.7-0.54-0.24-1-.34-2.32-1.83-1.16-1.81,1.41-6.14.48-4.68,5a0.43,0.43,0,0,0,.78.15c1.89-1.1,2.42.19,2.88,1.62,0.35,1.18-.3,2-0.81,3-1.14,2.22-2.44,4.47-.35,7,0.8,1,.69,1.9-0.85,2.48-1.05.39-2.54,1.19-.88,2.72,0,0.89.06,1.92-1.33,0.94-2.66-1.87-2.72-2.68-.18-4.8a1.86,1.86,0,0,0,.58-2.64c-1-1.76-1.47-3.61-.4-5.53,0.48-.87.07-1.6-0.24-2.4-1.45-3.8-.52-6.13,3.12-8a1.1,1.1,0,0,0,.44-0.23c1.13-1.86,2.18-3.22,4-.49,0.43,0.64,1.23-.21,1.1-1-0.17-1-.49-2-1.67-2.31s-1.37-1.16-1.79-2c-0.3-.58-0.77-1.23,0-1.8s1.19-.16,1.66.46c0.8,1.05,1.39.54,1.89-.35C250,244.88,250.16,244,251.06,243.63Z"/><path class="cls-84" d="M242.39,275.71c-0.76,0-1.68.06-1.82-.92a1.59,1.59,0,0,1,1.37-1.61c2.51-.7,2.62-1.76.85-3.54-0.9-.9-0.16-5.2,1.11-6.53a2.63,2.63,0,0,0,1-2.15c0.58-.18,1.12-0.49,1.7-0.68A2.53,2.53,0,0,1,248,262c-0.59,2.8,1.78,5.76,4.06,5.08,0,0.56-.15,1.19.53,1.53a10,10,0,0,0-4.06,2.72c-1.12,1.12-2.41,2.09-4.21,1.88-1.25-.14-1.49.47-0.91,1.5A1,1,0,0,0,242.39,275.71Z"/><path class="cls-78" d="M221.52,289.47c-2.28.51-3.47,1.79-3.07,4.27a1.62,1.62,0,0,1-1,1.84c1.14-2.38-.93-4.49-0.59-6.84,0.1-.71-0.26-1.48.55-2s1.42,0.24,1.86.76C219.94,288.29,221.12,288.43,221.52,289.47Z"/><path class="cls-100" d="M289.27,248.77c-1,2.47-2.75,4.37-4.43,6.35-0.63.74-1.15,0.93-1.87,0.3a8.44,8.44,0,0,0-3.92-1.58c-0.6-.69-1.15-0.73-1.43.22a17.18,17.18,0,0,0-.52,2.69c-0.12,1-.09,2.26-1.57,2s-1.22-1.55-1-2.47c0.39-1.45.56-2.76-.54-4a5.78,5.78,0,0,1,.65-2.18c3.13-4,1.92-8.61,1.79-13.05a7.29,7.29,0,0,1,.77-3.43,12.36,12.36,0,0,0,1.2-4.12c0.39-3.83,2.34-5.2,6.09-4.3a1.9,1.9,0,0,0,2.23-.75c0.57-.87-0.33-1.18-0.8-1.57-1.21-1-1.06-2.06-.18-3.09,1.38-1.6,2.75-3.24,5-3.65,1.53,0,2.29,2.15,4.07,1.5a8.42,8.42,0,0,1,1.6-1.22c1.92-1.28,2.1-.8,3.42,1.06,2.07,2.93.35,5-1.08,7-1.58,2.24-1.84,4.19-.17,6.4,0.91,1.21,1.13,2.46-.4,3.46-3.75,2.15-5.51,5.73-6.85,9.59A14.91,14.91,0,0,1,289.27,248.77Z"/><path class="cls-101" d="M256.64,274.16c-1.63.12-2.68,0.48-1.1,2.22,1.42,1.56,2.86,2.88.88,5.32-1.27,1.57.26,3.65,1.1,5.19,1.21,2.23-.78,3.43-1.21,5.08s-1.7,2.89-4,2.18c-2-.62-2.36,1-2.21,2.61,0.08,0.8.85,1.6,0.11,2.4s-1.48,2.31-2.6,2.19-1.07-1.72-1.48-2.69a3.52,3.52,0,0,1-.05-2c0.21-.94.19-1.86-0.79-2.11-1.51-.39-0.52,1-0.86,1.51a2.2,2.2,0,0,1-1.05,1c-0.74-.87.56-2.37-0.93-3l-0.51-1.54c0.67,0,1.48,0,1.51-.92,0.08-2.71,2.33-4.06,3.6-6,1.51-2.37,2.68-4.95,4-7.44,0.55-1,1-2.11,1.61-3.14C253.61,273.2,254.94,272.76,256.64,274.16Z"/><path class="cls-102" d="M290.78,216.16a42.4,42.4,0,0,0-4,3.39c-0.77.82-2.41,2-.17,3.09,0.84,0.41,2.17.71,1.31,1.79s-1.79,2.46-3.58,1.68c-3-1.31-5.15,0-5.24,3.36a6.48,6.48,0,0,1-.55,2.71,15.15,15.15,0,0,0-.62,11.82,1.1,1.1,0,0,1,.08.74c-1.46,2.45-2.24,5.26-4,7.56a21.4,21.4,0,0,1-2.65-8.21,27.88,27.88,0,0,1,1.11-10.64,11.57,11.57,0,0,1,.55-1.68c0.2-.43.33-1.09,0.92-1.08,0.85,0,.29,1.05,1.21,1.56,0.56-4.15,3.83-6.52,6-9.64,1.37-2,3.67-3,5-5C287.33,216.06,288.72,215.06,290.78,216.16Z"/><path class="cls-103" d="M285.18,206.9a1.52,1.52,0,0,1,1,2,3.32,3.32,0,0,1-.69.27c-1.07.16-2.29,0.38-2.41-1.16C282.91,206.23,284.42,207.19,285.18,206.9Z"/><path class="cls-104" d="M248,262c-1.1.06-.93-1.1-1.49-1.56-0.89-1.18-.88-2.2.51-3l2.5,0C250.39,259.35,249.09,260.62,248,262Z"/><path class="cls-82" d="M247,257.41a4.65,4.65,0,0,0-.51,3,1,1,0,0,1-1.58.55c-0.62-1-.75-2.54-2.54-2.07-0.2-.89-0.5-1.93.67-2.27C244.47,256.24,246,255.79,247,257.41Z"/><path class="cls-105" d="M290.81,176.44c1.63,0.55,1.19,1.38.21,2.12s-1.62,1.68-.78,3c-1.19-.8-1.69-2.25-2.94-3a1.4,1.4,0,0,1-.38-1.84c0.62-1,1.13.16,1.69,0.14C289.34,176.75,290.34,178.18,290.81,176.44Z"/><path class="cls-106" d="M321.31,252.31c1,0.52,1.31,1.08.09,1.73-2.38,1.26-4.75,2.53-7.14,3.77a2.15,2.15,0,0,1-1.43.39c-1.94-.89-3.19-1.39-2.94,1.79,0.11,1.36-1.59.78-2.68,0.59-3-.53-6.06-1.41-8.61,1.29-0.42.44-1,.84-0.88,1.44,0.72,3.62-1.13,6.43-2.83,9.29-0.71,1.2-1.57,2.4-3.16,2.06-2.26-.49-3.1.67-3.49,2.57-1,.42-1.87,2.71-3.09,0-0.41-.9-1.92-0.77-2,0.84-0.1,2.41-1.68,3.51-3.62,4.34-1.46.78-2.59,0.83-2.76-1.25s-1.91-.63-2.74-1.23c-0.28-2.7.14-4.83,3.46-5.35,1.59-.25,2.31-2.05,3-3.25,1-1.79,2.52-3.11,3.63-4.77a0.62,0.62,0,0,0,1,.07c2.23-2,3.64-4.62,5.58-6.82,0.46-.52-0.26-0.63-0.45-0.92a17.35,17.35,0,0,1,.78-2.34c0.23-.47.59-1.11,1.34-0.74,2,1,2,1,4-.94,0.2-1-.3-1.9-0.37-2.86,0.62-1.64,1.74-1.38,2.79-.59a2.16,2.16,0,0,0,2.28.58c2,0.62,3.64,1.93,5.78,2.24,2.45,0.35,4.37-1.32,3.9-3.79-0.2-1.08-.77-2.12.28-3.05a8.85,8.85,0,0,1,1.42-1c1.27-.76,2.42-0.37,2.24,1-0.34,2.7,1.95,3.45,3.16,5C318.93,253.73,320.14,251.8,321.31,252.31Z"/><path class="cls-107" d="M281.62,296.59c2.91-.71,3.34-0.31,2.8,2.57a2.37,2.37,0,0,0-.1,1.45c1.89,2.28.67,5.28,1.87,7.69a9,9,0,0,1-2.38,3.54c-0.9.94-2.26,1.5-3.42,0.47s-0.08-2.1.63-3a3.28,3.28,0,0,0,1.14-1.6c-2.63.56-3.39,1.6-3,4.12,0.19,1.17.44,2.32,0.57,3.51a8.58,8.58,0,0,1-5.26,9.37c-2,.93-3.56,2-4.25,4.32s-3.06,3.33-5.51,2.76c-2.3-.53-4.76.75-5.23,2.76-0.2.85,0.24,2.15-1,2.3s-1.74-1.11-2.3-2l-1-.53a17.65,17.65,0,0,1,4.08-4.06,5.89,5.89,0,0,0,1.54-1.66c2.3-2.51,3.55-2.43,5.48.37a9.4,9.4,0,0,0-2-4.76,1.87,1.87,0,0,0-2.57-.11c-2.27,2.23-5.23,2.12-8,2.59-0.68.3-1.36,0.83-2.09,0.12s-0.13-1.5.15-2.1a11.38,11.38,0,0,1,1.82-2.71c4.45-5.06,10.09-8.58,15.77-12a1.51,1.51,0,0,1,1.66-.06c0,1.46-1.34,1.83-2.21,2.51a30,30,0,0,0-6.25,5.87c2.11-.39,3.75-1.79,5.57-2.75,2.38-1.24,4.28-3.29,6.85-4.25a2.12,2.12,0,0,0,.8-0.61c2.53-2.85,3.82-6.38,5.86-9.63-1.66-.59-2.65,1.32-3.94.23Z"/><path class="cls-108" d="M309.64,291c-0.17.61-1.35,0.22-1.18,1.06,0.3,1.49-.4,1.31-1.4,1a1.84,1.84,0,0,0-1.44.21c-3.05,2.39-7.16,2.35-10.3,4.52a3,3,0,0,1-1,.25,5,5,0,0,1-3.07-5.44c0.2-1.25,1-1.22,1.84-1.12,0.65,0.08,1.36.63,1.93,0.06,2.5-2.49,6.18-3,8.78-5.3s4.33-2.49,7-.09a2.07,2.07,0,0,0,1.82.62l0.16,0.2c-0.41,1.46-1.77,1.84-2.89,2.41S309,290.4,309.64,291Z"/><path class="cls-109" d="M277.62,301.22c1,0.11,1.7-.64,2.51-1.07,0.51-.27,1.1-0.72,1.64-0.24a1.45,1.45,0,0,1,.19,1.89c-2.26,3.06-3.06,7.33-6.15,9.47a59.16,59.16,0,0,1-8.69,5.45c-1.33.61-2.28,1.76-3.66,2.2-0.67.21-1.46,1.07-2,.13s0.19-1.68.82-2.23c1.91-1.66,3.9-3.23,5.87-4.82,0.91-.74,1.86-1.44,2.79-2.16C273.92,307.56,275.8,304.41,277.62,301.22Z"/><path class="cls-110" d="M290.29,279.29a10.35,10.35,0,0,1,5.46-2.94c1.45-.34,2.45-1.39,3.89-2-1.74,2.63-1.47,5.85-2.86,8.55-1.14,2.22-3.26,1.2-5,1.5C289,283.4,289.64,281.34,290.29,279.29Z"/><path class="cls-111" d="M274,279.9a4.43,4.43,0,0,1,2.36-.74c0.91,0,1.69.27,1.24,1.27-1.1,2.44.63,1.92,1.89,2a1.07,1.07,0,0,0,1.58.15c0.48-.34,1-0.86,1.55-0.3a1.84,1.84,0,0,1,.23,2.13c-0.63,1.67-3.21,2.87-5.11,2.37-3-.78-4.37-2.69-4.31-5.91Z"/><path class="cls-96" d="M253.62,326.63a3.26,3.26,0,0,1,2.74-1,6.1,6.1,0,0,0,4.34-1.69c2-1.86,3.72-1.44,4.83,1.08,0.6,1.36,2,2.38,1.83,4.08a1.16,1.16,0,0,1-.63,1.26,1.13,1.13,0,0,1-1.16-.78c-1.91-2.89-1.91-2.9-4.44-.5a2.74,2.74,0,0,1-1.89,1.14c0.84-2.68.37-3.26-2.44-3.08A4.84,4.84,0,0,1,253.62,326.63Z"/><path class="cls-112" d="M291.86,287.46c0.06,1-.61,1-1.31,1.08a1.1,1.1,0,0,1-1.4-1.27c0-1,.79-0.88,1.45-0.9S292,286.51,291.86,287.46Z"/><path class="cls-113" d="M281.94,289c-0.56,0-1.15-.19-1-0.8,0.17-1,1.13-.79,1.85-0.92,0.47-.08.91,0,0.86,0.55C283.53,288.82,282.74,288.93,281.94,289Z"/><path class="cls-114" d="M290.26,258.86a2.83,2.83,0,0,1,1.38.08c0.33,0.24.05,0.79-.25,1.1-2.19,2.21-3.54,5.12-6,7.15-1.19,1-1.35.54-1.3-.65Z"/><path class="cls-115" d="M294.36,253.75c0-.62-0.92-1.2-0.3-1.78,0.78-.72,1.48.34,2.26,0.33,0.84,0.83,1.55,1.66.05,2.53C295.47,254.91,295.19,253.82,294.36,253.75Z"/><path class="cls-84" d="M242.41,294.08c0.73-.37,1.52-0.74,1.46.6a14.39,14.39,0,0,1-.52,2.41c-0.68.31-1.5,0.87-1.35-.61C242.08,295.68,242.27,294.88,242.41,294.08Z"/><path class="cls-116" d="M251.57,338.85c0.82,1.25,3.11.45,3.4,2.13,0.23,1.34-.88,2.46-1.61,3.58a1,1,0,0,0-.21.7c1.34,3.17-1.57,4.48-3,6.26a6.57,6.57,0,0,1-5.7,2.13,9.17,9.17,0,0,0-2.84-4.66c-1.74-1.71-2-4-.16-5.53A18.52,18.52,0,0,1,251.57,338.85Z"/><path class="cls-117" d="M327.47,308.82c-1.3,1.33-3,1-4.59,1.09-1.91,1.11-3.87,1.85-6.08.92a8.67,8.67,0,0,1-3.78-2.31c-0.31-.36-1-0.57-0.51-1.17s0.9-.1,1.22.26c2.16,2.47,4.64,2.18,7.28.94a4.8,4.8,0,0,1,3,0c0.81,0.14,2.14,0,1.61-1.09-0.78-1.62.33-2.22,1.16-2.45,1.19-.33,2.77-1.1,3.67.71a0.63,0.63,0,0,1-.45.47C328.49,306.47,328,307.7,327.47,308.82Z"/><path class="cls-118" d="M320.32,284.37c1.35-1.92,2.2-3.92,1.57-6.37-0.28-1.09.69-1.85,1.31-2.62,1.06-1.3,2.35-2.42,2.77-4.15,0.26-1.05,1.1-1.15,2-1.1-1.44,2.37-2.84,4.77-4.35,7.1-1.33,2.06-.36,4.5-1.22,6.65C321.84,285.27,321.44,286,320.32,284.37Z"/><path class="cls-119" d="M318.71,307.22c-1,1.18-2.3,1.51-3.07.1-0.62-1.13-1.11-2.94.71-3.67a7.59,7.59,0,0,0,2.93-2.25c0.57-.64,1.32-1,1.92-0.24s-0.19,1.21-.69,1.64c-0.75.65-1.52,1.26-2.28,1.89-0.51.58-.46,1,0.28,1.37C319,306.33,319.27,306.73,318.71,307.22Z"/><path class="cls-120" d="M309.64,291c-0.63,0-1.47.3-1.72-.59s0.63-1,1.19-1.26c1.24-.68,2.44-1.43,3.66-2.16,0.75,0,1.36-1.17,2.16-.43,0.42,0.38-.18.85-0.34,1.27A21.75,21.75,0,0,0,309.64,291Z"/><path class="cls-121" d="M331,292.4c-1.16,0-2.32.14-3.48,0.12-0.68,0-1.68.15-1.53-1.05s1-.87,1.74-0.78,1.6,0.58,2.32-.17C332,290.28,331.91,291.13,331,292.4Z"/><path class="cls-122" d="M318.71,307.22a0.83,0.83,0,0,0-.66-0.89c-0.44-.11-1.13,0-1.09-0.69a1.21,1.21,0,0,1,1.27-.94c0.23,1.2.81,1.08,1.56,0.43a7.6,7.6,0,0,1,1.56-1.24,1.24,1.24,0,0,1,1.62.3c0.45,0.84-.38.88-0.91,1.07C320.83,305.72,320.22,307.24,318.71,307.22Z"/><path class="cls-123" d="M304.6,306.07a1.64,1.64,0,0,1-1.53-1.46c-0.17-1.07.62-1.27,1.45-1.21s1.69,0.08,1.58,1.16A1.71,1.71,0,0,1,304.6,306.07Z"/><path class="cls-124" d="M334.08,291c0.38-1.81,2.18-.65,3-1.45a0.94,0.94,0,0,1,1,1.1,0.92,0.92,0,0,1-1,.83C336.08,291.45,335,291.87,334.08,291Z"/><path class="cls-125" d="M331,272.43c-0.09.82-.72,0.81-1.31,0.81a0.89,0.89,0,0,1-1.08-.79c0-1,.77-0.94,1.45-0.93A0.83,0.83,0,0,1,331,272.43Z"/><path class="cls-126" d="M330,306.18l0.45-.47c0.69,0.12,1.68-.11,1.49,1.11a1,1,0,0,1-1.07.87C329.82,307.64,330.07,306.79,330,306.18Z"/><path class="cls-127" d="M318.24,290.44a5.34,5.34,0,0,1-.74.08c-0.71,0-1.58.28-1.94-.63a0.64,0.64,0,0,1,.7-0.78c1-.07,2.13-0.28,2,1.35h0Z"/><path class="cls-96" d="M291.18,313.34c0.64-.6,1.07-1.56,2.15-1.32a0.67,0.67,0,0,1,.28.58C293.1,313.56,292.18,313.52,291.18,313.34Z"/><path class="cls-128" d="M324,248.62l-0.05-1.39a2,2,0,0,0,2-.88,0.88,0.88,0,0,1,1.61-.17C326.12,246.72,325.81,248.79,324,248.62Z"/><path class="cls-129" d="M309.12,264c-0.14,1.29-1.11,1.08-1.91,1s-1-.72-0.63-1.47A4.52,4.52,0,0,1,309.12,264Z"/><path class="cls-65" d="M278.11,276.29c-0.77.9,0.7,2.21-1.13,2.43-0.58.07-1.72,0.37-1.69-.49C275.33,277,276.53,276.61,278.11,276.29Z"/><path class="cls-130" d="M315.54,254.51a1.05,1.05,0,0,1-1.16.76,0.84,0.84,0,0,1-.93-0.92c0.12-.67.77-0.47,1.24-0.49A0.68,0.68,0,0,1,315.54,254.51Z"/><path class="cls-106" d="M301.49,250.83c0.84-.18,1.8.29,2.54-0.45a20.48,20.48,0,0,0,0-3.29,1.42,1.42,0,0,1-.51-0.53c0-.63.48-0.3,0.63-0.21,2,1.12,1.45,2.77.91,4.42A3.17,3.17,0,0,1,301.49,250.83Z"/><path class="cls-131" d="M304.06,247.09a2.09,2.09,0,0,1,0,3.29c-1.18-.4-3.31.89-3.37-1.45S302.62,247.18,304.06,247.09Z"/><path class="cls-132" d="M334.69,252.85a11.35,11.35,0,0,1,4.9.52c0.66,0.15,1,.51.52,1.26-1.23,1.79-6.75,3.06-8.56,1.89a2.51,2.51,0,0,1-1.36-2.27c0.1-1,1.14-1.21,1.92-1.36A13.08,13.08,0,0,1,334.69,252.85Z"/><path class="cls-133" d="M335.24,255.45c-0.74-.32-1.42.2-2.15,0.26a0.91,0.91,0,0,1-1.11-1c0-.79.55-0.91,1.21-0.9s1.31,0.85,2.12.32a1.24,1.24,0,0,1,1.79.06,0.9,0.9,0,0,1,0,1.16C336.56,256.06,335.9,255.55,335.24,255.45Z"/></svg>