<svg id="Layer_1" data-name="Layer 1" xmlns="http://www.w3.org/2000/svg" viewBox="0 0 363.73 232.3"><defs><style>.cls-1{fill:#b2b1aa;}.cls-2{fill:#00a7c3;}.cls-3{fill:#002667;}.cls-4{fill:#0053af;}.cls-5{fill:#0060c3;}.cls-6{fill:#febc00;}.cls-7{fill:#233d3d;}.cls-8{fill:#000b62;}.cls-9{fill:#004199;}.cls-10{fill:#034168;}.cls-11{fill:#fec200;}.cls-12{fill:#584b27;}.cls-13{fill:#1d242c;}.cls-14{fill:#01182f;}.cls-15{fill:#01cefe;}.cls-16{fill:#1d2830;}.cls-17{fill:#0074e6;}.cls-18{fill:#244063;}.cls-19{fill:#85470f;}.cls-20{fill:#03012a;}.cls-21{fill:#2d0f02;}.cls-22{fill:#040208;}.cls-23{fill:#062e60;}.cls-24{fill:#2f1102;}.cls-25{fill:#f85d00;}.cls-26{fill:#262732;}.cls-27{fill:#fdd45b;}.cls-28{fill:#00409c;}.cls-29{fill:#595548;}.cls-30{fill:#4b596e;}.cls-31{fill:#2d345b;}.cls-32{fill:#5b7b83;}.cls-33{fill:#afb7b8;}.cls-34{fill:#77798c;}.cls-35{fill:#585080;}.cls-36{fill:#003ea0;}.cls-37{fill:#003992;}.cls-38{fill:#003d94;}.cls-39{fill:#002c83;}.cls-40{fill:#014e95;}.cls-41{fill:#bdcce3;}.cls-42{fill:#005ce5;}.cls-43{fill:#008cda;}.cls-44{fill:#0049c4;}.cls-45{fill:#004887;}.cls-46{fill:#005ca7;}.cls-47{fill:#0081cb;}.cls-48{fill:#fbf7fc;}.cls-49{fill:#93c7e8;}.cls-50{fill:#854501;}.cls-51{fill:#644d3b;}.cls-52{fill:#927f19;}.cls-53{fill:#904b11;}.cls-54{fill:#363005;}.cls-55{fill:#1d523f;}.cls-56{fill:#fbf8f7;}.cls-57{fill:#e6eff1;}.cls-58{fill:#003fa5;}.cls-59{fill:#043473;}.cls-60{fill:#0a5959;}.cls-61{fill:#091f26;}.cls-62{fill:#2b0801;}.cls-63{fill:#fbc85f;}.cls-64{fill:#f9c075;}.cls-65{fill:#f8e3dd;}.cls-66{fill:#a54c00;}.cls-67{fill:#907d24;}.cls-68{fill:#845720;}.cls-69{fill:#3e6a47;}.cls-70{fill:#62410d;}.cls-71{fill:#0078e5;}.cls-72{fill:#01389f;}.cls-73{fill:#023b78;}.cls-74{fill:#ecb5b5;}.cls-75{fill:#03233c;}.cls-76{fill:#537a3b;}.cls-77{fill:#fbb645;}.cls-78{fill:#ecd5d7;}.cls-79{fill:#223530;}.cls-80{fill:#a8653a;}.cls-81{fill:#00cffe;}.cls-82{fill:#e7f4fa;}.cls-83{fill:#0045c6;}.cls-84{fill:#0057ed;}.cls-85{fill:#0045be;}.cls-86{fill:#8ac5f3;}.cls-87{fill:#0055d2;}.cls-88{fill:#0088fd;}.cls-89{fill:#0093f5;}.cls-90{fill:#0093ee;}.cls-91{fill:#0061b5;}.cls-92{fill:#00517b;}.cls-93{fill:#607125;}.cls-94{fill:#c18419;}.cls-95{fill:#ca830e;}.cls-96{fill:#fdc515;}.cls-97{fill:#594110;}.cls-98{fill:#d0830c;}.cls-99{fill:#3b6942;}.cls-100{fill:#788850;}.cls-101{fill:#2f443b;}.cls-102{fill:#216d59;}.cls-103{fill:#017daa;}.cls-104{fill:#015d90;}.cls-105{fill:#067574;}.cls-106{fill:#f78c01;}.cls-107{fill:#347c6d;}.cls-108{fill:#7bb0c7;}.cls-109{fill:#095449;}.cls-110{fill:#0037c5;}.cls-111{fill:#007a99;}.cls-112{fill:#f9b929;}.cls-113{fill:#fcf7f5;}.cls-114{fill:#59a57b;}.cls-115{fill:#f6fafd;}.cls-116{fill:#00768f;}.cls-117{fill:#00a383;}.cls-118{fill:#048;}.cls-119{fill:#004876;}.cls-120{fill:#005f71;}.cls-121{fill:#008eba;}.cls-122{fill:#029cbf;}.cls-123{fill:#f9f8f7;}.cls-124{fill:#0065b3;}.cls-125{fill:#007f8c;}.cls-126{fill:#fe9300;}.cls-127{fill:#036f65;}.cls-128{fill:#0b7674;}.cls-129{fill:#012f35;}.cls-130{fill:#035440;}.cls-131{fill:#023028;}.cls-132{fill:#057474;}.cls-133{fill:#055e47;}.cls-134{fill:#276d86;}.cls-135{fill:#146c76;}.cls-136{fill:#386976;}.cls-137{fill:#525578;}.cls-138{fill:#3f596b;}.cls-139{fill:#757485;}.cls-140{fill:#9ca1a6;}.cls-141{fill:#436164;}.cls-142{fill:#fa9907;}</style></defs><title>splash</title><path class="cls-1" d="M346.62,114.88c-2-.3-1.83-1.81-1.82-3.19,0-1.56.49-2.79,2.34-2.77s2.46,1.16,2.34,2.76S348.54,114.7,346.62,114.88Z"/><path class="cls-2" d="M63.9,113.22c2.46-9,4.57-17.79,2.16-27.92C64.74,79.75,67.18,76,71,74.05l-4.16-8.23c0.77-1.8,1.7-1.33,2.41-.47C73.65,70.67,78.44,73,84,70.44c1.4-.64,2.84-0.48,2.89,2.73-0.4,2.18.58,3.51,1.59,3.43,4-.33,8.13,1.95,12.06-1.64,3.35-3.07,5.44-1,5.79,5.16,0.11,1.87-.19,3.91.49,5.55,1.86,4.52,1.47,9,.1,13.5-0.26.85-.36,1.81-0.59,2.68-1.43,5.52-2.2,10.66,2.82,12.77,0.68,2.61,1.23,5.31,2.06,7.79,0.78,2.32,1.39,4.4-.52,5.9-1.46,1.14-1.31,2.56-.87,4.61,1.07,5-1.07,8.14-3.59,7.37-5.72-1.75-9.47,3.38-13.69,7.25-1.6,3.27-4.18,2.49-6.29,3.63a18.22,18.22,0,0,0-5.05,3.5c2.8,1.26,4.17-1.29,5.78-2.71,0.81-.72,1.7-1.34,2.57-0.38a4.47,4.47,0,0,1,.54,4.47c-1.22,3.32-1.75,7.08-2.87,10.4-1,3.1-2.92,4.94-5.25,4.85s-2.7-2.82-3.17-5.82c-1-6.64-2.58-1.27-3.92-.15-1.57.92-3.19,1.06-4-1.61-0.88-3.07.6-5.35,1.62-7.56-1.44,1.7-2.13,4.43-3.28,6.61-2.8,5.33-7.43,4.32-8.57-2.24a32.45,32.45,0,0,0-5.62-14c-2-2.8-1.61-6.52,1.1-7.43,3.85-1.29,4.57-5.17,5.16-10.16C62,123.66,62,118.07,63.9,113.22Z"/><path class="cls-3" d="M307.38,3.69h4.08A3.83,3.83,0,0,0,314.36,7c1.58,0.43,1.77,2.59,3.09,3.44a0.83,0.83,0,0,0,.63-0.53c0.46-1,.6-2.41,2-2.35,1.55,0.07,1.74,1.63,2.15,2.79a7.7,7.7,0,0,1-.28,6.37c-0.92,1.76-.65,3.07,1.45,4,2.7,1.22,3,3.3,1.06,4.93a0.57,0.57,0,0,1-.39-0.27c-1.14-2.56-1.26-2.57-3-.26-1.56-.42-0.7-2.11-1.55-2.93-0.57.16-.56,0.76-0.84,1.14-2.16,2.86-4.34,2.66-6-.57-0.66-1.32-1.1-2.81-3-3.74a23.67,23.67,0,0,0,2.4,5.94,3.51,3.51,0,0,1,1,2.3c-0.46,3,.72,5.66,1.27,8.45a4,4,0,0,1-.7,3.6,18.23,18.23,0,0,1-5.74-1.76c-1.52-.71-2.4-0.3-3.09,1.06a23.55,23.55,0,0,0-1.46,3.24,11,11,0,0,1-4.92,6.48c-3.15,1.9-5.45,8.38-4.6,11.67-0.09,3.28-.43,6.53-0.71,9.79a22.47,22.47,0,0,0,.39,8.29,8.45,8.45,0,0,1-.66,6.39c-1.34.52-1.57-.6-1.9-1.38a37.9,37.9,0,0,1-2.82-15.2c0.36-1.27,2.06-.44,2.68-1.75-1.22-.22-1.57.86-2.29,1.16a1.81,1.81,0,0,0-1.5,2.25c0.12,1.51.33,3,.38,4.54s0.16,3.6-2.5,3.33a0.67,0.67,0,0,0-.79.76c0.12,2-2.51,1.73-2.59,2.93s2.43,0.59,2.78,2.26c0.42,2.06,1.56,2.8,3.65,1.75a1.41,1.41,0,0,1,2.21,1.22c-0.35,2.39.86,4.44,1,6.69,0.1,1.89-.21,3.58-2.59,3.84a1.27,1.27,0,0,1-.25-0.68c0-1,1.08-1.69.7-2.86-0.83-2.56-1.8-3-4.31-1.69-1.52.82-2.86,1.45-4.25-.22-0.57-.69-1.56-0.52-2.39-0.62-2.91-.37-3.84-2.09-1.91-4.27a10.47,10.47,0,0,0,2.78-7.57c1.49-2.48,2.9-5,2.05-8.06a1.78,1.78,0,0,1,.74-1.81c1.75-1.25,1.54-2.89.94-4.55s-0.3-3.7-.59-5.53a2.39,2.39,0,0,1,1.38-2.29c2.57-1.61,2.67-4.36,2.07-6.55-0.73-2.65-1.17-5.47-2.5-8-0.36-.67-0.4-2-1.58-1.48a1.75,1.75,0,0,0-.82,2.59,22.23,22.23,0,0,1,1.59,4c1.42,4-.51,7.07-2.81,10-0.74.94-1.68,0.56-2.46-.12a9,9,0,0,1-2-3.19c-1.82-3.86-3.21-4.6-7.29-3.84-1.37.26-2.69,0.43-3.9-.47a0.74,0.74,0,0,1,0-1.11c2.18-1.8,3.77-4.26,6.35-5.59a2.82,2.82,0,0,0,2.15-2.83c0.17-3.3,1.06-6.72-.91-9.86a3.39,3.39,0,0,1-.73-3.08c1.58-.6,1.64,1,2.32,1.63s1.3,2.39,2.36,1.69-0.07-2-.64-2.85c-1.31-2-3.22-3.69-3.64-6.25a0.89,0.89,0,0,0-.81-0.84,0.84,0.84,0,0,0-.76.84c-0.2.71-.09,1.54-0.83,2a6.21,6.21,0,0,0-4.88-2.7c-1.56-.07-2-1.73-1.38-3.66a13.56,13.56,0,0,1,5.22-6.69c1.74-1.22,1.68-2.18.48-3.64-0.72-.87-1.72-1.71-1.36-3.1h30A9,9,0,0,1,298,4.4c3.63,2.73,5.17,2.69,8.77-.24C307,4,307.2,3.86,307.38,3.69Z"/><path d="M295.17,50.09l-1.09-2.57c-1.28-.38-2.86-0.76-2.72-1.52,0.61-3.34-1.72-7.14,7.46-9.23a4.48,4.48,0,0,0-3.12-.07c-3.1.52-3.6-.25-3.87-1.35-0.89-3.62,2.28-6.78,5.65-9.92a30.18,30.18,0,0,0,7.88-3c-0.91-1.57-2.37.07-3.51-.11-2.85.44-5.93,0.76-7.79-.57s0.6-2.29,2.34-3.13A24,24,0,0,0,304.14,13c1.68-1.92,4.38-3.59,8.69-4.59,4.78-1.11,5.58-3.35,7.53-5.23,2.54-2.44,4.19-2.63,9.73-1.7,10.24,1.72,12.57,5.85,16.07,9.66a0.83,0.83,0,0,1,.07,1.25c-3.4,2.91-2.11,6.51-7.31,9.17-2.8,1.43-2.52,3.14-.52,4.77A33.92,33.92,0,0,1,343,30.14c2.16,2.61,3,5.11-3.1,7.06-2.6.83-4.05,1.6,0.61,2.31,5.76,0.88,6.2,3.23,6.28,5.48,0.12,3.5-3.26,6.6-6.34,9.69-1.6,1.61-2.37,3.13-1.89,4.9,0.84,3.11-2.59,5.75-6,8.29a19.29,19.29,0,0,0-3.87,3.38c-1.93,2.56-5.14,4.73-10.47,6.19a13.65,13.65,0,0,0-4.11,1.75c-4.92,3.41-13,5.18-20.17,7.4-2,.63-5.09,1.32-6.3-0.62,0.36-1.13.58-1.94-3.36-1.56-4.39.42-9,.06-13.39,1-2.24.48-11.65-1-12.73-1.78-1.83-1.25.82-5.83,4.12-6,4.07-.21,7.52-1.6,11.84-1.08,9.12,0.76,10.27.44,12.51-3.33,0.44-.74,1-1.47.63-2.24-1.71-3.31,2.54-5.95,5.4-8.66s2.75-5.82,2.67-8.78C295.26,52.4,294.45,51.25,295.17,50.09Z"/><path class="cls-4" d="M220.29,3.68h4.08a2.18,2.18,0,0,0,1.59.51c2.44,0,3.76,2.08,3,4.59-3.61-1.37-6.75-1.09-9.43,2.13-2.91,3.5-6.54,6.36-9.34,10a2.71,2.71,0,0,1-.92.86c-4.67,2.11-5.56,6.71-7.13,10.83-0.87,2.28-1.45,4.67-3.12,6.58-1.24,1.42-1.23,3.28-1.61,5-1.19,5.34-4.7,9.17-8.42,12.85a4.14,4.14,0,0,0-1.16,1.92,7.12,7.12,0,0,1-6.55,5.75c-1.58.2-3.1,0.8-4.74,0.66-1.28-.11-2.31-0.54-2.63-1.94a1.79,1.79,0,0,0,0-.24c-0.13-1.15.33-2.49-.19-3.43-0.61-1.1-2.06.19-3.07-.41-0.34-.2-0.79-0.22-1.17-0.4-1.27-.78-1.51-2.14-1.88-3.42-0.58-2-1.82-2.67-3.79-2a8.61,8.61,0,0,0-.83.65c-0.76.92,0.06,2.43-1.25,3.17-1.54.86-3,1.08-4.51-.06a10.28,10.28,0,0,1-3.2-4.2c-0.72-1.69-.05-2.95,1.33-3.94a11.52,11.52,0,0,1,2.13-.45c1.22-.31,1.83-1,1.31-2.31-0.3-2.48-2.52-1.44-3.82-2.08-0.65-1.25,0-2,.91-2.81,3.51-3.27,6.34-7.13,9.35-10.83,1.14-1.4.77-2.34-.9-3.1-2.76-1.26-5.72-1.46-8.63-1.87a7.94,7.94,0,0,1-6.53-4.59,8.58,8.58,0,0,0-4.53-4.49,5.74,5.74,0,0,1-3.82-4.36,1.5,1.5,0,0,1,2,.39c1.78,1.62,4,2.55,5.93,3.91a3.06,3.06,0,0,0,2.6.53c1.21-.24,1.76.37,1.37,1.63-0.72,2.37,1.4,5,4.07,5.09a10.89,10.89,0,0,0,3.24-.59,13.39,13.39,0,0,1,7.77.16,15.76,15.76,0,0,0,7.26.82c1.86-.3,2.81.87,3.55,2.29s0.08,2.46-1,3.33a42.48,42.48,0,0,0-6,6.12,3.92,3.92,0,0,1-1.66,1.12c-2.48,1-2.55,1.26-1.06,3.31a4.76,4.76,0,0,1,.19,5.9c-0.39.59-1.28,1.35-.38,1.94a1.58,1.58,0,0,0,2.27-1c0.72-1.91,2.14-3.49,2.52-5.53A9.11,9.11,0,0,1,178,35.54c2.81-1.77,5.52-3.52,6.38-7.16,0.34-1.43,1.94-2.24,3.12-3.22,1.8-1.5,4.52-2.32,4.55-5.36a28.24,28.24,0,0,1,9-4.85,1.71,1.71,0,0,1,2.07.54,1.94,1.94,0,0,1-.17,2.16A6.86,6.86,0,0,1,199,21.05a14.21,14.21,0,0,0-6.27,3.66,9.44,9.44,0,0,0,6.76-2.88c1.15-1.16,2.73-2.46,4.1,0a0.6,0.6,0,0,0,.86.29c1.33-1,3.34-1.16,4.23-2.71,2.59-4.53,6.57-8,9.45-12.28C218.9,6,219.46,4.75,220.29,3.68Z"/><path class="cls-5" d="M192.29,19.89c1.26,1.48,0,2.31-.89,3.13-1.85,1.66-4,3-5.85,4.66-1.27,1.11-.4,2.64-1.39,3.64A24.1,24.1,0,0,1,179,35.73c-2.59,1.44-4.5,3.25-4.9,6.53-0.24,2-1.88,3.69-2.64,5.67A2.46,2.46,0,0,1,168,49.06c-1.33-.88-0.42-2,0.41-3,1.6-1.86,1.38-4.06-.48-5.77-1.34-1.24-1-3.56.71-3.57,2.42,0,3.39-1.83,4.14-3.14,1.17-2.05,3.43-2.61,4.69-4.41,0.48-.68,1.34-1.05.87-2.06S177,24.44,176,24.74c-4,1.11-7.48-.88-11.19-1.32a17.13,17.13,0,0,0-6.2.84c-2.68.65-7.22-2-7.78-4.5-0.18-.79.36-0.81,0.85-0.9s1-.45.73-1-0.85-.5-1.25-0.06c-1,1.07-1.56.19-2.33-.33-2.62-1.77-5.29-3.46-7.95-5.18-1.93-.36-2.52-1.84-2.66-3.48a7.39,7.39,0,0,1,1.11-5.09h32.59c1,2.35,0,4.4-1,6.46a7.84,7.84,0,0,1-1,1.45c-2.13,2.82-1.59,5,1.64,6.62a3,3,0,0,0,3.32-.36c1.64-1.16,3.26-1.09,4.55.36,2,2.21,4.33,2.18,7,1.88C188.33,19.86,190.29,18.8,192.29,19.89Z"/><path class="cls-6" d="M75.1,3.66l8.26,0c3.91,3.21,5.69,7.84,8,12.09a17.1,17.1,0,0,0,5,5.57,13.9,13.9,0,0,1,5.89,10.41c0.1,1.64.34,2.58,2.22,3,2.22,0.49,3.09,4.94,1.62,7.22a14,14,0,0,0-1.52,2,3.83,3.83,0,0,1,2.35-1.19c1.88-.26,2.92.73,2.71,2.63-0.32,2.92-1.8,5.44-2.94,8.07-1,2.32-2.33,4.5-2.91,7A22.64,22.64,0,0,0,105.2,74a15.27,15.27,0,0,1,0,5.2c-0.39,1.17-.47,2.54-1.88,3.08-1.75.24-1.8-1-1.6-2.1a8.87,8.87,0,0,0-1.85-6.9c-1.6-2.32-2.75-4.85-2-8.12-1.24.54-1.91,1.41-2.9,1.6-1.43.28-2.94,1.21-4.13-.54-1.5-2.19-1.49-3.54.26-5.4,1-1.05,1.63-2.41,2.83-3.24,1.66-1.14,1.42-2.06-.19-2.94a2.42,2.42,0,0,1,.41-2.8,6.33,6.33,0,0,0,0-6.86c-0.74-1.06-1.29-.18-1.87.17-0.82.49-1.66,1.65-2.58,0.5s0.06-2,.87-2.8c2.43-2.43,2.4-2.43.83-5.45-1-1.88-1-3.63.64-5.3a3.79,3.79,0,0,0-.28-5.95A3.51,3.51,0,0,1,90,24.89c-2.92-4.53-6.61-8.55-8.84-13.56-0.94-2.11-2.07-4.23-4.67-5C75.32,6,74.28,5.19,75.1,3.66Z"/><path class="cls-7" d="M106.77,3.66c2.46,0,4.91-.06,7.37-0.05,1.25,0,2.48-.39,3.16,1.48,0.37,1,2.7,1,2.85,0,0.26-2,1.38-1.45,2.4-1.45,4.07,0,8.13,0,12.2.08,1.31,2.79.24,5.24-1.08,7.65-0.32.59-.92,1-1.24,1.61-0.7,1.32-.51,2.49,1.1,2.64,4,0.37,7.06,2.5,10.1,4.92a24.74,24.74,0,0,0,8.93,4.72c5.51,1.51,7.27,7.61,3.62,12.09-2.46,3-5.32,5.7-6.95,9.35a18.5,18.5,0,0,0-1.41,3.25,4.59,4.59,0,0,1-4,3.76c-2.17.41-4.34,1-6.52,0A18.63,18.63,0,0,1,134.5,52c-1.83-1.39-1.65-3,.5-3.75,5.4-1.94,8.78-6.12,11.87-10.58,1.45-2.09,1.13-3-1.13-4.3a13.23,13.23,0,0,1-5.35-5.21c-1.69-3.14-5.19-4.51-7.8-6.77a1.56,1.56,0,0,0-1.47-.23c-3.8,1.43-6.37-1-8.83-3.05a33,33,0,0,0-7.53-4.66c-2.15-1-4.09-2.1-4.64-4.66-0.22-1-1.16-1.36-1.93-1.89C107.1,6.12,105.75,5.39,106.77,3.66Z"/><path class="cls-8" d="M313.47,39.25a9.85,9.85,0,0,0-1.12-7.49c-0.47-.8-0.1-1.42,0-2.16a5.61,5.61,0,0,0-1.08-4.71c-1.19-1.49-1.63-3.58-2.32-5.44a0.93,0.93,0,0,1,.39-1.31,1.67,1.67,0,0,1,1.16.29A6.75,6.75,0,0,1,313,21.82c0.53,1.22.81,3,2.4,2.93s2.83-1.31,3.31-3a4.5,4.5,0,0,1,.6-1c1.91,1,.63,3.13,1.88,4.25a3.09,3.09,0,0,1,2.78.43c1.76-1.42,1.36-3.32-.89-4.26-2.66-1.11-3.29-2.27-1.8-4.84s0.64-4.69-.14-7c-0.19-.58-0.36-1.48-1.22-1.4s-0.78,1-1,1.59c-0.3.78-.59,1.56-1,2.67a18.06,18.06,0,0,1-2.22-2.8A3.59,3.59,0,0,0,312.51,7c-2.45-.23-1-2.12-1-3.34h10.68a1.69,1.69,0,0,0,.55.51c4.08,1,4.61,5.07,6.59,7.85A8.1,8.1,0,0,1,330.94,17a1.89,1.89,0,0,0,.32,1.45c1.63,1.48,1.57,2.68.08,4.4s1,0.62,1.2,1.24a2.72,2.72,0,0,1-.05,2.69,25.78,25.78,0,0,0-2,7c-0.54,3-1,6.16,0,9.22,0.13,1.36,1,1.23,1.88.88,0.68,2.29-1.4,2.86-2.51,4-1,1.79-2.35,3.29-2.63,5.52a2.88,2.88,0,0,1-2.91,2,2.23,2.23,0,0,0-2,.71c-3.49,2.81-4.63,7-6.45,10.82-0.4.84-.42,2.39-2.12,1.61a6,6,0,0,1-.36-3.11c1.3-5.31,3.9-9.64,9-12.21,3.12-1.57,3.41-6.72.59-8.76s-2.68-1.95-4.2,1a3,3,0,0,1-1.4,1.73c-1.15.29-2.11,0-2.38-1.21C314.44,43.79,313.37,41.64,313.47,39.25Z"/><path class="cls-9" d="M192.29,19.89c-2.66.34-5.32,0.67-8,1a4.94,4.94,0,0,1-4.9-1.9c-1.29-1.63-2.76-2-4.49-.39a2.73,2.73,0,0,1-4.07-.07c-1.17-1.08-2.25-2.26-3.39-3.38s-0.14-1.65.51-2.26a12.65,12.65,0,0,0,3.93-9.24h4c2.06,4.8,6.46,6.21,10.94,7.2a19.76,19.76,0,0,0,16.32-3.64,20.49,20.49,0,0,1,6.38-3.57h10.7c0.35,2.59-1.88,3.84-3,5.62-2.4,3.75-6,6.58-8.1,10.62-1,1.9-3.65,1.83-5.15,3.37-0.45.46-1-.26-1-1-0.09-2.07-1.25-1.32-2.22-.79a3.49,3.49,0,0,0-1.32,1.16c-1.52,2.56-4.55,1.87-6.65,3.16a0.92,0.92,0,0,1-.83-0.33,1.17,1.17,0,0,1,.38-1.56,18.39,18.39,0,0,1,6.29-3.5,4.47,4.47,0,0,0,2.69-1.64c0.66-1,2.08-1.91,1.39-3-0.86-1.34-2.61-.29-3.4.23C197.06,17.55,194.61,18.58,192.29,19.89Z"/><path class="cls-10" d="M143.88,53c1.9-.29,2.73-1.38,3.3-3.27,1.48-5,4.8-8.86,8.26-12.58,3.77-4.05,2.21-9.78-3.12-11.28a28.86,28.86,0,0,1-11-6.39,11.88,11.88,0,0,0-7.78-3.13c-0.89,0-1.71,0-2.09-1s-0.56-2.08.34-2.83c2.79-2.35,3-5.52,3-8.78h4.57a10.82,10.82,0,0,1-.19,2.25,5.54,5.54,0,0,0,1.73,6.33c1.68,2,3.24,4.14,6.08,4.67a2.34,2.34,0,0,1,1.6,1.81c1.67,4.81,5.34,6.77,10.16,6.69,2.5,0,4.54,1.23,6.81,1.83a1.71,1.71,0,0,1,.91,2.86c-1.86,2.33-3.71,4.66-5.81,6.83-1.8,1.87-2.81,4.5-5.34,5.82-0.25.13-.13,1-0.19,1.46a0.53,0.53,0,0,1,.16.19c0.43,3.31,1.07,3.63,4,1.94,0.61,2.4-.08,3-3.64,3-1.81.13-2,1.58-1.71,2.73,0.68,3.13.8,6.5,4,8.59,1.6,1,1,4.31-.86,4.82a8.47,8.47,0,0,0-4.2,2.71c-2.28,2.65-4.61,5.13-8,6.36-1.11,1-2.1,2.09-3.2,3.08-0.65.59-1.28,1.36-2.35,0.87-0.09-2.21,1.42-3.58,2.92-4.64a19.67,19.67,0,0,0,5.26-6c1.32-1.79,3.57-2.15,5.23-3.43,0.57-.44,1.51-0.7,1.17-1.68S152.78,62,152,61.9c-3-.3-6,0-8.61-2.16a6.89,6.89,0,0,1-2.24-4.37C140.84,53.51,142.9,53.73,143.88,53Z"/><path class="cls-11" d="M240.19,3.67h0.5a2.94,2.94,0,0,1,1.11,2.17c0.65,6,1.28,12,1.49,18.06,0.08,2.17.7,2.21,2.25,1.39a1.52,1.52,0,0,1,.74-0.1c1.77,1.75-.73,2.27-1,3.41,0.8-.51,1.28-2.29,2.72-0.78,0.13,1-.53,1.75-1,2.55-2.57,4.56-4.39,9.34-4.18,14.7a11,11,0,0,1-.89,5,13.14,13.14,0,0,0-.72,8.45c0.81,3.63,1.32,7.33,2.78,10.78,0.12,1.23-.71,2.38-0.33,3.64a8.62,8.62,0,0,1,.1,1.12c0.53,3.16-1.94,5.12-3,7.63a3.9,3.9,0,0,1-1.11,1.48c-1-.37-1.29-2.33-3-1.47a2.5,2.5,0,0,1-.78-2.52c0.24-2.12-.25-3.23-2.7-2.65a2.64,2.64,0,0,1-2.94-1c-0.36-1.16.48-1.43,1.27-1.81,3-1.42,5.2-5.62,4.06-8.63-1.08-2.83-2-5.73-3.38-8.48a8.3,8.3,0,0,1-.17-5.24,55.33,55.33,0,0,0,1.74-12.79,6.89,6.89,0,0,1,.08-1c0.62-4,2.09-7.83,2.39-11.91a5,5,0,0,1,1.31-3.23c2-1.25,2.67-3.27,2.84-5.47,0.28-3.65-.59-7.24-0.61-10.88C239.85,5.25,239.46,4.39,240.19,3.67Z"/><path class="cls-12" d="M106.77,3.66a1.56,1.56,0,0,0,0,.74c3.57,2.05,4.08,7,8.32,8.5s7.49,4.57,11,7.26a3.59,3.59,0,0,0,3.55.51c2-.58,3.67-0.39,5,1.37,1.14,1.54,3.18,1.88,4.41,3.36,1,1.22,2.26,2.19,2.77,3.84s2.33,2.35,3.78,3.18c3.59,2.08,3.56,2.43,1.63,6.05s-5.65,5.71-8.2,8.84c-0.78,1-2.56,1.1-3.91,1.55-0.55.19-1.22,0.13-1.3,0.93a1.57,1.57,0,0,0,.92,1.65c0.88,0.49,1.74,1,2.6,1.55,1.11,1.86.54,3.37-1.09,4.52a38.11,38.11,0,0,0-3.4,2.9c-3.18,1.12-6.26,2.59-9.69,2.92a0.92,0.92,0,0,1,0-1.51,5.45,5.45,0,0,0,2.1-3.19c0.39-1.41,1.69-.46,2.58-0.57,0.34-.91-0.65-1.33-0.67-2.06,0.92-4,1.91-7.8,5.39-10.52A10,10,0,0,0,135.38,34c-2.29-3.11-4.85-5.78-9-6.4A3.82,3.82,0,0,1,123,24.67c-0.4-1.7-.56-3.48-1.8-4.86-2.79-2.55-6.47-3.5-9.7-5.23a11.9,11.9,0,0,1-5-5.74A8.48,8.48,0,0,0,104,5.64a1.53,1.53,0,0,1,.66-1.94Z"/><path class="cls-9" d="M228.94,8.67c0-2.38-.76-4-3.61-3.73-0.68.07-.9-0.63-1-1.26l10.17,0c1.38,3.15,1.44,6.56,1.63,9.88,0.52,8.78-2.45,16.56-7.4,23.68a26.28,26.28,0,0,0-2.93,5,12.86,12.86,0,0,1-4.65,5.86c-4.22,2.55-5.58,6.28-4.58,11a8.34,8.34,0,0,1-1.92,7.59c-2.2,2.39-3.37,5.42-5.53,7.85-1.14,1.29-2,2.88-3.34,4.06s-2.1,2.51-.22,4.15c0.89,0.77,2.19,1.78,1.44,3.43-1.5.09-2.16-1.18-3.1-2-1.48-1.22-3-1.86-4.88-1-1.26.6-2.66,0.39-4,.47-4.1-.21-4.89-0.91-4.9-4.35a2.43,2.43,0,0,1,.28-0.76c3.08-2.72,6.52-3.61,10.44-2,3.21,0.57,4.09-.29,4.6-4.51,0.58-2.44,2.42-4.05,4-5.81s2.24-3.4,1-5.69c-1.76-3.25-.21-6.27,2-8.26,3.54-3.15,5.32-7.39,8-11.07a66.14,66.14,0,0,0,4-5.5A63.18,63.18,0,0,0,229.3,24c1-3,1.1-6.3,1.49-9.48a5.16,5.16,0,0,0-1.06-3.07C229.24,10.62,228.5,9.8,228.94,8.67Z"/><path class="cls-13" d="M235.62,3.67h1c1.39,2.22.73,4.78,1.05,7.15a31.5,31.5,0,0,1-.76,12.82c-2.49,8.76-3.67,17.8-5.7,26.65a13.18,13.18,0,0,0-.2,5.53,7.25,7.25,0,0,1-.24,3.51,1.41,1.41,0,0,1-1.2.81c-4.53.64-6.72,3.43-7.2,7.8a2.2,2.2,0,0,1-.26.71c-1.09,1-.51,1.87.28,2.56,2.8,2.43,5.57,5,9.42,5.63a2.45,2.45,0,0,1,2.33,2.53,8.66,8.66,0,0,0,1.44,4.24c1.26,2.13.54,3.32-2.12,3.68a2.87,2.87,0,0,1,.26,3.34c-2-1.19-4.2-.79-6.34-0.91A8.32,8.32,0,0,0,225.9,86,3,3,0,0,0,223,84.48a11.12,11.12,0,0,1-2.52-.29c-2.54-.38-3.78-3.09-1.88-4.78,2.91-2.58,1.27-5,.06-7.17a7.87,7.87,0,0,1-1-6.5,5,5,0,0,1,1.09-2.36,2.83,2.83,0,0,0,.29-3.83c-1-4.19-.6-5.22,2.95-7.19a5.35,5.35,0,0,0,2-1.9,40.32,40.32,0,0,0,4.62-9.82c1.32-4.46,3.37-8.63,5-13a36,36,0,0,0,2-17.63C235.32,8,234.35,5.78,235.62,3.67Z"/><path class="cls-14" d="M270.68,27.06A18.52,18.52,0,0,0,272,30.28c1.91,4,1.56,8.18,0,12.25-0.23.62-.72,1.74-1.85,0.79-1-1.05-.62-2.35-0.69-3.58-0.1-2,.37-4-0.74-5.87-2.2-4.34-8.45-7.75-13.28-7.26a3.17,3.17,0,0,1-2.23-.1,1.78,1.78,0,0,1-.22-1.93c1.83-2.93,2-6.6,4.2-9.34A2.5,2.5,0,0,0,258,13a2.25,2.25,0,0,1,.57-2.08c2.09-1.6,1.74-3.53.92-5.57a1.33,1.33,0,0,1,0-1.61h7.13c1,1.38,1.91,2.78,2.94,4.12,0.8,1,.79,1.72-0.48,2.39A13.45,13.45,0,0,0,263,17c-1,2.36-.36,3.6,2.13,3.3,2.64-.31,3,1.4,3.58,3.1L269,23.67c0.51,1,1.1,2,1.68,3C270.66,26.82,270.67,26.94,270.68,27.06Z"/><path class="cls-15" d="M112.6,106.9c-0.48-2.64-.33-4.86,3.08-5a0.76,0.76,0,0,0,.57-0.41c0-3.45,3-2.76,4.72-2.81,4.63-.15,8.83,2.15,9.12,7.37,0.26,4.67-4.87,9.27-9.43,8.49-1.64-.28-3.42-0.06-4.87-1.15C113.63,111.75,111.77,109.94,112.6,106.9Z"/><path class="cls-16" d="M259.51,3.69a11.3,11.3,0,0,1,1.17,2.94c0.16,1.59.79,3.5-1.52,4.35-0.71.26-.67,1.08-0.68,1.75A8.88,8.88,0,0,1,255,15.47a8.58,8.58,0,0,0-1.62-.68c-2.08,1.86-3.3,4.34-4.87,6.57-0.29.41-.45,0.91-0.75,1.32-0.61.87-1.37,1.64-2.5,1.29s-1.21-1.37-1.2-2.31c0-4.4-.7-8.73-1.16-13.09-0.17-1.62-1.24-3.21-.21-4.88h16.79Z"/><path class="cls-17" d="M209.59,3.68c-5.07,3.23-9.62,7.56-16,8.19a24.22,24.22,0,0,1-15.2-3.65,5.5,5.5,0,0,1-2.45-4.53h33.64Z"/><path class="cls-18" d="M235.62,3.67c-0.31,4.07.57,8.07,0.68,12.11a34.66,34.66,0,0,1-1.82,10.62C232.83,32,230.3,37.32,228.68,43c-0.9,3.13-3,5.95-4.61,8.84A4.19,4.19,0,0,1,222.21,53c-3.19,1.52-3.75,3-2.4,6.58,0.49,1.44-.15,2.74-0.52,4.07a2.71,2.71,0,0,0-1,2.05,14.07,14.07,0,0,0-1,2.73,1.22,1.22,0,0,1-1.61,1.08c-1.2-1.1-.61-2.38-0.15-3.46a14.25,14.25,0,0,0,.85-8.08c-0.62-4.14,1.6-7.35,4.5-10.1a86.61,86.61,0,0,0,12.84-21.66c2.51-6.12,2.16-12.49,1.19-18.83-0.19-1.27-.22-2.51-0.29-3.77h1.08Z"/><path class="cls-19" d="M104.69,3.7l-0.53,1.95c1,2.81,1.38,6,4.75,7.3,1,0.39,1.05,1.4.5,2.34-2.67.23-4.29-1-5-3.57a8.52,8.52,0,0,0-1-2.07c-1.78-3.07-4.74-3-6.68.1a16.81,16.81,0,0,0-.76,1.6c-1.14,2.38-2,2.65-4.27,1.4A19.94,19.94,0,0,0,93.29,16c0.31,0.7,1.08,1.54-.29,2-2.32-1.64-3.29-4.28-4.22-6.68a18.23,18.23,0,0,0-3.39-5.15c-0.61-.72-1.64-1.28-1-2.5Z"/><path class="cls-20" d="M332.33,24c-0.91-.07-1.1,2.18-2.06.95-0.76-1-.09-2.61.95-3.28,1.33-.86,1.39-1.36,0-2a1.85,1.85,0,0,1-1-2.13c0.24-2.46-1-4.37-2.28-6.26a6.33,6.33,0,0,1-1.19-1.92c-0.47-2-1.15-3.48-3.51-3.68-1-.08-1.24-1-1.17-2h9.65a20.49,20.49,0,0,1,4,12.47C335.74,19.46,335.13,22.1,332.33,24Z"/><path class="cls-21" d="M230.48,59.36a38,38,0,0,1,.55-12c0.8-3.53,2.12-7.05,2-10.83s2.07-7.23,2.81-11A47,47,0,0,0,236.69,9a36.68,36.68,0,0,1-.08-5.32l1.3,0a2,2,0,0,1,.91,1.71c0.34,4.45.88,8.91,0.54,13.38-0.1,1.32-.2,2.71-1.33,3.69-1.45,5.94-3,11.87-3.47,18a53,53,0,0,1-1.66,11,7.75,7.75,0,0,0,.07,5.2c0.13,1.46,1.81,3.39-1.18,3.93A1.47,1.47,0,0,1,230.48,59.36Z"/><path class="cls-22" d="M332.35,43.9c-0.82.34-.18,2-1.36,1.79s-0.46-1.58-.7-2.39c-0.68-.76-0.27-1.55-0.14-2.39a59.76,59.76,0,0,1,3.8-12.59,34.27,34.27,0,0,0,.83-22.43,3.15,3.15,0,0,1-.32-2.2h1c2.42,0.11,3,1.51,3.41,3.76,0.85,4.25.21,8.44,0.39,12.65a5.14,5.14,0,0,1-.69,2.91h0c-0.6,1.84-.26,3.93-1.51,5.59a22,22,0,0,1-1.68,5.54c-1,2.13-1.92,4.31-1.74,6.79A4.31,4.31,0,0,1,332.35,43.9Z"/><path class="cls-23" d="M334.46,3.69c2,2.76,2,6.1,2.32,9.19a32.85,32.85,0,0,1-3.16,17.9c-1.85,3.92-2.47,8.28-3.33,12.53-2-1.25-.68-3.12-0.88-4.7-0.66-5.19,2.26-9.67,2.92-14.6a4.68,4.68,0,0,1,1.77-2.64,2.58,2.58,0,0,0,1.06-2.21c0.2-4.92-.3-9.71-3-14a4.76,4.76,0,0,1-.35-1.44h2.66Z"/><path class="cls-24" d="M242.72,3.69c1.1,6,2.13,12,2,18.2,0,0.66-.13,1.54.68,1.71a1.58,1.58,0,0,0,1.79-1.13c0.9-3,3.65-4.8,4.72-7.66,0.34-.92,1-1.39,1.94-0.6,0.28,2-1.53,3.15-2.09,4.81-1.4,2.39-2.65,4.9-5.07,6.49l-4.09,1.84a197.19,197.19,0,0,0-1.95-23.66Z"/><path class="cls-25" d="M84.36,3.67a0.49,0.49,0,0,0,0,.25c4,4,5.17,9.64,8.63,13.91,2.53,2.41,6.05,3.67,7.77,7,0.56,1.1,1.47,2,1.79,3.3a1.57,1.57,0,0,0,.48,1.13c3.61,1.07,2.39,5,4.22,7.1a1.64,1.64,0,0,1,.39,1.18,6.24,6.24,0,0,0,2.59,6.28,5.35,5.35,0,0,1-.13,3.23,94.56,94.56,0,0,1-5,11.53c-0.41.76-.81,1.73-2,1.62,1.59-3.71,3.17-7.42,4.79-11.11a8.5,8.5,0,0,0,1-2.86c0.06-.94,1-2-0.34-2.71-1.08-.56-2.13-0.08-3.12.46-0.75.41-1.15,1.56-2.49,1.11a11.33,11.33,0,0,1,1.8-2.42c2.51-1.93,1.27-4.29.86-6.52-0.19-1-1.2-1.1-2.07-1-1.27.1-1.83-.31-1.83-1.69,0-5.69-2.66-9.65-7.39-12.81-3.2-2.14-4.49-6.08-6-9.53a9.75,9.75,0,0,0-2.57-3.91,6.76,6.76,0,0,1-2.32-3.52Z"/><path class="cls-26" d="M319.24,85l-1.89-1.15c-0.31.49,0.09,0.77,0.31,1.09,0.5,0.76.79,1.86,0.09,2.28-0.93.55-1.42-.58-1.75-1.3-0.84-1.85-2.81-2.49-4-3.93-0.19-.48.13-0.64,0.48-0.77,1.5-.25.7-1.24,0.58-1.95-0.64-3.59-1.26-7.17,1-10.49,1.66-1.64,2-4,3-6a18.61,18.61,0,0,1,5-6.79q0.52,0.16.13,0.54c-0.56.35,1.15,1.28-.57,1.59-1.11.2-3,.7-1.95,3.17,0.38,0.88-1.3,2.63-2,4a20.24,20.24,0,0,0-2.1,13.71C316.08,81.47,318.27,82.88,319.24,85Z"/><path class="cls-27" d="M238,22.42c1.42-6.27.21-12.52-.12-18.78l2.28,0c0.32,3.66.46,7.34,1,11,0.5,3.2-1.17,5.69-2.05,8.46-0.1.31-.21,0.76-0.62,0.62C238,23.52,238.2,22.86,238,22.42Z"/><path class="cls-28" d="M307.38,3.69c-1.91,3.78-6.32,4.59-9.21,1.68-0.53-.53-1-1.12-1.5-1.68h10.7Z"/><path class="cls-29" d="M338.52,23c0.42-4.67,1.24-9.34-.49-13.94a2.87,2.87,0,0,1-.1-1.5c0.43-2.15-.62-3.28-2.52-3.88,5.41-.27,4.28-0.31,4.51,4s-0.49,8.89-.51,13.34A2.23,2.23,0,0,1,338.52,23Z"/><path class="cls-30" d="M322.15,56.6L322,56.06a2.11,2.11,0,0,1,1.64-1,3.7,3.7,0,0,0,3.68-3.45c0.23-1.57,1.46-2.58,2.5-3.66a2.62,2.62,0,0,1-1,2.22c-0.49.4-1.06,1.13-.83,1.47,2.08,3.14-1.83,2.81-2.57,4.33C325,56.87,323,55,322.15,56.6Z"/><path class="cls-31" d="M108.93,80.1c1.4-1.91,4-.79,5.62-2.61C113.66,81,113.66,81,108.93,80.1Z"/><path class="cls-32" d="M330.84,52.83c0.56-.4.19-1.47,1.21-1.56,0.59,0,.76-0.52,0-0.48s-1.16-.25-1-0.94,1-.55,1.52-0.71a1.08,1.08,0,0,1,1.45,1C334.49,52.82,332.36,52.46,330.84,52.83Z"/><path class="cls-33" d="M275.46,32.24c1.09-.1,1.68.25,1.72,1.37,0,1.32-.88,1.55-1.82,1.62s-1.22-.67-1.3-1.51A1.14,1.14,0,0,1,275.46,32.24Z"/><path class="cls-34" d="M188.8,75.45c1.58-.62,3.06-0.64,3.55-2.26,0.13-.42.93-0.41,1.33,0s0,0.74-.24,1.09C192.39,75.78,191.19,76.79,188.8,75.45Z"/><path class="cls-35" d="M78.86,106.2a0.83,0.83,0,0,1-.79,1.07,1,1,0,0,1-1.17-1c0-.59-0.09-1.35.67-1.39A1.51,1.51,0,0,1,78.86,106.2Z"/><path class="cls-29" d="M337,28.6c0.71-1.81.34-3.91,1.51-5.59C337.93,24.85,339,27.13,337,28.6Z"/><path class="cls-36" d="M288.53,96.27a12,12,0,0,1-4.21.55c-0.86,0-1.51.16-1.17,1.31,0.74,2.55-.41,4.19-3.11,4.23a40.05,40.05,0,0,1-4.72-.46c-2.39-.63-1.47-2.59-1.64-4.11,0.41-.32,1.16.09,1.36-0.43a1.07,1.07,0,0,0-.91-1.3,4.4,4.4,0,0,1-2.84-2.67c-0.23-.54-0.83-1.27-1.33-0.92-2.91,2.08-5.91.32-8.83,0.26a9.29,9.29,0,0,1-6.35-2.17c-0.82-.87-2.29-0.51-3-1.58a3.47,3.47,0,0,0,.27-0.69,1.71,1.71,0,0,1-.44.69c-1.12.81-2.15,0.88-3-.36-0.25-1.39.63-2,1.7-2.51a3.35,3.35,0,0,0,2.27-1.43c3-4.55,3.27-9.52,2.81-14.77-0.34-3.81-.84-7.78,1.2-11.4a10,10,0,0,0,.85-3.43c0.55-3.29,3-4.44,6.26-3.8a11.61,11.61,0,0,1,6.67,3.23c0.63,0.67,1.2.15,1.82-.13,1-.44,2-0.66,2.36.8a2.23,2.23,0,0,1-.83.85,2.52,2.52,0,0,1,1-.53c1.76,3,3.13,6.17,2.59,9.81-0.14.93,0.07,1.86,0,2.79-0.12,1.25.52,1.76,1.65,2.14,2.61,0.87,3.28,3,1.65,5.28A5.14,5.14,0,0,0,279.35,79c0.25,2.87,0,5.5-2.53,7.51-0.74.58-1.6,1.69-1,2.86s1.73,0.8,2.73.82,2.41-.26,2.89,1.33c0.28,0.95,1,.74,1.6.32,0.42-.27.85-0.55,1.29-0.79,1.11-.6,2.51-1.59,3.47-1.1,1.16,0.6,1.25,2.43,2.11,3.64C290.64,94.58,289,95.3,288.53,96.27Z"/><path class="cls-37" d="M294.65,109.52c-1.3-5,.78-9.79,1.28-14.68a13.12,13.12,0,0,0,.18-3.26c-0.18-1.21-.8-1.94-2-0.79a2.59,2.59,0,0,1-2.47-.6,4.62,4.62,0,0,0,1-5.62,32.75,32.75,0,0,0-.28-8.65,36.21,36.21,0,0,1,1.08-14.36c0.21-.75-0.34-1.28-0.27-1.95-0.23-1.47.49-2.8,0.68-4.21a1.45,1.45,0,0,1,1.71-1.19,1.35,1.35,0,0,1,1.31,1.56c-0.08,2.5.22,4.93-1,7.41-1.05,2.14-.72,4.79-1,7.22,0.34-3,.8-6,2.47-8.57a8.86,8.86,0,0,0,.8-3.43c0.26-1.53.35-3.22,2.11-4,1,1.37,1.79,1.73,3,0,1.81-2.62,3.07-2.23,4.86.35s1.38,5.25.78,8a2.56,2.56,0,0,1-1.59,2.12c-2.06-.77-2.45-2.37-2.08-4.31,0.18-1,.67-1.91,0-2.91-1.06.43-1.15,1.35-1.37,2.12-1.81,6.21-3.11,12.43-2,19,0.48,2.94-.48,6,0.59,9a11.94,11.94,0,0,0,.6,1.66c2.39,6.27,2.25,12.4-1,18.35-0.79,1.24-.47,2.64-0.53,4a11.89,11.89,0,0,1-.18,2.53,2.3,2.3,0,0,1-2.21,1.78,1.76,1.76,0,0,1-2-1.55A22.82,22.82,0,0,0,294.65,109.52Z"/><path class="cls-38" d="M274.27,55.55c-0.84-1.8-1.77-1.18-2.44,0-0.46.86-.81,1.07-1.41,0.28-1.67-2.2-3.38-4-6.63-3.58-1,.12-2.07-1.36-3.61-0.36-1.27.82-2.19,1.77-2.13,3.16a7.68,7.68,0,0,1-1.43,4.72,4.28,4.28,0,0,0-.67,2.91c0.33,2.88,0,5.75.31,8.69a20.6,20.6,0,0,1-3.31,14.14,2.59,2.59,0,0,1-2.62,1.05c-0.7-1.32.36-2.09,1-2.85a10.24,10.24,0,0,0,2.54-8.87,47.94,47.94,0,0,1,0-13.68c0.56-3.65.41-7.94,4.15-10.48a9.83,9.83,0,0,1,5.54-1.3,12.17,12.17,0,0,0,4.7,0c1-.13,1.94-1.53,3-0.59,1.45,1.25,3.21,2.23,3.92,4.18a15.79,15.79,0,0,0,.65,1.65c0.56,1.13,1.09,2.55,2.47,2.64s1-1.54,1.66-2.29c3.32-3.85,2.1-7.67-.32-11.39-0.72-1.1-.12-2,0.46-2.78,0.45-.61.65-1.76,1.79-1.49,1,0.22,1,1.22,1.45,1.95,1.47,2.67,1.94,5.73,2.76,8.57,0.68,2.33.9,5.74-2.47,7.35-1,.47-1.23,1.28-1,2.53a44,44,0,0,0,1.17,6.83,1.78,1.78,0,0,1-1.06,2.29c-0.86.46-1.63,1.21-1.27,2.24,1.08,3.14-.29,5.53-2.14,7.83-0.88-1.41-.81-2.79.57-3.74s1.11-2,.85-3.14-1.45-1.23-2.48-1.25c-1.57,0-2-.93-1.81-2.34a20.11,20.11,0,0,0-2.22-12.93h0Z"/><path class="cls-39" d="M300.24,54.52a8.25,8.25,0,0,0-1.53,5.21,4,4,0,0,1-.87,2.6,15.14,15.14,0,0,0-2.19,8.17c0,0.72.24,1.9-.68,1.91-1.2,0-.94-1.3-0.79-2,0.63-3-.24-6.31,1.8-9.21,1.19-1.69-.61-4,0.35-6a1.41,1.41,0,0,0-.72-0.56,1.12,1.12,0,0,0-1.35.87c-0.41,1.37-.76,2.75-1.13,4.13-0.88-3.18.49-5.85,2.09-8.39a12.28,12.28,0,0,1,4.65-4.76c2.46-1.3,2.54-4.42,3.65-6.73,1.81-3.75,1.66-3.72,5.36-2.36,1.56,0.57,3.32.63,4.61,1.87a15.46,15.46,0,0,1,1.89,6c0.23,1.41.89,1.86,2.19,1.69,0.81,2.14-.16,6-1.86,7.36a1.47,1.47,0,0,1-1.85.29,2.48,2.48,0,0,1-1-2.22c-0.08-1.29,1.24-2.5.28-3.84-0.63-.07-0.69.43-0.89,0.77-0.37.64-.56,1.53-1.56,1.39A1.71,1.71,0,0,1,309.38,49c-0.37-2.1-1.35-2.19-3.25-1.51A7.64,7.64,0,0,0,301,53,2.59,2.59,0,0,1,300.24,54.52Z"/><path class="cls-40" d="M268.69,23.44c0-.08,0-0.17,0-0.25,0.15-1.34-.56-3.35,1.28-3.6s1.59,1.71,1.89,3c0.33,1.44,1.63,2.32,2.33,3.56a13.68,13.68,0,0,0,1.08,1.39c1,1.27,1.86,3.06.51,4-1.58,1.16-2.14-1.21-3.16-2-0.84-.63-0.79-2.06-2-2.52h0a13,13,0,0,1-2-3.6h0Z"/><path class="cls-41" d="M324,25.4A3,3,0,0,1,321.2,25c-0.12-.92-0.28-2,0.65-2.5s1.58,0.25,2.23.73C325.07,23.93,324.26,24.67,324,25.4Z"/><path class="cls-37" d="M288.53,67.26a3.14,3.14,0,0,1,.44-1.13c0.54-.54.93-1.58,2-1.12a1.29,1.29,0,0,1,.54,1.75c-0.41,1.11-1.3,1.14-2.27.82a6,6,0,0,1-.68-0.32h0Z"/><path class="cls-42" d="M174.45,63.17c0.12,1.35,1,1.45,2.15,1.56,2.51,0.25,4.74-1,7.15-1.3a3.56,3.56,0,0,0,2.48-2.29c0.38-3.4,3.49-4.92,4.75-7.64a5.06,5.06,0,0,1,2-1.77c2.66-2,2.23-5.47,3.87-7.92a63.1,63.1,0,0,0,5.8-9.11c1.88-3.84,4.47-7.09,6.66-10.64,2.6-4.23,6.68-6.81,11.28-8.57,2-.76,3.29,1,5,1.19,1.52,1.12,2.35,1,2.22-1.15a2.77,2.77,0,0,1,.59-2.35,5.21,5.21,0,0,1,.74,6.34,68,68,0,0,0-5.4,12.54,8.67,8.67,0,0,1-4.72,5.69A5.77,5.77,0,0,0,216,41.55a21.39,21.39,0,0,1-7.15,9.61,28.56,28.56,0,0,0-8.41,10,16.39,16.39,0,0,1-4.44,5.8c-3.19,2.58-3.1,3.92.11,6.66,0.72,0.61.93,1.69,0.17,1.86-2,.43-3.05,2.4-5.08,2.55a17,17,0,0,1-1.36-3.24,2.52,2.52,0,0,0-2.4-2.46,7,7,0,0,1-5.07-3c-1.17-1.68-3.08-1.89-5-1.9-1.53,0-3.12,0-3.8-1.8C173.42,64.65,173,63.54,174.45,63.17Z"/><path class="cls-43" d="M174.45,63.17c-0.82.73-.37,1.7-0.49,2.56-1.25.24-2-1-3.26-1a13.71,13.71,0,0,0-10.88,5.16c-2.3,2.75-4.87,5.27-6.45,8.63a10.61,10.61,0,0,0-1,3.26c-1.23,3-2,6-.57,9.25a4.52,4.52,0,0,1-.83,4.51c-0.76.6-2.13,0.6-1.5,2.34,1,2.74.07,3.63-2.91,3.22a0.79,0.79,0,0,0-.71.07c-0.11.65,0.45,1,.68,1.56,0.85,2,.47,3.19-1.41,4.19a7.2,7.2,0,0,0-1.57.81c-0.54.49-1.43,1-.95,1.84a1.69,1.69,0,0,0,2.45.57c3.23-2.17,6.47-.94,9.88-0.55,3,0.34,5.07,3,8.21,2.63a1.37,1.37,0,0,1,1.34,2c-1.59,1.28-2.17,3.76-4.68,3.93a1,1,0,0,1-.86-0.45c-0.33-2.45-2.19-3.29-4-4.54-1.07-.75-1.17-0.19-1.7.14a1.47,1.47,0,0,0-2.27,0c-0.79-.23-1.51-0.62-2.18.4-1.24,1.89-2.7,1.74-4.15.16a2.49,2.49,0,0,0-1.8-.77,11.18,11.18,0,0,1-8.63-4.59c-1.83-2.49-1.07-5.36-1.12-8.08,0-1.8-.54-2.92-2.45-3.07a2.05,2.05,0,0,1-.68-0.42c-2.65-2-2.32-4.63-1.75-7.36a9.63,9.63,0,0,1,3.17-3.57c2.9-2.2,5.11-5.13,8-7.32,2.2-.81,3.13-3.12,5.06-4.27,1.93,0.4,1.44,1.57.66,2.54-2,2.54-3,5.7-5,8.51,0.83-.27.93-1,1.39-1.23,4.19-2.31,5.44-6.65,7.31-10.54,0.81-1.69,1.3-3.59,3.86-3.22,0.57,0.08.94-.65,1.36-1.06,1.27-1.24,2.15-2.81,3.59-3.93,1-.78.9-2.11,0.86-3.31-0.06-2.19.89-3.52,2.71-3.87,1.5-.28,2.14.3,3.05,2.91,1.35-1.74,2.89-3,5.17-2.52,1.54-.09,3.31,1.19,4.56-1.19C174.8,59.54,174.33,61.39,174.45,63.17Z"/><path class="cls-44" d="M191.28,78a8.36,8.36,0,0,0,2.24-1.6c0.55-.78,5.76-1.38.3-2.95-1.1-.32-1.19-4.46-0.09-5.23,4.58-3.19,6.41-8.34,9.28-12.74a12.16,12.16,0,0,1,4.32-3.83c3.45-1.92,4.43-5.89,7.39-8.15a2.37,2.37,0,0,0,.47-1.38c0.38-2.28,1.27-4.14,3.68-4.93a5.56,5.56,0,0,0,3.75-3.89c0.9-4,3.41-7.34,4.3-11.3a2.59,2.59,0,0,1,.6-1.34c2.5-2.19,1.86-4.74.93-7.34-1-.5-1-1.86-2-2.54-1.25,2-.25,4.19-1.09,6.1-0.18,1.24-.71.57-1.1,0.17a3.65,3.65,0,0,0-4.66-.53c-4.25,2.27-8.41,4.63-10.5,9.38-0.82,1.86-3,2.79-3.65,4.81-1.48,4.28-4.81,7.5-6.75,11.52a3.26,3.26,0,0,1-1.85,1.63c0.22-2.1.53-4.21,2.14-5.75a9,9,0,0,0,2.26-5c0.49-2.43,2.2-4.31,2.51-6.83,0.16-1.29,1.41-2.48,2.58-3.35,5.53-4.08,9.81-9.39,14.31-14.47,1.42-1.6,6.7-1.52,8.26.24,4.3,5.78,2,11.65.17,17.46a45.15,45.15,0,0,1-3.17,8.19c-2.11,3.94-5.41,7.07-7.29,11s-5.53,6.29-7.47,10c-0.92,1.78-1.2,3.57,0,5.24,1.64,2.33.59,4-1,5.81s-3.58,3.38-4.16,5.92c-0.31,3.06-2.92,3.56-5.08,4.57a1.67,1.67,0,0,1-.58.41c-3.3-1.81-6.17-.9-8.85,1.34a1.44,1.44,0,0,1-.7-0.18C190.61,78,190.78,77.86,191.28,78Z"/><path class="cls-45" d="M187.21,47.26c0.46-1.86-.79-3.06-0.6-4.55,0.11-.88-0.66-0.6-1.27-0.54-2.46.2-4,2.36-6.39,2.8-1.26.23-2.58,0.92-3.55-.15s0-2.25.42-3.29a7.7,7.7,0,0,1,4.36-4.89c1-.4,1.62-0.32,1.88.81,0.68,2.94,1.94,3.62,4.91,2.06a25.62,25.62,0,0,0,6.49-4.26A5.05,5.05,0,0,1,196.14,34c0.74-.17,1.57-0.67,2.06.15a2,2,0,0,1-.35,2.35c-2,2.28-2.31,5.31-3.49,8-0.79,1.78-1.36,3.65-2.85,5-0.71.64-1.29,1.94-2.45,1.32a3.86,3.86,0,0,1-1.84-2.87A2.1,2.1,0,0,1,187.21,47.26Z"/><path class="cls-46" d="M169.37,58.6c-2,.69-4.06,1.15-4.87,3.47a0.6,0.6,0,0,1-.85.32,1.1,1.1,0,0,1-.4-1.12c-0.08-1.13.26-2.77-1.53-2.57-1.58.18-3.2,1-3,3.06,0.45,4.53-3.66,6.39-5.5,9.57a0.53,0.53,0,0,1-.43.21c-2.64-1.84-2.52.73-3.24,2-1.12,2-2.33,3.89-2.54,6.2-0.17,1.9-2.1,2.05-3.13,3.05-1.36,1.32-2.64,2.72-4,4.21a1.6,1.6,0,0,1-.24-2.3c2.21-2.5,2.66-6.06,5.12-8.38,0.91-.86.53-1.46-0.35-2a1.43,1.43,0,0,1,.43-0.61c4.72-1,6.3-5.81,10-8,0.42-.25.68-0.82,1.27-0.69,1.87,0.44,1.88-1,2-2.1s-0.13-2.23-1.65-2.29a1.06,1.06,0,0,1-1.25-.62c-0.59-3.18-2.36-6.16-1.65-9.57,0.25-1.19.7-2,2-1-2.12,1.7-1.5,3.54-.08,5.2,1.28,1.5,2.26,3.74,5,2.6,1.09-.45,1.82-0.73,1.26-2.12a1,1,0,0,1,1-1.55c0.71,0.38.9,1.46,1.9,1.44a0.4,0.4,0,0,0,.42-0.47c-0.23-1-1.39-.78-1.88-1.45,2.45-1,4.12-.36,4.8,2A13.73,13.73,0,0,0,169.37,58.6Z"/><path class="cls-47" d="M186.76,51.4c0,0.24.07,0.65,0.17,1.05,1.08,4.69-1.52,7.72-6.26,7.11-1.41-.18-3.11-0.22-3.75-2a5.15,5.15,0,0,1,1-5.17c2.1-2.65,5.29-2.28,8.13-2.77C187,49.42,187.21,50.36,186.76,51.4Z"/><path class="cls-48" d="M159.26,46.37c-0.48,2.12-2,2.17-3.51,1.51-1.75-.77-1.28-2.27-0.67-3.64C158.29,43.23,158.64,43.42,159.26,46.37Z"/><path class="cls-49" d="M163.28,53.06h0.25c1.23,0,2.5.06,2.67,1.67A1.08,1.08,0,0,1,165,55.79c-1.51.06-2.08-.88-2.15-2.25Z"/><path class="cls-50" d="M103.08,60.23c3.22-5.07,6-10.31,6.75-16.4,0.44-1.25,1.22-2.38,1-3.86-0.17-1.12.62-1.87,1.52-2.44a12.78,12.78,0,0,0,5.33-6.8,10.94,10.94,0,0,1,5.8-6.23c0.42,1.77,1.79,2.33,3.37,2.55,4.19,0.58,6.76,3.3,8.9,6.61-1.11,1.88-1.88,3.95-2.9,5.85-1.18,2.22-2.5,4.6-6,4-1.58-.27-3,1.36-4.52,2A20.83,20.83,0,0,0,115,49.91c-1.31,1.3-2.37,2.64-2.3,4.6a1.68,1.68,0,0,1-.84,1.73c-2.8,1.18-2.65,4.62-4.86,6.26a3.36,3.36,0,0,0-.37,1.45c-1.5,2.48-1.31,5.18-1.05,7.9-0.21.78-.21,1.65-1,2.17A19.91,19.91,0,0,1,103.08,60.23Z"/><path class="cls-51" d="M86.87,22.95c1.08,0.67,2,1.64,3.45,1.57a2.53,2.53,0,0,0,1.54,1c1.47,1.83.71,3.58-.44,5.08a7.51,7.51,0,0,0-1.34,6,12.12,12.12,0,0,1-.28,5.47c-0.57,2-.72,3.91,1.13,5.58s1,3.94.82,6a11.43,11.43,0,0,1-5.47,3.93c-1.48-1.48-1.43-3.7-2.75-5.34-2.17-2.69-2-3.39.28-6.47,1.39-1.68,1.42-3-1-3.55-3.31-2.09-6.71-1-10.09-.27-1.25.28-2.47,0.73-3.63-.22-0.72-3.56-.71-7,1.35-10.2,0.62-1,1.55-1.44,2.52-.41s2,1.05,3,0a1.36,1.36,0,0,1,1.83-.23,5.89,5.89,0,0,0,6.42-.35,37.56,37.56,0,0,1,4-2c1.63-.78,2-1.77.47-3C87.78,24.85,86.91,24.2,86.87,22.95Z"/><path class="cls-52" d="M100,89.63c0.3-.71,1.55-1.07.32-2.26s-2-3.66-4.69-2.55c-3.4,1.39-3.73,1.2-5.24-2.08-0.49-1.05-.53-2.32-1.53-3.13a1,1,0,0,1-.17-1.17c0.34-1.22,4.3-4.13,5.47-3.68,1.55,0.6,4-1.15,4.68,1.68,0.41,1.72,2.06,2.95,1.86,4.91-0.07.64-.15,1.46,0.76,1.64,0.76,0.15,1.59.2,1.68-.94,1.12-.5.89-1.8,1.53-2.59,1.56,2.66,0,4.78-1,6.79,2-2.42,3.92-.27,5.91.62,0.87,0.79,2,1.13,2.85,2a1.88,1.88,0,0,1,.6,2,1.42,1.42,0,0,1-1.72.68,24.76,24.76,0,0,0-4,.31c-1.58,0-2.17,1-2.35,2.41a10.63,10.63,0,0,0,.41,4.71,4.32,4.32,0,0,1,.21,2.7c-0.48,1-1.46,2.39-2.24,2.07-1.5-.6-3.13-0.05-4.48-0.88a1.15,1.15,0,0,1-.44-1.55c1-1.11,3.21,0,3.74-1.59,0.46-1.36-.94-2.64-1.14-4.07-0.06-.42-0.16-0.83-0.24-1.25C100.48,92.86,101.52,91,100,89.63Z"/><path class="cls-53" d="M91.41,54a2.43,2.43,0,0,1-.26-1.93,3.49,3.49,0,0,0-.85-4.13c-2.09-2.07-1.69-4.57-.9-7a5,5,0,0,0,.24-2.9c-0.65-2.78-.92-5.55,1.42-7.9,1.25-1.25,1-3,.81-4.56C93.33,25.22,94,26,94,27.31c0,2.09.81,4.28-1.86,5.74-1.38.75-.86,2.55-0.13,3.89,2,3.73,2,3.74-1,6.52-0.62.57-1.67,1.13-.89,2s1.26-.33,1.79-0.78c2.33-2,2.45-1.91,3.28,1.18,0.22,0.8.68,1.56,0.81,2.37,0.24,1.49.53,3-1.22,4-0.85.47-.83,1.4-0.73,2.27a3,3,0,0,1-1,3.73c-1.5,1.22-2.73,2.77-4.11,4.15-0.44.43-.9,1.21-1.61,0.27a3.06,3.06,0,0,1,.81-2.77,2.36,2.36,0,0,0,.59-2.31C88.7,55.67,91.21,55.71,91.41,54Z"/><path class="cls-54" d="M109.27,87.09a2,2,0,0,1-1-.14c-2.08-2-3.87-1.15-5.68.61,1.23-2.65,2.55-5.15,2.06-8.09l0-5.46c0.3-.68-0.22-1.56.53-2.12A7.33,7.33,0,0,1,106.91,76a44.6,44.6,0,0,1,.55,5.54c-0.09,1.86.9,2.75,2.7,3a19.27,19.27,0,0,1,3.73.73,4.64,4.64,0,0,1,2.94,3c-0.1,2.37.35,4.84-1.18,7a1.34,1.34,0,0,1-1.73-1.55C114.12,90.14,112.26,88.24,109.27,87.09Z"/><path class="cls-55" d="M132.69,60.16a4.06,4.06,0,0,1,2-2.37A4.07,4.07,0,0,0,137.3,53c2.2,1.12,4.39.28,6.59,0-0.46,1.13-3,.64-2.15,2.8,1.05,2.81,3.82,5.45,5.89,5.2,1.85-.22,3.59.57,5.46,0.3,0.91-.13,1.66.79,1.9,1.78s-0.74,1.14-1.29,1.61c-1.74,1.48-4.23,1.75-5.73,3.61-2.51,1.18-4.73,2.87-7.33,3.91-3,1.2-4.19.58-4-2.68,0.12-2.45-1.69-2.59-3.17-3.27-1.32-.6-3.16-0.11-4-1.84C130.36,62.83,132,61.88,132.69,60.16Z"/><path class="cls-56" d="M126.73,15c0,1.69-.78,2.36-2.16,2.34a2.05,2.05,0,0,1-2.25-2.17c0-1.38.8-2,2.08-1.92S126.78,13.56,126.73,15Z"/><path class="cls-57" d="M139.54,49.89c0.81,0.08,1.81-.25,1.82,1.11a1.73,1.73,0,0,1-1.56,1.9c-1.27.17-1.76-.93-1.93-1.85C137.62,49.75,138.84,50.06,139.54,49.89Z"/><path class="cls-58" d="M300.24,54.52c0.33-4.41,3-7.63,7.26-8.38,1.66-.3,2.47.73,2.43,2.41,0,0.68,0,1.51.82,1.64s0.67-.81.93-1.27c0.42-.75.4-2.27,1.59-1.83s1.32,2,1,3c-0.52,1.51-1.75,3.49.2,4,1.7,0.46,1.83-2.22,2.51-3.54a6.1,6.1,0,0,0,.59-3.7c0.57-1.46,1.12-2.93,1.73-4.37,0.49-1.14,1.1-1.82,2.07-.33a2.55,2.55,0,0,0,1,1.08c4.3,1.44,2.84,4.9,2.82,7.86a2.31,2.31,0,0,1-1.61,2.32c-5.46,2.09-8.07,6.49-9.61,11.77-0.39,3-1.75,5.77-1.38,8.88,0.13,1.07-2.43,2.48-4.15,2.36-1.3-.08-1.33-1.16-1.31-2a25.11,25.11,0,0,0-.77-5c-0.29-1.71-.32-3.36,1-4.74,1.23-1.92,1.34-4.16,1.46-6.3,0.1-1.87-1.57-3.21-2.3-4.87-0.34-.77-1.33-0.66-1.94,0a9.16,9.16,0,0,0-1.12,1.67c-0.46.82-.91,1.88-1.94,1.73C300.29,56.77,300.3,55.54,300.24,54.52Z"/><path class="cls-59" d="M307.37,64.72c-1.08,3.86-.13,7.58.4,11.41,1.31-.27,2-1.37,3.07-1.14,1.45,0.32,1.64-.26,1.35-1.45-0.76-3.07.6-5.68,1.8-8.32q0,1.8,0,3.59c0,3-1.8,5.79-.56,8.85a14.28,14.28,0,0,1,.55,2.71c0.12,0.62.87,1.34,0.17,1.85s-1.09-.57-1.72-0.74a8.1,8.1,0,0,0-3.72-3.24c-1.72-.61-1.86-2.43-1.9-4.11-0.06-2.2-.29-4.25-3-5-1.4-.41-2.06,0-2,1.27,0.07,4.82-.4,9.65.27,14.47,0.22,1.58.15,3.21,0.22,4.82-0.66-2.62-1.9-5.17-1.09-8a2.5,2.5,0,0,0,0-1,43.6,43.6,0,0,1,1.55-19.87c0.39-1.2.7-2.42,1.11-3.6a1.14,1.14,0,0,1,1.41-.77,1.08,1.08,0,0,1,1,1,5.6,5.6,0,0,1-.18,2.49C305,62,305.86,63.4,307.37,64.72Z"/><path class="cls-60" d="M129.65,64.21c1.46,1.54,3.68.91,5.37,1.88,1.5,0.86,3.16,1.35,2.13,3.71a2,2,0,0,0,.57,2.28,2.83,2.83,0,0,0,2.82-.56c1.55-1.18,3.8-1.06,5-2.92,0.45-.69,1.59-0.27,2.42-0.32-1.37,2.33-2.8,4.54-5.24,6-1.6,1-2.49,2.68-3.38,4.31-2.78,4.32-7.14,7-10.67,10.6-0.65,1.57-.39,3.3-0.91,4.89a1,1,0,0,0,.83,1.51,2.85,2.85,0,0,1,1.58,1.19h0c2.31,1.6,2.3,4.23,2.78,6.57,0.22,1.08-.72,1.82-1.92,1.9a1.18,1.18,0,0,1-.66-0.34c-0.59-1.31-1.94-2.1-2.43-3.49,0.6-1.42.41-2.59-1-3.39a2.69,2.69,0,0,1-1.37-1.4,22.38,22.38,0,0,1-1-3.92c-0.36-2-.59-4-2.24-5.53a1.82,1.82,0,0,1-.69-1.33c0.26-3.58-.38-7.21.94-10.73,1.13-3,2.28-6.1,1.72-9.46-0.27-1.64.58-2.43,2.09-2.47A4.27,4.27,0,0,1,129.65,64.21Z"/><path class="cls-24" d="M255.05,15.34a6,6,0,0,1,3.43-2.61,1.87,1.87,0,0,1-.55,2.84,2,2,0,0,0-.91.82c-0.33,3.7-3.74,6.3-3.61,10.15a3.56,3.56,0,0,1,.28,2.35,1.27,1.27,0,0,1-.46.5A6.83,6.83,0,0,0,249,33.07c-0.33.59-.59,1.22-1,1.77-2.68,3.8-3.42,7.8-1.35,12.13a2,2,0,0,1-.27,1.5c-1.52.61-1.81,1.79-2.11,3.34-1,4.92.22,9.53,1.49,14.16,0.46,1.66.34,3-1.27,3.91a0.8,0.8,0,0,1-.75-0.05c-2.46-4.17-2.69-9-3.62-13.52a9.09,9.09,0,0,1,.82-5.7A14.83,14.83,0,0,0,242.29,44c-0.05-5.61,2-10.56,5-15.18,0.27-.42.49-0.87,0.73-1.31,0.38-2.84,2.7-4.61,3.88-7C252.76,18.64,253.26,16.59,255.05,15.34Z"/><path class="cls-61" d="M244.31,69.6a2.83,2.83,0,0,0,.88-3.52,32.53,32.53,0,0,1-1.48-16c0.24-1.73,1.18-2,2.64-1.66,1.48-.15,3.06-0.65,4,1.13,0.33,2.12-1.94,1.71-2.72,2.72,0.23,0.79,1,.65,1.46.9,1.19,0.6,2.85.75,0.94,2.74-1.71,1.79-.23,4.26-0.07,6.33,0.29,3.58.68,7.09-.15,10.63-0.79,1.49-1.44,3.2-3.64,1.61-0.83-.6-2.15.85-2.89-0.56l0.08-1.14C244.4,71.93,245.18,71,244.31,69.6Z"/><path class="cls-62" d="M228.34,73.45c1.33,0,1.27,1.48,2.17,1.93a5,5,0,0,0,4.14.18c1.66-.54,2.38-0.37,2,1.64a7.91,7.91,0,0,0,.39,4.46c1.25,1.7.54,3.38-.25,4.92a5.87,5.87,0,0,0-.59,4.78,1.53,1.53,0,0,1-2,1,1.08,1.08,0,0,1-.74-1.74c-0.07-1.21.43-2.54-.94-3.5,3.59-.73,3.81-1.26,1.85-4a1.38,1.38,0,0,1-.39-0.64c0.55-5.4-4.34-5-7.17-6.91-2.26-1.51-4.7-2.93-6.11-5.43-0.28-.5-0.71-1.08-0.15-1.6,0.37-.35.78,0.1,1.16,0.23A27.05,27.05,0,0,0,228.34,73.45Z"/><path class="cls-13" d="M246.51,54.86c2.88,1.42,6.24-2.63,9.14,2,0.73,1.16,2.25-4.17,4.39-4.92-1.94,6.18,1.19,12.36,0,18.54-1.84,1.87-2.85,4.66-4.19,7.08a7.38,7.38,0,0,1-3.14,4.25c0.44-2.89,1.59-5.77.05-8.68,1-2.14,1.81-4.42-.29-6.11-1.7-1.36-3,.3-4.12,1.82a19.11,19.11,0,0,0-3.58,8.33c2-.8,2.36-4.8,4.7-4-0.36,3-.64,6.19-2.39,8.22-1.31,1.53-3.32,3.42-4.68,3-1.57-.45-0.9-3.42-0.46-5.48a2,2,0,0,0-1.68-2.75,12.69,12.69,0,0,1,2.1-6.18C245.57,65.87,246.68,60.7,246.51,54.86Z"/><path class="cls-63" d="M252.3,20.81L248,27.48c-1.8,0-2,1.68-2.82,2.84-1.48-2.41,1.35-3.16,1.54-4.82,1.35-2.35,3.4-4.21,4.54-6.71,0.31-.24.72-0.68,1-0.35A1.87,1.87,0,0,1,252.3,20.81Z"/><path class="cls-64" d="M236.12,91.23a2.09,2.09,0,0,1-.8-3.22c1.75-1.91,1.49-4.16,1.78-6.35,0.66-.41,1.07-2.15,2.09-0.58,0.3,0.46-.23,1.46.31,2.13l-0.46.69A48.13,48.13,0,0,0,237.73,90C237.47,90.74,237.37,91.73,236.12,91.23Z"/><path class="cls-65" d="M244.31,69.6c0.7,0.17,1.62.19,1.42,1.27a2,2,0,0,1-2.38,1.9c-0.93-1.13-.2-2,0.41-2.94Z"/><path class="cls-66" d="M123.48,24.51c-2.94,2.88-5.67,5.8-6.73,10-0.43,1.7-2.71,2.31-4.11,3.45-0.89.73-1.57,1.36-1.27,2.47,0.44,1.61-.29,2.58-1.54,3.36-2.4-1.2-3.62-2.82-2.69-5.73a3.68,3.68,0,0,0-1.12-3,2.75,2.75,0,0,1-.85-3.07c0.17-.66,0-1.53-0.94-1.43-1.78.18-1.74-1-2.28-2.21-1.34-3-2.92-6-6.15-7.63-1.28-.63-2.6-1.29-2.78-3,0.4-1.95-1.48-3-1.85-4.62-0.13-.6-1-1.23-0.27-1.77s1.12,0.28,1.59.8c1.22,1.37,2.3,1.09,2.93-1a6.47,6.47,0,0,1,5.34-4.72c1.32-.3,1.9,0,2.47,1.27C104,9.53,105,11.19,105.62,13c0.3,0.83.74,1.8,2,1.39,0.87-.28,1.1.62,1.65,0.92,2.63,0.31,5.18.29,6.72,3.35,1.08,2.13,3.48,1.32,5.42.68C123.3,20.59,123.06,22.68,123.48,24.51Z"/><path class="cls-67" d="M116.33,88.23c-1.3-3-4.23-2.77-6.66-3.07-2.06-.25-3-1.19-2.94-3,0.06-2.11-.4-4.16-0.42-6.24a1.08,1.08,0,0,1,1,.12c2,1.26,3.38.75,4.46-1.25a7.93,7.93,0,0,1,2-1.91,14.26,14.26,0,0,1,5.45-3.08c2.55-.84,2.72-1.94.7-3.58a3.09,3.09,0,0,1-1-3.61,2.58,2.58,0,0,1,2.79-2.1c2.27,0.07,2.4-1.44,2.73-3.11s-0.69-2-1.9-2.35a1.11,1.11,0,0,1-1.1-1.17c0.17-1.06,1.38-.79,2.08-1.49-0.9-.49-1.83-0.18-2.66-0.36s-1.84.29-1.81-1.12c2.64-1.32,5.4-.86,8.09-0.41,1.63,0.27,1.68,1.7,1.08,3-0.38.82-1.16,1.49-.55,2.5a5.23,5.23,0,0,0,.83.92,1.16,1.16,0,0,1,.51,1.7,1.19,1.19,0,0,1-1.79.11c-1.23-.9-1.62-0.45-1.55.87a1.64,1.64,0,0,1-1.39,2,1.27,1.27,0,0,0-1.11,1.44c2.22,4.6-.19,8.26-2.47,11.91-0.52.84-1.46,0.66-2.32,0.56A2,2,0,0,0,116,76.81c-0.43,1.06.56,1.44,1.18,2,2.33,2,4.57,4.05,3.94,7.66-0.27,1.52-.68,2.78-2.23,3.37C117.61,90,117.63,88.06,116.33,88.23Z"/><path class="cls-68" d="M127.59,56c-0.88-.87-0.37-1.63.13-2.46,0.67-1.11.62-2.43-.83-2.5-2.64-.13-5.34-0.62-7.95.3-0.73,1.24-2.29,1.38-3.19,2.39a9.56,9.56,0,0,0-2.55,3,9.45,9.45,0,0,1-1.07,2.12c-2.1,1.47-3.65,3.61-5.93,4.86,0.06-.83-0.18-1.8.68-2.32,1.2-.72,1.29-2.41,2-3,2.67-2,2.75-5.28,4.45-7.65,2.33-3.27,6-4.76,9.59-6.31,0.92-.4,2-0.48,2.52-1.45a1,1,0,0,1,1.24-.6c0.81,0.3,1.51,1.4,2.47.5,1.41-1.31,3-2.48,3.56-4.51,0.51-1.88,1.08-3.77,3-4.77,2,1.89,1.2,4.34.73,6.34-0.59,2.53-1.63,5-4.17,6.62C129,48.75,129,52.79,127.59,56Z"/><path class="cls-69" d="M118.45,89.74c3.66-2.37,2.63-7.54-1.69-10.55-0.91-.63-2.59-1-1.61-2.51,0.77-1.22,1.72-3,3.78-1.62a0.91,0.91,0,0,0,1.43-.5c1-1.94,2.19-3.82,2.92-5.78,0.61-1.65-.52-3.75-0.18-5.69a55.58,55.58,0,0,1,9.6-3c0.3,2.34-1.35,3.21-3,4.05a14.44,14.44,0,0,1-1.76-.17c-3.16-.68-3.36-0.48-2.47,2.54a1.16,1.16,0,0,1,.1.73c-1.45,2.42-.62,5.49-2.29,7.84a5.53,5.53,0,0,0-.81,3.85,11.14,11.14,0,0,1-.27,4.51c-0.37,1.14-.44,2.7.65,3.27,2.34,1.23,1.93,3.72,2.44,5.51a14.22,14.22,0,0,1,.83,4.53,0.69,0.69,0,0,1-.41.25c-2.52-1.27-5.48-1.29-7.92-2.79A5.76,5.76,0,0,1,118.45,89.74Z"/><path class="cls-70" d="M121.43,19.33c-2.67,2.29-5.34,1.74-6.62-1.4a2.36,2.36,0,0,0-2.56-1.62,3.21,3.21,0,0,1-3-1c0-1.28,0-2.49-1.86-2.18a0.94,0.94,0,0,1-.49-0.06c-1.15-.48-3.23-6.07-2.77-7.42,1.48-.62,1.9.92,2.12,1.5,1.85,4.95,5.36,7.68,10.42,9C118.44,16.59,119.86,18.23,121.43,19.33Z"/><path class="cls-71" d="M191.28,78l-0.44.56q0,0.23-.08.46c-0.16.2-.27,0.43-0.42,0.63a5.9,5.9,0,0,0-.29,5.84c1.05,1.68-.4,4.23-2.61,4.58-1.24-2.75-1.77-3-4.64-2.49-4.42.82-8.47,2.36-11.58,5.79a5.36,5.36,0,0,1-2.45,1.25,6.06,6.06,0,0,0-2.78,1.7,2.52,2.52,0,0,0-.5,2.16c0.23,1.1,1.1.34,1.67,0.47,1.27,0.28,3-.11,3.44,1.51s-1.23,2.4-2.43,3.16a4.48,4.48,0,0,1-2.38.82,7.71,7.71,0,0,0-4.77,1.3c-1,.71-2.29.44-3.46,0.18a16.78,16.78,0,0,0-3.79-.18,2,2,0,0,1-2-1.36,1.74,1.74,0,0,1,.41-1.87c1.68-2,1.57-2.91-.71-4.4-1.11-.73-2-1.38-1-2.79a6.73,6.73,0,0,0,.13-5.61,8.3,8.3,0,0,1,1.39-8.13c1.31,0,1,1.14,1.27,1.82a3,3,0,0,0,3,2.26c1.86,0,3.72,0,5.58.21a4.73,4.73,0,0,0,3.69-1.4c2.76-2.41,4.79-2.5,7.92-.51a1,1,0,0,0,1.37.09c1.57-1.65,4-1.65,5.74-3.14,1.23-1,2.85-2.23,4.88-1.47,0.88,0.33,1.09-.56,1.47-1.09,0.92-1.3,1.68-2.76,3.29-3.4A3.43,3.43,0,0,1,191.28,78Z"/><path class="cls-72" d="M195.28,83.08c1.57-.11,3.09,0,4.63-0.87s3.06,0.35,4.31,1.36c1,0.79,1.88,1.68,2.82,2.53,2.85,0.3,3.55,1.67,2,3.85s-4.65,2.54-6.58,4.39a3.32,3.32,0,0,0-1.72,1.44,21.56,21.56,0,0,1-6,6.41,29.33,29.33,0,0,0-6.46,6.73c-1.56,2.34-4,3.87-6.2,5.57a1.37,1.37,0,0,1-1.64.2c-0.76-.7-1.73-0.54-2.63-0.67a1.55,1.55,0,0,1-1.44-1.23,1.29,1.29,0,0,1,1-1.56c1.88-.47,3.52-1.74,5.5-1.78a3.66,3.66,0,0,0,3.39-2.17c1.79-3.25,3.65-6.44,5.69-9.54a14.7,14.7,0,0,1,4-4.45c4-2.89,3.8-6.43-.18-9.38A0.88,0.88,0,0,1,195.28,83.08Z"/><path class="cls-73" d="M202,93.75c1.91-.78,3.56-2,5.42-2.93,2.79-1.35,2.5-3.2-.34-4.72-0.17-1.46-1.52-2.18-2.13-3.37-0.34-.68-1.76-0.73-1.56-1.47a5.94,5.94,0,0,1,1.79-3c3-2.35,4.75-5.55,6.54-8.71,1.24-2.19,3.7-3.48,4.13-6.27a12.79,12.79,0,0,0,.08-4.47c-0.87-4.67.57-9.15,4.91-10.89-0.91,2.05-2.36,3.78-3.32,5.85a7.78,7.78,0,0,0-.66,5.54,8.39,8.39,0,0,1-.56,6.11,6.41,6.41,0,0,0-.58,3.87c-0.48,2,0,4,.2,6-1.79-.62-2.92.23-3.75,1.71-0.56,0-1-1.18-1.72.05s-1.32,2.08.08,3.05A28.2,28.2,0,0,1,215,83.8c1.6,1.7,1.08,3.79,1.16,5.75a1.07,1.07,0,0,1-1.33.89c-3.75.93-7.61,1.52-10.33,4.79a3.85,3.85,0,0,0-1,3.44c-1.39,1.15-2.18.19-3-.83C199.82,96.07,201.07,95,202,93.75Z"/><path class="cls-42" d="M195.28,83.08c3.32,1.57,4.28,3.06,4.15,6.09a5.59,5.59,0,0,1-2.56,4.16,25.69,25.69,0,0,0-4.58,4.49c-1,1.45-2.14,2.77-3,4.3s-2.29,2.44-4.19,1.41a5.24,5.24,0,0,1,.78-4.81c1.21-1.46,1.4-2.59.37-4.27-1.16-1.89-.62-3,1.5-4.25,3.1-4,3.54-3.78-1.91-7.43L190.75,79C190.76,82.75,191.12,83.08,195.28,83.08Z"/><path class="cls-72" d="M201,76.93a1.23,1.23,0,0,1,1.1-1.43c2.3,0.11,3.07-1.57,4-3.14a5.7,5.7,0,0,1-.57,3C204.5,77.62,203.23,78,201,76.93Z"/><path class="cls-74" d="M194,82c-0.82,0-1.63-.18-1.55-1.18a2,2,0,0,1,2.1-2c0.75,0,1.41.07,1.31,1C195.75,81,195.47,82,194,82Z"/><path class="cls-75" d="M214.7,90.16a1,1,0,0,0,1.17-1.06c-0.36-2.63-.51-5.39-3.32-6.86a23.84,23.84,0,0,1-2.13-1.35c-2.07-1.37-2-3.46.1-4.89,1.29-.88.94,0.71,1.5,0.91a5.06,5.06,0,0,0,3.63-1.46,1.85,1.85,0,0,0,0-1c-2.09-1.77-.71-3.48,0-5.2,1.75-.53,1.22-2.73,2.58-3.55-1,2.55-.28,4.73,1.41,6.76,1.1,1.32.52,3.23,1.5,4.71,0.35,0.54-.37,1.51-1.35,1.82a1.61,1.61,0,0,0-1.26,1.63c-0.14,2.65.95,3.46,4.73,3.3a4.45,4.45,0,0,1,4.14,5.67,1.09,1.09,0,0,1-.55.82c-3.2,1.2-5.6,3.73-8.65,5.18a3.51,3.51,0,0,1-1.13.16c-2.18-.2-6.56,2.31-7.51,4.47a3.93,3.93,0,0,1-2.66,2.4,36.12,36.12,0,0,0-12.58,6.77c-1.84,1.54-2.48,1.33-2.91-.85a7.66,7.66,0,0,1,4.46-5.06c1.67-.76,2.3-2.57,3.18-4.08,0.44-.75.59-1.84,1.85-1.69,0.82,0.31,1.41,1.79,2.53.48,0.23-1.5,1.45-2,2.62-2.44,2-.69,3.69-2.09,5.67-2.82C213.23,92.46,213,90.38,214.7,90.16Z"/><path class="cls-76" d="M218.24,95.22a38.91,38.91,0,0,1,9.2-5.58,14.79,14.79,0,0,1,3.14-.77,2.79,2.79,0,0,1,2.94,1.8c0.42,2.23,1.5,1.44,2.6.57,0.94-.09,1-0.77,1-1.5,1.43,0.82.6,2,.44,3-1.15,6.91-7.26,10.25-11,15.25-1,1.31-3.27.9-4.15,2.6-0.75.59-1.16,2.06-2.31,1.61s-1.33-1.84-1.31-3.05a4.6,4.6,0,0,0-.48-2.43c-1.18-2.18-.9-3.27,1.4-4.37,2.13-1,4.22-2.13,6.3-3.24,0.56-.3,1.41-0.68.94-1.48-0.35-.6-1.09-0.17-1.62,0-1.49.56-2.89,1.41-4.59,1.27C218.44,98.72,217.59,97.5,218.24,95.22Z"/><path class="cls-77" d="M228.34,73.45c-2.95-.5-5.35-1.76-6.58-4.67-0.17-6.15,3.88-9.35,8.72-9.42l1,0.54c0.17,1.39-.28,1.7-1.71,1.33-3.4-.88-5,2.47-5.45,5.92-0.45,3.6,1.73,4.17,4,5.18C229,72.64,228.87,73.06,228.34,73.45Z"/><path class="cls-78" d="M235.1,85.57a0.85,0.85,0,0,1-1.09.71,1.3,1.3,0,0,1-1.5-1c-0.1-.81.56-0.9,1.18-0.88A1.46,1.46,0,0,1,235.1,85.57Z"/><path class="cls-75" d="M219.29,63.69c-0.26-1.41.46-2.7,0.52-4.07A3.07,3.07,0,0,1,219.29,63.69Z"/><path class="cls-79" d="M253.45,29.48c0.42-1-1.06-1.91,0-2.86a9.41,9.41,0,0,1,7.56-.1c4.11,1.76,8.66,3,10.68,7.52-1.64.28-1,1.2-.68,2.12a9.7,9.7,0,0,1-5.36,12.71c-0.53-1.09.25-1.78,0.83-2.5,2.12-2.66,2.37-5.7,1.87-8.85-0.57-3.57-3.43-5-6.42-6.3-2.17-1.1-4.37-2-6.91-1.31A1.62,1.62,0,0,1,253.45,29.48Z"/><path class="cls-3" d="M268.69,23.45a11,11,0,0,1,2,3.6A3.89,3.89,0,0,1,268.69,23.45Z"/><path class="cls-80" d="M252.3,20.81c-0.24-.72.95-2.18-1-2l2.62-4.59a1.2,1.2,0,0,1,1.16,1.14Z"/><path class="cls-81" d="M50.32,210.2c0.76,0.9,1.91.57,2.85,0.78,5.23,1.17,6.52,3.5,4.39,8.29,0,0.08,0,.17-0.08.24-0.84,1.85-.62,4.35-3.13,5.17-3.5,1.14-7.07,1.76-10.67.66a5.24,5.24,0,0,1-3.29-6.06c0.25-1.4.06-2.92,0.49-4.25,1.25-3.91,3.89-5.79,8.15-4.84a5.91,5.91,0,0,0,1.27,0h0Z"/><path class="cls-82" d="M291.61,90.2c1-.54,1.75,0,2.47.6-0.38,1,1.22,2.56-.64,2.9-1.68.31-1.17-1.71-1.88-2.53A1.85,1.85,0,0,1,291.61,90.2Z"/><path class="cls-83" d="M262.05,76.94a1.55,1.55,0,0,0,1-1.51c-0.66-1.42-1.47-2.35-3-.94a0.45,0.45,0,0,1-.19-0.39,0.24,0.24,0,0,1,.07-0.22,3.52,3.52,0,0,0-.11-1.25c-1.09-2.2-1.23-4.19.48-6.28,0.81-1,.66-2.39.23-3.84a32.93,32.93,0,0,1-1-7.2c-0.09-1.42.62-1.92,2.36-2.05,5.32-.4,7.17,3.15,9.13,6.95,0.48,0.92,1,4.94,2.94.5,0.43-1,1.51.19,1.65,0.9,0.29,1.48.64,3.18-.15,4.48-2.07,3.42-1.56,7.36-2.52,11a1.51,1.51,0,0,0,1.15,1.74c1,0.44,2.63.55,2.52,1.74-0.16,1.84.72,3.81-.62,5.59-0.9,1.19-1.66,2.17-3.41,2.1a11.72,11.72,0,0,0-3.39.9c-0.93-1.84.46-1.94,1.64-2.13,2.87-.48,3.77-1.38,4.12-4.15,0.12-.92.2-1.77-1.19-1.55-2.16.34-2.6-1-2.69-2.75s0.46-3.52.56-5.3a4.63,4.63,0,0,0-3.91-5c-2.88-.5-4.92-5.08-3.27-7.5,0.77-1.14,1.42-2.14.34-3.39a1.29,1.29,0,0,0-1.32-.57,1,1,0,0,0-.67,1c-0.36,5.13-1.23,10.37,3.15,14.49,1.53,1.44.9,3.53,1.42,5.28A3.66,3.66,0,0,1,265.73,82c-1.52,1.07-.95,2.32.5,3.2s2.33,2,1.69,3.77a10.92,10.92,0,0,1-3.7,1.5,1.92,1.92,0,0,1-2.14-.3c-0.65-.69-0.29-1.41.15-2.06,0.85-1.26.42-1.82-.93-2.4-2.66-1.15-3.24-3.5-1.67-6C260.3,78.71,260.78,77.48,262.05,76.94Z"/><path class="cls-84" d="M267.6,89.14c0.18-1.58-.18-2.95-1.87-3.42a2,2,0,0,1-1.65-2.17,2.21,2.21,0,0,1,1.46-2.41c1.72-.49,1.69-1.46,1.32-2.92a7.55,7.55,0,0,1-.43-3.45,2.38,2.38,0,0,0-.93-2.24A11.32,11.32,0,0,1,262,61.68a32.52,32.52,0,0,0,.07-4.31c0.07-1.91,1.1-2.12,2.55-1.28a2.76,2.76,0,0,1,.56,4.69c-1.15,1.11-1.27,2.13-.33,3.3a5.9,5.9,0,0,1,.93,2.31,1.39,1.39,0,0,0,1.56,1.28,4.8,4.8,0,0,1,4.94,5.5c-0.22,1.92-.44,3.85-0.52,5.78-0.06,1.56.46,2.65,2.26,1.55,1.44-.88,1.75-0.24,1.8,1.11,0.14,3.52-1.65,5.69-5.17,6-1.08.09-1.56,0.47-1.44,1.54-0.61.8,0.11,2.44-1.61,2.54A1.88,1.88,0,0,1,267.6,89.14Z"/><path class="cls-85" d="M267.6,89.14q0,1.28,0,2.55A17.86,17.86,0,0,1,259,90.25c-0.68-.32-1.32-0.53-0.65-1.4,0.23-.3,1.23-0.2.51-0.94a1,1,0,0,0-1.39.05c-0.93.83-1.83,0.47-1.78-.53,0.15-2.95.2-6,1.75-8.64,1-1.71,2.72-2.12,4.62-1.85-0.84,1.33-1.72,2.64-2.5,4s0.44,4.06,2,4.32c2.24,0.36,2.65,1.4,1.21,3.22-0.31.39-.86,0.67-0.55,1.22s1,0.38,1.57.32C265.12,89.89,266.13,88.54,267.6,89.14Z"/><path class="cls-38" d="M254.92,90.16c-1.43.56-2.8,1.42-4.44,1-1.34-.32-2.73-0.64-1.67-2.55,1,0.83,2,.19,3.05,0h0C252.64,89.66,254.43,88.61,254.92,90.16Z"/><path class="cls-86" d="M260.11,74.45c0.54-.62-0.08-2.22,1.71-1.8s1.17,1.71,1.26,2.78c-1.13.41-2.29,0.92-3-.65l-0.17-.18Z"/><path class="cls-83" d="M274.27,55.56c0,0.8-.06,1.56-1.17,1.46a0.66,0.66,0,0,1-.73-0.79c0.29-1,1.22-.55,1.89-0.68h0Z"/><path class="cls-38" d="M260.11,74.45a0.36,0.36,0,0,1,0,.33c-0.14.35-.09,1-0.62,0.85a1.37,1.37,0,0,1-1-1.44c0.16-.59,1-0.22,1.51-0.3Z"/><path class="cls-85" d="M251.86,88.64c-0.14-.45-1-0.53-0.74-1.13a0.66,0.66,0,0,1,1-.19,1.09,1.09,0,0,1,.81,1.05,2.57,2.57,0,0,1-1.09.28h0Z"/><path class="cls-87" d="M303.21,98.81c-0.15,3.37-2.12,6.29-3.39,9.45a0.56,0.56,0,0,1-.82.32,0.86,0.86,0,0,1-.69-0.93c0.68-2.94-.83-6.16,1.16-8.93a1.25,1.25,0,0,0-.21-1.63,3.15,3.15,0,0,1-.52-2.41c0.07-1.52.54-3.22,2.14-3.29,1.91-.08,1.79,1.83,1.93,3.24S303.06,97.3,303.21,98.81Z"/><path class="cls-36" d="M281.57,61.56a0.94,0.94,0,0,1-.83,1.26c-1.3-.11-1.27-1.28-1.47-2.26-0.13-.64-0.2-1.35.63-1.25C281.07,59.46,281.38,60.52,281.57,61.56Z"/><path class="cls-61" d="M247.79,82c0.4-1.07.16-2.63,2-2.53C249.72,80.79,248.75,81.39,247.79,82Z"/><path class="cls-88" d="M190.25,74.89c-1,1.77-2.77,2.94-3.35,5-0.13.45-.68,1.22-1.34,0.62-2.41-2.2-3.9.42-5.21,1.35-1.94,1.38-4.61,1.39-6.11,3.48-0.26.36-.76,0-1.05-0.37C171,82.53,168,82.36,166,84.86a4.55,4.55,0,0,1-4.23,1.64c-2.06-.19-4.1-0.2-6.16-0.2-1.74,0-2.43-1.29-3-2.67-0.26-.68.16-1.56-0.61-2.1a3,3,0,0,1,.71-3.26c1.45-1.83,2.28-4.17,4-5.89,2.61-2.57,4.55-5.57,8.34-7.2,2.23-1,4.22-.56,6.23-1.14,1.37-.4,1.57,1.35,2.58,1.7,0.86,1.3,2.19,1,3.42,1,2.59,0,4.93.22,6.18,3.12,0.66,1.54,2.59,1.74,4,1.76C190,71.64,190.54,72.82,190.25,74.89Z"/><path class="cls-89" d="M225.39,16.83c-0.73-2-.08-3.9,0-5.86,0-.59,0-1.33.71-1.43a1.31,1.31,0,0,1,1.39,1.16c0.26,0.87.63,1.71,1,2.56,0,1.17,0,2.34,0,3.52,0,0.75.08,1.63-.87,1.86-0.78.19-1.13-.55-1.55-1.06Z"/><path class="cls-90" d="M187.72,90.19c-1.87,1.68-2,3.4-.16,5.2,0.61,0.6,1,1.44.21,2-2.12,1.53-2.14,3.86-2.6,6,1.45,3.48.25,5.84-3.33,6.37A12.29,12.29,0,0,0,178,111c-2.61,1.34-5.4,1.57-8.85,1.35,1,1.08,2.6,1,2.13,2.28-0.39,1.08-1.5,1.32-2.5,1.46-1.91.26-3.77,0.27-4.55-2-0.15-1.58-1.32-1.54-2.45-1.5-1.49.06-2.9,0.05-3.72-1.54a1.14,1.14,0,0,0-.77-0.59c-3.32.1-6.43-1.46-9.78-1.15a3.16,3.16,0,0,0-1.83,1.21c-0.63.54-1.23,1.45-2.1,0.49-0.69-.76-2.54,0-2.34-1.33a4.28,4.28,0,0,1,2.47-3.06c3.35-1.57,3.43-1.77,1.31-4.83-0.34-.49-0.86-1-0.43-1.56s1.09-.24,1.6,0c1,0.53,1.92.83,2.8,0s0.05-1.61-.4-2.39c-1.28-2.2.53-2.25,1.88-2.59,0,0.9-.23,1.92,1.2,2.07a2.49,2.49,0,0,1,2.06,2c0.35,1.2,2.25,3-.94,3.25a1,1,0,0,0-.67,1.43,1.3,1.3,0,0,0,1.5,1.07c1.8-.44,3.51.06,5.26,0.31a2.37,2.37,0,0,0,2.5-.78,2.77,2.77,0,0,1,3-.91c2.17,0.53,3.68-.82,5.25-1.92a1.24,1.24,0,0,0,.61-1.31c-0.15-.64-0.76-0.5-1.21-0.67a5,5,0,0,0-4.22.38c-0.81-4.13,1.24-5.69,4.9-6.7,1.78-.49,3.09-2.65,4.86-3.81,2.86-1.86,6.08-2.52,9.31-3C186.81,86.19,187.47,87,187.72,90.19Z"/><path class="cls-91" d="M152,113.67c-1.62.65-1.43,2.83-2.94,3.52-1,.47-2,1.07-3.33.57-3.45-1.25-7.21-1.77-9.86-4.7a3.12,3.12,0,0,0-1.13-.49,5.64,5.64,0,0,1,0-4.05,14.17,14.17,0,0,0,5.93,3.57c1.92,0.49,4.11-.08,5.54,2.21,0.59,1,1.84-.24,2.19-1.2,1-2.66,1.77-1.39,2.58.07A0.88,0.88,0,0,1,152,113.67Z"/><path class="cls-92" d="M134.73,108.52a5.16,5.16,0,0,1,0,4.05c-1.05.6-2.29,1.85-3.1,1.62-1-.29-0.09-2.11-0.7-3.15-0.29-.49-0.5-1-0.74-1.56a3.37,3.37,0,0,1,.5-4.54c1.66-.36,2.1-1.11,1.44-2.86a34.22,34.22,0,0,0-2-5.33c3.53,0.19,3.49.19,3.57,3.72C133.81,103.19,133.18,106,134.73,108.52Z"/><path class="cls-92" d="M130.19,96.78a10.8,10.8,0,0,1-2.15-.63c-0.77-.4-1.69-0.78-0.84-2.08s0.21-3.48,1.48-4.89a18.33,18.33,0,0,1-.2,3.52c-0.28,1.14-.38,1.89,1,2.33C130.17,95.27,130.15,96.1,130.19,96.78Z"/><path class="cls-90" d="M152,113.67l-1-.49c0.1-.69,0-1.54,1-1.57s1.05,0.75,1.07,1.49Z"/><path class="cls-93" d="M98.59,101.37c0.2,1.43,1.21,2.07,2.22,1.21,1.7-1.44,1.7.16,2.17,1.06l2.18-1.76a3.1,3.1,0,0,0,2,2.73,5.25,5.25,0,0,1,2.47,2.38c0.78,1.37,1.22.28,1.78-.14,1.15,0.19.75,1.36,1.25,2,0.79-.46,1-1.84,2.35-1.41,1.2,1.83.82,3.3-.95,4.54a5.11,5.11,0,0,0-2.14,4.34c-0.13,3.33-1.51,4.31-4.85,3.43-1.6-.42-1.16,1.48-2.17,1.61a7.64,7.64,0,0,1-2.79-1.35c-1.27-1-1.08-2.32-.84-3.71,0.33-1.93.6-3.8-1.55-5.13-1.32-.81-0.64-1.48.59-1.71,1.76-.18,3.22,1.36,5.17.69-2.88-.28-4.88-2.24-7.3-3.38a1.63,1.63,0,0,0-1.45.24c-1.2.76-1.53,3.17-3.75,2-0.56-.14-1.36-0.19-0.65-1,2.43-2.91,1.88-6,.61-9.15a1.64,1.64,0,0,1-.19-1.21c0.15-.84-0.55-2.11.55-2.43s1.17,1.1,1.57,1.83a4.86,4.86,0,0,0,1.66,1.47C97.52,99.22,98.65,99.88,98.59,101.37Z"/><path class="cls-94" d="M98.65,109.46c-0.39.21-1.35-.15-1.13,0.52s0.53,1.92,1.72,1.91c0.57,0,1.14-.36,1.6.26,1.78,2.41,0,4.92.1,7.37,0,1.35-2,1.33-3.05,1.87s-0.91-.71-0.71-1.26a1.57,1.57,0,0,0-1.41-2.36c-1.5-.23-1.2,1-1.27,1.9-0.13,1.56-.91,2.3-2.51,2.07-1.22-1.81.19-3.6,0-5.43-0.23-3-.41-3.24-3.29-2.11-0.52-2.59-.51-2.71,3.11-3.11,1.7-.19,1.87-0.76,1.12-2.06,2.13,0.47,2.1-2.08,3.55-2.56C97.08,107.58,98.09,108.36,98.65,109.46Z"/><path class="cls-95" d="M98.59,101.37c-1.17-1-1.95-2.51-3.68-2.91-1.53-.35-0.41-2.15-1.66-3.2l-0.31,3.57c-1-1.59-.23-3.43-0.67-5.14-0.13-.52.92-1.74,1.74-1.42,3,1.18,4.42-.83,6-2.64,0.25,1.61,1.38,0,2,.63-1.4,2.85-.71,5.74.71,8.31,1.29,2.34-.24,2.4-1.64,2.7A14.53,14.53,0,0,1,98.59,101.37Z"/><path class="cls-96" d="M90.43,127.31c-1-.16-0.53,2.49-2.15,1.1a21.91,21.91,0,0,1-2.92-7,5.55,5.55,0,0,0-.75-1.86c-3.47-5.52-3.45-6.15.42-11.13l0.64-1.84c1.42,1.86.36,3-.75,4.12-2.41,2.56-2.31,6.23.43,7.52,1.6,0.76,3.52,1.65,5.57.3C89.29,121.51,92.9,124.53,90.43,127.31Z"/><path class="cls-97" d="M73.65,73.91c2.34-1.86,5.06-3.18,7.23-5.34,1.45-1.44,2.66-2.75,3.11-4.9a36,36,0,0,1,2.39-6.07c1.62-1.28,3-2.87,5-3.6,1.06,0.1.75,0.52,0.28,1.07-0.81,1-2.22,1.2-2.78,2.43-0.74,2.23-2.93,3.89-2.46,6.62a2.45,2.45,0,0,1-.7,2.52c-3.08,2.78-5.76,6.11-10,7.28A2,2,0,0,1,73.65,73.91Z"/><path class="cls-98" d="M106.2,63.73a19,19,0,0,1,5.59-5.18c1.34,2.06-.33,4-0.13,6.09,0.3,3-.36,6.28,2.19,8.73-0.6.68-1.25,1.32-1.8,2-2.37,3.1-2.56,3.13-5.74.54-0.11-1.43-1.39-2.53-1.16-4.06C104.49,69,104.23,66.24,106.2,63.73Z"/><path class="cls-99" d="M111.33,107c-0.06.64,0.13,1.49-.7,1.68-0.63.14-1-.54-1.26-1-0.75-1.23-1.65-2.51-3-2.82-2.11-.47-1.73-1.58-1.17-2.94,0.08-2.52-1.47-4.82-.95-7.42,0.36-1.8.5-3.66,3.09-3.26A7.64,7.64,0,0,1,111.66,97c0.53,2.52.34,5.18,0.6,7.77A2.56,2.56,0,0,1,111.33,107Z"/><path class="cls-100" d="M111.33,107c0.67-3.26-.05-6.53-0.25-9.75-0.14-2.37-2.2-4.2-3.77-6,1.49,0.2,2.93-1,4.46-.13a0.56,0.56,0,0,0,.83-0.31,1.69,1.69,0,0,0-.8-1.74c-0.91-.56-2.09-0.75-2.53-1.93,4.61,1.19,4.63,1.18,5,5.74a3.28,3.28,0,0,0,.93,2.27,0.56,0.56,0,0,1,.33.56c-0.39,1-.41,2.1-1.35,2.79-0.87-.15-0.44-0.92-0.61-1.28-0.36,1.77,1.36,2.22,2.28,3.24a6.77,6.77,0,0,1-1,7.06,6.41,6.41,0,0,1-1,.76c-0.9.46,0,2.5-1.52,2.07-1.14-.32-0.29-1.8-0.64-2.7A3.18,3.18,0,0,0,111.33,107Z"/><path class="cls-100" d="M118.45,89.74a14.42,14.42,0,0,1-.48,4.55,0.85,0.85,0,0,1-.11,1.18,2,2,0,0,1-2.45-.17l-0.18-.2c1.15-2.17.48-4.62,1.1-6.87C117.48,87.27,117.48,87.27,118.45,89.74Z"/><path class="cls-101" d="M117.86,95.37L118,94.29a17.45,17.45,0,0,0,2.68.46c1.5,0,3-.16,3.83,1.58,0.27,0.57,1,.44,1.6.49,1,0.67,2.33,1,2.87,2.26a1.61,1.61,0,0,1-.82,2.31c-1.11.4-1.89-.36-2.77-0.78-3.31-1.18-5-.82-7,1.58-0.44.53-.87,1.12-1.64,0.89s-0.53-.95-0.54-1.5a1.24,1.24,0,0,0-.78-1.17c-2.16-1-2.16-1-1.94-3.81l0.87,1.75C117.83,98.93,118.18,98.63,117.86,95.37Z"/><path class="cls-102" d="M125.57,100.35l2.55,1a6.77,6.77,0,0,1,2.55,3c-1.45.82-3,1.4-4,2.91s-2.23.78-3.41,0.16c-1-.78-2.51-0.7-3.09-2.06C120.62,101.88,122.22,100.4,125.57,100.35Z"/><path class="cls-103" d="M133.75,78.1a3.34,3.34,0,0,1-.65,1.5c-2.53,1.73-4.39,4.29-7.12,5.75a1.12,1.12,0,0,1-1.83-1c0.08-2.29.42-4.57,2.12-6.35,0.24-.25.63-0.49,0.88-0.2,1.73,2,3.06.93,4.54-.41C132.24,77,133.44,76.32,133.75,78.1Z"/><path class="cls-104" d="M130.52,73.42c-1.92-.35-4.16-0.63-4.89-2.65-0.39-1.08-.33-3.4,1.38-3.67,2.67-.42,6.8,2.23,6.64,3.83A2.48,2.48,0,0,1,130.52,73.42Z"/><path class="cls-105" d="M123.52,107c1.27,0.8,2.36,1.11,3.19-.65a3.49,3.49,0,0,1,4-1.9l0,0.53c-0.16,1.52-.79,3-0.5,4.54-1.71-1.82-3.11-1.45-4.15.66-0.55,1.12-1.86.59-2.52,1.37a1.84,1.84,0,0,1-1.71.28c-1-1.57,1.16-2.34.94-3.71A2.19,2.19,0,0,1,123.52,107Z"/><path class="cls-13" d="M237.6,92.73c-0.22-1,.41-2.11-0.44-3,0-2.14.94-4,1.87-5.82C239.36,87,239.54,90,237.6,92.73Z"/><path class="cls-79" d="M253.41,29.07l-4.69,3.5C249.75,30.68,250.83,28.88,253.41,29.07Z"/><path class="cls-106" d="M113.86,73.37a1.87,1.87,0,0,1-2.19-1.65c-0.08-2.47-1-4.79-.65-7.41,0.25-1.9,1.13-3.78.77-5.77l1-2c0.77-1.09,1.88-1.89,2.59-3s2.24-1.61,3.54-2.12c1.35,0,2.71.05,4.06,0.12,0.73,0,1.73-.14,1.79.91,0,0.81-.87.89-1.51,1.05a13.34,13.34,0,0,1-1.42.23c-0.14.77,0.35,0.77,0.74,0.83,2.14,0.3,2.69.81,2.36,3.51-0.37,3-1.66,3.07-3.69,3.11a1.65,1.65,0,0,0-1.86,1.61c-0.15,1.07-.57,2.07.64,2.92,3.14,2.21,3.16,3.42-.27,4.63A32.46,32.46,0,0,0,113.86,73.37Z"/><path class="cls-98" d="M115.39,53.51c-0.29,1.5-1.43,2.28-2.59,3C113.12,55.07,114.27,54.3,115.39,53.51Z"/><path class="cls-107" d="M214.7,90.16c-1.06,3.55-4.5,4.29-7.17,5.73a33.17,33.17,0,0,0-4,2.35c-1.17-.48-1.33-1.32-0.54-2.16,1.76-1.87,3.28-4,6.06-4.64a33.13,33.13,0,0,0,4.93-1.79C214.57,89.4,214.63,89.72,214.7,90.16Z"/><path class="cls-108" d="M215.66,75.46c-0.39,2.51-1.87,2.34-3.63,1.46-0.19-1.5.87-2.31,1.93-2.82S215.13,74.94,215.66,75.46Z"/><path class="cls-109" d="M270.54,35.12l0.9,1.27c1.7,10.74-1.56,15.81-10.42,17-4,.55-8.27.87-10.56,6-0.69,1.55-2.07,2.9-3.85,2.14A4.31,4.31,0,0,1,244,57.4c0.5-6.77,0-13.66,1-20.29,0.89-5.51,7.27-9.94,12.54-9.41C262.67,28.2,267.39,29.9,270.54,35.12Z"/><path class="cls-110" d="M304.29,107.49a1.7,1.7,0,0,0-1.61.52c-0.61.48-.86,1.91-1.8,1.37a5,5,0,0,1-2.55-3c-0.93-3.6-.09-7,1.06-10.36,0.86-2.51,2.94-4.59,1.69-7.77-0.47-1.2,1.42-2.57,2.61-3.4a4.89,4.89,0,0,0,2.07-2.76A4.77,4.77,0,0,1,308.19,79c1.86-.89,2.27-2.22,2.62-4.07A14.75,14.75,0,0,1,314.08,68c1.06-1.26.84-3.67,1-5.57s0.58-4.51,2.43-4.74,2.63,2.32,3.17,4.08a29.72,29.72,0,0,1,1,4.93c0.25,1.88-.16,3.36-2.55,3.48a2,2,0,0,0-2,2.45c0.24,4.42-.91,8.77-0.56,13.2,0.17,2.14.29,4.27-1.34,6.22-1.22,1.46-.76,3.12,1,4.34,2.24,1.59,2,3.4-.34,5-1.64,1.1-3.76.37-5.26,1.63-1.65,1.38-3.9,2.07-4.81,4.31C305.52,108,304.85,107.68,304.29,107.49Z"/><path class="cls-111" d="M116.58,82.63a1.85,1.85,0,0,1-.17,1c-0.62.36-.9-0.36-1.08-0.66-3.23-5.18-5-6-10.94-4.58-1,.25-1.85.38-1-1a1.69,1.69,0,0,0-.61-2.41c-0.94-.67-1.17.47-1.68,0.94-1.65,1.51-3.06,3.28-5,4.5-0.33.21-.52,0.71-1,0.51a1,1,0,0,1-.41-1.1c-0.2-2.08.47-4.23-.52-6.24-0.55-1.62,2-2,1.56-3-0.71-1.48-1.88,1.15-3.26.07a9.15,9.15,0,0,0-5.94-1.71c-0.63,0-1.44.29-1.83-.47s0.34-1.19.7-1.72A9.14,9.14,0,0,0,86,65.4a4.4,4.4,0,0,1,5.65-1.75c0.75,0.35,1.41.89,2.2,1.17a21.43,21.43,0,0,1,4.93,2.5,2.49,2.49,0,0,1,1.34,2c0.18,2.67,1.36,3.45,3.78,2.57,1.46,0.64,3,1.06,3.89,2.64a2.46,2.46,0,0,0,2.27.92,8.12,8.12,0,0,1,4.88,1.94C116.42,78.84,118,80.26,116.58,82.63Z"/><path class="cls-43" d="M173.35,67.69c-0.09,1.21-4.53,4-5.62,3.51a1,1,0,0,1-.57-0.45c-0.36-1.67.65-2.95,1.41-4.23,0.36-.61,4.39.1,4.69,0.69A1.68,1.68,0,0,1,173.35,67.69Z"/><path class="cls-112" d="M98.65,109.46c-1.67-.32-2.51-1.23-2.12-3a2,2,0,0,1,2.75,0c1.82,1.36,3.57,2.88,6.13,2.54a1,1,0,0,1,1.14,1.28,1.38,1.38,0,0,1-1.88,1.19c-1.37-.43-2.7-1-4-1.48C100.1,109.34,99.34,109.53,98.65,109.46Z"/><path class="cls-113" d="M117.86,95.37c1.07,1,1.51,2.23.4,3.25a2.52,2.52,0,0,1-3.93-.29,3.31,3.31,0,0,1,1.09-3Z"/><path class="cls-114" d="M119.46,108.49a12.06,12.06,0,0,1-1.49.94,0.94,0.94,0,0,1-1.13-.36,0.75,0.75,0,0,1,.3-1.08c1.1-.89,1.82-2.29,3.37-2.59l3,1.58a1.26,1.26,0,0,1-.5,1.12C122,109.73,120.62,108.13,119.46,108.49Z"/><path class="cls-115" d="M181.63,123.77c-0.51-2.39.77-2.45,2.51-1.93C184.53,124.07,183.08,123.93,181.63,123.77Z"/><path class="cls-116" d="M70.89,85.42c0.27-2-1.34-4,0-6,0.65-2.65-1-3.46-2.17-4.65-1.21-1.95-1.84-5-4.54-4.11,0.62-1.71,3.08-2.29,1.72-5.1-0.23,1.54-.26,3.54-1.82,3.9s-2.49-1.14-3.2-2.67c-1-2.07-1.75-4.27-2.56-6.46-0.71-1.95-.68-3.58.55-5.09,0.89-.77,1.75-0.35,2.58.14a2.35,2.35,0,0,0,2.38.38c0.69,0,1.28.58,1.95,0.65,1.29,0.14,2.41,1.89,3.5,1.43s0.46-2.9,1.49-3.93c1.43,0.33,1,1.77.92,2.87-0.15,2,.49,2.93,2,3.08a4.34,4.34,0,0,1,1.49.37c2.59,1.27,3.15,3.29,1.86,6.49-0.26.64-.85,1.07-0.79,1.94,2.18-.12,3.24-1.2,3.5-4.4a14.72,14.72,0,0,1,2.61-7.46c0.53-.72,1-1.79,0-2.53s-1.18.29-1.41,1.33c-0.45,2.08-1.38,1.64-2.21.43a7.6,7.6,0,0,1-1.34-4.57c0.26-6-2.25-10.48-4.73-15a13.81,13.81,0,0,1-.85-1.66c-2-3.13-1.82-6.47-.58-9.93,0.67-1.85,1.66-2.57,3-1.35a3.41,3.41,0,0,0,3.34.86c2.74-.65,3-0.15,2,3.33-0.12.41-.19,0.85-0.29,1.27-1.21,3.25-.31,7,2.25,7.88,3.27,1.15,5.12,3.84,6.16,7.82a24.87,24.87,0,0,0-1.63,10.58c0.05,0.68.16,1.75-.21,1.85-2.41.62-2.26,3.89-3.52,5.7s-1.67,4,.7,5.25a1.85,1.85,0,0,1,1,1.4c0.8,4.3,3.41,4.92,6.18,5.22-0.07,1.71-1.23,1.34-2,1.78-2.36-.28-4.09-2.5-6.39-3.46,0.06,1.67.4,3,1.74,3.78s1.38,2,.3,3.31c-0.19.22-.41,0.39-0.61,0.6-3,3.23-3.35,3.05-4.07-2-1.2.67-2.42,1.06-3.58-.73,1.27,3.1.52,10.22-1.12,12.23-0.77.94-3-.69-3.4-2.56C70.93,87,71.26,86.14,70.89,85.42Z"/><path class="cls-116" d="M67.29,2.63c3.6-1.29,7.62-1.83,10.56.74,2.73,2.39,5.73,4.49,8.17,7.81,2.55,3.47,3.46,7.09,3.61,11.49A4,4,0,0,1,86,20.29a2.72,2.72,0,0,0-2.59-1.55c-1.39-1.23-2.26-2.64-1.29-5,0.6-1.45-.12-2.25-1.1-2.16a10.83,10.83,0,0,1-8.11-2.84,3.57,3.57,0,0,0-3-.54c-1.06.19-1.78,0.78-1.36,2.42,0.35,1.11.58,2.34,1.59,2.81a3.18,3.18,0,0,0,2.7-.15c1.81-.72,3.45.86,3.72,3.42a3.91,3.91,0,0,1-2.64,4.45c-2.24.55-2.91,2.92-3.39,5.47s0.1,5.56-1.11,8c-1.93-.31-2.12-3.12-3.5-4.23-0.24-.19,0-0.87-0.75-0.38-1.68,1.14-3.59,1.66-4.91,3.7a1.34,1.34,0,0,1-2.06.45,6.5,6.5,0,0,0-.6-4.39c3.43-2.22,6.3-5,6.6-10.61a6.45,6.45,0,0,1,1.14-2.92c0.39-.68,1-1.41.48-2.32-0.42-.67-1.1-0.36-1.68-0.2s-1.28.64-2,.33C61.06,8.92,62.89,4.82,67.29,2.63Z"/><path class="cls-117" d="M83.58,18.64c0.59-.72,1.3-1.91,1.92-0.34,0.91,2.34,2.7,3,4.14,4.38,0.17,1.12-.25,2.41.54,3.36a15.42,15.42,0,0,1,.14,5.27C88.62,30.94,89,28.83,88,27.46c-1,2.07.21,3.82,0.23,5.56,0,2,.83,4.07.24,5.9s-0.4,3.91-.82,5.79h0c-0.45.12-1.22,0.65-1.23-.26-0.06-4.67-2.59-5.81-5.32-6.8-2.22-.81-4-5.37-3-7.74a2,2,0,0,1,.83-0.63c2.15-.58,2.38-2.83,2.44-5.06S82,19.94,83.58,18.64Z"/><path class="cls-118" d="M67.29,4.58c-1.65,2.15-2.94,5.13-4.85,6.71a5.91,5.91,0,0,0-.76,1C63.77,16.88,60,20,60.77,24.24c0.43,1.77-.29,2.89-0.76,4.1-1.22,3.11-2.79,5.84-2.84,10,0,1-.59,1.5-1.21,1.27-1.45-1.31-1.56-3.66-1.78-6.22-0.57-6.81-.33-14.11-3.3-19.66,0.46-1.8.43-4.85,2.05-4.19,1.3,0.52,2.2,2.49,1.61,5.36-0.39,1.89.05,3.23,1.1,3.29,1.51,0.08,2.88-1.33,3.44-3.68,0.66-2.75.58-6,2-8.28a3.54,3.54,0,0,0-.1-2c-0.51-.81-1,0-1.37.67-1.14,2.3-2.43,3.82-4.25,3.25a1.91,1.91,0,0,1-1.51-1.81A2.54,2.54,0,0,1,55,3.9C57.58,1.37,60.53,1,63.37,0,64,3.22,65.43,4.55,67.29,4.58Z"/><path class="cls-116" d="M87.67,44.72c-0.34-3.38.74-6.73,0-10.16-0.28-1.34-.12-2.78-0.78-4.09a3.46,3.46,0,0,1,.37-3.66c0.34-.47.66-1.18,1.21-1a1.49,1.49,0,0,1,.66,1.61,11.8,11.8,0,0,0,1,4.18c0-2.47,0-4,0-5.56,0.65,0.64.52,1.6,0.53,2.45,0,2.49.14,4.49,2.62,2.33a1,1,0,0,1,1.76.54c0.34,1.36-.67,1.05-1.25,1.37-3.79,2.11-4.6,1.92-2.88,7.43,0.27,0.87-.07,1.94-0.74,1.31-2.79-2.63-1.75.82-2.09,2.11A11.38,11.38,0,0,1,87.67,44.72Z"/><path class="cls-119" d="M66.74,53.39a2.75,2.75,0,0,0,2.21-1,3.68,3.68,0,0,1-1.69-2.33,20.69,20.69,0,0,1,1.21-5.67c0.73-1.71,3.19-.6,3.3-3.61-1.17.31-2.29,2.11-3.42,0.57-0.85-1.15.16-2.21,0.47-3.27a18.94,18.94,0,0,0,.54-2.84c0.72-2.74,1.33-2.87,3-.58,2.51,2.84,3.24,7.19,5.17,10.52,0.63,1.08.38,2.34,0.43,3.54,0.07,1.65-.29,3.37.39,4.91,0.45,1,.53,2.92,1.55,2.68s0.32-1.78.23-2.76c0-.49.18-1.1,0.46-1,1.1,0.36,2.38.59,3.13,1.51,0.34,0.42-.07,2.36-0.86,3.49A16.84,16.84,0,0,0,80.19,69a3.24,3.24,0,0,0-3.48.79,1.14,1.14,0,0,1-2-.54c-0.47-1.2.61-1,1-1.43,0.88-1.2,1.79-2.84,1.54-4.25a3.66,3.66,0,0,0-2.87-2.81c-3.33-.64-3.33-0.66-3-5.24A1.86,1.86,0,0,0,70.87,54C69.48,54,67.9,56.09,66.74,53.39Z"/><path class="cls-120" d="M72.36,34.67c-1.61-1.64-2.59-1.52-2.55,1.55,0,0.86.16,1.81-.49,2.46a3.49,3.49,0,0,1,0-4c0.19-2.72.36-5.45,0.56-8.17S71.46,22,72.91,20.3c0.23-.27.55-0.85,0.82-0.4,1.52,2.48,1.39-.39,1.84-1,1.06-1.45.49-2.84-.31-4.08-0.6-.93-1.17-1.8-2.31-0.73a1.94,1.94,0,0,1-3.2-.24,1.54,1.54,0,0,1,1.19-1.4,1.6,1.6,0,0,0,.95-2.18c-0.53-1.34-1.33-.9-2.09-0.27-0.47.39-.87,1.06-1.54,0.75-1.19.43-1.12-.34-0.74-1.36a4,4,0,0,1,6.7-.92c2,2.32,4.1,2.12,6.34,2.17,2.73,0.06,3.23,1,1.84,3.85-1.12,2.32,1.22,2.58,1.17,4.15-2.2,2.94-.87,7.41-2.71,10.59-0.82,1.41-1.23,1.66-1.91.07-1.3-1.89.71-2.72,0.89-4.08-1-1-1.71,0-2.46.19-1.27.33-2.27,0.82-3.28-1-0.8-1.46-1.69-1.14-2.35.8C70.6,28.6,70.57,31.68,72.36,34.67Z"/><path class="cls-121" d="M69.28,34.69q0,2,0,4c-0.12.86-1.42,1.39-.57,2.44,0.52,0.63,1.23.15,1.84-.39s0.78-2.74,1.75-1.42c0.83,1.13,0,4-.49,4-3.37.14-3.32,3.7-4.19,6.39a1.16,1.16,0,0,1-.4.38c-3,.94-5.27-2.06-8-2.25-0.6,0-.59-1-0.56-1.64s0.06-1.12.7-1c1.66,0.24,1-.87.74-2-0.68-3-2.42-5.69-1.88-9.14A2.37,2.37,0,0,0,60,33.15C65.86,27.09,66.46,29,69.28,34.69Z"/><path class="cls-122" d="M57.56,30.09c-1.8-1.95-1.41-3.9.36-5.15,1-.69.78-1.35,0.72-2.26-0.17-3.87,2.23-5.94,3.55-8.76,0.38-.24.76-0.5,1.15-0.71,1.2-.67,2.63-1.35,3.5.19S66.48,16.13,65.68,17c-1.42,1.52-.85,3.73-1.31,5.57C63.46,26.2,60.47,29.74,57.56,30.09Z"/><path class="cls-123" d="M68.26,10.75a2.63,2.63,0,0,0,1-1.45c0.6-1.37,1.56-1,2.46-.79S72.84,9.82,72.91,11c0.09,1.61-.9,1.61-1.57,2.13-0.49.38-1.22-.17-1.59,0.7C68.17,13.71,68,12.37,68.26,10.75Z"/><path class="cls-124" d="M105.25,134.85c-3.5,1.31-7.14.78-10.67,0.46-5.35-.49-10.48,1.49-15.79,1.08,0-1.16-.05-2.24-1.47-2.64a0.71,0.71,0,0,1-.53-1.1,13.94,13.94,0,0,0,1.18-1c1.9-2.21,1.91-2.22,4.08-.21a1.51,1.51,0,0,0,1.34.52c2.57-.45,5.19-0.29,7.78-0.59a6.41,6.41,0,0,0-4.8-.09c-2.05.8-3.81,0.85-4.8-1.56a3,3,0,0,0-.62-0.79c-1.76-2-1.73-2.71.18-4.62a2.86,2.86,0,0,0,.94-1.09c-1.38-.85-2.5-1.89-1.15-3.71a1.16,1.16,0,0,0-.5-1.55c-1.1-.8-2-1.83-3.05-2.67-2.86-2.27-3.46-2.18-5.59.74-3.35-.22-5.45,2.34-8.09,3.68-1.23.63-2.68,5.37-2.12,6.67a4.18,4.18,0,0,1,.1,2.73c-0.21.91-.32,2-1.57,1.95s-1.7-1.06-1.73-2.14a3.75,3.75,0,0,0-1.51-3.29c3.18-.47,2.75-2.85,2.55-5-0.24-2.6-2.36-2-4-2.2,1-1.86,3-1.63,4.57-2.12,1.27-.39,2.6-0.7,3.91-1a5.53,5.53,0,0,0,4.47-5.47A4.8,4.8,0,0,1,72,105c1.53-.26,2.42.68,3.36,1.67s1.43,2.44,2.77,3.09,2.87,0.32,4.13,1.15c2.07,1.36,3.6,2.73,3.68,5.7,0.13,4.29,3.89,5.83,7.36,3.31a3,3,0,0,1,3.73-.08c1.22,0.78,1.08,1.92.74,3.16a5.44,5.44,0,0,0,3.56,6.12,1,1,0,0,0,1.51-.81c0.31-1.17,1.29-1.45,2.32-1.68,2.23-.5,2.81-1.73,1.75-3.74-0.41-.78-1.48-1.55-0.5-2.42a2.12,2.12,0,0,1,3,.16,3.43,3.43,0,0,0,1.14,1.6,1.41,1.41,0,0,1,.46,2c-1.08,1.69-1.22,3.85-2.73,5.31S107,133.52,105.25,134.85Z"/><path class="cls-125" d="M90,64.89c-2.7,1.59-4.17,3.61-4.37,7.37-0.28,5.25-4.54,9-10.18,9.43-2.89.21-5.31,1.55-8,2.31-0.9,0-1.82,0-2.71.14-3.39.41-4.2-.38-3.27-3.86a17.53,17.53,0,0,0-1.19-12.53c-0.88-1.85.41-2.95,1.48-3.6,2.58-1.57,4.67-3.85,7.14-5.53,1.81-1.23,3.33-3.46,6-1.94,0.71,0.41,1.45-.45,2.1-0.94,0.83-.63,1.76-1.75,2.56-1.67,4.48,0.46,3.47-2.87,3.5-5.55-0.21-3.81,2.61-3.46,4.66-3.66,2.2-.21,3.74.93,3.46,3.73-0.42,1.23-1,1-1.75.29-1.38-1.42-2.58-1-3.14.74S85,53.26,87.65,54a6.24,6.24,0,0,0,3,.23A2,2,0,0,1,93,55.29a2.88,2.88,0,0,1-.36,3.08A5.46,5.46,0,0,1,91,60.19C88.87,61.4,88.82,63,90,64.89Z"/><path class="cls-126" d="M94.05,54.47c0.86,0.09,1.75.17,2,1.53a2.28,2.28,0,0,1-1,2.33c-1.86,1.4-2.78,3.9-4.3,5.74s0.58,3.13.83,4.76c0.2,1.27,1.16.83,1.9,0.56,1.27-.47,2.7-0.5,3.46-2.26,0.22-.51.62-1.13,1.21-0.87a1.36,1.36,0,0,1,.43,1.63c-1,4.48,1,7.76,2.79,11.17a9.88,9.88,0,0,1,1,7.16c-0.26,1-.5,2.12.75,2.47,0.61,1.41-.22,1.67-1,1.8-1.07.17-1.84-.43-2-1.81a18.92,18.92,0,0,0-1.33-5c-1.16-2.75-2.71-3.8-5.11-3a6.15,6.15,0,0,0-3.58,2.81C88.79,86,91,88,91.49,90.3A2,2,0,0,0,94.13,92c0.75-.19,1.43-0.62,2.18-0.81,2.35-.59,3.23,1.59,4.39,3.39a3,3,0,0,1-.18,3.89c-1.57,2.41-3.14,4.66-6.1,3.93-1-.24-1.51.81-1.39,2.07,0.15,1.65-.12,3.37.46,5a13.47,13.47,0,0,1,.12,10.66,2.56,2.56,0,0,0-.07,2.07c0.74,2,.11,3-1.49,3.33a4.28,4.28,0,0,0-2.76,1.34c1.06,0.69,2.56-.08,3,1.63a13.27,13.27,0,0,1,.27,4c-0.06,1.87-.49,3.73-0.05,5.62,0,2.57.81,5.38-1.27,7.41a0.67,0.67,0,0,1-1-.34,26.85,26.85,0,0,0-.22-8c-0.22-1.42-.29-1.86-1.53-1.91-2.36-.11-4.64-0.92-5.53-4a8.59,8.59,0,0,1,1.77-8,3.11,3.11,0,0,0,.95-1.77,0.26,0.26,0,0,0-.18-0.13,1.21,1.21,0,0,1-.45.29c-0.83-.12-0.69-2.22-2-1.44-1.93,1-3.4-1-5.14-1.15-1.26-.55-2.81-0.47-3.44-2.39,0.78-1.41,1.84-.33,2.73-0.47-1.43-.82-3.09-1.29-3.86-3.35a1.51,1.51,0,0,1,.42-1.14c1.94-1,1.31-2.35.26-3.71-1.51-2.29-2.85-4.63-2.78-7.81a5.38,5.38,0,0,0-.51-2.39c-2.9-5.73-.41-10,2.36-14.29a2.2,2.2,0,0,0,1-2.29c-0.41-1.74.46-2.48,1.51-3.11,3.93-1.72,6.42-6,9.9-8.54,0.75,0.47.55-.35,0.74-0.77,0.62-1.36-.31-3.17.85-4.35A15.94,15.94,0,0,0,94.05,54.47Z"/><path class="cls-127" d="M32.92,169.45c-0.08-1.1,1.68-2.33.14-3.26-1.8-1.09-2.94.74-4.57,1.75-0.26-3.15.28-6.09-1.44-8.68a1.31,1.31,0,0,1,1.34-1.93,7,7,0,0,0,4.73-2.06c2.3-2,4.4-.44,6.58.54s2.73,2.14,2.51,4.49C41.75,165.4,37.89,169.46,32.92,169.45Z"/><path class="cls-128" d="M71.74,217.38c-2.71,1.79-4.08-1.3-6.18-2.25a1.48,1.48,0,0,1-.26-2.59c2-1.56,3.75-3.12,4.61-5.63,0.38-1.12,4.36-.5,5.55.7,1.49,1.49,2,3.62,3.47,5.17,1,1-2.49,4.89-4.36,4.9C73.75,217.67,72.92,217.51,71.74,217.38Z"/><path class="cls-129" d="M11.85,183.57l-2.9-.81c1.31-1,1.78-2.56,1.11-3.57-1.34-2-.86-3.09.62-4.85s3.54-3.36,4.34-5.9c0.34-1.07,2.2-.61,3.41-0.51,1.48,4.15-1.8,6.7-3.47,9.73,1,0.84,1.45.08,1.91-.43,0.69-.76,1.44-1.26,2.47-0.77s1.1,1.41,1.2,2.38a4.31,4.31,0,0,1-2.3,4.46C16.19,184.46,14,185.43,11.85,183.57Z"/><path class="cls-130" d="M18.46,217c2.15-.14,4.52-0.28,4.23,3.53-0.24,3.06-3.28,5.46-7.39,5-2.89-.34-1.88-3.35-2.51-5.07S15.1,216.94,18.46,217Z"/><path class="cls-131" d="M35.12,178.17c-0.07,3.22-1.46,4.69-4.07,4.61-3.61-.1-4.62-1.21-4.58-5.07,0-2.35,1.66-3.18,5.82-3C34.89,174.76,35.36,176.35,35.12,178.17Z"/><path class="cls-132" d="M11.85,183.57c4.71,1.28,8.24-1,7.86-5-0.07-.75.15-1.5-0.8-1.72s-1.29.52-1.58,1.18c-1.06,2.39-2.29,1.42-3.51.19a0.85,0.85,0,0,1,.17-1.51c3.28-2,4-5.29,4.43-8.73,1.65,4.07,4.15,7.95,3,12.67-0.5,2.07-1.79,3.81-3.77,4.17S13.25,186.4,11.85,183.57Z"/><path class="cls-133" d="M74.15,216.69c-2.1.22-3.74-.75-3.51-2.78,0.16-1.38-.71-2.92.09-3.93,0.59-.74,2.39-1.37,3.09-1,1.79,1,4.77-.5,5.39,1.53C80.09,213.44,77,216.68,74.15,216.69Z"/><path class="cls-134" d="M72.37,192.38c2.45-.83,3.77,2.78,6.51,2.3,0.46-.08,0,0.76-0.21,1.2-2.25,4-2.23,4-6.31,1.6-0.45-.26-0.92-0.48-1.39-0.71-1.24-.6-3.24-0.7-2.81-2.69S70.53,192.51,72.37,192.38Z"/><path class="cls-135" d="M28.76,132.3c-0.79,1.21-1.57,3-3.27,2.73a3.68,3.68,0,0,1-3.41-3.51c0-1.78,1.65-3.38,3.07-3.22C26.91,128.5,28.29,130.19,28.76,132.3Z"/><path class="cls-136" d="M4.62,206c-0.25-1.81.12-3.1,2.3-3.17s1.91,1.71,2,2.84a2.54,2.54,0,0,1-2.74,3C4.18,208.68,4.75,207.07,4.62,206Z"/><path class="cls-137" d="M32.9,122.29c0,1.43-1.35,1.44-2.36,1.62-1.38.25-1.71-.77-1.79-1.91a1.72,1.72,0,0,1,1.65-2.14C32,119.71,32.54,120.77,32.9,122.29Z"/><path class="cls-138" d="M29.73,145.86c-0.7-.06-2,0.39-1.73-0.94s1.77-1.63,2.78-2.06c0.56-.23,1.92.92,1.79,1.76C32.36,146.08,30.85,145.69,29.73,145.86Z"/><path class="cls-139" d="M62.66,199.28c-0.32,1.4-1.6,1.45-2.64,1.62s-1-.74-1-1.47c0.05-1.33.84-1.76,2.05-1.63C62,197.89,62.72,198.14,62.66,199.28Z"/><path class="cls-140" d="M30.29,214a1.63,1.63,0,0,1-1.69,1.52,1.11,1.11,0,0,1-1.37-1c0-1.07.88-1.29,1.73-1.44A1,1,0,0,1,30.29,214Z"/><path class="cls-141" d="M55.69,199.95c0.59,0.09,1.47-.08,1.39.78s-1.06.66-1.69,0.68-1.4.08-1.21-.83C54.33,199.85,55.13,200,55.69,199.95Z"/><path class="cls-142" d="M36.64,191.83H30.5c-0.8-1-1.89-1-3-1a2.27,2.27,0,0,1-2.28-1.7c-0.19-1.24,1.22-.82,1.89-1.08a19.15,19.15,0,0,1,8.08-1.68c1.63,0.09,3.74-.58,4.32,1.57S38.28,191,36.64,191.83Z"/></svg>