<svg id="Layer_1" data-name="Layer 1" xmlns="http://www.w3.org/2000/svg" viewBox="0 0 171.37 216.47"><defs><style>.cls-1{fill:#5a5873;}.cls-2{fill:#00156e;}.cls-3{fill:#003799;}.cls-4{fill:#002c88;}.cls-5{fill:#002279;}.cls-6{fill:#0071d7;}.cls-7{fill:#007797;}.cls-8{fill:#001f58;}.cls-9{fill:#006dbd;}.cls-10{fill:#0063b8;}.cls-11{fill:#003cbf;}.cls-12{fill:#55dfe8;}.cls-13{fill:#007b9d;}.cls-14{fill:#027ec4;}.cls-15{fill:#00776f;}.cls-16{fill:#003b91;}.cls-17{fill:#a0e7f2;}.cls-18{fill:#d6f9f9;}.cls-19{fill:#007a99;}.cls-20{fill:#037054;}.cls-21{fill:#026f52;}.cls-22{fill:#032833;}.cls-23{fill:#000731;}.cls-24{fill:#001524;}.cls-25{fill:#076da5;}.cls-26{fill:#0087c6;}.cls-27{fill:#00347f;}.cls-28{fill:#0040a5;}.cls-29{fill:#267243;}.cls-30{fill:#217646;}.cls-31{fill:#00151b;}.cls-32{fill:#002857;}.cls-33{fill:#69a79b;}.cls-34{fill:#007276;}.cls-35{fill:#2d6f44;}.cls-36{fill:#473;}.cls-37{fill:#02120d;}.cls-38{fill:#01393a;}.cls-39{fill:#008484;}.cls-40{fill:#017d69;}.cls-41{fill:#e5faf9;}.cls-42{fill:#0091b0;}.cls-43{fill:#077c6a;}.cls-44{fill:#006fa4;}.cls-45{fill:#327a63;}.cls-46{fill:#003476;}.cls-47{fill:#537a3f;}.cls-48{fill:#fcf2f0;}.cls-49{fill:#fef7f8;}.cls-50{fill:#397d47;}.cls-51{fill:#0039a1;}.cls-52{fill:#00b5e9;}.cls-53{fill:#0097bf;}.cls-54{fill:#005bce;}.cls-55{fill:#fefcfd;}.cls-56{fill:#0f1f42;}.cls-57{fill:#003c93;}.cls-58{fill:#2e4253;}.cls-59{fill:#faf3fa;}.cls-60{fill:#3eb5e2;}.cls-61{fill:#fcfcfd;}.cls-62{fill:#cce6f5;}.cls-63{fill:#0045c8;}.cls-64{fill:#0e6f65;}.cls-65{fill:#007bc7;}.cls-66{fill:#fefdfd;}.cls-67{fill:#072930;}.cls-68{fill:#edfbfb;}.cls-69{fill:#b9453f;}.cls-70{fill:#fe131c;}.cls-71{fill:#008cde;}.cls-72{fill:#002f5c;}.cls-73{fill:#0064c6;}.cls-74{fill:#fcfdfe;}.cls-75{fill:#44b8e6;}.cls-76{fill:#f9fbfe;}.cls-77{fill:#99dbf1;}.cls-78{fill:#003e81;}.cls-79{fill:#0088b4;}.cls-80{fill:#86e7f8;}</style></defs><title>splash</title><path class="cls-1" d="M106.6,199.3c0.45,0.11,1.18-.17,1.18.58s-0.74,1-1.45,1.06-1.33-.07-1.3-0.84C105.07,199.08,106,199.44,106.6,199.3Z"/><path class="cls-2" d="M42.26,135.13c1.16,0,1.27.51,1.23,1.15a1.09,1.09,0,0,1-1.22,1.22,1,1,0,0,1-.9-1.21A0.94,0.94,0,0,1,42.26,135.13Z"/><path class="cls-3" d="M17.33,58.75c-2.26-.29-2-2.74-3.29-4-0.72-.7-0.9-1.79-2.26-1.69a1.33,1.33,0,0,1-1.54-1.33c-0.08-.92.54-1.07,1.25-1.25a11.84,11.84,0,0,0,1.57-.78,1.78,1.78,0,0,1,1.71,0c0.78,0.55,0,1-.25,1.47-0.27.63-.28,1.34,0.53,1.33,2.16,0,4.12.87,6.21,1.11,1.77,0.2,3-.12,2.71-2.38a2.39,2.39,0,0,1,1-2.13c0.51,1.45,1,2.73,1.4,4a1.74,1.74,0,0,1,0,1.21c-2.34,1.11-.24,3-0.83,4.45-0.22.52,0.34,1.51,0.88,1,1-1,3-1.46,2.55-3.55,2.88-2.52,4.37-2.75,6.3-1,0.39,1.81,1.93,1.87,3.32,2.2,0.86,0.2,2.08,0,2.28,1.15,0.17,1-.94,1-1.56,1.36a1.11,1.11,0,0,0-.41,1.72,1.08,1.08,0,0,0,1.73.28c2.57-1.56,5.46-2.46,8.1-3.88,0.6-.33,1.45-0.5,1.06-1.38-0.8-1.8.35-3.29,0.66-4.89,0.35-1.79,1.77-2.4,3.46-1.81,0.24,0.08.45,0.23,0.68,0.33,2.61,1.06,2.9.94,3.7-1.57,1.11-.42,2.37-0.73,1.71-2.41-1.39-1.87-3-2.18-4.91-.87C53.47,46.68,51.87,48,49.71,48c-1.52-1.24-1.42-1.57.8-2.79,0.45-.18.92-0.3,1.36-0.52a0.4,0.4,0,0,0,.28-0.34c-0.64-.08-1.22.3-1.86,0.25-2.06-.14-4,0.06-5.24,2a2.21,2.21,0,0,1-1.81.35,1.74,1.74,0,0,1-.69-0.35c-0.92-1.19,0-1.87.71-2.63,1.66-1.56,4-2.51,3.9-5.49,0-1.43,1.5-1.1,2.41-.69A6,6,0,0,0,55,37.55c2-1,2.38-2.66.94-4.32a64.63,64.63,0,0,0-4.64-5c-2.25-2.1-1.71-4.38,1.18-5.37,3.06-1,6.09-1.55,9,.48,1.25,0.41,3.29-.73,3.51,1.75-0.84,1.57-3.32,1.62-3.54,3.79A14.54,14.54,0,0,1,60.47,30c-0.93,1.37-.64,2.14,1,2,2.38-.22,3,1.23,2.73,2.92-0.83,4.39.37,8.59,0.78,12.86C65.13,49.74,64.81,51,63,52s-3.29,2.2-3.13,4.54a2.12,2.12,0,0,0,0,.25c0.15,1.51-2.76,1-1.89,2.71A5.76,5.76,0,0,1,59,63c-0.16,1.26.25,1.8,1.58,1s2.08-.38,1.81,1.29a4.86,4.86,0,0,1-2.21,2,3.33,3.33,0,0,1-1.51.12c-1.82-.29-3.08-0.18-2.36,2.29,0.42,1.44-.64,2.43-1.81,3a12.82,12.82,0,0,1-4.78,1.61c-3,.19-6.36.51-9-0.54-3.42-1.33-6.85-3.34-8.93-6.76a10.33,10.33,0,0,0-2.16-2.79c-0.85-.7-1.83-1.47-1.08-2.76a2.24,2.24,0,0,1,3-1c-1.29-.56-2.31-0.07-3.4.75-2.55,1.91-4,1.54-5.49-1.23A4.14,4.14,0,0,0,17.33,58.75Z"/><path class="cls-4" d="M31.06,87.78a1.89,1.89,0,0,0,.44-2.33c-1.37-2-.16-3.8.27-5.64,1-4.35-.44-6.25-4.75-7.44-2.57-.71-5.24-1-7.77-1.8-0.95-.32-1.53-0.57-1.42-1.63h1c1.64-1,3.11.15,4.63,0.41s3.24,1,5,1.07c3.43,0.15,4.11,2.74,4.74,5.36,0.22,2.5-.18,5.07.86,7.5a2.25,2.25,0,0,1-.38,2.17c-1.15,1.59-1,3.35-.68,5.12,0.35,2,1.19,3.84.47,6-0.41,1.19.67,1.82,1.73,2s2,0,2.22-1.38A3.21,3.21,0,0,1,37.69,96c1.7-.55,1.52.85,1.63,1.71,0.21,1.64.89,2.28,2.52,1.63a2.92,2.92,0,0,1,3.06.59,2.71,2.71,0,0,0,3.67-.05c1-.71,1.95-1.74,3.39-1A14.48,14.48,0,0,0,53.11,104a7.08,7.08,0,0,1-2.44,7.84c-0.77,0-.84-1.7-2-0.88-0.9.64-1.45,1.39-.66,2.49-0.5,2.15-1.51,3.54-4,3.9a4,4,0,0,0-3.8,3.47,3,3,0,0,1-5.13,1.66,10.37,10.37,0,0,0-3.77-1.86l-0.25-.29a10.51,10.51,0,0,1,1.32-.66,5.35,5.35,0,0,0,3.95-4.21c0.33-1.66,2.11-2.59,2.4-4.32a15.07,15.07,0,0,0,.44-1.95c0-.69.38-1.73-0.65-1.93s-1.48.63-1.79,1.47a3.9,3.9,0,0,1-.09.5c-0.58,1.05.06,3-1.45,3.18s-1.24-1.72-1.86-2.64A4.22,4.22,0,0,0,30.7,108c-2.64-.68-3.95-2.77-4.56-5.28C25.71,101,26.63,99.86,28,99a27.85,27.85,0,0,0,2-3.06c1-1.91,2.23-3.76.65-6C30.25,89.26,30.72,88.46,31.06,87.78Z"/><path class="cls-5" d="M32.61,76.07c-0.5-3.62-2.46-5.15-6.22-5.24-2.53-.06-5-1.23-7.54-1.9-0.85-1.49-1.21-2.92.52-4.09,0.55-.75,1.63-0.32,2.3-1-0.77-1.45-2.06-2.56-2.81-4l-1.53-1c0.55-.62.16-1.45,0.48-2.32,1.64,0.64,3,1.9,4.71,2.17a1.31,1.31,0,0,1,.91,1.1c0.7,2.45,2.21,2.91,4.18,1.17a3.59,3.59,0,0,1,4.81-.48,0.86,0.86,0,0,1,.39,1.29c-0.48.63-.84,0.16-1.17-0.26-0.9-1.13-1.8-.73-2.55.11-1,1.1,0,1.72.78,2.15A4.28,4.28,0,0,1,32,66.15c0.77,2.29,2.92,3.19,4.5,4.65,3.29,3,7.45,2.67,11.48,3,2.32,0.19,4.21-.83,6.18-1.53,1.24-.44,2.54-1.41,1.29-3.34-0.86-1.33.31-2.71,1.92-2.34a15.2,15.2,0,0,0,2.76.29c1.44,3.22.64,5.27-2.49,6.68-2.24,1-4.35,2.28-6.79,2.82a7.41,7.41,0,0,1-4.27.09C41.93,74.71,37.33,73.81,32.61,76.07Z"/><path class="cls-6" d="M41.22,33.3a4.22,4.22,0,0,1,2-1.82c1.69-.85,1.9-1.92.54-3.27l0.55-.53,1.51,0c0.55,0.4,1.15,0,1.71.09a2.59,2.59,0,0,1,2.15,3.55c-0.77,2.39-4.84,4.61-7.26,3.92C41.5,35,40.7,34.54,41.22,33.3Z"/><path class="cls-7" d="M62.05,65.35c0.1-1.45-.24-2-1.37-0.61-0.43.52-.7,1.29-1.55,0.8a1.72,1.72,0,0,1-1-2.13,2.83,2.83,0,0,0-1-3.73c-1.07-.84-0.87-1.82.7-2,1.28-.11,1.78-0.53,1.39-2-0.59-2.14,1.64-3.42,2.62-3.77,3.73-1.34,2.39-4.07,2.21-6.37-0.28-3.49-1.44-6.88-.49-10.48,0.26-1,.7-3.59-2.24-2.11-0.84.42-1.73-.45-2.34-1.17-0.74-.89.1-1.36,0.6-1.87s1-.9,1.51-1.34c2.21-1.09,4.42-2.05,7-1.21,1,0.32,1.68-.6,2.47-1.08C72.67,25,74,25.59,75,28c0.15,2.54,2.17,2.28,3.83,2.55,0.23,0,.46,0,0.69,0,1.64,0,3.32.23,4.82-1.47-1,.14-1.76.71-2.54,0.39-0.9-.77,0-1.88-0.53-2.73,0.52-2.05,1.6-3.52,3.91-3.67a1.38,1.38,0,0,1-.09,1.44c-0.53,1-.19,1.51.85,1.44,2.91-.2,5.3,2.2,8.36,1.52,1-.21,1.39.86,0.67,1.78-0.52.67-1,1.34-1.59,2-2.41-.51-4.47,1-6.76,1.17-0.82.08-1,.75-1.27,1.37-0.71,1.53-2,1.88-3.28.92a2,2,0,0,0-2.44-.26c-0.94-.37-1.86-0.63-2.53.47s-0.44,1.85.37,2.68c1.72,1.76,1.11,3.77.43,5.71-0.44,1.25-1.41.93-2.33,0.57-0.76-.3-1.51-0.41-2,0.46A1.48,1.48,0,0,0,74,46.2a13.38,13.38,0,0,1,1.49,2.05c0.56,0.93,1.46,2.1.28,2.92s-1.86-.49-2.45-1.5c0.46,2.16.64,1.91,2.57,3.25a16,16,0,0,0,4.47,2.5c0.89,0.27,1.14,1.43.87,2.43-0.39,1.43-1.05,2.93-2.42,3.42-3.17,1.13-6,3.16-9.48,3.48a4,4,0,0,1-2.48-.24c-1.58-.94-2.21-0.52-2.42,1.28-0.18,1.51-.58,3-0.07,4.5A4.2,4.2,0,0,1,63.83,74c-0.71.56-1.82,0.6-1.83-.2-0.06-2.53-1.74-5-.48-7.55A5.46,5.46,0,0,1,62.05,65.35Z"/><path class="cls-8" d="M62.05,65.35c-0.46,1.72-.77,3.41.31,5.06,0.5,0.77.14,1.58,0,2.41-0.27,1.35.35,1.5,1.34,0.71,0.33-1.08,1-1.75,2.18-1.49a16,16,0,0,0,3.73,0c1.72,0.53,1.62,1.5.52,2.54a4.6,4.6,0,0,1-2.74,1.61c-1-.31-1-2.11-2.26-1.72-2.07.65-4.33,1-5.89,2.78-0.94,1.09-1.71,2.31-2.69,3.38C55,82.37,55,82.37,56.17,84c0.74-1.09-.64-2.48.51-3.49a0.78,0.78,0,0,1,.69.23c0.52,2.82,3,4.61,3.81,7.25a6.17,6.17,0,0,1-1.26,6.18A18.44,18.44,0,0,0,58.15,97a7,7,0,0,0-.36,7.46c-0.49,2.09-1.62,4-1.47,6.28-1.11,2.42-3.36,3.75-5.37,5.2a22.75,22.75,0,0,0-6.59,7.26,6.73,6.73,0,0,1-1.7,2.19c-0.44.33-1.22,0.55-.94,1.31s1,0.59,1.51.79c1.18,0.45,2.55.19,3.65,0.94a0.76,0.76,0,0,1-.75,1c-1.89.2-2.91,1.54-4,2.87-1.67.81-2.69-.64-4-1.14-1.83-1.16-3.11.51-4.64,0.9-0.52-.1-1.52.74-1.42-0.57,0.11-1.49.31-3.16,2.18-3.44,1.16-.17,2.11-0.28,2.59-1.52a1.59,1.59,0,0,0-.25-1.85,1.27,1.27,0,0,0-1.76-.39,3.42,3.42,0,0,1-2.9.5c0.46-.62,1.53-0.53,1.56-1.5a3.36,3.36,0,0,1-1-2l-1.51-.92c1.65-.16,3.11-0.11,4.23,1.55,0.6,0.9,1.85.93,3,.52a1.75,1.75,0,0,0,1.37-2.11c-0.53-3,2.88-3.73,3.71-3.7,2.44,0.08,3.28-1,3.95-2.84a1.86,1.86,0,0,1,.54-0.53,2.27,2.27,0,0,1,2.52-1.6c1.88-2.55,3.5-5.05,1.74-8.47-0.62-1.21-1.84-2.8-.23-4.31a35,35,0,0,0,1.33-11.24c-0.21-3.4-1.37-6.42-4.65-8.22-3.13-1.72-6.28-1.63-8.75.47a8.11,8.11,0,0,0-2,8.64,13.8,13.8,0,0,1,.72,1.9c0,2.95-2.08,1.06-3.39,1.4,0.33,1.58,2.39,2.07,2.42,3.76L37.67,96c0.49,1.09,1.11,2.24-.27,3.11a3.41,3.41,0,0,1-4-.44A2,2,0,0,1,33,95.56c0.72-.82.07-1.75-0.1-2.64-0.55-2.79-2.06-5.65.57-8.26a1.52,1.52,0,0,0,0-1.45c-1.54-2.25-.62-4.76-0.88-7.14,3.56-3.55,7.92-2.55,11.59-1s6.6,0.82,9.73-.35c1.63-.61,3-1.83,4.8-2.21,1.09-.23,1.1-1.28,1.24-2a21.63,21.63,0,0,0,.12-3.55C61,66.67,61,65.4,62.05,65.35Z"/><path class="cls-9" d="M74.4,28.25c-0.7-2.31-2-2.78-3.71-1.18-1.16,1.08-2.12,1.56-3.76.84a3.8,3.8,0,0,0-4.37,1c-0.67.7-1.19,1.1-1.45-.26-0.48-2.87,2.26-2.48,3.57-3.52,2.16-1.37,1.62-3,.53-4.76-0.27-1.93.9-3.4,1.56-5A26.18,26.18,0,0,1,75,10.51c2.76-1,5.07.43,7.19,2.05C82.75,13,83,13.65,84,13c3.13-2.27,4.72-2,7.25.95a5,5,0,0,1,.73,1c0.29,4-1.68,6-5.42,5.25a1.13,1.13,0,0,0-1.46.54C83.2,24,80.23,26.1,77.2,28.16A3.93,3.93,0,0,1,74.4,28.25Z"/><path class="cls-10" d="M35.12,55.71c1.82,0.29,3.64.56,5.46,0.88S46,55.31,47,53.73c0.52-.83.16-1.38-0.28-2.05-1.19-1.81-2.18-3.77-3.94-5.15l2,0c1.11-.81,1.85,0,2.67.58s1.41,1.33,2.41.49A7.62,7.62,0,0,0,54,45.61c1.61-1.67,3.19-1.66,5.24-1.19,1.47,0.33,1.47,1.08,1.4,2.14a4.46,4.46,0,0,0-2,2.43c-0.73.78,1.22,1.92-.31,2.54a4.52,4.52,0,0,1-3.62-.34c-2.87-1.29-3.15-1.1-3.85,2-0.32,1.4-1.43,2.58.12,4.09,0.61,0.6-.78,1-1.39,1.31-2.94,1.38-6.1,2.32-8.73,4.33a1.64,1.64,0,0,1-1.9.2c-1-.58-1.07-1.7-1.14-2.67-0.06-.79.63-1.09,1.38-1.19,0.44-.06,1.06.19,1.28-0.74C39,58.23,37.6,58,36.18,57.64,35.19,57.4,34.36,57,35.12,55.71Z"/><path class="cls-7" d="M53.93,62.84a4.23,4.23,0,0,1-2.79-2c-0.61-.84.49-1.46,1-2a5,5,0,0,0,1.35-2.92A1.91,1.91,0,0,1,55,54.27a1,1,0,0,1,1.28.55c0.41,0.81-.39,1.2-0.7,1.75A7.24,7.24,0,0,1,54.51,58c-0.91,1-1.71,1.82.25,2.54a1.27,1.27,0,0,1,.64,1.72C55.21,62.83,54.67,62.82,53.93,62.84Z"/><path class="cls-11" d="M49.9,47.55c-0.74,1.36-1.62,1.19-2.54.22a3.09,3.09,0,0,0-2.54-1.29c0.82-3.18,3.39-2.43,5.6-2.49a4,4,0,0,1,.52,1.53,7.57,7.57,0,0,0-1.45.79C48.74,46.95,49,47.39,49.9,47.55Z"/><path class="cls-12" d="M58.64,49c-1.07-2.21.35-2.39,2-2.43C61.51,48.63,60.53,49.18,58.64,49Z"/><path class="cls-10" d="M50.94,45.52c-1.29-.13-0.84-0.85-0.52-1.53a2.23,2.23,0,0,1,.74,0c0.81,0.26,1.68-1.74,2.11-.29C53.64,45,52.23,45.52,50.94,45.52Z"/><path class="cls-13" d="M38.23,90.85c-3-4.15-1.51-10.38,2.59-12.56,3.72-2,9.72.22,11.69,4,2.56,4.86,1,9.75.82,14.63,0,0.69-.91,1.36-1.4,2a4.28,4.28,0,0,0-3.06,1.54c-1.48,1.4-2.85,1.34-4.19.06a2.34,2.34,0,0,0-3.14-.43c-1.89,1.06-2.55,0-2.81-1.72-0.13-.87.56-2.16-1.05-2.4l0,0c-1.19-1-.83-2,0-3C38.19,92.3,39.12,91.83,38.23,90.85Z"/><path class="cls-14" d="M50.41,111.69l-2.52,1.6c-1.51-.16-2.25-0.58-0.64-1.84a4.37,4.37,0,0,0,.89-0.87,1.38,1.38,0,0,1,1.64-.83C50.79,110.1,50.36,111,50.41,111.69Z"/><path class="cls-15" d="M69.76,72.47c-1.3.35-2.56,0.84-3.94,0.16-1-.47-1.55.3-2.15,0.89,0.45-3-.71-6,0.16-9.1,0.39-1.37.81-2.07,1.78-1.25,1.73,1.46,3.44.94,5.25,0.64,2.77-.46,4.91-2.44,7.67-3.06,1.26-.28,1.72-2,2.24-3.24a1.21,1.21,0,0,0-.37-1.37c-2.08-.4-3.63-2.38-5.27-2.61A2.12,2.12,0,0,1,73,51.6c-0.28-1,0-2.26-1.79-2.51,1.61-.58,2.5-0.11,3.08.91,0.29,0.51.41,1.32,1.17,0.9s0.39-1.3,0-1.72c-0.91-.86-1.07-2.25-2.32-2.9s-0.6-1.6-.14-2.42a1.79,1.79,0,0,1,2-1c0.82,0.08,1.75,2.08,2.37.3,0.55-1.59,1.68-3.56-.4-5.06a2.86,2.86,0,0,1-1-3c0.08-.7.57-0.35,0.94-0.24,1.15,1,2,.56,2.72-0.54C80.3,33.67,80.75,32.59,82,34s2.31,1,2.72-.92a1.56,1.56,0,0,1,.32-0.87,1.59,1.59,0,0,1,1.14-.37c2.41,0.69,4.48-3,7-.55,1.31,0.57,1,1.78,1.14,2.84a11.39,11.39,0,0,0,.24,3.13c2.19-.61,3.29-2.51,4.79-3.89,2.14-2,3-1.85,3.76.91,0.34,1.25.89,0.79,1.61,0.79,2.68,0,5.39-.18,7.75,1.59A5.91,5.91,0,0,1,115,40.27c0.22,1.08.65,0,1,0a1,1,0,0,1,.57.53c0.55,2,.18,4,0.29,6-0.11,2-.38,4-2,5.46a0.68,0.68,0,0,1-.47.13c-3-1.75-6.46-1.53-9.74-2.12-2.69-.48-4.27-2.67-5.74-4.7-2-2.73-4.25-3.89-7.59-2.68a21.61,21.61,0,0,1-4,.73c-2.33,0-3.18,2-4.34,3.49-0.59.75-.14,1.64,0.46,2.3a4.55,4.55,0,0,1,1.16,4.89c-0.33.93,0,1.32,1,1.48,2.83,0.43,3.16,1.27,1.82,4.09a16,16,0,0,1-1.92,1.57c-1.34-.15-0.89-2-2.29-2.3-1.12,3.13-3.82,4.83-6.3,6.78-1.71,1.35-2.72,3.4-4.23,5A3.86,3.86,0,0,1,69.76,72.47Z"/><path class="cls-16" d="M93.14,23.05a3.37,3.37,0,0,1-1.67-.27c-2.32-2.45-4.35-.88-6.42.34-1.48,1.1-3.05,2.11-3.56,4.05-1,1.15-1.86,2.41-3.6,2.41-0.63-.24-1.21-0.53-1-1.38a5.91,5.91,0,0,1,.11-1c3-.11,3.24-3.76,5.87-4.42,1.6-.4,1.23-2.39,2.11-3.49,0.52-.65.72-1,1.5-0.32,1.89,1.64,3.1,1.39,4.16-.78,0.51-1,1.26-2,1-3.29a12.87,12.87,0,0,1,1.51,0c0.79,0.1,1.9-.44,2.3.47,0.57,1.27-1.21,1.1-1.56,2.11a2.3,2.3,0,0,0,3-.11c0.43-.35.64-1.15,1.36-0.78s-0.06,1,.1,1.59c0.28,0.92-.31,1.24-1.06,1.27-1.09,0-2.06.16-2.12,1.56S94.17,22.74,93.14,23.05Z"/><path class="cls-15" d="M81.49,29.2a4.8,4.8,0,0,0,1.45-.3c0.73-.41,1.67-1.22,2.2-0.41,0.64,1-.66,1.52-1.31,2-1.29,1-2.88.66-4.37,0.71C78.93,29.37,80,29.1,81.49,29.2Z"/><path class="cls-17" d="M76.93,28.2l1,1c0.71,0.48,2,.73.8,2-1.81-.43-4.4.29-4.35-2.92C75.23,27.41,76.08,27.68,76.93,28.2Z"/><path class="cls-18" d="M79.57,34.32c0,0.07-.06.15-0.1,0.22-0.44.75,0.23,2.19-1.28,2.27s-0.36-1.65-1.34-1.95c0.05-.67-0.36-1.61.78-1.71C78.48,33.08,79.53,32.92,79.57,34.32Z"/><path class="cls-19" d="M78.75,31.17c0.42-.94-0.35-1.4-0.8-2,1.59,0,2-2,3.54-2,1.54,0.68.22,1.35,0,2-0.86.51-2,.7-2,2Z"/><path class="cls-20" d="M69.76,72.47a8.28,8.28,0,0,0,2.61-2.23,40.86,40.86,0,0,1,8.58-8.4A2.76,2.76,0,0,0,82.06,60c0.16-.77.27-1.94,1.3-1.87A2.17,2.17,0,0,1,85,59.9a2.21,2.21,0,0,0,.48,1.4,4,4,0,0,1,1.83,1.62c0,1.89-1.5,1.38-2.5,1.59-1.46.31-2.13,0.89-1.16,2.34-0.23,1.48-1.45,2-2.58,2.5-1.48.63-2.91,1.35-4.61,2.14,2.43-.43,3.89,1.33,5.77,1.89,0.67,0.2,1.48.66,1.63-.31,0.41-2.62,2.47-2.87,4.41-3.37,2-.1,4.25.81,5.48-1.82a1.11,1.11,0,0,1,1.78.07c1.11,1.46,2.77,1.8,4.31,2.42A19.8,19.8,0,0,0,97.74,77a1.48,1.48,0,0,1-1.12,1.25c-1.72-.18-3.11-0.78-3.55-2.69A2,2,0,0,0,90.76,74a24.92,24.92,0,0,1-3,.11,1,1,0,0,0-1.15.31c-1,2.88-3.49,5-4.1,8.1-0.23,1.18,0,2,1.17,2.41,1.92,0.68,2.16,2.19,1.88,3.93-0.12.75-.29,1.5-0.36,2.26-0.1,1.12-.36,1.89,1.46,2.11a5.28,5.28,0,0,1,4.14,3.64c-0.7.7-1.6,0.3-2.4,0.46-3.44.4-6.09,0-7.92-3.82-1.36-2.83-4.66-4-7.89-5-2.35-.72-3.65-0.61-5,1.43a3.75,3.75,0,0,1-3,1.66c-2.23-.86-3.24-2.25-2.94-5.11,0.43-4.19,1.91-8,5.63-10.45,0.88-.63,1.77-1.25,2.64-1.9S70.8,73,69.76,72.47Z"/><path class="cls-21" d="M46.88,128.59a14.7,14.7,0,0,1-5.43-1c-0.88-.37-1.68-1.4-0.58-1.79,2.37-.84,2.88-3,4-4.68,2.42-3.82,6.49-5.81,9.59-8.87,0.53-.53,1.11-1,1.66-1.52,2.27-1.47,5.19-.95,6.35,1.59a22.43,22.43,0,0,1,2.36,8.45c0.06,1.7-.5,3.07-2.41,3.26-1.75.18-2.47,1.82-3.75,2.52,1.79-.18,3.2-2.14,5.3-1.39,0.94,1.54-1,1.69-1.27,2.64,0.17,1.31,1.7.94,2.22,1.81a1.24,1.24,0,0,1-.06,1c-1.29,1.38-2.76,1.9-4.52.65a3.41,3.41,0,0,0,1.38,3.51c1.76,1.64,1.95,3.16.69,5.18a16.55,16.55,0,0,1-3.79,3.71,1.5,1.5,0,0,1-1.9.08c-1.82-1.23-3-.43-3.92,1.2a1.61,1.61,0,0,1-1.34,1,2.36,2.36,0,0,0-2.14.39c-1.63.75-2.65,0.16-3-1.55a13,13,0,0,1,.29-4.54,3.31,3.31,0,0,1,2.75-2.91,1.46,1.46,0,0,0,.89-1.67,7.74,7.74,0,0,1,1.55-4.21A23.84,23.84,0,0,1,46.88,128.59Z"/><path class="cls-22" d="M64.18,125.46c-1.44-.15-2.55.57-3.74,1.25-1,.59-2.49,0-3.5,1.11,2.13-1.45,2.71-4.82,6.12-4.54,1,0.08,1.07-1.08,1.12-2,0.17-3.13-1.17-5.94-2.23-8.69-0.91-2.38-3.44-2.63-5.85-1.91-1-2.4.26-4.27,1.46-6.14,0.34-1.58,1.71-1.78,2.92-2.2,1.59,0.74,2.13-1.36,3.53-1.18-1.08-.21-1.95.81-3,0.34a1.49,1.49,0,0,1-.37-1.76c1.76-2,4-2.46,6.54-2.18A3,3,0,0,1,68.56,99c0.44,0.93.2,2,.73,2.95A10.1,10.1,0,0,0,80,106.36c1.28-.26,1.93-0.89,1.79-2.25a3.81,3.81,0,0,1,0-2.46c1.44-.44,1.51.85,1.9,1.61s0.26,1.94.57,2.88-0.38,2,1,2.27c1.52,0.37,1.68-1,2.28-1.82,0.26-.33,1.16.65,1-0.57a1.72,1.72,0,0,1,.89-2.07c0.49-.25.53,1.81,1.39,0.21a6,6,0,0,1,2.58-2.93,1.45,1.45,0,0,1,1.65,1.69,48,48,0,0,1-2.56,4.79,10,10,0,0,0-.94,7.34,39,39,0,0,0,1.91,7.06c0.4,0.94,1.22,2.17-.45,2.71a2.09,2.09,0,0,1-2.86-1.69,4.83,4.83,0,0,0-.41-1.45c-2.09-2.88-4.63-5.39-6.31-8.64-1.11-2.16-3.81-2.8-6.12-3.12-3.89-.53-6.93-2.52-9.74-5-2-1.77-2.59-1.86-4.62,0-0.38.34-.73,0.7-1.08,1.07-1.6,1.72-1.57,1.82.84,2.74,1.17,0.48,2.38-.15,3.56.12,0.52,0.26.92,1,.49,1.16-2.61,1.24-1.47,3.44-1.3,5.23a7.37,7.37,0,0,0,2.63,5.3c2.25,1.44,4.9,1.72,7.37,2.49a2.41,2.41,0,0,0,1.95-.3,7.84,7.84,0,0,1,8.37-.29A15.69,15.69,0,0,0,88,123a3.37,3.37,0,0,1,1,.68c0.6,0.84,1.93,1.57,1.11,2.75-0.68,1-2,.68-3.07.52a7.8,7.8,0,0,1-4.09-2.33,1.35,1.35,0,0,0-1.42-.23c-1.49.91-2.06,2.67-3.36,3.74-1.71,1.42-1,3-.45,4.62-0.22,1.67-1.41,1.14-2.33.93s-2.19-.43-2.07-1.78a11.69,11.69,0,0,0-.46-3.49c-0.87-4.27-3.17-5.35-7-3.25A1.66,1.66,0,0,1,64.18,125.46Z"/><path class="cls-23" d="M60.6,100l0.47,1.51a0.87,0.87,0,0,1-.54.95l-3,2.11c-2.2-3.16-1.65-6.91,1.52-10.44,2.63-2.92,2.44-6.37-.61-8.93A2.56,2.56,0,0,1,57.56,83c0-.92.11-1.92-1.07-2.3h0a8.4,8.4,0,0,1,6.22-6.13,3.67,3.67,0,0,0,1.21-.24c2.6-2.26,2.71.19,3.32,1.71-1.88,2.84-4.25,5.35-4.83,9-0.46,2.87.19,5.17,2.42,6.31,0.05,1.68-1.5,2.05-2.41,2.92C60,96.45,59.59,97.77,60.6,100Z"/><path class="cls-24" d="M46.88,128.59c0.62,0,1.17-.57,1.86.08,1.93,1.8,2,1.76,4.68,2.07-1.71,1.88-3,3.78-2.56,6.31a0.92,0.92,0,0,1-1.09,1.07c-0.93,0-2.11-.11-2.28,1.06-0.31,2.13-1.32,4.3-.35,6.43,0.52,1.14,1.48.67,2.3,0,0.61-.5,1.44-1.7,1.88.19a4.39,4.39,0,0,1,.18,1.9,1.47,1.47,0,0,1-.45,1.15,77.41,77.41,0,0,1-7.57,3.44,1,1,0,0,1-1.14-.36,0.86,0.86,0,0,1,.33-1.1,22.6,22.6,0,0,1,2.57-2.46c1.17-.6,1.39-1.42.48-2.42-2.19-2.42-2.29-4.78-.1-7.31a15,15,0,0,0,1.85-3.29c0.47-1,.88-2-0.76-2.26-0.64-.12-0.85-0.46-0.45-1.06,0.26-.39.83-0.82,0.24-1.26a1.33,1.33,0,0,0-1.83.27,2.71,2.71,0,0,1-2.43,1.06A3.26,3.26,0,0,1,45,129C45.65,128.93,46.36,129.15,46.88,128.59Z"/><path class="cls-25" d="M56.49,80.69a8.46,8.46,0,0,1,.57,3.73c0,0.4,0,.91-0.5,1a1,1,0,0,1-1-.62c-1.72-2-1.35-3.68.93-4.14h0Z"/><path class="cls-16" d="M113.48,35.34c-1.62-1-3.26-1.84-5.24-1.57a0.49,0.49,0,0,1-.25,0c-2-.95-3.25-2.92-5.13-4.05,0.19-1.37,1.44-1.13,2.28-1.45s2.44-.37,2.23-1.85-1.53-2.06-3-2.08a10.42,10.42,0,0,1-2.49.13c-0.67-.17-1.28-0.48-1.06-1.37,0-1.15.16-2,1.72-1.58a3.35,3.35,0,0,0,1.71-.17,1.22,1.22,0,0,0,1.05-1,1.1,1.1,0,0,0-.88-1.08c-0.78-.41-1.58-0.78-2.44-1.2,0.79-1,1.46-.15,2.12-0.14,1.08,0,2.2.31,2.42-1.36,0.14-1,1.34-1.55,1.82-.84,0.67,1,2.43-1.61,2.2.85a7,7,0,0,1-.11,3.05,1.44,1.44,0,0,0,1.25,2.06c2,0.18,4,.78,6,0.16a8.2,8.2,0,0,1,2.24-.44c1.44,0,2.73.24,3.39,1.71s0.09,2.82-1,3.89a12.75,12.75,0,0,1-3.84,2.45c-2.11.92-3.9,2.05-4.17,4.63A1.54,1.54,0,0,1,113.48,35.34Z"/><path class="cls-26" d="M100.83,23.09a1.39,1.39,0,0,0,2.09.73,4,4,0,0,1,2.5-.21,3.29,3.29,0,0,1,2.89,2.79c0.15,1.55-1,2.29-2.62,2.43a4.35,4.35,0,0,0-2.84.88c-0.85.57-1.47,3.34-2.74,0.27a2.7,2.7,0,0,0-1.41-.28c-0.46-.06-1-0.35-0.81-0.74,2.16-4.77-2.73-3.87-4.41-5.54l-0.35-.36,2.1-2C98.69,19.6,99,19.7,100.83,23.09Z"/><path class="cls-27" d="M118.15,171.29a2.76,2.76,0,0,1-.74-0.64c-0.56-1.06.07-3-1.36-3.23-2.13-.37-4.35-1.47-6.56-0.21-0.57-.93,0-1.4.73-1.79a1.83,1.83,0,0,1,1.24-.21c3.53,0.84,5.39-1.59,7.39-3.73a2.52,2.52,0,0,0,.33-3.62c-1.32-1.8-2.41-3.72-5.06-3.73-1,0-1.47-1.07-2.19-1.63-2.31-.92-3-2.56-2.17-4.88a2.5,2.5,0,0,0,0-2,9.28,9.28,0,0,1-.62-5.95,3.15,3.15,0,0,0-1.82-3.57c-0.3-.17.07,0.05-0.23-0.12-4.25-2.42-4.19-2.38-6.9,1.6-1.45,2.13-3.23,4-6.14,3.88a1.14,1.14,0,0,0-1.24,1c-1.1,3.16-1.44,6.6-3.61,9.39-0.74,1,.48,2.07.41,3.17s-0.89,1.69-1.91,2.09a44.91,44.91,0,0,0-12.17,6.72c-3.11,2.58-6.28,5.71-7.34,10.06-0.36,1.49-1.21,2.92-2.68,3.13-3,.43-5.81,1.8-8.87,1.92-0.86-.16-1.7-0.4-2.55-0.59-1.46-.46-3,0.18-4.48-0.44a1.17,1.17,0,0,0-1.55.46,1.26,1.26,0,0,0,.53,1.74,10.15,10.15,0,0,1,2.94,2.71c0.49,0.84,1.3,1.66.4,2.71-2,1-2.57,3.13-2.91,5s-2.15,3.85.23,5.66c0.42,0.32,0,1.25-.41,1.59-2,1.69-4,3.57-6.87,3.54-0.67,0-1.55,0-1.4-1,0.2-1.23-1.06-.87-1.36-1.48a0.57,0.57,0,0,1,.35-0.34c4.14,0.12,4.83-2.86,5.41-6a6.67,6.67,0,0,1,.7-2.1c-2.73.81-5.25,2.29-8,3.27,0.08-1.46-2.17-.59-2.07-2.08-0.13-2.2.51-3.16,2.68-3.2A4.23,4.23,0,0,0,42.14,186a14.24,14.24,0,0,0,2.49-7.82c0-2.06,2.53-4.36,4.85-4.29,1.75,0,3.55-.24,5.27.41,1,0.39,1.82.22,1.94-1.14,0.14-1.56,1.1-1.82,2.52-1.65,3.8,0.45,6.34-2.2,9.24-3.94a1.3,1.3,0,0,0,0-1c0.48-1.52.76-3.17,2.43-4,1.66-.17,2.34-1.77,3.61-2.5a18,18,0,0,1,1.87-.92,16.7,16.7,0,0,0,5.65-3c0.46-.93,1.87-1.45,1.22-2.85L82.76,153c-0.88-.78-1.76-1.66-0.17-2.49,2.17-1.14,2.38-3,2.18-5.09-0.1-1-.05-1.84,1.16-2.08a7,7,0,0,0,4.54-4.87,2.5,2.5,0,0,1,2-2.1c2.46-.78,3.17-3.24,3.94-5.45a15.53,15.53,0,0,1,.48-2.21c1.55-2.92,2.09-3.13,4.35-1.68,1.2,1.17,2.86.61,4.23,1.12,1.06,0.72.87,1.36-.19,1.83a14.81,14.81,0,0,1-2.69.37,2.52,2.52,0,0,0,2.57.38c3-.65,5.31.79,6.08,3.9,0.25,1,.29,2,0.63,3a0.49,0.49,0,0,0,.8.26,3,3,0,0,1,3-1.82A3,3,0,0,0,119,134.3a5.61,5.61,0,0,1,4.11-2.68,3.71,3.71,0,0,1,.74.08,3.6,3.6,0,0,0,2.39-.06,1,1,0,0,1,1.53.65,18.51,18.51,0,0,1-1.53,5.81,4.71,4.71,0,0,0-.75,4.95,1.34,1.34,0,0,1-.14,1.43,3.69,3.69,0,0,1-2.88.54c-2.36-.32-3.54.68-3.43,3.09,0.07,1.46-.1,2.59-1.6,3.19a2.34,2.34,0,0,0,1.84.49c2.47,0,5,.46,7.06-1.67,1-1,1.76-.22,2.27.84,0.41,0.85.46,2.08,1.88,2a3.54,3.54,0,0,1,1.42.26,12.32,12.32,0,0,1,4.64,4.24c0.85,1.38,2.41,1.8,3.73,2.53,1.68,0.73,2.75,2.59,4.83,2.6a6.1,6.1,0,0,1,1.16,1c0.83,0.87,1.75,1.78,1.26,3.1s-1.86.8-2.88,0.78a21,21,0,0,0-4.8.29c-2.8.59-5.65,1.33-6.92-2.69-1.17,1.38-.83,2.86-1.64,3.85C127.13,173.8,122.47,174.66,118.15,171.29Z"/><path class="cls-28" d="M51.94,185.55c-0.12-2.43-1.82-3.69-3.63-4.82-1-.65-1.77-1.2-1.07-2.6s1.68-1.48,2.68-.75c1.33,1,2.87-.72,4.07.54a1.72,1.72,0,0,0,2.55.5c3-.09,5.56-1.83,8.59-1.84,1.19,0,2-1.2,2.4-2.39,2.24-6.74,6.79-11.24,13.19-14.15,2.64-1.2,4.84-3.31,7.83-3.89a2.81,2.81,0,0,0,.65-1.28c2,2.4,4.48,2.37,7.18,1.69a1.68,1.68,0,0,1,1.43.33c0.64,1.25-.35,1.68-1.13,2.11a8.8,8.8,0,0,1-6.38,1,10.41,10.41,0,0,0-9.84,2.53c-3,2.64-5.64,5.22-7.36,9.09-1.94,4.36-6,7.17-10.77,8.51A23.39,23.39,0,0,0,59,181.31c-0.79.36-2.29,0.39-2,1.48,0.32,1.39.81,3.2,2.54,3.47a31.12,31.12,0,0,1,5.91,1.33c1.19,0.44,2.08-.41,3-1,3-2.13,6.3-3.83,9.47-5.7,0.85,2.35-1.29,2.69-2.46,3.69h0a3.1,3.1,0,0,0-1.71,1.71,12.66,12.66,0,0,1-2.58,4,4.31,4.31,0,0,0-1.26,3.92c0.53,2.18-.51,3.5-2.1,4.65H65l-0.14.51a25.88,25.88,0,0,1,2.59,1.57c0.49,0.37,1.34.83,1,1.58s-1.16.35-1.79,0.14A7.42,7.42,0,0,0,62,202.3c-0.26-1-1.23-.42-1.78-0.79l-0.2-.25c0.53-1.5-.49-2.51-1.25-3.5-1-1.28-.56-1.79.8-2a7.69,7.69,0,0,0,1.26-.08c1.16-.4,2.9-0.69,2.5-2.22a2.92,2.92,0,0,0-3.25-2.26c-1.18.2-2.56,0.21-3.1,1.74A2.77,2.77,0,0,1,56,194c-0.63.48-1.14,1.56-2.09,1s0-1.36,0-2.06a5.13,5.13,0,0,1,.22-2C55.58,188.22,55,186.38,51.94,185.55Z"/><path class="cls-21" d="M58.6,162.14c-0.17.45-.62,0.89-0.25,1.4,1.6,2.19.36,3.74-1.11,5.29a2.11,2.11,0,0,1-2.47.62c-2.22-.73-4.69-0.85-6.39-2.78-0.77-.85-1-1.56.47-1.83a8.39,8.39,0,0,0,3.59,0c1.19-.06,2.38-0.28,2.13-1.82a13.39,13.39,0,0,1,1.09-7.42,1,1,0,0,0-.26-1.1c-1.07,1.28-2.24,1.36-3.55.19-1.1-1-2.36-.71-3.54,0a19.14,19.14,0,0,0-3.59,2.8,3.11,3.11,0,0,1-1.07,1.06c-3.89.8-4.28,4-5,7a1.16,1.16,0,0,1-.43.61c-1.2-.63.42-2.71-1.52-3,1.31-5.09,2.77-10.11,6.87-13.81a2.75,2.75,0,0,1,1.69-1l-2.71,3.26c2.9-.64,5.33-2.34,8.13-3.08a2.68,2.68,0,0,0,.28-1.17,10.48,10.48,0,0,1,2.49-.42A4.13,4.13,0,0,1,58,149.78,6.09,6.09,0,0,0,59.12,152a3,3,0,0,1,.19,4.34,4,4,0,0,0-.71,4A2.1,2.1,0,0,1,58.6,162.14Z"/><path class="cls-29" d="M48.91,165.24c-1.43,0-.29,1-0.53,1.43-0.76,1.13-1.35,1.58-2.2-.05-0.65-1.25-1.69-1.57-2.43.1-0.75.35-1.65,0.5-2,1.45-1.35-.39-2.78-0.64-3.57-2-0.41-2.71,1.22-4.83,2.12-7.15a0.75,0.75,0,0,1,.27-0.4c3.85,0.37,4.91-3.8,8-4.89a3.42,3.42,0,0,1,3.85.52c0.89,0.76,1.69,1.83,2.17-.28a0.72,0.72,0,0,1,.92-0.65,1.21,1.21,0,0,1,1,1,4.1,4.1,0,0,1-.57,2.43,8.73,8.73,0,0,0-.69,5.91c0.51,2.16-.46,3-2.73,2.55-0.6-1.12.13-2.45-.56-3.57s-0.29.56-.66,0.24a4,4,0,0,1-1.2.39,1.1,1.1,0,0,0-1.11.85c-0.06.66,0.53,0.75,1,.92s1.42,0,1.53,1C50.7,165.72,49.8,165.43,48.91,165.24Z"/><path class="cls-30" d="M99.81,70.46c-1.79.23-3.44,0.23-4.31-1.83-0.28-.66-1.3-1.06-1.55-0.24C92.83,72.14,90.3,70.15,88.2,70a1.06,1.06,0,0,1-.31-1.39c2.33-.41,4.22-2,6.28-2.69,2.9-.91,5.46-2.58,8.38-3.28a6.25,6.25,0,0,0,4.13-3.43,2.51,2.51,0,0,0-.9-3.71A2.65,2.65,0,0,0,102,56c-0.77.85-.86,2.55-2.6,2.33a0.52,0.52,0,0,1-.16-0.19C98.88,55,97.25,53.65,94,53c-3.93-.74-6.21-4.18-8.36-7.31C84.78,44.5,86,43.59,87.08,43,89,42.5,91,42.25,92.94,41.71a5.27,5.27,0,0,1,5.3,1.95A18.38,18.38,0,0,1,100.09,46c2.18,3.52,5.6,4.22,9.3,4,2.18-.13,3.52,1.34,5.23,2.1,3.33,3.68,2.63,7.68-2.12,11.65,1.17,0.66,1.87,1.58.94,2.82s-2.66,2.4-4.17,1.56c-2.59-1.43-4.32-1-6.05,1.25A3,3,0,0,1,99.81,70.46Z"/><path class="cls-31" d="M99.81,70.46a7.81,7.81,0,0,0,4.43-3.07c1-1.42,2.57-1.5,4-.4,0.61,0.47,1.15,1.06,2,.86,1.32-.32,2.83-0.62,3.1-2.19,0.33-2-1.73-.88-2.61-1.77a8.23,8.23,0,0,0,4.34-4c1.18-2.16,1.7-4.18,0-6.31a4.25,4.25,0,0,1-.45-1.43A10.78,10.78,0,0,0,116.11,47c1.06-1.8.32-3.77,0.47-5.66,0.1-1.18-.09-2.37,1.35-2.93,0.91-.35.59-1.28,0.8-2a3,3,0,0,1,2-2.07A1,1,0,0,1,122,35a2.5,2.5,0,0,1-.47,2.8A15.43,15.43,0,0,0,120.2,40c-0.71,4.09,0,8.25-.65,12.34-0.25,1.54.6,2.74,1.4,4,2.13,3.21,1.89,5-.91,7.45a2,2,0,0,0-.56.5c-2.21,4.75-6.65,5.5-11.11,6.23a3.09,3.09,0,0,1-2.66.16c-1.84-.79-2.66.26-3.09,1.83s-1.12,3.14-1.54,4.76c-0.85,1.09-2.44,1.19-3.2,2.43a1.08,1.08,0,0,1-1.49.59A1.28,1.28,0,0,1,96,78.41l0.29-.27c1.67-1,1.05-2.9,1.34-4.32A4.93,4.93,0,0,1,99.81,70.46Z"/><path class="cls-32" d="M134.35,20.55c-2.47.17-4,1.85-5,3.73-1.21,2.26-2.54,4.17-5,5.15-0.63.25-1.2,0.63-1.83,0.89-4.53,1.87-6.29,5.5-6.44,10.15l-0.44-.12c0.5-2.19-.8-3.61-2.15-5,0.07-3.45,1.83-5.57,5.08-6.63A11.6,11.6,0,0,0,121,27.3c1.42-.89,2.74-1.92,1.92-3.85-0.93-2.18-3-1.71-4.37-1.09-2.58,1.21-4.94.06-7.36-.09-1.3-.08-2.35-1.16-1.14-2.74,0.9,2.39,2.77,2.29,4.55,1.46,2.06-1,2-2.7,1-4.5a1.33,1.33,0,0,1,.62-0.13c3.28,3.44,7.24,3.67,11.5,2.44,2-.58,4-0.29,6.05-0.26S134.32,19.82,134.35,20.55Z"/><path class="cls-20" d="M87.08,43c-1.39,1.48-1.57,2.8.28,4.13,1.28,0.92,2.1,2.33,3.26,3.43,2,1.86,4.23,2.27,6.63,2.59,1.21,0.16,2.23.18,1.69,1.92-0.33,1,1.58,1.92.38,3.15-1.17,2.55-3.61,2.06-5.27,1.45a7.86,7.86,0,0,0-6.28.4,1,1,0,0,1-.69-0.32c1.07-3.13.89-3.56-2.12-3.31-1.59.13-1.68-.48-1.24-1.49,1-2.23.76-4-1.32-5.56a2,2,0,0,1-.25-2.57C83.74,45.47,84.4,42.85,87.08,43Z"/><path class="cls-33" d="M87.08,59.72l0.53,0.05c1.06,0.24,1.69.84,1.37,2a1.32,1.32,0,0,1-1.91,1,1.49,1.49,0,0,1-1.58-1.48A1.8,1.8,0,0,1,87.08,59.72Z"/><path class="cls-34" d="M94.66,103a1.24,1.24,0,0,0-1.46-1.43,5.68,5.68,0,0,1-2.93-2.8A1.79,1.79,0,0,1,90.64,97l-3.32-3.06a1.17,1.17,0,0,0-.42-0.28c-2.41-.72-2.82-1.34-2.24-3.89,0.47-2.07,1.13-4-2.12-4.36-0.9-.1-1.29-1.32-0.93-2.34,0.8-2.29,1.4-4.7,3.21-6.49,0.24-.24.47-0.49,0.7-0.74,0.7-.75-0.46-2.55.45-2.41,2.11,0.32,4.18-.42,6.23.1a1.8,1.8,0,0,1,1.07.54c0.11,2.06,1.49,3.14,3,4.12v0c-0.1,2.51-1.47,5.17,1,7.38,0.6,0.55.37,1.41,0.36,2.18,0,1.67,1,2.35,2.37,1.74s2.35-3.62,1.26-4.57c-1.69-1.48-1.65-3-.82-4.75a16,16,0,0,0,.43-2.49c1-4.13,4.56-6.38,8.73-6.3a12.34,12.34,0,0,0,9.07-3.07,4,4,0,0,1,1.46-1,1,1,0,0,1,.71.15c0.83,2.84.42,3.52-2.27,4.48-4.39,1.56-9,2.71-12.5,6.1-1.07,1-1.73,1.62-1.16,3.35a13.62,13.62,0,0,1,.54,7.18c-0.63,2.87-.61,2.88,2.29,2.72,0.59,0,1.18-.08,1.78-0.06,3.7,0.27,5.57,3.49,4,6.78C113,99,111.88,99,111,99.38s-1.6.44-2.38,0.72c-2.5,1.11-5,1.49-7.57.12-1.29-.68-2.84,0-4.27,0-0.88,0-.94.77-1,1.49S95.75,103.21,94.66,103Z"/><path class="cls-35" d="M60.6,100c-1.65-.27-1.79-1.27-1.25-2.6A9.65,9.65,0,0,1,63,93a6.67,6.67,0,0,0,1.86-1.67c1.36-1.09,3.06-1.8,3.68-3.7a1.47,1.47,0,0,1,1.74-.78c4.69,1.95,10.11,3,12.16,8.58,0.56,1.53,1.54,1.85,2.72,1.39a5.06,5.06,0,0,1,3.44.16,3.09,3.09,0,0,1,1.08,2.72,3.25,3.25,0,0,1-2.18,3.15c-1.27.54-2.31-.06-3.17-1A29.52,29.52,0,0,1,82,98.48c-1.34-1.94-3.45-2.64-5.29-1.71-0.55.28,0.24,0.4,0.28,0.66-0.45,1.2-1.26,2.17-1.24,3.66,0,1.88-2.28,2.89-4.26,2.16-0.94-.35-1.67-1.2-2.77-1.14-0.76-.93-0.26-2.07-0.54-3.08,0.09-1.59.42-3.17,0.44-4.76a1.86,1.86,0,0,0-1.17-2,1.55,1.55,0,0,0-1.63.38c-0.81.75-.29,1.51,0,2.31,0.35,1.1,1.64,1.74,1.45,3.08A12,12,0,0,0,60.6,100Z"/><path class="cls-36" d="M87.06,62.77c2-.68,2-1.7.55-3,1.88-1.2,3.49-2.43,6.06-.8a4.89,4.89,0,0,0,5.66-.78c1.46-.32,1.59-1.84,2.29-2.77,1.41-1.88,2.91-1.46,4.44-.63s2.52,2.28,1.5,4.22c-1.18,2.24-2.58,4.22-5.45,4.32a2.77,2.77,0,0,0-1.81.78,4.24,4.24,0,0,1-1.47,1c-2.69.78-5.41,1.41-7.62,3.36a2.58,2.58,0,0,1-3.11,0c-1.35-1.05-3.22-.54-4.6-1.5-0.82-.14-1.57-0.5-1.41-1.44,0.21-1.21,1.34-1.36,2.31-1.65S86.75,64.54,87.06,62.77Z"/><path class="cls-37" d="M76.89,97.46l-2.4-.12c3.47-2.81,7-1.57,8.26,1.1a12.07,12.07,0,0,0,1.43,2.37c0.82,1,1.68,2.38,3.29,1.5A2.82,2.82,0,0,0,89,98.66c-0.18-.55-0.27-1.14-0.4-1.71,0.7-.86,1.39.09,2.09,0L90.82,99c1.8,2.75,1.65,3.41-1.19,5-1.14,1.24,0,2.95-.85,4.34-1-.2-0.36-1.39-1-1.73-1.27.12-2.56,0.42-3.68-.53-0.5-.11-1.05-0.22-0.83-0.91,0.53-1.59-.39-2.63-1.29-3.69-0.89.11-1.13-.61-1.36-1.19A4.49,4.49,0,0,0,76.89,97.46Z"/><path class="cls-38" d="M83.51,66.95c1.55,0.44,3.84-1.36,4.6,1.5L88.2,70a1.33,1.33,0,0,1-.17.45c-2.64,0-3.31,1.87-4,3.93-0.33,1-1,.21-1.58,0-2.35-1-4.33-3.3-7.42-2.12C77.39,69.51,81.19,69.43,83.51,66.95Z"/><path class="cls-39" d="M76.39,159.63l-1.49,1c-0.84-.45-1.14.32-1.56,0.73a1.5,1.5,0,0,1-2.15.35c-0.37-.65-0.51-1.55-1.33-1.77-2.6-.71-4.41-2.78-6.78-3.88a3,3,0,0,1-1.74-4,3.77,3.77,0,0,0,.3-2.47c-1.26-3.26.62-5.66,2.2-8.13a17.11,17.11,0,0,0,1.58-2.28c0.67-1.54.73-3.05-.63-4.17-1.85-1.52-1.59-2.94-.12-4.47l-0.06-1c-0.06-1-.17-2-1.66-1.57a1.38,1.38,0,0,1-1.31-.49l2.55-2a2.47,2.47,0,0,0,.88-0.49c2.25-3.19,4.78-1.24,7.25-.42a1.12,1.12,0,0,1,.92,1.08c-0.52,2.17,1.61,4.06.6,6.24a0.66,0.66,0,0,0,.7,1c1-.28,2.15,1.73,2.9-0.27a2.11,2.11,0,0,1,2.8,0,5.76,5.76,0,0,1,2.58,7.08c-0.36,1.15.15,1.71,0.94,2.34s2.06,0.46,2.33,1.72c-0.64.16-1.34,0.68-.88,1.2,1.52,1.74-.53,3.1-0.32,4.69a1.38,1.38,0,0,1-1.2,1.18c-3.06.54-.72,1.43-0.16,2.21a1.88,1.88,0,0,1-2.91-1c-1.05-2.43-3.14-3.28-5.35-3.77-1.87-.42-2.58-1.32-2.47-3.14a3.7,3.7,0,0,0-1-2.8A14.4,14.4,0,0,1,68.4,136c-0.32,2.59-1.27,5-.77,7.6,0.2,1,.33,2,0.47,3s0.41,2-.76,2.39-1.73-.37-2.14-1.33c-0.11-.27-0.07-0.73-0.63-0.65a4.46,4.46,0,0,0,.66,3.38c0.59,1,1.41,1.53,2.43.42,0.5-.55.92-1.33,1.86-0.88a2.37,2.37,0,0,1,1.29,2.3,6.49,6.49,0,0,1-.09,1c-0.42,3.22-.29,3.32,3,3.76C75.12,157.24,76.9,157.3,76.39,159.63Z"/><path class="cls-40" d="M64.67,130.55c-0.59,1.75-.68,3.14,1.08,4.58s1.22,4.15-.86,6c-1.75,1.6-1.94,3.87-3.14,5.67a1.63,1.63,0,0,0,.14,1.44c0.93,1.38.61,2.72,0,4.07-0.52,1.19-.34,2.46.82,2.8,2.87,0.85,4.52,3.82,7.71,4.12,1.09,0.1,1.57,1.2.88,2.36a1,1,0,0,1,.05,1.39c-1.9.5-1.38,2.74-2.64,3.69-1.75,1.22-3.56,2.89-4.69-.61-3.12-.2-2.31-2.56-2.45-4.42-0.07-1-.55-1.16-1.3-0.53a2.59,2.59,0,0,1-1.69,1c-1.09-2.32-1.88-4.59.6-6.62a1.51,1.51,0,0,0,.34-1.37c-1.54-1.72-1.62-4.29-3.3-5.82-0.95-.87-2.3-1.55-3.66-0.36-0.85.74-1.11-.32-1.62-0.6a1.55,1.55,0,0,1,.37-1.58c0.88-.39.89-1.39,1.42-2,1.1-1.28,2.32-2.29,3.94-.71,0.38,0.37.85,0.84,1.27,0.41,1.63-1.65,3.89-2.77,4.58-5.22a2.18,2.18,0,0,0-1-2.84c-1.83-.79-1.91-2.4-2.19-3.94-0.18-1,.62-1.81,1.19-1C62,132.52,63.3,130.86,64.67,130.55Z"/><path class="cls-41" d="M61.63,127.5c1.13-.07,2.36.22,3.37-1.22,0,1.35.71,2.4-.39,3.28C63.25,129.4,61.66,129.58,61.63,127.5Z"/><path class="cls-42" d="M86.07,143.68c-0.91-.6-2-0.62-3-1.31-1.36-1-2.24-1.79-.71-3.38a2.17,2.17,0,0,0-.22-3.37c-1.42-1.25-2.09-3.73-4.76-3-1.5-1.58-1.63-3.06.06-4.68a29.68,29.68,0,0,0,2.62-3.31c0.82-1,1.66-2,3-.6,1.53,3,4.22,3,7,2.62a5.47,5.47,0,0,1,3,0c1.06,1.45,3,1.39,4.29,2.44,0.07,3-1.71,5.12-3.19,7.42a1.38,1.38,0,0,1-.66.64c-2.46-.71-2.25,1.1-2.63,2.58C90.41,141.41,87.27,143.86,86.07,143.68Z"/><path class="cls-43" d="M88.07,123.49a3.53,3.53,0,0,1-1-.1c-3.54-1.46-6.69-1.24-10.48.2-2.47.94-6.25-.73-9-2.62a41.57,41.57,0,0,1-2.15-5.66c-0.48-1.89-.3-3.51,1.39-4.74a11.51,11.51,0,0,0,1.7-1.87,2.82,2.82,0,0,1,3.71-.6c3.64,2.36,8.1,3.39,10.95,7.11,1.43,1.87,2.69,4,5.1,5.11C89.57,120.91,89.29,122.49,88.07,123.49Z"/><path class="cls-44" d="M94.66,103a1.82,1.82,0,0,0,.51-0.77c-0.92-2.63.48-2.85,2.59-2.78,1.78,0.06,3.4-.38,5.19.86,1.63,1.13,3.72-.28,5.57-0.75,1.72,2.33,2.36,4.81,1.1,7.58-0.39.85-.86,1.64-1.87,1-1.2-.78-2.53.15-3.7-0.45a0.57,0.57,0,0,0-.7.09c-1,2.63-4.8,3-5,6.35-0.13,1.81-1.38,2.61-3.23,2.29-1.67-2.16-4-4-3.7-7.16a4.18,4.18,0,0,1,.79-2.09A12,12,0,0,1,94.66,103Z"/><path class="cls-45" d="M88.07,123.49c0.5-1.7,1.12-3.42-1.8-3.39a2.54,2.54,0,0,1-1.19-1.22c-2.44-3.61-5.12-7-9.6-8.1-1.6-.4-2.22-2.2-4-2.3-2.79-.16-6.32,3.68-5.45,6.3,0.58,1.74.63,3.69,1.95,5.17,0.36,0.41,0,.77-0.35,1-2-1.66-2.53-4-2.89-6.42-0.11-.74.19-1.67-0.16-2.23-1.11-1.79-.58-2.31,1.33-2.23,0.71,0,.78-0.47.43-1-0.5-.78-0.15-2.13-1.62-2.27-1.84-.18-1.31,1.69-2.14,2.36-0.66-.14-1.32-0.26-2-0.41-1.24-.3-1.26-1-0.51-1.83a26.59,26.59,0,0,1,3.45-3.35c1.41-1,2.6-1.44,4.19.49a14.76,14.76,0,0,0,9.23,5.16c3.69,0.6,7.19,1.81,8.58,6,0.5,1.5,1.08,2.93,3,3.45,1.07,0.3.88,1.91,1.67,2.69,0.29,1.38.87,2.93-1.59,2.66Z"/><path class="cls-46" d="M88.55,124c1.68-.2,1.69-1.4,1.59-2.66,1.13,0.34.34,1.25,0.51,1.87a1.58,1.58,0,0,0,2.15,1.2c1.5-.38.25-1.08,0.08-1.65-1.36-4.56-3.17-9.06-1.73-14a2,2,0,0,1,1-1.6c-1.53,3,.6,5,2,7.24,0.39,0.63,1.1,1.06,1.07,1.92,0,2.71,1.17,4.45,4,4.9,1.92,0.3,3.22,1.76,4.63,3a3.35,3.35,0,0,0,2.12.67c0.94,0.13,2,.34,2.08,1.46,0.09,1.36-1,1.52-2.09,1.6-1.19-.25-2.44-0.14-3.62-0.49-1.66-1.19-3.2-1.75-5.17-.27a3.23,3.23,0,0,1-4-.17c-2.08,0-4.16,0-6.24.05a3.43,3.43,0,0,1-3.88-3C85,125.75,87,127,90,126.2Z"/><path class="cls-47" d="M76.89,97.46c2.2-1.23,3,.68,3.92,1.91,0.48,0.62.52,1.57,1.15,2.17,1,5.39.62,5.76-5,5.62a9.39,9.39,0,0,1-8.26-5.06c0.38-1.65,1.07-.73,1.7-0.2,1.36,1.15,2.72,1.65,4.26.24a1.28,1.28,0,0,0,.62-1.5C74.28,98.75,75.6,98.14,76.89,97.46Z"/><path class="cls-47" d="M67.22,98a21.37,21.37,0,0,1-2.36-3.47c-0.87-1.39-.23-2,0.65-2.69a2.21,2.21,0,0,1,3,0c1.2,1,.95,5.89-0.33,7.13Z"/><path class="cls-48" d="M62.55,109.16c0.08-1.26-.9-3,1.42-3.24s3,0.64,2.34,3.15C65.06,109.12,63.84,110.31,62.55,109.16Z"/><path class="cls-49" d="M84.07,106.14c1.26,0,2.57-.47,3.68.53-0.2,2.33-1.4,3.28-3.52,2.47C82.31,108.4,83.67,107.18,84.07,106.14Z"/><path class="cls-35" d="M89.63,104.07c1.28-1.47,2.67-2.91,1.19-5a8.61,8.61,0,0,1,2.38,2.53L90,106.46C89.35,105.62,89.8,104.78,89.63,104.07Z"/><path class="cls-8" d="M60.54,102.47l0.54-.95a2.5,2.5,0,0,1,1.06-.63c1.16,0.09,2.55-1.78,3.11-.53,0.63,1.41-1.5,1.26-2.36,1.88a12.38,12.38,0,0,0-1.1,1C60.38,104.56,60.72,103.09,60.54,102.47Z"/><path class="cls-50" d="M127.36,36.31c0,1.05-1,1-1.57,1.39-2.74,2.14-3.61,5.2-4,8.42-0.12,1,.67,1.86,1.37,2.61,1.82,2,3.6,4,5.43,5.92a2,2,0,0,1,.6,2.29c-1,2.64,0,4.18,3.15,4.32a3.55,3.55,0,0,1,3.34,2.62c0.48,1.26.78,2.66-.77,3.56-2.81.73-5.24,0.73-7.51-1.79-1.9-2.1-5.15-1.42-6.92.85-0.36.46-.81,0.86-1.13,1.36-2.72,1.78-5.42,3.67-8.85,3.56-1,0-2.61.6-2.54-1.46,2-1,4.5-.55,6.5-1.75a4.42,4.42,0,0,0,.94-0.35,75.08,75.08,0,0,0,6-7.06c0.76-1.1.21-2.79-.87-4a6.23,6.23,0,0,1-1.6-6c0.52-2.44.2-5.06,0.16-7.6A4.09,4.09,0,0,1,120.2,40c1.71-.34,2.54-1.82,3.61-2.92S126,35.56,127.36,36.31Z"/><path class="cls-51" d="M75.39,184.55c0.55-1.4,2.4-1.88,2.53-3.58-0.19-1.42,1-1.82,1.85-2.39,2.06-1.31,4.46-1.57,6.76-2,1.78-.35,2.74.94,2.47,2.86-0.14,1-.94,2,0,3.44a5.63,5.63,0,0,1,3.21-3.57c2.07-1.1,2.63-5.51,1.25-7.41a20.35,20.35,0,0,0-2.22-2.43c-1.54-1.52-1.34-2.63.64-3.34a16.08,16.08,0,0,0,4-2.22,5.47,5.47,0,0,1,4.21-1.33c1.37,0.22,2.16-.6,3-1.47,1.06-1.08,2.25-1.62,3.31.08,0.26,0.68.25,1.61,1.25,1.67,0.61,0,.94-0.3.62-1-0.35-.42-1.11-0.68-0.69-1.42a1.26,1.26,0,0,1,1.57-.45,3.73,3.73,0,0,1,2.26,1.89,3.54,3.54,0,0,0,2.24,1.53c1.43,0.32,1.27-1,1.71-1.72a3.88,3.88,0,0,1,.65-0.76c0.49-.46,1.64-0.57,1.06-1.64a2.23,2.23,0,0,0-2.29-1.28,9.75,9.75,0,0,1-4.91-.9c-0.64-.24-1.42-0.51-1.38-1.28s0.92-.82,1.56-0.93a2.12,2.12,0,0,0,1.37-.53c0.61-.7.41-1.78,1.11-2.43,0.72,1,1.2,2,2.91,1.66,1.32-.27,5.64,4.81,5.46,6.12a4.54,4.54,0,0,1-1.41,2.2c-1,1-2.85,1.3-2.2,3.46,0.08,0.27-.86.29-1.36,0.3-1.59,0-3.18.12-4.77,0.08a1.38,1.38,0,0,0-1.64,1.45c-0.52.74-1.07,2-2.11,1.15-2.33-1.82-3,.5-4,1.55-0.73.79-1.13,1.76-2.33,2.11-0.85.25-1,1.18-1.31,2-1.74,4.68-3,9.6-6.48,13.45-0.54.59-1,1.45-1.8,0.94-2.94-1.95-5.16-.21-6.95,1.62-2.46,2.51-5.85,2.17-8.69,3.46-1,.47-1.14-0.82-0.8-1.49a5.6,5.6,0,0,1,2.63-2.66c1.5-.64,2.62-1.36,2.2-3.13s-2-1.76-3.48-1.69Z"/><path class="cls-52" d="M112.51,151.94c0,1,.22,2.13-0.45,3.07a2.82,2.82,0,0,1-1.71.22c-3.43,0-6.87-.17-10.12,1.36a3.47,3.47,0,0,1-2.46.31l-2.43.54c-4,.85-4.05.84-6.14-2.58-1.43-1.85-.9-3.19.48-5,1.58-2.09,1.82-5,2.44-7.57,0.32-1.31.26-2.25,2.17-1.45,1.48,0.63,2.85-.6,3.95-1.68a10.89,10.89,0,0,0,2.61-4.3c0.68-2,2-2.18,3.56-1.14a20.32,20.32,0,0,0,3.49,2c1.94,0.84,2.24,2.56,1.87,4.48s-0.5,3.87.92,5.52a1.35,1.35,0,0,1,.11,1.62C109.44,150.42,109.54,150.66,112.51,151.94Z"/><path class="cls-53" d="M76.39,159.63c-0.35-1.86-1.68-2.11-3.24-2-2.64.26-3.9-1.14-3.27-3.73a5.93,5.93,0,0,0,.36-2.23,1.59,1.59,0,0,0-1-1.39c-0.88-.29-0.94.5-1,1.06-0.12,1.1-.89,1.15-1.67,1a2.7,2.7,0,0,1-2.3-2.11c-0.32-1.44-1.18-2.91-.26-4.41a1.25,1.25,0,0,1,.85-0.45,0.75,0.75,0,0,1,.8.79,8,8,0,0,0,.27,1.73,1.13,1.13,0,0,0,1.25.68,0.81,0.81,0,0,0,.46-1.23c-1.3-3.55-.56-7.17-0.38-10.77,0-.69-0.4-1.73.71-1.87a1.55,1.55,0,0,1,1.7,1.55c0,2.6,1.47,4.27,3.21,5.86a1.19,1.19,0,0,1,.41.89c-1,4.9,3.27,4.52,5.8,5.72a1.93,1.93,0,0,1,1.43,1.66,2.73,2.73,0,0,0,3,2.51l0,0c0.83,0.48.71,1.07,0.11,1.6a5.57,5.57,0,0,0-1.13,1.89A10.78,10.78,0,0,1,76.39,159.63Z"/><path class="cls-54" d="M118.12,129c0.28,1.37,1.39.95,2.25,1,1.26,0.1,2.53.06,3.77,0.26,0.59,0.1,1.53.39,1.36,1.22s-1.13.38-1.73,0.53h0c-3.2-.74-4.24-0.31-4.78,2.54-0.34,1.81-1.3,2-2.67,1.71-2.8-.51-2.8-0.54-3.18,2.38-1.53,1.09-2,.47-2.16-1.18s0-3.59-1.61-5c-1.35-1.2-2.39-2.39-4.33-1-0.5.35-1.48,0.06-2.23,0a1.53,1.53,0,0,1-1.67-1.26c0-1.15,1.14-.58,1.78-0.67s1.53,0,2.26-.12,0.58-.63.11-1a0.85,0.85,0,0,1,.8-1c0.73-.17,1.69-0.26,1.59-1.21s-1-.7-1.67-0.75c-1-.07-2.09.12-2.64-1.06a1.25,1.25,0,0,1,1.14-.41c1.7,0.21,3.23.38,2.16-2.21a1.34,1.34,0,0,1,1-1.76,3.24,3.24,0,0,0,3-2.87,0.94,0.94,0,0,1,1.21-.64c1.7,1.89,1.75,4.2.05,7.18,1.12,0.12,2.36-.69,3.19.45a1.47,1.47,0,0,1,.22.66C114.38,127.35,114.38,127.35,118.12,129Z"/><path class="cls-55" d="M119.16,152.39a15.25,15.25,0,0,1-2,.11,1.1,1.1,0,0,1-1.05-1.2,0.84,0.84,0,0,1,1-.86c1.61,0.2,1.82-.36,1.28-1.79a3.35,3.35,0,0,1,1.09-3.86c1-.77,2.21-1.56,3.52-0.11,0.68,0.75,1.34-.89,2.22-0.42,2,0.79,2.34,2.49,2.07,4.32-0.23,1.54-2.53,3.16-4.26,3.36C121.74,152.08,120.35,151.42,119.16,152.39Z"/><path class="cls-56" d="M119.16,152.39c-0.14-1.22.07-1.44,1.47-1.1,3.77,0.93,6.64-1.21,6.21-4.26-0.17-1.17-1-1.87-1.61-2.77a6.32,6.32,0,0,1-.41-5.37,1.09,1.09,0,0,1,.94-0.71c1.49,5.08,2.47,10.32,4.67,15.19-1.27,1.13-1.58-.22-2-0.87a16.3,16.3,0,0,1-1-2.81C125.22,152.85,122.19,152.64,119.16,152.39Z"/><path class="cls-57" d="M113.13,138.68c0-.5-0.06-1,0-1.51,0-.8-0.43-1.81.43-2.34s1.65,0.31,2.41.82c1.53,1,2.47.55,2.74-1.29,0.56-3.79,1.83-4.36,5.09-2.3-2.07.47-3.9,1.27-4.66,3.48-0.49,1.43-1.71,1.21-2.73,1.09C114.66,136.43,113.56,137,113.13,138.68Z"/><path class="cls-58" d="M139.57,159.17l0.5,1.43a10.2,10.2,0,0,1-5-4.11c-0.7-1.18-2.08-2-3.15-2.93,2.66-.68,4,2.57,7.43,1.68C136,157.93,138.26,158.38,139.57,159.17Z"/><path class="cls-59" d="M112.41,144.86c-0.91.06-1.51-.58-1.4-1.83,0.17-1.81,1.45-2.68,3-3.17,0.65-.21,1.41.63,1.1,0.89C113.8,141.86,115.92,144.88,112.41,144.86Z"/><path class="cls-60" d="M93.21,127c2-.1,3.92,0,5.71-1.26,1.41-1,2.34.69,3.48,1.19-0.35.69-1.05,0.56-1.63,0.71-0.88-1.59-1.78-1.46-2.69,0-0.3.48-.15,1.19-0.76,1.52C95.71,128.83,93.69,129.41,93.21,127Z"/><path class="cls-61" d="M112.67,150.41c-1.42.12-1.72-.56-1.71-1.68s0.77-1.06,1.53-1.06c1.05,0,1.74.32,1.71,1.58S113.41,150.53,112.67,150.41Z"/><path class="cls-62" d="M100.77,127.59c0.29-.84,1-0.59,1.63-0.71,1.23,0.19,2.57-.35,3.68.57a1.35,1.35,0,0,1-.8,1C103.8,128,102.08,128.95,100.77,127.59Z"/><path class="cls-39" d="M82.51,156.47c-0.6-1.44,1.84-2,1-3.49,1.11,0.09,1.19.71,0.67,1.47A26,26,0,0,1,82.51,156.47Z"/><path class="cls-63" d="M97.77,156.9c3.54-1.38,7-3.27,11-2a12,12,0,0,0,3.25.1c-0.87,1-2.12.19-3.17,0.9,1.91,0.37,3.36,2.18,5.65,1.42,1.09-.36,4.22,1.76,3.8,2.42a14.73,14.73,0,0,1-4.16,4.54c-0.55.35-2.92-.51-3.49-2.3-0.43-1.34-1.52-1.62-2.82-1.56-0.08.95,1,.52,1.13,1.14a2.28,2.28,0,0,1-3,.22c-0.79-2.15-1.78-1.36-2.64-.1s-1.78,2-3.53,1.51c-2.57-.71-3.83,2-5.91,2.68-0.39.13-.63,0.73-1.2,0.81-0.76.11-1.85-.34-2,0.94-0.14,1.14,1,1.16,1.56,1.75,1.05,1.21,2,2.5,3,3.75a1.1,1.1,0,0,1,.11,1.39,17.57,17.57,0,0,0-1.52,4,2.08,2.08,0,0,1-.83,1.23c-1.65.71-3.38,1.24-3.19,3.6a0.88,0.88,0,0,1-1,.55,1.35,1.35,0,0,1-1-1c-0.58-1.24.17-2.32,0.54-3.4,0.53-1.52-.21-2.8-1.45-2.42-3.11,1-6.84.71-9,3.9-3,3.2-7.52,4.2-10.64,7.24a1.15,1.15,0,0,1-.91.34c-2.62-1-5.42-1.17-8-1.89-1.21-.34-1.91-2.77-2.68-4.33-0.27-.55.44-0.72,1-0.88,1-.29,1.88-0.81,2.86-1a21.37,21.37,0,0,0,11.09-6.22c1-1,2.25-2.14,2.47-4.06,0.19-1.72,1.51-3.35,2.85-4.61a36.59,36.59,0,0,1,6.22-5.16,9.51,9.51,0,0,1,7.67-1.19,8.9,8.9,0,0,0,6.86-.82A1.51,1.51,0,0,0,97.77,156.9Z"/><path class="cls-20" d="M101.34,77.59c0,1.25.15,2.47-.68,3.66A1.76,1.76,0,0,0,101.4,84c1.32,0.78,1.37,3.41.16,5.23-1,1.49-2.5,1.22-3.91.9a1.21,1.21,0,0,1-.83-1.64c1-2.18-.63-3.42-1.68-4.74-0.65-.81-1.1-1.33-0.07-2,1.41-.9-0.05-2.72,1.23-3.63,0.13,0.6-.31,1.34.63,1.9,0.67-1.81,2.18-2.53,3.88-3A1.19,1.19,0,0,1,101.34,77.59Z"/><path class="cls-64" d="M101.34,77.59L100.8,77c-0.19-2.17,1-4,1.59-6,0.47-1.49,1.84-2.58,3.52-1,0.79,0.72,1.38.22,2.05-.05,1.72,1.92,3.95,1.32,5.65.48a48,48,0,0,0,5.53-2.94,0.6,0.6,0,0,1,1.05-.06c-2.17,2.18-4.36,3.92-7.78,4.23-1.87.17-3.73-.07-5.6,0.14-2.17.25-1.64,2.9-2.34,2.82a2.42,2.42,0,0,0-3,1.71A5,5,0,0,0,101.34,77.59Z"/><path class="cls-65" d="M110.48,99c1.44-.14,2.26.33,2.09,2a5.83,5.83,0,0,0,.17,2.25c0.21,0.7,1.15,1.26,1.49.51,0.48-1.06,1.39-2.7.51-3.51-1.74-1.58-1-2.5.27-3.62a0.63,0.63,0,0,0,.22-0.45c-0.65-4.75,4.89-4,6.35-7,0.29-.59,2.43-0.32,3.68.15,1.92,1.4,1,3.48.17,4.46-2.05,2.36-1.41,4.39-.19,6.63a1.32,1.32,0,0,1,.08,1.21c-2.61.75-4.23-.13-4.59-3-0.26-2.08-1.27-2.52-3.25-2.36a6.72,6.72,0,0,1-.58,6.06c-1,1.87.41,3.59,0.65,5.39,0.08,0.63.86,0.18,1.32,0.07,1.16-.27,2,0,2.35,1.27s0.71,2.52-.53,3.52c-1,.84-1.91.28-2.71-0.43-1.19-1.07-2.65-1.72-3.74-3-1.63-1.92-4.17-1.15-4.88,1.27-0.83,2.82-.24,4.23,2.32,5.58a0.61,0.61,0,0,1,.35.83,0.88,0.88,0,0,0-1,.93c0.15,1.95-.66,2.72-2.65,2.68-1.14,0-2.05.69-.87,1.94,0.48,0.51,1.09.87,0.51,1.66a2,2,0,0,1-2,.9c-0.91-.13-1.81-0.33-2.71-0.49a12.64,12.64,0,0,0-6.12-3.23c-2.24-.42-2.9-2.38-2-4.93,1.71-.43,2.84-1.24,2.63-3.3A2.3,2.3,0,0,1,99,110.82c1.79-.9,3.33-1.93,3.83-4a1.44,1.44,0,0,1,.53-0.46c1.26,2.17,4.08-1.13,5,1.65,2.38-2.94.71-5.69,0.12-8.45A2.85,2.85,0,0,1,110.48,99Z"/><path class="cls-66" d="M111.78,94.89c0.62,2.53-.15,3.24-1.94,3a3.68,3.68,0,0,0-2.74,1,4.17,4.17,0,0,1-6.21-2,3.19,3.19,0,0,1,.6-3.11c0.73-.88,1.5-0.31,2.29,0a2.25,2.25,0,0,0,2.36-.36c1.56-1.24,3.43-.64,5.1-0.44C112.65,93.19,111.7,94.72,111.78,94.89Z"/><path class="cls-67" d="M126.22,67.89c0-1,.3-2.29-1.11-2.41-1.71-.15-3.61-0.29-4.46,1.84l-0.45.13-1.05.06c2.79-4.18,3.47-4.47,7.57-3.15a0.66,0.66,0,0,1,.24,0c2,2.74,4.89,3.1,7.94,3L136,68.38a2.74,2.74,0,0,1,2.27,1.86c-0.45,1.77-1.64,1.22-2.51.6a7,7,0,0,0-5-1.21C129.11,69.35,127.15,69.94,126.22,67.89Z"/><path class="cls-68" d="M82,125.37c0.56,0.11,1.32.28,0.67,1s0.47,2.21-1.08,2c-1-.11-0.84-1.35-1-2.08S81.28,125.36,82,125.37Z"/><path class="cls-69" d="M146.66,121l1,0.76c-1.22.28-2.44,1.39-3.79,0A3.13,3.13,0,0,1,146.66,121Z"/><path class="cls-70" d="M141.24,134.56c0.66,0,1,.24,1,0.73a1.23,1.23,0,0,1-1,1.27c-0.69.13-.82-0.45-0.87-0.94A0.88,0.88,0,0,1,141.24,134.56Z"/><path class="cls-71" d="M112,116.83a1.65,1.65,0,0,0-.16-0.2c-0.93-.84-2.9.35-3.23-1.35a9.9,9.9,0,0,1,.58-6.46c0.89-1.74,4.63-2,5.52-.2,1,2,3.19,2.26,4.55,3.72,0.72,0.78,1.85-.38,1.66-1.33s0.25-2.18-.87-2.73-1.73.8-3.06,1.14c0.26-2.91-2.55-5.44-.17-8.5a3,3,0,0,0,0-4,0.85,0.85,0,0,1-.13-1.32,1.23,1.23,0,0,1,1.35-.28c1.86,0.42,3.59.46,3.33,3.39-0.19,2.14,1.69,3.13,3.93,2.77a5.89,5.89,0,0,1,5.07,4.61c0.35,0.63,1,.38,1.54.62,1.52,0.72,2,1.68.5,2.95-2.16.37-4.33,0.68-6.48,1.11a6.66,6.66,0,0,0-4.07,3.25c-0.76,1.14-1.2,2-2.63.69a3.06,3.06,0,0,0-3.58-.1c-1.23.69-1.16,2-1,3.19a2.09,2.09,0,0,0,2.43,2,1.78,1.78,0,0,1,1.76,1.55c-0.47,3-.47,3-3.74,3.13-1-.8-1.79-0.46-2.68.2a1.08,1.08,0,0,1-1.55-.31,0.72,0.72,0,0,1,.17-1.09C113.63,121.49,112.58,119.12,112,116.83Z"/><path class="cls-72" d="M134.43,115.22l-3.1,1c-0.82.17-1.63,0.4-2.46,0.51a3.06,3.06,0,0,1-3.59-3.38,1.64,1.64,0,0,1,.77-1.48C128.45,110.52,133.39,112.46,134.43,115.22Z"/><path class="cls-73" d="M124.2,121.3c1.35-1.83-.6-3.08-0.94-4.58-0.21-.93-0.5-1.81.34-2.13s1.54,0.61,1.61,1.45c0.15,1.94,1.3,2.14,2.88,2.92s3.3,2,5.29,2.59c0.89,0.24.23,1.09-.29,1.25-1.85.57-3.78,1.16-5.35-.62-0.68-.76-1.17-1.08-1.47.23A1.82,1.82,0,0,1,124.2,121.3Z"/><path class="cls-74" d="M118.12,129a10.07,10.07,0,0,1-2.22,0,2.82,2.82,0,0,1-2.12-1.9c-0.43-1.27.8-1.43,1.33-2.06,1.74-1.37,3.16-1.18,3.79.5a2.72,2.72,0,0,0,3.23,1.77c0.72-.11,1.84-0.37,1.83.66,0,1.48-1.26.5-2,.62C120.72,128.8,119.31,128,118.12,129Z"/><path class="cls-75" d="M124.2,121.3a3.89,3.89,0,0,1,2.06,1.11c-0.58,1.28-.37,3.27-2.68,3,0.24-1.59-.68-2-2-2,0-1,.42-2-0.43-2.86a1.61,1.61,0,0,1,0-2.29A0.62,0.62,0,0,1,122,118c0.7,0.59,1.43,1.12,1,2.31S123,122,124.2,121.3Z"/><path class="cls-75" d="M118.89,125.53c-1-2-2.43-1-3.79-.5l0-.53c1.54-.69,3.06-1.41,3.74-3.13C119.7,122.74,120.28,124.11,118.89,125.53Z"/><path class="cls-76" d="M121.56,123.36c0.75,0.22,1.06-1.91,1.83-.49,0.31,0.57,2.44,1.58.2,2.54-1-.14-2.13.42-2.78-0.64C120.4,124.13,121.18,123.78,121.56,123.36Z"/><path class="cls-77" d="M145.73,117.31c0.36,0.61.34,1.16-.39,1.42-1.25.43-1.72-.56-2.28-1.35-0.23-.56-1.6-0.28-1.09-1.26,0.3-.58,1-0.34,1.59,0Z"/><path class="cls-78" d="M130.37,106.11a16.44,16.44,0,0,0-5.07-4.61c-0.71-1.4-1.37-2.83-2.14-4.2-0.64-1.14.14-1.69,0.79-2.32a5.18,5.18,0,0,0,1.32-5.67c0.7-3.07,1.69-3.36,4.47-2.24,2.23,0.9,3.18,3.22,5.38,4.12,0.69,0.28.71,1.85,0,2.48-1.46,1.22-.72,1.49.52,1.87,0.61,0.19,1.52.36,1.55,1.12s-1,.68-1.55,1c-2.06,1.3-2.16,2.5-.36,4.05a2.1,2.1,0,0,1,.66,1c0.59,2.54,2,2.11,3.79,1.26a7.4,7.4,0,0,1,5.88.05,0.9,0.9,0,0,1,.78,1.1,0.93,0.93,0,0,1-1.08.42c-2.95.13-5.92-.29-8.84,0.45a1,1,0,0,1-1.45-1,1.33,1.33,0,0,0-1.22-1.39,1.19,1.19,0,0,0-1.31,1.25C132.33,106.37,131.25,106,130.37,106.11Z"/><path class="cls-79" d="M145.71,75.51c-1.33.06-2.74-.16-3.42,1.48a1,1,0,0,1-1.31.46c-1.31-.69-2.42-0.22-3.52.6-0.53-1,.67-2.49-0.92-2.9-2-.5-2.29,1.52-3.62,2.29,1.15,0.88,2.28-.48,3.41.71-2.64,1-5.41,1.95-4.92,5.53-1.43-.64-1.83-2.2-2.8-3.26a4.64,4.64,0,0,0-2.8-1.83c-2.36-1.66-2.35-1.64-.07-3.33a13.47,13.47,0,0,0,1.64-1.59,1.18,1.18,0,0,0,.18-1.61c-0.45-.62-0.92-0.4-1.53-0.11-1.56.76-2.68-.84-4.11-0.91,0.2-1.31.1-2.78,0.68-3.88,0.88-1.67,2.6-1.25,3.63.72A10.09,10.09,0,0,0,130.83,69c3.25,0.62,5.84,2.42,8.47,4.35C141.09,74.65,143.75,74.2,145.71,75.51Z"/><path class="cls-80" d="M146.56,82.38c0.61,0.25,1.46.35,1.47,1.17,0,1.06-.92.74-1.52,0.74s-1.28-.06-1.13-0.94A0.94,0.94,0,0,1,146.56,82.38Z"/></svg>